%TF.GenerationSoftware,KiCad,Pcbnew,7.0.11+dfsg-1build4*%
%TF.CreationDate,2026-10-01T15:00:52+10:00*%
%TF.ProjectId,Reid_Orthotic_v2_RHS,52656964-5f4f-4727-9468-6f7469635f76,R4*%
%TF.SameCoordinates,Original*%
%TF.FileFunction,Soldermask,Bot*%
%TF.FilePolarity,Negative*%
%FSLAX46Y46*%
G04 Gerber Fmt 4.6, Leading zero omitted, Abs format (unit mm)*
G04 Created by KiCad (PCBNEW 7.0.11+dfsg-1build4) date 2026-10-01 15:00:52*
%MOMM*%
%LPD*%
G01*
G04 APERTURE LIST*
G04 Aperture macros list*
%AMRoundRect*
0 Rectangle with rounded corners*
0 $1 Rounding radius*
0 $2 $3 $4 $5 $6 $7 $8 $9 X,Y pos of 4 corners*
0 Add a 4 corners polygon primitive as box body*
4,1,4,$2,$3,$4,$5,$6,$7,$8,$9,$2,$3,0*
0 Add four circle primitives for the rounded corners*
1,1,$1+$1,$2,$3*
1,1,$1+$1,$4,$5*
1,1,$1+$1,$6,$7*
1,1,$1+$1,$8,$9*
0 Add four rect primitives between the rounded corners*
20,1,$1+$1,$2,$3,$4,$5,0*
20,1,$1+$1,$4,$5,$6,$7,0*
20,1,$1+$1,$6,$7,$8,$9,0*
20,1,$1+$1,$8,$9,$2,$3,0*%
%AMHorizOval*
0 Thick line with rounded ends*
0 $1 width*
0 $2 $3 position (X,Y) of the first rounded end (center of the circle)*
0 $4 $5 position (X,Y) of the second rounded end (center of the circle)*
0 Add line between two ends*
20,1,$1,$2,$3,$4,$5,0*
0 Add two circle primitives to create the rounded ends*
1,1,$1,$2,$3*
1,1,$1,$4,$5*%
G04 Aperture macros list end*
%ADD10C,0.050000*%
%ADD11RoundRect,0.050000X-0.225000X-0.275000X0.225000X-0.275000X0.225000X0.275000X-0.225000X0.275000X0*%
%ADD12RoundRect,0.050000X-0.275000X-0.225000X0.275000X-0.225000X0.275000X0.225000X-0.275000X0.225000X0*%
%ADD13RoundRect,0.050000X-0.450000X-0.350000X0.450000X-0.350000X0.450000X0.350000X-0.450000X0.350000X0*%
%ADD14RoundRect,0.087500X-0.262500X-0.512500X0.262500X-0.512500X0.262500X0.512500X-0.262500X0.512500X0*%
%ADD15RoundRect,0.100000X-0.300000X-0.325000X0.300000X-0.325000X0.300000X0.325000X-0.300000X0.325000X0*%
%ADD16RoundRect,0.162499X0.194500X-0.424255X0.424255X-0.194500X-0.194500X0.424255X-0.424255X0.194500X0*%
%ADD17RoundRect,0.087498X0.106098X-0.229858X0.229858X-0.106098X-0.106098X0.229858X-0.229858X0.106098X0*%
%ADD18RoundRect,0.118694X-0.548001X-1.051844X1.051844X0.548001X0.548001X1.051844X-1.051844X-0.548001X0*%
%ADD19O,0.900000X0.350000*%
%ADD20O,0.350000X0.900000*%
%ADD21RoundRect,0.137500X-0.912500X-0.412500X0.912500X-0.412500X0.912500X0.412500X-0.912500X0.412500X0*%
%ADD22HorizOval,0.350000X0.194500X0.194500X-0.194500X-0.194500X0*%
%ADD23HorizOval,0.350000X-0.194500X0.194500X0.194500X-0.194500X0*%
%ADD24RoundRect,0.137501X-0.353500X-0.936933X0.936933X0.353500X0.353500X0.936933X-0.936933X-0.353500X0*%
%ADD25RoundRect,0.075000X-0.075000X-0.275000X0.075000X-0.275000X0.075000X0.275000X-0.075000X0.275000X0*%
%ADD26RoundRect,0.075000X-0.275000X-0.075000X0.275000X-0.075000X0.275000X0.075000X-0.275000X0.075000X0*%
%ADD27RoundRect,0.235000X-2.115000X-2.115000X2.115000X-2.115000X2.115000X2.115000X-2.115000X2.115000X0*%
%ADD28RoundRect,0.087500X-0.087500X-0.212500X0.087500X-0.212500X0.087500X0.212500X-0.087500X0.212500X0*%
%ADD29RoundRect,0.087500X-0.212500X-0.087500X0.212500X-0.087500X0.212500X0.087500X-0.212500X0.087500X0*%
%ADD30RoundRect,0.050000X-0.035401X-0.353599X0.353599X0.035401X0.035401X0.353599X-0.353599X-0.035401X0*%
%ADD31RoundRect,0.050000X0.035401X-0.353599X0.353599X-0.035401X-0.035401X0.353599X-0.353599X0.035401X0*%
%ADD32RoundRect,0.050000X-0.350000X-0.450000X0.350000X-0.450000X0.350000X0.450000X-0.350000X0.450000X0*%
%ADD33RoundRect,0.087500X-0.262500X-0.412500X0.262500X-0.412500X0.262500X0.412500X-0.262500X0.412500X0*%
%ADD34RoundRect,0.087500X0.106101X-0.477332X0.477332X-0.106101X-0.106101X0.477332X-0.477332X0.106101X0*%
%ADD35RoundRect,0.050000X0.065979X-0.349125X0.355277X-0.004428X-0.065979X0.349125X-0.355277X0.004428X0*%
%ADD36RoundRect,0.274995X0.353497X-0.742462X0.742462X-0.353497X-0.353497X0.742462X-0.742462X0.353497X0*%
%ADD37RoundRect,0.275000X-0.275000X-0.775000X0.275000X-0.775000X0.275000X0.775000X-0.275000X0.775000X0*%
%ADD38O,1.600000X1.150000*%
%ADD39HorizOval,1.150000X0.159099X0.159099X-0.159099X-0.159099X0*%
%ADD40RoundRect,0.050000X-0.070700X-0.494999X0.494999X0.070700X0.070700X0.494999X-0.494999X-0.070700X0*%
%ADD41RoundRect,0.050000X-0.450000X-0.400000X0.450000X-0.400000X0.450000X0.400000X-0.450000X0.400000X0*%
%ADD42RoundRect,0.050000X-0.070700X-0.565703X0.565703X0.070700X0.070700X0.565703X-0.565703X-0.070700X0*%
%ADD43RoundRect,0.050000X-0.675000X-0.400000X0.675000X-0.400000X0.675000X0.400000X-0.675000X0.400000X0*%
%ADD44RoundRect,0.050000X0.070700X-0.565703X0.565703X-0.070700X-0.070700X0.565703X-0.565703X0.070700X0*%
%ADD45RoundRect,0.050000X-0.400000X-0.675000X0.400000X-0.675000X0.400000X0.675000X-0.400000X0.675000X0*%
%ADD46RoundRect,0.050000X0.057407X-0.350702X0.332395X0.125700X-0.057407X0.350702X-0.332395X-0.125700X0*%
%ADD47RoundRect,0.089997X0.504164X-0.706758X0.864152X-0.083241X-0.504164X0.706758X-0.864152X0.083241X0*%
G04 APERTURE END LIST*
D10*
X42845000Y-35585000D02*
G75*
G03*
X42795000Y-35585000I-25000J0D01*
G01*
X42795000Y-35585000D02*
G75*
G03*
X42845000Y-35585000I25000J0D01*
G01*
X37765000Y-36600000D02*
G75*
G03*
X37715000Y-36600000I-25000J0D01*
G01*
X37715000Y-36600000D02*
G75*
G03*
X37765000Y-36600000I25000J0D01*
G01*
X37765000Y-34570000D02*
G75*
G03*
X37715000Y-34570000I-25000J0D01*
G01*
X37715000Y-34570000D02*
G75*
G03*
X37765000Y-34570000I25000J0D01*
G01*
D11*
%TO.C,C4*%
X40900000Y-37050000D03*
X40000000Y-37050000D03*
%TD*%
%TO.C,C5*%
X43900000Y-37150000D03*
X44800000Y-37150000D03*
%TD*%
%TO.C,C6*%
X40000000Y-37950000D03*
X40900000Y-37950000D03*
%TD*%
%TO.C,C7*%
X38350000Y-39000000D03*
X39250000Y-39000000D03*
%TD*%
D12*
%TO.C,C8*%
X47100000Y-38350000D03*
X47100000Y-39250000D03*
%TD*%
%TO.C,C9*%
X38599900Y-41650000D03*
X38599900Y-40750000D03*
%TD*%
D11*
%TO.C,L1*%
X38500000Y-39900000D03*
X39400000Y-39900000D03*
%TD*%
D13*
%TO.C,L2*%
X37550000Y-39900000D03*
X37550000Y-41300000D03*
%TD*%
D14*
%TO.C,X1*%
X41800000Y-37150000D03*
X43000000Y-37150000D03*
%TD*%
D12*
%TO.C,R20*%
X46050000Y-38350000D03*
X46050000Y-37450000D03*
%TD*%
%TO.C,C12*%
X40200000Y-46900000D03*
X40200000Y-46000000D03*
%TD*%
D15*
%TO.C,X2*%
X38250000Y-46875000D03*
X38250000Y-45525000D03*
X39250000Y-45525000D03*
X39250000Y-46875000D03*
%TD*%
D16*
%TO.C,U9*%
X42008101Y-31721798D03*
X41336399Y-32393500D03*
X40664598Y-33065301D03*
X38684699Y-31085402D03*
X40028202Y-29741899D03*
%TD*%
D17*
%TO.C,U8*%
X44215899Y-28945200D03*
X43862304Y-29298697D03*
X43508701Y-29652300D03*
X43155197Y-30005804D03*
X42801601Y-30359399D03*
X41387402Y-28945200D03*
X41740997Y-28591604D03*
X42094501Y-28238100D03*
X42448104Y-27884497D03*
X42801601Y-27531001D03*
D18*
X42801601Y-28945200D03*
%TD*%
D19*
%TO.C,U7*%
X53200000Y-51200000D03*
D20*
X52700000Y-52200000D03*
X52200000Y-52200000D03*
X51700000Y-52200000D03*
X51200000Y-52200000D03*
X50700000Y-52200000D03*
X50200000Y-52200000D03*
D19*
X49700000Y-51200000D03*
X49700000Y-50700000D03*
D20*
X50200000Y-49700000D03*
X50700000Y-49700000D03*
X51200000Y-49700000D03*
X51700000Y-49700000D03*
X52200000Y-49700000D03*
X52700000Y-49700000D03*
D19*
X53200000Y-50700000D03*
D21*
X51450000Y-50950000D03*
%TD*%
D19*
%TO.C,U6*%
X53200000Y-42400000D03*
D20*
X52700000Y-43400000D03*
X52200000Y-43400000D03*
X51700000Y-43400000D03*
X51200000Y-43400000D03*
X50700000Y-43400000D03*
X50200000Y-43400000D03*
D19*
X49700000Y-42400000D03*
X49700000Y-41900000D03*
D20*
X50200000Y-40900000D03*
X50700000Y-40900000D03*
X51200000Y-40900000D03*
X51700000Y-40900000D03*
X52200000Y-40900000D03*
X52700000Y-40900000D03*
D19*
X53200000Y-41900000D03*
D21*
X51450000Y-42150000D03*
%TD*%
D22*
%TO.C,U5*%
X50168199Y-25888597D03*
D23*
X50521795Y-26949300D03*
X50168199Y-27302797D03*
X49814696Y-27656400D03*
X49461100Y-28009897D03*
X49107596Y-28363499D03*
X48754000Y-28716996D03*
D22*
X47693396Y-28363499D03*
X47339801Y-28009904D03*
D23*
X46986304Y-26949300D03*
X47339801Y-26595704D03*
X47693403Y-26242200D03*
X48046900Y-25888604D03*
X48400503Y-25535101D03*
X48754000Y-25181505D03*
D22*
X49814703Y-25535101D03*
D24*
X48754000Y-26949300D03*
%TD*%
D22*
%TO.C,U4*%
X46263999Y-21989097D03*
D23*
X46617595Y-23049800D03*
X46263999Y-23403396D03*
X45910397Y-23756900D03*
X45556900Y-24110397D03*
X45203297Y-24463999D03*
X44849800Y-24817595D03*
D22*
X43789097Y-24463999D03*
X43435601Y-24110404D03*
D23*
X43082005Y-23049800D03*
X43435601Y-22696204D03*
X43789104Y-22342700D03*
X44142700Y-21989104D03*
X44496204Y-21635601D03*
X44849800Y-21282005D03*
D22*
X45910404Y-21635601D03*
D24*
X44849800Y-23049800D03*
%TD*%
D22*
%TO.C,U3*%
X42390299Y-18110696D03*
D23*
X42743796Y-19171300D03*
X42390299Y-19524896D03*
X42036697Y-19878400D03*
X41683200Y-20231996D03*
X41329597Y-20585499D03*
X40976100Y-20939095D03*
D22*
X39915397Y-20585499D03*
X39561901Y-20232003D03*
D23*
X39208305Y-19171300D03*
X39561901Y-18817704D03*
X39915404Y-18464200D03*
X40269000Y-18110703D03*
X40622504Y-17757101D03*
X40976100Y-17403505D03*
D22*
X42036704Y-17757101D03*
D24*
X40976100Y-19171300D03*
%TD*%
D25*
%TO.C,U2*%
X41150000Y-39150000D03*
X41550000Y-39150000D03*
X41950000Y-39150000D03*
X42350000Y-39150000D03*
X42750000Y-39150000D03*
X43150000Y-39150000D03*
X43550000Y-39150000D03*
X43950000Y-39150000D03*
X44350000Y-39150000D03*
X44750000Y-39150000D03*
X45150000Y-39150000D03*
X45550000Y-39150000D03*
D26*
X46250000Y-39850000D03*
X46250000Y-40250000D03*
X46250000Y-40650000D03*
X46250000Y-41050000D03*
X46250000Y-41450000D03*
X46250000Y-41850000D03*
X46250000Y-42250000D03*
X46250000Y-42650000D03*
X46250000Y-43050000D03*
X46250000Y-43450000D03*
X46250000Y-43850000D03*
X46250000Y-44250000D03*
D25*
X45550000Y-44950000D03*
X45150000Y-44950000D03*
X44750000Y-44950000D03*
X44350000Y-44950000D03*
X43950000Y-44950000D03*
X43550000Y-44950000D03*
X43150000Y-44950000D03*
X42750000Y-44950000D03*
X42350000Y-44950000D03*
X41950000Y-44950000D03*
X41550000Y-44950000D03*
X41150000Y-44950000D03*
D26*
X40450000Y-44250000D03*
X40450000Y-43850000D03*
X40450000Y-43450000D03*
X40450000Y-43050000D03*
X40450000Y-42650000D03*
X40450000Y-42250000D03*
X40450000Y-41850000D03*
X40450000Y-41450000D03*
X40450000Y-41050000D03*
X40450000Y-40650000D03*
X40450000Y-40250000D03*
X40450000Y-39850000D03*
D27*
X43350000Y-42050000D03*
%TD*%
D28*
%TO.C,U1*%
X50300000Y-39000000D03*
X49800000Y-39000000D03*
X49300000Y-39000000D03*
X48800000Y-39000000D03*
D29*
X48650000Y-38350000D03*
X48650000Y-37850000D03*
X48650000Y-37350000D03*
D28*
X48800000Y-36700000D03*
X49300000Y-36700000D03*
X49800000Y-36700000D03*
X50300000Y-36700000D03*
D29*
X50450000Y-37350000D03*
X50450000Y-37850000D03*
X50450000Y-38350000D03*
%TD*%
D30*
%TO.C,R62*%
X39973202Y-27389502D03*
X40609598Y-28025898D03*
%TD*%
%TO.C,R61*%
X40609602Y-26753102D03*
X41245998Y-27389498D03*
%TD*%
%TO.C,R60*%
X43791499Y-31914998D03*
X43155202Y-31278701D03*
%TD*%
%TO.C,R59*%
X43791602Y-30642202D03*
X44427899Y-31278598D03*
%TD*%
D31*
%TO.C,R58*%
X41513102Y-33913798D03*
X42149498Y-33277402D03*
%TD*%
%TO.C,R57*%
X42149502Y-34550198D03*
X42785898Y-33913802D03*
%TD*%
D30*
%TO.C,R56*%
X44498702Y-29935102D03*
X45134999Y-30571498D03*
%TD*%
D31*
%TO.C,R55*%
X55045002Y-49219998D03*
X55681398Y-48583602D03*
%TD*%
D32*
%TO.C,R54*%
X53099900Y-30999900D03*
X51699900Y-30999900D03*
%TD*%
D11*
%TO.C,R51*%
X52200000Y-53550000D03*
X53099900Y-53550000D03*
%TD*%
%TO.C,R50*%
X52200000Y-44750000D03*
X53100000Y-44750000D03*
%TD*%
D31*
%TO.C,R49*%
X51122802Y-28257498D03*
X51759198Y-27621102D03*
%TD*%
%TO.C,R48*%
X47218602Y-24357898D03*
X47854899Y-23721502D03*
%TD*%
%TO.C,R47*%
X43318802Y-20458098D03*
X43955099Y-19821702D03*
%TD*%
D11*
%TO.C,R46*%
X52600000Y-35250000D03*
X51700100Y-35250000D03*
%TD*%
D12*
%TO.C,R45*%
X46100000Y-46200000D03*
X46100000Y-47100000D03*
%TD*%
D31*
%TO.C,R44*%
X46565602Y-30321098D03*
X47201998Y-29684801D03*
%TD*%
%TO.C,R43*%
X45929202Y-32088898D03*
X46565598Y-31452502D03*
%TD*%
%TO.C,R42*%
X48474802Y-35200198D03*
X49111198Y-34563802D03*
%TD*%
%TO.C,R41*%
X47838402Y-31593898D03*
X48474798Y-30957502D03*
%TD*%
D11*
%TO.C,R40*%
X51600000Y-37850000D03*
X52500000Y-37850000D03*
%TD*%
%TO.C,R39*%
X51600000Y-38749900D03*
X52500000Y-38749900D03*
%TD*%
D31*
%TO.C,R38*%
X55043602Y-53031397D03*
X55679998Y-52395001D03*
%TD*%
%TO.C,R37*%
X55043602Y-51761397D03*
X55679998Y-51125001D03*
%TD*%
%TO.C,R36*%
X55043602Y-50491298D03*
X55679998Y-49855001D03*
%TD*%
%TO.C,R35*%
X55043602Y-46681298D03*
X55679998Y-46045001D03*
%TD*%
%TO.C,R34*%
X55043602Y-45411298D03*
X55679998Y-44775001D03*
%TD*%
%TO.C,R33*%
X55043602Y-44141397D03*
X55679998Y-43505001D03*
%TD*%
%TO.C,R32*%
X55043602Y-42871298D03*
X55679998Y-42235001D03*
%TD*%
%TO.C,R31*%
X55043602Y-41601298D03*
X55679998Y-40965001D03*
%TD*%
%TO.C,R30*%
X55043602Y-40331397D03*
X55679998Y-39695001D03*
%TD*%
%TO.C,R29*%
X55043602Y-39061298D03*
X55679998Y-38425001D03*
%TD*%
%TO.C,R28*%
X55043602Y-37791397D03*
X55679998Y-37155001D03*
%TD*%
%TO.C,R27*%
X55043602Y-36521397D03*
X55679998Y-35885001D03*
%TD*%
%TO.C,R26*%
X55043602Y-35251298D03*
X55679998Y-34615001D03*
%TD*%
%TO.C,R25*%
X55043602Y-33981397D03*
X55679998Y-33345001D03*
%TD*%
%TO.C,R24*%
X55043602Y-32711298D03*
X55679998Y-32075001D03*
%TD*%
%TO.C,R23*%
X55043602Y-31441298D03*
X55679998Y-30805001D03*
%TD*%
%TO.C,R22*%
X55043602Y-30171298D03*
X55679998Y-29535001D03*
%TD*%
%TO.C,R21*%
X55043602Y-28901298D03*
X55679998Y-28265001D03*
%TD*%
D11*
%TO.C,R19*%
X54072400Y-27668500D03*
X54972400Y-27668500D03*
%TD*%
%TO.C,R18*%
X53674400Y-26770400D03*
X54574400Y-26770400D03*
%TD*%
%TO.C,R17*%
X52776400Y-25872400D03*
X53676400Y-25872400D03*
%TD*%
%TO.C,R16*%
X51878400Y-24974400D03*
X52778400Y-24974400D03*
%TD*%
%TO.C,R15*%
X50980300Y-24076400D03*
X51880300Y-24076400D03*
%TD*%
%TO.C,R14*%
X50082300Y-23178300D03*
X50982300Y-23178300D03*
%TD*%
%TO.C,R13*%
X49184300Y-22280300D03*
X50084300Y-22280300D03*
%TD*%
%TO.C,R12*%
X48286300Y-21382300D03*
X49186200Y-21382300D03*
%TD*%
D12*
%TO.C,R11*%
X47390100Y-20486200D03*
X47390100Y-19586300D03*
%TD*%
%TO.C,R10*%
X46492100Y-19588200D03*
X46492100Y-18688300D03*
%TD*%
%TO.C,R9*%
X45594100Y-18690200D03*
X45594100Y-17790200D03*
%TD*%
%TO.C,R8*%
X44696000Y-17792200D03*
X44696000Y-16892200D03*
%TD*%
%TO.C,R7*%
X43798000Y-16894200D03*
X43798000Y-15994200D03*
%TD*%
%TO.C,R6*%
X42900000Y-15996100D03*
X42900000Y-15096200D03*
%TD*%
%TO.C,R5*%
X42002000Y-15098100D03*
X42002000Y-14198100D03*
%TD*%
%TO.C,R4*%
X41103900Y-14200100D03*
X41103900Y-13300100D03*
%TD*%
%TO.C,R3*%
X40205900Y-13302100D03*
X40205900Y-12402100D03*
%TD*%
%TO.C,R2*%
X39307900Y-12404000D03*
X39307900Y-11504100D03*
%TD*%
%TO.C,R1*%
X38409900Y-11506000D03*
X38409900Y-10606000D03*
%TD*%
D33*
%TO.C,Q3*%
X53050100Y-34149900D03*
X51750100Y-34149900D03*
X52400100Y-32349900D03*
%TD*%
D34*
%TO.C,Q2*%
X48303199Y-33833902D03*
X47384002Y-34753099D03*
X46570801Y-33020701D03*
%TD*%
%TO.C,Q1*%
X48474801Y-32513197D03*
X49393998Y-31594000D03*
X50207199Y-33326398D03*
%TD*%
D35*
%TO.C,L3*%
X43439299Y-47105304D03*
X42860703Y-47794802D03*
%TD*%
D36*
%TO.C,J4*%
X38735800Y-26364200D03*
X40150000Y-24950000D03*
%TD*%
D37*
%TO.C,J3*%
X46300000Y-53250000D03*
X48300000Y-53250000D03*
%TD*%
D38*
%TO.C,J2*%
X56750000Y-53030000D03*
X56750000Y-51760000D03*
X56750000Y-50490000D03*
X56750000Y-49220000D03*
X56750000Y-47950000D03*
X56750000Y-46680000D03*
X56750000Y-45410000D03*
X56750000Y-44140000D03*
X56750000Y-42870000D03*
X56750000Y-41600000D03*
X56750000Y-40330000D03*
X56750000Y-39060000D03*
X56750000Y-37790000D03*
X56750000Y-36520000D03*
X56750000Y-35250000D03*
X56750000Y-33980000D03*
X56750000Y-32710000D03*
X56750000Y-31440000D03*
X56750000Y-30170000D03*
X56750000Y-28900000D03*
%TD*%
D39*
%TO.C,J1*%
X55036404Y-25536503D03*
X54138399Y-24638498D03*
X50546304Y-21046403D03*
X47852199Y-18352298D03*
X46954201Y-17454300D03*
X39770004Y-10270103D03*
X51444301Y-21944400D03*
X44260103Y-14760202D03*
X43362099Y-13862198D03*
X40668001Y-11168100D03*
X55934500Y-26434500D03*
X53240402Y-23740402D03*
X52342397Y-22842397D03*
X49648299Y-20148299D03*
X48750302Y-19250302D03*
X46056197Y-16556197D03*
X45158200Y-15658200D03*
X42464102Y-12964102D03*
X41566097Y-12066097D03*
X38871999Y-9371999D03*
%TD*%
D40*
%TO.C,F1*%
X41281197Y-24172097D03*
X42271203Y-25162103D03*
%TD*%
D41*
%TO.C,D2*%
X48300000Y-45550000D03*
X48300000Y-47850000D03*
%TD*%
%TO.C,D1*%
X48300000Y-51400000D03*
X48300000Y-49100000D03*
%TD*%
D42*
%TO.C,C43*%
X44039003Y-26929903D03*
X43049103Y-25940003D03*
%TD*%
D43*
%TO.C,C42*%
X50050000Y-45950000D03*
X50050000Y-47850000D03*
%TD*%
%TO.C,C40*%
X51850000Y-45950000D03*
X51850000Y-47850000D03*
%TD*%
D44*
%TO.C,C39*%
X38083697Y-29777303D03*
X39073703Y-28787297D03*
%TD*%
D45*
%TO.C,C38*%
X44950000Y-49350000D03*
X46850000Y-49350000D03*
%TD*%
%TO.C,C37*%
X44950000Y-51150000D03*
X46850000Y-51150000D03*
%TD*%
D42*
%TO.C,C35*%
X44058704Y-33772303D03*
X43068797Y-32782396D03*
%TD*%
%TO.C,C34*%
X44816897Y-27707797D03*
X45806903Y-28697803D03*
%TD*%
D12*
%TO.C,C28*%
X53950000Y-49250000D03*
X53950000Y-50150000D03*
%TD*%
%TO.C,C27*%
X53950000Y-40450000D03*
X53950000Y-41350000D03*
%TD*%
D30*
%TO.C,C26*%
X49319802Y-23979402D03*
X49956099Y-24615798D03*
%TD*%
%TO.C,C25*%
X45415502Y-20079902D03*
X46051898Y-20716298D03*
%TD*%
%TO.C,C24*%
X41515702Y-16180102D03*
X42152098Y-16816498D03*
%TD*%
D11*
%TO.C,C23*%
X51450000Y-53550000D03*
X50550000Y-53550000D03*
%TD*%
%TO.C,C22*%
X51450000Y-44750000D03*
X50550000Y-44750000D03*
%TD*%
D31*
%TO.C,C21*%
X50592498Y-28787802D03*
X49956102Y-29424198D03*
%TD*%
%TO.C,C20*%
X46688298Y-24888302D03*
X46051902Y-25524698D03*
%TD*%
%TO.C,C19*%
X42788498Y-20988502D03*
X42152102Y-21624898D03*
%TD*%
%TO.C,C18*%
X55043602Y-47951298D03*
X55679998Y-47315001D03*
%TD*%
D46*
%TO.C,C16*%
X41460302Y-48024996D03*
X42239698Y-48475004D03*
%TD*%
D11*
%TO.C,C15*%
X42850000Y-46150000D03*
X43750000Y-46150000D03*
%TD*%
D12*
%TO.C,C13*%
X41999900Y-47150000D03*
X41999900Y-46250000D03*
%TD*%
D11*
%TO.C,C11*%
X37750000Y-44550000D03*
X38650000Y-44550000D03*
%TD*%
D12*
%TO.C,C10*%
X38599900Y-42750000D03*
X38599900Y-43649900D03*
%TD*%
%TO.C,C3*%
X45200000Y-47100000D03*
X45200000Y-46200000D03*
%TD*%
D31*
%TO.C,C2*%
X47202002Y-30957498D03*
X47838398Y-30321102D03*
%TD*%
D11*
%TO.C,C1*%
X52499900Y-36950000D03*
X51600000Y-36950000D03*
%TD*%
D47*
%TO.C,ANT1*%
X39775001Y-52242398D03*
X41325002Y-49557697D03*
%TD*%
M02*
