M48
; DRILL file {KiCad 7.0.11+dfsg-1build4} date Thu 01 Oct 2026 15:00:52
; FORMAT={-:-/ absolute / metric / decimal}
; #@! TF.CreationDate,2026-10-01T15:00:52+10:00
; #@! TF.GenerationSoftware,Kicad,Pcbnew,7.0.11+dfsg-1build4
; #@! TF.FileFunction,Plated,1,4,PTH
FMAT,2
METRIC
; #@! TA.AperFunction,Plated,PTH,ViaDrill
T1C0.200
; #@! TA.AperFunction,Plated,PTH,ViaDrill
T2C0.300
; #@! TA.AperFunction,Plated,PTH,ComponentDrill
T3C0.700
%
G90
G05
T1
X37.25Y-26.1
X37.25Y-35.5
X37.25Y-42.05
X37.25Y-42.7
X37.25Y-43.4
X37.25Y-44.05
X37.25Y-44.95
X37.25Y-45.6
X37.3Y-28.1
X37.3Y-29.45
X37.3Y-30.6
X37.3Y-32.3
X37.3Y-37.35
X37.3Y-38.35
X37.3Y-46.2
X37.35Y-33.55
X37.4Y-24.55
X37.4Y-27.1
X37.5Y-46.9
X37.6Y-25.2
X37.7Y-47.6
X37.8Y-39.0
X38.1Y-37.4
X38.3Y-13.35
X38.35Y-15.3
X38.35Y-17.0
X38.35Y-20.45
X38.41Y-12.056
X38.45Y-47.6
X38.549Y-21.749
X38.549Y-22.951
X38.687Y-18.655
X38.7Y-42.2
X38.85Y-23.65
X38.95Y-27.7
X39.0Y-19.675
X39.0Y-37.05
X39.0Y-37.95
X39.01Y-36.22
X39.041Y-18.302
X39.25Y-47.65
X39.286Y-29.919
X39.3Y-41.15
X39.308Y-12.954
X39.35Y-25.7
X39.394Y-17.948
X39.5Y-42.25
X39.5Y-43.05
X39.5Y-43.85
X39.549Y-27.814
X39.569Y-30.201
X39.748Y-17.594
X39.751Y-21.749
X39.751Y-22.951
X39.85Y-41.85
X39.85Y-42.65
X39.85Y-43.45
X39.85Y-44.25
X39.85Y-47.85
X39.9Y-39.0
X40.0Y-33.95
X40.102Y-17.241
X40.206Y-13.852
X40.221Y-26.364
X40.28Y-34.95
X40.28Y-36.22
X40.4Y-48.15
X40.455Y-16.887
X40.6Y-45.0
X40.65Y-47.55
X40.9Y-48.45
X40.998Y-28.415
X41.05Y-46.6
X41.104Y-14.75
X41.127Y-15.791
X41.3Y-23.1
X41.3Y-47.2
X41.4Y-48.75
X41.445Y-21.413
X41.55Y-34.95
X41.55Y-36.22
X41.635Y-27.778
X42.002Y-15.648
X42.094Y-29.652
X42.1Y-47.7
X42.15Y-27.15
X42.152Y-20.706
X42.233Y-22.908
X42.35Y-38.55
X42.468Y-32.464
X42.483Y-26.506
X42.5Y-49.35
X42.506Y-20.352
X42.587Y-22.555
X42.75Y-38.2
X42.75Y-46.85
X42.751Y-32.181
X42.766Y-26.788
X42.859Y-17.594
X42.859Y-19.998
X42.9Y-48.8
X42.9Y-16.546
X42.941Y-22.201
X43.1Y-49.7
X43.15Y-38.55
X43.213Y-19.645
X43.294Y-21.848
X43.4Y-48.15
X43.5Y-27.5
X43.5Y-34.75
X43.509Y-28.238
X43.55Y-38.2
X43.55Y-49.05
X43.648Y-21.494
X43.7Y-50.05
X43.798Y-17.444
X43.9Y-47.6
X43.95Y-18.7
X43.95Y-38.55
X44.001Y-21.141
X44.15Y-48.45
X44.2Y-47.05
X44.2Y-49.35
X44.2Y-50.35
X44.25Y-28.3
X44.344Y-19.433
X44.35Y-46.45
X44.355Y-20.787
X44.45Y-52.2
X44.45Y-52.8
X44.45Y-53.4
X44.45Y-54.0
X44.55Y-26.25
X44.6Y-33.05
X44.696Y-18.342
X44.75Y-38.55
X44.8Y-34.1
X44.95Y-48.3
X44.958Y-28.98
X45.027Y-19.691
X45.15Y-38.2
X45.15Y-45.55
X45.2Y-47.65
X45.241Y-29.263
X45.25Y-27.0
X45.345Y-25.312
X45.45Y-52.25
X45.45Y-53.25
X45.45Y-54.0
X45.5Y-36.9
X45.594Y-19.24
X45.7Y-45.55
X45.7Y-49.35
X45.7Y-50.25
X45.7Y-51.15
X46.05Y-36.9
X46.05Y-51.9
X46.052Y-24.605
X46.1Y-47.65
X46.138Y-26.808
X46.177Y-30.71
X46.25Y-45.55
X46.405Y-24.252
X46.491Y-26.454
X46.492Y-20.138
X46.65Y-35.95
X46.759Y-21.494
X46.759Y-23.898
X46.845Y-26.101
X46.85Y-39.85
X46.85Y-40.65
X46.85Y-41.45
X46.85Y-42.25
X46.85Y-43.05
X46.85Y-43.85
X47.0Y-46.15
X47.1Y-37.8
X47.112Y-23.545
X47.198Y-25.747
X47.2Y-41.05
X47.2Y-41.85
X47.2Y-42.65
X47.2Y-43.45
X47.25Y-48.25
X47.25Y-53.25
X47.35Y-21.05
X47.45Y-31.983
X47.5Y-39.85
X47.552Y-25.394
X47.6Y-50.6
X47.75Y-21.45
X47.905Y-25.04
X48.086Y-35.589
X48.1Y-37.35
X48.1Y-38.35
X48.227Y-29.932
X48.244Y-23.333
X48.259Y-24.687
X48.3Y-47.0
X48.5Y-46.65
X48.634Y-22.28
X48.7Y-47.0
X48.85Y-30.15
X48.85Y-36.0
X48.931Y-23.59
X49.0Y-40.15
X49.0Y-46.25
X49.2Y-54.0
X49.249Y-29.212
X49.25Y-35.5
X49.3Y-45.15
X49.3Y-47.1
X49.35Y-52.8
X49.532Y-23.178
X49.65Y-46.7
X49.7Y-40.2
X49.7Y-49.0
X49.8Y-39.55
X49.9Y-31.1
X49.956Y-28.505
X50.2Y-40.2
X50.2Y-44.1
X50.2Y-49.0
X50.2Y-52.9
X50.31Y-28.151
X50.43Y-24.076
X50.663Y-25.394
X50.663Y-27.798
X50.7Y-40.2
X50.7Y-49.0
X50.8Y-30.15
X50.85Y-34.1
X50.95Y-31.7
X51.017Y-27.444
X51.05Y-36.95
X51.05Y-37.85
X51.05Y-38.75
X51.15Y-46.7
X51.2Y-40.2
X51.2Y-44.1
X51.2Y-49.0
X51.2Y-52.9
X51.3Y-36.1
X51.328Y-24.974
X51.7Y-40.2
X51.7Y-44.1
X51.7Y-49.0
X51.7Y-52.9
X51.75Y-33.35
X51.85Y-46.7
X52.148Y-27.232
X52.15Y-33.35
X52.2Y-40.2
X52.2Y-44.1
X52.2Y-49.0
X52.2Y-52.9
X52.226Y-25.872
X52.5Y-36.1
X52.7Y-40.2
X52.7Y-44.1
X52.7Y-49.0
X52.7Y-52.9
X52.75Y-46.7
X52.95Y-45.65
X53.1Y-47.75
X53.124Y-26.77
X53.15Y-37.3
X53.15Y-35.25
X53.2Y-31.8
X53.2Y-32.2
X53.523Y-27.668
X53.75Y-53.55
X53.75Y-44.75
X53.9Y-39.65
X53.9Y-42.4
X53.9Y-51.35
X53.95Y-48.7
X54.1Y-46.55
X54.35Y-45.8
X54.35Y-47.3
X54.655Y-29.29
X54.655Y-30.56
X54.655Y-31.83
X54.655Y-33.1
X54.655Y-34.37
X54.655Y-35.64
X54.655Y-36.91
X54.655Y-38.18
X54.655Y-39.45
X54.655Y-40.72
X54.655Y-41.99
X54.655Y-43.26
X54.655Y-44.53
X54.655Y-50.88
X54.655Y-52.15
X54.655Y-53.42
X55.6Y-53.5
X56.25Y-27.657
X56.65Y-27.55
X56.75Y-53.95
T2
X40.976Y-19.171
X42.55Y-41.2
X42.55Y-42.9
X44.15Y-41.2
X44.15Y-42.9
X44.85Y-23.05
X48.754Y-26.95
X51.45Y-42.15
X51.45Y-50.95
T3
X38.872Y-9.372
X39.77Y-10.27
X40.668Y-11.168
X41.566Y-12.066
X42.464Y-12.964
X43.362Y-13.862
X44.26Y-14.76
X45.158Y-15.658
X46.056Y-16.556
X46.954Y-17.454
X47.852Y-18.352
X48.75Y-19.25
X49.648Y-20.148
X50.546Y-21.046
X51.444Y-21.944
X52.342Y-22.842
X53.24Y-23.74
X54.138Y-24.638
X55.036Y-25.537
X55.934Y-26.434
X56.75Y-28.9
X56.75Y-30.17
X56.75Y-31.44
X56.75Y-32.71
X56.75Y-33.98
X56.75Y-35.25
X56.75Y-36.52
X56.75Y-37.79
X56.75Y-39.06
X56.75Y-40.33
X56.75Y-41.6
X56.75Y-42.87
X56.75Y-44.14
X56.75Y-45.41
X56.75Y-46.68
X56.75Y-47.95
X56.75Y-49.22
X56.75Y-50.49
X56.75Y-51.76
X56.75Y-53.03
M30
