%TF.GenerationSoftware,KiCad,Pcbnew,7.0.11+dfsg-1build4*%
%TF.CreationDate,2026-10-01T15:00:52+10:00*%
%TF.ProjectId,Reid_Orthotic_v2_RHS,52656964-5f4f-4727-9468-6f7469635f76,R4*%
%TF.SameCoordinates,Original*%
%TF.FileFunction,Copper,L1,Top*%
%TF.FilePolarity,Positive*%
%FSLAX46Y46*%
G04 Gerber Fmt 4.6, Leading zero omitted, Abs format (unit mm)*
G04 Created by KiCad (PCBNEW 7.0.11+dfsg-1build4) date 2026-10-01 15:00:52*
%MOMM*%
%LPD*%
G01*
G04 APERTURE LIST*
G04 Aperture macros list*
%AMHorizOval*
0 Thick line with rounded ends*
0 $1 width*
0 $2 $3 position (X,Y) of the first rounded end (center of the circle)*
0 $4 $5 position (X,Y) of the second rounded end (center of the circle)*
0 Add line between two ends*
20,1,$1,$2,$3,$4,$5,0*
0 Add two circle primitives to create the rounded ends*
1,1,$1,$2,$3*
1,1,$1,$4,$5*%
G04 Aperture macros list end*
%TA.AperFunction,ComponentPad*%
%ADD10O,1.500000X1.050000*%
%TD*%
%TA.AperFunction,ComponentPad*%
%ADD11HorizOval,1.050000X0.159099X0.159099X-0.159099X-0.159099X0*%
%TD*%
%TA.AperFunction,SMDPad,CuDef*%
%ADD12C,1.000000*%
%TD*%
%TA.AperFunction,SMDPad,CuDef*%
%ADD13C,0.800000*%
%TD*%
%TA.AperFunction,ViaPad*%
%ADD14C,0.400000*%
%TD*%
%TA.AperFunction,ViaPad*%
%ADD15C,0.800000*%
%TD*%
%TA.AperFunction,ViaPad*%
%ADD16C,0.600000*%
%TD*%
%TA.AperFunction,Conductor*%
%ADD17C,0.400000*%
%TD*%
%TA.AperFunction,Conductor*%
%ADD18C,0.500000*%
%TD*%
%TA.AperFunction,Conductor*%
%ADD19C,0.150000*%
%TD*%
%TA.AperFunction,Conductor*%
%ADD20C,0.120000*%
%TD*%
G04 APERTURE END LIST*
D10*
%TO.P,J2,1*%
%TO.N,0V*%
X56750000Y-53030000D03*
%TO.P,J2,2*%
%TO.N,NET52*%
X56750000Y-51760000D03*
%TO.P,J2,3*%
%TO.N,NET108*%
X56750000Y-50490000D03*
%TO.P,J2,4*%
%TO.N,NET107*%
X56750000Y-49220000D03*
%TO.P,J2,5*%
%TO.N,0V*%
X56750000Y-47950000D03*
%TO.P,J2,6*%
%TO.N,NET112*%
X56750000Y-46680000D03*
%TO.P,J2,7*%
%TO.N,NET106*%
X56750000Y-45410000D03*
%TO.P,J2,8*%
%TO.N,NET105*%
X56750000Y-44140000D03*
%TO.P,J2,9*%
%TO.N,NET104*%
X56750000Y-42870000D03*
%TO.P,J2,10*%
%TO.N,NET103*%
X56750000Y-41600000D03*
%TO.P,J2,11*%
%TO.N,NET113*%
X56750000Y-40330000D03*
%TO.P,J2,12*%
%TO.N,NET97*%
X56750000Y-39060000D03*
%TO.P,J2,13*%
%TO.N,NET98*%
X56750000Y-37790000D03*
%TO.P,J2,14*%
%TO.N,NET114*%
X56750000Y-36520000D03*
%TO.P,J2,15*%
%TO.N,NET99*%
X56750000Y-35250000D03*
%TO.P,J2,16*%
%TO.N,NET115*%
X56750000Y-33980000D03*
%TO.P,J2,17*%
%TO.N,NET100*%
X56750000Y-32710000D03*
%TO.P,J2,18*%
%TO.N,NET101*%
X56750000Y-31440000D03*
%TO.P,J2,19*%
%TO.N,NET111*%
X56750000Y-30170000D03*
%TO.P,J2,20*%
%TO.N,NET109*%
X56750000Y-28900000D03*
%TD*%
D11*
%TO.P,J1,1*%
%TO.N,NET51*%
X55036404Y-25536503D03*
%TO.P,J1,2*%
%TO.N,NET50*%
X54138399Y-24638498D03*
%TO.P,J1,3*%
%TO.N,NET54*%
X50546304Y-21046403D03*
%TO.P,J1,4*%
%TO.N,NET37*%
X47852199Y-18352298D03*
%TO.P,J1,5*%
%TO.N,NET38*%
X46954201Y-17454300D03*
%TO.P,J1,6*%
%TO.N,NET46*%
X39770004Y-10270103D03*
%TO.P,J1,7*%
%TO.N,NET53*%
X51444301Y-21944400D03*
%TO.P,J1,8*%
%TO.N,NET41*%
X44260103Y-14760202D03*
%TO.P,J1,9*%
%TO.N,NET42*%
X43362099Y-13862198D03*
%TO.P,J1,10*%
%TO.N,NET45*%
X40668001Y-11168100D03*
%TO.P,J1,11*%
%TO.N,NET110*%
X55934500Y-26434500D03*
%TO.P,J1,12*%
%TO.N,NET49*%
X53240402Y-23740402D03*
%TO.P,J1,13*%
%TO.N,NET48*%
X52342397Y-22842397D03*
%TO.P,J1,14*%
%TO.N,NET55*%
X49648299Y-20148299D03*
%TO.P,J1,15*%
%TO.N,0V*%
X48750302Y-19250302D03*
%TO.P,J1,16*%
%TO.N,NET39*%
X46056197Y-16556197D03*
%TO.P,J1,17*%
%TO.N,NET40*%
X45158200Y-15658200D03*
%TO.P,J1,18*%
%TO.N,NET43*%
X42464102Y-12964102D03*
%TO.P,J1,19*%
%TO.N,NET44*%
X41566097Y-12066097D03*
%TO.P,J1,20*%
%TO.N,NET47*%
X38871999Y-9371999D03*
%TD*%
D12*
%TO.P,PAD1,1*%
%TO.N,0V*%
X39150000Y-22350000D03*
%TD*%
%TO.P,PAD2,1*%
%TO.N,VSYS*%
X46300000Y-29300000D03*
%TD*%
%TO.P,PAD3,1*%
%TO.N,VBAT_F*%
X41850000Y-25850000D03*
%TD*%
%TO.P,PAD4,1*%
%TO.N,3V3*%
X39550000Y-31100000D03*
%TD*%
%TO.P,PAD5,1*%
%TO.N,SWDIO*%
X44550000Y-44800000D03*
%TD*%
%TO.P,PAD6,1*%
%TO.N,SWDCLK*%
X45700000Y-46450000D03*
%TD*%
%TO.P,PAD7,1*%
%TO.N,MCU_RST*%
X46250000Y-44650000D03*
%TD*%
D13*
%TO.P,PAD8,1*%
%TO.N,0V*%
X39010000Y-34950000D03*
%TD*%
D14*
%TO.N,0V*%
X37700000Y-47600000D03*
X37500000Y-46900000D03*
X37300000Y-46200000D03*
X37250000Y-45600000D03*
X37250000Y-44950000D03*
X37250000Y-44050000D03*
X37250000Y-43400000D03*
X37250000Y-42700000D03*
X37250000Y-42050000D03*
X37800000Y-39000000D03*
X37300000Y-38350000D03*
X37300000Y-37350000D03*
X37250000Y-35500000D03*
X37350000Y-33550000D03*
X37300000Y-32300000D03*
X37300000Y-30600000D03*
X37300000Y-29450000D03*
X37300000Y-28100000D03*
X37400000Y-27100000D03*
X37250000Y-26100000D03*
X37600000Y-25200000D03*
X37400000Y-24550000D03*
X38850000Y-23650000D03*
X38549000Y-22951000D03*
X39751000Y-22951000D03*
X41300000Y-23100000D03*
%TO.N,FSR_S2*%
X42233500Y-22908400D03*
%TO.N,FSR_S1*%
X42587000Y-22554800D03*
%TO.N,FSR_S0*%
X42940600Y-22201300D03*
%TO.N,VBAT_F*%
X42766300Y-26788500D03*
X42483400Y-26505600D03*
%TO.N,0V*%
X42150000Y-27150000D03*
%TO.N,BQ_CHG*%
X41634900Y-27778400D03*
%TO.N,NET15*%
X40998500Y-28414800D03*
%TO.N,VBAT_F*%
X39549000Y-27813800D03*
%TO.N,0V*%
X38950000Y-27700000D03*
X39350000Y-25700000D03*
%TO.N,3V3*%
X40220700Y-26364200D03*
%TO.N,0V*%
X43500000Y-27500000D03*
X43508700Y-28238100D03*
X44250000Y-28300000D03*
%TO.N,VSYS*%
X44958400Y-28980500D03*
X45241200Y-29263400D03*
%TO.N,0V*%
X45250000Y-27000000D03*
%TO.N,FSR_S2*%
X46137700Y-26807900D03*
%TO.N,FSR_S1*%
X46491300Y-26454300D03*
%TO.N,FSR_S0*%
X46844800Y-26100700D03*
%TO.N,NET134*%
X47198400Y-25747200D03*
%TO.N,NET135*%
X47551900Y-25393600D03*
%TO.N,NET80*%
X47905500Y-25040100D03*
%TO.N,NET81*%
X48259100Y-24686600D03*
%TO.N,MUX_VCC*%
X48243800Y-23332600D03*
%TO.N,0V*%
X48930800Y-23590500D03*
%TO.N,NET69*%
X49532300Y-23178400D03*
%TO.N,NET81*%
X50430400Y-24076400D03*
%TO.N,NET79*%
X50663200Y-25393600D03*
%TO.N,NET80*%
X51328400Y-24974400D03*
%TO.N,NET79*%
X52226400Y-25872500D03*
%TO.N,MUX_VCC*%
X52148100Y-27232100D03*
%TO.N,NET77*%
X51016800Y-27444200D03*
%TO.N,FSR_CH2*%
X50663200Y-27797800D03*
%TO.N,NET78*%
X50309700Y-28151400D03*
%TO.N,NET136*%
X49956100Y-28504900D03*
%TO.N,0V*%
X49249000Y-29212000D03*
X48850000Y-30150000D03*
X48227300Y-29932300D03*
X50800000Y-30150000D03*
X50950000Y-31700000D03*
X49900000Y-31100000D03*
%TO.N,VBAT_ON*%
X47449500Y-31982800D03*
%TO.N,ADC_VBAT*%
X46176700Y-30710000D03*
%TO.N,0V*%
X44600000Y-33050000D03*
X44800000Y-34100000D03*
X43500000Y-34750000D03*
D15*
%TO.N,3V3*%
X41550000Y-34950000D03*
%TO.N,SWDIO*%
X41550000Y-36220000D03*
%TO.N,SWDCLK*%
X40280000Y-36220000D03*
%TO.N,MCU_RST*%
X40280000Y-34950000D03*
D14*
%TO.N,0V*%
X40000000Y-33950000D03*
D15*
%TO.N,NET145*%
X39010000Y-36220000D03*
D14*
%TO.N,0V*%
X39000000Y-37050000D03*
X39000000Y-37950000D03*
X38100000Y-37400000D03*
%TO.N,3V3*%
X39900000Y-39000000D03*
%TO.N,0V*%
X39300000Y-41150000D03*
%TO.N,MUX_ON*%
X39850000Y-41850000D03*
%TO.N,CAP_CH0*%
X39500000Y-42250000D03*
%TO.N,TEMP_COM*%
X39850000Y-42650000D03*
%TO.N,CAP_CH1*%
X39500000Y-43050000D03*
%TO.N,FSR_S0*%
X39850000Y-43450000D03*
%TO.N,FSR_S1*%
X39500000Y-43850000D03*
%TO.N,FSR_S2*%
X39850000Y-44250000D03*
%TO.N,3V3*%
X40600000Y-45000000D03*
%TO.N,0V*%
X41050000Y-46600000D03*
X41300000Y-47200000D03*
X40650000Y-47550000D03*
X40400000Y-48150000D03*
X40900000Y-48450000D03*
X41400000Y-48750000D03*
X42900000Y-48800000D03*
X43550000Y-49050000D03*
X44200000Y-49350000D03*
X44150000Y-48450000D03*
X44950000Y-48300000D03*
X45200000Y-47650000D03*
%TO.N,3V3*%
X46100000Y-47650000D03*
%TO.N,0V*%
X47250000Y-48250000D03*
%TO.N,VSYS*%
X48300000Y-47000000D03*
X48700000Y-47000000D03*
X48500000Y-46650000D03*
%TO.N,0V*%
X49000000Y-46250000D03*
X49650000Y-46700000D03*
X49300000Y-47100000D03*
X49300000Y-45150000D03*
X50200000Y-44100000D03*
%TO.N,NET91*%
X51200000Y-44100000D03*
%TO.N,NET92*%
X51700000Y-44100000D03*
%TO.N,CAP_CH0*%
X52200000Y-44100000D03*
%TO.N,NET90*%
X52700000Y-44100000D03*
%TO.N,MUX_VCC*%
X53750000Y-44750000D03*
%TO.N,NET75*%
X54654700Y-44530300D03*
%TO.N,NET76*%
X54654700Y-43260300D03*
%TO.N,NET74*%
X54654700Y-41990300D03*
%TO.N,NET89*%
X53900000Y-42400000D03*
%TO.N,NET117*%
X54654700Y-40720300D03*
%TO.N,TEMP_S2*%
X54654700Y-39450300D03*
%TO.N,0V*%
X53900000Y-39650000D03*
%TO.N,NET87*%
X52700000Y-40200000D03*
%TO.N,NET86*%
X52200000Y-40200000D03*
%TO.N,NET140*%
X51700000Y-40200000D03*
%TO.N,NET139*%
X51200000Y-40200000D03*
%TO.N,CAP_S0*%
X50700000Y-40200000D03*
%TO.N,CAP_S1*%
X50200000Y-40200000D03*
%TO.N,CAP_S2*%
X49700000Y-40200000D03*
%TO.N,0V*%
X49800000Y-39550000D03*
%TO.N,NET58*%
X49000000Y-40150000D03*
%TO.N,BQ_CHG*%
X47500000Y-39850000D03*
%TO.N,3V3*%
X46850000Y-39850000D03*
%TO.N,NET58*%
X46850000Y-40650000D03*
%TO.N,CAP_S2*%
X47200000Y-41050000D03*
%TO.N,CAP_S1*%
X46850000Y-41450000D03*
%TO.N,CAP_S0*%
X47200000Y-41850000D03*
%TO.N,TEMP_S1*%
X46850000Y-42250000D03*
%TO.N,TEMP_S0*%
X47200000Y-42650000D03*
%TO.N,TEMP_S2*%
X46850000Y-43050000D03*
%TO.N,TEMP_S4*%
X47200000Y-43450000D03*
%TO.N,TEMP_S3*%
X46850000Y-43850000D03*
%TO.N,MCU_RST*%
X46250000Y-45550000D03*
%TO.N,SWDCLK*%
X45700000Y-45550000D03*
%TO.N,SWDIO*%
X45150000Y-45550000D03*
%TO.N,0V*%
X44350000Y-46450000D03*
X44200000Y-47050000D03*
X43900000Y-47600000D03*
X43400000Y-48150000D03*
X42100000Y-47700000D03*
X42750000Y-46850000D03*
X42500000Y-49350000D03*
X43100000Y-49700000D03*
X43700000Y-50050000D03*
X44200000Y-50350000D03*
X45700000Y-50250000D03*
X45700000Y-51150000D03*
X46050000Y-51900000D03*
X45450000Y-52250000D03*
X45450000Y-53250000D03*
X45450000Y-54000000D03*
X44450000Y-54000000D03*
X44450000Y-53400000D03*
X44450000Y-52800000D03*
X44450000Y-52200000D03*
X47250000Y-53250000D03*
X49350000Y-52800000D03*
X50200000Y-52900000D03*
%TO.N,NET74*%
X51200000Y-52900000D03*
%TO.N,NET94*%
X51700000Y-52900000D03*
%TO.N,CAP_CH1*%
X52200000Y-52900000D03*
%TO.N,NET95*%
X52700000Y-52900000D03*
%TO.N,MUX_VCC*%
X53749900Y-53550100D03*
%TO.N,NET95*%
X54654700Y-53420300D03*
%TO.N,0V*%
X55600000Y-53500000D03*
X56750000Y-53950000D03*
%TO.N,NET94*%
X54654700Y-52150300D03*
%TO.N,TEMP_S4*%
X54654700Y-50880300D03*
%TO.N,NET117*%
X53900000Y-51350000D03*
%TO.N,0V*%
X53950000Y-48700000D03*
%TO.N,NET75*%
X52700000Y-49000000D03*
%TO.N,NET76*%
X52200000Y-49000000D03*
%TO.N,NET141*%
X51700000Y-49000000D03*
%TO.N,NET142*%
X51200000Y-49000000D03*
%TO.N,CAP_S0*%
X50700000Y-49000000D03*
%TO.N,CAP_S1*%
X50200000Y-49000000D03*
%TO.N,CAP_S2*%
X49700000Y-49000000D03*
%TO.N,0V*%
X47600000Y-50600000D03*
X45700000Y-49350000D03*
X47000000Y-46150000D03*
X51150000Y-46700000D03*
X51850000Y-46700000D03*
X52750000Y-46700000D03*
X52950000Y-45650000D03*
%TO.N,TEMP_S3*%
X54350000Y-45800000D03*
%TO.N,0V*%
X54100000Y-46550000D03*
%TO.N,TEMP_COM*%
X54350000Y-47300000D03*
%TO.N,0V*%
X53100000Y-47750000D03*
X49200000Y-54000000D03*
X39850000Y-47850000D03*
X39250000Y-47650000D03*
X38450000Y-47600000D03*
X38700000Y-42200000D03*
%TO.N,FSR_CH0*%
X42350000Y-38550000D03*
%TO.N,FSR_CH1*%
X42750000Y-38200000D03*
%TO.N,FSR_CH2*%
X43150000Y-38550000D03*
%TO.N,ADC_VBAT*%
X43550000Y-38200000D03*
%TO.N,VBAT_ON*%
X43950000Y-38550000D03*
%TO.N,SDA*%
X44750000Y-38550000D03*
%TO.N,SCL*%
X45150000Y-38200000D03*
%TO.N,0V*%
X45500000Y-36900000D03*
%TO.N,NET15*%
X46050000Y-36900100D03*
%TO.N,0V*%
X46650000Y-35950000D03*
%TO.N,VBAT_F*%
X48085900Y-35589100D03*
%TO.N,3V3*%
X48850000Y-36000000D03*
%TO.N,0V*%
X49250000Y-35500000D03*
X51300000Y-36100000D03*
%TO.N,3V3*%
X51050000Y-36950000D03*
%TO.N,SCL*%
X51050000Y-37850000D03*
%TO.N,SDA*%
X51050000Y-38749900D03*
%TO.N,3V3*%
X48100000Y-38350000D03*
%TO.N,0V*%
X48100000Y-37350000D03*
X47100000Y-37800000D03*
X53150000Y-37300000D03*
X52500000Y-36100000D03*
%TO.N,MUX_ON*%
X53150100Y-35250000D03*
%TO.N,NET90*%
X54654700Y-35640300D03*
%TO.N,NET91*%
X54654700Y-36910300D03*
%TO.N,NET92*%
X54654700Y-38180300D03*
%TO.N,NET89*%
X54654700Y-34370300D03*
%TO.N,TEMP_S0*%
X54654700Y-33100300D03*
%TO.N,NET87*%
X54654700Y-31830300D03*
%TO.N,NET86*%
X54654700Y-30560300D03*
%TO.N,TEMP_S1*%
X54654700Y-29290300D03*
%TO.N,NET77*%
X53522500Y-27668500D03*
%TO.N,NET78*%
X53124500Y-26770500D03*
%TO.N,0V*%
X56250000Y-27656800D03*
X56650000Y-27550000D03*
%TO.N,MUX_VCC*%
X53200100Y-31799900D03*
X53200100Y-32199900D03*
%TO.N,3V3*%
X52150100Y-33349900D03*
X51750100Y-33349900D03*
%TO.N,0V*%
X50850000Y-34100000D03*
%TO.N,VBAT_F*%
X42467800Y-32464200D03*
X42750600Y-32181400D03*
%TO.N,0V*%
X42094500Y-29652300D03*
%TO.N,3V3*%
X39568600Y-30201500D03*
X39285800Y-29918600D03*
%TO.N,0V*%
X44550000Y-26250000D03*
X45344800Y-25312500D03*
%TO.N,NET83*%
X46051900Y-24605400D03*
%TO.N,NET82*%
X46405400Y-24251900D03*
%TO.N,FSR_CH1*%
X46759000Y-23898300D03*
%TO.N,NET69*%
X47112500Y-23544800D03*
%TO.N,NET82*%
X48634300Y-22280400D03*
%TO.N,NET83*%
X47750000Y-21450000D03*
%TO.N,NET68*%
X47350000Y-21050000D03*
X46759000Y-21494100D03*
%TO.N,NET65*%
X46492200Y-20138200D03*
%TO.N,NET67*%
X45594100Y-19240200D03*
%TO.N,0V*%
X45026600Y-19691000D03*
%TO.N,MUX_VCC*%
X44344100Y-19432900D03*
%TO.N,0V*%
X43950000Y-18700000D03*
%TO.N,NET66*%
X44696100Y-18342200D03*
%TO.N,NET102*%
X43798100Y-17444200D03*
%TO.N,NET84*%
X42859200Y-17594400D03*
X42900100Y-16546100D03*
%TO.N,NET70*%
X42002000Y-15648100D03*
%TO.N,0V*%
X41126800Y-15791300D03*
%TO.N,NET96*%
X41104000Y-14750100D03*
%TO.N,NET73*%
X40206000Y-13852100D03*
%TO.N,NET72*%
X39308000Y-12954000D03*
%TO.N,0V*%
X38300000Y-13350000D03*
%TO.N,NET71*%
X38409900Y-12056000D03*
%TO.N,0V*%
X38350000Y-15300000D03*
X38350000Y-17000000D03*
%TO.N,NET71*%
X39394300Y-17947900D03*
%TO.N,NET138*%
X39747900Y-17594400D03*
%TO.N,NET72*%
X40101500Y-17240800D03*
%TO.N,NET73*%
X40455000Y-16887300D03*
%TO.N,FSR_S0*%
X39040800Y-18301500D03*
%TO.N,FSR_S1*%
X38687300Y-18655100D03*
%TO.N,FSR_S2*%
X39000000Y-19674900D03*
%TO.N,0V*%
X38350000Y-20450000D03*
X38549000Y-21749000D03*
X39751000Y-21749000D03*
X41444900Y-21412800D03*
%TO.N,NET96*%
X42152100Y-20705700D03*
%TO.N,NET70*%
X42505600Y-20352100D03*
%TO.N,FSR_CH0*%
X42859200Y-19998500D03*
%TO.N,NET102*%
X43212700Y-19645000D03*
%TO.N,NET65*%
X43294200Y-21847700D03*
%TO.N,NET137*%
X43647700Y-21494200D03*
%TO.N,NET66*%
X44001300Y-21140600D03*
%TO.N,NET67*%
X44354800Y-20787000D03*
D16*
%TO.N,0V*%
X42550000Y-42900000D03*
X44150000Y-42900000D03*
X44150000Y-41200000D03*
X42550000Y-41200000D03*
%TO.N,MUX_VCC*%
X51450000Y-42150000D03*
X51450000Y-50950000D03*
X48754200Y-26949500D03*
X44850000Y-23050000D03*
X40976100Y-19171300D03*
%TD*%
D17*
%TO.N,VBAT_F*%
X42483400Y-26505600D02*
X42766300Y-26788500D01*
X41850000Y-25872200D02*
X42483400Y-26505600D01*
%TO.N,3V3*%
X39550000Y-30201500D02*
X39550000Y-30182900D01*
X39550000Y-31100000D02*
X39550000Y-30201500D01*
%TO.N,SWDIO*%
X44550000Y-44950000D02*
X45150000Y-45550000D01*
%TO.N,SWDCLK*%
X45700000Y-46450000D02*
X45700000Y-45550000D01*
%TO.N,MCU_RST*%
X46250000Y-45550000D02*
X46250000Y-44650000D01*
%TO.N,VBAT_F*%
X41850000Y-25872200D02*
X41850000Y-25850000D01*
%TO.N,3V3*%
X39285800Y-29918600D02*
X39550000Y-30182900D01*
D18*
%TO.N,VBAT_F*%
X40291400Y-29722200D02*
X42750600Y-32181400D01*
%TO.N,VSYS*%
X48500000Y-46800000D02*
X48700000Y-47000000D01*
X48425000Y-46725000D02*
X48500000Y-46800000D01*
X48150000Y-46450000D02*
X48425000Y-46725000D01*
X48500000Y-47000000D02*
X48700000Y-47000000D01*
X48300000Y-47000000D02*
X48500000Y-47000000D01*
X48300000Y-47000000D02*
X48300000Y-46850000D01*
%TO.N,0V*%
X38549000Y-22951000D02*
X39150000Y-22350000D01*
X39150000Y-22350000D02*
X39751000Y-21749000D01*
X38549000Y-21749000D02*
X39150000Y-22350000D01*
X39150000Y-22350000D02*
X39751000Y-22951000D01*
%TO.N,VSYS*%
X44958400Y-28980500D02*
X45241200Y-29263400D01*
X45241200Y-29263400D02*
X46263300Y-29263400D01*
X48150000Y-46450000D02*
X48150000Y-39275000D01*
X46263300Y-29263400D02*
X46300000Y-29300000D01*
X48150000Y-39275000D02*
X50050000Y-37375000D01*
X50050000Y-37375000D02*
X50050000Y-33050000D01*
X46300000Y-29300000D02*
X50050000Y-33050000D01*
%TO.N,VBAT_F*%
X42467800Y-32464200D02*
X42750600Y-32181400D01*
X40291400Y-29722200D02*
X40291400Y-27958600D01*
X40291400Y-27958600D02*
X42050000Y-26200000D01*
D19*
%TO.N,CAP_S0*%
X50650000Y-49000000D02*
X50650000Y-40200000D01*
%TO.N,CAP_S1*%
X50150000Y-43329300D02*
X50150000Y-40200000D01*
X50150000Y-49000000D02*
X50150000Y-48800000D01*
%TO.N,CAP_S2*%
X49650000Y-43263600D02*
X49650000Y-40200000D01*
X49650000Y-48800000D02*
X49650000Y-49000000D01*
%TO.N,FSR_S0*%
X42943000Y-22198900D02*
X46844800Y-26100700D01*
X39066700Y-18322600D02*
X42943000Y-22198900D01*
%TO.N,FSR_S1*%
X41962900Y-21921100D02*
X42591800Y-22550000D01*
%TO.N,FSR_S2*%
X41655800Y-22321100D02*
X42238300Y-22903600D01*
X39002400Y-19672500D02*
X40525800Y-21196000D01*
%TO.N,NET86*%
X53650000Y-37550000D02*
X53650000Y-31565000D01*
%TO.N,NET87*%
X53950000Y-37750000D02*
X53950000Y-32535000D01*
%TO.N,NET91*%
X54654700Y-37545300D02*
X54654700Y-36910300D01*
X53150000Y-39050000D02*
X54654700Y-37545300D01*
%TO.N,NET92*%
X53450000Y-39385000D02*
X54654700Y-38180300D01*
%TO.N,NET90*%
X52700000Y-42950000D02*
X53900000Y-41750000D01*
%TO.N,NET89*%
X54200000Y-40550000D02*
X54550000Y-40200000D01*
X54200000Y-42100000D02*
X54200000Y-40550000D01*
%TO.N,NET90*%
X52700000Y-44100000D02*
X52700000Y-42950000D01*
%TO.N,NET89*%
X54550000Y-40200000D02*
X55000000Y-40200000D01*
X55000000Y-40200000D02*
X55402300Y-39797700D01*
X55402300Y-39797700D02*
X55402300Y-35117900D01*
X54654700Y-34370300D02*
X55402300Y-35117900D01*
%TO.N,NET90*%
X55100000Y-39650000D02*
X55100000Y-36085600D01*
X54850000Y-39900000D02*
X55100000Y-39650000D01*
X54654700Y-35640300D02*
X55100000Y-36085600D01*
%TO.N,NET87*%
X53950000Y-32535000D02*
X54654700Y-31830300D01*
%TO.N,NET86*%
X53650000Y-31565000D02*
X54654700Y-30560300D01*
%TO.N,NET117*%
X53900000Y-50672800D02*
X55700000Y-48872800D01*
%TO.N,NET74*%
X53448500Y-50700000D02*
X55400000Y-48748500D01*
%TO.N,NET76*%
X54224300Y-49500000D02*
X55100000Y-48624300D01*
X55100000Y-48624300D02*
X55100000Y-43705600D01*
X54654700Y-43260300D02*
X55100000Y-43705600D01*
%TO.N,NET75*%
X54150000Y-49150000D02*
X54800000Y-48500000D01*
X54800000Y-48500000D02*
X54800000Y-44675600D01*
X54654700Y-44530300D02*
X54800000Y-44675600D01*
%TO.N,NET74*%
X55400000Y-48748500D02*
X55400000Y-42735600D01*
X54654700Y-41990300D02*
X55400000Y-42735600D01*
%TO.N,NET117*%
X55700000Y-48872800D02*
X55700000Y-41765600D01*
X54654700Y-40720300D02*
X55700000Y-41765600D01*
%TO.N,NET94*%
X54355000Y-52450000D02*
X54654700Y-52150300D01*
%TO.N,NET95*%
X52700000Y-52900000D02*
X54134400Y-52900000D01*
X54134400Y-52900000D02*
X54654700Y-53420300D01*
%TO.N,NET77*%
X51016800Y-27444200D02*
X51661000Y-26800000D01*
X51661000Y-26800000D02*
X52450000Y-26800000D01*
X52450000Y-26800000D02*
X53318500Y-27668500D01*
X53318500Y-27668500D02*
X53522500Y-27668500D01*
%TO.N,NET78*%
X52854000Y-26500000D02*
X53124500Y-26770500D01*
X51250000Y-26500000D02*
X52854000Y-26500000D01*
%TO.N,NET69*%
X47112500Y-23544800D02*
X47857300Y-22800000D01*
X47857300Y-22800000D02*
X49154000Y-22800000D01*
X49154000Y-22800000D02*
X49532300Y-23178400D01*
%TO.N,NET67*%
X44713000Y-20787000D02*
X45594100Y-19905900D01*
X45594100Y-19905900D02*
X45594100Y-19240200D01*
%TO.N,NET66*%
X45292100Y-18342200D02*
X46050000Y-19100000D01*
X44696100Y-18342200D02*
X45292100Y-18342200D01*
%TO.N,NET68*%
X46905900Y-21494100D02*
X47350000Y-21050000D01*
%TO.N,NET83*%
X47750000Y-21800000D02*
X47750000Y-21450000D01*
%TO.N,NET82*%
X47719600Y-22280400D02*
X48634300Y-22280400D01*
%TO.N,NET96*%
X41900000Y-20453600D02*
X41900000Y-16150000D01*
X41550000Y-15800000D02*
X41900000Y-16150000D01*
X41550000Y-15800000D02*
X41550000Y-15196000D01*
X41104000Y-14750100D02*
X41550000Y-15196000D01*
%TO.N,NET70*%
X42200000Y-20046500D02*
X42200000Y-15846000D01*
X42002000Y-15648100D02*
X42200000Y-15846000D01*
%TO.N,NET102*%
X43212700Y-19645000D02*
X43212700Y-18029500D01*
X43212700Y-18029500D02*
X43798100Y-17444200D01*
%TO.N,NET71*%
X38409900Y-12056000D02*
X38850000Y-12496000D01*
%TO.N,CAP_S1*%
X50350000Y-48600000D02*
X50350000Y-44989100D01*
X50150000Y-48800000D02*
X50350000Y-48600000D01*
%TO.N,CAP_S2*%
X50050000Y-48400000D02*
X50050000Y-45254800D01*
X49650000Y-48800000D02*
X50050000Y-48400000D01*
X49384700Y-44589500D02*
X50050000Y-45254800D01*
%TO.N,CAP_S1*%
X49702900Y-44342000D02*
X50350000Y-44989100D01*
%TO.N,CAP_S2*%
X49384700Y-44589500D02*
X49384700Y-43528900D01*
X49384700Y-43528900D02*
X49650000Y-43263600D01*
%TO.N,CAP_S1*%
X49702900Y-43776300D02*
X50150000Y-43329300D01*
X49702900Y-44342000D02*
X49702900Y-43776300D01*
%TO.N,FSR_S1*%
X45862300Y-25825300D02*
X46491300Y-26454300D01*
X45225300Y-25825300D02*
X45862300Y-25825300D01*
X44825300Y-25425400D02*
X45225300Y-25825300D01*
X44825300Y-25425400D02*
X44825300Y-24793100D01*
X42612600Y-22580400D02*
X44825300Y-24793100D01*
%TO.N,FSR_S2*%
X42259100Y-22933900D02*
X44425300Y-25100200D01*
X44425300Y-25475400D02*
X44425300Y-25100200D01*
X44425300Y-25475400D02*
X45175300Y-26225400D01*
X45175300Y-26225400D02*
X45555200Y-26225400D01*
X45555200Y-26225400D02*
X46137700Y-26807900D01*
X41275800Y-22321100D02*
X41655800Y-22321100D01*
X40525800Y-21571100D02*
X41275800Y-22321100D01*
X40525800Y-21571100D02*
X40525800Y-21196000D01*
%TO.N,FSR_S1*%
X38713100Y-18676100D02*
X40925800Y-20888900D01*
X40925800Y-21521100D02*
X40925800Y-20888900D01*
X40925800Y-21521100D02*
X41325800Y-21921100D01*
X41325800Y-21921100D02*
X41962900Y-21921100D01*
%TO.N,NET75*%
X52850000Y-49150000D02*
X54150000Y-49150000D01*
X52700000Y-49000000D02*
X52850000Y-49150000D01*
%TO.N,NET76*%
X52200000Y-49200000D02*
X52200000Y-49000000D01*
X52200000Y-49200000D02*
X52500000Y-49500000D01*
X52500000Y-49500000D02*
X54224300Y-49500000D01*
%TO.N,NET117*%
X53900000Y-51350000D02*
X53900000Y-50672800D01*
%TO.N,NET94*%
X51700000Y-52900000D02*
X51700000Y-52750000D01*
X51700000Y-52750000D02*
X52000000Y-52450000D01*
X52000000Y-52450000D02*
X54355000Y-52450000D01*
%TO.N,NET74*%
X53448500Y-51701500D02*
X53448500Y-50700000D01*
X53000000Y-52150000D02*
X53448500Y-51701500D01*
X51200000Y-52900000D02*
X51200000Y-52750000D01*
X51200000Y-52750000D02*
X51800000Y-52150000D01*
X51800000Y-52150000D02*
X53000000Y-52150000D01*
%TO.N,NET89*%
X53900000Y-42400000D02*
X54200000Y-42100000D01*
%TO.N,NET92*%
X51700000Y-44100000D02*
X51700000Y-43500000D01*
X51700000Y-43500000D02*
X53450000Y-41750000D01*
X53450000Y-41750000D02*
X53450000Y-39385000D01*
%TO.N,NET91*%
X51200000Y-44100000D02*
X51200000Y-43550000D01*
X51200000Y-43550000D02*
X53150000Y-41600000D01*
X53150000Y-41600000D02*
X53150000Y-39050000D01*
%TO.N,NET87*%
X52700000Y-40200000D02*
X52850000Y-40050000D01*
X52850000Y-40050000D02*
X52850000Y-38850000D01*
X52850000Y-38850000D02*
X53950000Y-37750000D01*
%TO.N,NET86*%
X52550000Y-38650000D02*
X53650000Y-37550000D01*
X52200000Y-40200000D02*
X52200000Y-40050000D01*
X52200000Y-40050000D02*
X52550000Y-39700000D01*
X52550000Y-39700000D02*
X52550000Y-38650000D01*
%TO.N,NET90*%
X53900000Y-41750000D02*
X53900000Y-40400000D01*
X53900000Y-40400000D02*
X54400000Y-39900000D01*
X54400000Y-39900000D02*
X54850000Y-39900000D01*
%TO.N,NET71*%
X39300000Y-17853600D02*
X39394300Y-17947900D01*
X39300000Y-17853600D02*
X39300000Y-17350000D01*
%TO.N,NET72*%
X39950000Y-17089400D02*
X40101500Y-17240800D01*
%TO.N,NET73*%
X40250000Y-16682300D02*
X40455000Y-16887300D01*
X40250000Y-16682300D02*
X40250000Y-13896000D01*
X40206000Y-13852100D02*
X40250000Y-13896000D01*
%TO.N,NET71*%
X39300000Y-17350000D02*
X39650000Y-17000000D01*
%TO.N,NET72*%
X39308000Y-13558000D02*
X39308000Y-12954000D01*
X39308000Y-13558000D02*
X39950000Y-14200000D01*
X39950000Y-17089400D02*
X39950000Y-14200000D01*
%TO.N,NET71*%
X38850000Y-13550000D02*
X38850000Y-12496000D01*
X38850000Y-13550000D02*
X39650000Y-14350000D01*
X39650000Y-17000000D02*
X39650000Y-14350000D01*
%TO.N,NET70*%
X42200000Y-20046500D02*
X42505600Y-20352100D01*
%TO.N,NET96*%
X41900000Y-20453600D02*
X42152100Y-20705700D01*
%TO.N,NET66*%
X44001300Y-21140600D02*
X44210700Y-21350000D01*
%TO.N,NET65*%
X43294200Y-21847700D02*
X43396500Y-21950000D01*
%TO.N,NET67*%
X44354800Y-20787000D02*
X44713000Y-20787000D01*
%TO.N,NET66*%
X44210700Y-21350000D02*
X44600000Y-21350000D01*
X44600000Y-21350000D02*
X46050000Y-19900000D01*
X46050000Y-19900000D02*
X46050000Y-19100000D01*
%TO.N,NET65*%
X43396500Y-21950000D02*
X44450000Y-21950000D01*
X44450000Y-21950000D02*
X46261800Y-20138200D01*
X46261800Y-20138200D02*
X46492200Y-20138200D01*
%TO.N,NET68*%
X46759000Y-21494100D02*
X46905900Y-21494100D01*
%TO.N,NET82*%
X46300000Y-24146500D02*
X46405400Y-24251900D01*
X46300000Y-24146500D02*
X46300000Y-23700000D01*
X46300000Y-23700000D02*
X47719600Y-22280400D01*
%TO.N,NET83*%
X45950000Y-24503500D02*
X46051900Y-24605400D01*
X45950000Y-24503500D02*
X45950000Y-23600000D01*
X45950000Y-23600000D02*
X47750000Y-21800000D01*
%TO.N,NET80*%
X47905500Y-25040100D02*
X48015400Y-25150000D01*
X48015400Y-25150000D02*
X48450000Y-25150000D01*
X51304000Y-24950000D02*
X51328400Y-24974400D01*
X48450000Y-25150000D02*
X48650000Y-24950000D01*
X48650000Y-24950000D02*
X51304000Y-24950000D01*
%TO.N,NET81*%
X48259100Y-24686600D02*
X48295600Y-24650000D01*
X48295600Y-24650000D02*
X49856800Y-24650000D01*
X49856800Y-24650000D02*
X50430400Y-24076400D01*
%TO.N,NET79*%
X50663200Y-25393600D02*
X50719600Y-25450000D01*
X50719600Y-25450000D02*
X51804000Y-25450000D01*
X51804000Y-25450000D02*
X52226400Y-25872500D01*
%TO.N,NET78*%
X50200000Y-28041700D02*
X50309700Y-28151400D01*
X50200000Y-28041700D02*
X50200000Y-27550000D01*
X50200000Y-27550000D02*
X51250000Y-26500000D01*
%TO.N,SWDIO*%
X41550000Y-36220000D02*
X41880000Y-36550000D01*
%TO.N,SWDCLK*%
X40280000Y-36220000D02*
X41010000Y-36950000D01*
%TO.N,MCU_RST*%
X40280000Y-34950000D02*
X40980000Y-34250000D01*
X40980000Y-34250000D02*
X44200000Y-34250000D01*
X44200000Y-34250000D02*
X46500000Y-36550000D01*
X46500000Y-37350000D02*
X46500000Y-36550000D01*
X46250000Y-37600000D02*
X46500000Y-37350000D01*
X46250000Y-44650000D02*
X46250000Y-37600000D01*
%TO.N,SWDIO*%
X44550000Y-44800000D02*
X45950000Y-43400000D01*
%TO.N,SWDCLK*%
X43700000Y-44550000D02*
X45650000Y-42600000D01*
X41010000Y-36950000D02*
X44500000Y-36950000D01*
X44500000Y-36950000D02*
X45650000Y-38100000D01*
X45650000Y-42600000D02*
X45650000Y-38100000D01*
%TO.N,SWDIO*%
X41880000Y-36550000D02*
X44550000Y-36550000D01*
X44550000Y-36550000D02*
X45950000Y-37950000D01*
X45950000Y-43400000D02*
X45950000Y-37950000D01*
%TO.N,SWDCLK*%
X43700000Y-45100000D02*
X43700000Y-44550000D01*
X43700000Y-45100000D02*
X45050000Y-46450000D01*
X45050000Y-46450000D02*
X45700000Y-46450000D01*
%TO.N,VBAT_F*%
X44678200Y-32181400D02*
X48085900Y-35589100D01*
X42750600Y-32181400D02*
X44678200Y-32181400D01*
X39549000Y-27813800D02*
X40146600Y-27813800D01*
%TO.N,NET84*%
X42900100Y-17553500D02*
X42900100Y-16546100D01*
X42859200Y-17594400D02*
X42900100Y-17553500D01*
D20*
%TO.N,NET157*%
X18599900Y-80600300D02*
X18599900Y-81800000D01*
X18200000Y-80600300D02*
X18999800Y-80600300D01*
%TO.N,NET158*%
X19428300Y-81000200D02*
X19314100Y-81057300D01*
X19314100Y-81057300D02*
X19199800Y-81171600D01*
X19199800Y-81171600D02*
X19142600Y-81343000D01*
X19142600Y-81343000D02*
X19142600Y-81457200D01*
X19142600Y-81457200D02*
X19199800Y-81628600D01*
X19199800Y-81628600D02*
X19314100Y-81742900D01*
X19314100Y-81742900D02*
X19428300Y-81800000D01*
X19428300Y-81800000D02*
X19599700Y-81800000D01*
X19599700Y-81800000D02*
X19714000Y-81742900D01*
X19714000Y-81742900D02*
X19828200Y-81628600D01*
X19828200Y-81628600D02*
X19885300Y-81457200D01*
X19885300Y-81457200D02*
X19885300Y-81343000D01*
X19885300Y-81343000D02*
X19828200Y-81171600D01*
X19828200Y-81171600D02*
X19714000Y-81057300D01*
X19714000Y-81057300D02*
X19599700Y-81000200D01*
X19599700Y-81000200D02*
X19428300Y-81000200D01*
%TO.N,NET159*%
X20148200Y-81000200D02*
X20148200Y-82199900D01*
X20148200Y-81171600D02*
X20262400Y-81057300D01*
X20262400Y-81057300D02*
X20376700Y-81000200D01*
X20376700Y-81000200D02*
X20548100Y-81000200D01*
X20548100Y-81000200D02*
X20662300Y-81057300D01*
X20662300Y-81057300D02*
X20776600Y-81171600D01*
X20776600Y-81171600D02*
X20833700Y-81343000D01*
X20833700Y-81343000D02*
X20833700Y-81457200D01*
X20833700Y-81457200D02*
X20776600Y-81628600D01*
X20776600Y-81628600D02*
X20662300Y-81742900D01*
X20662300Y-81742900D02*
X20548100Y-81800000D01*
X20548100Y-81800000D02*
X20376700Y-81800000D01*
X20376700Y-81800000D02*
X20262400Y-81742900D01*
X20262400Y-81742900D02*
X20148200Y-81628600D01*
%TO.N,NET160*%
X22033400Y-80600300D02*
X22033400Y-81800000D01*
X22033400Y-81800000D02*
X22719000Y-81800000D01*
%TO.N,NET161*%
X23536000Y-81000200D02*
X23536000Y-81800000D01*
X23536000Y-81171600D02*
X23421800Y-81057300D01*
X23421800Y-81057300D02*
X23307500Y-81000200D01*
X23307500Y-81000200D02*
X23136100Y-81000200D01*
X23136100Y-81000200D02*
X23021800Y-81057300D01*
X23021800Y-81057300D02*
X22907600Y-81171600D01*
X22907600Y-81171600D02*
X22850400Y-81343000D01*
X22850400Y-81343000D02*
X22850400Y-81457200D01*
X22850400Y-81457200D02*
X22907600Y-81628600D01*
X22907600Y-81628600D02*
X23021800Y-81742900D01*
X23021800Y-81742900D02*
X23136100Y-81800000D01*
X23136100Y-81800000D02*
X23307500Y-81800000D01*
X23307500Y-81800000D02*
X23421800Y-81742900D01*
X23421800Y-81742900D02*
X23536000Y-81628600D01*
%TO.N,NET162*%
X23913100Y-81000200D02*
X24255900Y-81800000D01*
X24598600Y-81000200D02*
X24255900Y-81800000D01*
X24255900Y-81800000D02*
X24141600Y-82028500D01*
X24141600Y-82028500D02*
X24027300Y-82142800D01*
X24027300Y-82142800D02*
X23913100Y-82199900D01*
X23913100Y-82199900D02*
X23855900Y-82199900D01*
%TO.N,NET163*%
X24798600Y-81343000D02*
X25484200Y-81343000D01*
X25484200Y-81343000D02*
X25484200Y-81228700D01*
X25484200Y-81228700D02*
X25427000Y-81114400D01*
X25427000Y-81114400D02*
X25369900Y-81057300D01*
X25369900Y-81057300D02*
X25255600Y-81000200D01*
X25255600Y-81000200D02*
X25084200Y-81000200D01*
X25084200Y-81000200D02*
X24970000Y-81057300D01*
X24970000Y-81057300D02*
X24855700Y-81171600D01*
X24855700Y-81171600D02*
X24798600Y-81343000D01*
X24798600Y-81343000D02*
X24798600Y-81457200D01*
X24798600Y-81457200D02*
X24855700Y-81628600D01*
X24855700Y-81628600D02*
X24970000Y-81742900D01*
X24970000Y-81742900D02*
X25084200Y-81800000D01*
X25084200Y-81800000D02*
X25255600Y-81800000D01*
X25255600Y-81800000D02*
X25369900Y-81742900D01*
X25369900Y-81742900D02*
X25484200Y-81628600D01*
%TO.N,NET164*%
X25741200Y-81000200D02*
X25741200Y-81800000D01*
X25741200Y-81343000D02*
X25798400Y-81171600D01*
X25798400Y-81171600D02*
X25912600Y-81057300D01*
X25912600Y-81057300D02*
X26026900Y-81000200D01*
X26026900Y-81000200D02*
X26198300Y-81000200D01*
%TD*%
%TA.AperFunction,Conductor*%
%TO.N,0V*%
G36*
X54706500Y-44183700D02*
G01*
X54654700Y-44173400D01*
X54518200Y-44200600D01*
X54402400Y-44278000D01*
X54325000Y-44393700D01*
X54297900Y-44530300D01*
X54325000Y-44666900D01*
X54402400Y-44782600D01*
X54518200Y-44860000D01*
X54556500Y-44867600D01*
X54556500Y-45350400D01*
X54406500Y-45454400D01*
X54350000Y-45443200D01*
X54213400Y-45470300D01*
X54097700Y-45547700D01*
X54020300Y-45663500D01*
X53993100Y-45800000D01*
X54020300Y-45936600D01*
X54097700Y-46052400D01*
X54213400Y-46129700D01*
X54350000Y-46156900D01*
X54406500Y-46145600D01*
X54556500Y-46249700D01*
X54556500Y-46850400D01*
X54406500Y-46954400D01*
X54350000Y-46943200D01*
X54213400Y-46970300D01*
X54097700Y-47047700D01*
X54020300Y-47163500D01*
X53993100Y-47300000D01*
X54020300Y-47436600D01*
X54097700Y-47552400D01*
X54213400Y-47629700D01*
X54350000Y-47656900D01*
X54406500Y-47645600D01*
X54556500Y-47749700D01*
X54556500Y-48399100D01*
X54049100Y-48906500D01*
X53038200Y-48906500D01*
X53029700Y-48863400D01*
X52952300Y-48747700D01*
X52836500Y-48670300D01*
X52700000Y-48643200D01*
X52563400Y-48670300D01*
X52450000Y-48746100D01*
X52336500Y-48670300D01*
X52200000Y-48643200D01*
X52063400Y-48670300D01*
X51950000Y-48746100D01*
X51836500Y-48670300D01*
X51700000Y-48643200D01*
X51563400Y-48670300D01*
X51450000Y-48746100D01*
X51336500Y-48670300D01*
X51200000Y-48643200D01*
X51063400Y-48670300D01*
X51043500Y-48683600D01*
X50893500Y-48603400D01*
X50893500Y-44750500D01*
X53393200Y-44750500D01*
X53420300Y-44886600D01*
X53497600Y-45002300D01*
X53613400Y-45079700D01*
X53750000Y-45106900D01*
X53886500Y-45079700D01*
X54002300Y-45002300D01*
X54079700Y-44886600D01*
X54106800Y-44750000D01*
X54079700Y-44613400D01*
X54002300Y-44497700D01*
X53886500Y-44420300D01*
X53750000Y-44393100D01*
X53613400Y-44420300D01*
X53497600Y-44497700D01*
X53420300Y-44613400D01*
X53393200Y-44749500D01*
X50893500Y-44749500D01*
X50893500Y-44496600D01*
X51043500Y-44416400D01*
X51063400Y-44429700D01*
X51200000Y-44456900D01*
X51336500Y-44429700D01*
X51450000Y-44353900D01*
X51563400Y-44429700D01*
X51700000Y-44456900D01*
X51836500Y-44429700D01*
X51950000Y-44353900D01*
X52063400Y-44429700D01*
X52200000Y-44456900D01*
X52336600Y-44429700D01*
X52450000Y-44353900D01*
X52563400Y-44429700D01*
X52700000Y-44456900D01*
X52836500Y-44429700D01*
X52952300Y-44352400D01*
X53029700Y-44236600D01*
X53056900Y-44100000D01*
X53029700Y-43963400D01*
X52952300Y-43847700D01*
X52943500Y-43841800D01*
X52943500Y-43050900D01*
X53433800Y-42560600D01*
X53610200Y-42596300D01*
X53647700Y-42652300D01*
X53763400Y-42729700D01*
X53900000Y-42756900D01*
X54036600Y-42729700D01*
X54152300Y-42652300D01*
X54229700Y-42536600D01*
X54256900Y-42400000D01*
X54254800Y-42389600D01*
X54302100Y-42342300D01*
X54372500Y-42272300D01*
X54515500Y-42318200D01*
X54518200Y-42320000D01*
X54654700Y-42347100D01*
X54665100Y-42345100D01*
X55156500Y-42836500D01*
X55156500Y-43219800D01*
X55006400Y-43234600D01*
X54984400Y-43123700D01*
X54907000Y-43008000D01*
X54791300Y-42930600D01*
X54654700Y-42903400D01*
X54518200Y-42930600D01*
X54402400Y-43008000D01*
X54325000Y-43123700D01*
X54297900Y-43260300D01*
X54325000Y-43396900D01*
X54402400Y-43512600D01*
X54518200Y-43590000D01*
X54654700Y-43617200D01*
X54665100Y-43615100D01*
X54856400Y-43806400D01*
X54856400Y-44077500D01*
X54706500Y-44183700D01*
G37*
%TD.AperFunction*%
%TD*%
%TA.AperFunction,Conductor*%
%TO.N,0V*%
G36*
X38308300Y-34889400D02*
G01*
X38449600Y-34947900D01*
X38449200Y-34950000D01*
X38464020Y-35024500D01*
X38218020Y-35024500D01*
X38308300Y-34889400D01*
G37*
%TD.AperFunction*%
%TA.AperFunction,Conductor*%
G36*
X37055900Y-34986100D02*
G01*
X37205900Y-34940600D01*
X37261980Y-35024500D01*
X37055900Y-35024500D01*
X37055900Y-34986100D01*
G37*
%TD.AperFunction*%
%TA.AperFunction,Conductor*%
G36*
X38795400Y-34431900D02*
G01*
X38613500Y-34553500D01*
X38535800Y-34669700D01*
X38394500Y-34611100D01*
X38402700Y-34570000D01*
X38369850Y-34404700D01*
X38932480Y-34404700D01*
X38795400Y-34431900D01*
G37*
%TD.AperFunction*%
%TA.AperFunction,Conductor*%
G36*
X41656500Y-20355800D02*
G01*
X41506400Y-20417900D01*
X40845600Y-19757100D01*
X40919500Y-19618900D01*
X40976100Y-19630100D01*
X41151600Y-19595200D01*
X41300500Y-19495800D01*
X41342200Y-19433400D01*
X41656500Y-19433400D01*
X41656500Y-20355800D01*
G37*
%TD.AperFunction*%
%TA.AperFunction,Conductor*%
G36*
X38055900Y-12407000D02*
G01*
X38058700Y-12404300D01*
X38205900Y-12340500D01*
X38273400Y-12385700D01*
X38409900Y-12412800D01*
X38420300Y-12410800D01*
X38606400Y-12596900D01*
X38606400Y-13550000D01*
X38677800Y-13722200D01*
X39406500Y-14450900D01*
X39406500Y-16899100D01*
X39127800Y-17177800D01*
X39056500Y-17350000D01*
X39056500Y-17852600D01*
X39038000Y-17945200D01*
X38904200Y-17971800D01*
X38788500Y-18049200D01*
X38711100Y-18164900D01*
X38684500Y-18298700D01*
X38550700Y-18325300D01*
X38434900Y-18402700D01*
X38357600Y-18518500D01*
X38330400Y-18655100D01*
X38357600Y-18791600D01*
X38434900Y-18907400D01*
X38550700Y-18984700D01*
X38687300Y-19011900D01*
X38701600Y-19009000D01*
X38881300Y-19188700D01*
X38873900Y-19253600D01*
X38840800Y-19360300D01*
X38747700Y-19422500D01*
X38741080Y-19432400D01*
X38055900Y-19432400D01*
X38055900Y-12407000D01*
G37*
%TD.AperFunction*%
%TA.AperFunction,Conductor*%
G36*
X38937700Y-30846400D02*
G01*
X38887400Y-31099500D01*
X37055900Y-31099500D01*
X37055900Y-30710500D01*
X39028530Y-30710500D01*
X38937700Y-30846400D01*
G37*
%TD.AperFunction*%
%TA.AperFunction,Conductor*%
G36*
X40018600Y-30631400D02*
G01*
X39906800Y-30556700D01*
X39906800Y-30295100D01*
X39925500Y-30201500D01*
X39911500Y-30131200D01*
X40049700Y-30057300D01*
X40701900Y-30709500D01*
X40070800Y-30709500D01*
X40018600Y-30631400D01*
G37*
%TD.AperFunction*%
%TA.AperFunction,Conductor*%
G36*
X37055900Y-31100500D02*
G01*
X38887400Y-31100500D01*
X38937700Y-31353600D01*
X39081400Y-31568600D01*
X39296400Y-31712300D01*
X39550000Y-31762800D01*
X39803600Y-31712300D01*
X40018600Y-31568600D01*
X40162300Y-31353600D01*
X40212700Y-31100000D01*
X40162300Y-30846400D01*
X40071470Y-30710500D01*
X40702900Y-30710500D01*
X41974700Y-31982300D01*
X37055900Y-31982300D01*
X37055900Y-31100500D01*
G37*
%TD.AperFunction*%
%TA.AperFunction,Conductor*%
G36*
X40103000Y-27570300D02*
G01*
X39807200Y-27570300D01*
X39801300Y-27561500D01*
X39685500Y-27484100D01*
X39549000Y-27456900D01*
X39412400Y-27484100D01*
X39296600Y-27561500D01*
X39219200Y-27677200D01*
X39192100Y-27813800D01*
X39219200Y-27950400D01*
X39296600Y-28066100D01*
X39412400Y-28143500D01*
X39549000Y-28170700D01*
X39685500Y-28143500D01*
X39733600Y-28111400D01*
X39883600Y-28191600D01*
X39883600Y-29722200D01*
X39902800Y-29818900D01*
X39824700Y-29876000D01*
X39764600Y-29892800D01*
X39538100Y-29666300D01*
X39422300Y-29589000D01*
X39285800Y-29561800D01*
X39149200Y-29589000D01*
X39033400Y-29666300D01*
X38956100Y-29782100D01*
X38928900Y-29918600D01*
X38956100Y-30055200D01*
X39033400Y-30171000D01*
X39193100Y-30330700D01*
X39193100Y-30556700D01*
X39081400Y-30631400D01*
X39029200Y-30709500D01*
X37055900Y-30709500D01*
X37055900Y-26950000D01*
X40723250Y-26950000D01*
X40103000Y-27570300D01*
G37*
%TD.AperFunction*%
%TA.AperFunction,Conductor*%
G36*
X43096000Y-26925000D02*
G01*
X43123100Y-26788500D01*
X43096000Y-26651900D01*
X43018600Y-26536100D01*
X42482800Y-26000300D01*
X42512700Y-25850000D01*
X42462300Y-25596400D01*
X42318600Y-25381400D01*
X42103600Y-25237700D01*
X41850000Y-25187300D01*
X41596400Y-25237700D01*
X41381400Y-25381400D01*
X41237700Y-25596400D01*
X41187300Y-25850000D01*
X41237700Y-26103600D01*
X41370600Y-26302600D01*
X40724250Y-26949000D01*
X37055900Y-26949000D01*
X37055900Y-26364700D01*
X39864000Y-26364700D01*
X39891100Y-26500800D01*
X39968400Y-26616600D01*
X40084200Y-26693900D01*
X40220700Y-26721100D01*
X40357300Y-26693900D01*
X40473100Y-26616600D01*
X40550400Y-26500800D01*
X40577600Y-26364200D01*
X40550400Y-26227700D01*
X40473100Y-26111900D01*
X40357300Y-26034500D01*
X40220700Y-26007400D01*
X40084200Y-26034500D01*
X39968400Y-26111900D01*
X39891100Y-26227700D01*
X39864000Y-26363700D01*
X37055900Y-26363700D01*
X37055900Y-24957100D01*
X37058000Y-24957100D01*
X37105700Y-24595000D01*
X37245500Y-24257600D01*
X37462100Y-23975200D01*
X37474400Y-23974400D01*
X37796100Y-23555100D01*
X37998300Y-23066900D01*
X38067300Y-22542900D01*
X38055900Y-22542900D01*
X38055900Y-19433400D01*
X38740410Y-19433400D01*
X38670300Y-19538300D01*
X38643100Y-19674900D01*
X38670300Y-19811500D01*
X38747700Y-19927200D01*
X38863400Y-20004600D01*
X39000000Y-20031700D01*
X39014400Y-20028900D01*
X40282300Y-21296800D01*
X40282300Y-21571100D01*
X40353600Y-21743300D01*
X41103600Y-22493300D01*
X41275800Y-22564600D01*
X41554900Y-22564600D01*
X41880300Y-22890000D01*
X41876600Y-22908400D01*
X41903800Y-23044900D01*
X41981100Y-23160700D01*
X42096900Y-23238100D01*
X42233500Y-23265200D01*
X42243900Y-23263200D01*
X44181800Y-25201100D01*
X44181800Y-25475400D01*
X44253100Y-25647600D01*
X45003100Y-26397600D01*
X45175300Y-26468900D01*
X45454300Y-26468900D01*
X45782900Y-26797500D01*
X45780900Y-26807900D01*
X45808000Y-26944400D01*
X45811070Y-26949000D01*
X43079960Y-26949000D01*
X43096000Y-26925000D01*
G37*
%TD.AperFunction*%
%TA.AperFunction,Conductor*%
G36*
X42075000Y-26751800D02*
G01*
X42143500Y-26751800D01*
X42256000Y-26782900D01*
X42422100Y-26949000D01*
X41877800Y-26949000D01*
X42075000Y-26751800D01*
G37*
%TD.AperFunction*%
%TA.AperFunction,Conductor*%
G36*
X37271400Y-36131400D02*
G01*
X37205900Y-36229400D01*
X37055900Y-36183900D01*
X37055900Y-36000500D01*
X37467250Y-36000500D01*
X37271400Y-36131400D01*
G37*
%TD.AperFunction*%
%TA.AperFunction,Conductor*%
G36*
X38491900Y-36005400D02*
G01*
X38449200Y-36220000D01*
X38449600Y-36222100D01*
X38308300Y-36280600D01*
X38208600Y-36131400D01*
X38012750Y-36000500D01*
X38495180Y-36000500D01*
X38491900Y-36005400D01*
G37*
%TD.AperFunction*%
%TA.AperFunction,Conductor*%
G36*
X50947700Y-53152300D02*
G01*
X51063400Y-53229700D01*
X51200000Y-53256900D01*
X51336500Y-53229700D01*
X51450000Y-53153900D01*
X51563400Y-53229700D01*
X51700000Y-53256900D01*
X51836500Y-53229700D01*
X51950000Y-53153900D01*
X52063400Y-53229700D01*
X52200000Y-53256900D01*
X52336500Y-53229700D01*
X52450000Y-53153900D01*
X52563400Y-53229700D01*
X52700000Y-53256900D01*
X52836500Y-53229700D01*
X52952300Y-53152300D01*
X52958200Y-53143600D01*
X53458300Y-53143600D01*
X53503800Y-53293500D01*
X53497600Y-53297700D01*
X53420200Y-53413500D01*
X53393000Y-53550100D01*
X53420200Y-53686600D01*
X53497600Y-53802400D01*
X53613300Y-53879800D01*
X53749900Y-53906900D01*
X53886500Y-53879800D01*
X54002200Y-53802400D01*
X54079600Y-53686600D01*
X54106800Y-53550100D01*
X54079600Y-53413500D01*
X54055800Y-53378000D01*
X54172400Y-53282300D01*
X54299900Y-53409900D01*
X54297900Y-53420300D01*
X54325000Y-53556900D01*
X54402400Y-53672600D01*
X54518200Y-53750000D01*
X54654700Y-53777100D01*
X54791300Y-53750000D01*
X54907000Y-53672600D01*
X54984400Y-53556900D01*
X55011600Y-53420300D01*
X54984400Y-53283700D01*
X54907000Y-53168000D01*
X54813570Y-53105500D01*
X55851800Y-53105500D01*
X55889200Y-53293400D01*
X56038300Y-53516700D01*
X56261600Y-53665800D01*
X56525000Y-53718200D01*
X56675000Y-53718200D01*
X56675000Y-53105000D01*
X55852200Y-53105000D01*
X55852200Y-53104500D01*
X54812080Y-53104500D01*
X54791300Y-53090600D01*
X54654700Y-53063400D01*
X54644300Y-53065500D01*
X54410900Y-52832100D01*
X54446600Y-52655600D01*
X54527200Y-52622200D01*
X54644300Y-52505100D01*
X54654700Y-52507200D01*
X54791300Y-52480000D01*
X54907000Y-52402600D01*
X54984400Y-52286900D01*
X55011600Y-52150300D01*
X54984400Y-52013700D01*
X54907000Y-51898000D01*
X54791300Y-51820600D01*
X54654700Y-51793400D01*
X54518200Y-51820600D01*
X54402400Y-51898000D01*
X54325000Y-52013700D01*
X54297900Y-52150300D01*
X54163800Y-52206500D01*
X53483900Y-52206500D01*
X53426500Y-52067900D01*
X53620700Y-51873700D01*
X53656100Y-51788400D01*
X53744000Y-51699400D01*
X53842000Y-51695300D01*
X53900000Y-51706900D01*
X54036600Y-51679700D01*
X54152300Y-51602400D01*
X54229700Y-51486600D01*
X54256800Y-51350000D01*
X54229700Y-51213500D01*
X54152300Y-51097700D01*
X54143500Y-51091800D01*
X54143500Y-50900500D01*
X54153700Y-50894300D01*
X54316100Y-50971900D01*
X54325000Y-51016800D01*
X54402400Y-51132600D01*
X54518200Y-51210000D01*
X54654700Y-51237200D01*
X54791300Y-51210000D01*
X54907000Y-51132600D01*
X54984400Y-51016800D01*
X55011600Y-50880300D01*
X54984400Y-50743700D01*
X54907000Y-50627900D01*
X54791300Y-50550600D01*
X54654700Y-50523400D01*
X54593800Y-50535600D01*
X54519900Y-50397300D01*
X55695000Y-49222200D01*
X55848800Y-49280500D01*
X55889200Y-49483400D01*
X56038300Y-49706700D01*
X56148100Y-49780000D01*
X56148100Y-49930000D01*
X56038300Y-50003400D01*
X55889200Y-50226600D01*
X55836800Y-50490000D01*
X55889200Y-50753400D01*
X56038300Y-50976700D01*
X56148100Y-51050000D01*
X56148100Y-51200000D01*
X56038300Y-51273400D01*
X55889200Y-51496600D01*
X55836800Y-51760000D01*
X55889200Y-52023400D01*
X56038300Y-52246700D01*
X56148100Y-52320000D01*
X56148100Y-52470000D01*
X56038300Y-52543400D01*
X55889200Y-52766600D01*
X55851700Y-52955000D01*
X56750000Y-52955000D01*
X56750000Y-53030000D01*
X56825000Y-53030000D01*
X56825000Y-53718200D01*
X56975000Y-53718200D01*
X57238400Y-53665800D01*
X57414100Y-53548400D01*
X57557000Y-53589600D01*
X57578000Y-53605600D01*
X57587800Y-53656200D01*
X57414900Y-53914900D01*
X57100600Y-54124900D01*
X56741300Y-54196400D01*
X56730000Y-54194100D01*
X44211100Y-54194100D01*
X44211100Y-53105500D01*
X50916390Y-53105500D01*
X50947700Y-53152300D01*
G37*
%TD.AperFunction*%
%TA.AperFunction,Conductor*%
G36*
X39761900Y-36434600D02*
G01*
X39883500Y-36616500D01*
X40065400Y-36738100D01*
X40280000Y-36780800D01*
X40460400Y-36744900D01*
X40837800Y-37122200D01*
X41010000Y-37193500D01*
X44399100Y-37193500D01*
X44947700Y-37742100D01*
X44923700Y-37930300D01*
X44897600Y-37947700D01*
X44820300Y-38063400D01*
X44750000Y-38193100D01*
X44613400Y-38220300D01*
X44497700Y-38297700D01*
X44429800Y-38399200D01*
X44350000Y-38406800D01*
X44270200Y-38399200D01*
X44202300Y-38297700D01*
X44086500Y-38220300D01*
X43950000Y-38193100D01*
X43908300Y-38201400D01*
X43906800Y-38200000D01*
X43879700Y-38063400D01*
X43802300Y-37947700D01*
X43686600Y-37870300D01*
X43550000Y-37843100D01*
X43413400Y-37870300D01*
X43297600Y-37947700D01*
X43229800Y-38049200D01*
X43150000Y-38056800D01*
X43070200Y-38049200D01*
X43002300Y-37947700D01*
X42886500Y-37870300D01*
X42750000Y-37843200D01*
X42613400Y-37870300D01*
X42497700Y-37947700D01*
X42420300Y-38063400D01*
X42350000Y-38193100D01*
X42249200Y-38213200D01*
X42213400Y-38220300D01*
X42097700Y-38297700D01*
X42020300Y-38413500D01*
X41993100Y-38550000D01*
X42020300Y-38686600D01*
X42097700Y-38802300D01*
X42213400Y-38879700D01*
X42350000Y-38906900D01*
X42486500Y-38879700D01*
X42602300Y-38802300D01*
X42670200Y-38700800D01*
X42750000Y-38693200D01*
X42829800Y-38700800D01*
X42897600Y-38802300D01*
X43013400Y-38879700D01*
X43150000Y-38906900D01*
X43286600Y-38879700D01*
X43402300Y-38802300D01*
X43470200Y-38700800D01*
X43550000Y-38693200D01*
X43629800Y-38700800D01*
X43697600Y-38802300D01*
X43813400Y-38879700D01*
X43950000Y-38906900D01*
X44086500Y-38879700D01*
X44202300Y-38802300D01*
X44270200Y-38700800D01*
X44350000Y-38693200D01*
X44429800Y-38700800D01*
X44497700Y-38802300D01*
X44613400Y-38879700D01*
X44750000Y-38906900D01*
X44886500Y-38879700D01*
X45002300Y-38802300D01*
X45079700Y-38686600D01*
X45150000Y-38556900D01*
X45250800Y-38536800D01*
X45256400Y-38535700D01*
X45360600Y-38591600D01*
X45406500Y-38630000D01*
X45406500Y-42499100D01*
X43527800Y-44377800D01*
X43456500Y-44550000D01*
X43456500Y-45100000D01*
X43527800Y-45272200D01*
X44877800Y-46622200D01*
X45050000Y-46693500D01*
X45085700Y-46693500D01*
X45087700Y-46703600D01*
X45231400Y-46918600D01*
X45446400Y-47062300D01*
X45700000Y-47112700D01*
X45953600Y-47062300D01*
X46168600Y-46918600D01*
X46312300Y-46703600D01*
X46362700Y-46450000D01*
X46312300Y-46196400D01*
X46216600Y-46053200D01*
X46226900Y-46007900D01*
X46293500Y-45898200D01*
X46386500Y-45879700D01*
X46502300Y-45802400D01*
X46579700Y-45686600D01*
X46606800Y-45550000D01*
X46606800Y-45193300D01*
X46718600Y-45118600D01*
X46862300Y-44903600D01*
X46912700Y-44650000D01*
X46862300Y-44396400D01*
X46832400Y-44351700D01*
X46835200Y-44328600D01*
X46908300Y-44195300D01*
X46986500Y-44179700D01*
X47102300Y-44102300D01*
X47179700Y-43986600D01*
X47186800Y-43950800D01*
X47206800Y-43850000D01*
X47336500Y-43779700D01*
X47452300Y-43702300D01*
X47529700Y-43586600D01*
X47556900Y-43450000D01*
X47529700Y-43313400D01*
X47452300Y-43197700D01*
X47350800Y-43129800D01*
X47343200Y-43050000D01*
X47350800Y-42970200D01*
X47452300Y-42902300D01*
X47529700Y-42786600D01*
X47556900Y-42650000D01*
X47529700Y-42513400D01*
X47452300Y-42397700D01*
X47350800Y-42329800D01*
X47343200Y-42250000D01*
X47350800Y-42170200D01*
X47452300Y-42102300D01*
X47529700Y-41986600D01*
X47556900Y-41850000D01*
X47529700Y-41713400D01*
X47452300Y-41597700D01*
X47350800Y-41529800D01*
X47343200Y-41450000D01*
X47350800Y-41370200D01*
X47452300Y-41302300D01*
X47529700Y-41186600D01*
X47556900Y-41050000D01*
X47529700Y-40913500D01*
X47452300Y-40797700D01*
X47336500Y-40720300D01*
X47200000Y-40693100D01*
X47198500Y-40691700D01*
X47206800Y-40650000D01*
X47179700Y-40513500D01*
X47102300Y-40397700D01*
X47000800Y-40329800D01*
X46993200Y-40250000D01*
X47000800Y-40170200D01*
X47078100Y-40118600D01*
X47175000Y-40103900D01*
X47271900Y-40118600D01*
X47363400Y-40179700D01*
X47500000Y-40206900D01*
X47592200Y-40188500D01*
X47742200Y-40275800D01*
X47742200Y-46450000D01*
X47768000Y-46580200D01*
X47773200Y-46606100D01*
X47861600Y-46738400D01*
X47905600Y-46782400D01*
X47892200Y-46850000D01*
X47892200Y-47000000D01*
X47923200Y-47156100D01*
X48011600Y-47288400D01*
X48143900Y-47376800D01*
X48300000Y-47407900D01*
X48700000Y-47407900D01*
X48856000Y-47376800D01*
X48988400Y-47288400D01*
X49076800Y-47156100D01*
X49107800Y-47000000D01*
X49076800Y-46843900D01*
X48988400Y-46711600D01*
X48839500Y-46562700D01*
X48829700Y-46513400D01*
X48752300Y-46397700D01*
X48636500Y-46320300D01*
X48587200Y-46310500D01*
X48557800Y-46281100D01*
X48557800Y-40388200D01*
X48707800Y-40342700D01*
X48747700Y-40402300D01*
X48863400Y-40479700D01*
X49000000Y-40506900D01*
X49136500Y-40479700D01*
X49243300Y-40408400D01*
X49262600Y-40401600D01*
X49272000Y-40400900D01*
X49406500Y-40441700D01*
X49406500Y-43162700D01*
X49212500Y-43356700D01*
X49191600Y-43407100D01*
X49141200Y-43528900D01*
X49141200Y-44589500D01*
X49212500Y-44761700D01*
X49806500Y-45355700D01*
X49806500Y-48299100D01*
X49477800Y-48627800D01*
X49406500Y-48800000D01*
X49406500Y-48809300D01*
X49370300Y-48863400D01*
X49343100Y-49000000D01*
X49370300Y-49136600D01*
X49447700Y-49252300D01*
X49563400Y-49329700D01*
X49700000Y-49356900D01*
X49836500Y-49329700D01*
X49950000Y-49253900D01*
X50063400Y-49329700D01*
X50200000Y-49356900D01*
X50336500Y-49329700D01*
X50450000Y-49253900D01*
X50563400Y-49329700D01*
X50700000Y-49356900D01*
X50836500Y-49329700D01*
X50950000Y-49253900D01*
X51063400Y-49329700D01*
X51200000Y-49356900D01*
X51336500Y-49329700D01*
X51450000Y-49253900D01*
X51563400Y-49329700D01*
X51700000Y-49356900D01*
X51836500Y-49329700D01*
X51851200Y-49319900D01*
X52027800Y-49372200D01*
X52327800Y-49672200D01*
X52500000Y-49743500D01*
X53864600Y-49743500D01*
X53922000Y-49882100D01*
X53276300Y-50527800D01*
X53205000Y-50700000D01*
X53205000Y-51600600D01*
X52899100Y-51906500D01*
X51800000Y-51906500D01*
X51627800Y-51977800D01*
X51027800Y-52577800D01*
X51018400Y-52600400D01*
X50947700Y-52647700D01*
X50870300Y-52763400D01*
X50843100Y-52900000D01*
X50870300Y-53036600D01*
X50915720Y-53104500D01*
X44211100Y-53104500D01*
X44211100Y-50950500D01*
X50991300Y-50950500D01*
X51026100Y-51125600D01*
X51125500Y-51274400D01*
X51274400Y-51373900D01*
X51450000Y-51408800D01*
X51625600Y-51373900D01*
X51774400Y-51274400D01*
X51873900Y-51125600D01*
X51908800Y-50950000D01*
X51873900Y-50774400D01*
X51774400Y-50625600D01*
X51625600Y-50526100D01*
X51450000Y-50491200D01*
X51274400Y-50526100D01*
X51125500Y-50625600D01*
X51026100Y-50774400D01*
X50991300Y-50949500D01*
X44211100Y-50949500D01*
X44211100Y-50588900D01*
X39380600Y-47800000D01*
X37520700Y-47800000D01*
X37477100Y-47650500D01*
X45743300Y-47650500D01*
X45770300Y-47786600D01*
X45847700Y-47902300D01*
X45963500Y-47979700D01*
X46100000Y-48006900D01*
X46236600Y-47979700D01*
X46352400Y-47902300D01*
X46429700Y-47786600D01*
X46456900Y-47650000D01*
X46429700Y-47513400D01*
X46352400Y-47397700D01*
X46236600Y-47320300D01*
X46100000Y-47293100D01*
X45963500Y-47320300D01*
X45847700Y-47397700D01*
X45770300Y-47513400D01*
X45743300Y-47649500D01*
X37476810Y-47649500D01*
X37055900Y-46206300D01*
X37055900Y-45000500D01*
X40243200Y-45000500D01*
X40270300Y-45136600D01*
X40347700Y-45252300D01*
X40463400Y-45329700D01*
X40600000Y-45356900D01*
X40736500Y-45329700D01*
X40852300Y-45252300D01*
X40929700Y-45136600D01*
X40956800Y-45000000D01*
X40929700Y-44863400D01*
X40852300Y-44747700D01*
X40736500Y-44670300D01*
X40600000Y-44643200D01*
X40463400Y-44670300D01*
X40347700Y-44747700D01*
X40270300Y-44863400D01*
X40243200Y-44999500D01*
X37055900Y-44999500D01*
X37055900Y-43850500D01*
X39143200Y-43850500D01*
X39170300Y-43986600D01*
X39247700Y-44102300D01*
X39363400Y-44179700D01*
X39493100Y-44250000D01*
X39513200Y-44350800D01*
X39520300Y-44386600D01*
X39597700Y-44502300D01*
X39713400Y-44579700D01*
X39850000Y-44606900D01*
X39986500Y-44579700D01*
X40102300Y-44502300D01*
X40179700Y-44386600D01*
X40206800Y-44250000D01*
X40179700Y-44113400D01*
X40102300Y-43997700D01*
X40000800Y-43929800D01*
X39993200Y-43850000D01*
X40000800Y-43770200D01*
X40102300Y-43702400D01*
X40179700Y-43586600D01*
X40206800Y-43450000D01*
X40179700Y-43313400D01*
X40102300Y-43197700D01*
X40000800Y-43129800D01*
X39993200Y-43050000D01*
X40000800Y-42970200D01*
X40102300Y-42902300D01*
X40179700Y-42786600D01*
X40206800Y-42650000D01*
X40179700Y-42513500D01*
X40102300Y-42397700D01*
X40000800Y-42329800D01*
X39993200Y-42250000D01*
X40000800Y-42170200D01*
X40102300Y-42102400D01*
X40179700Y-41986600D01*
X40206800Y-41850000D01*
X40179700Y-41713400D01*
X40102300Y-41597700D01*
X39986500Y-41520300D01*
X39850000Y-41493200D01*
X39713400Y-41520300D01*
X39597700Y-41597700D01*
X39520300Y-41713400D01*
X39493100Y-41850000D01*
X39501400Y-41891700D01*
X39500000Y-41893200D01*
X39363400Y-41920300D01*
X39247700Y-41997700D01*
X39170300Y-42113400D01*
X39143100Y-42250000D01*
X39170300Y-42386600D01*
X39247700Y-42502300D01*
X39349200Y-42570200D01*
X39356800Y-42650000D01*
X39349200Y-42729800D01*
X39247700Y-42797700D01*
X39170300Y-42913500D01*
X39143100Y-43050000D01*
X39170300Y-43186600D01*
X39247700Y-43302300D01*
X39349200Y-43370200D01*
X39356800Y-43450000D01*
X39349200Y-43529800D01*
X39247700Y-43597700D01*
X39170300Y-43713400D01*
X39143200Y-43849500D01*
X37055900Y-43849500D01*
X37055900Y-39000500D01*
X39543200Y-39000500D01*
X39570300Y-39136600D01*
X39647600Y-39252300D01*
X39763400Y-39329700D01*
X39900000Y-39356900D01*
X40036600Y-39329700D01*
X40152300Y-39252300D01*
X40229700Y-39136600D01*
X40256800Y-39000000D01*
X40229700Y-38863500D01*
X40152300Y-38747700D01*
X40036600Y-38670300D01*
X39900000Y-38643200D01*
X39763400Y-38670300D01*
X39647600Y-38747700D01*
X39570300Y-38863500D01*
X39543200Y-38999500D01*
X37055900Y-38999500D01*
X37055900Y-37016100D01*
X37205900Y-36970600D01*
X37271400Y-37068600D01*
X37486400Y-37212300D01*
X37740000Y-37262800D01*
X37993600Y-37212300D01*
X38208600Y-37068600D01*
X38352300Y-36853600D01*
X38402700Y-36600000D01*
X38394500Y-36558900D01*
X38535800Y-36500400D01*
X38613500Y-36616500D01*
X38795400Y-36738100D01*
X39010000Y-36780800D01*
X39224600Y-36738100D01*
X39406500Y-36616500D01*
X39528100Y-36434600D01*
X39570800Y-36220000D01*
X39528100Y-36005400D01*
X39524820Y-36000500D01*
X39765180Y-36000500D01*
X39761900Y-36005400D01*
X39719200Y-36220000D01*
X39761900Y-36434600D01*
G37*
%TD.AperFunction*%
%TA.AperFunction,Conductor*%
G36*
X41031900Y-36005400D02*
G01*
X40989200Y-36220000D01*
X41027100Y-36410600D01*
X40967600Y-36466800D01*
X40903400Y-36499100D01*
X40804900Y-36400500D01*
X40840800Y-36220000D01*
X40798100Y-36005400D01*
X40794820Y-36000500D01*
X41035180Y-36000500D01*
X41031900Y-36005400D01*
G37*
%TD.AperFunction*%
%TA.AperFunction,Conductor*%
G36*
X42351400Y-36053600D02*
G01*
X42505300Y-36156500D01*
X42459800Y-36306500D01*
X42181700Y-36306500D01*
X42110700Y-36220000D01*
X42068100Y-36005400D01*
X42064820Y-36000500D01*
X42315910Y-36000500D01*
X42351400Y-36053600D01*
G37*
%TD.AperFunction*%
%TA.AperFunction,Conductor*%
G36*
X46004800Y-36399200D02*
G01*
X45955400Y-36562000D01*
X45913400Y-36570300D01*
X45797600Y-36647700D01*
X45720200Y-36763500D01*
X45693100Y-36900100D01*
X45720200Y-37036600D01*
X45797600Y-37152400D01*
X45913400Y-37229700D01*
X46010000Y-37249000D01*
X46076600Y-37388500D01*
X46013800Y-37501200D01*
X45873500Y-37529100D01*
X44722200Y-36377800D01*
X44550000Y-36306500D01*
X43180200Y-36306500D01*
X43134700Y-36156500D01*
X43288600Y-36053600D01*
X43324090Y-36000500D01*
X45606080Y-36000500D01*
X46004800Y-36399200D01*
G37*
%TD.AperFunction*%
%TA.AperFunction,Conductor*%
G36*
X48006900Y-38841300D02*
G01*
X47861600Y-38986600D01*
X47773200Y-39118900D01*
X47768000Y-39144800D01*
X47742200Y-39275000D01*
X47742200Y-39424200D01*
X47592200Y-39511500D01*
X47500000Y-39493200D01*
X47363400Y-39520300D01*
X47271900Y-39581500D01*
X47175000Y-39596200D01*
X47078100Y-39581500D01*
X46986500Y-39520300D01*
X46850000Y-39493200D01*
X46713400Y-39520300D01*
X46643500Y-39567000D01*
X46500300Y-39506900D01*
X46493500Y-39500600D01*
X46493500Y-38750400D01*
X47982470Y-38750400D01*
X48006900Y-38841300D01*
G37*
%TD.AperFunction*%
%TA.AperFunction,Conductor*%
G36*
X49642200Y-37206100D02*
G01*
X48591300Y-38257000D01*
X48430200Y-38213600D01*
X48426900Y-38209200D01*
X48352300Y-38097700D01*
X48236600Y-38020300D01*
X48100000Y-37993200D01*
X47963400Y-38020300D01*
X47847700Y-38097700D01*
X47770300Y-38213400D01*
X47743100Y-38350000D01*
X47770300Y-38486600D01*
X47847700Y-38602400D01*
X47959200Y-38676900D01*
X47963600Y-38680200D01*
X47982200Y-38749400D01*
X46493500Y-38749400D01*
X46493500Y-37700900D01*
X46672200Y-37522200D01*
X46743500Y-37350000D01*
X46743500Y-36950500D01*
X49642200Y-36950500D01*
X49642200Y-37206100D01*
G37*
%TD.AperFunction*%
%TA.AperFunction,Conductor*%
G36*
X37055900Y-31983300D02*
G01*
X41975700Y-31983300D01*
X42174900Y-32182500D01*
X42091000Y-32308200D01*
X42059900Y-32464200D01*
X42091000Y-32620300D01*
X42179400Y-32752600D01*
X42311700Y-32841000D01*
X42467800Y-32872100D01*
X42623800Y-32841000D01*
X42756100Y-32752600D01*
X43039000Y-32469800D01*
X43068900Y-32424900D01*
X44577300Y-32424900D01*
X45501800Y-33349400D01*
X37055900Y-33349400D01*
X37055900Y-31983300D01*
G37*
%TD.AperFunction*%
%TA.AperFunction,Conductor*%
G36*
X49642200Y-36949500D02*
G01*
X46743500Y-36949500D01*
X46743500Y-36550000D01*
X46693100Y-36428300D01*
X46672200Y-36377800D01*
X46294900Y-36000500D01*
X48493200Y-36000500D01*
X48520300Y-36136600D01*
X48597700Y-36252300D01*
X48713400Y-36329700D01*
X48850000Y-36356900D01*
X48986500Y-36329700D01*
X49102300Y-36252300D01*
X49179700Y-36136600D01*
X49206800Y-36000000D01*
X49179700Y-35863500D01*
X49102300Y-35747700D01*
X48986500Y-35670300D01*
X48850000Y-35643200D01*
X48713400Y-35670300D01*
X48597700Y-35747700D01*
X48520300Y-35863500D01*
X48493200Y-35999500D01*
X46293900Y-35999500D01*
X44372200Y-34077800D01*
X44200000Y-34006500D01*
X40980000Y-34006500D01*
X40807800Y-34077800D01*
X40460400Y-34425100D01*
X40280000Y-34389300D01*
X40065400Y-34431900D01*
X39883500Y-34553500D01*
X39761900Y-34735400D01*
X39719200Y-34950000D01*
X39761900Y-35164600D01*
X39883500Y-35346500D01*
X40065400Y-35468100D01*
X40280000Y-35510800D01*
X40494600Y-35468100D01*
X40676500Y-35346500D01*
X40798100Y-35164600D01*
X40840800Y-34950000D01*
X40804900Y-34769600D01*
X40903400Y-34671000D01*
X40967600Y-34703200D01*
X41027100Y-34759400D01*
X40989200Y-34950000D01*
X41031900Y-35164600D01*
X41153500Y-35346500D01*
X41335400Y-35468100D01*
X41550000Y-35510800D01*
X41764600Y-35468100D01*
X41946500Y-35346500D01*
X42068100Y-35164600D01*
X42110700Y-34950000D01*
X42068100Y-34735400D01*
X42006700Y-34643600D01*
X42086900Y-34493600D01*
X44099100Y-34493600D01*
X45605080Y-35999500D01*
X43324760Y-35999500D01*
X43432300Y-35838600D01*
X43482700Y-35585000D01*
X43432300Y-35331400D01*
X43288600Y-35116400D01*
X43073600Y-34972700D01*
X42820000Y-34922300D01*
X42566400Y-34972700D01*
X42351400Y-35116400D01*
X42207700Y-35331400D01*
X42157300Y-35585000D01*
X42207700Y-35838600D01*
X42315240Y-35999500D01*
X42064160Y-35999500D01*
X41946500Y-35823500D01*
X41764600Y-35701900D01*
X41550000Y-35659200D01*
X41335400Y-35701900D01*
X41153500Y-35823500D01*
X41035840Y-35999500D01*
X40794160Y-35999500D01*
X40676500Y-35823500D01*
X40494600Y-35701900D01*
X40280000Y-35659200D01*
X40065400Y-35701900D01*
X39883500Y-35823500D01*
X39765840Y-35999500D01*
X39524160Y-35999500D01*
X39406500Y-35823500D01*
X39224600Y-35701900D01*
X39010000Y-35659200D01*
X38795400Y-35701900D01*
X38613500Y-35823500D01*
X38495840Y-35999500D01*
X38011250Y-35999500D01*
X37993600Y-35987700D01*
X37740000Y-35937300D01*
X37486400Y-35987700D01*
X37468750Y-35999500D01*
X37055900Y-35999500D01*
X37055900Y-35025500D01*
X37262640Y-35025500D01*
X37271400Y-35038600D01*
X37486400Y-35182300D01*
X37740000Y-35232800D01*
X37993600Y-35182300D01*
X38208600Y-35038600D01*
X38217350Y-35025500D01*
X38464220Y-35025500D01*
X38491900Y-35164600D01*
X38613500Y-35346600D01*
X38795400Y-35468100D01*
X38935000Y-35495900D01*
X38935000Y-35025500D01*
X39085000Y-35025500D01*
X39085000Y-35495900D01*
X39224600Y-35468100D01*
X39406500Y-35346600D01*
X39528100Y-35164600D01*
X39555800Y-35025000D01*
X39085500Y-35025000D01*
X39085500Y-35024500D01*
X38935000Y-35024500D01*
X38935000Y-34950000D01*
X38935000Y-34404700D01*
X39085000Y-34404700D01*
X39085000Y-34875000D01*
X39555800Y-34875000D01*
X39528100Y-34735400D01*
X39406500Y-34553500D01*
X39224600Y-34431900D01*
X39085500Y-34404300D01*
X39085500Y-34403700D01*
X38369650Y-34403700D01*
X38352300Y-34316400D01*
X38208600Y-34101400D01*
X37993600Y-33957700D01*
X37740000Y-33907300D01*
X37486400Y-33957700D01*
X37271400Y-34101400D01*
X37205900Y-34199400D01*
X37055900Y-34153900D01*
X37055900Y-33350400D01*
X45502800Y-33350400D01*
X47731100Y-35578700D01*
X47729000Y-35589100D01*
X47756200Y-35725600D01*
X47833600Y-35841400D01*
X47949300Y-35918800D01*
X48085900Y-35945900D01*
X48222400Y-35918800D01*
X48338200Y-35841400D01*
X48415600Y-35725600D01*
X48442700Y-35589100D01*
X48415600Y-35452500D01*
X48338200Y-35336700D01*
X48222400Y-35259400D01*
X48085900Y-35232200D01*
X48075500Y-35234300D01*
X46191600Y-33350400D01*
X49642200Y-33350400D01*
X49642200Y-36949500D01*
G37*
%TD.AperFunction*%
%TA.AperFunction,Conductor*%
G36*
X44952800Y-29551800D02*
G01*
X44952900Y-29551800D01*
X45041300Y-29610800D01*
X45085100Y-29640200D01*
X45241200Y-29671200D01*
X45766300Y-29671200D01*
X45831400Y-29768600D01*
X46046400Y-29912300D01*
X46300000Y-29962700D01*
X46371700Y-29948500D01*
X49642200Y-33219000D01*
X49642200Y-33349400D01*
X46190600Y-33349400D01*
X44850400Y-32009200D01*
X44787940Y-31983300D01*
X47092700Y-31983300D01*
X47119800Y-32119400D01*
X47197100Y-32235100D01*
X47312900Y-32312500D01*
X47449500Y-32339700D01*
X47586100Y-32312500D01*
X47701800Y-32235100D01*
X47779200Y-32119400D01*
X47806300Y-31982800D01*
X47779200Y-31846300D01*
X47701800Y-31730500D01*
X47586100Y-31653100D01*
X47449500Y-31625900D01*
X47312900Y-31653100D01*
X47197100Y-31730500D01*
X47119800Y-31846300D01*
X47092700Y-31982300D01*
X44785520Y-31982300D01*
X44678200Y-31937800D01*
X43068900Y-31937800D01*
X43039000Y-31893000D01*
X41856450Y-30710500D01*
X45820000Y-30710500D01*
X45847000Y-30846600D01*
X45924400Y-30962400D01*
X46040100Y-31039700D01*
X46176700Y-31066900D01*
X46313300Y-31039700D01*
X46429000Y-30962400D01*
X46506400Y-30846600D01*
X46533600Y-30710000D01*
X46506400Y-30573500D01*
X46429000Y-30457700D01*
X46313300Y-30380300D01*
X46176700Y-30353200D01*
X46040100Y-30380300D01*
X45924400Y-30457700D01*
X45847000Y-30573500D01*
X45820000Y-30709500D01*
X41855450Y-30709500D01*
X40699200Y-29553300D01*
X40699200Y-29290800D01*
X44691890Y-29290800D01*
X44952800Y-29551800D01*
G37*
%TD.AperFunction*%
%TA.AperFunction,Conductor*%
G36*
X43438600Y-14789800D02*
G01*
X43412800Y-14919300D01*
X43465200Y-15182600D01*
X43614400Y-15405900D01*
X43837700Y-15555100D01*
X44101000Y-15607500D01*
X44230500Y-15581700D01*
X44336600Y-15687800D01*
X44310900Y-15817300D01*
X44363200Y-16080700D01*
X44512400Y-16304000D01*
X44735700Y-16453100D01*
X44999100Y-16505500D01*
X45128600Y-16479700D01*
X45234600Y-16585800D01*
X45208900Y-16715300D01*
X45261300Y-16978700D01*
X45410500Y-17202000D01*
X45633700Y-17351100D01*
X45897100Y-17403500D01*
X46026600Y-17377800D01*
X46132700Y-17483800D01*
X46106900Y-17613300D01*
X46159300Y-17876700D01*
X46308500Y-18100000D01*
X46531700Y-18249200D01*
X46795100Y-18301600D01*
X46924600Y-18275800D01*
X47030700Y-18381900D01*
X47004900Y-18511400D01*
X47057300Y-18774700D01*
X47206500Y-18998000D01*
X47429800Y-19147200D01*
X47693100Y-19199600D01*
X47822600Y-19173800D01*
X47928700Y-19279900D01*
X47903000Y-19409400D01*
X47955300Y-19672800D01*
X48062000Y-19832500D01*
X48697200Y-19197300D01*
X48803300Y-19303300D01*
X48168100Y-19938500D01*
X48327800Y-20045200D01*
X48591200Y-20097600D01*
X48720700Y-20071900D01*
X48826800Y-20177900D01*
X48801000Y-20307400D01*
X48853400Y-20570800D01*
X49002600Y-20794100D01*
X49225800Y-20943300D01*
X49489200Y-20995600D01*
X49618700Y-20969900D01*
X49724800Y-21076000D01*
X49699000Y-21205400D01*
X49751400Y-21468800D01*
X49900600Y-21692100D01*
X50123800Y-21841300D01*
X50387200Y-21893700D01*
X50516700Y-21867900D01*
X50622800Y-21974000D01*
X50597000Y-22103500D01*
X50649400Y-22366900D01*
X50798600Y-22590100D01*
X51021900Y-22739300D01*
X51285200Y-22791700D01*
X51414800Y-22765900D01*
X51520800Y-22872000D01*
X51495100Y-23001500D01*
X51547500Y-23264900D01*
X51696600Y-23488100D01*
X51919900Y-23637300D01*
X52183300Y-23689700D01*
X52312800Y-23664000D01*
X52418900Y-23770000D01*
X52393100Y-23899500D01*
X52445500Y-24162900D01*
X52594600Y-24386200D01*
X52817900Y-24535400D01*
X53081300Y-24587700D01*
X53210800Y-24562000D01*
X53316900Y-24668100D01*
X53291100Y-24797500D01*
X53343500Y-25060900D01*
X53492700Y-25284200D01*
X53716000Y-25433400D01*
X53979300Y-25485800D01*
X54108800Y-25460000D01*
X54214900Y-25566100D01*
X54189100Y-25695600D01*
X54241500Y-25959000D01*
X54390700Y-26182200D01*
X54614000Y-26331400D01*
X54877300Y-26383800D01*
X55006800Y-26358000D01*
X55112900Y-26464100D01*
X55087200Y-26593600D01*
X55139500Y-26857000D01*
X55288700Y-27080300D01*
X55512000Y-27229400D01*
X55775400Y-27281800D01*
X56038800Y-27229400D01*
X56262000Y-27080300D01*
X56580200Y-26762100D01*
X56729400Y-26538800D01*
X56781800Y-26275400D01*
X56763800Y-26184900D01*
X56778500Y-26171400D01*
X56981000Y-26185800D01*
X57228200Y-26487000D01*
X57483200Y-26964100D01*
X57640300Y-27481700D01*
X57693300Y-28020000D01*
X57694100Y-28020000D01*
X57694100Y-28491300D01*
X57544100Y-28536800D01*
X57461600Y-28413400D01*
X57238400Y-28264200D01*
X56975000Y-28211800D01*
X56525000Y-28211800D01*
X56261600Y-28264200D01*
X56038300Y-28413400D01*
X55889200Y-28636600D01*
X55836800Y-28900000D01*
X55889200Y-29163400D01*
X56038300Y-29386700D01*
X56148100Y-29460000D01*
X56148100Y-29610000D01*
X56038300Y-29683400D01*
X55889200Y-29906600D01*
X55836800Y-30170000D01*
X55889200Y-30433400D01*
X56038300Y-30656600D01*
X56148100Y-30730000D01*
X56148100Y-30880000D01*
X56038300Y-30953400D01*
X55889200Y-31176600D01*
X55836800Y-31440000D01*
X55889200Y-31703400D01*
X56038300Y-31926700D01*
X56148100Y-32000000D01*
X56148100Y-32150000D01*
X56038300Y-32223400D01*
X55889200Y-32446600D01*
X55836800Y-32710000D01*
X55889200Y-32973400D01*
X56038300Y-33196700D01*
X56148100Y-33270000D01*
X56148100Y-33420000D01*
X56038300Y-33493400D01*
X55889200Y-33716600D01*
X55836800Y-33980000D01*
X55889200Y-34243400D01*
X56038300Y-34466700D01*
X56148100Y-34540000D01*
X56148100Y-34690000D01*
X56038300Y-34763400D01*
X55889200Y-34986600D01*
X55836800Y-35250000D01*
X55889200Y-35513400D01*
X56038300Y-35736700D01*
X56148100Y-35810000D01*
X56148100Y-35960000D01*
X56038300Y-36033400D01*
X55889200Y-36256700D01*
X55836800Y-36520000D01*
X55889200Y-36783400D01*
X56038300Y-37006700D01*
X56148100Y-37080000D01*
X56148100Y-37230000D01*
X56038300Y-37303400D01*
X55889200Y-37526600D01*
X55836800Y-37790000D01*
X55889200Y-38053400D01*
X56038300Y-38276700D01*
X56148100Y-38350000D01*
X56148100Y-38500000D01*
X56038300Y-38573400D01*
X55889200Y-38796600D01*
X55836800Y-39060000D01*
X55889200Y-39323400D01*
X56038300Y-39546700D01*
X56148100Y-39620000D01*
X56148100Y-39770000D01*
X56038300Y-39843400D01*
X55889200Y-40066700D01*
X55836800Y-40330000D01*
X55889200Y-40593400D01*
X56038300Y-40816700D01*
X56148100Y-40890000D01*
X56148100Y-41040000D01*
X56038300Y-41113400D01*
X55889200Y-41336600D01*
X55874800Y-41408900D01*
X55731200Y-41452400D01*
X55009500Y-40730700D01*
X55011600Y-40720300D01*
X54986400Y-40593500D01*
X54986800Y-40574300D01*
X55055700Y-40420500D01*
X55172200Y-40372200D01*
X55574500Y-39969900D01*
X55645800Y-39797700D01*
X55645800Y-35117900D01*
X55595400Y-34996100D01*
X55574500Y-34945700D01*
X55009500Y-34380700D01*
X55011600Y-34370300D01*
X54984400Y-34233700D01*
X54907000Y-34118000D01*
X54791300Y-34040600D01*
X54654700Y-34013400D01*
X54518200Y-34040600D01*
X54402400Y-34118000D01*
X54343500Y-34206100D01*
X54206700Y-34186300D01*
X54193500Y-34181100D01*
X54193500Y-33289500D01*
X54206700Y-33284200D01*
X54343500Y-33264600D01*
X54402400Y-33352600D01*
X54518200Y-33430000D01*
X54654700Y-33457200D01*
X54791300Y-33430000D01*
X54907000Y-33352600D01*
X54984400Y-33236800D01*
X55011600Y-33100300D01*
X54984400Y-32963700D01*
X54907000Y-32848000D01*
X54791300Y-32770600D01*
X54654700Y-32743400D01*
X54518200Y-32770600D01*
X54402400Y-32848000D01*
X54343500Y-32936000D01*
X54206700Y-32916400D01*
X54193500Y-32911100D01*
X54193500Y-32635900D01*
X54644300Y-32185100D01*
X54654700Y-32187200D01*
X54791300Y-32160000D01*
X54907000Y-32082600D01*
X54984400Y-31966900D01*
X55011600Y-31830300D01*
X54984400Y-31693700D01*
X54907000Y-31577900D01*
X54791300Y-31500600D01*
X54654700Y-31473400D01*
X54518200Y-31500600D01*
X54402400Y-31577900D01*
X54325000Y-31693700D01*
X54297900Y-31830300D01*
X54299900Y-31840700D01*
X54032100Y-32108500D01*
X53893500Y-32051100D01*
X53893500Y-31665900D01*
X54644300Y-30915100D01*
X54654700Y-30917100D01*
X54791300Y-30890000D01*
X54907000Y-30812600D01*
X54984400Y-30696900D01*
X55011600Y-30560300D01*
X54984400Y-30423700D01*
X54907000Y-30308000D01*
X54791300Y-30230600D01*
X54654700Y-30203400D01*
X54518200Y-30230600D01*
X54402400Y-30308000D01*
X54325000Y-30423700D01*
X54297900Y-30560300D01*
X54299900Y-30570700D01*
X53477800Y-31392800D01*
X53461400Y-31432400D01*
X53336600Y-31470200D01*
X53200100Y-31443100D01*
X53063500Y-31470200D01*
X52947700Y-31547600D01*
X52870400Y-31663400D01*
X52843200Y-31799900D01*
X52870400Y-31936500D01*
X52912800Y-31999900D01*
X52870400Y-32063400D01*
X52843200Y-32199900D01*
X52870400Y-32336500D01*
X52947700Y-32452300D01*
X53063500Y-32529600D01*
X53200100Y-32556800D01*
X53256400Y-32545600D01*
X53406500Y-32649600D01*
X53406500Y-34819900D01*
X53360600Y-34858300D01*
X53256400Y-34914300D01*
X53150100Y-34893100D01*
X53013500Y-34920300D01*
X52897700Y-34997600D01*
X52820300Y-35113400D01*
X52793200Y-35250000D01*
X52820300Y-35386500D01*
X52897700Y-35502300D01*
X53013500Y-35579700D01*
X53150100Y-35606800D01*
X53256400Y-35585700D01*
X53360600Y-35641600D01*
X53406500Y-35680000D01*
X53406500Y-37449100D01*
X52377800Y-38477800D01*
X52306500Y-38650000D01*
X52306500Y-39599200D01*
X52027800Y-39877800D01*
X51879900Y-39899200D01*
X51836500Y-39870300D01*
X51700000Y-39843200D01*
X51563400Y-39870300D01*
X51450000Y-39946100D01*
X51336500Y-39870300D01*
X51200000Y-39843200D01*
X51063400Y-39870300D01*
X50950000Y-39946100D01*
X50836500Y-39870300D01*
X50700000Y-39843200D01*
X50563400Y-39870300D01*
X50450000Y-39946100D01*
X50336500Y-39870300D01*
X50200000Y-39843200D01*
X50063400Y-39870300D01*
X49950000Y-39946100D01*
X49836600Y-39870300D01*
X49700000Y-39843200D01*
X49563400Y-39870300D01*
X49450900Y-39945500D01*
X49447100Y-39947600D01*
X49276500Y-39933900D01*
X49252300Y-39897700D01*
X49136500Y-39820300D01*
X49000000Y-39793200D01*
X48863400Y-39820300D01*
X48747700Y-39897700D01*
X48707800Y-39957300D01*
X48557800Y-39911800D01*
X48557800Y-39443900D01*
X49251340Y-38750400D01*
X50693200Y-38750400D01*
X50720300Y-38886500D01*
X50797700Y-39002300D01*
X50913500Y-39079600D01*
X51050000Y-39106800D01*
X51186600Y-39079600D01*
X51302300Y-39002300D01*
X51379700Y-38886500D01*
X51406900Y-38749900D01*
X51379700Y-38613300D01*
X51302300Y-38497600D01*
X51186600Y-38420200D01*
X51050000Y-38393100D01*
X50913500Y-38420200D01*
X50797700Y-38497600D01*
X50720300Y-38613300D01*
X50693200Y-38749400D01*
X49252340Y-38749400D01*
X50151290Y-37850500D01*
X50693200Y-37850500D01*
X50720300Y-37986500D01*
X50797700Y-38102300D01*
X50913500Y-38179700D01*
X51050000Y-38206800D01*
X51186600Y-38179700D01*
X51302300Y-38102300D01*
X51379700Y-37986500D01*
X51406900Y-37850000D01*
X51379700Y-37713400D01*
X51302300Y-37597700D01*
X51186600Y-37520300D01*
X51050000Y-37493100D01*
X50913500Y-37520300D01*
X50797700Y-37597700D01*
X50720300Y-37713400D01*
X50693200Y-37849500D01*
X50152290Y-37849500D01*
X50338400Y-37663400D01*
X50426800Y-37531100D01*
X50431900Y-37505200D01*
X50457800Y-37375000D01*
X50457800Y-36950500D01*
X50693200Y-36950500D01*
X50720300Y-37086500D01*
X50797700Y-37202300D01*
X50913500Y-37279700D01*
X51050000Y-37306900D01*
X51186600Y-37279700D01*
X51302300Y-37202300D01*
X51379700Y-37086500D01*
X51406900Y-36950000D01*
X51379700Y-36813400D01*
X51302300Y-36697700D01*
X51186600Y-36620300D01*
X51050000Y-36593100D01*
X50913500Y-36620300D01*
X50797700Y-36697700D01*
X50720300Y-36813400D01*
X50693200Y-36949500D01*
X50457800Y-36949500D01*
X50457800Y-33350400D01*
X51393300Y-33350400D01*
X51420400Y-33486500D01*
X51497700Y-33602300D01*
X51613500Y-33679600D01*
X51750100Y-33706800D01*
X51886600Y-33679600D01*
X51950100Y-33637200D01*
X52013500Y-33679600D01*
X52150100Y-33706800D01*
X52286600Y-33679600D01*
X52402400Y-33602300D01*
X52479800Y-33486500D01*
X52506900Y-33349900D01*
X52479800Y-33213400D01*
X52402400Y-33097600D01*
X52286600Y-33020200D01*
X52150100Y-32993100D01*
X52013500Y-33020200D01*
X51950100Y-33062600D01*
X51886600Y-33020200D01*
X51750100Y-32993100D01*
X51613500Y-33020200D01*
X51497700Y-33097600D01*
X51420400Y-33213400D01*
X51393300Y-33349400D01*
X50457800Y-33349400D01*
X50457800Y-33050000D01*
X50431900Y-32919800D01*
X50426800Y-32894000D01*
X50338400Y-32761600D01*
X46948500Y-29371700D01*
X46962700Y-29300000D01*
X46960870Y-29290800D01*
X54298000Y-29290800D01*
X54325000Y-29426800D01*
X54402400Y-29542600D01*
X54518200Y-29620000D01*
X54654700Y-29647200D01*
X54791300Y-29620000D01*
X54907000Y-29542600D01*
X54984400Y-29426800D01*
X55011600Y-29290300D01*
X54984400Y-29153700D01*
X54907000Y-29038000D01*
X54791300Y-28960600D01*
X54654700Y-28933400D01*
X54518200Y-28960600D01*
X54402400Y-29038000D01*
X54325000Y-29153700D01*
X54298000Y-29289800D01*
X46960670Y-29289800D01*
X46912300Y-29046400D01*
X46768600Y-28831400D01*
X46553600Y-28687700D01*
X46300000Y-28637300D01*
X46046400Y-28687700D01*
X45831400Y-28831400D01*
X45815200Y-28855600D01*
X45410200Y-28855600D01*
X45246800Y-28692100D01*
X45114400Y-28603700D01*
X44958400Y-28572700D01*
X44802300Y-28603700D01*
X44670000Y-28692100D01*
X44581600Y-28824500D01*
X44550500Y-28980500D01*
X44581600Y-29136600D01*
X44670000Y-29268900D01*
X44690890Y-29289800D01*
X40699200Y-29289800D01*
X40699200Y-28816200D01*
X40849200Y-28736000D01*
X40861900Y-28744500D01*
X40998500Y-28771700D01*
X41135100Y-28744500D01*
X41250900Y-28667100D01*
X41328200Y-28551400D01*
X41355400Y-28414800D01*
X41328200Y-28278300D01*
X41250900Y-28162500D01*
X41135100Y-28085100D01*
X40998500Y-28058000D01*
X40976600Y-28062300D01*
X40902700Y-27924100D01*
X41144200Y-27682600D01*
X41282400Y-27756500D01*
X41278000Y-27778400D01*
X41305200Y-27915000D01*
X41382600Y-28030800D01*
X41498400Y-28108100D01*
X41634900Y-28135300D01*
X41771500Y-28108100D01*
X41887200Y-28030800D01*
X41964600Y-27915000D01*
X41991800Y-27778400D01*
X41964600Y-27641800D01*
X41887200Y-27526100D01*
X41771500Y-27448700D01*
X41634900Y-27421500D01*
X41613000Y-27425900D01*
X41539100Y-27287700D01*
X41876800Y-26950000D01*
X42423100Y-26950000D01*
X42513900Y-27040800D01*
X42629700Y-27118100D01*
X42766300Y-27145300D01*
X42902800Y-27118100D01*
X43018600Y-27040800D01*
X43079290Y-26950000D01*
X45811740Y-26950000D01*
X45885400Y-27060200D01*
X46001200Y-27137500D01*
X46137700Y-27164700D01*
X46274300Y-27137500D01*
X46390100Y-27060200D01*
X46463660Y-26950000D01*
X48295500Y-26950000D01*
X48330400Y-27125100D01*
X48429800Y-27273900D01*
X48578700Y-27373400D01*
X48754200Y-27408300D01*
X48929800Y-27373400D01*
X49078700Y-27273900D01*
X49178100Y-27125100D01*
X49213100Y-26949500D01*
X49178100Y-26773900D01*
X49078700Y-26625100D01*
X48929800Y-26525600D01*
X48754200Y-26490700D01*
X48578700Y-26525600D01*
X48429800Y-26625100D01*
X48330400Y-26773900D01*
X48295500Y-26949000D01*
X46464330Y-26949000D01*
X46467400Y-26944400D01*
X46494000Y-26810600D01*
X46627800Y-26784000D01*
X46743600Y-26706600D01*
X46821000Y-26590900D01*
X46847600Y-26457100D01*
X46981400Y-26430500D01*
X47097200Y-26353100D01*
X47174500Y-26237300D01*
X47201100Y-26103500D01*
X47335000Y-26076900D01*
X47450700Y-25999500D01*
X47528100Y-25883800D01*
X47554700Y-25749900D01*
X47688500Y-25723300D01*
X47804300Y-25646000D01*
X47881700Y-25530200D01*
X47891100Y-25482800D01*
X48015400Y-25393600D01*
X48450000Y-25393600D01*
X48622200Y-25322200D01*
X48750900Y-25193500D01*
X50209300Y-25193500D01*
X50316300Y-25343500D01*
X50306300Y-25393600D01*
X50333500Y-25530200D01*
X50410900Y-25646000D01*
X50526600Y-25723300D01*
X50663200Y-25750500D01*
X50799800Y-25723300D01*
X50844300Y-25693500D01*
X51703100Y-25693500D01*
X51871600Y-25862100D01*
X51869600Y-25872500D01*
X51896700Y-26009000D01*
X51961900Y-26106500D01*
X51940900Y-26184700D01*
X51901200Y-26256500D01*
X51250000Y-26256500D01*
X51077800Y-26327800D01*
X50027800Y-27377800D01*
X49956500Y-27550000D01*
X49956500Y-28041700D01*
X49867200Y-28165700D01*
X49819500Y-28175200D01*
X49703800Y-28252600D01*
X49626400Y-28368300D01*
X49599300Y-28504900D01*
X49626400Y-28641500D01*
X49703800Y-28757300D01*
X49819500Y-28834600D01*
X49956100Y-28861800D01*
X50092700Y-28834600D01*
X50208400Y-28757300D01*
X50285800Y-28641500D01*
X50312400Y-28507700D01*
X50446200Y-28481000D01*
X50562000Y-28403700D01*
X50639300Y-28287900D01*
X50666000Y-28154100D01*
X50799800Y-28127500D01*
X50915600Y-28050100D01*
X50992900Y-27934400D01*
X51019500Y-27800600D01*
X51153300Y-27773900D01*
X51269100Y-27696600D01*
X51346500Y-27580800D01*
X51373600Y-27444200D01*
X51371600Y-27433900D01*
X51654400Y-27151000D01*
X51792700Y-27224900D01*
X51791200Y-27232100D01*
X51818400Y-27368700D01*
X51895800Y-27484400D01*
X52011500Y-27561800D01*
X52148100Y-27589000D01*
X52284700Y-27561800D01*
X52400500Y-27484400D01*
X52471500Y-27378100D01*
X52483800Y-27367300D01*
X52637900Y-27332400D01*
X53146300Y-27840700D01*
X53196700Y-27861600D01*
X53243500Y-27881000D01*
X53270100Y-27920800D01*
X53385900Y-27998200D01*
X53522500Y-28025400D01*
X53659000Y-27998200D01*
X53774800Y-27920800D01*
X53852200Y-27805100D01*
X53879300Y-27668500D01*
X53852200Y-27532000D01*
X53774800Y-27416200D01*
X53659000Y-27338800D01*
X53522500Y-27311600D01*
X53385900Y-27338800D01*
X53354300Y-27359900D01*
X53249800Y-27255400D01*
X53253800Y-27198900D01*
X53288400Y-27081900D01*
X53376800Y-27022800D01*
X53454100Y-26907000D01*
X53481300Y-26770500D01*
X53454100Y-26633900D01*
X53376800Y-26518200D01*
X53261000Y-26440800D01*
X53124500Y-26413600D01*
X53114100Y-26415700D01*
X53026200Y-26327800D01*
X52854000Y-26256500D01*
X52551700Y-26256500D01*
X52511900Y-26184700D01*
X52491000Y-26106500D01*
X52556100Y-26009000D01*
X52583300Y-25872500D01*
X52556100Y-25735900D01*
X52478800Y-25620100D01*
X52363000Y-25542800D01*
X52226400Y-25515600D01*
X52216000Y-25517700D01*
X51976200Y-25277800D01*
X51804000Y-25206500D01*
X51761000Y-25206500D01*
X51668900Y-25056500D01*
X51685300Y-24974400D01*
X51658100Y-24837900D01*
X51580700Y-24722100D01*
X51465000Y-24644700D01*
X51328400Y-24617600D01*
X51191800Y-24644700D01*
X51099400Y-24706500D01*
X50340700Y-24706500D01*
X50283300Y-24567900D01*
X50420000Y-24431200D01*
X50430400Y-24433300D01*
X50566900Y-24406100D01*
X50682700Y-24328700D01*
X50760100Y-24213000D01*
X50787200Y-24076400D01*
X50760100Y-23939800D01*
X50682700Y-23824100D01*
X50566900Y-23746700D01*
X50430400Y-23719500D01*
X50293800Y-23746700D01*
X50178000Y-23824100D01*
X50100700Y-23939800D01*
X50073500Y-24076400D01*
X50075600Y-24086800D01*
X49755900Y-24406500D01*
X48469900Y-24406500D01*
X48395600Y-24356800D01*
X48259100Y-24329700D01*
X48122500Y-24356800D01*
X48006700Y-24434200D01*
X47929400Y-24550000D01*
X47902700Y-24683800D01*
X47769000Y-24710400D01*
X47653200Y-24787800D01*
X47575800Y-24903500D01*
X47549200Y-25037300D01*
X47415400Y-25064000D01*
X47299600Y-25141300D01*
X47222300Y-25257100D01*
X47195600Y-25390900D01*
X47061800Y-25417500D01*
X46946000Y-25494900D01*
X46885700Y-25585100D01*
X46772600Y-25619200D01*
X46713000Y-25624500D01*
X46178500Y-25090000D01*
X46182000Y-25035100D01*
X46216800Y-24916200D01*
X46304200Y-24857800D01*
X46381600Y-24742000D01*
X46408200Y-24608200D01*
X46542000Y-24581600D01*
X46657700Y-24504200D01*
X46735100Y-24388400D01*
X46761700Y-24254600D01*
X46895500Y-24228000D01*
X47011300Y-24150700D01*
X47088700Y-24034900D01*
X47115300Y-23901100D01*
X47249100Y-23874500D01*
X47364800Y-23797100D01*
X47442200Y-23681300D01*
X47469400Y-23544800D01*
X47467300Y-23534400D01*
X47750200Y-23251500D01*
X47888400Y-23325400D01*
X47887000Y-23332600D01*
X47914200Y-23469200D01*
X47991500Y-23585000D01*
X48107300Y-23662300D01*
X48243800Y-23689500D01*
X48380400Y-23662300D01*
X48496200Y-23585000D01*
X48573500Y-23469200D01*
X48600700Y-23332600D01*
X48573500Y-23196000D01*
X48571900Y-23193500D01*
X48652000Y-23043500D01*
X49053100Y-23043500D01*
X49177600Y-23168000D01*
X49175500Y-23178400D01*
X49202700Y-23314900D01*
X49280000Y-23430700D01*
X49395800Y-23508100D01*
X49532300Y-23535200D01*
X49668900Y-23508100D01*
X49784700Y-23430700D01*
X49862000Y-23314900D01*
X49889200Y-23178400D01*
X49862000Y-23041800D01*
X49784700Y-22926100D01*
X49668900Y-22848700D01*
X49532300Y-22821500D01*
X49522000Y-22823600D01*
X49326200Y-22627800D01*
X49154000Y-22556500D01*
X49051200Y-22556500D01*
X48966700Y-22421300D01*
X48966100Y-22406500D01*
X48991200Y-22280400D01*
X48964000Y-22143800D01*
X48886700Y-22028000D01*
X48770900Y-21950700D01*
X48634300Y-21923500D01*
X48497800Y-21950700D01*
X48382000Y-22028000D01*
X48376100Y-22036800D01*
X48053600Y-22036800D01*
X47957600Y-21886800D01*
X47993500Y-21800000D01*
X47993500Y-21708200D01*
X48002300Y-21702400D01*
X48079700Y-21586600D01*
X48106800Y-21450000D01*
X48079700Y-21313400D01*
X48002300Y-21197700D01*
X47886500Y-21120300D01*
X47750000Y-21093200D01*
X47706800Y-21050000D01*
X47679700Y-20913500D01*
X47602300Y-20797700D01*
X47486500Y-20720300D01*
X47350000Y-20693100D01*
X47213400Y-20720300D01*
X47097700Y-20797700D01*
X47020300Y-20913500D01*
X46993100Y-21050000D01*
X46995200Y-21060400D01*
X46891800Y-21163700D01*
X46759000Y-21137300D01*
X46622400Y-21164500D01*
X46506600Y-21241800D01*
X46429300Y-21357600D01*
X46402100Y-21494100D01*
X46429300Y-21630700D01*
X46506600Y-21746500D01*
X46622400Y-21823900D01*
X46759000Y-21851000D01*
X46895500Y-21823900D01*
X47011300Y-21746500D01*
X47059800Y-21673900D01*
X47078100Y-21666400D01*
X47249200Y-21495200D01*
X47411900Y-21544600D01*
X47420300Y-21586600D01*
X47497700Y-21702400D01*
X47498100Y-21707500D01*
X45777800Y-23427800D01*
X45706500Y-23600000D01*
X45706500Y-24405800D01*
X45556500Y-24468000D01*
X44725500Y-23637000D01*
X44799400Y-23498700D01*
X44850000Y-23508800D01*
X45025600Y-23473900D01*
X45174400Y-23374400D01*
X45273900Y-23225600D01*
X45308800Y-23050000D01*
X45273900Y-22874400D01*
X45174400Y-22725600D01*
X45025600Y-22626100D01*
X44850000Y-22591200D01*
X44674400Y-22626100D01*
X44525600Y-22725600D01*
X44426100Y-22874400D01*
X44391200Y-23050000D01*
X44401200Y-23100600D01*
X44263000Y-23174500D01*
X43432000Y-22343500D01*
X43494200Y-22193500D01*
X44450000Y-22193500D01*
X44622200Y-22122200D01*
X46308200Y-20436200D01*
X46355600Y-20467900D01*
X46492200Y-20495100D01*
X46628800Y-20467900D01*
X46744500Y-20390600D01*
X46821900Y-20274800D01*
X46849000Y-20138200D01*
X46821900Y-20001600D01*
X46744500Y-19885900D01*
X46628800Y-19808500D01*
X46492200Y-19781400D01*
X46443500Y-19791000D01*
X46293500Y-19683300D01*
X46293500Y-19100000D01*
X46222200Y-18927800D01*
X45464400Y-18170000D01*
X45292100Y-18098600D01*
X44954300Y-18098600D01*
X44948500Y-18089800D01*
X44832700Y-18012500D01*
X44696100Y-17985300D01*
X44559600Y-18012500D01*
X44443800Y-18089800D01*
X44366500Y-18205600D01*
X44339300Y-18342200D01*
X44366500Y-18478700D01*
X44443800Y-18594500D01*
X44559600Y-18671900D01*
X44696100Y-18699000D01*
X44832700Y-18671900D01*
X44948500Y-18594500D01*
X44954300Y-18585700D01*
X45191300Y-18585700D01*
X45388500Y-18782900D01*
X45365500Y-18972000D01*
X45341800Y-18987900D01*
X45264500Y-19103600D01*
X45237300Y-19240200D01*
X45264500Y-19376700D01*
X45341800Y-19492500D01*
X45350600Y-19498400D01*
X45350600Y-19805000D01*
X44619700Y-20535900D01*
X44607100Y-20534700D01*
X44491400Y-20457400D01*
X44354800Y-20430200D01*
X44218200Y-20457400D01*
X44102500Y-20534700D01*
X44025100Y-20650500D01*
X43998500Y-20784300D01*
X43864700Y-20810900D01*
X43748900Y-20888300D01*
X43671600Y-21004000D01*
X43644900Y-21137800D01*
X43511100Y-21164500D01*
X43395400Y-21241800D01*
X43318000Y-21357600D01*
X43291400Y-21491400D01*
X43157600Y-21518000D01*
X43041800Y-21595400D01*
X42983400Y-21682800D01*
X42864500Y-21717500D01*
X42809500Y-21721000D01*
X42278700Y-21190200D01*
X42282300Y-21135300D01*
X42317000Y-21016400D01*
X42404400Y-20958000D01*
X42481800Y-20842200D01*
X42508400Y-20708400D01*
X42642200Y-20681800D01*
X42758000Y-20604400D01*
X42835300Y-20488700D01*
X42861900Y-20354900D01*
X42995700Y-20328200D01*
X43111500Y-20250900D01*
X43188900Y-20135100D01*
X43215500Y-20001300D01*
X43349300Y-19974700D01*
X43465100Y-19897300D01*
X43542400Y-19781600D01*
X43569600Y-19645000D01*
X43542400Y-19508400D01*
X43492290Y-19433400D01*
X43987300Y-19433400D01*
X44014400Y-19569400D01*
X44091700Y-19685200D01*
X44207500Y-19762500D01*
X44344100Y-19789700D01*
X44480600Y-19762500D01*
X44596400Y-19685200D01*
X44673700Y-19569400D01*
X44700900Y-19432900D01*
X44673700Y-19296300D01*
X44596400Y-19180500D01*
X44480600Y-19103100D01*
X44344100Y-19076000D01*
X44207500Y-19103100D01*
X44091700Y-19180500D01*
X44014400Y-19296300D01*
X43987300Y-19432400D01*
X43491620Y-19432400D01*
X43465100Y-19392700D01*
X43456300Y-19386800D01*
X43456300Y-18130400D01*
X43787700Y-17798900D01*
X43798100Y-17801000D01*
X43934700Y-17773800D01*
X44050400Y-17696500D01*
X44127800Y-17580700D01*
X44155000Y-17444200D01*
X44127800Y-17307600D01*
X44050400Y-17191800D01*
X43934700Y-17114400D01*
X43798100Y-17087300D01*
X43661500Y-17114400D01*
X43545800Y-17191800D01*
X43468400Y-17307600D01*
X43443900Y-17430800D01*
X43331600Y-17515700D01*
X43190800Y-17467400D01*
X43188900Y-17457800D01*
X43143600Y-17390100D01*
X43143600Y-16804300D01*
X43152400Y-16798500D01*
X43229800Y-16682700D01*
X43256900Y-16546100D01*
X43229800Y-16409500D01*
X43152400Y-16293800D01*
X43036700Y-16216400D01*
X42900100Y-16189300D01*
X42763500Y-16216400D01*
X42647700Y-16293800D01*
X42593500Y-16374900D01*
X42443500Y-16337000D01*
X42443500Y-15846000D01*
X42393100Y-15724300D01*
X42372200Y-15673800D01*
X42356800Y-15658500D01*
X42358900Y-15648100D01*
X42331700Y-15511500D01*
X42254400Y-15395800D01*
X42138600Y-15318400D01*
X42002000Y-15291200D01*
X41943500Y-15302900D01*
X41798400Y-15203200D01*
X41791700Y-15191800D01*
X41722200Y-15023800D01*
X41458800Y-14760400D01*
X41460900Y-14750100D01*
X41433700Y-14613500D01*
X41356400Y-14497700D01*
X41240600Y-14420400D01*
X41104000Y-14393200D01*
X40967500Y-14420400D01*
X40851700Y-14497700D01*
X40774300Y-14613500D01*
X40747200Y-14750100D01*
X40774300Y-14886600D01*
X40851700Y-15002400D01*
X40967500Y-15079800D01*
X41104000Y-15106900D01*
X41114400Y-15104900D01*
X41306500Y-15296900D01*
X41306500Y-15800000D01*
X41377800Y-15972200D01*
X41656500Y-16250900D01*
X41656500Y-19432400D01*
X41342870Y-19432400D01*
X41400000Y-19346900D01*
X41434900Y-19171300D01*
X41400000Y-18995700D01*
X41300500Y-18846900D01*
X41151600Y-18747400D01*
X40976100Y-18712500D01*
X40800500Y-18747400D01*
X40651600Y-18846900D01*
X40552200Y-18995700D01*
X40517300Y-19171300D01*
X40528500Y-19227900D01*
X40390300Y-19301800D01*
X39521000Y-18432500D01*
X39524500Y-18377600D01*
X39559300Y-18258700D01*
X39646700Y-18200300D01*
X39724100Y-18084500D01*
X39750700Y-17950700D01*
X39884500Y-17924100D01*
X40000200Y-17846700D01*
X40077600Y-17731000D01*
X40104200Y-17597100D01*
X40238000Y-17570500D01*
X40353800Y-17493200D01*
X40431200Y-17377400D01*
X40457800Y-17243600D01*
X40591600Y-17217000D01*
X40707300Y-17139600D01*
X40784700Y-17023800D01*
X40811900Y-16887300D01*
X40784700Y-16750700D01*
X40707300Y-16634900D01*
X40591600Y-16557600D01*
X40493500Y-16538100D01*
X40493500Y-14051700D01*
X40535700Y-13988600D01*
X40562900Y-13852100D01*
X40535700Y-13715500D01*
X40458300Y-13599700D01*
X40342600Y-13522300D01*
X40206000Y-13495200D01*
X40069400Y-13522300D01*
X39953700Y-13599700D01*
X39934700Y-13628100D01*
X39747400Y-13653000D01*
X39551500Y-13457100D01*
X39551500Y-13212200D01*
X39560300Y-13206400D01*
X39637700Y-13090600D01*
X39664800Y-12954000D01*
X39637700Y-12817400D01*
X39560300Y-12701700D01*
X39444500Y-12624300D01*
X39308000Y-12597100D01*
X39243500Y-12610000D01*
X39093500Y-12509700D01*
X39093500Y-12496000D01*
X39022200Y-12323800D01*
X38764700Y-12066400D01*
X38766800Y-12056000D01*
X38739700Y-11919400D01*
X38662300Y-11803600D01*
X38546500Y-11726300D01*
X38409900Y-11699100D01*
X38273400Y-11726300D01*
X38205900Y-11771400D01*
X38058700Y-11707700D01*
X38055900Y-11705000D01*
X38055900Y-10032700D01*
X38205900Y-9987300D01*
X38226200Y-10017800D01*
X38449500Y-10167000D01*
X38712900Y-10219300D01*
X38842400Y-10193600D01*
X38948500Y-10299700D01*
X38922700Y-10429100D01*
X38975100Y-10692500D01*
X39124300Y-10915800D01*
X39347500Y-11065000D01*
X39610900Y-11117400D01*
X39740400Y-11091600D01*
X39846500Y-11197700D01*
X39820700Y-11327100D01*
X39873100Y-11590500D01*
X40022300Y-11813800D01*
X40245600Y-11963000D01*
X40508900Y-12015400D01*
X40638400Y-11989600D01*
X40744500Y-12095700D01*
X40718800Y-12225200D01*
X40771100Y-12488600D01*
X40920300Y-12711800D01*
X41143600Y-12861000D01*
X41407000Y-12913400D01*
X41536500Y-12887700D01*
X41642500Y-12993700D01*
X41616800Y-13123200D01*
X41669200Y-13386600D01*
X41818400Y-13609900D01*
X42041600Y-13759100D01*
X42305000Y-13811400D01*
X42434500Y-13785700D01*
X42540600Y-13891800D01*
X42514800Y-14021200D01*
X42567200Y-14284600D01*
X42716400Y-14507900D01*
X42939600Y-14657100D01*
X43203000Y-14709500D01*
X43332500Y-14683700D01*
X43438600Y-14789800D01*
G37*
%TD.AperFunction*%
%TD*%
M02*
