%TF.GenerationSoftware,KiCad,Pcbnew,7.0.11+dfsg-1build4*%
%TF.CreationDate,2026-10-01T15:00:52+10:00*%
%TF.ProjectId,Reid_Orthotic_v2_RHS,52656964-5f4f-4727-9468-6f7469635f76,R4*%
%TF.SameCoordinates,Original*%
%TF.FileFunction,Copper,L3,Inr*%
%TF.FilePolarity,Positive*%
%FSLAX46Y46*%
G04 Gerber Fmt 4.6, Leading zero omitted, Abs format (unit mm)*
G04 Created by KiCad (PCBNEW 7.0.11+dfsg-1build4) date 2026-10-01 15:00:52*
%MOMM*%
%LPD*%
G01*
G04 APERTURE LIST*
G04 Aperture macros list*
%AMHorizOval*
0 Thick line with rounded ends*
0 $1 width*
0 $2 $3 position (X,Y) of the first rounded end (center of the circle)*
0 $4 $5 position (X,Y) of the second rounded end (center of the circle)*
0 Add line between two ends*
20,1,$1,$2,$3,$4,$5,0*
0 Add two circle primitives to create the rounded ends*
1,1,$1,$2,$3*
1,1,$1,$4,$5*%
G04 Aperture macros list end*
%TA.AperFunction,ComponentPad*%
%ADD10O,1.500000X1.050000*%
%TD*%
%TA.AperFunction,ComponentPad*%
%ADD11HorizOval,1.050000X0.159099X0.159099X-0.159099X-0.159099X0*%
%TD*%
%TA.AperFunction,ViaPad*%
%ADD12C,0.400000*%
%TD*%
%TA.AperFunction,Conductor*%
%ADD13C,0.400000*%
%TD*%
G04 APERTURE END LIST*
D10*
%TO.N,0V*%
%TO.C,J2*%
X56750000Y-53030000D03*
X56750000Y-47950000D03*
%TD*%
D11*
%TO.N,0V*%
%TO.C,J1*%
X48750302Y-19250302D03*
%TD*%
D12*
%TO.N,0V*%
X55600000Y-53500000D03*
X56250000Y-27656800D03*
X56650000Y-27550000D03*
%TO.N,MUX_VCC*%
X53200100Y-31799900D03*
X53200100Y-32199900D03*
%TO.N,3V3*%
X52150100Y-33349900D03*
X51750100Y-33349900D03*
%TO.N,VBAT_F*%
X42467800Y-32464200D03*
X42750600Y-32181400D03*
%TD*%
D13*
%TO.N,0V*%
X56250000Y-27656800D02*
X56650000Y-27550000D01*
X55600000Y-27830200D02*
X56250000Y-27656800D01*
X48450000Y-20680200D02*
X48450000Y-19550600D01*
X55600000Y-47950000D02*
X56750000Y-47950000D01*
X55600000Y-47950000D02*
X55600000Y-27830200D01*
X48450000Y-20680200D02*
X55600000Y-27830200D01*
X55600000Y-53030000D02*
X55600000Y-47950000D01*
X55600000Y-53030000D02*
X56750000Y-53030000D01*
X55600000Y-53500000D02*
X55600000Y-53030000D01*
%TD*%
%TA.AperFunction,Conductor*%
%TO.N,3V3*%
G36*
X37205900Y-36229400D02*
G01*
X37176560Y-36220500D01*
X37211850Y-36220500D01*
X37205900Y-36229400D01*
G37*
%TD.AperFunction*%
%TA.AperFunction,Conductor*%
G36*
X38680300Y-36356600D02*
G01*
X38757700Y-36472400D01*
X38873400Y-36549700D01*
X38912900Y-36557600D01*
X38912900Y-36710500D01*
X38863400Y-36720300D01*
X38747700Y-36797700D01*
X38670300Y-36913500D01*
X38643200Y-37049500D01*
X38319850Y-37049500D01*
X38294200Y-36940500D01*
X38352300Y-36853600D01*
X38402700Y-36600000D01*
X38352300Y-36346400D01*
X38268150Y-36220500D01*
X38653200Y-36220500D01*
X38680300Y-36356600D01*
G37*
%TD.AperFunction*%
%TA.AperFunction,Conductor*%
G36*
X37436600Y-27770300D02*
G01*
X37300000Y-27743200D01*
X37205900Y-27761900D01*
X37099300Y-27700500D01*
X38593200Y-27700500D01*
X38608610Y-27777900D01*
X37447960Y-27777900D01*
X37436600Y-27770300D01*
G37*
%TD.AperFunction*%
%TA.AperFunction,Conductor*%
G36*
X40179700Y-47713500D02*
G01*
X40171010Y-47700500D01*
X40220050Y-47700500D01*
X40179700Y-47713500D01*
G37*
%TD.AperFunction*%
%TA.AperFunction,Conductor*%
G36*
X37579700Y-42836600D02*
G01*
X37606800Y-42700000D01*
X37579700Y-42563400D01*
X37518500Y-42471900D01*
X37503800Y-42375000D01*
X37518500Y-42278100D01*
X37570400Y-42200500D01*
X38343200Y-42200500D01*
X38370300Y-42336600D01*
X38447700Y-42452400D01*
X38563400Y-42529700D01*
X38700000Y-42556900D01*
X38836500Y-42529700D01*
X38952300Y-42452400D01*
X39012500Y-42362300D01*
X39118000Y-42363000D01*
X39168600Y-42378100D01*
X39170300Y-42386600D01*
X39247700Y-42502300D01*
X39349200Y-42570200D01*
X39356800Y-42650000D01*
X39349200Y-42729800D01*
X39247700Y-42797700D01*
X39179660Y-42899500D01*
X37537660Y-42899500D01*
X37579700Y-42836600D01*
G37*
%TD.AperFunction*%
%TA.AperFunction,Conductor*%
G36*
X37055900Y-41150500D02*
G01*
X38943200Y-41150500D01*
X38952960Y-41199500D01*
X37055900Y-41199500D01*
X37055900Y-41150500D01*
G37*
%TD.AperFunction*%
%TA.AperFunction,Conductor*%
G36*
X40797600Y-46852400D02*
G01*
X40889800Y-46913900D01*
X40946300Y-47005400D01*
X40970300Y-47063400D01*
X40952900Y-47151000D01*
X40835100Y-47219900D01*
X40796500Y-47227000D01*
X40786600Y-47220300D01*
X40650000Y-47193200D01*
X40513400Y-47220300D01*
X40397600Y-47297700D01*
X40320300Y-47413500D01*
X40293100Y-47550000D01*
X40316900Y-47669300D01*
X40223160Y-47699500D01*
X40170340Y-47699500D01*
X40102300Y-47597700D01*
X39986500Y-47520300D01*
X39850000Y-47493200D01*
X39733200Y-47516400D01*
X39579700Y-47513400D01*
X39547200Y-47464700D01*
X39502300Y-47397600D01*
X39386600Y-47320300D01*
X39250000Y-47293100D01*
X39113500Y-47320300D01*
X38997700Y-47397600D01*
X38937500Y-47487800D01*
X38832200Y-47487100D01*
X38781400Y-47472000D01*
X38779700Y-47463500D01*
X38702300Y-47347700D01*
X38586500Y-47270300D01*
X38450000Y-47243200D01*
X38313400Y-47270300D01*
X38197700Y-47347700D01*
X38159400Y-47405000D01*
X37990600Y-47405000D01*
X37952300Y-47347700D01*
X37836500Y-47270300D01*
X37823000Y-47251400D01*
X37782800Y-47106700D01*
X37829700Y-47036600D01*
X37856800Y-46900000D01*
X37846980Y-46850500D01*
X40796330Y-46850500D01*
X40797600Y-46852400D01*
G37*
%TD.AperFunction*%
%TA.AperFunction,Conductor*%
G36*
X38620300Y-27563400D02*
G01*
X38593200Y-27699500D01*
X37097570Y-27699500D01*
X37055900Y-27675500D01*
X37055900Y-27500500D01*
X38662380Y-27500500D01*
X38620300Y-27563400D01*
G37*
%TD.AperFunction*%
%TA.AperFunction,Conductor*%
G36*
X39292100Y-27556100D02*
G01*
X39245440Y-27500500D01*
X39386320Y-27500500D01*
X39292100Y-27556100D01*
G37*
%TD.AperFunction*%
%TA.AperFunction,Conductor*%
G36*
X41382600Y-27526100D02*
G01*
X41305200Y-27641800D01*
X41278100Y-27777900D01*
X39898650Y-27777900D01*
X39878600Y-27677200D01*
X39801300Y-27561500D01*
X39710040Y-27500500D01*
X41420900Y-27500500D01*
X41382600Y-27526100D01*
G37*
%TD.AperFunction*%
%TA.AperFunction,Conductor*%
G36*
X42040200Y-27485000D02*
G01*
X42112900Y-27499500D01*
X42025250Y-27499500D01*
X42040200Y-27485000D01*
G37*
%TD.AperFunction*%
%TA.AperFunction,Conductor*%
G36*
X37993600Y-33957700D02*
G01*
X37957370Y-33950500D01*
X39643200Y-33950500D01*
X39670300Y-34086600D01*
X39678920Y-34099500D01*
X38205760Y-34099500D01*
X37993600Y-33957700D01*
G37*
%TD.AperFunction*%
%TA.AperFunction,Conductor*%
G36*
X37486400Y-35987700D02*
G01*
X37271400Y-36131400D01*
X37212520Y-36219500D01*
X37173260Y-36219500D01*
X37055900Y-36183900D01*
X37055900Y-35957900D01*
X37066010Y-35950500D01*
X37673580Y-35950500D01*
X37486400Y-35987700D01*
G37*
%TD.AperFunction*%
%TA.AperFunction,Conductor*%
G36*
X38757700Y-35967700D02*
G01*
X38680300Y-36083400D01*
X38653200Y-36219500D01*
X38267480Y-36219500D01*
X38208600Y-36131400D01*
X37993600Y-35987700D01*
X37806420Y-35950500D01*
X38783410Y-35950500D01*
X38757700Y-35967700D01*
G37*
%TD.AperFunction*%
%TA.AperFunction,Conductor*%
G36*
X40027600Y-35967700D02*
G01*
X39950300Y-36083400D01*
X39923200Y-36219500D01*
X39366800Y-36219500D01*
X39339700Y-36083400D01*
X39262300Y-35967700D01*
X39236570Y-35950500D01*
X40053330Y-35950500D01*
X40027600Y-35967700D01*
G37*
%TD.AperFunction*%
%TA.AperFunction,Conductor*%
G36*
X41297600Y-35967700D02*
G01*
X41220300Y-36083400D01*
X41193200Y-36219500D01*
X40636700Y-36219500D01*
X40609700Y-36083400D01*
X40532300Y-35967700D01*
X40506590Y-35950500D01*
X41323330Y-35950500D01*
X41297600Y-35967700D01*
G37*
%TD.AperFunction*%
%TA.AperFunction,Conductor*%
G36*
X41686600Y-35890300D02*
G01*
X41550000Y-35863200D01*
X41413400Y-35890300D01*
X41324830Y-35949500D01*
X40505090Y-35949500D01*
X40416600Y-35890300D01*
X40280000Y-35863200D01*
X40143400Y-35890300D01*
X40054830Y-35949500D01*
X39235070Y-35949500D01*
X39146500Y-35890300D01*
X39010000Y-35863200D01*
X38873400Y-35890300D01*
X38784910Y-35949500D01*
X37801390Y-35949500D01*
X37740000Y-35937300D01*
X37678610Y-35949500D01*
X37067380Y-35949500D01*
X37205900Y-35848100D01*
X37250000Y-35856900D01*
X37386500Y-35829700D01*
X37502300Y-35752300D01*
X37579700Y-35636600D01*
X37589840Y-35585500D01*
X42157400Y-35585500D01*
X42207700Y-35838600D01*
X42281820Y-35949500D01*
X41775090Y-35949500D01*
X41686600Y-35890300D01*
G37*
%TD.AperFunction*%
%TA.AperFunction,Conductor*%
G36*
X44097700Y-46197700D02*
G01*
X44020300Y-46313400D01*
X43993100Y-46450000D01*
X44020300Y-46586600D01*
X44063400Y-46720300D01*
X43947700Y-46797700D01*
X43870300Y-46913500D01*
X43843100Y-47050000D01*
X43855200Y-47110800D01*
X43870300Y-47186600D01*
X43751300Y-47278400D01*
X43647600Y-47347700D01*
X43570300Y-47463500D01*
X43543100Y-47600000D01*
X43557400Y-47671500D01*
X43453800Y-47795500D01*
X43441900Y-47801500D01*
X43400000Y-47793200D01*
X43263400Y-47820300D01*
X43147600Y-47897700D01*
X43070300Y-48013400D01*
X43043100Y-48150000D01*
X43070300Y-48286600D01*
X43108200Y-48343300D01*
X43077300Y-48398100D01*
X43009000Y-48464800D01*
X42900000Y-48443200D01*
X42763400Y-48470300D01*
X42647600Y-48547700D01*
X42570300Y-48663500D01*
X42543100Y-48800000D01*
X42553200Y-48850800D01*
X42508900Y-48969200D01*
X42442500Y-49004600D01*
X42363400Y-49020300D01*
X42247700Y-49097700D01*
X42170300Y-49213500D01*
X42166000Y-49235000D01*
X41997900Y-49311100D01*
X41698400Y-49138200D01*
X41683200Y-48956200D01*
X41729700Y-48886600D01*
X41756800Y-48750000D01*
X41729700Y-48613400D01*
X41652300Y-48497700D01*
X41536600Y-48420300D01*
X41400000Y-48393200D01*
X41263400Y-48420300D01*
X41237300Y-48351900D01*
X41229700Y-48313400D01*
X41152300Y-48197700D01*
X41036600Y-48120300D01*
X40900000Y-48093200D01*
X40895200Y-48094100D01*
X40837400Y-48065900D01*
X40784600Y-47905300D01*
X40810200Y-47863900D01*
X40902300Y-47802400D01*
X40970410Y-47700500D01*
X41743200Y-47700500D01*
X41770300Y-47836600D01*
X41847700Y-47952300D01*
X41963400Y-48029700D01*
X42100000Y-48056900D01*
X42236500Y-48029700D01*
X42352300Y-47952300D01*
X42429700Y-47836600D01*
X42456800Y-47700000D01*
X42429700Y-47563400D01*
X42352300Y-47447700D01*
X42236500Y-47370300D01*
X42100000Y-47343200D01*
X41963400Y-47370300D01*
X41847700Y-47447700D01*
X41770300Y-47563400D01*
X41743200Y-47699500D01*
X40971080Y-47699500D01*
X40979700Y-47686600D01*
X40997100Y-47599000D01*
X41114900Y-47530200D01*
X41153500Y-47523100D01*
X41163400Y-47529700D01*
X41300000Y-47556900D01*
X41436600Y-47529700D01*
X41552300Y-47452300D01*
X41629700Y-47336600D01*
X41656900Y-47200000D01*
X41629700Y-47063400D01*
X41552300Y-46947700D01*
X41460200Y-46886100D01*
X41438220Y-46850500D01*
X42393200Y-46850500D01*
X42420300Y-46986600D01*
X42497700Y-47102400D01*
X42613400Y-47179700D01*
X42750000Y-47206900D01*
X42886500Y-47179700D01*
X43002300Y-47102400D01*
X43079700Y-46986600D01*
X43106800Y-46850000D01*
X43079700Y-46713500D01*
X43002300Y-46597700D01*
X42886500Y-46520300D01*
X42750000Y-46493200D01*
X42613400Y-46520300D01*
X42497700Y-46597700D01*
X42420300Y-46713500D01*
X42393200Y-46849500D01*
X41437600Y-46849500D01*
X41403700Y-46794600D01*
X41379700Y-46736600D01*
X41406900Y-46600000D01*
X41379700Y-46463500D01*
X41302300Y-46347700D01*
X41186600Y-46270300D01*
X41050000Y-46243200D01*
X40913400Y-46270300D01*
X40797600Y-46347700D01*
X40720300Y-46463500D01*
X40693100Y-46600000D01*
X40720300Y-46736600D01*
X40795660Y-46849500D01*
X37846780Y-46849500D01*
X37829700Y-46763400D01*
X37752300Y-46647700D01*
X37636500Y-46570300D01*
X37623000Y-46551400D01*
X37582800Y-46406700D01*
X37629700Y-46336600D01*
X37656900Y-46200000D01*
X37647040Y-46150500D01*
X44168260Y-46150500D01*
X44097700Y-46197700D01*
G37*
%TD.AperFunction*%
%TA.AperFunction,Conductor*%
G36*
X38670300Y-37813400D02*
G01*
X38643200Y-37949500D01*
X37097570Y-37949500D01*
X37055900Y-37925500D01*
X37055900Y-37800500D01*
X38678930Y-37800500D01*
X38670300Y-37813400D01*
G37*
%TD.AperFunction*%
%TA.AperFunction,Conductor*%
G36*
X45120300Y-53386600D02*
G01*
X45197700Y-53502300D01*
X45255000Y-53540600D01*
X45255000Y-53709400D01*
X45197700Y-53747700D01*
X45120300Y-53863400D01*
X45093100Y-54000000D01*
X45094800Y-54008700D01*
X44995500Y-54134200D01*
X44904500Y-54134200D01*
X44805100Y-54008700D01*
X44806900Y-54000000D01*
X44779700Y-53863400D01*
X44702300Y-53747700D01*
X44702300Y-53652300D01*
X44779700Y-53536600D01*
X44806900Y-53400000D01*
X44779700Y-53263400D01*
X44771060Y-53250500D01*
X45093200Y-53250500D01*
X45120300Y-53386600D01*
G37*
%TD.AperFunction*%
%TA.AperFunction,Conductor*%
G36*
X44447200Y-48264800D02*
G01*
X44437630Y-48250500D01*
X44527860Y-48250500D01*
X44447200Y-48264800D01*
G37*
%TD.AperFunction*%
%TA.AperFunction,Conductor*%
G36*
X42420900Y-32044800D02*
G01*
X42406000Y-32119700D01*
X42331200Y-32134600D01*
X42215400Y-32211900D01*
X42138100Y-32327700D01*
X42111000Y-32463700D01*
X37611570Y-32463700D01*
X37629700Y-32436600D01*
X37656900Y-32300000D01*
X37629700Y-32163500D01*
X37552300Y-32047700D01*
X37456030Y-31983300D01*
X42462010Y-31983300D01*
X42420900Y-32044800D01*
G37*
%TD.AperFunction*%
%TA.AperFunction,Conductor*%
G36*
X44529700Y-50486600D02*
G01*
X44556900Y-50350000D01*
X44537070Y-50250500D01*
X45343200Y-50250500D01*
X45370300Y-50386600D01*
X45447700Y-50502300D01*
X45563400Y-50579700D01*
X45662840Y-50599500D01*
X44454240Y-50599500D01*
X44529700Y-50486600D01*
G37*
%TD.AperFunction*%
%TA.AperFunction,Conductor*%
G36*
X38429700Y-37263500D02*
G01*
X38352300Y-37147700D01*
X38341200Y-37140200D01*
X38320090Y-37050500D01*
X38643200Y-37050500D01*
X38670300Y-37186600D01*
X38747700Y-37302300D01*
X38818260Y-37349500D01*
X38446770Y-37349500D01*
X38429700Y-37263500D01*
G37*
%TD.AperFunction*%
%TA.AperFunction,Conductor*%
G36*
X42157400Y-35584500D02*
G01*
X37590040Y-35584500D01*
X37606700Y-35500500D01*
X42174090Y-35500500D01*
X42157400Y-35584500D01*
G37*
%TD.AperFunction*%
%TA.AperFunction,Conductor*%
G36*
X47729100Y-35588600D02*
G01*
X43481980Y-35588600D01*
X43482700Y-35585000D01*
X43465910Y-35500500D01*
X47746640Y-35500500D01*
X47729100Y-35588600D01*
G37*
%TD.AperFunction*%
%TA.AperFunction,Conductor*%
G36*
X47197100Y-31730500D02*
G01*
X47119800Y-31846300D01*
X47092700Y-31982300D01*
X43038530Y-31982300D01*
X43002900Y-31929000D01*
X42887100Y-31851700D01*
X42750600Y-31824500D01*
X42614000Y-31851700D01*
X42498300Y-31929000D01*
X42462670Y-31982300D01*
X37454540Y-31982300D01*
X37436600Y-31970300D01*
X37300000Y-31943100D01*
X37205900Y-31961900D01*
X37055900Y-31875500D01*
X37055900Y-31700500D01*
X47241980Y-31700500D01*
X47197100Y-31730500D01*
G37*
%TD.AperFunction*%
%TA.AperFunction,Conductor*%
G36*
X44270200Y-38700800D02*
G01*
X44350000Y-38693200D01*
X44429800Y-38700800D01*
X44462310Y-38749400D01*
X44237690Y-38749400D01*
X44270200Y-38700800D01*
G37*
%TD.AperFunction*%
%TA.AperFunction,Conductor*%
G36*
X43470200Y-38700800D02*
G01*
X43550000Y-38693200D01*
X43629800Y-38700800D01*
X43662260Y-38749400D01*
X43437690Y-38749400D01*
X43470200Y-38700800D01*
G37*
%TD.AperFunction*%
%TA.AperFunction,Conductor*%
G36*
X42670200Y-38700800D02*
G01*
X42750000Y-38693200D01*
X42829800Y-38700800D01*
X42862260Y-38749400D01*
X42637690Y-38749400D01*
X42670200Y-38700800D01*
G37*
%TD.AperFunction*%
%TA.AperFunction,Conductor*%
G36*
X38052400Y-38747700D02*
G01*
X37936600Y-38670300D01*
X37800000Y-38643200D01*
X37690900Y-38664900D01*
X37622900Y-38598300D01*
X37595870Y-38550500D01*
X41993200Y-38550500D01*
X42020300Y-38686600D01*
X42062310Y-38749400D01*
X38053540Y-38749400D01*
X38052400Y-38747700D01*
G37*
%TD.AperFunction*%
%TA.AperFunction,Conductor*%
G36*
X37205900Y-38688100D02*
G01*
X37300000Y-38706900D01*
X37409100Y-38685200D01*
X37474840Y-38749400D01*
X37099480Y-38749400D01*
X37205900Y-38688100D01*
G37*
%TD.AperFunction*%
%TA.AperFunction,Conductor*%
G36*
X42613400Y-37870300D02*
G01*
X42497700Y-37947700D01*
X42420300Y-38063400D01*
X42350000Y-38193100D01*
X42249200Y-38213200D01*
X42213400Y-38220300D01*
X42097700Y-38297700D01*
X42020300Y-38413500D01*
X41993200Y-38549500D01*
X37595310Y-38549500D01*
X37591800Y-38543300D01*
X37629700Y-38486600D01*
X37656900Y-38350000D01*
X37629700Y-38213400D01*
X37552300Y-38097700D01*
X37436600Y-38020300D01*
X37300000Y-37993200D01*
X37205900Y-38011900D01*
X37099300Y-37950500D01*
X38643200Y-37950500D01*
X38670300Y-38086600D01*
X38747700Y-38202400D01*
X38863400Y-38279700D01*
X39000000Y-38306900D01*
X39136500Y-38279700D01*
X39252300Y-38202400D01*
X39329700Y-38086600D01*
X39356800Y-37950000D01*
X39337060Y-37850500D01*
X42713200Y-37850500D01*
X42613400Y-37870300D01*
G37*
%TD.AperFunction*%
%TA.AperFunction,Conductor*%
G36*
X43413400Y-37870300D02*
G01*
X43297600Y-37947700D01*
X43229800Y-38049200D01*
X43150000Y-38056800D01*
X43070200Y-38049200D01*
X43002300Y-37947700D01*
X42886500Y-37870300D01*
X42786770Y-37850500D01*
X43512840Y-37850500D01*
X43413400Y-37870300D01*
G37*
%TD.AperFunction*%
%TA.AperFunction,Conductor*%
G36*
X45013400Y-37870300D02*
G01*
X44897600Y-37947700D01*
X44820300Y-38063400D01*
X44750000Y-38193100D01*
X44613400Y-38220300D01*
X44497700Y-38297700D01*
X44429800Y-38399200D01*
X44350000Y-38406800D01*
X44270200Y-38399200D01*
X44202300Y-38297700D01*
X44086500Y-38220300D01*
X43950000Y-38193100D01*
X43879700Y-38063400D01*
X43802300Y-37947700D01*
X43686600Y-37870300D01*
X43587160Y-37850500D01*
X45113200Y-37850500D01*
X45013400Y-37870300D01*
G37*
%TD.AperFunction*%
%TA.AperFunction,Conductor*%
G36*
X45150000Y-37843200D02*
G01*
X45118240Y-37849500D01*
X43582140Y-37849500D01*
X43550000Y-37843100D01*
X43517860Y-37849500D01*
X42781730Y-37849500D01*
X42750000Y-37843200D01*
X42718240Y-37849500D01*
X39336860Y-37849500D01*
X39329700Y-37813400D01*
X39321070Y-37800500D01*
X46743300Y-37800500D01*
X46753020Y-37849500D01*
X45181730Y-37849500D01*
X45150000Y-37843200D01*
G37*
%TD.AperFunction*%
%TA.AperFunction,Conductor*%
G36*
X43288600Y-36053600D02*
G01*
X43357510Y-35950500D01*
X46293200Y-35950500D01*
X46320300Y-36086600D01*
X46328910Y-36099500D01*
X43219930Y-36099500D01*
X43288600Y-36053600D01*
G37*
%TD.AperFunction*%
%TA.AperFunction,Conductor*%
G36*
X41879700Y-36083400D02*
G01*
X41802300Y-35967700D01*
X41776590Y-35950500D01*
X42282490Y-35950500D01*
X42351400Y-36053600D01*
X42420070Y-36099500D01*
X41882890Y-36099500D01*
X41879700Y-36083400D01*
G37*
%TD.AperFunction*%
%TA.AperFunction,Conductor*%
G36*
X48837600Y-42600000D02*
G01*
X48837600Y-44749100D01*
X48847000Y-44771800D01*
X48844600Y-44796200D01*
X48850000Y-44802800D01*
X48850000Y-45497200D01*
X48844600Y-45503800D01*
X48847000Y-45528200D01*
X48837600Y-45550900D01*
X48837600Y-45893200D01*
X48850000Y-45923000D01*
X48850000Y-45929300D01*
X48747700Y-45997700D01*
X48670300Y-46113400D01*
X48643100Y-46250000D01*
X48500000Y-46293200D01*
X48363400Y-46320300D01*
X48247700Y-46397700D01*
X48170300Y-46513400D01*
X48143100Y-46650000D01*
X48149100Y-46679900D01*
X48047600Y-46747700D01*
X47970300Y-46863400D01*
X47943100Y-47000000D01*
X47970300Y-47136600D01*
X48047600Y-47252300D01*
X48163400Y-47329700D01*
X48300000Y-47356900D01*
X48436600Y-47329700D01*
X48500000Y-47287300D01*
X48563400Y-47329700D01*
X48700000Y-47356900D01*
X48804200Y-47419600D01*
X48847000Y-47478200D01*
X48837600Y-47500900D01*
X48837600Y-52444400D01*
X48848900Y-52471700D01*
X48847900Y-52501300D01*
X48850000Y-52503500D01*
X48850000Y-53096500D01*
X48847900Y-53098700D01*
X48848900Y-53128300D01*
X48837600Y-53155600D01*
X48837600Y-53546000D01*
X48843000Y-53559100D01*
X48839800Y-53572800D01*
X48850000Y-53589000D01*
X48850000Y-53965500D01*
X48843100Y-54000000D01*
X48850000Y-54034500D01*
X48850000Y-54194100D01*
X45907900Y-54194100D01*
X45798100Y-54044100D01*
X45806900Y-54000000D01*
X45779700Y-53863400D01*
X45702300Y-53747700D01*
X45645000Y-53709400D01*
X45645000Y-53540600D01*
X45702300Y-53502300D01*
X45779700Y-53386600D01*
X45806800Y-53250500D01*
X46893200Y-53250500D01*
X46920300Y-53386600D01*
X46997700Y-53502300D01*
X47113400Y-53579700D01*
X47250000Y-53606900D01*
X47386500Y-53579700D01*
X47502300Y-53502300D01*
X47579700Y-53386600D01*
X47606800Y-53250000D01*
X47579700Y-53113400D01*
X47502300Y-52997700D01*
X47386500Y-52920300D01*
X47250000Y-52893200D01*
X47113400Y-52920300D01*
X46997700Y-52997700D01*
X46920300Y-53113400D01*
X46893200Y-53249500D01*
X45806800Y-53249500D01*
X45779700Y-53113400D01*
X45702300Y-52997700D01*
X45586500Y-52920300D01*
X45450000Y-52893200D01*
X45313400Y-52920300D01*
X45197700Y-52997700D01*
X45120300Y-53113400D01*
X45093200Y-53249500D01*
X44770390Y-53249500D01*
X44741600Y-53206500D01*
X44714500Y-53100000D01*
X44741600Y-52993500D01*
X44779700Y-52936600D01*
X44806900Y-52800000D01*
X44779700Y-52663500D01*
X44702300Y-52547700D01*
X44702300Y-52452300D01*
X44779700Y-52336600D01*
X44796840Y-52250500D01*
X45093200Y-52250500D01*
X45120300Y-52386600D01*
X45197700Y-52502300D01*
X45313400Y-52579700D01*
X45450000Y-52606900D01*
X45586500Y-52579700D01*
X45702300Y-52502300D01*
X45779700Y-52386600D01*
X45791200Y-52328500D01*
X45898500Y-52241800D01*
X45950700Y-52237100D01*
X46050000Y-52256900D01*
X46186600Y-52229700D01*
X46302300Y-52152300D01*
X46379700Y-52036600D01*
X46406900Y-51900000D01*
X46379700Y-51763400D01*
X46302300Y-51647700D01*
X46186600Y-51570300D01*
X46050000Y-51543200D01*
X45995300Y-51554000D01*
X45936800Y-51412700D01*
X45952300Y-51402300D01*
X46029700Y-51286600D01*
X46056900Y-51150000D01*
X46029700Y-51013400D01*
X45952300Y-50897700D01*
X45836500Y-50820300D01*
X45700000Y-50793200D01*
X45563400Y-50820300D01*
X45447700Y-50897700D01*
X45370300Y-51013400D01*
X45343100Y-51150000D01*
X45370300Y-51286600D01*
X45447700Y-51402300D01*
X45563400Y-51479700D01*
X45700000Y-51506900D01*
X45754700Y-51496000D01*
X45813200Y-51637300D01*
X45797600Y-51647700D01*
X45720300Y-51763400D01*
X45708700Y-51821600D01*
X45601500Y-51908200D01*
X45549300Y-51912900D01*
X45450000Y-51893200D01*
X45313400Y-51920300D01*
X45197700Y-51997700D01*
X45120300Y-52113400D01*
X45093200Y-52249500D01*
X44797040Y-52249500D01*
X44806900Y-52200000D01*
X44779700Y-52063400D01*
X44702300Y-51947700D01*
X44586500Y-51870300D01*
X44450000Y-51843200D01*
X44361100Y-51860800D01*
X44211100Y-51772000D01*
X44211100Y-50704700D01*
X44336500Y-50679700D01*
X44452300Y-50602400D01*
X44453570Y-50600500D01*
X45667860Y-50600500D01*
X45700000Y-50606900D01*
X45732120Y-50600500D01*
X47243200Y-50600500D01*
X47270300Y-50736600D01*
X47347700Y-50852400D01*
X47463400Y-50929700D01*
X47600000Y-50956900D01*
X47736500Y-50929700D01*
X47852300Y-50852400D01*
X47929700Y-50736600D01*
X47956800Y-50600000D01*
X47929700Y-50463500D01*
X47852300Y-50347700D01*
X47736500Y-50270300D01*
X47600000Y-50243200D01*
X47463400Y-50270300D01*
X47347700Y-50347700D01*
X47270300Y-50463500D01*
X47243200Y-50599500D01*
X45737140Y-50599500D01*
X45836500Y-50579700D01*
X45952300Y-50502300D01*
X46029700Y-50386600D01*
X46056900Y-50250000D01*
X46029700Y-50113400D01*
X45952300Y-49997700D01*
X45836500Y-49920300D01*
X45700000Y-49893200D01*
X45563400Y-49920300D01*
X45447700Y-49997700D01*
X45370300Y-50113400D01*
X45343200Y-50249500D01*
X44536870Y-50249500D01*
X44529700Y-50213500D01*
X44452300Y-50097700D01*
X44336500Y-50020300D01*
X44200000Y-49993200D01*
X44198500Y-49993500D01*
X44029700Y-49913500D01*
X43952300Y-49797700D01*
X43836500Y-49720300D01*
X43700000Y-49693200D01*
X43600700Y-49712900D01*
X43548500Y-49708200D01*
X43441300Y-49621600D01*
X43429700Y-49563400D01*
X43408400Y-49531700D01*
X43498600Y-49396700D01*
X43550000Y-49406900D01*
X43686600Y-49379700D01*
X43697400Y-49372500D01*
X43861700Y-49443100D01*
X43870300Y-49486600D01*
X43947700Y-49602400D01*
X44063400Y-49679700D01*
X44200000Y-49706900D01*
X44336500Y-49679700D01*
X44452300Y-49602400D01*
X44529700Y-49486600D01*
X44556800Y-49350500D01*
X45343200Y-49350500D01*
X45370300Y-49486600D01*
X45447700Y-49602400D01*
X45563400Y-49679700D01*
X45700000Y-49706900D01*
X45836500Y-49679700D01*
X45952300Y-49602400D01*
X46029700Y-49486600D01*
X46056900Y-49350000D01*
X46029700Y-49213500D01*
X45952300Y-49097700D01*
X45836500Y-49020300D01*
X45700000Y-48993200D01*
X45563400Y-49020300D01*
X45447700Y-49097700D01*
X45370300Y-49213500D01*
X45343200Y-49349500D01*
X44556800Y-49349500D01*
X44529700Y-49213500D01*
X44452300Y-49097700D01*
X44336500Y-49020300D01*
X44200000Y-48993200D01*
X44063400Y-49020300D01*
X44052600Y-49027600D01*
X43893600Y-48959200D01*
X43881600Y-48922900D01*
X43879700Y-48913500D01*
X43877200Y-48909700D01*
X43859900Y-48857500D01*
X43974500Y-48753700D01*
X44013400Y-48779700D01*
X44150000Y-48806900D01*
X44286600Y-48779700D01*
X44402300Y-48702300D01*
X44479700Y-48586600D01*
X44494300Y-48513300D01*
X44652800Y-48485200D01*
X44697700Y-48552400D01*
X44813400Y-48629700D01*
X44950000Y-48656900D01*
X45086500Y-48629700D01*
X45202300Y-48552400D01*
X45279700Y-48436600D01*
X45306900Y-48300000D01*
X45297040Y-48250500D01*
X46893200Y-48250500D01*
X46920300Y-48386600D01*
X46997700Y-48502300D01*
X47113400Y-48579700D01*
X47250000Y-48606900D01*
X47386500Y-48579700D01*
X47502300Y-48502300D01*
X47579700Y-48386600D01*
X47606800Y-48250000D01*
X47579700Y-48113400D01*
X47502300Y-47997700D01*
X47386500Y-47920300D01*
X47250000Y-47893200D01*
X47113400Y-47920300D01*
X46997700Y-47997700D01*
X46920300Y-48113400D01*
X46893200Y-48249500D01*
X45296840Y-48249500D01*
X45279700Y-48163500D01*
X45268200Y-48146200D01*
X45336500Y-47979700D01*
X45452300Y-47902300D01*
X45529600Y-47786500D01*
X45556800Y-47650000D01*
X45529600Y-47513400D01*
X45452300Y-47397600D01*
X45336500Y-47320300D01*
X45200000Y-47293100D01*
X45063400Y-47320300D01*
X44947600Y-47397600D01*
X44870300Y-47513400D01*
X44843100Y-47650000D01*
X44870300Y-47786500D01*
X44881800Y-47803800D01*
X44813400Y-47970300D01*
X44697700Y-48047700D01*
X44620300Y-48163500D01*
X44605700Y-48236700D01*
X44533500Y-48249500D01*
X44436960Y-48249500D01*
X44402300Y-48197700D01*
X44286600Y-48120300D01*
X44150000Y-48093200D01*
X44013400Y-48120300D01*
X43987500Y-48137600D01*
X43814400Y-48081700D01*
X43890600Y-47970500D01*
X43903800Y-47956100D01*
X44036600Y-47929700D01*
X44152300Y-47852400D01*
X44229700Y-47736600D01*
X44256800Y-47600000D01*
X44244800Y-47539300D01*
X44229700Y-47463500D01*
X44348700Y-47371600D01*
X44452300Y-47302400D01*
X44529700Y-47186600D01*
X44556900Y-47050000D01*
X44529700Y-46913500D01*
X44486500Y-46779700D01*
X44602300Y-46702300D01*
X44679700Y-46586600D01*
X44706800Y-46450000D01*
X44679700Y-46313400D01*
X44602300Y-46197700D01*
X44531680Y-46150500D01*
X46643200Y-46150500D01*
X46670300Y-46286600D01*
X46747700Y-46402300D01*
X46863400Y-46479700D01*
X47000000Y-46506900D01*
X47136500Y-46479700D01*
X47252300Y-46402300D01*
X47329700Y-46286600D01*
X47356800Y-46150000D01*
X47329700Y-46013400D01*
X47252300Y-45897700D01*
X47136500Y-45820300D01*
X47000000Y-45793200D01*
X46863400Y-45820300D01*
X46747700Y-45897700D01*
X46670300Y-46013400D01*
X46643200Y-46149500D01*
X44530190Y-46149500D01*
X44486500Y-46120300D01*
X44350000Y-46093200D01*
X44213400Y-46120300D01*
X44169750Y-46149500D01*
X37646840Y-46149500D01*
X37629700Y-46063400D01*
X37552300Y-45947700D01*
X37557100Y-45770400D01*
X37579700Y-45736600D01*
X37606800Y-45600000D01*
X37596970Y-45550500D01*
X44793200Y-45550500D01*
X44820300Y-45686600D01*
X44897600Y-45802400D01*
X45013400Y-45879700D01*
X45150000Y-45906900D01*
X45286500Y-45879700D01*
X45402300Y-45802400D01*
X45447700Y-45802400D01*
X45563400Y-45879700D01*
X45700000Y-45906900D01*
X45836500Y-45879700D01*
X45952300Y-45802400D01*
X45997700Y-45802400D01*
X46113400Y-45879700D01*
X46250000Y-45906900D01*
X46386500Y-45879700D01*
X46502300Y-45802400D01*
X46579700Y-45686600D01*
X46606800Y-45550000D01*
X46579700Y-45413500D01*
X46502300Y-45297700D01*
X46386500Y-45220300D01*
X46250000Y-45193200D01*
X46113400Y-45220300D01*
X45997700Y-45297700D01*
X45952300Y-45297700D01*
X45836500Y-45220300D01*
X45700000Y-45193200D01*
X45563400Y-45220300D01*
X45447700Y-45297700D01*
X45402300Y-45297700D01*
X45286500Y-45220300D01*
X45150000Y-45193200D01*
X45013400Y-45220300D01*
X44897600Y-45297700D01*
X44820300Y-45413500D01*
X44793200Y-45549500D01*
X37596770Y-45549500D01*
X37579700Y-45463500D01*
X37518500Y-45371900D01*
X37503800Y-45275000D01*
X37518500Y-45178100D01*
X37579700Y-45086600D01*
X37606800Y-44950000D01*
X37579700Y-44813400D01*
X37502300Y-44697700D01*
X37386500Y-44620300D01*
X37250000Y-44593200D01*
X37193500Y-44500000D01*
X37250000Y-44406900D01*
X37386500Y-44379700D01*
X37502300Y-44302400D01*
X37579700Y-44186600D01*
X37606800Y-44050000D01*
X37579700Y-43913500D01*
X37518500Y-43821900D01*
X37503800Y-43725000D01*
X37518500Y-43628100D01*
X37579700Y-43536600D01*
X37606800Y-43400000D01*
X37579700Y-43263500D01*
X37502300Y-43147700D01*
X37491100Y-43140200D01*
X37491100Y-42959800D01*
X37502300Y-42952400D01*
X37536990Y-42900500D01*
X39178990Y-42900500D01*
X39170300Y-42913500D01*
X39143100Y-43050000D01*
X39170300Y-43186600D01*
X39247700Y-43302300D01*
X39349200Y-43370200D01*
X39356800Y-43450000D01*
X39349200Y-43529800D01*
X39247700Y-43597700D01*
X39170300Y-43713400D01*
X39143100Y-43850000D01*
X39170300Y-43986600D01*
X39247700Y-44102300D01*
X39363400Y-44179700D01*
X39493100Y-44250000D01*
X39513200Y-44350800D01*
X39520300Y-44386600D01*
X39597700Y-44502300D01*
X39713400Y-44579700D01*
X39850000Y-44606900D01*
X39986500Y-44579700D01*
X40102300Y-44502300D01*
X40179700Y-44386600D01*
X40206800Y-44250000D01*
X40179700Y-44113400D01*
X40102300Y-43997700D01*
X40000800Y-43929800D01*
X39993200Y-43850000D01*
X40000800Y-43770200D01*
X40102300Y-43702400D01*
X40179700Y-43586600D01*
X40206800Y-43450000D01*
X40179700Y-43313400D01*
X40102300Y-43197700D01*
X40000800Y-43129800D01*
X39993200Y-43050000D01*
X40000800Y-42970200D01*
X40102300Y-42902300D01*
X40103500Y-42900500D01*
X42091300Y-42900500D01*
X42126100Y-43075600D01*
X42225600Y-43224500D01*
X42374400Y-43323900D01*
X42550000Y-43358800D01*
X42725600Y-43323900D01*
X42874400Y-43224500D01*
X42973900Y-43075600D01*
X43008700Y-42900500D01*
X43691300Y-42900500D01*
X43726100Y-43075600D01*
X43825600Y-43224500D01*
X43974400Y-43323900D01*
X44150000Y-43358800D01*
X44325600Y-43323900D01*
X44474400Y-43224500D01*
X44573900Y-43075600D01*
X44608800Y-42900000D01*
X44573900Y-42724400D01*
X44474400Y-42575600D01*
X44325600Y-42476100D01*
X44150000Y-42441200D01*
X43974400Y-42476100D01*
X43825600Y-42575600D01*
X43726100Y-42724400D01*
X43691300Y-42899500D01*
X43008700Y-42899500D01*
X42973900Y-42724400D01*
X42874400Y-42575600D01*
X42725600Y-42476100D01*
X42550000Y-42441200D01*
X42374400Y-42476100D01*
X42225600Y-42575600D01*
X42126100Y-42724400D01*
X42091300Y-42899500D01*
X40104170Y-42899500D01*
X40179700Y-42786600D01*
X40206800Y-42650000D01*
X40179700Y-42513500D01*
X40102300Y-42397700D01*
X40000800Y-42329800D01*
X39993250Y-42250500D01*
X46493200Y-42250500D01*
X46520300Y-42386600D01*
X46597700Y-42502300D01*
X46699200Y-42570200D01*
X46706800Y-42650000D01*
X46699200Y-42729800D01*
X46597700Y-42797700D01*
X46520300Y-42913500D01*
X46493100Y-43050000D01*
X46520300Y-43186600D01*
X46597700Y-43302300D01*
X46699200Y-43370200D01*
X46706800Y-43450000D01*
X46699200Y-43529800D01*
X46597700Y-43597700D01*
X46520300Y-43713400D01*
X46493100Y-43850000D01*
X46520300Y-43986600D01*
X46597700Y-44102300D01*
X46713400Y-44179700D01*
X46850000Y-44206900D01*
X46986500Y-44179700D01*
X47102300Y-44102300D01*
X47179700Y-43986600D01*
X47186800Y-43950800D01*
X47206800Y-43850000D01*
X47336500Y-43779700D01*
X47452300Y-43702300D01*
X47529700Y-43586600D01*
X47556900Y-43450000D01*
X47529700Y-43313400D01*
X47452300Y-43197700D01*
X47350800Y-43129800D01*
X47343200Y-43050000D01*
X47350800Y-42970200D01*
X47452300Y-42902300D01*
X47529700Y-42786600D01*
X47556900Y-42650000D01*
X47529700Y-42513400D01*
X47452300Y-42397700D01*
X47350800Y-42329800D01*
X47343200Y-42250000D01*
X47350800Y-42170200D01*
X47452300Y-42102300D01*
X47529700Y-41986600D01*
X47556900Y-41850000D01*
X47529700Y-41713400D01*
X47452300Y-41597700D01*
X47350800Y-41529800D01*
X47343200Y-41450000D01*
X47350800Y-41370200D01*
X47452300Y-41302300D01*
X47529700Y-41186600D01*
X47556900Y-41050000D01*
X47529700Y-40913500D01*
X47452300Y-40797700D01*
X47336500Y-40720300D01*
X47200000Y-40693100D01*
X47198500Y-40691700D01*
X47206800Y-40650000D01*
X47179700Y-40513500D01*
X47102300Y-40397700D01*
X46986500Y-40320300D01*
X46850000Y-40293200D01*
X46713400Y-40320300D01*
X46597700Y-40397700D01*
X46520300Y-40513500D01*
X46493100Y-40650000D01*
X46520300Y-40786600D01*
X46597700Y-40902300D01*
X46699200Y-40970200D01*
X46706800Y-41050000D01*
X46699200Y-41129800D01*
X46597700Y-41197700D01*
X46520300Y-41313400D01*
X46493100Y-41450000D01*
X46520300Y-41586600D01*
X46597700Y-41702400D01*
X46699200Y-41770200D01*
X46706800Y-41850000D01*
X46699200Y-41929800D01*
X46597700Y-41997700D01*
X46520300Y-42113400D01*
X46493200Y-42249500D01*
X39993250Y-42249500D01*
X40000800Y-42170200D01*
X40102300Y-42102400D01*
X40179700Y-41986600D01*
X40206800Y-41850000D01*
X40179700Y-41713400D01*
X40102300Y-41597700D01*
X39986500Y-41520300D01*
X39850000Y-41493200D01*
X39713400Y-41520300D01*
X39597700Y-41597700D01*
X39520300Y-41713400D01*
X39493100Y-41850000D01*
X39501400Y-41891700D01*
X39500000Y-41893200D01*
X39363400Y-41920300D01*
X39247700Y-41997700D01*
X39187400Y-42087700D01*
X39081900Y-42087000D01*
X39031400Y-42071900D01*
X39029700Y-42063400D01*
X38952300Y-41947700D01*
X38836500Y-41870300D01*
X38700000Y-41843200D01*
X38563400Y-41870300D01*
X38447700Y-41947700D01*
X38370300Y-42063400D01*
X38343200Y-42199500D01*
X37571070Y-42199500D01*
X37579700Y-42186600D01*
X37606800Y-42050000D01*
X37579700Y-41913500D01*
X37502300Y-41797700D01*
X37386500Y-41720300D01*
X37250000Y-41693100D01*
X37205900Y-41701900D01*
X37055900Y-41592100D01*
X37055900Y-41200500D01*
X38953160Y-41200500D01*
X38970300Y-41286600D01*
X39047600Y-41402300D01*
X39163400Y-41479700D01*
X39300000Y-41506900D01*
X39436600Y-41479700D01*
X39552300Y-41402300D01*
X39629700Y-41286600D01*
X39646780Y-41200500D01*
X42091300Y-41200500D01*
X42126100Y-41375600D01*
X42225600Y-41524400D01*
X42374400Y-41623900D01*
X42550000Y-41658800D01*
X42725600Y-41623900D01*
X42874400Y-41524400D01*
X42973900Y-41375600D01*
X43008700Y-41200500D01*
X43691300Y-41200500D01*
X43726100Y-41375600D01*
X43825600Y-41524400D01*
X43974400Y-41623900D01*
X44150000Y-41658800D01*
X44325600Y-41623900D01*
X44474400Y-41524400D01*
X44573900Y-41375600D01*
X44608800Y-41200000D01*
X44573900Y-41024400D01*
X44474400Y-40875600D01*
X44325600Y-40776100D01*
X44150000Y-40741200D01*
X43974400Y-40776100D01*
X43825600Y-40875600D01*
X43726100Y-41024400D01*
X43691300Y-41199500D01*
X43008700Y-41199500D01*
X42973900Y-41024400D01*
X42874400Y-40875600D01*
X42725600Y-40776100D01*
X42550000Y-40741200D01*
X42374400Y-40776100D01*
X42225600Y-40875600D01*
X42126100Y-41024400D01*
X42091300Y-41199500D01*
X39646980Y-41199500D01*
X39656800Y-41150000D01*
X39629700Y-41013500D01*
X39552300Y-40897700D01*
X39436600Y-40820300D01*
X39300000Y-40793200D01*
X39163400Y-40820300D01*
X39047600Y-40897700D01*
X38970300Y-41013500D01*
X38943200Y-41149500D01*
X37055900Y-41149500D01*
X37055900Y-39850500D01*
X47143200Y-39850500D01*
X47170300Y-39986600D01*
X47247700Y-40102400D01*
X47363400Y-40179700D01*
X47500000Y-40206900D01*
X47636500Y-40179700D01*
X47752300Y-40102400D01*
X47829700Y-39986600D01*
X47856800Y-39850000D01*
X47829700Y-39713400D01*
X47752300Y-39597700D01*
X47636500Y-39520300D01*
X47500000Y-39493200D01*
X47363400Y-39520300D01*
X47247700Y-39597700D01*
X47170300Y-39713400D01*
X47143200Y-39849500D01*
X37055900Y-39849500D01*
X37055900Y-38774500D01*
X37097740Y-38750400D01*
X37475870Y-38750400D01*
X37477200Y-38751700D01*
X37508200Y-38806700D01*
X37470400Y-38863500D01*
X37443200Y-39000000D01*
X37470400Y-39136600D01*
X37547700Y-39252300D01*
X37663500Y-39329700D01*
X37800000Y-39356900D01*
X37936600Y-39329700D01*
X38052400Y-39252300D01*
X38129800Y-39136600D01*
X38156900Y-39000000D01*
X38129800Y-38863500D01*
X38054200Y-38750400D01*
X42062980Y-38750400D01*
X42097700Y-38802300D01*
X42213400Y-38879700D01*
X42350000Y-38906900D01*
X42486500Y-38879700D01*
X42602300Y-38802300D01*
X42637020Y-38750400D01*
X42862930Y-38750400D01*
X42897600Y-38802300D01*
X43013400Y-38879700D01*
X43150000Y-38906900D01*
X43286600Y-38879700D01*
X43402300Y-38802300D01*
X43437020Y-38750400D01*
X43662930Y-38750400D01*
X43697600Y-38802300D01*
X43813400Y-38879700D01*
X43950000Y-38906900D01*
X44086500Y-38879700D01*
X44202300Y-38802300D01*
X44237020Y-38750400D01*
X44462980Y-38750400D01*
X44497700Y-38802300D01*
X44613400Y-38879700D01*
X44750000Y-38906900D01*
X44886500Y-38879700D01*
X45002300Y-38802300D01*
X45037020Y-38750400D01*
X50693200Y-38750400D01*
X50720300Y-38886500D01*
X50797700Y-39002300D01*
X50913500Y-39079600D01*
X51050000Y-39106800D01*
X51186600Y-39079600D01*
X51302300Y-39002300D01*
X51379700Y-38886500D01*
X51406900Y-38749900D01*
X51379700Y-38613300D01*
X51302300Y-38497600D01*
X51186600Y-38420200D01*
X51050000Y-38393100D01*
X50913500Y-38420200D01*
X50797700Y-38497600D01*
X50720300Y-38613300D01*
X50693200Y-38749400D01*
X45037690Y-38749400D01*
X45079700Y-38686600D01*
X45150000Y-38556900D01*
X45250800Y-38536800D01*
X45286500Y-38529700D01*
X45402300Y-38452400D01*
X45479700Y-38336600D01*
X45506800Y-38200000D01*
X45479700Y-38063400D01*
X45402300Y-37947700D01*
X45286500Y-37870300D01*
X45186770Y-37850500D01*
X46753220Y-37850500D01*
X46770300Y-37936600D01*
X46847700Y-38052400D01*
X46963500Y-38129700D01*
X47100000Y-38156900D01*
X47236600Y-38129700D01*
X47352400Y-38052400D01*
X47429700Y-37936600D01*
X47446840Y-37850500D01*
X50693200Y-37850500D01*
X50720300Y-37986500D01*
X50797700Y-38102300D01*
X50913500Y-38179700D01*
X51050000Y-38206800D01*
X51186600Y-38179700D01*
X51302300Y-38102300D01*
X51379700Y-37986500D01*
X51406900Y-37850000D01*
X51379700Y-37713400D01*
X51302300Y-37597700D01*
X51186600Y-37520300D01*
X51050000Y-37493100D01*
X50913500Y-37520300D01*
X50797700Y-37597700D01*
X50720300Y-37713400D01*
X50693200Y-37849500D01*
X47447040Y-37849500D01*
X47456900Y-37800000D01*
X47429700Y-37663500D01*
X47352400Y-37547700D01*
X47236600Y-37470300D01*
X47100000Y-37443200D01*
X46963500Y-37470300D01*
X46847700Y-37547700D01*
X46770300Y-37663500D01*
X46743300Y-37799500D01*
X39320400Y-37799500D01*
X39252300Y-37697700D01*
X39136500Y-37620300D01*
X39000000Y-37593200D01*
X38863400Y-37620300D01*
X38747700Y-37697700D01*
X38679600Y-37799500D01*
X37055900Y-37799500D01*
X37055900Y-37774500D01*
X37205900Y-37688100D01*
X37300000Y-37706900D01*
X37436600Y-37679700D01*
X37552300Y-37602400D01*
X37612500Y-37512300D01*
X37718000Y-37513000D01*
X37768600Y-37528100D01*
X37770300Y-37536600D01*
X37847700Y-37652300D01*
X37963400Y-37729700D01*
X38100000Y-37756900D01*
X38236500Y-37729700D01*
X38352300Y-37652300D01*
X38429700Y-37536600D01*
X38456800Y-37400000D01*
X38446970Y-37350500D01*
X38819750Y-37350500D01*
X38863400Y-37379700D01*
X39000000Y-37406900D01*
X39136500Y-37379700D01*
X39180190Y-37350500D01*
X47743200Y-37350500D01*
X47770300Y-37486600D01*
X47847700Y-37602400D01*
X47963400Y-37679700D01*
X48100000Y-37706900D01*
X48236600Y-37679700D01*
X48352300Y-37602400D01*
X48429700Y-37486600D01*
X48456800Y-37350000D01*
X48429700Y-37213400D01*
X48352300Y-37097700D01*
X48236600Y-37020300D01*
X48100000Y-36993200D01*
X47963400Y-37020300D01*
X47847700Y-37097700D01*
X47770300Y-37213400D01*
X47743200Y-37349500D01*
X39181680Y-37349500D01*
X39252300Y-37302300D01*
X39329700Y-37186600D01*
X39356800Y-37050000D01*
X39329700Y-36913500D01*
X39321010Y-36900500D01*
X45143200Y-36900500D01*
X45170300Y-37036600D01*
X45247700Y-37152300D01*
X45363400Y-37229700D01*
X45500000Y-37256900D01*
X45636500Y-37229700D01*
X45667600Y-37209000D01*
X45797600Y-37152400D01*
X45913400Y-37229700D01*
X46050000Y-37256900D01*
X46186500Y-37229700D01*
X46302300Y-37152400D01*
X46379600Y-37036600D01*
X46406800Y-36900100D01*
X46379600Y-36763500D01*
X46302300Y-36647700D01*
X46186500Y-36570300D01*
X46050000Y-36543200D01*
X45913400Y-36570300D01*
X45882400Y-36591100D01*
X45752300Y-36647700D01*
X45636500Y-36570300D01*
X45500000Y-36543200D01*
X45363400Y-36570300D01*
X45247700Y-36647700D01*
X45170300Y-36763500D01*
X45143200Y-36899500D01*
X39320340Y-36899500D01*
X39252300Y-36797700D01*
X39136500Y-36720300D01*
X39097100Y-36712500D01*
X39097100Y-36559500D01*
X39146500Y-36549700D01*
X39262300Y-36472400D01*
X39339700Y-36356600D01*
X39366800Y-36220500D01*
X39923200Y-36220500D01*
X39950300Y-36356600D01*
X40027600Y-36472400D01*
X40143400Y-36549700D01*
X40280000Y-36576900D01*
X40416600Y-36549700D01*
X40532300Y-36472400D01*
X40609700Y-36356600D01*
X40636700Y-36220500D01*
X41193200Y-36220500D01*
X41220300Y-36356600D01*
X41297600Y-36472400D01*
X41413400Y-36549700D01*
X41550000Y-36576900D01*
X41686600Y-36549700D01*
X41802300Y-36472400D01*
X41879700Y-36356600D01*
X41906800Y-36220000D01*
X41883090Y-36100500D01*
X42421570Y-36100500D01*
X42566400Y-36197300D01*
X42820000Y-36247700D01*
X43073600Y-36197300D01*
X43218430Y-36100500D01*
X46329580Y-36100500D01*
X46397600Y-36202400D01*
X46513400Y-36279700D01*
X46650000Y-36306900D01*
X46786600Y-36279700D01*
X46902300Y-36202400D01*
X46970410Y-36100500D01*
X50943200Y-36100500D01*
X50970300Y-36236600D01*
X51047600Y-36352400D01*
X51163400Y-36429700D01*
X51300000Y-36456900D01*
X51436600Y-36429700D01*
X51552300Y-36352400D01*
X51629700Y-36236600D01*
X51656800Y-36100500D01*
X52143200Y-36100500D01*
X52170300Y-36236600D01*
X52247700Y-36352400D01*
X52363400Y-36429700D01*
X52500000Y-36456900D01*
X52636500Y-36429700D01*
X52752300Y-36352400D01*
X52829700Y-36236600D01*
X52856800Y-36100000D01*
X52829700Y-35963400D01*
X52752300Y-35847700D01*
X52636500Y-35770300D01*
X52500000Y-35743200D01*
X52363400Y-35770300D01*
X52247700Y-35847700D01*
X52170300Y-35963400D01*
X52143200Y-36099500D01*
X51656800Y-36099500D01*
X51629700Y-35963400D01*
X51552300Y-35847700D01*
X51436600Y-35770300D01*
X51300000Y-35743200D01*
X51163400Y-35770300D01*
X51047600Y-35847700D01*
X50970300Y-35963400D01*
X50943200Y-36099500D01*
X46971080Y-36099500D01*
X46979700Y-36086600D01*
X47006800Y-35950000D01*
X46979700Y-35813400D01*
X46902300Y-35697700D01*
X46786600Y-35620300D01*
X46650000Y-35593200D01*
X46513400Y-35620300D01*
X46397600Y-35697700D01*
X46320300Y-35813400D01*
X46293200Y-35949500D01*
X43358180Y-35949500D01*
X43432300Y-35838600D01*
X43481790Y-35589600D01*
X47729100Y-35589600D01*
X47756200Y-35725600D01*
X47833600Y-35841400D01*
X47949300Y-35918800D01*
X48085900Y-35945900D01*
X48222400Y-35918800D01*
X48338200Y-35841400D01*
X48415600Y-35725600D01*
X48442700Y-35589100D01*
X48425120Y-35500500D01*
X48893200Y-35500500D01*
X48920300Y-35636600D01*
X48997700Y-35752300D01*
X49113400Y-35829700D01*
X49250000Y-35856900D01*
X49386500Y-35829700D01*
X49502300Y-35752300D01*
X49579700Y-35636600D01*
X49606800Y-35500000D01*
X49579700Y-35363500D01*
X49502300Y-35247700D01*
X49386500Y-35170300D01*
X49250000Y-35143200D01*
X49113400Y-35170300D01*
X48997700Y-35247700D01*
X48920300Y-35363500D01*
X48893200Y-35499500D01*
X48424920Y-35499500D01*
X48415600Y-35452500D01*
X48338200Y-35336700D01*
X48222400Y-35259400D01*
X48085900Y-35232200D01*
X47949300Y-35259400D01*
X47833600Y-35336700D01*
X47756200Y-35452500D01*
X47746840Y-35499500D01*
X43465710Y-35499500D01*
X43432300Y-35331400D01*
X43366700Y-35233300D01*
X43456900Y-35098300D01*
X43500000Y-35106900D01*
X43636500Y-35079700D01*
X43752300Y-35002300D01*
X43829700Y-34886600D01*
X43856800Y-34750000D01*
X43829700Y-34613500D01*
X43752300Y-34497700D01*
X43636500Y-34420300D01*
X43500000Y-34393200D01*
X43363400Y-34420300D01*
X43247700Y-34497700D01*
X43170300Y-34613500D01*
X43143100Y-34750000D01*
X43163500Y-34852400D01*
X43115400Y-34916700D01*
X43098700Y-34932500D01*
X43045000Y-34967000D01*
X42820000Y-34922300D01*
X42566400Y-34972700D01*
X42351400Y-35116400D01*
X42207700Y-35331400D01*
X42174290Y-35499500D01*
X37606700Y-35499500D01*
X37579700Y-35363500D01*
X37572200Y-35352300D01*
X37662400Y-35217300D01*
X37740000Y-35232800D01*
X37993600Y-35182300D01*
X38208600Y-35038600D01*
X38267480Y-34950500D01*
X39923200Y-34950500D01*
X39950300Y-35086600D01*
X40027600Y-35202400D01*
X40143400Y-35279700D01*
X40280000Y-35306900D01*
X40416600Y-35279700D01*
X40532300Y-35202400D01*
X40609700Y-35086600D01*
X40636800Y-34950000D01*
X40609700Y-34813400D01*
X40532300Y-34697700D01*
X40416600Y-34620300D01*
X40280000Y-34593200D01*
X40143400Y-34620300D01*
X40027600Y-34697700D01*
X39950300Y-34813400D01*
X39923200Y-34949500D01*
X38268150Y-34949500D01*
X38352300Y-34823600D01*
X38402700Y-34570000D01*
X38352300Y-34316400D01*
X38208600Y-34101400D01*
X38207250Y-34100500D01*
X39679590Y-34100500D01*
X39747700Y-34202400D01*
X39863400Y-34279700D01*
X40000000Y-34306900D01*
X40136500Y-34279700D01*
X40252300Y-34202400D01*
X40320410Y-34100500D01*
X44443200Y-34100500D01*
X44470300Y-34236600D01*
X44547600Y-34352400D01*
X44663400Y-34429700D01*
X44800000Y-34456900D01*
X44936600Y-34429700D01*
X45052300Y-34352400D01*
X45129700Y-34236600D01*
X45156800Y-34100500D01*
X50493200Y-34100500D01*
X50520300Y-34236600D01*
X50597700Y-34352400D01*
X50713400Y-34429700D01*
X50850000Y-34456900D01*
X50986500Y-34429700D01*
X51102300Y-34352400D01*
X51179700Y-34236600D01*
X51206800Y-34100000D01*
X51179700Y-33963400D01*
X51102300Y-33847700D01*
X50986500Y-33770300D01*
X50850000Y-33743200D01*
X50713400Y-33770300D01*
X50597700Y-33847700D01*
X50520300Y-33963400D01*
X50493200Y-34099500D01*
X45156800Y-34099500D01*
X45129700Y-33963400D01*
X45052300Y-33847700D01*
X44936600Y-33770300D01*
X44800000Y-33743200D01*
X44663400Y-33770300D01*
X44547600Y-33847700D01*
X44470300Y-33963400D01*
X44443200Y-34099500D01*
X40321080Y-34099500D01*
X40329700Y-34086600D01*
X40356800Y-33950000D01*
X40329700Y-33813400D01*
X40252300Y-33697700D01*
X40136500Y-33620300D01*
X40000000Y-33593200D01*
X39863400Y-33620300D01*
X39747700Y-33697700D01*
X39670300Y-33813400D01*
X39643200Y-33949500D01*
X37952340Y-33949500D01*
X37740000Y-33907300D01*
X37692600Y-33916700D01*
X37654800Y-33868800D01*
X37618200Y-33778600D01*
X37679700Y-33686600D01*
X37706800Y-33550000D01*
X37679700Y-33413500D01*
X37602300Y-33297700D01*
X37486500Y-33220300D01*
X37350000Y-33193100D01*
X37213400Y-33220300D01*
X37205900Y-33225400D01*
X37055900Y-33145200D01*
X37055900Y-33050500D01*
X44243200Y-33050500D01*
X44270300Y-33186600D01*
X44347700Y-33302300D01*
X44463400Y-33379700D01*
X44600000Y-33406900D01*
X44736500Y-33379700D01*
X44852300Y-33302300D01*
X44929700Y-33186600D01*
X44956800Y-33050000D01*
X44929700Y-32913500D01*
X44852300Y-32797700D01*
X44736500Y-32720300D01*
X44600000Y-32693100D01*
X44463400Y-32720300D01*
X44347700Y-32797700D01*
X44270300Y-32913500D01*
X44243200Y-33049500D01*
X37055900Y-33049500D01*
X37055900Y-32724500D01*
X37205900Y-32638200D01*
X37300000Y-32656900D01*
X37436600Y-32629700D01*
X37552300Y-32552300D01*
X37610900Y-32464700D01*
X42111000Y-32464700D01*
X42138100Y-32600800D01*
X42215400Y-32716600D01*
X42331200Y-32793900D01*
X42467800Y-32821100D01*
X42604300Y-32793900D01*
X42720100Y-32716600D01*
X42797500Y-32600800D01*
X42812300Y-32526000D01*
X42887100Y-32511100D01*
X43002900Y-32433700D01*
X43080300Y-32318000D01*
X43107500Y-32181400D01*
X43080300Y-32044800D01*
X43039190Y-31983300D01*
X47092700Y-31983300D01*
X47119800Y-32119400D01*
X47197100Y-32235100D01*
X47312900Y-32312500D01*
X47449500Y-32339700D01*
X47586100Y-32312500D01*
X47701800Y-32235100D01*
X47779200Y-32119400D01*
X47806300Y-31982800D01*
X47779200Y-31846300D01*
X47701800Y-31730500D01*
X47656960Y-31700500D01*
X50593200Y-31700500D01*
X50620300Y-31836600D01*
X50697700Y-31952400D01*
X50813400Y-32029700D01*
X50950000Y-32056900D01*
X51086500Y-32029700D01*
X51202300Y-31952400D01*
X51279700Y-31836600D01*
X51306900Y-31700000D01*
X51279700Y-31563400D01*
X51202300Y-31447700D01*
X51086500Y-31370300D01*
X50950000Y-31343200D01*
X50813400Y-31370300D01*
X50697700Y-31447700D01*
X50620300Y-31563400D01*
X50593200Y-31699500D01*
X47655460Y-31699500D01*
X47586100Y-31653100D01*
X47449500Y-31625900D01*
X47312900Y-31653100D01*
X47243480Y-31699500D01*
X37055900Y-31699500D01*
X37055900Y-31100500D01*
X49543200Y-31100500D01*
X49570300Y-31236600D01*
X49647600Y-31352400D01*
X49763400Y-31429700D01*
X49900000Y-31456900D01*
X50036600Y-31429700D01*
X50152300Y-31352400D01*
X50229700Y-31236600D01*
X50256800Y-31100000D01*
X50229700Y-30963400D01*
X50152300Y-30847700D01*
X50036600Y-30770300D01*
X49900000Y-30743200D01*
X49763400Y-30770300D01*
X49647600Y-30847700D01*
X49570300Y-30963400D01*
X49543200Y-31099500D01*
X37055900Y-31099500D01*
X37055900Y-31024500D01*
X37205900Y-30938100D01*
X37300000Y-30956900D01*
X37436600Y-30929700D01*
X37552300Y-30852400D01*
X37629700Y-30736600D01*
X37634900Y-30710500D01*
X45820000Y-30710500D01*
X45847000Y-30846600D01*
X45924400Y-30962400D01*
X46040100Y-31039700D01*
X46176700Y-31066900D01*
X46313300Y-31039700D01*
X46429000Y-30962400D01*
X46506400Y-30846600D01*
X46533600Y-30710000D01*
X46506400Y-30573500D01*
X46429000Y-30457700D01*
X46313300Y-30380300D01*
X46176700Y-30353200D01*
X46040100Y-30380300D01*
X45924400Y-30457700D01*
X45847000Y-30573500D01*
X45820000Y-30709500D01*
X37635100Y-30709500D01*
X37656900Y-30600000D01*
X37629700Y-30463400D01*
X37552300Y-30347700D01*
X37436600Y-30270300D01*
X37300000Y-30243200D01*
X37205900Y-30261900D01*
X37055900Y-30175500D01*
X37055900Y-29874500D01*
X37205900Y-29788100D01*
X37300000Y-29806900D01*
X37436600Y-29779700D01*
X37552300Y-29702400D01*
X37585450Y-29652800D01*
X41737800Y-29652800D01*
X41764800Y-29788800D01*
X41842200Y-29904600D01*
X41958000Y-29982000D01*
X42094500Y-30009100D01*
X42231100Y-29982000D01*
X42346900Y-29904600D01*
X42424200Y-29788800D01*
X42451400Y-29652300D01*
X42424200Y-29515700D01*
X42346900Y-29400000D01*
X42231100Y-29322600D01*
X42094500Y-29295400D01*
X41958000Y-29322600D01*
X41842200Y-29400000D01*
X41764800Y-29515700D01*
X41737800Y-29651800D01*
X37586120Y-29651800D01*
X37629700Y-29586600D01*
X37656900Y-29450000D01*
X37629700Y-29313400D01*
X37552300Y-29197700D01*
X37436600Y-29120300D01*
X37300000Y-29093200D01*
X37205900Y-29111900D01*
X37055900Y-29025500D01*
X37055900Y-28981000D01*
X44601600Y-28981000D01*
X44628700Y-29117100D01*
X44706100Y-29232900D01*
X44821800Y-29310200D01*
X44896600Y-29325100D01*
X44911500Y-29399900D01*
X44988900Y-29515700D01*
X45104600Y-29593100D01*
X45241200Y-29620200D01*
X45377800Y-29593100D01*
X45493600Y-29515700D01*
X45570900Y-29399900D01*
X45598100Y-29263400D01*
X45570900Y-29126800D01*
X45493600Y-29011000D01*
X45377800Y-28933700D01*
X45302900Y-28918800D01*
X45288100Y-28844000D01*
X45210700Y-28728200D01*
X45094900Y-28650800D01*
X44958400Y-28623700D01*
X44821800Y-28650800D01*
X44706100Y-28728200D01*
X44628700Y-28844000D01*
X44601600Y-28980000D01*
X37055900Y-28980000D01*
X37055900Y-28524500D01*
X37205900Y-28438100D01*
X37300000Y-28456900D01*
X37436600Y-28429700D01*
X37458150Y-28415300D01*
X40641800Y-28415300D01*
X40668800Y-28551400D01*
X40746200Y-28667100D01*
X40861900Y-28744500D01*
X40998500Y-28771700D01*
X41135100Y-28744500D01*
X41250900Y-28667100D01*
X41328200Y-28551400D01*
X41355400Y-28414800D01*
X41328200Y-28278300D01*
X41250900Y-28162500D01*
X41135100Y-28085100D01*
X40998500Y-28058000D01*
X40861900Y-28085100D01*
X40746200Y-28162500D01*
X40668800Y-28278300D01*
X40641800Y-28414300D01*
X37459650Y-28414300D01*
X37552300Y-28352400D01*
X37629700Y-28236600D01*
X37656900Y-28100000D01*
X37629700Y-27963400D01*
X37552300Y-27847700D01*
X37449460Y-27778900D01*
X38608810Y-27778900D01*
X38620300Y-27836600D01*
X38697700Y-27952400D01*
X38813400Y-28029700D01*
X38950000Y-28056900D01*
X39086500Y-28029700D01*
X39099700Y-28020900D01*
X39206800Y-27957700D01*
X39291900Y-28059100D01*
X39296600Y-28066100D01*
X39412400Y-28143500D01*
X39549000Y-28170700D01*
X39685500Y-28143500D01*
X39801300Y-28066100D01*
X39878600Y-27950400D01*
X39905800Y-27813800D01*
X39898850Y-27778900D01*
X41278100Y-27778900D01*
X41305200Y-27915000D01*
X41382600Y-28030800D01*
X41498400Y-28108100D01*
X41634900Y-28135300D01*
X41771500Y-28108100D01*
X41887200Y-28030800D01*
X41964600Y-27915000D01*
X41991800Y-27778400D01*
X41964600Y-27641800D01*
X41941100Y-27606600D01*
X41973600Y-27549600D01*
X42024220Y-27500500D01*
X42117910Y-27500500D01*
X42150000Y-27506900D01*
X42182140Y-27500500D01*
X43143200Y-27500500D01*
X43170300Y-27636600D01*
X43247700Y-27752300D01*
X43293200Y-27782800D01*
X43297900Y-27958000D01*
X43256400Y-27985700D01*
X43179000Y-28101500D01*
X43151900Y-28238100D01*
X43179000Y-28374600D01*
X43256400Y-28490400D01*
X43372200Y-28567700D01*
X43508700Y-28594900D01*
X43645300Y-28567700D01*
X43761100Y-28490400D01*
X43775300Y-28469100D01*
X43811000Y-28461100D01*
X43948900Y-28479300D01*
X43997700Y-28552300D01*
X44113400Y-28629700D01*
X44250000Y-28656900D01*
X44386500Y-28629700D01*
X44502300Y-28552300D01*
X44579700Y-28436600D01*
X44606800Y-28300000D01*
X44579700Y-28163500D01*
X44502300Y-28047700D01*
X44386500Y-27970300D01*
X44250000Y-27943100D01*
X44113400Y-27970300D01*
X43997700Y-28047700D01*
X43983400Y-28069000D01*
X43947800Y-28077000D01*
X43809800Y-28058700D01*
X43761100Y-27985700D01*
X43715500Y-27955300D01*
X43710800Y-27780100D01*
X43752300Y-27752300D01*
X43829700Y-27636600D01*
X43856800Y-27500000D01*
X43829700Y-27363500D01*
X43752300Y-27247700D01*
X43636500Y-27170300D01*
X43500000Y-27143200D01*
X43363400Y-27170300D01*
X43247700Y-27247700D01*
X43170300Y-27363500D01*
X43143200Y-27499500D01*
X42187160Y-27499500D01*
X42286600Y-27479700D01*
X42402300Y-27402300D01*
X42479700Y-27286600D01*
X42495200Y-27208600D01*
X42611000Y-27130700D01*
X42653500Y-27122900D01*
X42766300Y-27145300D01*
X42902800Y-27118100D01*
X43018600Y-27040800D01*
X43096000Y-26925000D01*
X43123100Y-26788500D01*
X43096000Y-26651900D01*
X43018600Y-26536100D01*
X42902800Y-26458700D01*
X42828000Y-26443800D01*
X42813100Y-26369000D01*
X42735800Y-26253300D01*
X42620000Y-26175900D01*
X42483400Y-26148700D01*
X42346900Y-26175900D01*
X42231100Y-26253300D01*
X42153700Y-26369000D01*
X42126600Y-26505600D01*
X42153700Y-26642200D01*
X42159000Y-26650100D01*
X42158300Y-26660900D01*
X42083100Y-26806500D01*
X42013400Y-26820300D01*
X41897600Y-26897700D01*
X41820300Y-27013500D01*
X41793100Y-27150000D01*
X41820300Y-27286600D01*
X41843800Y-27321800D01*
X41811300Y-27378800D01*
X41744700Y-27443400D01*
X41634900Y-27421500D01*
X41498400Y-27448700D01*
X41422400Y-27499500D01*
X39708540Y-27499500D01*
X39685500Y-27484100D01*
X39549000Y-27456900D01*
X39412400Y-27484100D01*
X39399200Y-27492900D01*
X39388020Y-27499500D01*
X39244600Y-27499500D01*
X39207000Y-27454700D01*
X39202300Y-27447700D01*
X39086500Y-27370300D01*
X38950000Y-27343200D01*
X38813400Y-27370300D01*
X38697700Y-27447700D01*
X38663050Y-27499500D01*
X37055900Y-27499500D01*
X37055900Y-27464400D01*
X37205900Y-27391200D01*
X37263400Y-27429700D01*
X37400000Y-27456900D01*
X37536600Y-27429700D01*
X37652300Y-27352400D01*
X37729700Y-27236600D01*
X37756800Y-27100000D01*
X37729700Y-26963400D01*
X37652300Y-26847700D01*
X37536600Y-26770300D01*
X37400000Y-26743200D01*
X37263400Y-26770300D01*
X37205900Y-26808800D01*
X37055900Y-26735600D01*
X37055900Y-26557900D01*
X37205900Y-26448100D01*
X37250000Y-26456900D01*
X37386500Y-26429700D01*
X37502300Y-26352400D01*
X37579700Y-26236600D01*
X37606800Y-26100000D01*
X37579700Y-25963400D01*
X37502300Y-25847700D01*
X37386500Y-25770300D01*
X37250000Y-25743200D01*
X37205900Y-25752000D01*
X37135610Y-25700500D01*
X38993200Y-25700500D01*
X39020300Y-25836600D01*
X39097700Y-25952400D01*
X39213400Y-26029700D01*
X39350000Y-26056900D01*
X39486500Y-26029700D01*
X39602300Y-25952400D01*
X39679700Y-25836600D01*
X39706800Y-25700000D01*
X39679700Y-25563400D01*
X39602300Y-25447700D01*
X39486500Y-25370300D01*
X39350000Y-25343200D01*
X39213400Y-25370300D01*
X39097700Y-25447700D01*
X39020300Y-25563400D01*
X38993200Y-25699500D01*
X37134240Y-25699500D01*
X37055900Y-25642100D01*
X37055900Y-25037500D01*
X37193400Y-24952400D01*
X37195500Y-24952400D01*
X37270300Y-25063400D01*
X37243100Y-25200000D01*
X37270300Y-25336600D01*
X37347700Y-25452400D01*
X37463400Y-25529700D01*
X37600000Y-25556900D01*
X37736500Y-25529700D01*
X37852300Y-25452400D01*
X37929700Y-25336600D01*
X37956800Y-25200000D01*
X37929700Y-25063400D01*
X37852300Y-24947700D01*
X37762100Y-24887400D01*
X37736100Y-24867200D01*
X37712300Y-24712600D01*
X37729700Y-24686600D01*
X37756800Y-24550000D01*
X37729700Y-24413500D01*
X37652300Y-24297700D01*
X37536600Y-24220300D01*
X37521400Y-24217300D01*
X37442600Y-24072400D01*
X37474400Y-23974400D01*
X37796100Y-23555100D01*
X37998300Y-23066900D01*
X38013500Y-22951500D01*
X38192200Y-22951500D01*
X38219300Y-23087600D01*
X38296600Y-23203400D01*
X38412400Y-23280800D01*
X38497800Y-23297700D01*
X38497800Y-23297800D01*
X38560000Y-23434100D01*
X38561600Y-23451700D01*
X38520300Y-23513500D01*
X38493100Y-23650000D01*
X38520300Y-23786600D01*
X38597700Y-23902300D01*
X38713400Y-23979700D01*
X38850000Y-24006900D01*
X38986500Y-23979700D01*
X39102300Y-23902300D01*
X39179700Y-23786600D01*
X39206800Y-23650000D01*
X39179700Y-23513500D01*
X39102300Y-23397700D01*
X38986500Y-23320300D01*
X38901200Y-23303300D01*
X38901100Y-23303300D01*
X38838900Y-23167000D01*
X38837400Y-23149400D01*
X38878600Y-23087600D01*
X38905700Y-22951500D01*
X39394300Y-22951500D01*
X39421300Y-23087600D01*
X39498700Y-23203400D01*
X39614500Y-23280800D01*
X39751000Y-23307900D01*
X39887600Y-23280800D01*
X40003400Y-23203400D01*
X40080700Y-23087600D01*
X40107900Y-22951000D01*
X40080700Y-22814500D01*
X40003400Y-22698700D01*
X39887600Y-22621400D01*
X39751000Y-22594200D01*
X39614500Y-22621400D01*
X39498700Y-22698700D01*
X39421300Y-22814500D01*
X39394300Y-22950500D01*
X38905700Y-22950500D01*
X38878600Y-22814500D01*
X38801300Y-22698700D01*
X38685500Y-22621400D01*
X38549000Y-22594200D01*
X38412400Y-22621400D01*
X38296600Y-22698700D01*
X38219300Y-22814500D01*
X38192200Y-22950500D01*
X38013630Y-22950500D01*
X38067300Y-22542900D01*
X38055900Y-22542900D01*
X38055900Y-21937900D01*
X38143800Y-21824300D01*
X38207100Y-21824200D01*
X38211500Y-21846800D01*
X38219200Y-21885500D01*
X38263000Y-21951000D01*
X38296600Y-22001300D01*
X38412400Y-22078700D01*
X38549000Y-22105800D01*
X38685500Y-22078700D01*
X38801300Y-22001300D01*
X38878600Y-21885500D01*
X38905800Y-21749000D01*
X38878600Y-21612400D01*
X38801300Y-21496600D01*
X38685500Y-21419300D01*
X38549000Y-21392100D01*
X38412400Y-21419300D01*
X38296600Y-21496600D01*
X38263000Y-21546900D01*
X38219200Y-21612400D01*
X38211500Y-21651200D01*
X38207100Y-21673800D01*
X38143800Y-21673600D01*
X38055900Y-21560000D01*
X38055900Y-20854800D01*
X38205900Y-20774700D01*
X38213400Y-20779700D01*
X38350000Y-20806900D01*
X38486500Y-20779700D01*
X38602300Y-20702400D01*
X38625700Y-20667400D01*
X38810400Y-20640000D01*
X39516000Y-21345600D01*
X39501300Y-21494900D01*
X39498700Y-21496600D01*
X39421300Y-21612400D01*
X39394200Y-21749000D01*
X39421300Y-21885500D01*
X39498700Y-22001300D01*
X39614500Y-22078700D01*
X39751000Y-22105800D01*
X39887600Y-22078700D01*
X40003400Y-22001300D01*
X40005100Y-21998700D01*
X40154400Y-21984000D01*
X41035800Y-22865400D01*
X40970300Y-22963400D01*
X40943100Y-23100000D01*
X40970300Y-23236600D01*
X41047600Y-23352400D01*
X41163400Y-23429700D01*
X41300000Y-23456900D01*
X41436600Y-23429700D01*
X41534600Y-23364200D01*
X44242800Y-26072400D01*
X44244300Y-26077500D01*
X44220300Y-26113500D01*
X44193100Y-26250000D01*
X44220300Y-26386600D01*
X44297600Y-26502300D01*
X44413400Y-26579700D01*
X44550000Y-26606900D01*
X44686600Y-26579700D01*
X44722500Y-26555700D01*
X44727600Y-26557200D01*
X44965800Y-26795400D01*
X44920300Y-26863500D01*
X44893100Y-27000000D01*
X44920300Y-27136600D01*
X44997700Y-27252300D01*
X45113400Y-27329700D01*
X45250000Y-27356900D01*
X45386500Y-27329700D01*
X45454600Y-27284200D01*
X47923000Y-29752700D01*
X47924100Y-29756000D01*
X47897600Y-29795700D01*
X47870400Y-29932300D01*
X47897600Y-30068800D01*
X47974900Y-30184600D01*
X48090700Y-30261900D01*
X48227300Y-30289100D01*
X48363800Y-30261900D01*
X48520300Y-30286600D01*
X48597700Y-30402300D01*
X48713400Y-30479700D01*
X48850000Y-30506900D01*
X48986500Y-30479700D01*
X49102300Y-30402300D01*
X49179700Y-30286600D01*
X49194400Y-30212400D01*
X50455500Y-30212400D01*
X50470300Y-30286600D01*
X50547600Y-30402300D01*
X50663400Y-30479700D01*
X50800000Y-30506900D01*
X50868400Y-30493300D01*
X51700000Y-31324900D01*
X53487600Y-33112500D01*
X53487600Y-34875800D01*
X53337600Y-34954400D01*
X53286600Y-34920300D01*
X53150100Y-34893100D01*
X53013500Y-34920300D01*
X52897700Y-34997600D01*
X52820300Y-35113400D01*
X52793200Y-35250000D01*
X52820300Y-35386500D01*
X52897700Y-35502300D01*
X53013500Y-35579700D01*
X53150100Y-35606800D01*
X53286600Y-35579700D01*
X53337600Y-35545600D01*
X53487600Y-35624100D01*
X53487600Y-36925900D01*
X53337600Y-37004500D01*
X53286600Y-36970300D01*
X53150000Y-36943100D01*
X53013400Y-36970300D01*
X52897600Y-37047700D01*
X52820300Y-37163500D01*
X52793100Y-37300000D01*
X52820300Y-37436600D01*
X52897600Y-37552300D01*
X53013400Y-37629700D01*
X53150000Y-37656900D01*
X53286600Y-37629700D01*
X53337600Y-37595600D01*
X53487600Y-37674100D01*
X53487600Y-37882800D01*
X51811400Y-39559000D01*
X51805100Y-39574200D01*
X51791400Y-39583300D01*
X51785000Y-39615000D01*
X51461700Y-39938300D01*
X51450000Y-39946100D01*
X51336500Y-39870300D01*
X51200000Y-39843200D01*
X51063400Y-39870300D01*
X50950000Y-39946100D01*
X50836500Y-39870300D01*
X50700000Y-39843200D01*
X50563400Y-39870300D01*
X50450000Y-39946100D01*
X50336500Y-39870300D01*
X50200000Y-39843200D01*
X50116100Y-39706900D01*
X50129700Y-39686600D01*
X50156800Y-39550000D01*
X50129700Y-39413500D01*
X50052300Y-39297700D01*
X49936600Y-39220300D01*
X49800000Y-39193100D01*
X49663400Y-39220300D01*
X49547600Y-39297700D01*
X49470300Y-39413500D01*
X49443100Y-39550000D01*
X49470300Y-39686600D01*
X49506900Y-39741400D01*
X49539600Y-39816000D01*
X49471400Y-39931800D01*
X49450900Y-39945500D01*
X49447100Y-39947600D01*
X49276500Y-39933900D01*
X49252300Y-39897700D01*
X49136500Y-39820300D01*
X49000000Y-39793200D01*
X48863400Y-39820300D01*
X48747700Y-39897700D01*
X48670300Y-40013500D01*
X48643100Y-40150000D01*
X48670300Y-40286600D01*
X48747700Y-40402300D01*
X48863400Y-40479700D01*
X49000000Y-40506900D01*
X49136500Y-40479700D01*
X49249100Y-40404500D01*
X49252900Y-40402400D01*
X49423500Y-40416200D01*
X49447700Y-40452400D01*
X49563400Y-40529700D01*
X49700000Y-40556900D01*
X49836600Y-40529700D01*
X49950000Y-40453900D01*
X50063400Y-40529700D01*
X50200000Y-40556900D01*
X50336500Y-40529700D01*
X50450000Y-40453900D01*
X50563400Y-40529700D01*
X50617700Y-40540500D01*
X50667100Y-40703300D01*
X50235200Y-41135200D01*
X48885200Y-42485200D01*
X48864200Y-42535800D01*
X48850000Y-42550000D01*
X48850000Y-42570200D01*
X48837600Y-42600000D01*
G37*
%TD.AperFunction*%
%TD*%
%TA.AperFunction,Conductor*%
%TO.N,MUX_VCC*%
G36*
X38205900Y-15624700D02*
G01*
X38213400Y-15629700D01*
X38303290Y-15647600D01*
X38163020Y-15647600D01*
X38205900Y-15624700D01*
G37*
%TD.AperFunction*%
%TA.AperFunction,Conductor*%
G36*
X40797100Y-15654700D02*
G01*
X40770100Y-15790800D01*
X38055900Y-15790800D01*
X38055900Y-15704800D01*
X38161140Y-15648600D01*
X38308320Y-15648600D01*
X38350000Y-15656900D01*
X38391650Y-15648600D01*
X40801180Y-15648600D01*
X40797100Y-15654700D01*
G37*
%TD.AperFunction*%
%TA.AperFunction,Conductor*%
G36*
X39257800Y-17618300D02*
G01*
X39142000Y-17695600D01*
X39064700Y-17811400D01*
X39038000Y-17945200D01*
X38904200Y-17971800D01*
X38788500Y-18049200D01*
X38711100Y-18164900D01*
X38684500Y-18298700D01*
X38550700Y-18325300D01*
X38434900Y-18402700D01*
X38357600Y-18518500D01*
X38330500Y-18654600D01*
X38055900Y-18654600D01*
X38055900Y-17594900D01*
X39375060Y-17594900D01*
X39257800Y-17618300D01*
G37*
%TD.AperFunction*%
%TA.AperFunction,Conductor*%
G36*
X40318500Y-16557600D02*
G01*
X40202700Y-16634900D01*
X40125300Y-16750700D01*
X40098700Y-16884500D01*
X39964900Y-16911100D01*
X39849100Y-16988500D01*
X39771800Y-17104300D01*
X39745100Y-17238100D01*
X39611300Y-17264700D01*
X39495600Y-17342000D01*
X39418200Y-17457800D01*
X39391600Y-17591600D01*
X39380070Y-17593900D01*
X38055900Y-17593900D01*
X38055900Y-17404800D01*
X38205900Y-17324600D01*
X38213400Y-17329700D01*
X38350000Y-17356900D01*
X38486500Y-17329700D01*
X38602300Y-17252300D01*
X38679700Y-17136600D01*
X38706800Y-17000000D01*
X38679700Y-16863500D01*
X38602300Y-16747700D01*
X38486500Y-16670300D01*
X38350000Y-16643200D01*
X38213400Y-16670300D01*
X38205900Y-16675400D01*
X38055900Y-16595200D01*
X38055900Y-16546600D01*
X40373700Y-16546600D01*
X40318500Y-16557600D01*
G37*
%TD.AperFunction*%
%TA.AperFunction,Conductor*%
G36*
X42529500Y-17457800D02*
G01*
X42502400Y-17593900D01*
X40120300Y-17593900D01*
X40238000Y-17570500D01*
X40353800Y-17493200D01*
X40386220Y-17444700D01*
X42538240Y-17444700D01*
X42529500Y-17457800D01*
G37*
%TD.AperFunction*%
%TA.AperFunction,Conductor*%
G36*
X38055900Y-18655600D02*
G01*
X38330500Y-18655600D01*
X38339250Y-18699500D01*
X38055900Y-18699500D01*
X38055900Y-18655600D01*
G37*
%TD.AperFunction*%
%TA.AperFunction,Conductor*%
G36*
X38075400Y-19675400D02*
G01*
X38643200Y-19675400D01*
X38646210Y-19690500D01*
X38090490Y-19690500D01*
X38075400Y-19675400D01*
G37*
%TD.AperFunction*%
%TA.AperFunction,Conductor*%
G36*
X42606800Y-19746200D02*
G01*
X42529500Y-19862000D01*
X42502900Y-19995800D01*
X42369000Y-20022400D01*
X42253300Y-20099800D01*
X42175900Y-20215500D01*
X42149300Y-20349400D01*
X42015500Y-20375900D01*
X41899700Y-20453300D01*
X41822400Y-20569100D01*
X41795300Y-20705200D01*
X39105140Y-20705200D01*
X38611700Y-20211800D01*
X38602300Y-20197700D01*
X38588200Y-20188300D01*
X38091490Y-19691500D01*
X38646410Y-19691500D01*
X38670300Y-19811500D01*
X38747700Y-19927200D01*
X38863400Y-20004600D01*
X39000000Y-20031700D01*
X39136500Y-20004600D01*
X39252300Y-19927200D01*
X39329700Y-19811500D01*
X39353510Y-19691500D01*
X42688740Y-19691500D01*
X42606800Y-19746200D01*
G37*
%TD.AperFunction*%
%TA.AperFunction,Conductor*%
G36*
X39887600Y-21419300D02*
G01*
X39857490Y-21413300D01*
X41088200Y-21413300D01*
X41104200Y-21493600D01*
X39998910Y-21493600D01*
X39887600Y-21419300D01*
G37*
%TD.AperFunction*%
%TA.AperFunction,Conductor*%
G36*
X43157600Y-21518000D02*
G01*
X43041800Y-21595400D01*
X42964400Y-21711200D01*
X42937800Y-21845000D01*
X42804000Y-21871600D01*
X42688300Y-21948900D01*
X42610900Y-22064700D01*
X42584300Y-22198500D01*
X42450500Y-22225100D01*
X42334700Y-22302500D01*
X42257400Y-22418300D01*
X42230700Y-22552100D01*
X42096900Y-22578700D01*
X41981100Y-22656000D01*
X41903800Y-22771800D01*
X41876700Y-22907900D01*
X41592570Y-22907900D01*
X41552300Y-22847700D01*
X41436600Y-22770300D01*
X41300000Y-22743200D01*
X41169200Y-22769200D01*
X40097700Y-21697700D01*
X40080700Y-21612400D01*
X40003400Y-21496600D01*
X40000400Y-21494600D01*
X41104400Y-21494600D01*
X41115300Y-21549300D01*
X41192600Y-21665100D01*
X41308400Y-21742500D01*
X41444900Y-21769600D01*
X41581500Y-21742500D01*
X41697300Y-21665100D01*
X41774700Y-21549300D01*
X41785560Y-21494600D01*
X43275300Y-21494600D01*
X43157600Y-21518000D01*
G37*
%TD.AperFunction*%
%TA.AperFunction,Conductor*%
G36*
X46506600Y-23646000D02*
G01*
X46429300Y-23761700D01*
X46402600Y-23895600D01*
X46268900Y-23922200D01*
X46153100Y-23999500D01*
X46075700Y-24115300D01*
X46049100Y-24249100D01*
X45915300Y-24275700D01*
X45799500Y-24353100D01*
X45722200Y-24468900D01*
X45695100Y-24604900D01*
X43004900Y-24604900D01*
X41991000Y-23591000D01*
X46588890Y-23591000D01*
X46506600Y-23646000D01*
G37*
%TD.AperFunction*%
%TA.AperFunction,Conductor*%
G36*
X43713000Y-25313000D02*
G01*
X44988000Y-25313000D01*
X45003890Y-25393100D01*
X43793100Y-25393100D01*
X43713000Y-25313000D01*
G37*
%TD.AperFunction*%
%TA.AperFunction,Conductor*%
G36*
X47061800Y-25417500D02*
G01*
X46946000Y-25494900D01*
X46868700Y-25610600D01*
X46842100Y-25744400D01*
X46708300Y-25771100D01*
X46592500Y-25848400D01*
X46515100Y-25964200D01*
X46488500Y-26098000D01*
X46354700Y-26124600D01*
X46239000Y-26202000D01*
X46161600Y-26317700D01*
X46135000Y-26451500D01*
X46001200Y-26478100D01*
X45885400Y-26555500D01*
X45808000Y-26671300D01*
X45781000Y-26807400D01*
X45542200Y-26807400D01*
X45502300Y-26747700D01*
X45386500Y-26670300D01*
X45250000Y-26643200D01*
X45113400Y-26670300D01*
X45087600Y-26687600D01*
X44842400Y-26442400D01*
X44879700Y-26386600D01*
X44906800Y-26250000D01*
X44879700Y-26113500D01*
X44802300Y-25997700D01*
X44686600Y-25920300D01*
X44550000Y-25893200D01*
X44413400Y-25920300D01*
X44357600Y-25957600D01*
X43794100Y-25394100D01*
X45004090Y-25394100D01*
X45015000Y-25449100D01*
X45092400Y-25564900D01*
X45208200Y-25642200D01*
X45344800Y-25669400D01*
X45481300Y-25642200D01*
X45597100Y-25564900D01*
X45674400Y-25449100D01*
X45685350Y-25394100D01*
X47179500Y-25394100D01*
X47061800Y-25417500D01*
G37*
%TD.AperFunction*%
%TA.AperFunction,Conductor*%
G36*
X50306900Y-27795000D02*
G01*
X50173100Y-27821700D01*
X50057300Y-27899000D01*
X49980000Y-28014800D01*
X49953300Y-28148600D01*
X49819500Y-28175200D01*
X49703800Y-28252600D01*
X49626400Y-28368300D01*
X49599400Y-28504400D01*
X46904350Y-28504400D01*
X46068980Y-27669000D01*
X50331970Y-27669000D01*
X50306900Y-27795000D01*
G37*
%TD.AperFunction*%
%TA.AperFunction,Conductor*%
G36*
X49447700Y-48747700D02*
G01*
X49370300Y-48863400D01*
X49343200Y-48999500D01*
X49000000Y-48999500D01*
X49000000Y-48700500D01*
X49518260Y-48700500D01*
X49447700Y-48747700D01*
G37*
%TD.AperFunction*%
%TA.AperFunction,Conductor*%
G36*
X49950000Y-48746100D02*
G01*
X49881720Y-48700500D01*
X50018220Y-48700500D01*
X49950000Y-48746100D01*
G37*
%TD.AperFunction*%
%TA.AperFunction,Conductor*%
G36*
X50450000Y-48746100D02*
G01*
X50381720Y-48700500D01*
X50518220Y-48700500D01*
X50450000Y-48746100D01*
G37*
%TD.AperFunction*%
%TA.AperFunction,Conductor*%
G36*
X50950000Y-48746100D02*
G01*
X50881720Y-48700500D01*
X51018220Y-48700500D01*
X50950000Y-48746100D01*
G37*
%TD.AperFunction*%
%TA.AperFunction,Conductor*%
G36*
X51450000Y-48746100D02*
G01*
X51381720Y-48700500D01*
X51518220Y-48700500D01*
X51450000Y-48746100D01*
G37*
%TD.AperFunction*%
%TA.AperFunction,Conductor*%
G36*
X51950000Y-48746100D02*
G01*
X51881720Y-48700500D01*
X52018220Y-48700500D01*
X51950000Y-48746100D01*
G37*
%TD.AperFunction*%
%TA.AperFunction,Conductor*%
G36*
X52450000Y-48746100D02*
G01*
X52381720Y-48700500D01*
X52518220Y-48700500D01*
X52450000Y-48746100D01*
G37*
%TD.AperFunction*%
%TA.AperFunction,Conductor*%
G36*
X50820300Y-46563400D02*
G01*
X50793200Y-46699500D01*
X50006700Y-46699500D01*
X49979700Y-46563400D01*
X49971070Y-46550500D01*
X50828920Y-46550500D01*
X50820300Y-46563400D01*
G37*
%TD.AperFunction*%
%TA.AperFunction,Conductor*%
G36*
X52420300Y-46563400D02*
G01*
X52393200Y-46699500D01*
X52206700Y-46699500D01*
X52179700Y-46563400D01*
X52171070Y-46550500D01*
X52428930Y-46550500D01*
X52420300Y-46563400D01*
G37*
%TD.AperFunction*%
%TA.AperFunction,Conductor*%
G36*
X47612420Y-29212500D02*
G01*
X48892300Y-29212500D01*
X48907630Y-29289800D01*
X47689710Y-29289800D01*
X47612420Y-29212500D01*
G37*
%TD.AperFunction*%
%TA.AperFunction,Conductor*%
G36*
X49000000Y-45649500D02*
G01*
X49000000Y-45550900D01*
X49150000Y-45470700D01*
X49163400Y-45479700D01*
X49300000Y-45506900D01*
X49436600Y-45479700D01*
X49552300Y-45402300D01*
X49629700Y-45286600D01*
X49656900Y-45150000D01*
X49629700Y-45013400D01*
X49552300Y-44897700D01*
X49436600Y-44820300D01*
X49300000Y-44793200D01*
X49163400Y-44820300D01*
X49150000Y-44829300D01*
X49000000Y-44749100D01*
X49000000Y-44530800D01*
X54298000Y-44530800D01*
X54325000Y-44666900D01*
X54402400Y-44782600D01*
X54518200Y-44860000D01*
X54654700Y-44887100D01*
X54791300Y-44860000D01*
X54907000Y-44782600D01*
X54984400Y-44666900D01*
X55011600Y-44530300D01*
X54984400Y-44393700D01*
X54907000Y-44278000D01*
X54791300Y-44200600D01*
X54654700Y-44173400D01*
X54518200Y-44200600D01*
X54402400Y-44278000D01*
X54325000Y-44393700D01*
X54298000Y-44529800D01*
X49000000Y-44529800D01*
X49000000Y-44100500D01*
X49843200Y-44100500D01*
X49870300Y-44236600D01*
X49947700Y-44352400D01*
X50063400Y-44429700D01*
X50200000Y-44456900D01*
X50336500Y-44429700D01*
X50452300Y-44352400D01*
X50529700Y-44236600D01*
X50556800Y-44100500D01*
X50843200Y-44100500D01*
X50870300Y-44236600D01*
X50947700Y-44352400D01*
X51063400Y-44429700D01*
X51200000Y-44456900D01*
X51336500Y-44429700D01*
X51450000Y-44353900D01*
X51563400Y-44429700D01*
X51700000Y-44456900D01*
X51836500Y-44429700D01*
X51950000Y-44353900D01*
X52063400Y-44429700D01*
X52200000Y-44456900D01*
X52336600Y-44429700D01*
X52450000Y-44353900D01*
X52563400Y-44429700D01*
X52700000Y-44456900D01*
X52836500Y-44429700D01*
X52952300Y-44352400D01*
X53029700Y-44236600D01*
X53056900Y-44100000D01*
X53029700Y-43963400D01*
X52952300Y-43847700D01*
X52836500Y-43770300D01*
X52700000Y-43743200D01*
X52563400Y-43770300D01*
X52450000Y-43846100D01*
X52336600Y-43770300D01*
X52200000Y-43743200D01*
X52063400Y-43770300D01*
X51950000Y-43846100D01*
X51836500Y-43770300D01*
X51700000Y-43743200D01*
X51563400Y-43770300D01*
X51450000Y-43846100D01*
X51336500Y-43770300D01*
X51200000Y-43743200D01*
X51063400Y-43770300D01*
X50947700Y-43847700D01*
X50870300Y-43963400D01*
X50843200Y-44099500D01*
X50556800Y-44099500D01*
X50529700Y-43963400D01*
X50452300Y-43847700D01*
X50336500Y-43770300D01*
X50200000Y-43743200D01*
X50063400Y-43770300D01*
X49947700Y-43847700D01*
X49870300Y-43963400D01*
X49843200Y-44099500D01*
X49000000Y-44099500D01*
X49000000Y-43260800D01*
X54298000Y-43260800D01*
X54325000Y-43396900D01*
X54402400Y-43512600D01*
X54518200Y-43590000D01*
X54654700Y-43617200D01*
X54791300Y-43590000D01*
X54907000Y-43512600D01*
X54984400Y-43396900D01*
X55011600Y-43260300D01*
X54984400Y-43123700D01*
X54907000Y-43008000D01*
X54791300Y-42930600D01*
X54654700Y-42903400D01*
X54518200Y-42930600D01*
X54402400Y-43008000D01*
X54325000Y-43123700D01*
X54298000Y-43259800D01*
X49000000Y-43259800D01*
X49000000Y-42600000D01*
X49199500Y-42400500D01*
X53543300Y-42400500D01*
X53570300Y-42536600D01*
X53647700Y-42652300D01*
X53763400Y-42729700D01*
X53900000Y-42756900D01*
X54036600Y-42729700D01*
X54152300Y-42652300D01*
X54229700Y-42536600D01*
X54256900Y-42400000D01*
X54229700Y-42263500D01*
X54152300Y-42147700D01*
X54036600Y-42070300D01*
X53900000Y-42043200D01*
X53763400Y-42070300D01*
X53647700Y-42147700D01*
X53570300Y-42263500D01*
X53543300Y-42399500D01*
X49200500Y-42399500D01*
X49609200Y-41990800D01*
X54298000Y-41990800D01*
X54325000Y-42126900D01*
X54402400Y-42242600D01*
X54518200Y-42320000D01*
X54654700Y-42347100D01*
X54791300Y-42320000D01*
X54907000Y-42242600D01*
X54984400Y-42126900D01*
X55011600Y-41990300D01*
X54984400Y-41853700D01*
X54907000Y-41737900D01*
X54791300Y-41660600D01*
X54654700Y-41633400D01*
X54518200Y-41660600D01*
X54402400Y-41737900D01*
X54325000Y-41853700D01*
X54298000Y-41989800D01*
X49610200Y-41989800D01*
X50350000Y-41250000D01*
X50879270Y-40720800D01*
X54298000Y-40720800D01*
X54325000Y-40856900D01*
X54402400Y-40972600D01*
X54518200Y-41050000D01*
X54654700Y-41077100D01*
X54791300Y-41050000D01*
X54907000Y-40972600D01*
X54984400Y-40856900D01*
X55011600Y-40720300D01*
X54984400Y-40583700D01*
X54907000Y-40468000D01*
X54791300Y-40390600D01*
X54654700Y-40363400D01*
X54518200Y-40390600D01*
X54402400Y-40468000D01*
X54325000Y-40583700D01*
X54298000Y-40719800D01*
X50880270Y-40719800D01*
X51069200Y-40530900D01*
X51200000Y-40556900D01*
X51336500Y-40529700D01*
X51450000Y-40453900D01*
X51563400Y-40529700D01*
X51700000Y-40556900D01*
X51836500Y-40529700D01*
X51950000Y-40453900D01*
X52063400Y-40529700D01*
X52200000Y-40556900D01*
X52336500Y-40529700D01*
X52450000Y-40453900D01*
X52563400Y-40529700D01*
X52700000Y-40556900D01*
X52836500Y-40529700D01*
X52952300Y-40452400D01*
X53029700Y-40336600D01*
X53056900Y-40200000D01*
X53029700Y-40063400D01*
X52952300Y-39947700D01*
X52836500Y-39870300D01*
X52700000Y-39843200D01*
X52563400Y-39870300D01*
X52450000Y-39946100D01*
X52336500Y-39870300D01*
X52200000Y-39843200D01*
X52063400Y-39870300D01*
X52046500Y-39881700D01*
X51959900Y-39845500D01*
X51926100Y-39673800D01*
X51949400Y-39650500D01*
X53543200Y-39650500D01*
X53570300Y-39786600D01*
X53647600Y-39902300D01*
X53763400Y-39979700D01*
X53900000Y-40006900D01*
X54036600Y-39979700D01*
X54152300Y-39902300D01*
X54229700Y-39786600D01*
X54240800Y-39730800D01*
X54400000Y-39699100D01*
X54402400Y-39702600D01*
X54518200Y-39780000D01*
X54654700Y-39807200D01*
X54791300Y-39780000D01*
X54907000Y-39702600D01*
X54984400Y-39586900D01*
X55011600Y-39450300D01*
X54984400Y-39313700D01*
X54907000Y-39198000D01*
X54791300Y-39120600D01*
X54654700Y-39093400D01*
X54518200Y-39120600D01*
X54402400Y-39198000D01*
X54325000Y-39313700D01*
X54313900Y-39369500D01*
X54154700Y-39401200D01*
X54152300Y-39397700D01*
X54036600Y-39320300D01*
X53900000Y-39293200D01*
X53763400Y-39320300D01*
X53647600Y-39397700D01*
X53570300Y-39513500D01*
X53543200Y-39649500D01*
X51950400Y-39649500D01*
X53419190Y-38180800D01*
X54298000Y-38180800D01*
X54325000Y-38316900D01*
X54402400Y-38432600D01*
X54518200Y-38510000D01*
X54654700Y-38537100D01*
X54791300Y-38510000D01*
X54907000Y-38432600D01*
X54984400Y-38316900D01*
X55011600Y-38180300D01*
X54984400Y-38043700D01*
X54907000Y-37927900D01*
X54791300Y-37850600D01*
X54654700Y-37823400D01*
X54518200Y-37850600D01*
X54402400Y-37927900D01*
X54325000Y-38043700D01*
X54298000Y-38179800D01*
X53420190Y-38179800D01*
X53650000Y-37950000D01*
X53650000Y-36910800D01*
X54298000Y-36910800D01*
X54325000Y-37046800D01*
X54402400Y-37162600D01*
X54518200Y-37240000D01*
X54654700Y-37267200D01*
X54791300Y-37240000D01*
X54907000Y-37162600D01*
X54984400Y-37046800D01*
X55011600Y-36910300D01*
X54984400Y-36773700D01*
X54907000Y-36658000D01*
X54791300Y-36580600D01*
X54654700Y-36553400D01*
X54518200Y-36580600D01*
X54402400Y-36658000D01*
X54325000Y-36773700D01*
X54298000Y-36909800D01*
X53650000Y-36909800D01*
X53650000Y-35640800D01*
X54298000Y-35640800D01*
X54325000Y-35776900D01*
X54402400Y-35892600D01*
X54518200Y-35970000D01*
X54654700Y-35997200D01*
X54791300Y-35970000D01*
X54907000Y-35892600D01*
X54984400Y-35776900D01*
X55011600Y-35640300D01*
X54984400Y-35503700D01*
X54907000Y-35388000D01*
X54791300Y-35310600D01*
X54654700Y-35283400D01*
X54518200Y-35310600D01*
X54402400Y-35388000D01*
X54325000Y-35503700D01*
X54298000Y-35639800D01*
X53650000Y-35639800D01*
X53650000Y-34370800D01*
X54298000Y-34370800D01*
X54325000Y-34506900D01*
X54402400Y-34622600D01*
X54518200Y-34700000D01*
X54654700Y-34727100D01*
X54791300Y-34700000D01*
X54907000Y-34622600D01*
X54984400Y-34506900D01*
X55011600Y-34370300D01*
X54984400Y-34233700D01*
X54907000Y-34118000D01*
X54791300Y-34040600D01*
X54654700Y-34013400D01*
X54518200Y-34040600D01*
X54402400Y-34118000D01*
X54325000Y-34233700D01*
X54298000Y-34369800D01*
X53650000Y-34369800D01*
X53650000Y-33100800D01*
X54298000Y-33100800D01*
X54325000Y-33236800D01*
X54402400Y-33352600D01*
X54518200Y-33430000D01*
X54654700Y-33457200D01*
X54791300Y-33430000D01*
X54907000Y-33352600D01*
X54984400Y-33236800D01*
X55011600Y-33100300D01*
X54984400Y-32963700D01*
X54907000Y-32848000D01*
X54791300Y-32770600D01*
X54654700Y-32743400D01*
X54518200Y-32770600D01*
X54402400Y-32848000D01*
X54325000Y-32963700D01*
X54298000Y-33099800D01*
X53650000Y-33099800D01*
X53650000Y-33000000D01*
X52480800Y-31830800D01*
X54298000Y-31830800D01*
X54325000Y-31966900D01*
X54402400Y-32082600D01*
X54518200Y-32160000D01*
X54654700Y-32187200D01*
X54791300Y-32160000D01*
X54907000Y-32082600D01*
X54984400Y-31966900D01*
X55011600Y-31830300D01*
X54984400Y-31693700D01*
X54907000Y-31577900D01*
X54791300Y-31500600D01*
X54654700Y-31473400D01*
X54518200Y-31500600D01*
X54402400Y-31577900D01*
X54325000Y-31693700D01*
X54298000Y-31829800D01*
X52479800Y-31829800D01*
X51210800Y-30560800D01*
X54298000Y-30560800D01*
X54325000Y-30696900D01*
X54402400Y-30812600D01*
X54518200Y-30890000D01*
X54654700Y-30917100D01*
X54791300Y-30890000D01*
X54907000Y-30812600D01*
X54984400Y-30696900D01*
X55011600Y-30560300D01*
X54984400Y-30423700D01*
X54907000Y-30308000D01*
X54791300Y-30230600D01*
X54654700Y-30203400D01*
X54518200Y-30230600D01*
X54402400Y-30308000D01*
X54325000Y-30423700D01*
X54298000Y-30559800D01*
X51209800Y-30559800D01*
X51052300Y-30402300D01*
X51129700Y-30286600D01*
X51156800Y-30150000D01*
X51129700Y-30013500D01*
X51052300Y-29897700D01*
X50936600Y-29820300D01*
X50800000Y-29793200D01*
X50663400Y-29820300D01*
X50547600Y-29897700D01*
X50470300Y-30013500D01*
X50463000Y-30050000D01*
X49187000Y-30050000D01*
X49179700Y-30013500D01*
X49102300Y-29897700D01*
X48986500Y-29820300D01*
X48850000Y-29793200D01*
X48713400Y-29820300D01*
X48557000Y-29795700D01*
X48479600Y-29679900D01*
X48363800Y-29602500D01*
X48227300Y-29575400D01*
X48090700Y-29602500D01*
X48037800Y-29637900D01*
X47690710Y-29290800D01*
X48907830Y-29290800D01*
X48919300Y-29348600D01*
X48996700Y-29464400D01*
X49112400Y-29541700D01*
X49249000Y-29568900D01*
X49385600Y-29541700D01*
X49501300Y-29464400D01*
X49578700Y-29348600D01*
X49590210Y-29290800D01*
X54298000Y-29290800D01*
X54325000Y-29426800D01*
X54402400Y-29542600D01*
X54518200Y-29620000D01*
X54654700Y-29647200D01*
X54791300Y-29620000D01*
X54907000Y-29542600D01*
X54984400Y-29426800D01*
X55011600Y-29290300D01*
X54984400Y-29153700D01*
X54907000Y-29038000D01*
X54791300Y-28960600D01*
X54654700Y-28933400D01*
X54518200Y-28960600D01*
X54402400Y-29038000D01*
X54325000Y-29153700D01*
X54298000Y-29289800D01*
X49590410Y-29289800D01*
X49605900Y-29212000D01*
X49578700Y-29075500D01*
X49501300Y-28959700D01*
X49385600Y-28882300D01*
X49249000Y-28855200D01*
X49112400Y-28882300D01*
X48996700Y-28959700D01*
X48919300Y-29075500D01*
X48892300Y-29211500D01*
X47611420Y-29211500D01*
X46905350Y-28505400D01*
X49599400Y-28505400D01*
X49626400Y-28641500D01*
X49703800Y-28757300D01*
X49819500Y-28834600D01*
X49956100Y-28861800D01*
X50092700Y-28834600D01*
X50208400Y-28757300D01*
X50285800Y-28641500D01*
X50312400Y-28507700D01*
X50446200Y-28481000D01*
X50562000Y-28403700D01*
X50639300Y-28287900D01*
X50666000Y-28154100D01*
X50799800Y-28127500D01*
X50915600Y-28050100D01*
X50992900Y-27934400D01*
X51019500Y-27800600D01*
X51153300Y-27773900D01*
X51269100Y-27696600D01*
X51287550Y-27669000D01*
X53165700Y-27669000D01*
X53192800Y-27805100D01*
X53270100Y-27920800D01*
X53385900Y-27998200D01*
X53522500Y-28025400D01*
X53659000Y-27998200D01*
X53774800Y-27920800D01*
X53852200Y-27805100D01*
X53879300Y-27668500D01*
X53852200Y-27532000D01*
X53774800Y-27416200D01*
X53659000Y-27338800D01*
X53522500Y-27311600D01*
X53385900Y-27338800D01*
X53270100Y-27416200D01*
X53192800Y-27532000D01*
X53165700Y-27668000D01*
X51288220Y-27668000D01*
X51346500Y-27580800D01*
X51373600Y-27444200D01*
X51346500Y-27307700D01*
X51269100Y-27191900D01*
X51153300Y-27114600D01*
X51016800Y-27087400D01*
X50880200Y-27114600D01*
X50764400Y-27191900D01*
X50687100Y-27307700D01*
X50660500Y-27441500D01*
X50526600Y-27468100D01*
X50410900Y-27545500D01*
X50333500Y-27661300D01*
X50332170Y-27668000D01*
X46067980Y-27668000D01*
X45562400Y-27162400D01*
X45579700Y-27136600D01*
X45606800Y-27000000D01*
X45579700Y-26863500D01*
X45542870Y-26808400D01*
X45781000Y-26808400D01*
X45808000Y-26944400D01*
X45885400Y-27060200D01*
X46001200Y-27137500D01*
X46137700Y-27164700D01*
X46274300Y-27137500D01*
X46390100Y-27060200D01*
X46467400Y-26944400D01*
X46494000Y-26810600D01*
X46627800Y-26784000D01*
X46647250Y-26771000D01*
X52767700Y-26771000D01*
X52794800Y-26907000D01*
X52872100Y-27022800D01*
X52987900Y-27100200D01*
X53124500Y-27127300D01*
X53261000Y-27100200D01*
X53376800Y-27022800D01*
X53454100Y-26907000D01*
X53481300Y-26770500D01*
X53454100Y-26633900D01*
X53376800Y-26518200D01*
X53261000Y-26440800D01*
X53124500Y-26413600D01*
X52987900Y-26440800D01*
X52872100Y-26518200D01*
X52794800Y-26633900D01*
X52767700Y-26770000D01*
X46648750Y-26770000D01*
X46743600Y-26706600D01*
X46821000Y-26590900D01*
X46847600Y-26457100D01*
X46981400Y-26430500D01*
X47097200Y-26353100D01*
X47174500Y-26237300D01*
X47201100Y-26103500D01*
X47335000Y-26076900D01*
X47450700Y-25999500D01*
X47528100Y-25883800D01*
X47530250Y-25873000D01*
X51869700Y-25873000D01*
X51896700Y-26009000D01*
X51974100Y-26124800D01*
X52089900Y-26202100D01*
X52226400Y-26229300D01*
X52363000Y-26202100D01*
X52478800Y-26124800D01*
X52556100Y-26009000D01*
X52583300Y-25872500D01*
X52556100Y-25735900D01*
X52478800Y-25620100D01*
X52363000Y-25542800D01*
X52226400Y-25515600D01*
X52089900Y-25542800D01*
X51974100Y-25620100D01*
X51896700Y-25735900D01*
X51869700Y-25872000D01*
X47530440Y-25872000D01*
X47554700Y-25749900D01*
X47688500Y-25723300D01*
X47804300Y-25646000D01*
X47881700Y-25530200D01*
X47908300Y-25396400D01*
X47919870Y-25394100D01*
X50306400Y-25394100D01*
X50333500Y-25530200D01*
X50410900Y-25646000D01*
X50526600Y-25723300D01*
X50663200Y-25750500D01*
X50799800Y-25723300D01*
X50915600Y-25646000D01*
X50992900Y-25530200D01*
X51020100Y-25393600D01*
X51014600Y-25366100D01*
X51149600Y-25275900D01*
X51191800Y-25304100D01*
X51328400Y-25331300D01*
X51465000Y-25304100D01*
X51580700Y-25226800D01*
X51658100Y-25111000D01*
X51685300Y-24974400D01*
X51658100Y-24837900D01*
X51580700Y-24722100D01*
X51465000Y-24644700D01*
X51328400Y-24617600D01*
X51191800Y-24644700D01*
X51076000Y-24722100D01*
X50998700Y-24837900D01*
X50971500Y-24974400D01*
X50977000Y-25002000D01*
X50842000Y-25092200D01*
X50799800Y-25064000D01*
X50663200Y-25036800D01*
X50526600Y-25064000D01*
X50410900Y-25141300D01*
X50333500Y-25257100D01*
X50306400Y-25393100D01*
X47924900Y-25393100D01*
X48042100Y-25369800D01*
X48157800Y-25292400D01*
X48235200Y-25176600D01*
X48261800Y-25042800D01*
X48395600Y-25016200D01*
X48511400Y-24938900D01*
X48588700Y-24823100D01*
X48615900Y-24686600D01*
X48588700Y-24550000D01*
X48511400Y-24434200D01*
X48395600Y-24356800D01*
X48259100Y-24329700D01*
X48122500Y-24356800D01*
X48006700Y-24434200D01*
X47929400Y-24550000D01*
X47902700Y-24683800D01*
X47769000Y-24710400D01*
X47653200Y-24787800D01*
X47575800Y-24903500D01*
X47549200Y-25037300D01*
X47415400Y-25064000D01*
X47299600Y-25141300D01*
X47222300Y-25257100D01*
X47195600Y-25390900D01*
X47184530Y-25393100D01*
X45685550Y-25393100D01*
X45701600Y-25312500D01*
X45674400Y-25176000D01*
X45597100Y-25060200D01*
X45481300Y-24982800D01*
X45344800Y-24955700D01*
X45208200Y-24982800D01*
X45092400Y-25060200D01*
X45015000Y-25176000D01*
X44988000Y-25312000D01*
X43712000Y-25312000D01*
X43005900Y-24605900D01*
X45695100Y-24605900D01*
X45722200Y-24742000D01*
X45799500Y-24857800D01*
X45915300Y-24935100D01*
X46051900Y-24962300D01*
X46188400Y-24935100D01*
X46304200Y-24857800D01*
X46381600Y-24742000D01*
X46408200Y-24608200D01*
X46542000Y-24581600D01*
X46657700Y-24504200D01*
X46735100Y-24388400D01*
X46761700Y-24254600D01*
X46895500Y-24228000D01*
X47011300Y-24150700D01*
X47060630Y-24076900D01*
X50073600Y-24076900D01*
X50100700Y-24213000D01*
X50178000Y-24328700D01*
X50293800Y-24406100D01*
X50430400Y-24433300D01*
X50566900Y-24406100D01*
X50682700Y-24328700D01*
X50760100Y-24213000D01*
X50787200Y-24076400D01*
X50760100Y-23939800D01*
X50682700Y-23824100D01*
X50566900Y-23746700D01*
X50430400Y-23719500D01*
X50293800Y-23746700D01*
X50178000Y-23824100D01*
X50100700Y-23939800D01*
X50073600Y-24075900D01*
X47061300Y-24075900D01*
X47088700Y-24034900D01*
X47115300Y-23901100D01*
X47249100Y-23874500D01*
X47364800Y-23797100D01*
X47442200Y-23681300D01*
X47460190Y-23591000D01*
X48574100Y-23591000D01*
X48601200Y-23727100D01*
X48678500Y-23842900D01*
X48794300Y-23920200D01*
X48930800Y-23947400D01*
X49067400Y-23920200D01*
X49183200Y-23842900D01*
X49260500Y-23727100D01*
X49283200Y-23613300D01*
X49336600Y-23563300D01*
X49425400Y-23514000D01*
X49532300Y-23535200D01*
X49668900Y-23508100D01*
X49784700Y-23430700D01*
X49862000Y-23314900D01*
X49889200Y-23178400D01*
X49862000Y-23041800D01*
X49784700Y-22926100D01*
X49668900Y-22848700D01*
X49532300Y-22821500D01*
X49395800Y-22848700D01*
X49280000Y-22926100D01*
X49202700Y-23041800D01*
X49180000Y-23155600D01*
X49126600Y-23205600D01*
X49037800Y-23254900D01*
X48930800Y-23233700D01*
X48794300Y-23260800D01*
X48678500Y-23338200D01*
X48601200Y-23453900D01*
X48574100Y-23590000D01*
X47460390Y-23590000D01*
X47469400Y-23544800D01*
X47442200Y-23408200D01*
X47364800Y-23292400D01*
X47249100Y-23215100D01*
X47112500Y-23187900D01*
X46976000Y-23215100D01*
X46860200Y-23292400D01*
X46782800Y-23408200D01*
X46756200Y-23542000D01*
X46622400Y-23568600D01*
X46590380Y-23590000D01*
X41990000Y-23590000D01*
X41630800Y-23230800D01*
X41656900Y-23100000D01*
X41629700Y-22963400D01*
X41593240Y-22908900D01*
X41876700Y-22908900D01*
X41903800Y-23044900D01*
X41981100Y-23160700D01*
X42096900Y-23238100D01*
X42233500Y-23265200D01*
X42370100Y-23238100D01*
X42485800Y-23160700D01*
X42563200Y-23044900D01*
X42589800Y-22911100D01*
X42723600Y-22884500D01*
X42839400Y-22807200D01*
X42916700Y-22691400D01*
X42943400Y-22557600D01*
X43077100Y-22530900D01*
X43192900Y-22453600D01*
X43270300Y-22337800D01*
X43281610Y-22280900D01*
X48277600Y-22280900D01*
X48304600Y-22416900D01*
X48382000Y-22532700D01*
X48497800Y-22610000D01*
X48634300Y-22637200D01*
X48770900Y-22610000D01*
X48886700Y-22532700D01*
X48964000Y-22416900D01*
X48991200Y-22280400D01*
X48964000Y-22143800D01*
X48886700Y-22028000D01*
X48770900Y-21950700D01*
X48634300Y-21923500D01*
X48497800Y-21950700D01*
X48382000Y-22028000D01*
X48304600Y-22143800D01*
X48277600Y-22279900D01*
X43281810Y-22279900D01*
X43296900Y-22204000D01*
X43430700Y-22177400D01*
X43546500Y-22100000D01*
X43623800Y-21984300D01*
X43650500Y-21850500D01*
X43784300Y-21823900D01*
X43900000Y-21746500D01*
X43977400Y-21630700D01*
X44004000Y-21496900D01*
X44015570Y-21494600D01*
X46402200Y-21494600D01*
X46429300Y-21630700D01*
X46506600Y-21746500D01*
X46622400Y-21823900D01*
X46759000Y-21851000D01*
X46895500Y-21823900D01*
X47011300Y-21746500D01*
X47088700Y-21630700D01*
X47115800Y-21494200D01*
X47151100Y-21452800D01*
X47247300Y-21386400D01*
X47350000Y-21406900D01*
X47393100Y-21450000D01*
X47420300Y-21586600D01*
X47497700Y-21702400D01*
X47613400Y-21779700D01*
X47750000Y-21806900D01*
X47886500Y-21779700D01*
X48002300Y-21702400D01*
X48079700Y-21586600D01*
X48106800Y-21450000D01*
X48079700Y-21313400D01*
X48002300Y-21197700D01*
X47886500Y-21120300D01*
X47750000Y-21093200D01*
X47706800Y-21050000D01*
X47679700Y-20913500D01*
X47602300Y-20797700D01*
X47486500Y-20720300D01*
X47350000Y-20693100D01*
X47213400Y-20720300D01*
X47097700Y-20797700D01*
X47020300Y-20913500D01*
X46993100Y-21050000D01*
X46957900Y-21091400D01*
X46861600Y-21157700D01*
X46759000Y-21137300D01*
X46622400Y-21164500D01*
X46506600Y-21241800D01*
X46429300Y-21357600D01*
X46402200Y-21493600D01*
X44020600Y-21493600D01*
X44137800Y-21470300D01*
X44253600Y-21392900D01*
X44331000Y-21277200D01*
X44357600Y-21143400D01*
X44491400Y-21116800D01*
X44607100Y-21039400D01*
X44684500Y-20923600D01*
X44711700Y-20787000D01*
X44684500Y-20650500D01*
X44607100Y-20534700D01*
X44491400Y-20457400D01*
X44354800Y-20430200D01*
X44218200Y-20457400D01*
X44102500Y-20534700D01*
X44025100Y-20650500D01*
X43998500Y-20784300D01*
X43864700Y-20810900D01*
X43748900Y-20888300D01*
X43671600Y-21004000D01*
X43644900Y-21137800D01*
X43511100Y-21164500D01*
X43395400Y-21241800D01*
X43318000Y-21357600D01*
X43291400Y-21491400D01*
X43280330Y-21493600D01*
X41785760Y-21493600D01*
X41801800Y-21412800D01*
X41774700Y-21276200D01*
X41697300Y-21160400D01*
X41581500Y-21083100D01*
X41444900Y-21055900D01*
X41308400Y-21083100D01*
X41192600Y-21160400D01*
X41115300Y-21276200D01*
X41088200Y-21412300D01*
X39852480Y-21412300D01*
X39802300Y-21402300D01*
X39106140Y-20706200D01*
X41795300Y-20706200D01*
X41822400Y-20842200D01*
X41899700Y-20958000D01*
X42015500Y-21035300D01*
X42152100Y-21062500D01*
X42288600Y-21035300D01*
X42404400Y-20958000D01*
X42481800Y-20842200D01*
X42508400Y-20708400D01*
X42642200Y-20681800D01*
X42758000Y-20604400D01*
X42835300Y-20488700D01*
X42861900Y-20354900D01*
X42995700Y-20328200D01*
X43111500Y-20250900D01*
X43186490Y-20138700D01*
X46135400Y-20138700D01*
X46162500Y-20274800D01*
X46239800Y-20390600D01*
X46355600Y-20467900D01*
X46492200Y-20495100D01*
X46628800Y-20467900D01*
X46744500Y-20390600D01*
X46821900Y-20274800D01*
X46849000Y-20138200D01*
X46821900Y-20001600D01*
X46744500Y-19885900D01*
X46628800Y-19808500D01*
X46492200Y-19781400D01*
X46355600Y-19808500D01*
X46239800Y-19885900D01*
X46162500Y-20001600D01*
X46135400Y-20137700D01*
X43187160Y-20137700D01*
X43188900Y-20135100D01*
X43215500Y-20001300D01*
X43349300Y-19974700D01*
X43465100Y-19897300D01*
X43542400Y-19781600D01*
X43560340Y-19691500D01*
X44669800Y-19691500D01*
X44696900Y-19827600D01*
X44774300Y-19943400D01*
X44890000Y-20020700D01*
X45026600Y-20047900D01*
X45163200Y-20020700D01*
X45278900Y-19943400D01*
X45356300Y-19827600D01*
X45383500Y-19691000D01*
X45389900Y-19680600D01*
X45514600Y-19581200D01*
X45594100Y-19597000D01*
X45730700Y-19569900D01*
X45846500Y-19492500D01*
X45923900Y-19376700D01*
X45951000Y-19240200D01*
X45923900Y-19103600D01*
X45846500Y-18987900D01*
X45730700Y-18910500D01*
X45594100Y-18883300D01*
X45457600Y-18910500D01*
X45341800Y-18987900D01*
X45264500Y-19103600D01*
X45237300Y-19240200D01*
X45230900Y-19250600D01*
X45106200Y-19350000D01*
X45026600Y-19334200D01*
X44890000Y-19361300D01*
X44774300Y-19438700D01*
X44696900Y-19554500D01*
X44669800Y-19690500D01*
X43560540Y-19690500D01*
X43569600Y-19645000D01*
X43542400Y-19508400D01*
X43465100Y-19392700D01*
X43349300Y-19315300D01*
X43212700Y-19288100D01*
X43076200Y-19315300D01*
X42960400Y-19392700D01*
X42883000Y-19508400D01*
X42856400Y-19642200D01*
X42722600Y-19668900D01*
X42690240Y-19690500D01*
X39353710Y-19690500D01*
X39356800Y-19674900D01*
X39329700Y-19538300D01*
X39252300Y-19422500D01*
X39136500Y-19345200D01*
X39000000Y-19318000D01*
X38863400Y-19345200D01*
X38747700Y-19422500D01*
X38670300Y-19538300D01*
X38643200Y-19674400D01*
X38074400Y-19674400D01*
X38055900Y-19655900D01*
X38055900Y-18700500D01*
X38339450Y-18700500D01*
X38357600Y-18791600D01*
X38434900Y-18907400D01*
X38550700Y-18984700D01*
X38687300Y-19011900D01*
X38823800Y-18984700D01*
X38939600Y-18907400D01*
X39016900Y-18791600D01*
X39035010Y-18700500D01*
X43593200Y-18700500D01*
X43620300Y-18836600D01*
X43697700Y-18952400D01*
X43813400Y-19029700D01*
X43950000Y-19056900D01*
X44086500Y-19029700D01*
X44202300Y-18952400D01*
X44279700Y-18836600D01*
X44306900Y-18700000D01*
X44295400Y-18642400D01*
X44436700Y-18583900D01*
X44443800Y-18594500D01*
X44559600Y-18671900D01*
X44696100Y-18699000D01*
X44832700Y-18671900D01*
X44948500Y-18594500D01*
X45025800Y-18478700D01*
X45053000Y-18342200D01*
X45025800Y-18205600D01*
X44948500Y-18089800D01*
X44832700Y-18012500D01*
X44696100Y-17985300D01*
X44559600Y-18012500D01*
X44443800Y-18089800D01*
X44366500Y-18205600D01*
X44339300Y-18342200D01*
X44350700Y-18399800D01*
X44209400Y-18458300D01*
X44202300Y-18447700D01*
X44086500Y-18370300D01*
X43950000Y-18343200D01*
X43813400Y-18370300D01*
X43697700Y-18447700D01*
X43620300Y-18563400D01*
X43593200Y-18699500D01*
X39035210Y-18699500D01*
X39043500Y-18657800D01*
X39177400Y-18631200D01*
X39293200Y-18553800D01*
X39370500Y-18438000D01*
X39397100Y-18304300D01*
X39530900Y-18277600D01*
X39646700Y-18200300D01*
X39724100Y-18084500D01*
X39750700Y-17950700D01*
X39884500Y-17924100D01*
X40000200Y-17846700D01*
X40077600Y-17731000D01*
X40104200Y-17597100D01*
X40115270Y-17594900D01*
X42502400Y-17594900D01*
X42529500Y-17730900D01*
X42606800Y-17846700D01*
X42722600Y-17924100D01*
X42859200Y-17951200D01*
X42995700Y-17924100D01*
X43111500Y-17846700D01*
X43188900Y-17730900D01*
X43216000Y-17594400D01*
X43188900Y-17457800D01*
X43180140Y-17444700D01*
X43441400Y-17444700D01*
X43468400Y-17580700D01*
X43545800Y-17696500D01*
X43661500Y-17773800D01*
X43798100Y-17801000D01*
X43934700Y-17773800D01*
X44050400Y-17696500D01*
X44127800Y-17580700D01*
X44155000Y-17444200D01*
X44127800Y-17307600D01*
X44050400Y-17191800D01*
X43934700Y-17114400D01*
X43798100Y-17087300D01*
X43661500Y-17114400D01*
X43545800Y-17191800D01*
X43468400Y-17307600D01*
X43441400Y-17443700D01*
X43179480Y-17443700D01*
X43111500Y-17342000D01*
X42995700Y-17264700D01*
X42859200Y-17237500D01*
X42722600Y-17264700D01*
X42606800Y-17342000D01*
X42538910Y-17443700D01*
X40386890Y-17443700D01*
X40431200Y-17377400D01*
X40457800Y-17243600D01*
X40591600Y-17217000D01*
X40707300Y-17139600D01*
X40784700Y-17023800D01*
X40811900Y-16887300D01*
X40784700Y-16750700D01*
X40707300Y-16634900D01*
X40591600Y-16557600D01*
X40536360Y-16546600D01*
X42543300Y-16546600D01*
X42570400Y-16682700D01*
X42647700Y-16798500D01*
X42763500Y-16875800D01*
X42900100Y-16903000D01*
X43036700Y-16875800D01*
X43152400Y-16798500D01*
X43229800Y-16682700D01*
X43256900Y-16546100D01*
X43229800Y-16409500D01*
X43152400Y-16293800D01*
X43036700Y-16216400D01*
X42900100Y-16189300D01*
X42763500Y-16216400D01*
X42647700Y-16293800D01*
X42570400Y-16409500D01*
X42543300Y-16545600D01*
X40531340Y-16545600D01*
X40455000Y-16530400D01*
X40378720Y-16545600D01*
X38055900Y-16545600D01*
X38055900Y-15791800D01*
X40770100Y-15791800D01*
X40797100Y-15927800D01*
X40874500Y-16043600D01*
X40990300Y-16120900D01*
X41126800Y-16148100D01*
X41263400Y-16120900D01*
X41379200Y-16043600D01*
X41456500Y-15927800D01*
X41483700Y-15791300D01*
X41456500Y-15654700D01*
X41452430Y-15648600D01*
X41645300Y-15648600D01*
X41672400Y-15784600D01*
X41749700Y-15900400D01*
X41865500Y-15977800D01*
X42002000Y-16004900D01*
X42138600Y-15977800D01*
X42254400Y-15900400D01*
X42331700Y-15784600D01*
X42358900Y-15648100D01*
X42331700Y-15511500D01*
X42254400Y-15395800D01*
X42138600Y-15318400D01*
X42002000Y-15291200D01*
X41865500Y-15318400D01*
X41749700Y-15395800D01*
X41672400Y-15511500D01*
X41645300Y-15647600D01*
X41451760Y-15647600D01*
X41379200Y-15538900D01*
X41263400Y-15461600D01*
X41126800Y-15434400D01*
X40990300Y-15461600D01*
X40874500Y-15538900D01*
X40801850Y-15647600D01*
X38396670Y-15647600D01*
X38486500Y-15629700D01*
X38602300Y-15552300D01*
X38679700Y-15436600D01*
X38706800Y-15300000D01*
X38679700Y-15163500D01*
X38602300Y-15047700D01*
X38486500Y-14970300D01*
X38350000Y-14943100D01*
X38213400Y-14970300D01*
X38205900Y-14975400D01*
X38055900Y-14895200D01*
X38055900Y-14750600D01*
X40747300Y-14750600D01*
X40774300Y-14886600D01*
X40851700Y-15002400D01*
X40967500Y-15079800D01*
X41104000Y-15106900D01*
X41240600Y-15079800D01*
X41356400Y-15002400D01*
X41433700Y-14886600D01*
X41460900Y-14750100D01*
X41433700Y-14613500D01*
X41356400Y-14497700D01*
X41240600Y-14420400D01*
X41104000Y-14393200D01*
X40967500Y-14420400D01*
X40851700Y-14497700D01*
X40774300Y-14613500D01*
X40747300Y-14749600D01*
X38055900Y-14749600D01*
X38055900Y-13852600D01*
X39849300Y-13852600D01*
X39876300Y-13988600D01*
X39953700Y-14104400D01*
X40069400Y-14181700D01*
X40206000Y-14208900D01*
X40342600Y-14181700D01*
X40458300Y-14104400D01*
X40535700Y-13988600D01*
X40562900Y-13852100D01*
X40535700Y-13715500D01*
X40458300Y-13599700D01*
X40342600Y-13522300D01*
X40206000Y-13495200D01*
X40069400Y-13522300D01*
X39953700Y-13599700D01*
X39876300Y-13715500D01*
X39849300Y-13851600D01*
X38055900Y-13851600D01*
X38055900Y-13774500D01*
X38205900Y-13688100D01*
X38300000Y-13706900D01*
X38436600Y-13679700D01*
X38552300Y-13602400D01*
X38629700Y-13486600D01*
X38656800Y-13350000D01*
X38629700Y-13213400D01*
X38552300Y-13097700D01*
X38436600Y-13020300D01*
X38300000Y-12993200D01*
X38205900Y-13011900D01*
X38106250Y-12954500D01*
X38951200Y-12954500D01*
X38978300Y-13090600D01*
X39055600Y-13206400D01*
X39171400Y-13283700D01*
X39308000Y-13310900D01*
X39444500Y-13283700D01*
X39560300Y-13206400D01*
X39637700Y-13090600D01*
X39664800Y-12954000D01*
X39637700Y-12817400D01*
X39560300Y-12701700D01*
X39444500Y-12624300D01*
X39308000Y-12597100D01*
X39171400Y-12624300D01*
X39055600Y-12701700D01*
X38978300Y-12817400D01*
X38951200Y-12953500D01*
X38104510Y-12953500D01*
X38055900Y-12925500D01*
X38055900Y-12407000D01*
X38058700Y-12404300D01*
X38205900Y-12340500D01*
X38273400Y-12385700D01*
X38409900Y-12412800D01*
X38546500Y-12385700D01*
X38662300Y-12308300D01*
X38739700Y-12192500D01*
X38766800Y-12056000D01*
X38739700Y-11919400D01*
X38662300Y-11803600D01*
X38546500Y-11726300D01*
X38409900Y-11699100D01*
X38273400Y-11726300D01*
X38205900Y-11771400D01*
X38058700Y-11707700D01*
X38055900Y-11705000D01*
X38055900Y-10032700D01*
X38205900Y-9987300D01*
X38226200Y-10017800D01*
X38449500Y-10167000D01*
X38712900Y-10219300D01*
X38842400Y-10193600D01*
X38948500Y-10299700D01*
X38922700Y-10429100D01*
X38975100Y-10692500D01*
X39124300Y-10915800D01*
X39347500Y-11065000D01*
X39610900Y-11117400D01*
X39740400Y-11091600D01*
X39846500Y-11197700D01*
X39820700Y-11327100D01*
X39873100Y-11590500D01*
X40022300Y-11813800D01*
X40245600Y-11963000D01*
X40508900Y-12015400D01*
X40638400Y-11989600D01*
X40744500Y-12095700D01*
X40718800Y-12225200D01*
X40771100Y-12488600D01*
X40920300Y-12711800D01*
X41143600Y-12861000D01*
X41407000Y-12913400D01*
X41536500Y-12887700D01*
X41642500Y-12993700D01*
X41616800Y-13123200D01*
X41669200Y-13386600D01*
X41818400Y-13609900D01*
X42041600Y-13759100D01*
X42305000Y-13811400D01*
X42434500Y-13785700D01*
X42540600Y-13891800D01*
X42514800Y-14021200D01*
X42567200Y-14284600D01*
X42716400Y-14507900D01*
X42939600Y-14657100D01*
X43203000Y-14709500D01*
X43332500Y-14683700D01*
X43438600Y-14789800D01*
X43412800Y-14919300D01*
X43465200Y-15182600D01*
X43614400Y-15405900D01*
X43837700Y-15555100D01*
X44101000Y-15607500D01*
X44230500Y-15581700D01*
X44336600Y-15687800D01*
X44310900Y-15817300D01*
X44363200Y-16080700D01*
X44512400Y-16304000D01*
X44735700Y-16453100D01*
X44999100Y-16505500D01*
X45128600Y-16479700D01*
X45234600Y-16585800D01*
X45208900Y-16715300D01*
X45261300Y-16978700D01*
X45410500Y-17202000D01*
X45633700Y-17351100D01*
X45897100Y-17403500D01*
X46026600Y-17377800D01*
X46132700Y-17483800D01*
X46106900Y-17613300D01*
X46159300Y-17876700D01*
X46308500Y-18100000D01*
X46531700Y-18249200D01*
X46795100Y-18301600D01*
X46924600Y-18275800D01*
X47030700Y-18381900D01*
X47004900Y-18511400D01*
X47057300Y-18774700D01*
X47206500Y-18998000D01*
X47429800Y-19147200D01*
X47693100Y-19199600D01*
X47822600Y-19173800D01*
X47928700Y-19279900D01*
X47903000Y-19409400D01*
X47955300Y-19672800D01*
X48093100Y-19879000D01*
X48093100Y-20680200D01*
X48120300Y-20816800D01*
X48197700Y-20932600D01*
X55243100Y-27978100D01*
X55243100Y-47950000D01*
X55243100Y-53030000D01*
X55243100Y-53500000D01*
X55270300Y-53636600D01*
X55347700Y-53752300D01*
X55463400Y-53829700D01*
X55600000Y-53856900D01*
X55736500Y-53829700D01*
X55852300Y-53752300D01*
X55929700Y-53636600D01*
X55934200Y-53613800D01*
X55938400Y-53609900D01*
X56098500Y-53556900D01*
X56261600Y-53665800D01*
X56356800Y-53684800D01*
X56413200Y-53849000D01*
X56393100Y-53950000D01*
X56411900Y-54044100D01*
X56325500Y-54194100D01*
X49657900Y-54194100D01*
X49548100Y-54044100D01*
X49556900Y-54000000D01*
X49529700Y-53863400D01*
X49452300Y-53747700D01*
X49336500Y-53670300D01*
X49200000Y-53643200D01*
X49150000Y-53653100D01*
X49000000Y-53546000D01*
X49000000Y-53420800D01*
X54298000Y-53420800D01*
X54325000Y-53556900D01*
X54402400Y-53672600D01*
X54518200Y-53750000D01*
X54654700Y-53777100D01*
X54791300Y-53750000D01*
X54907000Y-53672600D01*
X54984400Y-53556900D01*
X55011600Y-53420300D01*
X54984400Y-53283700D01*
X54907000Y-53168000D01*
X54791300Y-53090600D01*
X54654700Y-53063400D01*
X54518200Y-53090600D01*
X54402400Y-53168000D01*
X54325000Y-53283700D01*
X54298000Y-53419800D01*
X49000000Y-53419800D01*
X49000000Y-53155600D01*
X49150000Y-53087300D01*
X49213400Y-53129700D01*
X49350000Y-53156900D01*
X49486500Y-53129700D01*
X49602300Y-53052400D01*
X49679700Y-52936600D01*
X49686860Y-52900500D01*
X49843200Y-52900500D01*
X49870300Y-53036600D01*
X49947700Y-53152300D01*
X50063400Y-53229700D01*
X50200000Y-53256900D01*
X50336500Y-53229700D01*
X50452300Y-53152300D01*
X50529700Y-53036600D01*
X50556800Y-52900500D01*
X50843200Y-52900500D01*
X50870300Y-53036600D01*
X50947700Y-53152300D01*
X51063400Y-53229700D01*
X51200000Y-53256900D01*
X51336500Y-53229700D01*
X51450000Y-53153900D01*
X51563400Y-53229700D01*
X51700000Y-53256900D01*
X51836500Y-53229700D01*
X51950000Y-53153900D01*
X52063400Y-53229700D01*
X52200000Y-53256900D01*
X52336500Y-53229700D01*
X52450000Y-53153900D01*
X52563400Y-53229700D01*
X52700000Y-53256900D01*
X52836500Y-53229700D01*
X52952300Y-53152300D01*
X53029700Y-53036600D01*
X53056900Y-52900000D01*
X53029700Y-52763400D01*
X52952300Y-52647700D01*
X52836500Y-52570300D01*
X52700000Y-52543200D01*
X52563400Y-52570300D01*
X52450000Y-52646100D01*
X52336500Y-52570300D01*
X52200000Y-52543200D01*
X52063400Y-52570300D01*
X51950000Y-52646100D01*
X51836500Y-52570300D01*
X51700000Y-52543200D01*
X51563400Y-52570300D01*
X51450000Y-52646100D01*
X51336500Y-52570300D01*
X51200000Y-52543200D01*
X51063400Y-52570300D01*
X50947700Y-52647700D01*
X50870300Y-52763400D01*
X50843200Y-52899500D01*
X50556800Y-52899500D01*
X50529700Y-52763400D01*
X50452300Y-52647700D01*
X50336500Y-52570300D01*
X50200000Y-52543200D01*
X50063400Y-52570300D01*
X49947700Y-52647700D01*
X49870300Y-52763400D01*
X49843200Y-52899500D01*
X49687060Y-52899500D01*
X49706800Y-52800000D01*
X49679700Y-52663500D01*
X49602300Y-52547700D01*
X49486500Y-52470300D01*
X49350000Y-52443200D01*
X49213400Y-52470300D01*
X49150000Y-52512700D01*
X49000000Y-52444400D01*
X49000000Y-52150800D01*
X54298000Y-52150800D01*
X54325000Y-52286900D01*
X54402400Y-52402600D01*
X54518200Y-52480000D01*
X54654700Y-52507200D01*
X54791300Y-52480000D01*
X54907000Y-52402600D01*
X54984400Y-52286900D01*
X55011600Y-52150300D01*
X54984400Y-52013700D01*
X54907000Y-51898000D01*
X54791300Y-51820600D01*
X54654700Y-51793400D01*
X54518200Y-51820600D01*
X54402400Y-51898000D01*
X54325000Y-52013700D01*
X54298000Y-52149800D01*
X49000000Y-52149800D01*
X49000000Y-51350500D01*
X53543200Y-51350500D01*
X53570300Y-51486600D01*
X53647600Y-51602400D01*
X53763400Y-51679700D01*
X53900000Y-51706900D01*
X54036600Y-51679700D01*
X54152300Y-51602400D01*
X54229700Y-51486600D01*
X54256800Y-51350000D01*
X54229700Y-51213500D01*
X54152300Y-51097700D01*
X54036600Y-51020300D01*
X53900000Y-50993200D01*
X53763400Y-51020300D01*
X53647600Y-51097700D01*
X53570300Y-51213500D01*
X53543200Y-51349500D01*
X49000000Y-51349500D01*
X49000000Y-50880800D01*
X54298000Y-50880800D01*
X54325000Y-51016800D01*
X54402400Y-51132600D01*
X54518200Y-51210000D01*
X54654700Y-51237200D01*
X54791300Y-51210000D01*
X54907000Y-51132600D01*
X54984400Y-51016800D01*
X55011600Y-50880300D01*
X54984400Y-50743700D01*
X54907000Y-50627900D01*
X54791300Y-50550600D01*
X54654700Y-50523400D01*
X54518200Y-50550600D01*
X54402400Y-50627900D01*
X54325000Y-50743700D01*
X54298000Y-50879800D01*
X49000000Y-50879800D01*
X49000000Y-49000500D01*
X49343200Y-49000500D01*
X49370300Y-49136600D01*
X49447700Y-49252300D01*
X49563400Y-49329700D01*
X49700000Y-49356900D01*
X49836500Y-49329700D01*
X49950000Y-49253900D01*
X50063400Y-49329700D01*
X50200000Y-49356900D01*
X50336500Y-49329700D01*
X50450000Y-49253900D01*
X50563400Y-49329700D01*
X50700000Y-49356900D01*
X50836500Y-49329700D01*
X50950000Y-49253900D01*
X51063400Y-49329700D01*
X51200000Y-49356900D01*
X51336500Y-49329700D01*
X51450000Y-49253900D01*
X51563400Y-49329700D01*
X51700000Y-49356900D01*
X51836500Y-49329700D01*
X51950000Y-49253900D01*
X52063400Y-49329700D01*
X52200000Y-49356900D01*
X52336500Y-49329700D01*
X52450000Y-49253900D01*
X52563400Y-49329700D01*
X52700000Y-49356900D01*
X52836500Y-49329700D01*
X52952300Y-49252300D01*
X53029700Y-49136600D01*
X53056900Y-49000000D01*
X53029700Y-48863400D01*
X52952300Y-48747700D01*
X52881680Y-48700500D01*
X53593300Y-48700500D01*
X53620300Y-48836600D01*
X53697700Y-48952400D01*
X53813400Y-49029700D01*
X53950000Y-49056900D01*
X54086600Y-49029700D01*
X54202400Y-48952400D01*
X54279700Y-48836600D01*
X54306900Y-48700000D01*
X54279700Y-48563500D01*
X54202400Y-48447700D01*
X54086600Y-48370400D01*
X53950000Y-48343200D01*
X53813400Y-48370400D01*
X53697700Y-48447700D01*
X53620300Y-48563500D01*
X53593300Y-48699500D01*
X52880190Y-48699500D01*
X52836500Y-48670300D01*
X52700000Y-48643200D01*
X52563400Y-48670300D01*
X52519720Y-48699500D01*
X52380220Y-48699500D01*
X52336500Y-48670300D01*
X52200000Y-48643200D01*
X52063400Y-48670300D01*
X52019720Y-48699500D01*
X51880220Y-48699500D01*
X51836500Y-48670300D01*
X51700000Y-48643200D01*
X51563400Y-48670300D01*
X51519720Y-48699500D01*
X51380220Y-48699500D01*
X51336500Y-48670300D01*
X51200000Y-48643200D01*
X51063400Y-48670300D01*
X51019720Y-48699500D01*
X50880220Y-48699500D01*
X50836500Y-48670300D01*
X50700000Y-48643200D01*
X50563400Y-48670300D01*
X50519720Y-48699500D01*
X50380220Y-48699500D01*
X50336500Y-48670300D01*
X50200000Y-48643200D01*
X50063400Y-48670300D01*
X50019720Y-48699500D01*
X49880220Y-48699500D01*
X49836500Y-48670300D01*
X49700000Y-48643200D01*
X49563400Y-48670300D01*
X49519750Y-48699500D01*
X49000000Y-48699500D01*
X49000000Y-47750500D01*
X52743200Y-47750500D01*
X52770300Y-47886600D01*
X52847700Y-48002300D01*
X52963400Y-48079700D01*
X53100000Y-48106900D01*
X53236500Y-48079700D01*
X53352300Y-48002300D01*
X53429700Y-47886600D01*
X53456800Y-47750000D01*
X53429700Y-47613400D01*
X53352300Y-47497700D01*
X53236500Y-47420300D01*
X53100000Y-47393200D01*
X52963400Y-47420300D01*
X52847700Y-47497700D01*
X52770300Y-47613400D01*
X52743200Y-47749500D01*
X49000000Y-47749500D01*
X49000000Y-47500900D01*
X49150000Y-47420700D01*
X49163400Y-47429700D01*
X49300000Y-47456900D01*
X49436600Y-47429700D01*
X49552300Y-47352400D01*
X49629700Y-47236600D01*
X49634600Y-47211600D01*
X49636800Y-47200800D01*
X49656900Y-47100000D01*
X49786600Y-47029700D01*
X49902300Y-46952300D01*
X49979700Y-46836600D01*
X50006700Y-46700500D01*
X50793200Y-46700500D01*
X50820300Y-46836600D01*
X50897600Y-46952300D01*
X51013400Y-47029700D01*
X51150000Y-47056900D01*
X51286600Y-47029700D01*
X51402300Y-46952300D01*
X51409800Y-46941200D01*
X51590200Y-46941200D01*
X51597700Y-46952300D01*
X51713400Y-47029700D01*
X51850000Y-47056900D01*
X51986500Y-47029700D01*
X52102300Y-46952300D01*
X52179700Y-46836600D01*
X52206700Y-46700500D01*
X52393200Y-46700500D01*
X52420300Y-46836600D01*
X52497700Y-46952300D01*
X52613400Y-47029700D01*
X52750000Y-47056900D01*
X52886500Y-47029700D01*
X53002300Y-46952300D01*
X53079700Y-46836600D01*
X53106800Y-46700000D01*
X53079700Y-46563400D01*
X53071070Y-46550500D01*
X53743200Y-46550500D01*
X53770300Y-46686600D01*
X53847700Y-46802400D01*
X53963400Y-46879700D01*
X54052500Y-46897400D01*
X54095000Y-47038900D01*
X54096900Y-47048800D01*
X54020300Y-47163500D01*
X53993100Y-47300000D01*
X54020300Y-47436600D01*
X54097700Y-47552400D01*
X54213400Y-47629700D01*
X54350000Y-47656900D01*
X54486500Y-47629700D01*
X54602300Y-47552400D01*
X54679700Y-47436600D01*
X54706800Y-47300000D01*
X54679700Y-47163500D01*
X54602300Y-47047700D01*
X54486500Y-46970300D01*
X54397500Y-46952600D01*
X54355000Y-46811200D01*
X54353100Y-46801300D01*
X54429700Y-46686600D01*
X54456800Y-46550000D01*
X54429700Y-46413500D01*
X54353100Y-46298800D01*
X54355000Y-46288900D01*
X54397500Y-46147400D01*
X54486500Y-46129700D01*
X54602300Y-46052400D01*
X54679700Y-45936600D01*
X54706800Y-45800000D01*
X54679700Y-45663500D01*
X54602300Y-45547700D01*
X54486500Y-45470300D01*
X54350000Y-45443200D01*
X54213400Y-45470300D01*
X54097700Y-45547700D01*
X54020300Y-45663500D01*
X53993100Y-45800000D01*
X54020300Y-45936600D01*
X54096900Y-46051300D01*
X54095000Y-46061100D01*
X54052500Y-46202600D01*
X53963400Y-46220300D01*
X53847700Y-46297700D01*
X53770300Y-46413500D01*
X53743200Y-46549500D01*
X53070400Y-46549500D01*
X53002300Y-46447700D01*
X52886500Y-46370300D01*
X52750000Y-46343200D01*
X52613400Y-46370300D01*
X52497700Y-46447700D01*
X52429600Y-46549500D01*
X52170400Y-46549500D01*
X52102300Y-46447700D01*
X51986500Y-46370300D01*
X51850000Y-46343200D01*
X51713400Y-46370300D01*
X51597700Y-46447700D01*
X51590200Y-46458800D01*
X51409800Y-46458800D01*
X51402300Y-46447700D01*
X51286600Y-46370300D01*
X51150000Y-46343200D01*
X51013400Y-46370300D01*
X50897600Y-46447700D01*
X50829590Y-46549500D01*
X49970400Y-46549500D01*
X49902300Y-46447700D01*
X49786600Y-46370300D01*
X49650000Y-46343200D01*
X49513400Y-46370300D01*
X49481600Y-46391600D01*
X49346600Y-46301400D01*
X49356800Y-46250000D01*
X49329700Y-46113400D01*
X49252300Y-45997700D01*
X49136500Y-45920300D01*
X49000000Y-45893200D01*
X49000000Y-45650500D01*
X52593200Y-45650500D01*
X52620300Y-45786600D01*
X52697700Y-45902300D01*
X52813400Y-45979700D01*
X52950000Y-46006900D01*
X53086500Y-45979700D01*
X53202300Y-45902300D01*
X53279700Y-45786600D01*
X53306900Y-45650000D01*
X53279700Y-45513400D01*
X53202300Y-45397700D01*
X53086500Y-45320300D01*
X52950000Y-45293200D01*
X52813400Y-45320300D01*
X52697700Y-45397700D01*
X52620300Y-45513400D01*
X52593200Y-45649500D01*
X49000000Y-45649500D01*
G37*
%TD.AperFunction*%
%TD*%
M02*
