%TF.GenerationSoftware,KiCad,Pcbnew,7.0.11+dfsg-1build4*%
%TF.CreationDate,2026-10-01T15:00:52+10:00*%
%TF.ProjectId,Reid_Orthotic_v2_RHS,52656964-5f4f-4727-9468-6f7469635f76,R4*%
%TF.SameCoordinates,Original*%
%TF.FileFunction,Soldermask,Top*%
%TF.FilePolarity,Negative*%
%FSLAX46Y46*%
G04 Gerber Fmt 4.6, Leading zero omitted, Abs format (unit mm)*
G04 Created by KiCad (PCBNEW 7.0.11+dfsg-1build4) date 2026-10-01 15:00:52*
%MOMM*%
%LPD*%
G01*
G04 APERTURE LIST*
G04 Aperture macros list*
%AMHorizOval*
0 Thick line with rounded ends*
0 $1 width*
0 $2 $3 position (X,Y) of the first rounded end (center of the circle)*
0 $4 $5 position (X,Y) of the second rounded end (center of the circle)*
0 Add line between two ends*
20,1,$1,$2,$3,$4,$5,0*
0 Add two circle primitives to create the rounded ends*
1,1,$1,$2,$3*
1,1,$1,$4,$5*%
G04 Aperture macros list end*
%ADD10C,0.450000*%
%ADD11C,0.050000*%
%ADD12O,1.600000X1.150000*%
%ADD13HorizOval,1.150000X0.159099X0.159099X-0.159099X-0.159099X0*%
%ADD14C,1.100000*%
%ADD15C,0.900000*%
G04 APERTURE END LIST*
D10*
X41775000Y-34950000D02*
G75*
G03*
X41325000Y-34950000I-225000J0D01*
G01*
X41325000Y-34950000D02*
G75*
G03*
X41775000Y-34950000I225000J0D01*
G01*
X40505000Y-34950000D02*
G75*
G03*
X40055000Y-34950000I-225000J0D01*
G01*
X40055000Y-34950000D02*
G75*
G03*
X40505000Y-34950000I225000J0D01*
G01*
X39235000Y-36220000D02*
G75*
G03*
X38785000Y-36220000I-225000J0D01*
G01*
X38785000Y-36220000D02*
G75*
G03*
X39235000Y-36220000I225000J0D01*
G01*
X40505000Y-36220000D02*
G75*
G03*
X40055000Y-36220000I-225000J0D01*
G01*
X40055000Y-36220000D02*
G75*
G03*
X40505000Y-36220000I225000J0D01*
G01*
X41775000Y-36220000D02*
G75*
G03*
X41325000Y-36220000I-225000J0D01*
G01*
X41325000Y-36220000D02*
G75*
G03*
X41775000Y-36220000I225000J0D01*
G01*
D11*
X42845000Y-35585000D02*
G75*
G03*
X42795000Y-35585000I-25000J0D01*
G01*
X42795000Y-35585000D02*
G75*
G03*
X42845000Y-35585000I25000J0D01*
G01*
X37765000Y-36600000D02*
G75*
G03*
X37715000Y-36600000I-25000J0D01*
G01*
X37715000Y-36600000D02*
G75*
G03*
X37765000Y-36600000I25000J0D01*
G01*
X37765000Y-34570000D02*
G75*
G03*
X37715000Y-34570000I-25000J0D01*
G01*
X37715000Y-34570000D02*
G75*
G03*
X37765000Y-34570000I25000J0D01*
G01*
D12*
%TO.C,J2*%
X56750000Y-53030000D03*
X56750000Y-51760000D03*
X56750000Y-50490000D03*
X56750000Y-49220000D03*
X56750000Y-47950000D03*
X56750000Y-46680000D03*
X56750000Y-45410000D03*
X56750000Y-44140000D03*
X56750000Y-42870000D03*
X56750000Y-41600000D03*
X56750000Y-40330000D03*
X56750000Y-39060000D03*
X56750000Y-37790000D03*
X56750000Y-36520000D03*
X56750000Y-35250000D03*
X56750000Y-33980000D03*
X56750000Y-32710000D03*
X56750000Y-31440000D03*
X56750000Y-30170000D03*
X56750000Y-28900000D03*
%TD*%
D13*
%TO.C,J1*%
X55036404Y-25536503D03*
X54138399Y-24638498D03*
X50546304Y-21046403D03*
X47852199Y-18352298D03*
X46954201Y-17454300D03*
X39770004Y-10270103D03*
X51444301Y-21944400D03*
X44260103Y-14760202D03*
X43362099Y-13862198D03*
X40668001Y-11168100D03*
X55934500Y-26434500D03*
X53240402Y-23740402D03*
X52342397Y-22842397D03*
X49648299Y-20148299D03*
X48750302Y-19250302D03*
X46056197Y-16556197D03*
X45158200Y-15658200D03*
X42464102Y-12964102D03*
X41566097Y-12066097D03*
X38871999Y-9371999D03*
%TD*%
D14*
%TO.C,PAD1*%
X39150000Y-22350000D03*
%TD*%
%TO.C,PAD2*%
X46300000Y-29300000D03*
%TD*%
%TO.C,PAD3*%
X41850000Y-25850000D03*
%TD*%
%TO.C,PAD4*%
X39550000Y-31100000D03*
%TD*%
%TO.C,PAD5*%
X44550000Y-44800000D03*
%TD*%
%TO.C,PAD6*%
X45700000Y-46450000D03*
%TD*%
%TO.C,PAD7*%
X46250000Y-44650000D03*
%TD*%
D15*
%TO.C,PAD8*%
X39010000Y-34950000D03*
%TD*%
M02*
