G04 Layer_Color=8388736*
%FSLAX44Y44*%
%MOMM*%
G71*
G01*
G75*
%ADD15C,0.1200*%
%ADD60C,1.1000*%
%ADD61C,0.9000*%
%ADD62C,0.1000*%
G04:AMPARAMS|DCode=63|XSize=1.6mm|YSize=1.15mm|CornerRadius=0mm|HoleSize=0mm|Usage=FLASHONLY|Rotation=45.000|XOffset=0mm|YOffset=0mm|HoleType=Round|Shape=Round|*
%AMOVALD63*
21,1,0.4500,1.1500,0.0000,0.0000,45.0*
1,1,1.1500,-0.1591,-0.1591*
1,1,1.1500,0.1591,0.1591*
%
%ADD63OVALD63*%

%ADD64O,1.6000X1.1500*%
D15*
X2585999Y2213997D02*
Y2202000D01*
X2582000Y2213997D02*
X2589998D01*
X2594283Y2209998D02*
X2593141Y2209427D01*
X2591998Y2208284D01*
X2591426Y2206570D01*
Y2205428D01*
X2591998Y2203714D01*
X2593141Y2202571D01*
X2594283Y2202000D01*
X2595997D01*
X2597140Y2202571D01*
X2598282Y2203714D01*
X2598853Y2205428D01*
Y2206570D01*
X2598282Y2208284D01*
X2597140Y2209427D01*
X2595997Y2209998D01*
X2594283D01*
X2601482D02*
Y2198001D01*
Y2208284D02*
X2602624Y2209427D01*
X2603767Y2209998D01*
X2605481D01*
X2606623Y2209427D01*
X2607766Y2208284D01*
X2608337Y2206570D01*
Y2205428D01*
X2607766Y2203714D01*
X2606623Y2202571D01*
X2605481Y2202000D01*
X2603767D01*
X2602624Y2202571D01*
X2601482Y2203714D01*
X2628333Y2212283D02*
X2627190Y2213426D01*
X2625476Y2213997D01*
X2623191D01*
X2621477Y2213426D01*
X2620334Y2212283D01*
Y2211141D01*
X2620906Y2209998D01*
X2621477Y2209427D01*
X2622620Y2208856D01*
X2626048Y2207713D01*
X2627190Y2207142D01*
X2627762Y2206570D01*
X2628333Y2205428D01*
Y2203714D01*
X2627190Y2202571D01*
X2625476Y2202000D01*
X2623191D01*
X2621477Y2202571D01*
X2620334Y2203714D01*
X2633875Y2209998D02*
X2632732Y2209427D01*
X2631589Y2208284D01*
X2631018Y2206570D01*
Y2205428D01*
X2631589Y2203714D01*
X2632732Y2202571D01*
X2633875Y2202000D01*
X2635588D01*
X2636731Y2202571D01*
X2637874Y2203714D01*
X2638445Y2205428D01*
Y2206570D01*
X2637874Y2208284D01*
X2636731Y2209427D01*
X2635588Y2209998D01*
X2633875D01*
X2641073Y2213997D02*
Y2202000D01*
X2650443Y2213997D02*
Y2202000D01*
Y2208284D02*
X2649300Y2209427D01*
X2648157Y2209998D01*
X2646443D01*
X2645301Y2209427D01*
X2644158Y2208284D01*
X2643587Y2206570D01*
Y2205428D01*
X2644158Y2203714D01*
X2645301Y2202571D01*
X2646443Y2202000D01*
X2648157D01*
X2649300Y2202571D01*
X2650443Y2203714D01*
X2653642Y2206570D02*
X2660497D01*
Y2207713D01*
X2659926Y2208856D01*
X2659355Y2209427D01*
X2658212Y2209998D01*
X2656498D01*
X2655356Y2209427D01*
X2654213Y2208284D01*
X2653642Y2206570D01*
Y2205428D01*
X2654213Y2203714D01*
X2655356Y2202571D01*
X2656498Y2202000D01*
X2658212D01*
X2659355Y2202571D01*
X2660497Y2203714D01*
X2663068Y2209998D02*
Y2202000D01*
Y2206570D02*
X2663640Y2208284D01*
X2664782Y2209427D01*
X2665925Y2209998D01*
X2667639D01*
X2668724D02*
Y2202000D01*
Y2207713D02*
X2670438Y2209427D01*
X2671581Y2209998D01*
X2673295D01*
X2674437Y2209427D01*
X2675009Y2207713D01*
Y2202000D01*
Y2207713D02*
X2676722Y2209427D01*
X2677865Y2209998D01*
X2679579D01*
X2680722Y2209427D01*
X2681293Y2207713D01*
Y2202000D01*
X2691919Y2209998D02*
Y2202000D01*
Y2208284D02*
X2690777Y2209427D01*
X2689634Y2209998D01*
X2687920D01*
X2686778Y2209427D01*
X2685635Y2208284D01*
X2685063Y2206570D01*
Y2205428D01*
X2685635Y2203714D01*
X2686778Y2202571D01*
X2687920Y2202000D01*
X2689634D01*
X2690777Y2202571D01*
X2691919Y2203714D01*
X2701403Y2208284D02*
X2700832Y2209427D01*
X2699118Y2209998D01*
X2697404D01*
X2695690Y2209427D01*
X2695119Y2208284D01*
X2695690Y2207142D01*
X2696833Y2206570D01*
X2699689Y2205999D01*
X2700832Y2205428D01*
X2701403Y2204285D01*
Y2203714D01*
X2700832Y2202571D01*
X2699118Y2202000D01*
X2697404D01*
X2695690Y2202571D01*
X2695119Y2203714D01*
X2703917Y2213997D02*
Y2202000D01*
X2709630Y2209998D02*
X2703917Y2204285D01*
X2706202Y2206570D02*
X2710201Y2202000D01*
D60*
X2791500Y2776500D02*
D03*
X2863000Y2707000D02*
D03*
X2818500Y2741500D02*
D03*
X2795500Y2689000D02*
D03*
X2845500Y2552000D02*
D03*
X2857000Y2535500D02*
D03*
X2862500Y2553500D02*
D03*
D61*
X2815500Y2650500D02*
D03*
X2802800D02*
D03*
X2790100Y2650500D02*
D03*
Y2637800D02*
D03*
X2802800Y2637800D02*
D03*
X2815500D02*
D03*
D62*
X2828200Y2644150D02*
D03*
X2777400Y2634000D02*
D03*
Y2654300D02*
D03*
D63*
X2959345Y2735655D02*
D03*
X2950364Y2744635D02*
D03*
X2941384Y2753615D02*
D03*
X2932404Y2762596D02*
D03*
X2923424Y2771576D02*
D03*
X2914443Y2780556D02*
D03*
X2905463Y2789536D02*
D03*
X2896483Y2798517D02*
D03*
X2887503Y2807497D02*
D03*
X2878522Y2816477D02*
D03*
X2869542Y2825457D02*
D03*
X2860562Y2834438D02*
D03*
X2851582Y2843418D02*
D03*
X2842601Y2852398D02*
D03*
X2833621Y2861378D02*
D03*
X2824641Y2870359D02*
D03*
X2815661Y2879339D02*
D03*
X2806680Y2888319D02*
D03*
X2797700Y2897299D02*
D03*
X2788720Y2906280D02*
D03*
D64*
X2967500Y2469700D02*
D03*
Y2482400D02*
D03*
Y2495100D02*
D03*
Y2507800D02*
D03*
Y2520500D02*
D03*
Y2533200D02*
D03*
Y2545900D02*
D03*
Y2558600D02*
D03*
Y2571300D02*
D03*
Y2584000D02*
D03*
Y2596700D02*
D03*
Y2609400D02*
D03*
Y2622100D02*
D03*
Y2634800D02*
D03*
Y2647500D02*
D03*
Y2660200D02*
D03*
Y2672900D02*
D03*
Y2685600D02*
D03*
Y2698300D02*
D03*
Y2711000D02*
D03*
M02*
