G04 Layer_Color=16711935*
%FSLAX44Y44*%
%MOMM*%
G71*
G01*
G75*
%ADD15C,0.1200*%
%ADD62C,0.1000*%
G04:AMPARAMS|DCode=63|XSize=1.6mm|YSize=1.15mm|CornerRadius=0mm|HoleSize=0mm|Usage=FLASHONLY|Rotation=45.000|XOffset=0mm|YOffset=0mm|HoleType=Round|Shape=Round|*
%AMOVALD63*
21,1,0.4500,1.1500,0.0000,0.0000,45.0*
1,1,1.1500,-0.1591,-0.1591*
1,1,1.1500,0.1591,0.1591*
%
%ADD63OVALD63*%

%ADD64O,1.6000X1.1500*%
%ADD65R,0.6500X0.5500*%
%ADD66R,1.0000X0.8000*%
%ADD67R,0.5500X0.6500*%
G04:AMPARAMS|DCode=68|XSize=0.7mm|YSize=1.2mm|CornerRadius=0.125mm|HoleSize=0mm|Usage=FLASHONLY|Rotation=0.000|XOffset=0mm|YOffset=0mm|HoleType=Round|Shape=RoundedRectangle|*
%AMROUNDEDRECTD68*
21,1,0.7000,0.9500,0,0,0.0*
21,1,0.4500,1.2000,0,0,0.0*
1,1,0.2500,0.2250,-0.4750*
1,1,0.2500,-0.2250,-0.4750*
1,1,0.2500,-0.2250,0.4750*
1,1,0.2500,0.2250,0.4750*
%
%ADD68ROUNDEDRECTD68*%
G04:AMPARAMS|DCode=69|XSize=0.85mm|YSize=0.8mm|CornerRadius=0.1375mm|HoleSize=0mm|Usage=FLASHONLY|Rotation=270.000|XOffset=0mm|YOffset=0mm|HoleType=Round|Shape=RoundedRectangle|*
%AMROUNDEDRECTD69*
21,1,0.8500,0.5250,0,0,270.0*
21,1,0.5750,0.8000,0,0,270.0*
1,1,0.2750,-0.2625,-0.2875*
1,1,0.2750,-0.2625,0.2875*
1,1,0.2750,0.2625,0.2875*
1,1,0.2750,0.2625,-0.2875*
%
%ADD69ROUNDEDRECTD69*%
G04:AMPARAMS|DCode=70|XSize=1mm|YSize=0.8mm|CornerRadius=0mm|HoleSize=0mm|Usage=FLASHONLY|Rotation=315.000|XOffset=0mm|YOffset=0mm|HoleType=Round|Shape=Rectangle|*
%AMROTATEDRECTD70*
4,1,4,-0.6364,0.0707,-0.0707,0.6364,0.6364,-0.0707,0.0707,-0.6364,-0.6364,0.0707,0.0*
%
%ADD70ROTATEDRECTD70*%

G04:AMPARAMS|DCode=71|XSize=1mm|YSize=0.8mm|CornerRadius=0mm|HoleSize=0mm|Usage=FLASHONLY|Rotation=45.000|XOffset=0mm|YOffset=0mm|HoleType=Round|Shape=Rectangle|*
%AMROTATEDRECTD71*
4,1,4,-0.0707,-0.6364,-0.6364,-0.0707,0.0707,0.6364,0.6364,0.0707,-0.0707,-0.6364,0.0*
%
%ADD71ROTATEDRECTD71*%

G04:AMPARAMS|DCode=72|XSize=0.65mm|YSize=0.55mm|CornerRadius=0mm|HoleSize=0mm|Usage=FLASHONLY|Rotation=315.000|XOffset=0mm|YOffset=0mm|HoleType=Round|Shape=Rectangle|*
%AMROTATEDRECTD72*
4,1,4,-0.4243,0.0354,-0.0354,0.4243,0.4243,-0.0354,0.0354,-0.4243,-0.4243,0.0354,0.0*
%
%ADD72ROTATEDRECTD72*%

G04:AMPARAMS|DCode=73|XSize=0.65mm|YSize=1.2mm|CornerRadius=0.1875mm|HoleSize=0mm|Usage=FLASHONLY|Rotation=45.000|XOffset=0mm|YOffset=0mm|HoleType=Round|Shape=RoundedRectangle|*
%AMROUNDEDRECTD73*
21,1,0.6500,0.8250,0,0,45.0*
21,1,0.2750,1.2000,0,0,45.0*
1,1,0.3750,0.3889,-0.1945*
1,1,0.3750,0.1945,-0.3889*
1,1,0.3750,-0.3889,0.1945*
1,1,0.3750,-0.1945,0.3889*
%
%ADD73ROUNDEDRECTD73*%
G04:AMPARAMS|DCode=74|XSize=0.7mm|YSize=0.9mm|CornerRadius=0mm|HoleSize=0mm|Usage=FLASHONLY|Rotation=315.000|XOffset=0mm|YOffset=0mm|HoleType=Round|Shape=Rectangle|*
%AMROTATEDRECTD74*
4,1,4,-0.5657,-0.0707,0.0707,0.5657,0.5657,0.0707,-0.0707,-0.5657,-0.5657,-0.0707,0.0*
%
%ADD74ROTATEDRECTD74*%

G04:AMPARAMS|DCode=75|XSize=0.65mm|YSize=0.55mm|CornerRadius=0mm|HoleSize=0mm|Usage=FLASHONLY|Rotation=225.000|XOffset=0mm|YOffset=0mm|HoleType=Round|Shape=Rectangle|*
%AMROTATEDRECTD75*
4,1,4,0.0354,0.4243,0.4243,0.0354,-0.0354,-0.4243,-0.4243,-0.0354,0.0354,0.4243,0.0*
%
%ADD75ROTATEDRECTD75*%

G04:AMPARAMS|DCode=76|XSize=0.95mm|YSize=2.5mm|CornerRadius=0.1563mm|HoleSize=0mm|Usage=FLASHONLY|Rotation=135.000|XOffset=0mm|YOffset=0mm|HoleType=Round|Shape=RoundedRectangle|*
%AMROUNDEDRECTD76*
21,1,0.9500,2.1875,0,0,135.0*
21,1,0.6375,2.5000,0,0,135.0*
1,1,0.3125,0.5480,0.9988*
1,1,0.3125,0.9988,0.5480*
1,1,0.3125,-0.5480,-0.9988*
1,1,0.3125,-0.9988,-0.5480*
%
%ADD76ROUNDEDRECTD76*%
G04:AMPARAMS|DCode=77|XSize=0.65mm|YSize=0.35mm|CornerRadius=0.1125mm|HoleSize=0mm|Usage=FLASHONLY|Rotation=135.000|XOffset=0mm|YOffset=0mm|HoleType=Round|Shape=RoundedRectangle|*
%AMROUNDEDRECTD77*
21,1,0.6500,0.1250,0,0,135.0*
21,1,0.4250,0.3500,0,0,135.0*
1,1,0.2250,-0.1061,0.1945*
1,1,0.2250,0.1945,-0.1061*
1,1,0.2250,0.1061,-0.1945*
1,1,0.2250,-0.1945,0.1061*
%
%ADD77ROUNDEDRECTD77*%
G04:AMPARAMS|DCode=78|XSize=2.1mm|YSize=1.1mm|CornerRadius=0.3mm|HoleSize=0mm|Usage=FLASHONLY|Rotation=135.000|XOffset=0mm|YOffset=0mm|HoleType=Round|Shape=RoundedRectangle|*
%AMROUNDEDRECTD78*
21,1,2.1000,0.5000,0,0,135.0*
21,1,1.5000,1.1000,0,0,135.0*
1,1,0.6000,-0.3535,0.7071*
1,1,0.6000,0.7071,-0.3535*
1,1,0.6000,0.3535,-0.7071*
1,1,0.6000,-0.7071,0.3535*
%
%ADD78ROUNDEDRECTD78*%
G04:AMPARAMS|DCode=79|XSize=0.7mm|YSize=1mm|CornerRadius=0.125mm|HoleSize=0mm|Usage=FLASHONLY|Rotation=225.000|XOffset=0mm|YOffset=0mm|HoleType=Round|Shape=RoundedRectangle|*
%AMROUNDEDRECTD79*
21,1,0.7000,0.7500,0,0,225.0*
21,1,0.4500,1.0000,0,0,225.0*
1,1,0.2500,-0.4243,0.1061*
1,1,0.2500,-0.1061,0.4243*
1,1,0.2500,0.4243,-0.1061*
1,1,0.2500,0.1061,-0.4243*
%
%ADD79ROUNDEDRECTD79*%
G04:AMPARAMS|DCode=80|XSize=2.1mm|YSize=1.1mm|CornerRadius=0.175mm|HoleSize=0mm|Usage=FLASHONLY|Rotation=180.000|XOffset=0mm|YOffset=0mm|HoleType=Round|Shape=RoundedRectangle|*
%AMROUNDEDRECTD80*
21,1,2.1000,0.7500,0,0,180.0*
21,1,1.7500,1.1000,0,0,180.0*
1,1,0.3500,-0.8750,0.3750*
1,1,0.3500,0.8750,0.3750*
1,1,0.3500,0.8750,-0.3750*
1,1,0.3500,-0.8750,-0.3750*
%
%ADD80ROUNDEDRECTD80*%
%ADD81O,0.9000X0.3500*%
%ADD82O,0.3500X0.9000*%
G04:AMPARAMS|DCode=83|XSize=2.1mm|YSize=1.1mm|CornerRadius=0.175mm|HoleSize=0mm|Usage=FLASHONLY|Rotation=225.000|XOffset=0mm|YOffset=0mm|HoleType=Round|Shape=RoundedRectangle|*
%AMROUNDEDRECTD83*
21,1,2.1000,0.7500,0,0,225.0*
21,1,1.7500,1.1000,0,0,225.0*
1,1,0.3500,-0.8839,-0.3535*
1,1,0.3500,0.3535,0.8839*
1,1,0.3500,0.8839,0.3535*
1,1,0.3500,-0.3535,-0.8839*
%
%ADD83ROUNDEDRECTD83*%
G04:AMPARAMS|DCode=84|XSize=0.9mm|YSize=0.35mm|CornerRadius=0mm|HoleSize=0mm|Usage=FLASHONLY|Rotation=225.000|XOffset=0mm|YOffset=0mm|HoleType=Round|Shape=Round|*
%AMOVALD84*
21,1,0.5500,0.3500,0.0000,0.0000,225.0*
1,1,0.3500,0.1945,0.1945*
1,1,0.3500,-0.1945,-0.1945*
%
%ADD84OVALD84*%

G04:AMPARAMS|DCode=85|XSize=0.9mm|YSize=0.35mm|CornerRadius=0mm|HoleSize=0mm|Usage=FLASHONLY|Rotation=315.000|XOffset=0mm|YOffset=0mm|HoleType=Round|Shape=Round|*
%AMOVALD85*
21,1,0.5500,0.3500,0.0000,0.0000,315.0*
1,1,0.3500,-0.1945,0.1945*
1,1,0.3500,0.1945,-0.1945*
%
%ADD85OVALD85*%

%ADD86R,1.4500X0.9000*%
%ADD87R,1.0000X0.9000*%
%ADD88R,0.9000X1.4500*%
G04:AMPARAMS|DCode=89|XSize=2.1mm|YSize=1.1mm|CornerRadius=0.3mm|HoleSize=0mm|Usage=FLASHONLY|Rotation=90.000|XOffset=0mm|YOffset=0mm|HoleType=Round|Shape=RoundedRectangle|*
%AMROUNDEDRECTD89*
21,1,2.1000,0.5000,0,0,90.0*
21,1,1.5000,1.1000,0,0,90.0*
1,1,0.6000,0.2500,0.7500*
1,1,0.6000,0.2500,-0.7500*
1,1,0.6000,-0.2500,-0.7500*
1,1,0.6000,-0.2500,0.7500*
%
%ADD89ROUNDEDRECTD89*%
G04:AMPARAMS|DCode=90|XSize=0.7mm|YSize=1mm|CornerRadius=0.125mm|HoleSize=0mm|Usage=FLASHONLY|Rotation=180.000|XOffset=0mm|YOffset=0mm|HoleType=Round|Shape=RoundedRectangle|*
%AMROUNDEDRECTD90*
21,1,0.7000,0.7500,0,0,180.0*
21,1,0.4500,1.0000,0,0,180.0*
1,1,0.2500,-0.2250,0.3750*
1,1,0.2500,0.2250,0.3750*
1,1,0.2500,0.2250,-0.3750*
1,1,0.2500,-0.2250,-0.3750*
%
%ADD90ROUNDEDRECTD90*%
%ADD91R,0.8000X1.0000*%
G04:AMPARAMS|DCode=92|XSize=0.6mm|YSize=0.35mm|CornerRadius=0.1125mm|HoleSize=0mm|Usage=FLASHONLY|Rotation=90.000|XOffset=0mm|YOffset=0mm|HoleType=Round|Shape=RoundedRectangle|*
%AMROUNDEDRECTD92*
21,1,0.6000,0.1250,0,0,90.0*
21,1,0.3750,0.3500,0,0,90.0*
1,1,0.2250,0.0625,0.1875*
1,1,0.2250,0.0625,-0.1875*
1,1,0.2250,-0.0625,-0.1875*
1,1,0.2250,-0.0625,0.1875*
%
%ADD92ROUNDEDRECTD92*%
G04:AMPARAMS|DCode=93|XSize=0.6mm|YSize=0.35mm|CornerRadius=0.1125mm|HoleSize=0mm|Usage=FLASHONLY|Rotation=0.000|XOffset=0mm|YOffset=0mm|HoleType=Round|Shape=RoundedRectangle|*
%AMROUNDEDRECTD93*
21,1,0.6000,0.1250,0,0,0.0*
21,1,0.3750,0.3500,0,0,0.0*
1,1,0.2250,0.1875,-0.0625*
1,1,0.2250,-0.1875,-0.0625*
1,1,0.2250,-0.1875,0.0625*
1,1,0.2250,0.1875,0.0625*
%
%ADD93ROUNDEDRECTD93*%
G04:AMPARAMS|DCode=94|XSize=0.7mm|YSize=0.3mm|CornerRadius=0.1mm|HoleSize=0mm|Usage=FLASHONLY|Rotation=270.000|XOffset=0mm|YOffset=0mm|HoleType=Round|Shape=RoundedRectangle|*
%AMROUNDEDRECTD94*
21,1,0.7000,0.1000,0,0,270.0*
21,1,0.5000,0.3000,0,0,270.0*
1,1,0.2000,-0.0500,-0.2500*
1,1,0.2000,-0.0500,0.2500*
1,1,0.2000,0.0500,0.2500*
1,1,0.2000,0.0500,-0.2500*
%
%ADD94ROUNDEDRECTD94*%
G04:AMPARAMS|DCode=95|XSize=0.7mm|YSize=0.3mm|CornerRadius=0.1mm|HoleSize=0mm|Usage=FLASHONLY|Rotation=180.000|XOffset=0mm|YOffset=0mm|HoleType=Round|Shape=RoundedRectangle|*
%AMROUNDEDRECTD95*
21,1,0.7000,0.1000,0,0,180.0*
21,1,0.5000,0.3000,0,0,180.0*
1,1,0.2000,-0.2500,0.0500*
1,1,0.2000,0.2500,0.0500*
1,1,0.2000,0.2500,-0.0500*
1,1,0.2000,-0.2500,-0.0500*
%
%ADD95ROUNDEDRECTD95*%
G04:AMPARAMS|DCode=96|XSize=4.7mm|YSize=4.7mm|CornerRadius=0.28mm|HoleSize=0mm|Usage=FLASHONLY|Rotation=0.000|XOffset=0mm|YOffset=0mm|HoleType=Round|Shape=RoundedRectangle|*
%AMROUNDEDRECTD96*
21,1,4.7000,4.1400,0,0,0.0*
21,1,4.1400,4.7000,0,0,0.0*
1,1,0.5600,2.0700,-2.0700*
1,1,0.5600,-2.0700,-2.0700*
1,1,0.5600,-2.0700,2.0700*
1,1,0.5600,2.0700,2.0700*
%
%ADD96ROUNDEDRECTD96*%
G04:AMPARAMS|DCode=97|XSize=0.65mm|YSize=0.55mm|CornerRadius=0mm|HoleSize=0mm|Usage=FLASHONLY|Rotation=240.000|XOffset=0mm|YOffset=0mm|HoleType=Round|Shape=Rectangle|*
%AMROTATEDRECTD97*
4,1,4,-0.0757,0.4190,0.4007,0.1440,0.0757,-0.4190,-0.4007,-0.1440,-0.0757,0.4190,0.0*
%
%ADD97ROTATEDRECTD97*%

G04:AMPARAMS|DCode=98|XSize=0.65mm|YSize=0.55mm|CornerRadius=0mm|HoleSize=0mm|Usage=FLASHONLY|Rotation=140.000|XOffset=0mm|YOffset=0mm|HoleType=Round|Shape=Rectangle|*
%AMROTATEDRECTD98*
4,1,4,0.4257,0.0018,0.0722,-0.4196,-0.4257,-0.0018,-0.0722,0.4196,0.4257,0.0018,0.0*
%
%ADD98ROTATEDRECTD98*%

G04:AMPARAMS|DCode=99|XSize=1.76mm|YSize=0.9mm|CornerRadius=0.13mm|HoleSize=0mm|Usage=FLASHONLY|Rotation=150.000|XOffset=0mm|YOffset=0mm|HoleType=Round|Shape=RoundedRectangle|*
%AMROUNDEDRECTD99*
21,1,1.7600,0.6400,0,0,150.0*
21,1,1.5000,0.9000,0,0,150.0*
1,1,0.2600,-0.4895,0.6521*
1,1,0.2600,0.8095,-0.0979*
1,1,0.2600,0.4895,-0.6521*
1,1,0.2600,-0.8095,0.0979*
%
%ADD99ROUNDEDRECTD99*%
D15*
X2762000Y2233997D02*
Y2222000D01*
Y2233997D02*
X2767142D01*
X2768856Y2233426D01*
X2769427Y2232855D01*
X2769998Y2231712D01*
Y2230570D01*
X2769427Y2229427D01*
X2768856Y2228856D01*
X2767142Y2228284D01*
X2762000D02*
X2767142D01*
X2768856Y2227713D01*
X2769427Y2227142D01*
X2769998Y2225999D01*
Y2224285D01*
X2769427Y2223143D01*
X2768856Y2222571D01*
X2767142Y2222000D01*
X2762000D01*
X2775540Y2229998D02*
X2774397Y2229427D01*
X2773255Y2228284D01*
X2772683Y2226570D01*
Y2225428D01*
X2773255Y2223714D01*
X2774397Y2222571D01*
X2775540Y2222000D01*
X2777254D01*
X2778397Y2222571D01*
X2779539Y2223714D01*
X2780110Y2225428D01*
Y2226570D01*
X2779539Y2228284D01*
X2778397Y2229427D01*
X2777254Y2229998D01*
X2775540D01*
X2784452Y2233997D02*
Y2224285D01*
X2785023Y2222571D01*
X2786166Y2222000D01*
X2787309D01*
X2782738Y2229998D02*
X2786738D01*
X2790737Y2233997D02*
Y2224285D01*
X2791308Y2222571D01*
X2792451Y2222000D01*
X2793593D01*
X2789023Y2229998D02*
X2793022D01*
X2798164D02*
X2797021Y2229427D01*
X2795878Y2228284D01*
X2795307Y2226570D01*
Y2225428D01*
X2795878Y2223714D01*
X2797021Y2222571D01*
X2798164Y2222000D01*
X2799878D01*
X2801020Y2222571D01*
X2802163Y2223714D01*
X2802734Y2225428D01*
Y2226570D01*
X2802163Y2228284D01*
X2801020Y2229427D01*
X2799878Y2229998D01*
X2798164D01*
X2805362D02*
Y2222000D01*
Y2227713D02*
X2807076Y2229427D01*
X2808219Y2229998D01*
X2809933D01*
X2811075Y2229427D01*
X2811646Y2227713D01*
Y2222000D01*
Y2227713D02*
X2813360Y2229427D01*
X2814503Y2229998D01*
X2816217D01*
X2817360Y2229427D01*
X2817931Y2227713D01*
Y2222000D01*
X2839126Y2232283D02*
X2837984Y2233426D01*
X2836270Y2233997D01*
X2833985D01*
X2832271Y2233426D01*
X2831128Y2232283D01*
Y2231141D01*
X2831699Y2229998D01*
X2832271Y2229427D01*
X2833413Y2228856D01*
X2836841Y2227713D01*
X2837984Y2227142D01*
X2838555Y2226570D01*
X2839126Y2225428D01*
Y2223714D01*
X2837984Y2222571D01*
X2836270Y2222000D01*
X2833985D01*
X2832271Y2222571D01*
X2831128Y2223714D01*
X2844668Y2229998D02*
X2843525Y2229427D01*
X2842383Y2228284D01*
X2841812Y2226570D01*
Y2225428D01*
X2842383Y2223714D01*
X2843525Y2222571D01*
X2844668Y2222000D01*
X2846382D01*
X2847524Y2222571D01*
X2848667Y2223714D01*
X2849238Y2225428D01*
Y2226570D01*
X2848667Y2228284D01*
X2847524Y2229427D01*
X2846382Y2229998D01*
X2844668D01*
X2851866Y2233997D02*
Y2222000D01*
X2861236Y2233997D02*
Y2222000D01*
Y2228284D02*
X2860093Y2229427D01*
X2858951Y2229998D01*
X2857237D01*
X2856094Y2229427D01*
X2854951Y2228284D01*
X2854380Y2226570D01*
Y2225428D01*
X2854951Y2223714D01*
X2856094Y2222571D01*
X2857237Y2222000D01*
X2858951D01*
X2860093Y2222571D01*
X2861236Y2223714D01*
X2864435Y2226570D02*
X2871291D01*
Y2227713D01*
X2870720Y2228856D01*
X2870148Y2229427D01*
X2869006Y2229998D01*
X2867292D01*
X2866149Y2229427D01*
X2865006Y2228284D01*
X2864435Y2226570D01*
Y2225428D01*
X2865006Y2223714D01*
X2866149Y2222571D01*
X2867292Y2222000D01*
X2869006D01*
X2870148Y2222571D01*
X2871291Y2223714D01*
X2873862Y2229998D02*
Y2222000D01*
Y2226570D02*
X2874433Y2228284D01*
X2875576Y2229427D01*
X2876718Y2229998D01*
X2878432D01*
X2879518D02*
Y2222000D01*
Y2227713D02*
X2881232Y2229427D01*
X2882374Y2229998D01*
X2884088D01*
X2885231Y2229427D01*
X2885802Y2227713D01*
Y2222000D01*
Y2227713D02*
X2887516Y2229427D01*
X2888659Y2229998D01*
X2890373D01*
X2891515Y2229427D01*
X2892086Y2227713D01*
Y2222000D01*
X2902713Y2229998D02*
Y2222000D01*
Y2228284D02*
X2901570Y2229427D01*
X2900428Y2229998D01*
X2898714D01*
X2897571Y2229427D01*
X2896428Y2228284D01*
X2895857Y2226570D01*
Y2225428D01*
X2896428Y2223714D01*
X2897571Y2222571D01*
X2898714Y2222000D01*
X2900428D01*
X2901570Y2222571D01*
X2902713Y2223714D01*
X2912196Y2228284D02*
X2911625Y2229427D01*
X2909911Y2229998D01*
X2908197D01*
X2906483Y2229427D01*
X2905912Y2228284D01*
X2906483Y2227142D01*
X2907626Y2226570D01*
X2910482Y2225999D01*
X2911625Y2225428D01*
X2912196Y2224285D01*
Y2223714D01*
X2911625Y2222571D01*
X2909911Y2222000D01*
X2908197D01*
X2906483Y2222571D01*
X2905912Y2223714D01*
X2914710Y2233997D02*
Y2222000D01*
X2920423Y2229998D02*
X2914710Y2224285D01*
X2916996Y2226570D02*
X2920995Y2222000D01*
D62*
X2828200Y2644150D02*
D03*
X2777400Y2634000D02*
D03*
Y2654300D02*
D03*
D63*
X2959345Y2735655D02*
D03*
X2950364Y2744635D02*
D03*
X2941384Y2753615D02*
D03*
X2932404Y2762596D02*
D03*
X2923424Y2771576D02*
D03*
X2914443Y2780556D02*
D03*
X2905463Y2789536D02*
D03*
X2896483Y2798517D02*
D03*
X2887503Y2807497D02*
D03*
X2878522Y2816477D02*
D03*
X2869542Y2825457D02*
D03*
X2860562Y2834438D02*
D03*
X2851582Y2843418D02*
D03*
X2842601Y2852398D02*
D03*
X2833621Y2861378D02*
D03*
X2824641Y2870359D02*
D03*
X2815661Y2879339D02*
D03*
X2806680Y2888319D02*
D03*
X2797700Y2897299D02*
D03*
X2788720Y2906280D02*
D03*
D64*
X2967500Y2469700D02*
D03*
Y2482400D02*
D03*
Y2495100D02*
D03*
Y2507800D02*
D03*
Y2520500D02*
D03*
Y2533200D02*
D03*
Y2545900D02*
D03*
Y2558600D02*
D03*
Y2571300D02*
D03*
Y2584000D02*
D03*
Y2596700D02*
D03*
Y2609400D02*
D03*
Y2622100D02*
D03*
Y2634800D02*
D03*
Y2647500D02*
D03*
Y2660200D02*
D03*
Y2672900D02*
D03*
Y2685600D02*
D03*
Y2698300D02*
D03*
Y2711000D02*
D03*
D65*
X2785999Y2563501D02*
D03*
X2785999Y2572500D02*
D03*
X2785999Y2592500D02*
D03*
X2785999Y2583500D02*
D03*
X2860500Y2616500D02*
D03*
Y2625500D02*
D03*
X2871000Y2607500D02*
D03*
X2871000Y2616500D02*
D03*
X2852000Y2538000D02*
D03*
Y2529000D02*
D03*
X2861000Y2538000D02*
D03*
X2861000Y2529000D02*
D03*
X2819999Y2537500D02*
D03*
Y2528500D02*
D03*
X2802000Y2540000D02*
D03*
Y2531000D02*
D03*
X2939500Y2498500D02*
D03*
Y2507500D02*
D03*
X2939500Y2586500D02*
D03*
Y2595500D02*
D03*
X2784099Y2884940D02*
D03*
Y2893940D02*
D03*
X2793079Y2875960D02*
D03*
Y2884959D02*
D03*
X2802059Y2866979D02*
D03*
Y2875979D02*
D03*
X2811039Y2857999D02*
D03*
Y2866999D02*
D03*
X2820020Y2849019D02*
D03*
Y2858019D02*
D03*
X2829000Y2840039D02*
D03*
Y2849038D02*
D03*
X2837980Y2831058D02*
D03*
Y2840058D02*
D03*
X2846960Y2822078D02*
D03*
Y2831078D02*
D03*
X2855941Y2813098D02*
D03*
Y2822098D02*
D03*
X2864921Y2804118D02*
D03*
Y2813117D02*
D03*
X2873901Y2795138D02*
D03*
Y2804137D02*
D03*
D66*
X2775500Y2601000D02*
D03*
Y2587000D02*
D03*
D67*
X2785000Y2601000D02*
D03*
X2794000D02*
D03*
X2792500Y2610000D02*
D03*
X2783500D02*
D03*
X2809000Y2620500D02*
D03*
X2800000D02*
D03*
X2800000Y2629500D02*
D03*
X2809000Y2629500D02*
D03*
X2848000Y2628500D02*
D03*
X2839000D02*
D03*
X2786500Y2554500D02*
D03*
X2777500Y2554500D02*
D03*
X2922000Y2464500D02*
D03*
X2930999D02*
D03*
X2905500D02*
D03*
X2914500D02*
D03*
X2922000Y2552500D02*
D03*
X2931000Y2552500D02*
D03*
X2905500Y2552500D02*
D03*
X2914500Y2552500D02*
D03*
X2926000Y2647500D02*
D03*
X2917001D02*
D03*
X2916000Y2630500D02*
D03*
X2924999D02*
D03*
X2916000Y2612501D02*
D03*
X2925000D02*
D03*
X2916000Y2621500D02*
D03*
X2925000Y2621500D02*
D03*
X2882863Y2786177D02*
D03*
X2891862Y2786177D02*
D03*
X2891843Y2777197D02*
D03*
X2900843D02*
D03*
X2900823Y2768217D02*
D03*
X2909823Y2768217D02*
D03*
X2909803Y2759236D02*
D03*
X2918803D02*
D03*
X2918784Y2750256D02*
D03*
X2927784Y2750256D02*
D03*
X2927764Y2741276D02*
D03*
X2936764Y2741276D02*
D03*
X2936744Y2732296D02*
D03*
X2945744D02*
D03*
X2940724Y2723315D02*
D03*
X2949724D02*
D03*
X2837500Y2538500D02*
D03*
X2828500D02*
D03*
D68*
X2830000Y2628500D02*
D03*
X2818000Y2628500D02*
D03*
D69*
X2782500Y2544750D02*
D03*
X2792500Y2531250D02*
D03*
Y2544750D02*
D03*
X2782500Y2531250D02*
D03*
D70*
X2790737Y2712127D02*
D03*
X2780837Y2702227D02*
D03*
D71*
X2830688Y2672176D02*
D03*
X2840587Y2662277D02*
D03*
X2858069Y2713022D02*
D03*
X2848169Y2722922D02*
D03*
X2830491Y2740600D02*
D03*
X2840390Y2730701D02*
D03*
D72*
X2821495Y2654498D02*
D03*
X2827859Y2660862D02*
D03*
X2815131Y2660862D02*
D03*
X2821495Y2667226D02*
D03*
X2865656Y2696789D02*
D03*
X2872020Y2703152D02*
D03*
X2878384Y2696789D02*
D03*
X2872020Y2690425D02*
D03*
X2859292Y2679111D02*
D03*
X2865656Y2685475D02*
D03*
X2884748Y2647998D02*
D03*
X2891112Y2654362D02*
D03*
X2878384Y2684061D02*
D03*
X2884748Y2690425D02*
D03*
X2899561Y2705758D02*
D03*
X2905925Y2712122D02*
D03*
X2911228Y2717425D02*
D03*
X2917592Y2723789D02*
D03*
X2860519Y2744753D02*
D03*
X2866883Y2751117D02*
D03*
X2872186Y2756421D02*
D03*
X2878549Y2762785D02*
D03*
X2833188Y2795419D02*
D03*
X2839551Y2801783D02*
D03*
X2821521Y2783751D02*
D03*
X2827885Y2790115D02*
D03*
X2956800Y2526850D02*
D03*
X2950436Y2520487D02*
D03*
X2950436Y2710987D02*
D03*
X2956800Y2717350D02*
D03*
X2950436Y2698287D02*
D03*
X2956800Y2704650D02*
D03*
X2950436Y2685587D02*
D03*
X2956800Y2691950D02*
D03*
X2950436Y2672887D02*
D03*
X2956800Y2679250D02*
D03*
X2950436Y2660186D02*
D03*
X2956800Y2666550D02*
D03*
X2950436Y2647487D02*
D03*
X2956800Y2653850D02*
D03*
X2950436Y2634786D02*
D03*
X2956800Y2641150D02*
D03*
X2950436Y2622086D02*
D03*
X2956800Y2628450D02*
D03*
X2950436Y2609387D02*
D03*
X2956800Y2615750D02*
D03*
X2950436Y2596686D02*
D03*
X2956800Y2603050D02*
D03*
X2950436Y2583987D02*
D03*
X2956800Y2590350D02*
D03*
X2950436Y2571287D02*
D03*
X2956800Y2577650D02*
D03*
X2950436Y2558586D02*
D03*
X2956800Y2564950D02*
D03*
X2950436Y2545887D02*
D03*
X2956800Y2552250D02*
D03*
X2950436Y2533187D02*
D03*
X2956800Y2539550D02*
D03*
X2950436Y2495087D02*
D03*
X2956800Y2501450D02*
D03*
X2950436Y2482386D02*
D03*
X2956800Y2488750D02*
D03*
X2950436Y2469686D02*
D03*
X2956800Y2476050D02*
D03*
X2950450Y2507800D02*
D03*
X2956814Y2514164D02*
D03*
D73*
X2800282Y2702581D02*
D03*
X2786847Y2689146D02*
D03*
X2806646Y2669347D02*
D03*
X2813364Y2676065D02*
D03*
X2820081Y2682782D02*
D03*
D74*
X2812812Y2758279D02*
D03*
X2822712Y2748379D02*
D03*
D75*
X2806096Y2732469D02*
D03*
X2812460Y2726105D02*
D03*
X2799732Y2726105D02*
D03*
X2806096Y2719741D02*
D03*
X2844987Y2700649D02*
D03*
X2851350Y2694285D02*
D03*
X2837916Y2693578D02*
D03*
X2844279Y2687214D02*
D03*
X2837915Y2680850D02*
D03*
X2831552Y2687213D02*
D03*
X2899561Y2753842D02*
D03*
X2893198Y2760206D02*
D03*
X2860519Y2792837D02*
D03*
X2854155Y2799201D02*
D03*
X2821521Y2831835D02*
D03*
X2815157Y2838199D02*
D03*
D76*
X2828016Y2710548D02*
D03*
D77*
Y2724690D02*
D03*
X2824481Y2721155D02*
D03*
X2820945Y2717619D02*
D03*
X2817410Y2714084D02*
D03*
X2813874Y2710548D02*
D03*
X2828016Y2696406D02*
D03*
X2831552Y2699942D02*
D03*
X2835087Y2703477D02*
D03*
X2838623Y2707013D02*
D03*
X2842159Y2710548D02*
D03*
D78*
X2801500Y2750500D02*
D03*
X2787358Y2736358D02*
D03*
D79*
X2865708Y2669793D02*
D03*
X2873840Y2652469D02*
D03*
X2883032Y2661661D02*
D03*
X2902072Y2666736D02*
D03*
X2893940Y2684060D02*
D03*
X2884748Y2674868D02*
D03*
D80*
X2914500Y2490500D02*
D03*
Y2578500D02*
D03*
D81*
X2932000Y2493000D02*
D03*
X2897000D02*
D03*
Y2488000D02*
D03*
X2932000D02*
D03*
Y2581000D02*
D03*
X2897000D02*
D03*
Y2576000D02*
D03*
X2932000Y2576000D02*
D03*
D82*
X2927000Y2503000D02*
D03*
X2922000D02*
D03*
X2917000Y2503000D02*
D03*
X2912000D02*
D03*
X2907000Y2503000D02*
D03*
X2902000D02*
D03*
Y2478000D02*
D03*
X2907000D02*
D03*
X2912000Y2478000D02*
D03*
X2917000D02*
D03*
X2922000D02*
D03*
X2927000D02*
D03*
X2927000Y2591000D02*
D03*
X2922000D02*
D03*
X2917000D02*
D03*
X2912000D02*
D03*
X2907000Y2591000D02*
D03*
X2902000D02*
D03*
Y2566000D02*
D03*
X2907000D02*
D03*
X2912000Y2566000D02*
D03*
X2917000D02*
D03*
X2922000D02*
D03*
X2927000D02*
D03*
D83*
X2887540Y2730507D02*
D03*
X2848498Y2769502D02*
D03*
X2809761Y2808287D02*
D03*
D84*
X2898147Y2744649D02*
D03*
X2873398Y2719901D02*
D03*
X2876934Y2716365D02*
D03*
X2901682Y2741114D02*
D03*
X2859104Y2783644D02*
D03*
X2834356Y2758896D02*
D03*
X2837891Y2755360D02*
D03*
X2862640Y2780109D02*
D03*
X2820367Y2822429D02*
D03*
X2795619Y2797680D02*
D03*
X2799154Y2794145D02*
D03*
X2823903Y2818893D02*
D03*
D85*
X2887540Y2748185D02*
D03*
X2884005Y2744649D02*
D03*
X2880469Y2741114D02*
D03*
X2876934Y2737578D02*
D03*
X2873398Y2734043D02*
D03*
X2869863Y2730507D02*
D03*
X2887540Y2712830D02*
D03*
X2891076Y2716365D02*
D03*
X2894611Y2719901D02*
D03*
X2898147Y2723436D02*
D03*
X2901682Y2726972D02*
D03*
X2905218Y2730507D02*
D03*
X2848498Y2787180D02*
D03*
X2844962Y2783644D02*
D03*
X2841427Y2780109D02*
D03*
X2837891Y2776573D02*
D03*
X2834356Y2773038D02*
D03*
X2830820Y2769502D02*
D03*
X2848498Y2751824D02*
D03*
X2852033Y2755360D02*
D03*
X2855569Y2758896D02*
D03*
X2859104Y2762431D02*
D03*
X2862640Y2765966D02*
D03*
X2866176Y2769502D02*
D03*
X2809761Y2825965D02*
D03*
X2806225Y2822429D02*
D03*
X2802690Y2818893D02*
D03*
X2799154Y2815358D02*
D03*
X2795619Y2811823D02*
D03*
X2792083Y2808287D02*
D03*
X2809761Y2790609D02*
D03*
X2813296Y2794145D02*
D03*
X2816832Y2797680D02*
D03*
X2820367Y2801216D02*
D03*
X2823903Y2804751D02*
D03*
X2827438Y2808287D02*
D03*
D86*
X2918500Y2521500D02*
D03*
X2918500Y2540500D02*
D03*
X2900500Y2521500D02*
D03*
Y2540500D02*
D03*
D87*
X2883000Y2521500D02*
D03*
X2883000Y2544500D02*
D03*
X2883000Y2509000D02*
D03*
Y2486000D02*
D03*
D88*
X2868500Y2488500D02*
D03*
X2849500D02*
D03*
X2868500Y2506500D02*
D03*
X2849500Y2506500D02*
D03*
D89*
X2863000Y2467500D02*
D03*
X2883000D02*
D03*
D90*
X2924001Y2676501D02*
D03*
X2917501Y2658501D02*
D03*
X2930501D02*
D03*
D91*
X2916999Y2690001D02*
D03*
X2930999D02*
D03*
D92*
X2903000Y2610000D02*
D03*
X2898000Y2610000D02*
D03*
X2893000D02*
D03*
X2888000D02*
D03*
X2888000Y2633000D02*
D03*
X2893000Y2633000D02*
D03*
X2898000D02*
D03*
X2903000Y2633000D02*
D03*
D93*
X2886500Y2616500D02*
D03*
Y2621500D02*
D03*
Y2626500D02*
D03*
X2904500Y2626500D02*
D03*
X2904500Y2621500D02*
D03*
X2904500Y2616500D02*
D03*
D94*
X2811500Y2608500D02*
D03*
X2815500Y2608500D02*
D03*
X2819500Y2608500D02*
D03*
X2823500Y2608500D02*
D03*
X2827500D02*
D03*
X2831500Y2608500D02*
D03*
X2835500D02*
D03*
X2839500D02*
D03*
X2843500D02*
D03*
X2847500D02*
D03*
X2851500Y2608500D02*
D03*
X2855500Y2608500D02*
D03*
Y2550500D02*
D03*
X2851500Y2550500D02*
D03*
X2847500Y2550500D02*
D03*
X2843500D02*
D03*
X2839500D02*
D03*
X2835500D02*
D03*
X2831500D02*
D03*
X2827500Y2550500D02*
D03*
X2823500Y2550500D02*
D03*
X2819500D02*
D03*
X2815500D02*
D03*
X2811500D02*
D03*
D95*
X2862500Y2601500D02*
D03*
X2862500Y2597500D02*
D03*
X2862500Y2593500D02*
D03*
X2862500Y2589500D02*
D03*
X2862500Y2585500D02*
D03*
X2862500Y2581500D02*
D03*
Y2577500D02*
D03*
X2862500Y2573500D02*
D03*
Y2569500D02*
D03*
X2862500Y2565500D02*
D03*
X2862500Y2561500D02*
D03*
X2862500Y2557500D02*
D03*
X2804500Y2557500D02*
D03*
Y2561500D02*
D03*
X2804500Y2565500D02*
D03*
X2804500Y2569500D02*
D03*
Y2573500D02*
D03*
Y2577500D02*
D03*
Y2581500D02*
D03*
Y2585500D02*
D03*
Y2589500D02*
D03*
Y2593500D02*
D03*
Y2597500D02*
D03*
X2804500Y2601500D02*
D03*
D96*
X2833500Y2579500D02*
D03*
D97*
X2822397Y2515250D02*
D03*
X2814603Y2519750D02*
D03*
D98*
X2834393Y2528947D02*
D03*
X2828607Y2522052D02*
D03*
D99*
X2797750Y2477576D02*
D03*
X2813250Y2504423D02*
D03*
M02*
