M48
;Layer_Color=9474304
;FILE_FORMAT=4:4
METRIC,LZ
;TYPE=PLATED
T1F00S00C0.2000
T2F00S00C0.3000
T3F00S00C0.7000
%
T01
X02777Y02524
X02775Y02531
X02773Y02538
X027725Y02544
Y025505
Y025595
Y02566
Y02573
Y025795
X02778Y0261
X02773Y026165
Y026265
X027725Y02645
X027735Y026645
X02773Y02677
Y02694
Y027055
Y02719
X02774Y02729
X027725Y02739
X02776Y02748
X02774Y027545
X027885Y027635
X0278549Y0277049
X0279751
X02813Y02769
X02822335Y02770916
X0282587Y02774452
X02829406Y02777987
X02827663Y02732115
X02824834Y02734944
X028215Y027285
X02816349Y02722216
X02809985Y02715852
X0279549Y02721862
X027895Y02723
X027935Y02743
X02802207Y02736358
X02835Y02725
X02835087Y02717619
X028425Y02717
X02849584Y02710195
X02852412Y02707366
X028525Y0273
X02861377Y02731921
X02864913Y02735457
X02868448Y02738993
X02871984Y02742528
X02875519Y02746064
X02879055Y02749599
X02882591Y02753134
X02882438Y02766674
X02889308Y02764095
X02895323Y02768216
X02904304Y02759236
X02906632Y02746064
X02913284Y02750256
X02922264Y02741275
X02921481Y02727679
X02910168Y02725558
X02906632Y02722022
X02903097Y02718486
X02899561Y02714951
X0289249Y0270788
X028885Y026985
X02882273Y02700677
X02908Y026985
X029095Y02683
X02899Y02689
X02874495Y02680172
X02861767Y026929
X02846Y026695
X02848Y02659
X02835Y026525
X028155Y026505
X028155Y026378
X028028
Y026505
X028Y026605
X027901Y026378
X0279Y026295
Y026205
X02781Y02626
X02799Y0261
X02793Y025885
X027985Y025815
X02795Y025775
X027985Y025735
X02795Y025695
X027985Y025655
X02795Y025615
X027985Y025575
X02806Y0255
X028105Y02534
X02813Y02528
X028065Y025245
X02804Y025185
X02809Y025155
X02814Y025125
X02829Y02512
X028355Y025095
X02842Y025065
X028415Y025155
X028495Y02517
X02852Y025235
X02861Y025235
X028725Y025175
X02883Y0253
X02887
X02885Y025335
X0289Y025375
X028965Y02533
X02893Y02529
Y025485
X02902Y02559
X02912Y02559
X02917
X02922Y02559
X02927
X029375Y025525
X02946547Y02554697
Y02567397
X02946547Y02580097
X02939Y02576
X02946547Y02592797
X02946547Y02605497
X02939Y026035
X02927Y02598
X02922
X02917Y02598
X02912
X02907Y02598
X02902
X02897Y02598
X02898Y026045
X0289Y025985
X02875Y026015
X028685Y026015
Y025935
X02872Y025895
X028685Y025855
X02872Y025815
X028685Y025775
X02872Y025735
X028685Y025695
X02872Y025655
X028685Y025615
X028625Y025445
X02857
X028515
X028435Y025355
X02842Y025295
X02839Y02524
X02834Y025185
X02821Y02523
X028275Y025315
X02825Y025065
X02831Y02503
X02837Y024995
X02842Y024965
X02857Y024975
Y024885
X028605Y02481
X028545Y024775
Y024675
Y0246
X028445
Y02466
Y02472
Y02478
X028725Y024675
X028935Y02472
X02902Y02471
X02912Y02471
X02917
X02922Y02471
X02927
X02937499Y02464499
X02946547Y02465797
X02956Y02465
X029675Y024605
X02946547Y02478497
X02946547Y02491197
X02939Y024865
X029395Y02513
X02927Y0251
X02922
X02917Y0251
X02912
X02907Y0251
X02902
X02897Y0251
X02876Y02494
X02857Y025065
X0287Y025385
X029115Y02533
X029185
X029275
X029295Y025435
X029435Y02542
X02941Y025345
X029435Y02527
X02931Y025225
X02892Y0246
X027985Y025215
X027925Y025235
X027845Y02524
X02787Y02578
X028235Y026145
X028275Y02618
X028315Y026145
X028355Y02618
X028395Y026145
X028475Y026145
X028515Y02618
X02855Y02631
X028605Y02630999
X028665Y026405
X02880859Y02644109
X028885Y0264
X028925Y02645
X02913Y02639
X029105Y026305
Y026215
X029105Y02612501
X02881Y026165
X02881Y026265
X02871Y02622
X029315Y02627
X02925Y02639
X02931501Y026475
X02946547Y02643597
Y02630897
Y02618197
Y02656297
Y02668997
Y02681697
Y02694397
X02946547Y02707097
X02935225Y02723315
X02931245Y02732295
X029625Y02723432
X029665Y027245
X02932001Y02682001
Y02678001
X02921501Y02666501
X02917501
X029085Y02659
X02824678Y02675358
X02827506Y02678186
X02820945Y02703477
X02795686Y02697985
X02792858Y02700814
X028455Y027375
X02853448Y02746875
X02860519Y02753946
X02864054Y02757481
X0286759Y02761017
X02871125Y02764552
X02886343Y02777196
X028775Y027855
X028735Y027895
X0286759Y02785059
X02864922Y02798618
X02855941Y02807598
X02850266Y0280309
X02843441Y02805671
X028395Y02813
X02846961Y02816578
X02837981Y02825558
X02828592Y02824056
X02829001Y02834539
X0282002Y02843519
X02811268Y02842087
X0281104Y02852499
X0280206Y02861479
X0279308Y0287046
X02783Y028665
X02784099Y0287944
X027835Y02847
Y0283
X02793943Y02820521
X02797479Y02824056
X02801015Y02827592
X0280455Y02831127
X02790408Y02816985
X02786873Y02813449
X0279Y02803251
X027835Y027955
X0278549Y0278251
X0279751
X02814449Y02785872
X02821521Y02792943
X02825056Y02796479
X02828592Y02800015
X02832127Y0280355
X02832942Y02781523
X02836477Y02785058
X02840013Y02788594
X02843548Y0279213
T02
X028255Y02571
X028415
Y02588
X028255
X029145Y025785
X029145Y024905
X02887542Y02730505
X028485Y027695
X02809761Y02808287
T03
X029675Y024697
Y024824
Y024951
Y025078
Y025205
Y025332
Y025459
Y025586
Y025713
Y02584
Y025967
Y026094
Y026221
Y026348
Y026475
Y026602
Y026729
Y026856
Y026983
Y02711
X02959345Y02735655
X02950364Y02744635
X02941384Y02753615
X02932404Y02762596
X02923424Y02771576
X02914443Y02780556
X02905463Y02789536
X02896483Y02798517
X02887503Y02807497
X02878522Y02816477
X02869542Y02825457
X02860562Y02834438
X02851582Y02843418
X02842601Y02852398
X02833621Y02861378
X02824641Y02870359
X02815661Y02879339
X0280668Y02888319
X027977Y02897299
X0278872Y0290628
M30
