G04 Layer_Color=8421504*
%FSLAX44Y44*%
%MOMM*%
G71*
G01*
G75*
%ADD15C,0.1200*%
D15*
X2585999Y2233997D02*
Y2222000D01*
X2582000Y2233997D02*
X2589998D01*
X2594283Y2229998D02*
X2593141Y2229427D01*
X2591998Y2228284D01*
X2591426Y2226570D01*
Y2225428D01*
X2591998Y2223714D01*
X2593141Y2222571D01*
X2594283Y2222000D01*
X2595997D01*
X2597140Y2222571D01*
X2598282Y2223714D01*
X2598853Y2225428D01*
Y2226570D01*
X2598282Y2228284D01*
X2597140Y2229427D01*
X2595997Y2229998D01*
X2594283D01*
X2601482D02*
Y2218001D01*
Y2228284D02*
X2602624Y2229427D01*
X2603767Y2229998D01*
X2605481D01*
X2606623Y2229427D01*
X2607766Y2228284D01*
X2608337Y2226570D01*
Y2225428D01*
X2607766Y2223714D01*
X2606623Y2222571D01*
X2605481Y2222000D01*
X2603767D01*
X2602624Y2222571D01*
X2601482Y2223714D01*
X2620334Y2227713D02*
X2625476D01*
X2627190Y2228284D01*
X2627762Y2228856D01*
X2628333Y2229998D01*
Y2231712D01*
X2627762Y2232855D01*
X2627190Y2233426D01*
X2625476Y2233997D01*
X2620334D01*
Y2222000D01*
X2637874Y2229998D02*
Y2222000D01*
Y2228284D02*
X2636731Y2229427D01*
X2635588Y2229998D01*
X2633875D01*
X2632732Y2229427D01*
X2631589Y2228284D01*
X2631018Y2226570D01*
Y2225428D01*
X2631589Y2223714D01*
X2632732Y2222571D01*
X2633875Y2222000D01*
X2635588D01*
X2636731Y2222571D01*
X2637874Y2223714D01*
X2647357Y2228284D02*
X2646786Y2229427D01*
X2645072Y2229998D01*
X2643358D01*
X2641644Y2229427D01*
X2641073Y2228284D01*
X2641644Y2227142D01*
X2642787Y2226570D01*
X2645644Y2225999D01*
X2646786Y2225428D01*
X2647357Y2224285D01*
Y2223714D01*
X2646786Y2222571D01*
X2645072Y2222000D01*
X2643358D01*
X2641644Y2222571D01*
X2641073Y2223714D01*
X2651585Y2233997D02*
Y2224285D01*
X2652156Y2222571D01*
X2653299Y2222000D01*
X2654442D01*
X2649871Y2229998D02*
X2653870D01*
X2656155Y2226570D02*
X2663011D01*
Y2227713D01*
X2662440Y2228856D01*
X2661869Y2229427D01*
X2660726Y2229998D01*
X2659012D01*
X2657870Y2229427D01*
X2656727Y2228284D01*
X2656155Y2226570D01*
Y2225428D01*
X2656727Y2223714D01*
X2657870Y2222571D01*
X2659012Y2222000D01*
X2660726D01*
X2661869Y2222571D01*
X2663011Y2223714D01*
M02*
