G04 Layer_Color=32896*
%FSLAX44Y44*%
%MOMM*%
G71*
G01*
G75*
%ADD15C,0.1200*%
%ADD21C,0.2000*%
%ADD57C,0.3000*%
D15*
X2762000Y2193997D02*
Y2182000D01*
Y2193997D02*
X2767142D01*
X2768856Y2193426D01*
X2769427Y2192855D01*
X2769998Y2191712D01*
Y2190570D01*
X2769427Y2189427D01*
X2768856Y2188856D01*
X2767142Y2188284D01*
X2762000D02*
X2767142D01*
X2768856Y2187713D01*
X2769427Y2187142D01*
X2769998Y2185999D01*
Y2184285D01*
X2769427Y2183143D01*
X2768856Y2182571D01*
X2767142Y2182000D01*
X2762000D01*
X2775540Y2189998D02*
X2774397Y2189427D01*
X2773255Y2188284D01*
X2772683Y2186570D01*
Y2185428D01*
X2773255Y2183714D01*
X2774397Y2182571D01*
X2775540Y2182000D01*
X2777254D01*
X2778397Y2182571D01*
X2779539Y2183714D01*
X2780110Y2185428D01*
Y2186570D01*
X2779539Y2188284D01*
X2778397Y2189427D01*
X2777254Y2189998D01*
X2775540D01*
X2784452Y2193997D02*
Y2184285D01*
X2785023Y2182571D01*
X2786166Y2182000D01*
X2787309D01*
X2782738Y2189998D02*
X2786738D01*
X2790737Y2193997D02*
Y2184285D01*
X2791308Y2182571D01*
X2792451Y2182000D01*
X2793593D01*
X2789023Y2189998D02*
X2793022D01*
X2798164D02*
X2797021Y2189427D01*
X2795878Y2188284D01*
X2795307Y2186570D01*
Y2185428D01*
X2795878Y2183714D01*
X2797021Y2182571D01*
X2798164Y2182000D01*
X2799878D01*
X2801020Y2182571D01*
X2802163Y2183714D01*
X2802734Y2185428D01*
Y2186570D01*
X2802163Y2188284D01*
X2801020Y2189427D01*
X2799878Y2189998D01*
X2798164D01*
X2805362D02*
Y2182000D01*
Y2187713D02*
X2807076Y2189427D01*
X2808219Y2189998D01*
X2809933D01*
X2811075Y2189427D01*
X2811646Y2187713D01*
Y2182000D01*
Y2187713D02*
X2813360Y2189427D01*
X2814503Y2189998D01*
X2816217D01*
X2817360Y2189427D01*
X2817931Y2187713D01*
Y2182000D01*
X2839126Y2192283D02*
X2837984Y2193426D01*
X2836270Y2193997D01*
X2833985D01*
X2832271Y2193426D01*
X2831128Y2192283D01*
Y2191141D01*
X2831699Y2189998D01*
X2832271Y2189427D01*
X2833413Y2188856D01*
X2836841Y2187713D01*
X2837984Y2187142D01*
X2838555Y2186570D01*
X2839126Y2185428D01*
Y2183714D01*
X2837984Y2182571D01*
X2836270Y2182000D01*
X2833985D01*
X2832271Y2182571D01*
X2831128Y2183714D01*
X2842954Y2193997D02*
X2843525Y2193426D01*
X2844097Y2193997D01*
X2843525Y2194569D01*
X2842954Y2193997D01*
X2843525Y2189998D02*
Y2182000D01*
X2846211Y2193997D02*
Y2182000D01*
X2848724Y2193997D02*
Y2182000D01*
X2854437Y2189998D02*
X2848724Y2184285D01*
X2851010Y2186570D02*
X2855009Y2182000D01*
X2863178Y2188284D02*
X2862607Y2189427D01*
X2860893Y2189998D01*
X2859179D01*
X2857465Y2189427D01*
X2856894Y2188284D01*
X2857465Y2187142D01*
X2858608Y2186570D01*
X2861465Y2185999D01*
X2862607Y2185428D01*
X2863178Y2184285D01*
Y2183714D01*
X2862607Y2182571D01*
X2860893Y2182000D01*
X2859179D01*
X2857465Y2182571D01*
X2856894Y2183714D01*
X2872548Y2188284D02*
X2871405Y2189427D01*
X2870262Y2189998D01*
X2868549D01*
X2867406Y2189427D01*
X2866263Y2188284D01*
X2865692Y2186570D01*
Y2185428D01*
X2866263Y2183714D01*
X2867406Y2182571D01*
X2868549Y2182000D01*
X2870262D01*
X2871405Y2182571D01*
X2872548Y2183714D01*
X2875119Y2189998D02*
Y2182000D01*
Y2186570D02*
X2875690Y2188284D01*
X2876833Y2189427D01*
X2877975Y2189998D01*
X2879689D01*
X2880775Y2186570D02*
X2887630D01*
Y2187713D01*
X2887059Y2188856D01*
X2886488Y2189427D01*
X2885345Y2189998D01*
X2883631D01*
X2882488Y2189427D01*
X2881346Y2188284D01*
X2880775Y2186570D01*
Y2185428D01*
X2881346Y2183714D01*
X2882488Y2182571D01*
X2883631Y2182000D01*
X2885345D01*
X2886488Y2182571D01*
X2887630Y2183714D01*
X2890201Y2186570D02*
X2897057D01*
Y2187713D01*
X2896485Y2188856D01*
X2895914Y2189427D01*
X2894771Y2189998D01*
X2893058D01*
X2891915Y2189427D01*
X2890772Y2188284D01*
X2890201Y2186570D01*
Y2185428D01*
X2890772Y2183714D01*
X2891915Y2182571D01*
X2893058Y2182000D01*
X2894771D01*
X2895914Y2182571D01*
X2897057Y2183714D01*
X2899628Y2189998D02*
Y2182000D01*
Y2187713D02*
X2901342Y2189427D01*
X2902484Y2189998D01*
X2904198D01*
X2905341Y2189427D01*
X2905912Y2187713D01*
Y2182000D01*
D21*
X2819314Y2693742D02*
G03*
X2819314Y2693742I-1000J0D01*
G01*
X2905500Y2603000D02*
G03*
X2905500Y2603000I-1000J0D01*
G01*
X2783499Y2568000D02*
X2788499D01*
X2783500Y2588000D02*
X2788500D01*
X2772001Y2593001D02*
Y2595001D01*
X2779001Y2593001D02*
Y2595001D01*
X2789500Y2598500D02*
Y2603500D01*
X2788000Y2607499D02*
Y2612499D01*
X2824000Y2623500D02*
Y2633500D01*
X2804500Y2618000D02*
Y2623000D01*
Y2627000D02*
Y2632000D01*
X2843500Y2625999D02*
Y2630999D01*
X2858000Y2621000D02*
X2863000D01*
X2868500Y2612000D02*
X2873500D01*
X2849500Y2533500D02*
X2854500D01*
X2858500Y2533500D02*
X2863500D01*
X2817500Y2533000D02*
X2822500D01*
X2799500Y2535500D02*
X2804500D01*
X2782000Y2552000D02*
Y2557000D01*
X2782605Y2708944D02*
X2784019Y2710359D01*
X2787554Y2703995D02*
X2788969Y2705409D01*
X2832456Y2665458D02*
X2833870Y2664044D01*
X2837405Y2670408D02*
X2838820Y2668994D01*
X2822910Y2659448D02*
X2826445Y2655912D01*
X2816546Y2665812D02*
X2820081Y2662276D01*
X2789676Y2679954D02*
X2809475Y2699753D01*
X2789676Y2679954D02*
X2797454Y2672176D01*
X2809475Y2699753D02*
X2813364Y2695864D01*
X2813364Y2688086D02*
X2813364Y2695864D01*
X2797454Y2672176D02*
X2813364Y2688086D01*
X2814580Y2751561D02*
X2815994Y2750147D01*
X2819530Y2756511D02*
X2820944Y2755097D01*
X2854886Y2721155D02*
X2856300Y2719741D01*
X2849937Y2716205D02*
X2851351Y2714791D01*
X2832259Y2733882D02*
X2833673Y2732468D01*
X2837208Y2738832D02*
X2838623Y2737418D01*
X2807510Y2727519D02*
X2811046Y2731054D01*
X2801146Y2721155D02*
X2804682Y2724690D01*
X2846400Y2695699D02*
X2849936Y2699235D01*
X2839330Y2688628D02*
X2842865Y2692163D01*
X2832966Y2682264D02*
X2836501Y2685800D01*
X2813521Y2703123D02*
X2820592Y2696053D01*
X2835441Y2725042D02*
X2842512Y2717971D01*
X2867070Y2701738D02*
X2870606Y2698203D01*
X2873434Y2695374D02*
X2876970Y2691839D01*
X2860706Y2684060D02*
X2864242Y2680525D01*
X2870658Y2673328D02*
X2872779Y2675450D01*
X2875254Y2672975D01*
X2860051Y2662722D02*
X2862526Y2660247D01*
X2860051Y2662722D02*
X2862173Y2664843D01*
X2886162Y2652948D02*
X2889698Y2649412D01*
X2879798Y2689010D02*
X2883334Y2685475D01*
X2895001Y2661079D02*
X2897122Y2663201D01*
X2892526Y2663554D02*
X2895001Y2661079D01*
X2905254Y2676282D02*
X2907729Y2673807D01*
X2905608Y2671686D02*
X2907729Y2673807D01*
X2926499Y2461999D02*
Y2466999D01*
X2910000Y2462000D02*
Y2467000D01*
X2937000Y2503000D02*
X2942000D01*
X2937000Y2591000D02*
X2942000D01*
X2926500Y2550000D02*
Y2555000D01*
X2910000Y2550000D02*
Y2555000D01*
X2894612Y2755256D02*
X2898147Y2758792D01*
X2900975Y2710708D02*
X2904511Y2707173D01*
X2912643Y2722375D02*
X2916178Y2718839D01*
X2855569Y2794251D02*
X2859105Y2797786D01*
X2861933Y2749703D02*
X2865468Y2746168D01*
X2873600Y2761371D02*
X2877136Y2757835D01*
X2816571Y2833249D02*
X2820107Y2836784D01*
X2834602Y2800368D02*
X2838138Y2796833D01*
X2822935Y2788701D02*
X2826470Y2785165D01*
X2934000Y2497500D02*
Y2505000D01*
X2931500D02*
X2934000D01*
X2895000Y2497500D02*
Y2505000D01*
X2897500D01*
X2895000Y2476000D02*
Y2483500D01*
Y2476000D02*
X2897500D01*
X2931500D02*
X2934000D01*
X2934000Y2479500D02*
X2934000Y2476000D01*
Y2585500D02*
X2934000Y2593000D01*
X2931500D02*
X2934000D01*
X2895000D02*
X2895000Y2585500D01*
X2895000Y2593000D02*
X2897500D01*
X2895000Y2564000D02*
Y2571500D01*
Y2564000D02*
X2897500D01*
X2931500D02*
X2934000D01*
X2934000Y2567500D02*
X2934000Y2564000D01*
X2891076Y2754549D02*
X2896379Y2749246D01*
X2889308Y2752781D02*
X2891076Y2754549D01*
X2863499Y2726972D02*
X2868802Y2721668D01*
X2863499Y2726972D02*
X2865266Y2728740D01*
X2878701Y2711769D02*
X2884005Y2706466D01*
X2885772Y2708233D01*
X2909814Y2732275D02*
X2911582Y2734043D01*
X2909107Y2736518D02*
X2911582Y2734043D01*
X2852033Y2793544D02*
X2857337Y2788240D01*
X2850266Y2791776D02*
X2852033Y2793544D01*
X2824456Y2765966D02*
X2829760Y2760663D01*
X2824456Y2765966D02*
X2826224Y2767734D01*
X2839659Y2750764D02*
X2844962Y2745461D01*
X2846730Y2747228D01*
X2870772Y2771270D02*
X2872539Y2773038D01*
X2870065Y2775512D02*
X2872539Y2773038D01*
X2813296Y2832328D02*
X2818600Y2827025D01*
X2811528Y2830561D02*
X2813296Y2832328D01*
X2785719Y2804751D02*
X2791022Y2799448D01*
X2785719Y2804751D02*
X2787487Y2806519D01*
X2800922Y2789549D02*
X2806225Y2784245D01*
X2807993Y2786013D01*
X2832035Y2810055D02*
X2833802Y2811823D01*
X2831328Y2814297D02*
X2833802Y2811823D01*
X2878000Y2530500D02*
X2888000D01*
X2878000Y2537000D02*
X2878000Y2529000D01*
X2888000Y2537000D02*
X2888000Y2529000D01*
X2878000D02*
X2888000D01*
X2878000Y2500000D02*
X2888000D01*
Y2493500D02*
Y2501500D01*
X2878000Y2493500D02*
Y2501500D01*
X2888000D01*
X2921501Y2645001D02*
Y2650001D01*
X2930001Y2675501D02*
X2933001D01*
Y2672001D02*
Y2675501D01*
X2915001D02*
X2915001Y2672001D01*
X2915001Y2675501D02*
X2918001D01*
X2923000Y2686501D02*
X2925000D01*
X2923000Y2693501D02*
X2925000D01*
X2920500Y2628000D02*
Y2633000D01*
X2920500Y2610001D02*
Y2615001D01*
X2920500Y2619000D02*
Y2624000D01*
X2909500Y2609498D02*
X2909500Y2604998D01*
X2881498Y2609498D02*
X2881498Y2604998D01*
X2883998Y2604998D01*
X2881498Y2633500D02*
Y2638000D01*
X2883998D01*
X2907000D02*
X2909500D01*
Y2633500D02*
Y2638000D01*
X2951851Y2525436D02*
X2955386Y2521900D01*
X2781599Y2889440D02*
X2786599D01*
X2790580Y2880460D02*
X2795580D01*
X2799560Y2871479D02*
X2804560D01*
X2808540Y2862499D02*
X2813540D01*
X2817520Y2853519D02*
X2822520D01*
X2826501Y2844539D02*
X2831501D01*
X2835481Y2835558D02*
X2840481D01*
X2844461Y2826578D02*
X2849461D01*
X2853441Y2817598D02*
X2858441D01*
X2862422Y2808618D02*
X2867422D01*
X2871402Y2799637D02*
X2876402D01*
X2887363Y2783677D02*
Y2788677D01*
X2896343Y2774697D02*
Y2779697D01*
X2905323Y2765716D02*
Y2770717D01*
X2914304Y2756736D02*
Y2761736D01*
X2923284Y2752756D02*
X2923284Y2747756D01*
X2932264Y2738776D02*
Y2743776D01*
X2941244Y2729796D02*
Y2734796D01*
X2945224Y2725815D02*
X2945225Y2720815D01*
X2951851Y2715936D02*
X2955386Y2712401D01*
X2951850Y2703236D02*
X2955386Y2699700D01*
X2951851Y2690536D02*
X2955386Y2687000D01*
X2951851Y2677836D02*
X2955386Y2674301D01*
X2951851Y2665136D02*
X2955386Y2661600D01*
X2951850Y2652436D02*
X2955386Y2648900D01*
X2951850Y2639736D02*
X2955386Y2636200D01*
X2951851Y2627036D02*
X2955386Y2623500D01*
X2951850Y2614336D02*
X2955386Y2610800D01*
X2951850Y2601636D02*
X2955386Y2598100D01*
X2951851Y2588936D02*
X2955386Y2585400D01*
X2951851Y2576236D02*
X2955386Y2572701D01*
X2951850Y2563536D02*
X2955386Y2560000D01*
X2951851Y2550836D02*
X2955386Y2547300D01*
X2951851Y2538136D02*
X2955386Y2534600D01*
X2951851Y2500036D02*
X2955386Y2496500D01*
X2951850Y2487336D02*
X2955386Y2483800D01*
X2951850Y2474636D02*
X2955386Y2471100D01*
X2951864Y2512750D02*
X2955400Y2509214D01*
X2801500Y2605500D02*
X2801500Y2611500D01*
X2807500Y2611500D01*
X2801500Y2547500D02*
X2807500Y2547500D01*
X2801500Y2547500D02*
X2801500Y2553500D01*
X2865500Y2547500D02*
Y2553500D01*
X2859500Y2547500D02*
X2865500D01*
Y2605500D02*
Y2611500D01*
X2859500D02*
X2865500D01*
X2798000Y2607000D02*
Y2615000D01*
X2806000D01*
X2833000Y2536000D02*
Y2541000D01*
X2817250Y2515335D02*
X2819750Y2519665D01*
X2829585Y2527107D02*
X2833415Y2523893D01*
X2820959Y2494776D02*
X2824584Y2501055D01*
X2801041Y2506276D02*
X2804666Y2512555D01*
D57*
X2849376Y2709488D02*
G03*
X2849376Y2709488I-500J0D01*
G01*
X2938500Y2483000D02*
G03*
X2938500Y2483000I-1000J0D01*
G01*
X2938500Y2571000D02*
G03*
X2938500Y2571000I-1000J0D01*
G01*
X2910107Y2741467D02*
G03*
X2910107Y2741467I-1000J0D01*
G01*
X2871064Y2780462D02*
G03*
X2871064Y2780462I-1000J0D01*
G01*
X2832327Y2819247D02*
G03*
X2832327Y2819247I-1000J0D01*
G01*
X2923500Y2529000D02*
X2923500Y2533000D01*
X2913500Y2529000D02*
X2913500Y2533000D01*
X2905500Y2529000D02*
Y2533000D01*
X2895500Y2529000D02*
Y2533000D01*
X2857000Y2493500D02*
X2861000D01*
X2857000Y2483500D02*
X2861000D01*
X2857000Y2511500D02*
X2861000Y2511500D01*
X2857000Y2501500D02*
X2861000Y2501500D01*
M02*
