G04 Layer_Color=65535*
%FSLAX44Y44*%
%MOMM*%
G71*
G01*
G75*
%ADD15C,0.1200*%
D15*
X2585999Y2253997D02*
Y2242000D01*
X2582000Y2253997D02*
X2589998D01*
X2594283Y2249998D02*
X2593141Y2249427D01*
X2591998Y2248284D01*
X2591426Y2246570D01*
Y2245428D01*
X2591998Y2243714D01*
X2593141Y2242571D01*
X2594283Y2242000D01*
X2595997D01*
X2597140Y2242571D01*
X2598282Y2243714D01*
X2598853Y2245428D01*
Y2246570D01*
X2598282Y2248284D01*
X2597140Y2249427D01*
X2595997Y2249998D01*
X2594283D01*
X2601482D02*
Y2238001D01*
Y2248284D02*
X2602624Y2249427D01*
X2603767Y2249998D01*
X2605481D01*
X2606623Y2249427D01*
X2607766Y2248284D01*
X2608337Y2246570D01*
Y2245428D01*
X2607766Y2243714D01*
X2606623Y2242571D01*
X2605481Y2242000D01*
X2603767D01*
X2602624Y2242571D01*
X2601482Y2243714D01*
X2628333Y2252283D02*
X2627190Y2253426D01*
X2625476Y2253997D01*
X2623191D01*
X2621477Y2253426D01*
X2620334Y2252283D01*
Y2251141D01*
X2620906Y2249998D01*
X2621477Y2249427D01*
X2622620Y2248856D01*
X2626048Y2247713D01*
X2627190Y2247142D01*
X2627762Y2246570D01*
X2628333Y2245428D01*
Y2243714D01*
X2627190Y2242571D01*
X2625476Y2242000D01*
X2623191D01*
X2621477Y2242571D01*
X2620334Y2243714D01*
X2632161Y2253997D02*
X2632732Y2253426D01*
X2633303Y2253997D01*
X2632732Y2254569D01*
X2632161Y2253997D01*
X2632732Y2249998D02*
Y2242000D01*
X2635417Y2253997D02*
Y2242000D01*
X2637931Y2253997D02*
Y2242000D01*
X2643644Y2249998D02*
X2637931Y2244285D01*
X2640216Y2246570D02*
X2644215Y2242000D01*
X2652385Y2248284D02*
X2651814Y2249427D01*
X2650100Y2249998D01*
X2648386D01*
X2646672Y2249427D01*
X2646100Y2248284D01*
X2646672Y2247142D01*
X2647814Y2246570D01*
X2650671Y2245999D01*
X2651814Y2245428D01*
X2652385Y2244285D01*
Y2243714D01*
X2651814Y2242571D01*
X2650100Y2242000D01*
X2648386D01*
X2646672Y2242571D01*
X2646100Y2243714D01*
X2661754Y2248284D02*
X2660612Y2249427D01*
X2659469Y2249998D01*
X2657755D01*
X2656613Y2249427D01*
X2655470Y2248284D01*
X2654899Y2246570D01*
Y2245428D01*
X2655470Y2243714D01*
X2656613Y2242571D01*
X2657755Y2242000D01*
X2659469D01*
X2660612Y2242571D01*
X2661754Y2243714D01*
X2664325Y2249998D02*
Y2242000D01*
Y2246570D02*
X2664897Y2248284D01*
X2666039Y2249427D01*
X2667182Y2249998D01*
X2668896D01*
X2669981Y2246570D02*
X2676837D01*
Y2247713D01*
X2676266Y2248856D01*
X2675694Y2249427D01*
X2674552Y2249998D01*
X2672838D01*
X2671695Y2249427D01*
X2670552Y2248284D01*
X2669981Y2246570D01*
Y2245428D01*
X2670552Y2243714D01*
X2671695Y2242571D01*
X2672838Y2242000D01*
X2674552D01*
X2675694Y2242571D01*
X2676837Y2243714D01*
X2679408Y2246570D02*
X2686263D01*
Y2247713D01*
X2685692Y2248856D01*
X2685121Y2249427D01*
X2683978Y2249998D01*
X2682264D01*
X2681122Y2249427D01*
X2679979Y2248284D01*
X2679408Y2246570D01*
Y2245428D01*
X2679979Y2243714D01*
X2681122Y2242571D01*
X2682264Y2242000D01*
X2683978D01*
X2685121Y2242571D01*
X2686263Y2243714D01*
X2688834Y2249998D02*
Y2242000D01*
Y2247713D02*
X2690548Y2249427D01*
X2691691Y2249998D01*
X2693405D01*
X2694547Y2249427D01*
X2695119Y2247713D01*
Y2242000D01*
M02*
