G04 Layer_Color=15790320*
%FSLAX44Y44*%
%MOMM*%
G71*
G01*
G75*
%ADD15C,0.1200*%
%ADD103C,0.1000*%
D15*
X2982000Y2253997D02*
Y2242000D01*
Y2253997D02*
X2987142D01*
X2988856Y2253426D01*
X2989427Y2252855D01*
X2989998Y2251712D01*
Y2250570D01*
X2989427Y2249427D01*
X2988856Y2248856D01*
X2987142Y2248284D01*
X2982000D02*
X2987142D01*
X2988856Y2247713D01*
X2989427Y2247142D01*
X2989998Y2245999D01*
Y2244285D01*
X2989427Y2243143D01*
X2988856Y2242571D01*
X2987142Y2242000D01*
X2982000D01*
X2995540Y2249998D02*
X2994397Y2249427D01*
X2993255Y2248284D01*
X2992683Y2246570D01*
Y2245428D01*
X2993255Y2243714D01*
X2994397Y2242571D01*
X2995540Y2242000D01*
X2997254D01*
X2998397Y2242571D01*
X2999539Y2243714D01*
X3000110Y2245428D01*
Y2246570D01*
X2999539Y2248284D01*
X2998397Y2249427D01*
X2997254Y2249998D01*
X2995540D01*
X3009594D02*
Y2242000D01*
Y2248284D02*
X3008452Y2249427D01*
X3007309Y2249998D01*
X3005595D01*
X3004452Y2249427D01*
X3003310Y2248284D01*
X3002738Y2246570D01*
Y2245428D01*
X3003310Y2243714D01*
X3004452Y2242571D01*
X3005595Y2242000D01*
X3007309D01*
X3008452Y2242571D01*
X3009594Y2243714D01*
X3012793Y2249998D02*
Y2242000D01*
Y2246570D02*
X3013365Y2248284D01*
X3014507Y2249427D01*
X3015650Y2249998D01*
X3017364D01*
X3025305Y2253997D02*
Y2242000D01*
Y2248284D02*
X3024162Y2249427D01*
X3023020Y2249998D01*
X3021306D01*
X3020163Y2249427D01*
X3019021Y2248284D01*
X3018449Y2246570D01*
Y2245428D01*
X3019021Y2243714D01*
X3020163Y2242571D01*
X3021306Y2242000D01*
X3023020D01*
X3024162Y2242571D01*
X3025305Y2243714D01*
X3041359Y2253997D02*
X3040216Y2253426D01*
X3039073Y2252283D01*
X3038502Y2251141D01*
X3037931Y2249427D01*
Y2246570D01*
X3038502Y2244857D01*
X3039073Y2243714D01*
X3040216Y2242571D01*
X3041359Y2242000D01*
X3043644D01*
X3044786Y2242571D01*
X3045929Y2243714D01*
X3046501Y2244857D01*
X3047072Y2246570D01*
Y2249427D01*
X3046501Y2251141D01*
X3045929Y2252283D01*
X3044786Y2253426D01*
X3043644Y2253997D01*
X3041359D01*
X3049871Y2249998D02*
Y2244285D01*
X3050443Y2242571D01*
X3051585Y2242000D01*
X3053299D01*
X3054442Y2242571D01*
X3056155Y2244285D01*
Y2249998D02*
Y2242000D01*
X3061012Y2253997D02*
Y2244285D01*
X3061583Y2242571D01*
X3062726Y2242000D01*
X3063868D01*
X3059298Y2249998D02*
X3063297D01*
X3065582Y2253997D02*
Y2242000D01*
X3069238Y2253997D02*
X3069810Y2253426D01*
X3070381Y2253997D01*
X3069810Y2254569D01*
X3069238Y2253997D01*
X3069810Y2249998D02*
Y2242000D01*
X3072495Y2249998D02*
Y2242000D01*
Y2247713D02*
X3074209Y2249427D01*
X3075351Y2249998D01*
X3077065D01*
X3078208Y2249427D01*
X3078779Y2247713D01*
Y2242000D01*
X3081921Y2246570D02*
X3088777D01*
Y2247713D01*
X3088206Y2248856D01*
X3087635Y2249427D01*
X3086492Y2249998D01*
X3084778D01*
X3083635Y2249427D01*
X3082493Y2248284D01*
X3081921Y2246570D01*
Y2245428D01*
X3082493Y2243714D01*
X3083635Y2242571D01*
X3084778Y2242000D01*
X3086492D01*
X3087635Y2242571D01*
X3088777Y2243714D01*
D103*
X2980000Y2719800D02*
G03*
X2971020Y2741480I-30661J0D01*
G01*
X2800303Y2912197D02*
G03*
X2787500Y2917500I-12803J-12803D01*
G01*
X2967300Y2455000D02*
G03*
X2980000Y2467700I0J12700D01*
G01*
X2787500Y2917500D02*
G03*
X2777500Y2907500I0J-10000D01*
G01*
X2772500Y2762500D02*
G03*
X2777500Y2774571I-12071J12071D01*
G01*
X2772500Y2762500D02*
G03*
X2767500Y2750429I12071J-12071D01*
G01*
X2785000Y2477500D02*
X2822291Y2455106D01*
X2767500Y2537500D02*
X2785000Y2477500D01*
X2980000Y2475000D02*
Y2719800D01*
X2800303Y2912197D02*
X2971020Y2741480D01*
X2980000Y2467700D02*
Y2475000D01*
X2822291Y2455000D02*
X2967300D01*
X2777500Y2774571D02*
Y2907500D01*
X2767500Y2537500D02*
Y2750429D01*
M02*
