%TF.GenerationSoftware,KiCad,Pcbnew,7.0.11+dfsg-1build4*%
%TF.CreationDate,2026-10-01T15:00:51+10:00*%
%TF.ProjectId,Reid_Orthotic_v2_LHS,52656964-5f4f-4727-9468-6f7469635f76,R4*%
%TF.SameCoordinates,Original*%
%TF.FileFunction,Copper,L2,Inr*%
%TF.FilePolarity,Positive*%
%FSLAX46Y46*%
G04 Gerber Fmt 4.6, Leading zero omitted, Abs format (unit mm)*
G04 Created by KiCad (PCBNEW 7.0.11+dfsg-1build4) date 2026-10-01 15:00:51*
%MOMM*%
%LPD*%
G01*
G04 APERTURE LIST*
G04 Aperture macros list*
%AMHorizOval*
0 Thick line with rounded ends*
0 $1 width*
0 $2 $3 position (X,Y) of the first rounded end (center of the circle)*
0 $4 $5 position (X,Y) of the second rounded end (center of the circle)*
0 Add line between two ends*
20,1,$1,$2,$3,$4,$5,0*
0 Add two circle primitives to create the rounded ends*
1,1,$1,$2,$3*
1,1,$1,$4,$5*%
G04 Aperture macros list end*
%TA.AperFunction,ComponentPad*%
%ADD10O,1.500000X1.050000*%
%TD*%
%TA.AperFunction,ComponentPad*%
%ADD11HorizOval,1.050000X0.159099X0.159099X-0.159099X-0.159099X0*%
%TD*%
%TA.AperFunction,ViaPad*%
%ADD12C,0.400000*%
%TD*%
%TA.AperFunction,Conductor*%
%ADD13C,0.400000*%
%TD*%
G04 APERTURE END LIST*
D10*
%TO.N,0V*%
%TO.C,J2*%
X56750000Y-53030000D03*
X56750000Y-47950000D03*
%TD*%
D11*
%TO.N,0V*%
%TO.C,J1*%
X48750302Y-19250302D03*
%TD*%
D12*
%TO.N,VSYS*%
X43968400Y-30510500D03*
X43685500Y-30227700D03*
%TO.N,3V3*%
X42023800Y-32667100D03*
X42306700Y-32950000D03*
%TO.N,0V*%
X56250000Y-27656800D03*
X56650000Y-27550000D03*
%TO.N,MUX_VCC*%
X53200100Y-31799900D03*
X53200100Y-32199900D03*
%TO.N,3V3*%
X53050100Y-33349900D03*
X52650100Y-33349900D03*
%TO.N,VSYS*%
X47900000Y-47000000D03*
X48300000Y-47000000D03*
X48700000Y-47000000D03*
%TO.N,0V*%
X55600000Y-53500000D03*
%TD*%
D13*
%TO.N,0V*%
X55600000Y-53500000D02*
X55600000Y-53030000D01*
X55600000Y-53030000D02*
X56750000Y-53030000D01*
X55600000Y-53030000D02*
X55600000Y-47950000D01*
X48450000Y-20680200D02*
X55600000Y-27830200D01*
X55600000Y-47950000D02*
X55600000Y-27830200D01*
X55600000Y-47950000D02*
X56750000Y-47950000D01*
X48450000Y-20680200D02*
X48450000Y-19550600D01*
X48450000Y-19550600D02*
X48750300Y-19250300D01*
%TO.N,MUX_VCC*%
X53200100Y-32199900D02*
X53200100Y-31799900D01*
%TO.N,3V3*%
X52650100Y-33349900D02*
X53050100Y-33349900D01*
X42023800Y-32667100D02*
X42306700Y-32950000D01*
%TO.N,VSYS*%
X43685500Y-30227700D02*
X43968400Y-30510500D01*
X48300000Y-47000000D02*
X48700000Y-47000000D01*
X47900000Y-47000000D02*
X48300000Y-47000000D01*
%TO.N,0V*%
X55600000Y-27830200D02*
X56250000Y-27656800D01*
X56250000Y-27656800D02*
X56650000Y-27550000D01*
%TD*%
%TA.AperFunction,Conductor*%
%TO.N,3V3*%
G36*
X37847700Y-27597700D02*
G01*
X37770300Y-27713400D01*
X37743100Y-27850000D01*
X37746900Y-27868900D01*
X37605600Y-27927400D01*
X37552300Y-27847700D01*
X37436600Y-27770300D01*
X37300000Y-27743200D01*
X37205900Y-27761900D01*
X37055900Y-27675500D01*
X37055900Y-27550500D01*
X37918260Y-27550500D01*
X37847700Y-27597700D01*
G37*
%TD.AperFunction*%
%TA.AperFunction,Conductor*%
G36*
X37205900Y-34805700D02*
G01*
X37221820Y-34829500D01*
X37127270Y-34829500D01*
X37205900Y-34805700D01*
G37*
%TD.AperFunction*%
%TA.AperFunction,Conductor*%
G36*
X38886500Y-45879700D02*
G01*
X39002300Y-45802400D01*
X39047700Y-45802400D01*
X39163400Y-45879700D01*
X39262840Y-45899500D01*
X38787140Y-45899500D01*
X38886500Y-45879700D01*
G37*
%TD.AperFunction*%
%TA.AperFunction,Conductor*%
G36*
X38336500Y-45879700D02*
G01*
X38452300Y-45802400D01*
X38497700Y-45802400D01*
X38613400Y-45879700D01*
X38712840Y-45899500D01*
X38237140Y-45899500D01*
X38336500Y-45879700D01*
G37*
%TD.AperFunction*%
%TA.AperFunction,Conductor*%
G36*
X37557100Y-45770400D02*
G01*
X37579700Y-45736600D01*
X37606800Y-45600000D01*
X37596970Y-45550500D01*
X37843200Y-45550500D01*
X37870300Y-45686600D01*
X37947700Y-45802400D01*
X38063400Y-45879700D01*
X38162840Y-45899500D01*
X37553600Y-45899500D01*
X37557100Y-45770400D01*
G37*
%TD.AperFunction*%
%TA.AperFunction,Conductor*%
G36*
X37620300Y-28713400D02*
G01*
X37593200Y-28849500D01*
X37055900Y-28849500D01*
X37055900Y-28600500D01*
X37695830Y-28600500D01*
X37620300Y-28713400D01*
G37*
%TD.AperFunction*%
%TA.AperFunction,Conductor*%
G36*
X38770300Y-28713400D02*
G01*
X38743200Y-28849500D01*
X38306800Y-28849500D01*
X38279700Y-28713400D01*
X38204170Y-28600500D01*
X38845830Y-28600500D01*
X38770300Y-28713400D01*
G37*
%TD.AperFunction*%
%TA.AperFunction,Conductor*%
G36*
X38920300Y-47513400D02*
G01*
X38893200Y-47650000D01*
X38770100Y-47800000D01*
X38154000Y-47800000D01*
X38046900Y-47650000D01*
X38056900Y-47600000D01*
X38037070Y-47500500D01*
X38928920Y-47500500D01*
X38920300Y-47513400D01*
G37*
%TD.AperFunction*%
%TA.AperFunction,Conductor*%
G36*
X39733200Y-47516400D02*
G01*
X39579700Y-47513400D01*
X39571090Y-47500500D01*
X39813250Y-47500500D01*
X39733200Y-47516400D01*
G37*
%TD.AperFunction*%
%TA.AperFunction,Conductor*%
G36*
X40006900Y-47533900D02*
G01*
X39986500Y-47520300D01*
X39886770Y-47500500D01*
X40061120Y-47500500D01*
X40006900Y-47533900D01*
G37*
%TD.AperFunction*%
%TA.AperFunction,Conductor*%
G36*
X39376800Y-36100500D02*
G01*
X39933200Y-36100500D01*
X39952910Y-36199500D01*
X39357090Y-36199500D01*
X39376800Y-36100500D01*
G37*
%TD.AperFunction*%
%TA.AperFunction,Conductor*%
G36*
X38278150Y-36100500D02*
G01*
X38663200Y-36100500D01*
X38682910Y-36199500D01*
X38344320Y-36199500D01*
X38278150Y-36100500D01*
G37*
%TD.AperFunction*%
%TA.AperFunction,Conductor*%
G36*
X38202300Y-29102400D02*
G01*
X38279700Y-28986600D01*
X38306800Y-28850500D01*
X38743200Y-28850500D01*
X38770300Y-28986600D01*
X38847700Y-29102400D01*
X38918200Y-29149500D01*
X38131740Y-29149500D01*
X38202300Y-29102400D01*
G37*
%TD.AperFunction*%
%TA.AperFunction,Conductor*%
G36*
X37436600Y-29120300D02*
G01*
X37300000Y-29093200D01*
X37205900Y-29111900D01*
X37055900Y-29025500D01*
X37055900Y-28850500D01*
X37593200Y-28850500D01*
X37620300Y-28986600D01*
X37697700Y-29102400D01*
X37768200Y-29149500D01*
X37480250Y-29149500D01*
X37436600Y-29120300D01*
G37*
%TD.AperFunction*%
%TA.AperFunction,Conductor*%
G36*
X40270300Y-29163500D02*
G01*
X40243200Y-29299500D01*
X37620400Y-29299500D01*
X37552300Y-29197700D01*
X37481740Y-29150500D01*
X37769690Y-29150500D01*
X37813400Y-29179700D01*
X37950000Y-29206900D01*
X38086500Y-29179700D01*
X38130240Y-29150500D01*
X38919690Y-29150500D01*
X38963400Y-29179700D01*
X39100000Y-29206900D01*
X39236500Y-29179700D01*
X39280240Y-29150500D01*
X40278990Y-29150500D01*
X40270300Y-29163500D01*
G37*
%TD.AperFunction*%
%TA.AperFunction,Conductor*%
G36*
X41493200Y-30649500D02*
G01*
X37647040Y-30649500D01*
X37656900Y-30600000D01*
X37653240Y-30581600D01*
X41506730Y-30581600D01*
X41493200Y-30649500D01*
G37*
%TD.AperFunction*%
%TA.AperFunction,Conductor*%
G36*
X43023500Y-49358400D02*
G01*
X43014990Y-49350500D01*
X43063260Y-49350500D01*
X43023500Y-49358400D01*
G37*
%TD.AperFunction*%
%TA.AperFunction,Conductor*%
G36*
X37629700Y-32163500D02*
G01*
X37587590Y-32100500D01*
X40043200Y-32100500D01*
X40062910Y-32199500D01*
X37636870Y-32199500D01*
X37629700Y-32163500D01*
G37*
%TD.AperFunction*%
%TA.AperFunction,Conductor*%
G36*
X38620300Y-27413500D02*
G01*
X38593200Y-27549500D01*
X38280190Y-27549500D01*
X38236500Y-27520300D01*
X38100000Y-27493200D01*
X37963400Y-27520300D01*
X37919750Y-27549500D01*
X37055900Y-27549500D01*
X37055900Y-27364300D01*
X38653180Y-27364300D01*
X38620300Y-27413500D01*
G37*
%TD.AperFunction*%
%TA.AperFunction,Conductor*%
G36*
X38113800Y-37018700D02*
G01*
X38155000Y-37023400D01*
X38224710Y-37049500D01*
X38067680Y-37049500D01*
X38113800Y-37018700D01*
G37*
%TD.AperFunction*%
%TA.AperFunction,Conductor*%
G36*
X37055900Y-36881200D02*
G01*
X37205900Y-36835600D01*
X37281400Y-36948600D01*
X37432360Y-37049500D01*
X37055900Y-37049500D01*
X37055900Y-36881200D01*
G37*
%TD.AperFunction*%
%TA.AperFunction,Conductor*%
G36*
X40656800Y-33950500D02*
G01*
X43443200Y-33950500D01*
X43452960Y-33999500D01*
X40647040Y-33999500D01*
X40656800Y-33950500D01*
G37*
%TD.AperFunction*%
%TA.AperFunction,Conductor*%
G36*
X38218600Y-33981400D02*
G01*
X38172370Y-33950500D01*
X39943200Y-33950500D01*
X39952960Y-33999500D01*
X38230700Y-33999500D01*
X38218600Y-33981400D01*
G37*
%TD.AperFunction*%
%TA.AperFunction,Conductor*%
G36*
X37055900Y-32900500D02*
G01*
X38593200Y-32900500D01*
X38601440Y-32941900D01*
X37055900Y-32941900D01*
X37055900Y-32900500D01*
G37*
%TD.AperFunction*%
%TA.AperFunction,Conductor*%
G36*
X37929700Y-42113500D02*
G01*
X37852300Y-41997700D01*
X37750800Y-41929800D01*
X37743250Y-41850500D01*
X44243200Y-41850500D01*
X44270300Y-41986600D01*
X44347700Y-42102400D01*
X44449200Y-42170200D01*
X44451990Y-42199500D01*
X37946770Y-42199500D01*
X37929700Y-42113500D01*
G37*
%TD.AperFunction*%
%TA.AperFunction,Conductor*%
G36*
X37956800Y-43850000D02*
G01*
X37929700Y-43713400D01*
X37852300Y-43597700D01*
X37750800Y-43529800D01*
X37743200Y-43450000D01*
X37750800Y-43370200D01*
X37852300Y-43302300D01*
X37929700Y-43186600D01*
X37956800Y-43050000D01*
X37929700Y-42913500D01*
X37921010Y-42900500D01*
X39841300Y-42900500D01*
X39876100Y-43075600D01*
X39975600Y-43224500D01*
X40124400Y-43323900D01*
X40300000Y-43358800D01*
X40475600Y-43323900D01*
X40624400Y-43224500D01*
X40723900Y-43075600D01*
X40758700Y-42900500D01*
X41441300Y-42900500D01*
X41476100Y-43075600D01*
X41575600Y-43224500D01*
X41724400Y-43323900D01*
X41900000Y-43358800D01*
X42075600Y-43323900D01*
X42224400Y-43224500D01*
X42323900Y-43075600D01*
X42358800Y-42900000D01*
X42323900Y-42724400D01*
X42224400Y-42575600D01*
X42075600Y-42476100D01*
X41900000Y-42441200D01*
X41724400Y-42476100D01*
X41575600Y-42575600D01*
X41476100Y-42724400D01*
X41441300Y-42899500D01*
X40758700Y-42899500D01*
X40723900Y-42724400D01*
X40624400Y-42575600D01*
X40475600Y-42476100D01*
X40300000Y-42441200D01*
X40124400Y-42476100D01*
X39975600Y-42575600D01*
X39876100Y-42724400D01*
X39841300Y-42899500D01*
X37920340Y-42899500D01*
X37852300Y-42797700D01*
X37750800Y-42729800D01*
X37743200Y-42650000D01*
X37750800Y-42570200D01*
X37852300Y-42502300D01*
X37929700Y-42386600D01*
X37956800Y-42250000D01*
X37946970Y-42200500D01*
X44452090Y-42200500D01*
X44456800Y-42250000D01*
X44449200Y-42329800D01*
X44347700Y-42397700D01*
X44270300Y-42513500D01*
X44243100Y-42650000D01*
X44270300Y-42786600D01*
X44347700Y-42902400D01*
X44449200Y-42970200D01*
X44456800Y-43050000D01*
X44449200Y-43129800D01*
X44347700Y-43197700D01*
X44270300Y-43313400D01*
X44243100Y-43450000D01*
X44270300Y-43586600D01*
X44347700Y-43702400D01*
X44449200Y-43770200D01*
X44456800Y-43850000D01*
X44452760Y-43892400D01*
X37948390Y-43892400D01*
X37956800Y-43850000D01*
G37*
%TD.AperFunction*%
%TA.AperFunction,Conductor*%
G36*
X42179700Y-30786600D02*
G01*
X42206800Y-30650000D01*
X42193220Y-30581600D01*
X42550900Y-30581600D01*
X42578000Y-30717700D01*
X42655400Y-30833500D01*
X42742060Y-30891400D01*
X42109590Y-30891400D01*
X42179700Y-30786600D01*
G37*
%TD.AperFunction*%
%TA.AperFunction,Conductor*%
G36*
X37552300Y-30852400D02*
G01*
X37629700Y-30736600D01*
X37646840Y-30650500D01*
X41493200Y-30650500D01*
X41520300Y-30786600D01*
X41590410Y-30891400D01*
X37493930Y-30891400D01*
X37552300Y-30852400D01*
G37*
%TD.AperFunction*%
%TA.AperFunction,Conductor*%
G36*
X40619700Y-36236600D02*
G01*
X40626890Y-36200500D01*
X41993200Y-36200500D01*
X42012910Y-36299500D01*
X40577660Y-36299500D01*
X40619700Y-36236600D01*
G37*
%TD.AperFunction*%
%TA.AperFunction,Conductor*%
G36*
X39349700Y-36236600D02*
G01*
X39356890Y-36200500D01*
X39953110Y-36200500D01*
X39960300Y-36236600D01*
X40002340Y-36299500D01*
X39307660Y-36299500D01*
X39349700Y-36236600D01*
G37*
%TD.AperFunction*%
%TA.AperFunction,Conductor*%
G36*
X38362300Y-36226400D02*
G01*
X38344990Y-36200500D01*
X38683110Y-36200500D01*
X38690300Y-36236600D01*
X38732290Y-36299500D01*
X38376830Y-36299500D01*
X38362300Y-36226400D01*
G37*
%TD.AperFunction*%
%TA.AperFunction,Conductor*%
G36*
X42167300Y-35465000D02*
G01*
X42217700Y-35718600D01*
X42223300Y-35727100D01*
X42161700Y-35904800D01*
X42097700Y-35947700D01*
X42020300Y-36063400D01*
X41993200Y-36199500D01*
X40627090Y-36199500D01*
X40646900Y-36100000D01*
X40619700Y-35963400D01*
X40542300Y-35847700D01*
X40426500Y-35770300D01*
X40290000Y-35743200D01*
X40153400Y-35770300D01*
X40037700Y-35847700D01*
X39960300Y-35963400D01*
X39933200Y-36099500D01*
X39376800Y-36099500D01*
X39349700Y-35963400D01*
X39272300Y-35847700D01*
X39156600Y-35770300D01*
X39020000Y-35743200D01*
X38883400Y-35770300D01*
X38767600Y-35847700D01*
X38690300Y-35963400D01*
X38663200Y-36099500D01*
X38277480Y-36099500D01*
X38218600Y-36011400D01*
X38003600Y-35867700D01*
X37750000Y-35817300D01*
X37614200Y-35844300D01*
X37532200Y-35707700D01*
X37579700Y-35636600D01*
X37606800Y-35500000D01*
X37579700Y-35363500D01*
X37571010Y-35350500D01*
X42190060Y-35350500D01*
X42167300Y-35465000D01*
G37*
%TD.AperFunction*%
%TA.AperFunction,Conductor*%
G36*
X37656900Y-29450000D02*
G01*
X37629700Y-29313400D01*
X37621070Y-29300500D01*
X40243200Y-29300500D01*
X40270300Y-29436600D01*
X40345830Y-29549500D01*
X37637090Y-29549500D01*
X37656900Y-29450000D01*
G37*
%TD.AperFunction*%
%TA.AperFunction,Conductor*%
G36*
X37843200Y-45549500D02*
G01*
X37596770Y-45549500D01*
X37579700Y-45463500D01*
X37571010Y-45450500D01*
X37862930Y-45450500D01*
X37843200Y-45549500D01*
G37*
%TD.AperFunction*%
%TA.AperFunction,Conductor*%
G36*
X45120300Y-53386600D02*
G01*
X45197700Y-53502300D01*
X45255000Y-53540600D01*
X45255000Y-53709400D01*
X45197700Y-53747700D01*
X45120300Y-53863400D01*
X45093100Y-54000000D01*
X45094800Y-54008700D01*
X44995500Y-54134200D01*
X44904500Y-54134200D01*
X44805100Y-54008700D01*
X44806900Y-54000000D01*
X44779700Y-53863400D01*
X44702300Y-53747700D01*
X44702300Y-53652300D01*
X44779700Y-53536600D01*
X44806900Y-53400000D01*
X44779700Y-53263400D01*
X44771060Y-53250500D01*
X45093200Y-53250500D01*
X45120300Y-53386600D01*
G37*
%TD.AperFunction*%
%TA.AperFunction,Conductor*%
G36*
X43993200Y-32199500D02*
G01*
X40737060Y-32199500D01*
X40743880Y-32165100D01*
X44000050Y-32165100D01*
X43993200Y-32199500D01*
G37*
%TD.AperFunction*%
%TA.AperFunction,Conductor*%
G36*
X45493300Y-42199500D02*
G01*
X45296840Y-42199500D01*
X45287070Y-42150500D01*
X45503020Y-42150500D01*
X45493300Y-42199500D01*
G37*
%TD.AperFunction*%
%TA.AperFunction,Conductor*%
G36*
X44129700Y-34086600D02*
G01*
X44146840Y-34000500D01*
X44693200Y-34000500D01*
X44720300Y-34136600D01*
X44728920Y-34149500D01*
X44087660Y-34149500D01*
X44129700Y-34086600D01*
G37*
%TD.AperFunction*%
%TA.AperFunction,Conductor*%
G36*
X40629700Y-34086600D02*
G01*
X40646840Y-34000500D01*
X43453160Y-34000500D01*
X43470300Y-34086600D01*
X43512290Y-34149500D01*
X40587660Y-34149500D01*
X40629700Y-34086600D01*
G37*
%TD.AperFunction*%
%TA.AperFunction,Conductor*%
G36*
X38231370Y-34000500D02*
G01*
X39953160Y-34000500D01*
X39970300Y-34086600D01*
X40012290Y-34149500D01*
X38330950Y-34149500D01*
X38231370Y-34000500D01*
G37*
%TD.AperFunction*%
%TA.AperFunction,Conductor*%
G36*
X37055900Y-38204900D02*
G01*
X37064130Y-38200500D01*
X38943200Y-38200500D01*
X38970300Y-38336600D01*
X38978920Y-38349500D01*
X37055900Y-38349500D01*
X37055900Y-38204900D01*
G37*
%TD.AperFunction*%
%TA.AperFunction,Conductor*%
G36*
X46170300Y-36163500D02*
G01*
X46143200Y-36299500D01*
X42687060Y-36299500D01*
X42706800Y-36200000D01*
X42727500Y-36179300D01*
X42789490Y-36150500D01*
X46178990Y-36150500D01*
X46170300Y-36163500D01*
G37*
%TD.AperFunction*%
%TA.AperFunction,Conductor*%
G36*
X40723900Y-41375600D02*
G01*
X40758700Y-41200500D01*
X41441300Y-41200500D01*
X41476100Y-41375600D01*
X41558950Y-41499500D01*
X40641050Y-41499500D01*
X40723900Y-41375600D01*
G37*
%TD.AperFunction*%
%TA.AperFunction,Conductor*%
G36*
X37956800Y-41450000D02*
G01*
X37929700Y-41313400D01*
X37854170Y-41200500D01*
X39841300Y-41200500D01*
X39876100Y-41375600D01*
X39958950Y-41499500D01*
X37946980Y-41499500D01*
X37956800Y-41450000D01*
G37*
%TD.AperFunction*%
%TA.AperFunction,Conductor*%
G36*
X44463400Y-41520300D02*
G01*
X44347700Y-41597700D01*
X44270300Y-41713400D01*
X44243200Y-41849500D01*
X37743250Y-41849500D01*
X37750800Y-41770200D01*
X37852300Y-41702400D01*
X37929700Y-41586600D01*
X37946780Y-41500500D01*
X39959620Y-41500500D01*
X39975600Y-41524400D01*
X40124400Y-41623900D01*
X40300000Y-41658800D01*
X40475600Y-41623900D01*
X40624400Y-41524400D01*
X40640380Y-41500500D01*
X41559620Y-41500500D01*
X41575600Y-41524400D01*
X41724400Y-41623900D01*
X41900000Y-41658800D01*
X42075600Y-41623900D01*
X42224400Y-41524400D01*
X42240380Y-41500500D01*
X44563200Y-41500500D01*
X44463400Y-41520300D01*
G37*
%TD.AperFunction*%
%TA.AperFunction,Conductor*%
G36*
X47643200Y-34149500D02*
G01*
X45371070Y-34149500D01*
X45379700Y-34136600D01*
X45386890Y-34100500D01*
X47652960Y-34100500D01*
X47643200Y-34149500D01*
G37*
%TD.AperFunction*%
%TA.AperFunction,Conductor*%
G36*
X40147600Y-31847700D02*
G01*
X40070300Y-31963400D01*
X40043200Y-32099500D01*
X37586920Y-32099500D01*
X37552300Y-32047700D01*
X37436600Y-31970300D01*
X37300000Y-31943100D01*
X37205900Y-31961900D01*
X37055900Y-31875500D01*
X37055900Y-31700500D01*
X40122660Y-31700500D01*
X40147600Y-31847700D01*
G37*
%TD.AperFunction*%
%TA.AperFunction,Conductor*%
G36*
X38593200Y-32899500D02*
G01*
X37055900Y-32899500D01*
X37055900Y-32801600D01*
X38612710Y-32801600D01*
X38593200Y-32899500D01*
G37*
%TD.AperFunction*%
%TA.AperFunction,Conductor*%
G36*
X45003000Y-32805900D02*
G01*
X44975900Y-32941900D01*
X39298560Y-32941900D01*
X39306900Y-32900000D01*
X39287290Y-32801600D01*
X45005870Y-32801600D01*
X45003000Y-32805900D01*
G37*
%TD.AperFunction*%
%TA.AperFunction,Conductor*%
G36*
X39163400Y-37870300D02*
G01*
X39047700Y-37947700D01*
X38970300Y-38063400D01*
X38943200Y-38199500D01*
X37066000Y-38199500D01*
X37205900Y-38124700D01*
X37213400Y-38129700D01*
X37349900Y-38156900D01*
X37486500Y-38129700D01*
X37602300Y-38052400D01*
X37679700Y-37936600D01*
X37696780Y-37850500D01*
X39263200Y-37850500D01*
X39163400Y-37870300D01*
G37*
%TD.AperFunction*%
%TA.AperFunction,Conductor*%
G36*
X39963400Y-37870300D02*
G01*
X39847700Y-37947700D01*
X39779800Y-38049200D01*
X39700000Y-38056800D01*
X39620200Y-38049200D01*
X39552300Y-37947700D01*
X39436600Y-37870300D01*
X39336800Y-37850500D01*
X40063200Y-37850500D01*
X39963400Y-37870300D01*
G37*
%TD.AperFunction*%
%TA.AperFunction,Conductor*%
G36*
X40763400Y-37870300D02*
G01*
X40647600Y-37947700D01*
X40579800Y-38049200D01*
X40500000Y-38056800D01*
X40420200Y-38049200D01*
X40352300Y-37947700D01*
X40236500Y-37870300D01*
X40136770Y-37850500D01*
X40862840Y-37850500D01*
X40763400Y-37870300D01*
G37*
%TD.AperFunction*%
%TA.AperFunction,Conductor*%
G36*
X41563400Y-37870300D02*
G01*
X41447700Y-37947700D01*
X41379800Y-38049200D01*
X41300000Y-38056800D01*
X41220200Y-38049200D01*
X41152300Y-37947700D01*
X41036600Y-37870300D01*
X40937160Y-37850500D01*
X41663200Y-37850500D01*
X41563400Y-37870300D01*
G37*
%TD.AperFunction*%
%TA.AperFunction,Conductor*%
G36*
X41700000Y-37843200D02*
G01*
X41668240Y-37849500D01*
X40932140Y-37849500D01*
X40900000Y-37843100D01*
X40867860Y-37849500D01*
X40131730Y-37849500D01*
X40100000Y-37843200D01*
X40068240Y-37849500D01*
X39331760Y-37849500D01*
X39300000Y-37843200D01*
X39268240Y-37849500D01*
X37696980Y-37849500D01*
X37706800Y-37800000D01*
X37679700Y-37663500D01*
X37602300Y-37547700D01*
X37486500Y-37470300D01*
X37349900Y-37443200D01*
X37213400Y-37470300D01*
X37205900Y-37475400D01*
X37055900Y-37395200D01*
X37055900Y-37050500D01*
X37433860Y-37050500D01*
X37496400Y-37092300D01*
X37750000Y-37142800D01*
X38003600Y-37092300D01*
X38066190Y-37050500D01*
X38227390Y-37050500D01*
X38297100Y-37076600D01*
X38347700Y-37152300D01*
X38463400Y-37229700D01*
X38600000Y-37256900D01*
X38736500Y-37229700D01*
X38761000Y-37239800D01*
X38770300Y-37286600D01*
X38847700Y-37402300D01*
X38963400Y-37479700D01*
X39100000Y-37506900D01*
X39236600Y-37479700D01*
X39352300Y-37402300D01*
X39429700Y-37286600D01*
X39456800Y-37150000D01*
X39437050Y-37050500D01*
X44643200Y-37050500D01*
X44670300Y-37186600D01*
X44747600Y-37302400D01*
X44849200Y-37370200D01*
X44856800Y-37450000D01*
X44849200Y-37529800D01*
X44747700Y-37597700D01*
X44670300Y-37713400D01*
X44643200Y-37849500D01*
X41731730Y-37849500D01*
X41700000Y-37843200D01*
G37*
%TD.AperFunction*%
%TA.AperFunction,Conductor*%
G36*
X44643200Y-37049500D02*
G01*
X39436850Y-37049500D01*
X39429700Y-37013500D01*
X39387590Y-36950500D01*
X44662930Y-36950500D01*
X44643200Y-37049500D01*
G37*
%TD.AperFunction*%
%TA.AperFunction,Conductor*%
G36*
X42190250Y-35349500D02*
G01*
X37570340Y-35349500D01*
X37504170Y-35250500D01*
X42209930Y-35250500D01*
X42190250Y-35349500D01*
G37*
%TD.AperFunction*%
%TA.AperFunction,Conductor*%
G36*
X46393200Y-35349500D02*
G01*
X43469750Y-35349500D01*
X43450070Y-35250500D01*
X46412910Y-35250500D01*
X46393200Y-35349500D01*
G37*
%TD.AperFunction*%
%TA.AperFunction,Conductor*%
G36*
X46179660Y-36149500D02*
G01*
X42791640Y-36149500D01*
X42844800Y-36124800D01*
X42966970Y-36100500D01*
X46212410Y-36100500D01*
X46179660Y-36149500D01*
G37*
%TD.AperFunction*%
%TA.AperFunction,Conductor*%
G36*
X48443200Y-36149500D02*
G01*
X46820340Y-36149500D01*
X46787590Y-36100500D01*
X48452960Y-36100500D01*
X48443200Y-36149500D01*
G37*
%TD.AperFunction*%
%TA.AperFunction,Conductor*%
G36*
X49443200Y-36149500D02*
G01*
X49156800Y-36149500D01*
X49147040Y-36100500D01*
X49452960Y-36100500D01*
X49443200Y-36149500D01*
G37*
%TD.AperFunction*%
%TA.AperFunction,Conductor*%
G36*
X45791200Y-52328500D02*
G01*
X45898500Y-52241800D01*
X45950700Y-52237100D01*
X46050000Y-52256900D01*
X46186600Y-52229700D01*
X46302300Y-52152300D01*
X46379700Y-52036600D01*
X46406900Y-51900000D01*
X46379700Y-51763400D01*
X46302300Y-51647700D01*
X46186600Y-51570300D01*
X46050000Y-51543200D01*
X45995300Y-51554000D01*
X45936800Y-51412700D01*
X45952300Y-51402300D01*
X46029700Y-51286600D01*
X46056900Y-51150000D01*
X46029700Y-51013400D01*
X45952300Y-50897700D01*
X45836500Y-50820300D01*
X45700000Y-50793200D01*
X45563400Y-50820300D01*
X45447700Y-50897700D01*
X45370300Y-51013400D01*
X45343100Y-51150000D01*
X45370300Y-51286600D01*
X45447700Y-51402300D01*
X45563400Y-51479700D01*
X45700000Y-51506900D01*
X45754700Y-51496000D01*
X45813200Y-51637300D01*
X45797600Y-51647700D01*
X45720300Y-51763400D01*
X45708700Y-51821600D01*
X45601500Y-51908200D01*
X45549300Y-51912900D01*
X45450000Y-51893200D01*
X45313400Y-51920300D01*
X45197700Y-51997700D01*
X45120300Y-52113400D01*
X45093200Y-52249500D01*
X44797040Y-52249500D01*
X44806900Y-52200000D01*
X44779700Y-52063400D01*
X44702300Y-51947700D01*
X44586500Y-51870300D01*
X44450000Y-51843200D01*
X44361100Y-51860800D01*
X44211100Y-51772000D01*
X44211100Y-50704700D01*
X44336500Y-50679700D01*
X44452300Y-50602400D01*
X44453570Y-50600500D01*
X47243200Y-50600500D01*
X47270300Y-50736600D01*
X47347700Y-50852400D01*
X47463400Y-50929700D01*
X47600000Y-50956900D01*
X47736500Y-50929700D01*
X47852300Y-50852400D01*
X47929700Y-50736600D01*
X47956800Y-50600000D01*
X47929700Y-50463500D01*
X47852300Y-50347700D01*
X47736500Y-50270300D01*
X47600000Y-50243200D01*
X47463400Y-50270300D01*
X47347700Y-50347700D01*
X47270300Y-50463500D01*
X47243200Y-50599500D01*
X44454240Y-50599500D01*
X44529700Y-50486600D01*
X44556900Y-50350000D01*
X44529700Y-50213500D01*
X44452300Y-50097700D01*
X44336500Y-50020300D01*
X44200000Y-49993200D01*
X44198500Y-49993500D01*
X44029700Y-49913500D01*
X43952300Y-49797700D01*
X43836500Y-49720300D01*
X43700000Y-49693200D01*
X43600700Y-49712900D01*
X43548500Y-49708200D01*
X43441300Y-49621600D01*
X43429700Y-49563400D01*
X43352300Y-49447700D01*
X43236500Y-49370300D01*
X43136770Y-49350500D01*
X43843200Y-49350500D01*
X43870300Y-49486600D01*
X43947700Y-49602400D01*
X44063400Y-49679700D01*
X44200000Y-49706900D01*
X44336500Y-49679700D01*
X44452300Y-49602400D01*
X44529700Y-49486600D01*
X44556800Y-49350500D01*
X45343200Y-49350500D01*
X45370300Y-49486600D01*
X45447700Y-49602400D01*
X45563400Y-49679700D01*
X45700000Y-49706900D01*
X45836500Y-49679700D01*
X45952300Y-49602400D01*
X46029700Y-49486600D01*
X46056900Y-49350000D01*
X46029700Y-49213500D01*
X45952300Y-49097700D01*
X45836500Y-49020300D01*
X45700000Y-48993200D01*
X45563400Y-49020300D01*
X45447700Y-49097700D01*
X45370300Y-49213500D01*
X45343200Y-49349500D01*
X44556800Y-49349500D01*
X44529700Y-49213500D01*
X44452300Y-49097700D01*
X44336500Y-49020300D01*
X44200000Y-48993200D01*
X44063400Y-49020300D01*
X43947700Y-49097700D01*
X43870300Y-49213500D01*
X43843200Y-49349500D01*
X43131730Y-49349500D01*
X43100000Y-49343200D01*
X43068290Y-49349500D01*
X43013910Y-49349500D01*
X42960800Y-49300200D01*
X42930000Y-49251900D01*
X42950300Y-49149200D01*
X42957500Y-49145400D01*
X43036600Y-49129700D01*
X43152300Y-49052400D01*
X43229700Y-48936600D01*
X43256800Y-48800000D01*
X43229700Y-48663500D01*
X43223100Y-48653500D01*
X43230200Y-48614900D01*
X43299000Y-48497100D01*
X43386500Y-48479700D01*
X43502300Y-48402300D01*
X43548500Y-48333300D01*
X43663400Y-48229700D01*
X43694400Y-48235900D01*
X43801000Y-48301600D01*
X43803300Y-48398800D01*
X43793100Y-48450000D01*
X43820300Y-48586600D01*
X43897600Y-48702300D01*
X44013400Y-48779700D01*
X44150000Y-48806900D01*
X44286600Y-48779700D01*
X44402300Y-48702300D01*
X44479700Y-48586600D01*
X44506800Y-48450000D01*
X44479700Y-48313400D01*
X44402300Y-48197700D01*
X44286600Y-48120300D01*
X44255600Y-48114200D01*
X44148900Y-48048400D01*
X44146700Y-47951200D01*
X44156900Y-47900000D01*
X44129700Y-47763400D01*
X44052300Y-47647700D01*
X43936600Y-47570300D01*
X43800000Y-47543200D01*
X43663400Y-47570300D01*
X43547600Y-47647700D01*
X43470300Y-47763400D01*
X43309100Y-47804900D01*
X43250000Y-47793200D01*
X43113400Y-47820300D01*
X42997700Y-47897700D01*
X42920300Y-48013400D01*
X42893100Y-48150000D01*
X42920300Y-48286600D01*
X42926900Y-48296500D01*
X42919800Y-48335100D01*
X42851000Y-48452900D01*
X42763400Y-48470300D01*
X42647600Y-48547700D01*
X42570300Y-48663500D01*
X42543100Y-48800000D01*
X42553200Y-48850800D01*
X42508900Y-48969200D01*
X42442500Y-49004600D01*
X42363400Y-49020300D01*
X42247700Y-49097700D01*
X42170300Y-49213500D01*
X42166000Y-49235000D01*
X41997900Y-49311100D01*
X41669300Y-49121400D01*
X41652900Y-48958300D01*
X41659100Y-48942300D01*
X41729700Y-48836600D01*
X41756800Y-48700000D01*
X41729700Y-48563400D01*
X41652300Y-48447700D01*
X41536600Y-48370300D01*
X41400000Y-48343200D01*
X41263400Y-48370300D01*
X41239000Y-48360200D01*
X41229700Y-48313400D01*
X41152300Y-48197700D01*
X41036600Y-48120300D01*
X40900000Y-48093200D01*
X40763400Y-48120300D01*
X40737300Y-48051900D01*
X40729700Y-48013400D01*
X40670000Y-47924100D01*
X40658300Y-47873800D01*
X40691200Y-47743200D01*
X40752300Y-47702300D01*
X40829700Y-47586600D01*
X40846780Y-47500500D01*
X41643200Y-47500500D01*
X41670300Y-47636600D01*
X41747700Y-47752300D01*
X41863400Y-47829700D01*
X42000000Y-47856900D01*
X42136500Y-47829700D01*
X42252300Y-47752300D01*
X42329700Y-47636600D01*
X42356800Y-47500000D01*
X42329700Y-47363400D01*
X42252300Y-47247700D01*
X42136500Y-47170300D01*
X42000000Y-47143200D01*
X41863400Y-47170300D01*
X41747700Y-47247700D01*
X41670300Y-47363400D01*
X41643200Y-47499500D01*
X40846980Y-47499500D01*
X40856800Y-47450000D01*
X40829700Y-47313400D01*
X40752300Y-47197700D01*
X40636500Y-47120300D01*
X40500000Y-47093200D01*
X40363400Y-47120300D01*
X40247700Y-47197700D01*
X40170300Y-47313400D01*
X40143100Y-47450000D01*
X40062740Y-47499500D01*
X39881730Y-47499500D01*
X39850000Y-47493200D01*
X39818280Y-47499500D01*
X39570420Y-47499500D01*
X39547200Y-47464700D01*
X39502300Y-47397600D01*
X39386600Y-47320300D01*
X39250000Y-47293100D01*
X39113500Y-47320300D01*
X38997700Y-47397600D01*
X38929590Y-47499500D01*
X38036870Y-47499500D01*
X38029700Y-47463500D01*
X37952300Y-47347700D01*
X37836500Y-47270300D01*
X37823000Y-47251400D01*
X37782800Y-47106700D01*
X37829700Y-47036600D01*
X37856800Y-46900000D01*
X37829700Y-46763400D01*
X37752300Y-46647700D01*
X37636500Y-46570300D01*
X37623000Y-46551400D01*
X37582800Y-46406700D01*
X37629700Y-46336600D01*
X37656900Y-46200000D01*
X37629700Y-46063400D01*
X37552300Y-45947700D01*
X37553580Y-45900500D01*
X38167860Y-45900500D01*
X38200000Y-45906900D01*
X38232120Y-45900500D01*
X38717860Y-45900500D01*
X38750000Y-45906900D01*
X38782120Y-45900500D01*
X39267860Y-45900500D01*
X39300000Y-45906900D01*
X39332140Y-45900500D01*
X39993200Y-45900500D01*
X40020300Y-46036600D01*
X40097700Y-46152300D01*
X40108800Y-46159800D01*
X40108800Y-46340200D01*
X40097700Y-46347700D01*
X40020300Y-46463500D01*
X39993100Y-46600000D01*
X40020300Y-46736600D01*
X40097700Y-46852400D01*
X40213400Y-46929700D01*
X40350000Y-46956900D01*
X40486500Y-46929700D01*
X40602300Y-46852400D01*
X40679700Y-46736600D01*
X40706800Y-46600000D01*
X40679700Y-46463500D01*
X40602300Y-46347700D01*
X40591200Y-46340200D01*
X40591200Y-46159800D01*
X40602300Y-46152300D01*
X40679700Y-46036600D01*
X40706800Y-45900000D01*
X40679700Y-45763400D01*
X40602300Y-45647700D01*
X40486500Y-45570300D01*
X40350000Y-45543200D01*
X40213400Y-45570300D01*
X40097700Y-45647700D01*
X40020300Y-45763400D01*
X39993200Y-45899500D01*
X39337160Y-45899500D01*
X39436600Y-45879700D01*
X39552300Y-45802400D01*
X39629700Y-45686600D01*
X39656900Y-45550000D01*
X39637070Y-45450500D01*
X46743200Y-45450500D01*
X46770300Y-45586500D01*
X46847600Y-45702300D01*
X46963400Y-45779700D01*
X47099900Y-45806800D01*
X47236500Y-45779700D01*
X47352300Y-45702300D01*
X47429700Y-45586500D01*
X47456800Y-45450000D01*
X47429700Y-45313400D01*
X47352300Y-45197600D01*
X47236500Y-45120300D01*
X47099900Y-45093100D01*
X46963400Y-45120300D01*
X46847600Y-45197600D01*
X46770300Y-45313400D01*
X46743200Y-45449500D01*
X39636870Y-45449500D01*
X39629700Y-45413500D01*
X39552300Y-45297700D01*
X39436600Y-45220300D01*
X39300000Y-45193200D01*
X39163400Y-45220300D01*
X39047700Y-45297700D01*
X39002300Y-45297700D01*
X38886500Y-45220300D01*
X38750000Y-45193200D01*
X38613400Y-45220300D01*
X38497700Y-45297700D01*
X38452300Y-45297700D01*
X38336500Y-45220300D01*
X38200000Y-45193200D01*
X38063400Y-45220300D01*
X37947700Y-45297700D01*
X37870300Y-45413500D01*
X37863130Y-45449500D01*
X37570340Y-45449500D01*
X37502300Y-45347700D01*
X37386500Y-45270300D01*
X37250000Y-45243200D01*
X37205900Y-45251900D01*
X37055900Y-45142100D01*
X37055900Y-44023700D01*
X37205900Y-43921300D01*
X37261700Y-43943100D01*
X37263200Y-43950800D01*
X37270300Y-43986600D01*
X37347700Y-44102400D01*
X37463400Y-44179700D01*
X37600000Y-44206900D01*
X37736500Y-44179700D01*
X37852300Y-44102400D01*
X37929700Y-43986600D01*
X37948190Y-43893400D01*
X44452670Y-43893400D01*
X44449200Y-43929800D01*
X44347700Y-43997700D01*
X44270300Y-44113500D01*
X44243100Y-44250000D01*
X44270300Y-44386600D01*
X44347700Y-44502400D01*
X44463400Y-44579700D01*
X44600000Y-44606900D01*
X44736600Y-44579700D01*
X44852300Y-44502400D01*
X44929700Y-44386600D01*
X44936800Y-44350800D01*
X44956800Y-44250000D01*
X45086500Y-44179700D01*
X45202300Y-44102400D01*
X45279700Y-43986600D01*
X45298260Y-43893400D01*
X45550300Y-43893400D01*
X45577400Y-44029500D01*
X45654700Y-44145200D01*
X45770500Y-44222600D01*
X45907000Y-44249800D01*
X46043600Y-44222600D01*
X46159400Y-44145200D01*
X46236700Y-44029500D01*
X46263900Y-43892900D01*
X46236700Y-43756300D01*
X46159400Y-43640600D01*
X46043600Y-43563200D01*
X45907000Y-43536000D01*
X45770500Y-43563200D01*
X45654700Y-43640600D01*
X45577400Y-43756300D01*
X45550300Y-43892400D01*
X45298460Y-43892400D01*
X45306900Y-43850000D01*
X45279700Y-43713400D01*
X45202300Y-43597700D01*
X45100800Y-43529800D01*
X45093200Y-43450000D01*
X45100800Y-43370200D01*
X45202300Y-43302300D01*
X45279700Y-43186600D01*
X45306900Y-43050000D01*
X45279700Y-42913500D01*
X45202300Y-42797700D01*
X45100800Y-42729800D01*
X45093200Y-42650000D01*
X45100800Y-42570200D01*
X45202300Y-42502300D01*
X45279700Y-42386600D01*
X45306900Y-42250000D01*
X45297040Y-42200500D01*
X45493300Y-42200500D01*
X45520300Y-42336500D01*
X45597700Y-42452300D01*
X45713500Y-42529700D01*
X45850000Y-42556900D01*
X45986600Y-42529700D01*
X46102400Y-42452300D01*
X46179700Y-42336500D01*
X46206900Y-42200000D01*
X46197040Y-42150500D01*
X47143200Y-42150500D01*
X47170300Y-42286600D01*
X47247700Y-42402300D01*
X47363400Y-42479700D01*
X47500000Y-42506900D01*
X47636500Y-42479700D01*
X47752300Y-42402300D01*
X47829700Y-42286600D01*
X47856800Y-42150000D01*
X47829700Y-42013500D01*
X47752300Y-41897700D01*
X47636500Y-41820300D01*
X47500000Y-41793200D01*
X47363400Y-41820300D01*
X47247700Y-41897700D01*
X47170300Y-42013500D01*
X47143200Y-42149500D01*
X46196840Y-42149500D01*
X46179700Y-42063400D01*
X46102400Y-41947700D01*
X45986600Y-41870300D01*
X45850000Y-41843100D01*
X45713500Y-41870300D01*
X45597700Y-41947700D01*
X45520300Y-42063400D01*
X45503220Y-42149500D01*
X45286870Y-42149500D01*
X45279700Y-42113500D01*
X45202300Y-41997700D01*
X45086500Y-41920300D01*
X44956800Y-41850000D01*
X44936800Y-41749200D01*
X44929700Y-41713400D01*
X44852300Y-41597700D01*
X44736600Y-41520300D01*
X44636800Y-41500500D01*
X48643200Y-41500500D01*
X48670300Y-41636600D01*
X48747700Y-41752300D01*
X48863400Y-41829700D01*
X49000000Y-41856900D01*
X49136500Y-41829700D01*
X49252300Y-41752300D01*
X49329700Y-41636600D01*
X49356800Y-41500000D01*
X49329700Y-41363500D01*
X49252300Y-41247700D01*
X49136500Y-41170300D01*
X49000000Y-41143200D01*
X48863400Y-41170300D01*
X48747700Y-41247700D01*
X48670300Y-41363500D01*
X48643200Y-41499500D01*
X44631760Y-41499500D01*
X44600000Y-41493200D01*
X44568240Y-41499500D01*
X42241050Y-41499500D01*
X42323900Y-41375600D01*
X42358800Y-41200000D01*
X42323900Y-41024400D01*
X42224400Y-40875600D01*
X42075600Y-40776100D01*
X41900000Y-40741200D01*
X41724400Y-40776100D01*
X41575600Y-40875600D01*
X41476100Y-41024400D01*
X41441300Y-41199500D01*
X40758700Y-41199500D01*
X40723900Y-41024400D01*
X40624400Y-40875600D01*
X40475600Y-40776100D01*
X40300000Y-40741200D01*
X40124400Y-40776100D01*
X39975600Y-40875600D01*
X39876100Y-41024400D01*
X39841300Y-41199500D01*
X37853500Y-41199500D01*
X37852300Y-41197700D01*
X37750800Y-41129800D01*
X37743200Y-41050000D01*
X37750800Y-40970200D01*
X37852300Y-40902400D01*
X37929700Y-40786600D01*
X37956800Y-40650000D01*
X37929700Y-40513500D01*
X37852300Y-40397700D01*
X37736600Y-40320300D01*
X37600000Y-40293200D01*
X37598500Y-40291700D01*
X37606800Y-40250000D01*
X37579700Y-40113500D01*
X37502300Y-39997700D01*
X37386500Y-39920300D01*
X37250000Y-39893200D01*
X37205900Y-39901900D01*
X37067380Y-39800500D01*
X49493200Y-39800500D01*
X49520300Y-39936600D01*
X49597700Y-40052300D01*
X49713400Y-40129700D01*
X49850000Y-40156900D01*
X49986500Y-40129700D01*
X50102300Y-40052300D01*
X50179700Y-39936600D01*
X50206800Y-39800000D01*
X50179700Y-39663500D01*
X50102300Y-39547700D01*
X49986500Y-39470300D01*
X49850000Y-39443100D01*
X49713400Y-39470300D01*
X49597700Y-39547700D01*
X49520300Y-39663500D01*
X49493200Y-39799500D01*
X37066010Y-39799500D01*
X37055900Y-39792100D01*
X37055900Y-39000500D01*
X46293200Y-39000500D01*
X46320300Y-39136500D01*
X46397600Y-39252300D01*
X46513400Y-39329700D01*
X46650000Y-39356800D01*
X46786500Y-39329700D01*
X46902300Y-39252300D01*
X46979600Y-39136500D01*
X47006800Y-39000000D01*
X46979600Y-38863400D01*
X46902300Y-38747700D01*
X46786500Y-38670300D01*
X46650000Y-38643100D01*
X46513400Y-38670300D01*
X46397600Y-38747700D01*
X46320300Y-38863400D01*
X46293200Y-38999500D01*
X37055900Y-38999500D01*
X37055900Y-38350500D01*
X38979590Y-38350500D01*
X39047700Y-38452400D01*
X39163400Y-38529700D01*
X39300000Y-38556900D01*
X39370300Y-38686600D01*
X39447700Y-38802300D01*
X39563400Y-38879700D01*
X39700000Y-38906900D01*
X39836500Y-38879700D01*
X39952300Y-38802300D01*
X40020200Y-38700800D01*
X40100000Y-38693200D01*
X40179800Y-38700800D01*
X40247700Y-38802300D01*
X40363400Y-38879700D01*
X40500000Y-38906900D01*
X40636600Y-38879700D01*
X40752300Y-38802300D01*
X40820200Y-38700800D01*
X40900000Y-38693200D01*
X40979800Y-38700800D01*
X41047600Y-38802300D01*
X41163400Y-38879700D01*
X41300000Y-38906900D01*
X41436600Y-38879700D01*
X41552300Y-38802300D01*
X41620200Y-38700800D01*
X41700000Y-38693200D01*
X41779800Y-38700800D01*
X41847700Y-38802300D01*
X41963400Y-38879700D01*
X42100000Y-38906900D01*
X42236600Y-38879700D01*
X42352300Y-38802300D01*
X42429700Y-38686600D01*
X42456800Y-38550000D01*
X42429700Y-38413500D01*
X42387590Y-38350500D01*
X47743200Y-38350500D01*
X47770300Y-38486600D01*
X47847700Y-38602400D01*
X47963400Y-38679700D01*
X48100000Y-38706900D01*
X48236600Y-38679700D01*
X48352300Y-38602400D01*
X48429700Y-38486600D01*
X48456800Y-38350000D01*
X48429700Y-38213400D01*
X48352300Y-38097700D01*
X48236600Y-38020300D01*
X48100000Y-37993200D01*
X47963400Y-38020300D01*
X47847700Y-38097700D01*
X47770300Y-38213400D01*
X47743200Y-38349500D01*
X42386920Y-38349500D01*
X42352300Y-38297700D01*
X42236600Y-38220300D01*
X42200800Y-38213200D01*
X42100000Y-38193100D01*
X42029700Y-38063400D01*
X41952300Y-37947700D01*
X41836500Y-37870300D01*
X41736770Y-37850500D01*
X44643200Y-37850500D01*
X44670300Y-37986600D01*
X44747700Y-38102400D01*
X44863400Y-38179700D01*
X45000000Y-38206900D01*
X45136500Y-38179700D01*
X45252300Y-38102400D01*
X45329700Y-37986600D01*
X45356700Y-37850500D01*
X50693200Y-37850500D01*
X50720300Y-37986600D01*
X50797700Y-38102400D01*
X50913500Y-38179700D01*
X51050000Y-38206900D01*
X51186600Y-38179700D01*
X51302300Y-38102400D01*
X51379700Y-37986600D01*
X51406900Y-37850000D01*
X51379700Y-37713500D01*
X51302300Y-37597700D01*
X51186600Y-37520400D01*
X51050000Y-37493200D01*
X50913500Y-37520400D01*
X50797700Y-37597700D01*
X50720300Y-37713500D01*
X50693200Y-37849500D01*
X45356700Y-37849500D01*
X45329700Y-37713400D01*
X45252300Y-37597700D01*
X45150800Y-37529800D01*
X45143200Y-37450100D01*
X45150800Y-37370200D01*
X45252300Y-37302400D01*
X45329700Y-37186600D01*
X45356800Y-37050000D01*
X45337050Y-36950500D01*
X50693200Y-36950500D01*
X50720300Y-37086600D01*
X50797700Y-37202400D01*
X50913500Y-37279800D01*
X51050000Y-37306900D01*
X51186600Y-37279800D01*
X51302300Y-37202400D01*
X51379700Y-37086600D01*
X51406900Y-36950000D01*
X51379700Y-36813500D01*
X51302300Y-36697700D01*
X51186600Y-36620400D01*
X51050000Y-36593200D01*
X50913500Y-36620400D01*
X50797700Y-36697700D01*
X50720300Y-36813500D01*
X50693200Y-36949500D01*
X45336850Y-36949500D01*
X45329700Y-36913500D01*
X45252300Y-36797700D01*
X45136500Y-36720400D01*
X45000000Y-36693200D01*
X44863400Y-36720400D01*
X44747600Y-36797700D01*
X44670300Y-36913500D01*
X44663130Y-36949500D01*
X39386920Y-36949500D01*
X39352300Y-36897700D01*
X39236600Y-36820300D01*
X39100000Y-36793200D01*
X38963400Y-36820300D01*
X38939000Y-36810200D01*
X38929700Y-36763500D01*
X38852300Y-36647700D01*
X38736500Y-36570300D01*
X38600000Y-36543200D01*
X38551200Y-36552900D01*
X38511300Y-36531900D01*
X38406000Y-36443100D01*
X38404900Y-36440700D01*
X38377030Y-36300500D01*
X38732960Y-36300500D01*
X38767600Y-36352400D01*
X38883400Y-36429700D01*
X39020000Y-36456900D01*
X39156600Y-36429700D01*
X39272300Y-36352400D01*
X39306990Y-36300500D01*
X40003010Y-36300500D01*
X40037700Y-36352400D01*
X40153400Y-36429700D01*
X40290000Y-36456900D01*
X40426500Y-36429700D01*
X40542300Y-36352400D01*
X40576990Y-36300500D01*
X42013110Y-36300500D01*
X42020300Y-36336600D01*
X42097700Y-36452400D01*
X42213400Y-36529700D01*
X42350000Y-36556900D01*
X42486500Y-36529700D01*
X42602300Y-36452400D01*
X42679700Y-36336600D01*
X42686860Y-36300500D01*
X46143200Y-36300500D01*
X46170300Y-36436600D01*
X46247700Y-36552300D01*
X46363400Y-36629700D01*
X46500000Y-36656900D01*
X46636500Y-36629700D01*
X46752300Y-36552300D01*
X46829700Y-36436600D01*
X46856800Y-36300000D01*
X46829700Y-36163500D01*
X46821010Y-36150500D01*
X48443200Y-36150500D01*
X48470300Y-36286600D01*
X48547600Y-36402400D01*
X48663400Y-36479700D01*
X48800000Y-36506900D01*
X48936600Y-36479700D01*
X49052300Y-36402400D01*
X49129700Y-36286600D01*
X49156800Y-36150500D01*
X49443200Y-36150500D01*
X49470300Y-36286600D01*
X49547600Y-36402400D01*
X49663400Y-36479700D01*
X49800000Y-36506900D01*
X49936600Y-36479700D01*
X50052300Y-36402400D01*
X50129700Y-36286600D01*
X50156800Y-36150000D01*
X50146970Y-36100500D01*
X52143200Y-36100500D01*
X52170300Y-36236600D01*
X52247700Y-36352400D01*
X52363400Y-36429700D01*
X52500000Y-36456900D01*
X52636500Y-36429700D01*
X52752300Y-36352400D01*
X52829700Y-36236600D01*
X52856800Y-36100000D01*
X52829700Y-35963400D01*
X52752300Y-35847700D01*
X52636500Y-35770300D01*
X52500000Y-35743200D01*
X52363400Y-35770300D01*
X52247700Y-35847700D01*
X52170300Y-35963400D01*
X52143200Y-36099500D01*
X50146770Y-36099500D01*
X50129700Y-36013500D01*
X50052300Y-35897700D01*
X49936600Y-35820300D01*
X49800000Y-35793200D01*
X49663400Y-35820300D01*
X49547600Y-35897700D01*
X49470300Y-36013500D01*
X49453160Y-36099500D01*
X49146840Y-36099500D01*
X49129700Y-36013500D01*
X49052300Y-35897700D01*
X48936600Y-35820300D01*
X48800000Y-35793200D01*
X48663400Y-35820300D01*
X48547600Y-35897700D01*
X48470300Y-36013500D01*
X48453160Y-36099500D01*
X46786920Y-36099500D01*
X46752300Y-36047700D01*
X46636500Y-35970300D01*
X46500000Y-35943100D01*
X46363400Y-35970300D01*
X46247700Y-36047700D01*
X46213080Y-36099500D01*
X42971990Y-36099500D01*
X43083600Y-36077300D01*
X43298600Y-35933700D01*
X43442300Y-35718600D01*
X43492700Y-35465000D01*
X43469940Y-35350500D01*
X46393200Y-35350500D01*
X46420300Y-35486600D01*
X46497700Y-35602400D01*
X46613400Y-35679700D01*
X46750000Y-35706900D01*
X46886500Y-35679700D01*
X47002300Y-35602400D01*
X47079700Y-35486600D01*
X47106800Y-35350000D01*
X47087060Y-35250500D01*
X51293300Y-35250500D01*
X51320400Y-35386500D01*
X51397800Y-35502300D01*
X51513500Y-35579700D01*
X51650100Y-35606800D01*
X51786700Y-35579700D01*
X51902400Y-35502300D01*
X51979800Y-35386500D01*
X52007000Y-35250000D01*
X51979800Y-35113400D01*
X51902400Y-34997600D01*
X51786700Y-34920300D01*
X51650100Y-34893100D01*
X51513500Y-34920300D01*
X51397800Y-34997600D01*
X51320400Y-35113400D01*
X51293300Y-35249500D01*
X47086860Y-35249500D01*
X47079700Y-35213400D01*
X47002300Y-35097700D01*
X46886500Y-35020300D01*
X46750000Y-34993200D01*
X46613400Y-35020300D01*
X46497700Y-35097700D01*
X46420300Y-35213400D01*
X46413110Y-35249500D01*
X43449870Y-35249500D01*
X43442300Y-35211400D01*
X43298600Y-34996400D01*
X43083600Y-34852700D01*
X42830000Y-34802300D01*
X42576400Y-34852700D01*
X42361400Y-34996400D01*
X42217700Y-35211400D01*
X42210130Y-35249500D01*
X37503500Y-35249500D01*
X37502300Y-35247700D01*
X37386500Y-35170300D01*
X37250000Y-35143200D01*
X37205900Y-35151900D01*
X37055900Y-35042100D01*
X37055900Y-34851100D01*
X37123960Y-34830500D01*
X37222480Y-34830500D01*
X37281400Y-34918600D01*
X37496400Y-35062300D01*
X37750000Y-35112800D01*
X38003600Y-35062300D01*
X38218600Y-34918600D01*
X38277480Y-34830500D01*
X39933200Y-34830500D01*
X39960300Y-34966600D01*
X40037700Y-35082300D01*
X40153400Y-35159700D01*
X40290000Y-35186900D01*
X40426500Y-35159700D01*
X40542300Y-35082300D01*
X40619700Y-34966600D01*
X40646800Y-34830500D01*
X41203200Y-34830500D01*
X41230300Y-34966600D01*
X41307600Y-35082300D01*
X41423400Y-35159700D01*
X41560000Y-35186900D01*
X41696600Y-35159700D01*
X41812300Y-35082300D01*
X41889700Y-34966600D01*
X41916800Y-34830000D01*
X41889700Y-34693500D01*
X41812300Y-34577700D01*
X41696600Y-34500300D01*
X41560000Y-34473200D01*
X41423400Y-34500300D01*
X41307600Y-34577700D01*
X41230300Y-34693500D01*
X41203200Y-34829500D01*
X40646800Y-34829500D01*
X40619700Y-34693500D01*
X40542300Y-34577700D01*
X40426500Y-34500300D01*
X40290000Y-34473200D01*
X40153400Y-34500300D01*
X40037700Y-34577700D01*
X39960300Y-34693500D01*
X39933200Y-34829500D01*
X38278150Y-34829500D01*
X38362300Y-34703600D01*
X38412700Y-34450000D01*
X38362300Y-34196400D01*
X38331620Y-34150500D01*
X40012960Y-34150500D01*
X40047600Y-34202400D01*
X40163400Y-34279700D01*
X40300000Y-34306900D01*
X40436600Y-34279700D01*
X40552300Y-34202400D01*
X40586990Y-34150500D01*
X43512960Y-34150500D01*
X43547600Y-34202400D01*
X43663400Y-34279700D01*
X43800000Y-34306900D01*
X43936600Y-34279700D01*
X44052300Y-34202400D01*
X44086990Y-34150500D01*
X44729590Y-34150500D01*
X44797600Y-34252300D01*
X44913400Y-34329700D01*
X45050000Y-34356900D01*
X45186600Y-34329700D01*
X45302300Y-34252300D01*
X45370400Y-34150500D01*
X47643200Y-34150500D01*
X47670300Y-34286600D01*
X47747700Y-34402300D01*
X47863400Y-34479700D01*
X48000000Y-34506900D01*
X48136500Y-34479700D01*
X48252300Y-34402300D01*
X48329700Y-34286600D01*
X48356800Y-34150000D01*
X48346970Y-34100500D01*
X50493200Y-34100500D01*
X50520300Y-34236600D01*
X50597700Y-34352400D01*
X50713400Y-34429700D01*
X50850000Y-34456900D01*
X50986500Y-34429700D01*
X51102300Y-34352400D01*
X51179700Y-34236600D01*
X51206800Y-34100000D01*
X51179700Y-33963400D01*
X51102300Y-33847700D01*
X50986500Y-33770300D01*
X50850000Y-33743200D01*
X50713400Y-33770300D01*
X50597700Y-33847700D01*
X50520300Y-33963400D01*
X50493200Y-34099500D01*
X48346770Y-34099500D01*
X48329700Y-34013500D01*
X48252300Y-33897700D01*
X48136500Y-33820300D01*
X48000000Y-33793200D01*
X47863400Y-33820300D01*
X47747700Y-33897700D01*
X47670300Y-34013500D01*
X47653160Y-34099500D01*
X45387090Y-34099500D01*
X45406900Y-34000000D01*
X45379700Y-33863500D01*
X45302300Y-33747700D01*
X45186600Y-33670300D01*
X45050000Y-33643200D01*
X44913400Y-33670300D01*
X44797600Y-33747700D01*
X44720300Y-33863500D01*
X44693200Y-33999500D01*
X44147040Y-33999500D01*
X44156900Y-33950000D01*
X44129700Y-33813400D01*
X44052300Y-33697700D01*
X43936600Y-33620300D01*
X43800000Y-33593200D01*
X43663400Y-33620300D01*
X43547600Y-33697700D01*
X43470300Y-33813400D01*
X43443200Y-33949500D01*
X40656800Y-33949500D01*
X40629700Y-33813400D01*
X40552300Y-33697700D01*
X40436600Y-33620300D01*
X40300000Y-33593200D01*
X40163400Y-33620300D01*
X40047600Y-33697700D01*
X39970300Y-33813400D01*
X39943200Y-33949500D01*
X38170870Y-33949500D01*
X38003600Y-33837700D01*
X37787800Y-33794800D01*
X37755200Y-33762100D01*
X37707800Y-33692200D01*
X37687600Y-33646800D01*
X37706800Y-33550000D01*
X37679700Y-33413500D01*
X37671010Y-33400500D01*
X41543200Y-33400500D01*
X41570300Y-33536600D01*
X41647600Y-33652300D01*
X41763400Y-33729700D01*
X41900000Y-33756900D01*
X42036600Y-33729700D01*
X42152300Y-33652300D01*
X42229700Y-33536600D01*
X42256800Y-33400000D01*
X42229700Y-33263500D01*
X42152300Y-33147700D01*
X42036600Y-33070300D01*
X41900000Y-33043200D01*
X41763400Y-33070300D01*
X41647600Y-33147700D01*
X41570300Y-33263500D01*
X41543200Y-33399500D01*
X37670340Y-33399500D01*
X37602300Y-33297700D01*
X37486500Y-33220300D01*
X37350000Y-33193100D01*
X37213400Y-33220300D01*
X37205900Y-33225400D01*
X37055900Y-33145200D01*
X37055900Y-32942900D01*
X38601640Y-32942900D01*
X38620300Y-33036600D01*
X38697700Y-33152300D01*
X38813400Y-33229700D01*
X38950000Y-33256900D01*
X39086500Y-33229700D01*
X39202300Y-33152300D01*
X39279700Y-33036600D01*
X39298360Y-32942900D01*
X44975900Y-32942900D01*
X45003000Y-33079000D01*
X45080300Y-33194800D01*
X45196100Y-33272100D01*
X45332600Y-33299300D01*
X45469200Y-33272100D01*
X45585000Y-33194800D01*
X45662400Y-33079000D01*
X45689500Y-32942400D01*
X45662400Y-32805900D01*
X45659530Y-32801600D01*
X50632700Y-32801600D01*
X50659800Y-32937600D01*
X50737100Y-33053400D01*
X50852900Y-33130700D01*
X50989500Y-33157900D01*
X51126000Y-33130700D01*
X51241800Y-33053400D01*
X51319200Y-32937600D01*
X51346300Y-32801100D01*
X51319200Y-32664500D01*
X51241800Y-32548700D01*
X51126000Y-32471400D01*
X50989500Y-32444200D01*
X50852900Y-32471400D01*
X50737100Y-32548700D01*
X50659800Y-32664500D01*
X50632700Y-32800600D01*
X45658860Y-32800600D01*
X45585000Y-32690100D01*
X45469200Y-32612700D01*
X45332600Y-32585600D01*
X45196100Y-32612700D01*
X45080300Y-32690100D01*
X45006540Y-32800600D01*
X39287090Y-32800600D01*
X39279700Y-32763500D01*
X39202300Y-32647700D01*
X39086500Y-32570300D01*
X38950000Y-32543200D01*
X38813400Y-32570300D01*
X38697700Y-32647700D01*
X38620300Y-32763500D01*
X38612910Y-32800600D01*
X37055900Y-32800600D01*
X37055900Y-32724500D01*
X37205900Y-32638200D01*
X37300000Y-32656900D01*
X37436600Y-32629700D01*
X37552300Y-32552300D01*
X37629700Y-32436600D01*
X37656900Y-32300000D01*
X37637070Y-32200500D01*
X40063110Y-32200500D01*
X40070300Y-32236600D01*
X40147600Y-32352400D01*
X40263400Y-32429700D01*
X40400000Y-32456900D01*
X40536600Y-32429700D01*
X40652300Y-32352400D01*
X40729700Y-32236600D01*
X40736860Y-32200500D01*
X43993200Y-32200500D01*
X44020300Y-32336600D01*
X44097700Y-32452400D01*
X44213400Y-32529700D01*
X44350000Y-32556900D01*
X44486500Y-32529700D01*
X44602300Y-32452400D01*
X44679700Y-32336600D01*
X44706800Y-32200000D01*
X44699880Y-32165100D01*
X47026500Y-32165100D01*
X47053500Y-32301200D01*
X47130900Y-32417000D01*
X47246600Y-32494400D01*
X47383200Y-32521500D01*
X47519800Y-32494400D01*
X47635600Y-32417000D01*
X47712900Y-32301200D01*
X47740100Y-32164600D01*
X47712900Y-32028100D01*
X47635600Y-31912300D01*
X47519800Y-31835000D01*
X47383200Y-31807800D01*
X47246600Y-31835000D01*
X47130900Y-31912300D01*
X47053500Y-32028100D01*
X47026500Y-32164100D01*
X44699680Y-32164100D01*
X44679700Y-32063400D01*
X44602300Y-31947700D01*
X44486500Y-31870300D01*
X44350000Y-31843200D01*
X44213400Y-31870300D01*
X44097700Y-31947700D01*
X44020300Y-32063400D01*
X44000250Y-32164100D01*
X40744080Y-32164100D01*
X40756800Y-32100000D01*
X40729700Y-31963400D01*
X40702300Y-31802300D01*
X40770400Y-31700500D01*
X50593200Y-31700500D01*
X50620300Y-31836600D01*
X50697700Y-31952400D01*
X50813400Y-32029700D01*
X50950000Y-32056900D01*
X51086500Y-32029700D01*
X51202300Y-31952400D01*
X51279700Y-31836600D01*
X51306900Y-31700000D01*
X51279700Y-31563400D01*
X51202300Y-31447700D01*
X51086500Y-31370300D01*
X50950000Y-31343200D01*
X50813400Y-31370300D01*
X50697700Y-31447700D01*
X50620300Y-31563400D01*
X50593200Y-31699500D01*
X40771070Y-31699500D01*
X40779700Y-31686600D01*
X40806900Y-31550000D01*
X40779700Y-31413500D01*
X40702300Y-31297700D01*
X40586500Y-31220300D01*
X40450000Y-31193100D01*
X40313400Y-31220300D01*
X40197700Y-31297700D01*
X40120300Y-31413500D01*
X40093100Y-31550000D01*
X40120300Y-31686600D01*
X40122490Y-31699500D01*
X37055900Y-31699500D01*
X37055900Y-31024500D01*
X37205900Y-30938100D01*
X37300000Y-30956900D01*
X37436600Y-30929700D01*
X37492430Y-30892400D01*
X41591080Y-30892400D01*
X41597700Y-30902300D01*
X41713400Y-30979700D01*
X41850000Y-31006900D01*
X41986500Y-30979700D01*
X42102300Y-30902300D01*
X42108920Y-30892400D01*
X42743560Y-30892400D01*
X42771100Y-30910800D01*
X42907700Y-30938000D01*
X43044300Y-30910800D01*
X43071840Y-30892400D01*
X45753700Y-30892400D01*
X45780700Y-31028400D01*
X45858100Y-31144200D01*
X45973900Y-31221600D01*
X46110400Y-31248700D01*
X46247000Y-31221600D01*
X46362800Y-31144200D01*
X46440100Y-31028400D01*
X46467300Y-30891900D01*
X46440100Y-30755300D01*
X46373200Y-30655200D01*
X46452300Y-30602400D01*
X46529700Y-30486600D01*
X46556900Y-30350000D01*
X46529700Y-30213400D01*
X46452300Y-30097700D01*
X46336500Y-30020300D01*
X46200000Y-29993200D01*
X46063400Y-30020300D01*
X45947700Y-30097700D01*
X45870300Y-30213400D01*
X45843100Y-30350000D01*
X45870300Y-30486600D01*
X45937200Y-30586700D01*
X45858100Y-30639500D01*
X45780700Y-30755300D01*
X45753700Y-30891400D01*
X43073340Y-30891400D01*
X43160000Y-30833500D01*
X43237400Y-30717700D01*
X43264600Y-30581100D01*
X43261600Y-30566200D01*
X43260000Y-30558400D01*
X43255600Y-30515000D01*
X43389400Y-30439800D01*
X43433200Y-30480000D01*
X43433500Y-30480300D01*
X43436500Y-30483300D01*
X43716000Y-30762800D01*
X43831800Y-30840200D01*
X43968400Y-30867300D01*
X44104900Y-30840200D01*
X44220700Y-30762800D01*
X44298100Y-30647100D01*
X44325200Y-30510500D01*
X44298100Y-30373900D01*
X44220700Y-30258100D01*
X43937900Y-29975300D01*
X43822100Y-29897900D01*
X43685500Y-29870800D01*
X43549000Y-29897900D01*
X43433200Y-29975300D01*
X43355800Y-30091100D01*
X43328700Y-30227700D01*
X43331600Y-30242600D01*
X43334000Y-30254200D01*
X43337600Y-30373500D01*
X43324500Y-30380300D01*
X43315900Y-30384700D01*
X43305100Y-30390200D01*
X43245200Y-30385300D01*
X43160000Y-30328800D01*
X43044300Y-30251400D01*
X42907700Y-30224300D01*
X42771100Y-30251400D01*
X42655400Y-30328800D01*
X42578000Y-30444600D01*
X42550900Y-30580600D01*
X42193020Y-30580600D01*
X42179700Y-30513500D01*
X42102300Y-30397700D01*
X41986500Y-30320300D01*
X41850000Y-30293200D01*
X41713400Y-30320300D01*
X41597700Y-30397700D01*
X41520300Y-30513500D01*
X41506930Y-30580600D01*
X37653040Y-30580600D01*
X37629700Y-30463400D01*
X37552300Y-30347700D01*
X37436600Y-30270300D01*
X37300000Y-30243200D01*
X37205900Y-30261900D01*
X37055900Y-30175500D01*
X37055900Y-29874500D01*
X37205900Y-29788100D01*
X37300000Y-29806900D01*
X37436600Y-29779700D01*
X37552300Y-29702400D01*
X37629700Y-29586600D01*
X37636890Y-29550500D01*
X40346500Y-29550500D01*
X40347700Y-29552300D01*
X40463400Y-29629700D01*
X40600000Y-29656900D01*
X40736500Y-29629700D01*
X40852300Y-29552300D01*
X40853500Y-29550500D01*
X46643200Y-29550500D01*
X46670300Y-29686600D01*
X46747700Y-29802300D01*
X46863400Y-29879700D01*
X47000000Y-29906900D01*
X47136500Y-29879700D01*
X47252300Y-29802300D01*
X47329700Y-29686600D01*
X47356800Y-29550000D01*
X47329700Y-29413500D01*
X47252300Y-29297700D01*
X47136500Y-29220300D01*
X47000000Y-29193100D01*
X46863400Y-29220300D01*
X46747700Y-29297700D01*
X46670300Y-29413500D01*
X46643200Y-29549500D01*
X40854170Y-29549500D01*
X40929700Y-29436600D01*
X40956800Y-29300000D01*
X40929700Y-29163500D01*
X40921010Y-29150500D01*
X42243200Y-29150500D01*
X42270300Y-29286600D01*
X42347700Y-29402300D01*
X42463400Y-29479700D01*
X42600000Y-29506900D01*
X42736500Y-29479700D01*
X42852300Y-29402300D01*
X42929700Y-29286600D01*
X42956800Y-29150000D01*
X42970600Y-29129400D01*
X43079600Y-29107700D01*
X43195400Y-29030400D01*
X43272700Y-28914600D01*
X43299900Y-28778000D01*
X43272700Y-28641400D01*
X43195400Y-28525700D01*
X43079600Y-28448300D01*
X42943100Y-28421200D01*
X42806500Y-28448300D01*
X42690700Y-28525700D01*
X42613400Y-28641400D01*
X42586200Y-28778000D01*
X42572400Y-28798600D01*
X42463400Y-28820300D01*
X42347700Y-28897700D01*
X42270300Y-29013500D01*
X42243200Y-29149500D01*
X40920340Y-29149500D01*
X40852300Y-29047700D01*
X40736500Y-28970300D01*
X40600000Y-28943100D01*
X40463400Y-28970300D01*
X40347700Y-29047700D01*
X40279660Y-29149500D01*
X39281740Y-29149500D01*
X39352300Y-29102400D01*
X39429700Y-28986600D01*
X39456800Y-28850000D01*
X39429700Y-28713400D01*
X39354170Y-28600500D01*
X40993200Y-28600500D01*
X41020300Y-28736600D01*
X41097700Y-28852400D01*
X41213400Y-28929700D01*
X41350000Y-28956900D01*
X41486500Y-28929700D01*
X41602300Y-28852400D01*
X41679700Y-28736600D01*
X41706800Y-28600000D01*
X41690900Y-28520100D01*
X41696300Y-28436100D01*
X41765500Y-28321900D01*
X41816500Y-28287900D01*
X41893900Y-28172100D01*
X41921100Y-28035500D01*
X41893900Y-27899000D01*
X41816500Y-27783200D01*
X41700700Y-27705800D01*
X41564200Y-27678700D01*
X41427600Y-27705800D01*
X41311900Y-27783200D01*
X41234500Y-27899000D01*
X41207300Y-28035500D01*
X41223200Y-28115400D01*
X41217900Y-28199400D01*
X41148700Y-28313600D01*
X41097700Y-28347700D01*
X41020300Y-28463400D01*
X40993200Y-28599500D01*
X39353500Y-28599500D01*
X39352300Y-28597700D01*
X39236500Y-28520300D01*
X39100000Y-28493200D01*
X38963400Y-28520300D01*
X38847700Y-28597700D01*
X38846500Y-28599500D01*
X38203500Y-28599500D01*
X38202300Y-28597700D01*
X38086500Y-28520300D01*
X37950000Y-28493200D01*
X37813400Y-28520300D01*
X37697700Y-28597700D01*
X37696500Y-28599500D01*
X37055900Y-28599500D01*
X37055900Y-28524500D01*
X37205900Y-28438100D01*
X37300000Y-28456900D01*
X37436600Y-28429700D01*
X37552300Y-28352400D01*
X37629700Y-28236600D01*
X37656900Y-28100000D01*
X37653100Y-28081200D01*
X37794400Y-28022600D01*
X37847700Y-28102400D01*
X37963400Y-28179700D01*
X38100000Y-28206900D01*
X38236500Y-28179700D01*
X38352300Y-28102400D01*
X38429700Y-27986600D01*
X38456800Y-27850000D01*
X38429700Y-27713400D01*
X38352300Y-27597700D01*
X38281680Y-27550500D01*
X38593200Y-27550500D01*
X38620300Y-27686600D01*
X38697700Y-27802300D01*
X38813400Y-27879700D01*
X38950000Y-27906900D01*
X39086500Y-27879700D01*
X39202300Y-27802300D01*
X39279700Y-27686600D01*
X39306900Y-27550000D01*
X39279700Y-27413500D01*
X39246820Y-27364300D01*
X44000500Y-27364300D01*
X44027600Y-27500400D01*
X44104900Y-27616100D01*
X44220700Y-27693500D01*
X44357300Y-27720700D01*
X44493800Y-27693500D01*
X44609600Y-27616100D01*
X44687000Y-27500400D01*
X44714100Y-27363800D01*
X44687000Y-27227200D01*
X44609600Y-27111500D01*
X44493800Y-27034100D01*
X44357300Y-27006900D01*
X44220700Y-27034100D01*
X44104900Y-27111500D01*
X44027600Y-27227200D01*
X44000500Y-27363300D01*
X39246150Y-27363300D01*
X39202300Y-27297700D01*
X39086500Y-27220300D01*
X38950000Y-27193100D01*
X38813400Y-27220300D01*
X38697700Y-27297700D01*
X38653850Y-27363300D01*
X37055900Y-27363300D01*
X37055900Y-26904700D01*
X42126600Y-26904700D01*
X42153700Y-27040700D01*
X42231000Y-27156500D01*
X42346800Y-27233900D01*
X42483400Y-27261000D01*
X42620000Y-27233900D01*
X42735700Y-27156500D01*
X42813100Y-27040700D01*
X42840200Y-26904200D01*
X42813100Y-26767600D01*
X42735700Y-26651900D01*
X42620000Y-26574500D01*
X42483400Y-26547300D01*
X42346800Y-26574500D01*
X42231000Y-26651900D01*
X42153700Y-26767600D01*
X42126600Y-26903700D01*
X37055900Y-26903700D01*
X37055900Y-26557900D01*
X37205900Y-26448100D01*
X37250000Y-26456900D01*
X37386500Y-26429700D01*
X37502300Y-26352400D01*
X37558510Y-26268300D01*
X42763000Y-26268300D01*
X42790100Y-26404400D01*
X42867500Y-26520100D01*
X42983200Y-26597500D01*
X43119800Y-26624700D01*
X43256300Y-26597500D01*
X43372100Y-26520100D01*
X43449500Y-26404400D01*
X43476700Y-26267800D01*
X43449500Y-26131200D01*
X43372100Y-26015400D01*
X43256300Y-25938100D01*
X43119800Y-25910900D01*
X42983200Y-25938100D01*
X42867500Y-26015400D01*
X42790100Y-26131200D01*
X42763000Y-26267300D01*
X37559180Y-26267300D01*
X37579700Y-26236600D01*
X37606800Y-26100000D01*
X37579700Y-25963400D01*
X37502300Y-25847700D01*
X37386500Y-25770300D01*
X37250000Y-25743200D01*
X37205900Y-25752000D01*
X37055900Y-25642100D01*
X37055900Y-24957100D01*
X37058000Y-24957100D01*
X37062300Y-24924200D01*
X37223100Y-24852700D01*
X37263400Y-24879700D01*
X37400000Y-24906900D01*
X37536600Y-24879700D01*
X37652300Y-24802300D01*
X37720400Y-24700500D01*
X40043200Y-24700500D01*
X40070300Y-24836600D01*
X40147600Y-24952400D01*
X40263400Y-25029700D01*
X40400000Y-25056900D01*
X40536600Y-25029700D01*
X40652300Y-24952400D01*
X40729700Y-24836600D01*
X40756800Y-24700000D01*
X40729700Y-24563400D01*
X40652300Y-24447700D01*
X40536600Y-24370300D01*
X40400000Y-24343200D01*
X40263400Y-24370300D01*
X40147600Y-24447700D01*
X40070300Y-24563400D01*
X40043200Y-24699500D01*
X37721070Y-24699500D01*
X37729700Y-24686600D01*
X37756800Y-24550000D01*
X37729700Y-24413500D01*
X37652300Y-24297700D01*
X37536600Y-24220300D01*
X37521400Y-24217300D01*
X37442600Y-24072400D01*
X37474400Y-23974400D01*
X37796100Y-23555100D01*
X37998300Y-23066900D01*
X38013500Y-22951500D01*
X38192200Y-22951500D01*
X38219300Y-23087600D01*
X38296600Y-23203400D01*
X38412400Y-23280800D01*
X38549000Y-23307900D01*
X38685500Y-23280800D01*
X38801300Y-23203400D01*
X38878600Y-23087600D01*
X38905700Y-22951500D01*
X39394300Y-22951500D01*
X39421300Y-23087600D01*
X39498700Y-23203400D01*
X39614500Y-23280800D01*
X39751000Y-23307900D01*
X39887600Y-23280800D01*
X40003400Y-23203400D01*
X40080700Y-23087600D01*
X40107900Y-22951000D01*
X40080700Y-22814500D01*
X40003400Y-22698700D01*
X39887600Y-22621400D01*
X39751000Y-22594200D01*
X39614500Y-22621400D01*
X39498700Y-22698700D01*
X39421300Y-22814500D01*
X39394300Y-22950500D01*
X38905700Y-22950500D01*
X38878600Y-22814500D01*
X38801300Y-22698700D01*
X38685500Y-22621400D01*
X38549000Y-22594200D01*
X38412400Y-22621400D01*
X38296600Y-22698700D01*
X38219300Y-22814500D01*
X38192200Y-22950500D01*
X38013630Y-22950500D01*
X38067300Y-22542900D01*
X38055900Y-22542900D01*
X38055900Y-21937900D01*
X38143800Y-21824300D01*
X38207100Y-21824200D01*
X38211500Y-21846800D01*
X38219200Y-21885500D01*
X38263000Y-21951000D01*
X38296600Y-22001300D01*
X38412400Y-22078700D01*
X38549000Y-22105800D01*
X38685500Y-22078700D01*
X38801300Y-22001300D01*
X38878600Y-21885500D01*
X38905800Y-21749000D01*
X38878600Y-21612400D01*
X38801300Y-21496600D01*
X38685500Y-21419300D01*
X38549000Y-21392100D01*
X38412400Y-21419300D01*
X38296600Y-21496600D01*
X38263000Y-21546900D01*
X38219200Y-21612400D01*
X38211500Y-21651200D01*
X38207100Y-21673800D01*
X38143800Y-21673600D01*
X38055900Y-21560000D01*
X38055900Y-20854800D01*
X38205900Y-20774700D01*
X38213400Y-20779700D01*
X38350000Y-20806900D01*
X38486500Y-20779700D01*
X38602300Y-20702400D01*
X38625700Y-20667400D01*
X38810400Y-20640000D01*
X39516000Y-21345600D01*
X39501300Y-21494900D01*
X39498700Y-21496600D01*
X39421300Y-21612400D01*
X39394200Y-21749000D01*
X39421300Y-21885500D01*
X39498700Y-22001300D01*
X39614500Y-22078700D01*
X39751000Y-22105800D01*
X39887600Y-22078700D01*
X40003400Y-22001300D01*
X40005100Y-21998700D01*
X40154400Y-21984000D01*
X41354000Y-23183600D01*
X41347700Y-23247700D01*
X41270300Y-23363500D01*
X41243100Y-23500000D01*
X41270300Y-23636600D01*
X41347700Y-23752300D01*
X41463400Y-23829700D01*
X41600000Y-23856900D01*
X41736500Y-23829700D01*
X41852300Y-23752300D01*
X41916400Y-23746000D01*
X42485400Y-24315100D01*
X42436000Y-24477800D01*
X42382200Y-24488500D01*
X42266400Y-24565900D01*
X42189100Y-24681600D01*
X42161900Y-24818200D01*
X42189100Y-24954800D01*
X42266400Y-25070600D01*
X42382200Y-25147900D01*
X42518800Y-25175100D01*
X42655400Y-25147900D01*
X42771100Y-25070600D01*
X42848500Y-24954800D01*
X42859200Y-24901000D01*
X43021900Y-24851600D01*
X48262800Y-30092400D01*
X48298900Y-30107400D01*
X48304100Y-30115500D01*
X48314900Y-30118000D01*
X48326400Y-30126500D01*
X48400000Y-30200000D01*
X48503100Y-30200000D01*
X48520300Y-30286600D01*
X48597700Y-30402300D01*
X48713400Y-30479700D01*
X48850000Y-30506900D01*
X48986500Y-30479700D01*
X49102300Y-30402300D01*
X49179700Y-30286600D01*
X49194400Y-30212400D01*
X50587500Y-30212400D01*
X51700000Y-31324900D01*
X53487600Y-33112500D01*
X53487600Y-37882800D01*
X51135100Y-40235300D01*
X51125700Y-40258000D01*
X51106700Y-40273600D01*
X51104500Y-40295500D01*
X50683300Y-40716700D01*
X50613700Y-40715200D01*
X50547200Y-40702800D01*
X50500700Y-40670000D01*
X50452300Y-40597700D01*
X50336500Y-40520300D01*
X50200000Y-40493200D01*
X50063400Y-40520300D01*
X49947700Y-40597700D01*
X49870300Y-40713400D01*
X49843100Y-40850000D01*
X49870300Y-40986600D01*
X49947700Y-41102400D01*
X50012500Y-41145700D01*
X50051700Y-41318700D01*
X48885200Y-42485200D01*
X48864200Y-42535800D01*
X48850000Y-42550000D01*
X48850000Y-42570200D01*
X48837600Y-42600000D01*
X48837600Y-44749100D01*
X48847000Y-44771800D01*
X48844600Y-44796200D01*
X48850000Y-44802800D01*
X48850000Y-45497200D01*
X48844600Y-45503800D01*
X48847000Y-45528200D01*
X48837600Y-45550900D01*
X48837600Y-45893200D01*
X48850000Y-45923000D01*
X48850000Y-45929300D01*
X48747700Y-45997700D01*
X48670300Y-46113400D01*
X48643100Y-46250000D01*
X48670300Y-46386600D01*
X48745600Y-46499300D01*
X48739500Y-46526300D01*
X48707100Y-46622200D01*
X48688400Y-46643200D01*
X47900000Y-46643200D01*
X47763400Y-46670300D01*
X47647600Y-46747700D01*
X47570300Y-46863400D01*
X47543100Y-47000000D01*
X47570300Y-47136600D01*
X47647600Y-47252300D01*
X47763400Y-47329700D01*
X47900000Y-47356900D01*
X48700000Y-47356900D01*
X48804200Y-47419600D01*
X48847000Y-47478200D01*
X48837600Y-47500900D01*
X48837600Y-48229400D01*
X48846500Y-48250800D01*
X48843800Y-48273800D01*
X48850000Y-48281600D01*
X48850000Y-49018400D01*
X48843800Y-49026200D01*
X48846500Y-49049200D01*
X48837600Y-49070600D01*
X48837600Y-53546000D01*
X48843000Y-53559100D01*
X48839800Y-53572800D01*
X48850000Y-53589000D01*
X48850000Y-53965500D01*
X48843100Y-54000000D01*
X48850000Y-54034500D01*
X48850000Y-54194100D01*
X45907900Y-54194100D01*
X45798100Y-54044100D01*
X45806900Y-54000000D01*
X45779700Y-53863400D01*
X45702300Y-53747700D01*
X45645000Y-53709400D01*
X45645000Y-53540600D01*
X45702300Y-53502300D01*
X45779700Y-53386600D01*
X45806800Y-53250500D01*
X46893200Y-53250500D01*
X46920300Y-53386600D01*
X46997700Y-53502300D01*
X47113400Y-53579700D01*
X47250000Y-53606900D01*
X47386500Y-53579700D01*
X47502300Y-53502300D01*
X47579700Y-53386600D01*
X47606800Y-53250000D01*
X47579700Y-53113400D01*
X47502300Y-52997700D01*
X47386500Y-52920300D01*
X47250000Y-52893200D01*
X47113400Y-52920300D01*
X46997700Y-52997700D01*
X46920300Y-53113400D01*
X46893200Y-53249500D01*
X45806800Y-53249500D01*
X45779700Y-53113400D01*
X45702300Y-52997700D01*
X45586500Y-52920300D01*
X45450000Y-52893200D01*
X45313400Y-52920300D01*
X45197700Y-52997700D01*
X45120300Y-53113400D01*
X45093200Y-53249500D01*
X44770390Y-53249500D01*
X44741600Y-53206500D01*
X44714500Y-53100000D01*
X44741600Y-52993500D01*
X44779700Y-52936600D01*
X44806900Y-52800000D01*
X44779700Y-52663500D01*
X44702300Y-52547700D01*
X44702300Y-52452300D01*
X44779700Y-52336600D01*
X44796840Y-52250500D01*
X45093200Y-52250500D01*
X45120300Y-52386600D01*
X45197700Y-52502300D01*
X45313400Y-52579700D01*
X45450000Y-52606900D01*
X45586500Y-52579700D01*
X45702300Y-52502300D01*
X45779700Y-52386600D01*
X45791200Y-52328500D01*
G37*
%TD.AperFunction*%
%TD*%
%TA.AperFunction,Conductor*%
%TO.N,MUX_VCC*%
G36*
X38205900Y-15624700D02*
G01*
X38213400Y-15629700D01*
X38303290Y-15647600D01*
X38163020Y-15647600D01*
X38205900Y-15624700D01*
G37*
%TD.AperFunction*%
%TA.AperFunction,Conductor*%
G36*
X39637400Y-17286000D02*
G01*
X39521600Y-17363300D01*
X39444300Y-17479100D01*
X39417700Y-17612900D01*
X39283900Y-17639500D01*
X39168100Y-17716900D01*
X39090700Y-17832700D01*
X39063700Y-17968700D01*
X38055900Y-17968700D01*
X38055900Y-17404800D01*
X38205900Y-17324600D01*
X38213400Y-17329700D01*
X38350000Y-17356900D01*
X38486500Y-17329700D01*
X38586890Y-17262600D01*
X39755100Y-17262600D01*
X39637400Y-17286000D01*
G37*
%TD.AperFunction*%
%TA.AperFunction,Conductor*%
G36*
X40188100Y-21788100D02*
G01*
X40760700Y-21788100D01*
X40772510Y-21847400D01*
X40247400Y-21847400D01*
X40188100Y-21788100D01*
G37*
%TD.AperFunction*%
%TA.AperFunction,Conductor*%
G36*
X40457200Y-17398700D02*
G01*
X40483900Y-17264900D01*
X40495460Y-17262600D01*
X42174900Y-17262600D01*
X42202000Y-17398700D01*
X42232080Y-17443700D01*
X40427160Y-17443700D01*
X40457200Y-17398700D01*
G37*
%TD.AperFunction*%
%TA.AperFunction,Conductor*%
G36*
X38055900Y-18676800D02*
G01*
X38356600Y-18676800D01*
X38383600Y-18812900D01*
X38461000Y-18928700D01*
X38558820Y-18994000D01*
X38055900Y-18994000D01*
X38055900Y-18676800D01*
G37*
%TD.AperFunction*%
%TA.AperFunction,Conductor*%
G36*
X38055900Y-18995000D02*
G01*
X38560320Y-18995000D01*
X38576800Y-19006000D01*
X38713300Y-19033200D01*
X38849900Y-19006000D01*
X38866380Y-18995000D01*
X43978100Y-18995000D01*
X44005100Y-19131000D01*
X44077750Y-19239700D01*
X38055900Y-19239700D01*
X38055900Y-18995000D01*
G37*
%TD.AperFunction*%
%TA.AperFunction,Conductor*%
G36*
X41218700Y-21181700D02*
G01*
X41141400Y-21297500D01*
X41114700Y-21431300D01*
X40980900Y-21457900D01*
X40865200Y-21535300D01*
X40787800Y-21651000D01*
X40760700Y-21787100D01*
X40187100Y-21787100D01*
X40097700Y-21697700D01*
X40080700Y-21612400D01*
X40003400Y-21496600D01*
X39887600Y-21419300D01*
X39802300Y-21402300D01*
X39541280Y-21141300D01*
X41279220Y-21141300D01*
X41218700Y-21181700D01*
G37*
%TD.AperFunction*%
%TA.AperFunction,Conductor*%
G36*
X43511400Y-21164700D02*
G01*
X43395600Y-21242000D01*
X43318200Y-21357800D01*
X43291600Y-21491600D01*
X43157800Y-21518200D01*
X43042000Y-21595600D01*
X42964700Y-21711400D01*
X42937600Y-21847400D01*
X41462470Y-21847400D01*
X41473800Y-21790400D01*
X41607600Y-21763800D01*
X41723400Y-21686400D01*
X41800700Y-21570600D01*
X41827400Y-21436800D01*
X41961200Y-21410200D01*
X42076900Y-21332900D01*
X42154300Y-21217100D01*
X42169370Y-21141300D01*
X43629100Y-21141300D01*
X43511400Y-21164700D01*
G37*
%TD.AperFunction*%
%TA.AperFunction,Conductor*%
G36*
X42202000Y-20236800D02*
G01*
X42175400Y-20370600D01*
X42041600Y-20397200D01*
X41925800Y-20474600D01*
X41848400Y-20590400D01*
X41821800Y-20724200D01*
X41688000Y-20750800D01*
X41572300Y-20828200D01*
X41494900Y-20943900D01*
X41468300Y-21077800D01*
X41334500Y-21104400D01*
X41280720Y-21140300D01*
X39540280Y-21140300D01*
X38611700Y-20211800D01*
X38602300Y-20197700D01*
X38588200Y-20188300D01*
X38538610Y-20138700D01*
X42267630Y-20138700D01*
X42202000Y-20236800D01*
G37*
%TD.AperFunction*%
%TA.AperFunction,Conductor*%
G36*
X44066730Y-25666800D02*
G01*
X44634700Y-25666800D01*
X44650590Y-25746900D01*
X44146830Y-25746900D01*
X44066730Y-25666800D01*
G37*
%TD.AperFunction*%
%TA.AperFunction,Conductor*%
G36*
X43645200Y-21138100D02*
G01*
X43634130Y-21140300D01*
X42169570Y-21140300D01*
X42180900Y-21083300D01*
X42314700Y-21056600D01*
X42323840Y-21050500D01*
X43662600Y-21050500D01*
X43645200Y-21138100D01*
G37*
%TD.AperFunction*%
%TA.AperFunction,Conductor*%
G36*
X46048900Y-21140300D02*
G01*
X44374340Y-21140300D01*
X44491600Y-21116900D01*
X44591070Y-21050500D01*
X46066710Y-21050500D01*
X46048900Y-21140300D01*
G37*
%TD.AperFunction*%
%TA.AperFunction,Conductor*%
G36*
X40955500Y-22555500D02*
G01*
X42230500Y-22555500D01*
X42257600Y-22691600D01*
X42334900Y-22807400D01*
X42432720Y-22872700D01*
X41272700Y-22872700D01*
X40955500Y-22555500D01*
G37*
%TD.AperFunction*%
%TA.AperFunction,Conductor*%
G36*
X41736500Y-23170300D02*
G01*
X41600000Y-23143200D01*
X41552600Y-23152600D01*
X41273700Y-22873700D01*
X42434220Y-22873700D01*
X42450700Y-22884700D01*
X42587200Y-22911900D01*
X42723800Y-22884700D01*
X42740280Y-22873700D01*
X47852000Y-22873700D01*
X47879100Y-23009700D01*
X47956400Y-23125500D01*
X48034800Y-23177900D01*
X41747870Y-23177900D01*
X41736500Y-23170300D01*
G37*
%TD.AperFunction*%
%TA.AperFunction,Conductor*%
G36*
X45092600Y-25060400D02*
G01*
X45015300Y-25176200D01*
X44988600Y-25310000D01*
X44854900Y-25336600D01*
X44739100Y-25414000D01*
X44661700Y-25529700D01*
X44634700Y-25665800D01*
X44065730Y-25665800D01*
X43440720Y-25040800D01*
X45121960Y-25040800D01*
X45092600Y-25060400D01*
G37*
%TD.AperFunction*%
%TA.AperFunction,Conductor*%
G36*
X47415600Y-25064100D02*
G01*
X47299800Y-25141500D01*
X47222500Y-25257300D01*
X47195900Y-25391100D01*
X47062000Y-25417700D01*
X46946300Y-25495100D01*
X46868900Y-25610800D01*
X46841800Y-25746900D01*
X45332220Y-25746900D01*
X45347700Y-25669000D01*
X45481500Y-25642400D01*
X45597300Y-25565100D01*
X45674700Y-25449300D01*
X45701300Y-25315500D01*
X45835100Y-25288900D01*
X45950900Y-25211500D01*
X46028200Y-25095800D01*
X46039130Y-25040800D01*
X47532800Y-25040800D01*
X47415600Y-25064100D01*
G37*
%TD.AperFunction*%
%TA.AperFunction,Conductor*%
G36*
X46075900Y-24115500D02*
G01*
X46049300Y-24249300D01*
X45915500Y-24275900D01*
X45799700Y-24353300D01*
X45722400Y-24469100D01*
X45695800Y-24602900D01*
X45562000Y-24629500D01*
X45446200Y-24706800D01*
X45368800Y-24822600D01*
X45342200Y-24956400D01*
X45208400Y-24983100D01*
X45123460Y-25039800D01*
X43439720Y-25039800D01*
X42476810Y-24076900D01*
X46101720Y-24076900D01*
X46075900Y-24115500D01*
G37*
%TD.AperFunction*%
%TA.AperFunction,Conductor*%
G36*
X47549400Y-25037500D02*
G01*
X47537830Y-25039800D01*
X46039320Y-25039800D01*
X46052220Y-24974900D01*
X47561850Y-24974900D01*
X47549400Y-25037500D01*
G37*
%TD.AperFunction*%
%TA.AperFunction,Conductor*%
G36*
X49953100Y-25039800D02*
G01*
X48278540Y-25039800D01*
X48395800Y-25016400D01*
X48457970Y-24974900D01*
X49966020Y-24974900D01*
X49953100Y-25039800D01*
G37*
%TD.AperFunction*%
%TA.AperFunction,Conductor*%
G36*
X44854950Y-26455000D02*
G01*
X46134700Y-26455000D01*
X46161800Y-26591100D01*
X46239200Y-26706800D01*
X46336810Y-26772100D01*
X45172050Y-26772100D01*
X44854950Y-26455000D01*
G37*
%TD.AperFunction*%
%TA.AperFunction,Conductor*%
G36*
X45321100Y-25802900D02*
G01*
X45332030Y-25747900D01*
X46841800Y-25747900D01*
X46866510Y-25872000D01*
X45274930Y-25872000D01*
X45321100Y-25802900D01*
G37*
%TD.AperFunction*%
%TA.AperFunction,Conductor*%
G36*
X44147830Y-25747900D02*
G01*
X44650790Y-25747900D01*
X44661700Y-25802900D01*
X44707930Y-25872000D01*
X44271940Y-25872000D01*
X44147830Y-25747900D01*
G37*
%TD.AperFunction*%
%TA.AperFunction,Conductor*%
G36*
X51756300Y-26772100D02*
G01*
X46646190Y-26772100D01*
X46647830Y-26771000D01*
X51756520Y-26771000D01*
X51756300Y-26772100D01*
G37*
%TD.AperFunction*%
%TA.AperFunction,Conductor*%
G36*
X50307100Y-27795300D02*
G01*
X50173300Y-27821900D01*
X50057500Y-27899200D01*
X49980200Y-28015000D01*
X49953600Y-28148800D01*
X49819800Y-28175400D01*
X49704000Y-28252800D01*
X49626600Y-28368600D01*
X49600000Y-28502300D01*
X49466200Y-28529000D01*
X49350400Y-28606300D01*
X49273100Y-28722100D01*
X49246500Y-28855900D01*
X49112700Y-28882500D01*
X48996900Y-28959900D01*
X48919500Y-29075700D01*
X48892900Y-29209500D01*
X48759100Y-29236100D01*
X48643300Y-29313400D01*
X48566000Y-29429200D01*
X48538800Y-29565800D01*
X48566000Y-29702300D01*
X48643300Y-29818100D01*
X48643300Y-29867200D01*
X48597700Y-29897700D01*
X48560200Y-29953800D01*
X48397200Y-29982500D01*
X48377600Y-29977600D01*
X46068960Y-27669000D01*
X50332190Y-27669000D01*
X50307100Y-27795300D01*
G37*
%TD.AperFunction*%
%TA.AperFunction,Conductor*%
G36*
X52450000Y-45003900D02*
G01*
X52518220Y-45049500D01*
X52381780Y-45049500D01*
X52450000Y-45003900D01*
G37*
%TD.AperFunction*%
%TA.AperFunction,Conductor*%
G36*
X51950000Y-45003900D02*
G01*
X52018220Y-45049500D01*
X51881720Y-45049500D01*
X51950000Y-45003900D01*
G37*
%TD.AperFunction*%
%TA.AperFunction,Conductor*%
G36*
X51450000Y-45003900D02*
G01*
X51518220Y-45049500D01*
X51381720Y-45049500D01*
X51450000Y-45003900D01*
G37*
%TD.AperFunction*%
%TA.AperFunction,Conductor*%
G36*
X50950000Y-45003900D02*
G01*
X51018220Y-45049500D01*
X50881720Y-45049500D01*
X50950000Y-45003900D01*
G37*
%TD.AperFunction*%
%TA.AperFunction,Conductor*%
G36*
X50450000Y-45003900D02*
G01*
X50518220Y-45049500D01*
X50381720Y-45049500D01*
X50450000Y-45003900D01*
G37*
%TD.AperFunction*%
%TA.AperFunction,Conductor*%
G36*
X49950000Y-45003900D02*
G01*
X50018220Y-45049500D01*
X49881780Y-45049500D01*
X49950000Y-45003900D01*
G37*
%TD.AperFunction*%
%TA.AperFunction,Conductor*%
G36*
X49370300Y-44613400D02*
G01*
X49362500Y-44652700D01*
X49313300Y-44763300D01*
X49202600Y-44812500D01*
X49163400Y-44820300D01*
X49150000Y-44829300D01*
X49000000Y-44749100D01*
X49000000Y-44530800D01*
X49425560Y-44530800D01*
X49370300Y-44613400D01*
G37*
%TD.AperFunction*%
%TA.AperFunction,Conductor*%
G36*
X52200000Y-53193100D02*
G01*
X52063400Y-53220300D01*
X51950000Y-53296100D01*
X51836500Y-53220300D01*
X51700000Y-53193200D01*
X51563400Y-53220300D01*
X51450000Y-53296100D01*
X51336500Y-53220300D01*
X51200000Y-53193200D01*
X51063400Y-53220300D01*
X50950000Y-53296100D01*
X50836500Y-53220300D01*
X50700000Y-53193100D01*
X50563400Y-53220300D01*
X50450000Y-53296100D01*
X50336500Y-53220300D01*
X50200000Y-53193100D01*
X50063400Y-53220300D01*
X49950000Y-53296100D01*
X49836500Y-53220300D01*
X49700000Y-53193200D01*
X49563400Y-53220300D01*
X49447700Y-53297700D01*
X49370300Y-53413500D01*
X49343100Y-53550000D01*
X49209100Y-53645000D01*
X49200000Y-53643200D01*
X49150000Y-53653100D01*
X49000000Y-53546000D01*
X49000000Y-52150800D01*
X54298000Y-52150800D01*
X54325000Y-52286900D01*
X54402400Y-52402600D01*
X54518200Y-52480000D01*
X54654700Y-52507200D01*
X54791300Y-52480000D01*
X54907000Y-52402600D01*
X54984400Y-52286900D01*
X55011600Y-52150300D01*
X54984400Y-52013700D01*
X54907000Y-51898000D01*
X54791300Y-51820600D01*
X54654700Y-51793400D01*
X54518200Y-51820600D01*
X54402400Y-51898000D01*
X54325000Y-52013700D01*
X54298000Y-52149800D01*
X49000000Y-52149800D01*
X49000000Y-51350500D01*
X53543200Y-51350500D01*
X53570300Y-51486600D01*
X53647600Y-51602400D01*
X53763400Y-51679700D01*
X53900000Y-51706900D01*
X54036600Y-51679700D01*
X54152300Y-51602400D01*
X54229700Y-51486600D01*
X54256800Y-51350000D01*
X54229700Y-51213500D01*
X54152300Y-51097700D01*
X54036600Y-51020300D01*
X53900000Y-50993200D01*
X53763400Y-51020300D01*
X53647600Y-51097700D01*
X53570300Y-51213500D01*
X53543200Y-51349500D01*
X49000000Y-51349500D01*
X49000000Y-50880800D01*
X54298000Y-50880800D01*
X54325000Y-51016800D01*
X54402400Y-51132600D01*
X54518200Y-51210000D01*
X54654700Y-51237200D01*
X54791300Y-51210000D01*
X54907000Y-51132600D01*
X54984400Y-51016800D01*
X55011600Y-50880300D01*
X54984400Y-50743700D01*
X54907000Y-50627900D01*
X54791300Y-50550600D01*
X54654700Y-50523400D01*
X54518200Y-50550600D01*
X54402400Y-50627900D01*
X54325000Y-50743700D01*
X54298000Y-50879800D01*
X49000000Y-50879800D01*
X49000000Y-49650500D01*
X49843200Y-49650500D01*
X49870300Y-49786600D01*
X49947700Y-49902300D01*
X50063400Y-49979700D01*
X50200000Y-50006900D01*
X50336500Y-49979700D01*
X50452300Y-49902300D01*
X50529700Y-49786600D01*
X50556800Y-49650500D01*
X50843200Y-49650500D01*
X50870300Y-49786600D01*
X50947700Y-49902300D01*
X51063400Y-49979700D01*
X51200000Y-50006900D01*
X51336500Y-49979700D01*
X51450000Y-49903900D01*
X51563400Y-49979700D01*
X51700000Y-50006900D01*
X51836500Y-49979700D01*
X51950000Y-49903900D01*
X52063400Y-49979700D01*
X52200000Y-50006900D01*
X52336500Y-49979700D01*
X52450000Y-49903900D01*
X52563400Y-49979700D01*
X52700000Y-50006900D01*
X52836500Y-49979700D01*
X52952300Y-49902300D01*
X53029700Y-49786600D01*
X53056900Y-49650000D01*
X53029700Y-49513400D01*
X52952300Y-49397700D01*
X52836500Y-49320300D01*
X52700000Y-49293200D01*
X52563400Y-49320300D01*
X52450000Y-49396100D01*
X52336500Y-49320300D01*
X52200000Y-49293200D01*
X52063400Y-49320300D01*
X51950000Y-49396100D01*
X51836500Y-49320300D01*
X51700000Y-49293200D01*
X51563400Y-49320300D01*
X51450000Y-49396100D01*
X51336500Y-49320300D01*
X51200000Y-49293200D01*
X51063400Y-49320300D01*
X50947700Y-49397700D01*
X50870300Y-49513400D01*
X50843200Y-49649500D01*
X50556800Y-49649500D01*
X50529700Y-49513400D01*
X50452300Y-49397700D01*
X50336500Y-49320300D01*
X50200000Y-49293200D01*
X50063400Y-49320300D01*
X49947700Y-49397700D01*
X49870300Y-49513400D01*
X49843200Y-49649500D01*
X49000000Y-49649500D01*
X49000000Y-49070600D01*
X49150000Y-48987000D01*
X49250000Y-49006900D01*
X49386500Y-48979700D01*
X49502300Y-48902300D01*
X49579700Y-48786600D01*
X49606800Y-48650000D01*
X49579700Y-48513400D01*
X49502300Y-48397700D01*
X49386500Y-48320300D01*
X49250000Y-48293200D01*
X49150000Y-48313000D01*
X49037860Y-48250500D01*
X53343200Y-48250500D01*
X53370300Y-48386600D01*
X53447700Y-48502300D01*
X53563400Y-48579700D01*
X53700000Y-48606900D01*
X53836500Y-48579700D01*
X53952300Y-48502300D01*
X54029700Y-48386600D01*
X54056900Y-48250000D01*
X54029700Y-48113400D01*
X53952300Y-47997700D01*
X53836500Y-47920300D01*
X53700000Y-47893200D01*
X53563400Y-47920300D01*
X53447700Y-47997700D01*
X53370300Y-48113400D01*
X53343200Y-48249500D01*
X49036060Y-48249500D01*
X49000000Y-48229400D01*
X49000000Y-47500900D01*
X49150000Y-47420700D01*
X49163400Y-47429700D01*
X49300000Y-47456900D01*
X49436600Y-47429700D01*
X49552300Y-47352400D01*
X49586990Y-47300500D01*
X53993200Y-47300500D01*
X54020300Y-47436600D01*
X54097700Y-47552400D01*
X54213400Y-47629700D01*
X54350000Y-47656900D01*
X54486500Y-47629700D01*
X54602300Y-47552400D01*
X54679700Y-47436600D01*
X54706800Y-47300000D01*
X54679700Y-47163500D01*
X54602300Y-47047700D01*
X54486500Y-46970300D01*
X54350000Y-46943200D01*
X54213400Y-46970300D01*
X54097700Y-47047700D01*
X54020300Y-47163500D01*
X53993200Y-47299500D01*
X49587660Y-47299500D01*
X49629700Y-47236600D01*
X49634600Y-47211600D01*
X49636800Y-47200800D01*
X49636900Y-47200100D01*
X49656900Y-47100000D01*
X49786600Y-47029700D01*
X49902300Y-46952300D01*
X49979700Y-46836600D01*
X50006700Y-46700500D01*
X50793200Y-46700500D01*
X50820300Y-46836600D01*
X50897600Y-46952300D01*
X51013400Y-47029700D01*
X51150000Y-47056900D01*
X51286600Y-47029700D01*
X51402300Y-46952300D01*
X51409800Y-46941200D01*
X51590200Y-46941200D01*
X51597700Y-46952300D01*
X51713400Y-47029700D01*
X51850000Y-47056900D01*
X51986500Y-47029700D01*
X52102300Y-46952300D01*
X52179700Y-46836600D01*
X52206700Y-46700500D01*
X52393200Y-46700500D01*
X52420300Y-46836600D01*
X52497700Y-46952300D01*
X52613400Y-47029700D01*
X52750000Y-47056900D01*
X52886500Y-47029700D01*
X53002300Y-46952300D01*
X53079700Y-46836600D01*
X53106800Y-46700000D01*
X53079700Y-46563400D01*
X53002300Y-46447700D01*
X52886500Y-46370300D01*
X52750000Y-46343200D01*
X52613400Y-46370300D01*
X52497700Y-46447700D01*
X52420300Y-46563400D01*
X52393200Y-46699500D01*
X52206700Y-46699500D01*
X52179700Y-46563400D01*
X52102300Y-46447700D01*
X51986500Y-46370300D01*
X51850000Y-46343200D01*
X51713400Y-46370300D01*
X51597700Y-46447700D01*
X51590200Y-46458800D01*
X51409800Y-46458800D01*
X51402300Y-46447700D01*
X51286600Y-46370300D01*
X51150000Y-46343200D01*
X51013400Y-46370300D01*
X50897600Y-46447700D01*
X50820300Y-46563400D01*
X50793200Y-46699500D01*
X50006700Y-46699500D01*
X49979700Y-46563400D01*
X49902300Y-46447700D01*
X49786600Y-46370300D01*
X49650000Y-46343200D01*
X49513400Y-46370300D01*
X49481600Y-46391600D01*
X49346600Y-46301400D01*
X49356800Y-46250000D01*
X49329700Y-46113400D01*
X49252300Y-45997700D01*
X49136500Y-45920300D01*
X49000000Y-45893200D01*
X49000000Y-45800800D01*
X54298000Y-45800800D01*
X54325000Y-45936800D01*
X54402400Y-46052600D01*
X54518200Y-46130000D01*
X54654700Y-46157200D01*
X54791300Y-46130000D01*
X54907000Y-46052600D01*
X54984400Y-45936800D01*
X55011600Y-45800300D01*
X54984400Y-45663700D01*
X54907000Y-45547900D01*
X54791300Y-45470600D01*
X54654700Y-45443400D01*
X54518200Y-45470600D01*
X54402400Y-45547900D01*
X54325000Y-45663700D01*
X54298000Y-45799800D01*
X49000000Y-45799800D01*
X49000000Y-45550900D01*
X49150000Y-45470700D01*
X49163400Y-45479700D01*
X49300000Y-45506900D01*
X49436600Y-45479700D01*
X49552300Y-45402300D01*
X49629700Y-45286600D01*
X49637500Y-45247400D01*
X49686700Y-45136700D01*
X49797400Y-45087500D01*
X49836600Y-45079700D01*
X49880280Y-45050500D01*
X50019720Y-45050500D01*
X50063400Y-45079700D01*
X50200000Y-45106900D01*
X50336500Y-45079700D01*
X50380220Y-45050500D01*
X50519720Y-45050500D01*
X50563400Y-45079700D01*
X50700000Y-45106900D01*
X50836500Y-45079700D01*
X50880220Y-45050500D01*
X51019720Y-45050500D01*
X51063400Y-45079700D01*
X51200000Y-45106900D01*
X51336500Y-45079700D01*
X51380220Y-45050500D01*
X51519720Y-45050500D01*
X51563400Y-45079700D01*
X51700000Y-45106900D01*
X51836500Y-45079700D01*
X51880220Y-45050500D01*
X52019720Y-45050500D01*
X52063400Y-45079700D01*
X52200000Y-45106900D01*
X52336600Y-45079700D01*
X52380280Y-45050500D01*
X52519720Y-45050500D01*
X52563400Y-45079700D01*
X52700000Y-45106900D01*
X52836500Y-45079700D01*
X52880190Y-45050500D01*
X53593300Y-45050500D01*
X53620400Y-45186500D01*
X53697700Y-45302300D01*
X53813500Y-45379700D01*
X53950000Y-45406800D01*
X54086600Y-45379700D01*
X54202400Y-45302300D01*
X54279700Y-45186500D01*
X54306900Y-45050000D01*
X54279700Y-44913400D01*
X54202400Y-44797600D01*
X54086600Y-44720300D01*
X53950000Y-44693100D01*
X53813500Y-44720300D01*
X53697700Y-44797600D01*
X53620400Y-44913400D01*
X53593300Y-45049500D01*
X52881680Y-45049500D01*
X52952300Y-45002300D01*
X53029700Y-44886600D01*
X53056900Y-44750000D01*
X53029700Y-44613400D01*
X52974440Y-44530800D01*
X54298000Y-44530800D01*
X54325000Y-44666900D01*
X54402400Y-44782600D01*
X54518200Y-44860000D01*
X54654700Y-44887100D01*
X54791300Y-44860000D01*
X54907000Y-44782600D01*
X54984400Y-44666900D01*
X55011600Y-44530300D01*
X54984400Y-44393700D01*
X54907000Y-44278000D01*
X54791300Y-44200600D01*
X54654700Y-44173400D01*
X54518200Y-44200600D01*
X54402400Y-44278000D01*
X54325000Y-44393700D01*
X54298000Y-44529800D01*
X52973770Y-44529800D01*
X52952300Y-44497700D01*
X52836500Y-44420300D01*
X52700000Y-44393100D01*
X52563400Y-44420300D01*
X52450000Y-44496100D01*
X52336600Y-44420300D01*
X52200000Y-44393100D01*
X52063400Y-44420300D01*
X51950000Y-44496100D01*
X51836500Y-44420300D01*
X51700000Y-44393200D01*
X51563400Y-44420300D01*
X51450000Y-44496100D01*
X51336500Y-44420300D01*
X51200000Y-44393200D01*
X51063400Y-44420300D01*
X50950000Y-44496100D01*
X50836500Y-44420300D01*
X50700000Y-44393100D01*
X50563400Y-44420300D01*
X50450000Y-44496100D01*
X50336500Y-44420300D01*
X50200000Y-44393100D01*
X50063400Y-44420300D01*
X49950000Y-44496100D01*
X49836600Y-44420300D01*
X49700000Y-44393200D01*
X49563400Y-44420300D01*
X49447700Y-44497700D01*
X49426230Y-44529800D01*
X49000000Y-44529800D01*
X49000000Y-43260800D01*
X54298000Y-43260800D01*
X54325000Y-43396900D01*
X54402400Y-43512600D01*
X54518200Y-43590000D01*
X54654700Y-43617200D01*
X54791300Y-43590000D01*
X54907000Y-43512600D01*
X54984400Y-43396900D01*
X55011600Y-43260300D01*
X54984400Y-43123700D01*
X54907000Y-43008000D01*
X54791300Y-42930600D01*
X54654700Y-42903400D01*
X54518200Y-42930600D01*
X54402400Y-43008000D01*
X54325000Y-43123700D01*
X54298000Y-43259800D01*
X49000000Y-43259800D01*
X49000000Y-42600000D01*
X49049500Y-42550500D01*
X53543300Y-42550500D01*
X53570300Y-42686600D01*
X53647700Y-42802300D01*
X53763400Y-42879700D01*
X53900000Y-42906900D01*
X54036600Y-42879700D01*
X54152300Y-42802300D01*
X54229700Y-42686600D01*
X54256900Y-42550000D01*
X54229700Y-42413500D01*
X54152300Y-42297700D01*
X54036600Y-42220300D01*
X53900000Y-42193100D01*
X53763400Y-42220300D01*
X53647700Y-42297700D01*
X53570300Y-42413500D01*
X53543300Y-42549500D01*
X49050500Y-42549500D01*
X49609200Y-41990800D01*
X54298000Y-41990800D01*
X54325000Y-42126900D01*
X54402400Y-42242600D01*
X54518200Y-42320000D01*
X54654700Y-42347100D01*
X54791300Y-42320000D01*
X54907000Y-42242600D01*
X54984400Y-42126900D01*
X55011600Y-41990300D01*
X54984400Y-41853700D01*
X54907000Y-41737900D01*
X54791300Y-41660600D01*
X54654700Y-41633400D01*
X54518200Y-41660600D01*
X54402400Y-41737900D01*
X54325000Y-41853700D01*
X54298000Y-41989800D01*
X49610200Y-41989800D01*
X50350000Y-41250000D01*
X50700100Y-40899900D01*
X50862900Y-40949200D01*
X50870300Y-40986600D01*
X50947700Y-41102400D01*
X51063400Y-41179700D01*
X51200000Y-41206900D01*
X51336500Y-41179700D01*
X51450000Y-41103900D01*
X51563400Y-41179700D01*
X51700000Y-41206900D01*
X51836500Y-41179700D01*
X51950000Y-41103900D01*
X52063400Y-41179700D01*
X52200000Y-41206900D01*
X52336600Y-41179700D01*
X52450000Y-41103900D01*
X52563400Y-41179700D01*
X52700000Y-41206900D01*
X52836500Y-41179700D01*
X52952300Y-41102400D01*
X53029700Y-40986600D01*
X53056900Y-40850000D01*
X53031170Y-40720800D01*
X54298000Y-40720800D01*
X54325000Y-40856900D01*
X54402400Y-40972600D01*
X54518200Y-41050000D01*
X54654700Y-41077100D01*
X54791300Y-41050000D01*
X54907000Y-40972600D01*
X54984400Y-40856900D01*
X55011600Y-40720300D01*
X54984400Y-40583700D01*
X54907000Y-40468000D01*
X54791300Y-40390600D01*
X54654700Y-40363400D01*
X54518200Y-40390600D01*
X54402400Y-40468000D01*
X54325000Y-40583700D01*
X54298000Y-40719800D01*
X53030970Y-40719800D01*
X53029700Y-40713400D01*
X52952300Y-40597700D01*
X52836500Y-40520300D01*
X52700000Y-40493200D01*
X52563400Y-40520300D01*
X52450000Y-40596100D01*
X52336600Y-40520300D01*
X52200000Y-40493200D01*
X52063400Y-40520300D01*
X51950000Y-40596100D01*
X51836500Y-40520300D01*
X51700000Y-40493200D01*
X51563400Y-40520300D01*
X51450000Y-40596100D01*
X51336500Y-40520300D01*
X51299200Y-40512900D01*
X51249900Y-40350100D01*
X52149200Y-39450800D01*
X54298000Y-39450800D01*
X54325000Y-39586900D01*
X54402400Y-39702600D01*
X54518200Y-39780000D01*
X54654700Y-39807200D01*
X54791300Y-39780000D01*
X54907000Y-39702600D01*
X54984400Y-39586900D01*
X55011600Y-39450300D01*
X54984400Y-39313700D01*
X54907000Y-39198000D01*
X54791300Y-39120600D01*
X54654700Y-39093400D01*
X54518200Y-39120600D01*
X54402400Y-39198000D01*
X54325000Y-39313700D01*
X54298000Y-39449800D01*
X52150200Y-39449800D01*
X52549500Y-39050500D01*
X53393200Y-39050500D01*
X53420300Y-39186600D01*
X53497700Y-39302300D01*
X53613400Y-39379700D01*
X53750000Y-39406900D01*
X53886500Y-39379700D01*
X54002300Y-39302300D01*
X54079700Y-39186600D01*
X54106800Y-39050000D01*
X54079700Y-38913500D01*
X54002300Y-38797700D01*
X53886500Y-38720300D01*
X53750000Y-38693100D01*
X53613400Y-38720300D01*
X53497700Y-38797700D01*
X53420300Y-38913500D01*
X53393200Y-39049500D01*
X52550500Y-39049500D01*
X53419200Y-38180800D01*
X54298000Y-38180800D01*
X54325000Y-38316900D01*
X54402400Y-38432600D01*
X54518200Y-38510000D01*
X54654700Y-38537100D01*
X54791300Y-38510000D01*
X54907000Y-38432600D01*
X54984400Y-38316900D01*
X55011600Y-38180300D01*
X54984400Y-38043700D01*
X54907000Y-37927900D01*
X54791300Y-37850600D01*
X54654700Y-37823400D01*
X54518200Y-37850600D01*
X54402400Y-37927900D01*
X54325000Y-38043700D01*
X54298000Y-38179800D01*
X53420200Y-38179800D01*
X53650000Y-37950000D01*
X53650000Y-36910800D01*
X54298000Y-36910800D01*
X54325000Y-37046800D01*
X54402400Y-37162600D01*
X54518200Y-37240000D01*
X54654700Y-37267200D01*
X54791300Y-37240000D01*
X54907000Y-37162600D01*
X54984400Y-37046800D01*
X55011600Y-36910300D01*
X54984400Y-36773700D01*
X54907000Y-36658000D01*
X54791300Y-36580600D01*
X54654700Y-36553400D01*
X54518200Y-36580600D01*
X54402400Y-36658000D01*
X54325000Y-36773700D01*
X54298000Y-36909800D01*
X53650000Y-36909800D01*
X53650000Y-35640800D01*
X54298000Y-35640800D01*
X54325000Y-35776900D01*
X54402400Y-35892600D01*
X54518200Y-35970000D01*
X54654700Y-35997200D01*
X54791300Y-35970000D01*
X54907000Y-35892600D01*
X54984400Y-35776900D01*
X55011600Y-35640300D01*
X54984400Y-35503700D01*
X54907000Y-35388000D01*
X54791300Y-35310600D01*
X54654700Y-35283400D01*
X54518200Y-35310600D01*
X54402400Y-35388000D01*
X54325000Y-35503700D01*
X54298000Y-35639800D01*
X53650000Y-35639800D01*
X53650000Y-34370800D01*
X54298000Y-34370800D01*
X54325000Y-34506900D01*
X54402400Y-34622600D01*
X54518200Y-34700000D01*
X54654700Y-34727100D01*
X54791300Y-34700000D01*
X54907000Y-34622600D01*
X54984400Y-34506900D01*
X55011600Y-34370300D01*
X54984400Y-34233700D01*
X54907000Y-34118000D01*
X54791300Y-34040600D01*
X54654700Y-34013400D01*
X54518200Y-34040600D01*
X54402400Y-34118000D01*
X54325000Y-34233700D01*
X54298000Y-34369800D01*
X53650000Y-34369800D01*
X53650000Y-33100800D01*
X54298000Y-33100800D01*
X54325000Y-33236800D01*
X54402400Y-33352600D01*
X54518200Y-33430000D01*
X54654700Y-33457200D01*
X54791300Y-33430000D01*
X54907000Y-33352600D01*
X54984400Y-33236800D01*
X55011600Y-33100300D01*
X54984400Y-32963700D01*
X54907000Y-32848000D01*
X54791300Y-32770600D01*
X54654700Y-32743400D01*
X54518200Y-32770600D01*
X54402400Y-32848000D01*
X54325000Y-32963700D01*
X54298000Y-33099800D01*
X53650000Y-33099800D01*
X53650000Y-33000000D01*
X52480800Y-31830800D01*
X54298000Y-31830800D01*
X54325000Y-31966900D01*
X54402400Y-32082600D01*
X54518200Y-32160000D01*
X54654700Y-32187200D01*
X54791300Y-32160000D01*
X54907000Y-32082600D01*
X54984400Y-31966900D01*
X55011600Y-31830300D01*
X54984400Y-31693700D01*
X54907000Y-31577900D01*
X54791300Y-31500600D01*
X54654700Y-31473400D01*
X54518200Y-31500600D01*
X54402400Y-31577900D01*
X54325000Y-31693700D01*
X54298000Y-31829800D01*
X52479800Y-31829800D01*
X51210800Y-30560800D01*
X54298000Y-30560800D01*
X54325000Y-30696900D01*
X54402400Y-30812600D01*
X54518200Y-30890000D01*
X54654700Y-30917100D01*
X54791300Y-30890000D01*
X54907000Y-30812600D01*
X54984400Y-30696900D01*
X55011600Y-30560300D01*
X54984400Y-30423700D01*
X54907000Y-30308000D01*
X54791300Y-30230600D01*
X54654700Y-30203400D01*
X54518200Y-30230600D01*
X54402400Y-30308000D01*
X54325000Y-30423700D01*
X54298000Y-30559800D01*
X51209800Y-30559800D01*
X50700000Y-30050000D01*
X49187000Y-30050000D01*
X49179700Y-30013500D01*
X49102300Y-29897700D01*
X49102300Y-29848600D01*
X49148000Y-29818100D01*
X49225400Y-29702300D01*
X49252000Y-29568500D01*
X49385800Y-29541900D01*
X49501600Y-29464600D01*
X49578900Y-29348800D01*
X49590430Y-29290800D01*
X54298000Y-29290800D01*
X54325000Y-29426800D01*
X54402400Y-29542600D01*
X54518200Y-29620000D01*
X54654700Y-29647200D01*
X54791300Y-29620000D01*
X54907000Y-29542600D01*
X54984400Y-29426800D01*
X55011600Y-29290300D01*
X54984400Y-29153700D01*
X54907000Y-29038000D01*
X54791300Y-28960600D01*
X54654700Y-28933400D01*
X54518200Y-28960600D01*
X54402400Y-29038000D01*
X54325000Y-29153700D01*
X54298000Y-29289800D01*
X49590630Y-29289800D01*
X49605500Y-29215000D01*
X49739300Y-29188400D01*
X49855100Y-29111000D01*
X49932500Y-28995200D01*
X49959100Y-28861400D01*
X50092900Y-28834800D01*
X50208600Y-28757400D01*
X50286000Y-28641700D01*
X50288000Y-28631800D01*
X50356500Y-28606000D01*
X50513600Y-28703000D01*
X50520300Y-28736600D01*
X50597700Y-28852400D01*
X50713400Y-28929700D01*
X50850000Y-28956900D01*
X50986500Y-28929700D01*
X51102300Y-28852400D01*
X51179700Y-28736600D01*
X51206800Y-28600000D01*
X51179700Y-28463400D01*
X51102300Y-28347700D01*
X50986500Y-28270300D01*
X50886400Y-28250400D01*
X50843100Y-28130700D01*
X50841200Y-28100100D01*
X50915800Y-28050400D01*
X50993100Y-27934600D01*
X51019700Y-27800800D01*
X51153600Y-27774100D01*
X51269300Y-27696800D01*
X51287880Y-27669000D01*
X53165700Y-27669000D01*
X53192800Y-27805100D01*
X53270100Y-27920800D01*
X53385900Y-27998200D01*
X53522500Y-28025400D01*
X53659000Y-27998200D01*
X53774800Y-27920800D01*
X53852200Y-27805100D01*
X53879300Y-27668500D01*
X53852200Y-27532000D01*
X53774800Y-27416200D01*
X53659000Y-27338800D01*
X53522500Y-27311600D01*
X53385900Y-27338800D01*
X53270100Y-27416200D01*
X53192800Y-27532000D01*
X53165700Y-27668000D01*
X51288550Y-27668000D01*
X51346700Y-27581000D01*
X51373800Y-27444500D01*
X51346700Y-27307900D01*
X51269300Y-27192100D01*
X51153600Y-27114700D01*
X51017000Y-27087600D01*
X50880400Y-27114700D01*
X50764600Y-27192100D01*
X50687300Y-27307900D01*
X50660700Y-27441700D01*
X50526900Y-27468300D01*
X50411100Y-27545700D01*
X50333700Y-27661400D01*
X50332390Y-27668000D01*
X46067960Y-27668000D01*
X45173050Y-26773100D01*
X46338310Y-26773100D01*
X46354900Y-26784200D01*
X46491500Y-26811400D01*
X46628100Y-26784200D01*
X46644690Y-26773100D01*
X51756300Y-26773100D01*
X51783300Y-26909200D01*
X51860700Y-27025000D01*
X51976400Y-27102400D01*
X52113000Y-27129500D01*
X52249600Y-27102400D01*
X52365300Y-27025000D01*
X52442700Y-26909200D01*
X52469800Y-26772600D01*
X52469480Y-26771000D01*
X52767700Y-26771000D01*
X52794800Y-26907000D01*
X52872100Y-27022800D01*
X52987900Y-27100200D01*
X53124500Y-27127300D01*
X53261000Y-27100200D01*
X53376800Y-27022800D01*
X53454100Y-26907000D01*
X53481300Y-26770500D01*
X53454100Y-26633900D01*
X53376800Y-26518200D01*
X53261000Y-26440800D01*
X53124500Y-26413600D01*
X52987900Y-26440800D01*
X52872100Y-26518200D01*
X52794800Y-26633900D01*
X52767700Y-26770000D01*
X52469280Y-26770000D01*
X52442700Y-26636100D01*
X52365300Y-26520300D01*
X52249600Y-26443000D01*
X52113000Y-26415800D01*
X51976400Y-26443000D01*
X51860700Y-26520300D01*
X51783300Y-26636100D01*
X51756720Y-26770000D01*
X46649330Y-26770000D01*
X46743800Y-26706800D01*
X46821200Y-26591100D01*
X46848400Y-26454500D01*
X46821200Y-26318000D01*
X46743800Y-26202200D01*
X46628100Y-26124800D01*
X46491500Y-26097700D01*
X46354900Y-26124800D01*
X46239200Y-26202200D01*
X46161800Y-26318000D01*
X46134700Y-26454000D01*
X44853950Y-26454000D01*
X44272940Y-25873000D01*
X44708590Y-25873000D01*
X44739100Y-25918600D01*
X44854900Y-25996000D01*
X44991400Y-26023200D01*
X45128000Y-25996000D01*
X45243800Y-25918600D01*
X45274270Y-25873000D01*
X46866710Y-25873000D01*
X46868900Y-25884000D01*
X46946300Y-25999700D01*
X47062000Y-26077100D01*
X47198600Y-26104200D01*
X47335200Y-26077100D01*
X47450900Y-25999700D01*
X47528300Y-25884000D01*
X47530490Y-25873000D01*
X51869700Y-25873000D01*
X51896700Y-26009000D01*
X51974100Y-26124800D01*
X52089900Y-26202100D01*
X52226400Y-26229300D01*
X52363000Y-26202100D01*
X52478800Y-26124800D01*
X52556100Y-26009000D01*
X52583300Y-25872500D01*
X52556100Y-25735900D01*
X52478800Y-25620100D01*
X52363000Y-25542800D01*
X52226400Y-25515600D01*
X52089900Y-25542800D01*
X51974100Y-25620100D01*
X51896700Y-25735900D01*
X51869700Y-25872000D01*
X47530690Y-25872000D01*
X47554900Y-25750200D01*
X47688700Y-25723500D01*
X47804500Y-25646200D01*
X47881800Y-25530400D01*
X47908500Y-25396600D01*
X48042300Y-25370000D01*
X48158100Y-25292600D01*
X48235400Y-25176800D01*
X48262000Y-25043100D01*
X48273530Y-25040800D01*
X49953100Y-25040800D01*
X49980200Y-25176800D01*
X50057600Y-25292600D01*
X50173300Y-25370000D01*
X50309900Y-25397200D01*
X50446400Y-25370000D01*
X50562200Y-25292600D01*
X50639600Y-25176800D01*
X50666700Y-25040300D01*
X50653730Y-24974900D01*
X50971600Y-24974900D01*
X50998700Y-25111000D01*
X51076000Y-25226800D01*
X51191800Y-25304100D01*
X51328400Y-25331300D01*
X51465000Y-25304100D01*
X51580700Y-25226800D01*
X51658100Y-25111000D01*
X51685300Y-24974400D01*
X51658100Y-24837900D01*
X51580700Y-24722100D01*
X51465000Y-24644700D01*
X51328400Y-24617600D01*
X51191800Y-24644700D01*
X51076000Y-24722100D01*
X50998700Y-24837900D01*
X50971600Y-24973900D01*
X50653530Y-24973900D01*
X50639600Y-24903700D01*
X50562200Y-24788000D01*
X50446400Y-24710600D01*
X50309900Y-24683400D01*
X50173300Y-24710600D01*
X50057600Y-24788000D01*
X49980200Y-24903700D01*
X49966220Y-24973900D01*
X48459470Y-24973900D01*
X48511600Y-24939100D01*
X48589000Y-24823300D01*
X48616100Y-24686700D01*
X48589000Y-24550200D01*
X48511600Y-24434400D01*
X48395800Y-24357100D01*
X48259300Y-24329900D01*
X48122700Y-24357100D01*
X48006900Y-24434400D01*
X47929600Y-24550200D01*
X47903000Y-24684000D01*
X47769200Y-24710600D01*
X47653400Y-24788000D01*
X47576000Y-24903700D01*
X47562040Y-24973900D01*
X46052420Y-24973900D01*
X46054800Y-24961900D01*
X46188600Y-24935300D01*
X46304400Y-24858000D01*
X46381800Y-24742200D01*
X46408400Y-24608400D01*
X46542200Y-24581800D01*
X46658000Y-24504400D01*
X46735300Y-24388600D01*
X46761900Y-24254900D01*
X46895800Y-24228200D01*
X47011500Y-24150800D01*
X47060940Y-24076900D01*
X50073600Y-24076900D01*
X50100700Y-24213000D01*
X50178000Y-24328700D01*
X50293800Y-24406100D01*
X50430400Y-24433300D01*
X50566900Y-24406100D01*
X50682700Y-24328700D01*
X50760100Y-24213000D01*
X50787200Y-24076400D01*
X50760100Y-23939800D01*
X50682700Y-23824100D01*
X50566900Y-23746700D01*
X50430400Y-23719500D01*
X50293800Y-23746700D01*
X50178000Y-23824100D01*
X50100700Y-23939800D01*
X50073600Y-24075900D01*
X47061610Y-24075900D01*
X47088900Y-24035100D01*
X47115500Y-23901300D01*
X47249300Y-23874700D01*
X47365100Y-23797300D01*
X47442400Y-23681500D01*
X47469600Y-23545000D01*
X47442400Y-23408400D01*
X47365100Y-23292600D01*
X47249300Y-23215300D01*
X47112700Y-23188100D01*
X46976200Y-23215300D01*
X46860400Y-23292600D01*
X46783100Y-23408400D01*
X46756400Y-23542200D01*
X46622600Y-23568800D01*
X46506800Y-23646200D01*
X46429500Y-23762000D01*
X46402900Y-23895800D01*
X46269100Y-23922400D01*
X46153300Y-23999800D01*
X46102390Y-24075900D01*
X42475810Y-24075900D01*
X41947400Y-23547500D01*
X41956800Y-23500000D01*
X41929700Y-23363500D01*
X41852300Y-23247700D01*
X41749370Y-23178900D01*
X48036290Y-23178900D01*
X48072200Y-23202900D01*
X48208800Y-23230000D01*
X48345300Y-23202900D01*
X48381210Y-23178900D01*
X49175600Y-23178900D01*
X49202700Y-23314900D01*
X49280000Y-23430700D01*
X49395800Y-23508100D01*
X49532300Y-23535200D01*
X49668900Y-23508100D01*
X49784700Y-23430700D01*
X49862000Y-23314900D01*
X49889200Y-23178400D01*
X49862000Y-23041800D01*
X49784700Y-22926100D01*
X49668900Y-22848700D01*
X49532300Y-22821500D01*
X49395800Y-22848700D01*
X49280000Y-22926100D01*
X49202700Y-23041800D01*
X49175600Y-23177900D01*
X48382700Y-23177900D01*
X48461100Y-23125500D01*
X48538500Y-23009700D01*
X48565600Y-22873200D01*
X48545600Y-22772500D01*
X48615400Y-22666000D01*
X48650300Y-22634000D01*
X48770900Y-22610000D01*
X48886700Y-22532700D01*
X48964000Y-22416900D01*
X48991200Y-22280400D01*
X48964000Y-22143800D01*
X48886700Y-22028000D01*
X48770900Y-21950700D01*
X48634300Y-21923500D01*
X48497800Y-21950700D01*
X48382000Y-22028000D01*
X48304600Y-22143800D01*
X48277500Y-22280400D01*
X48297500Y-22381000D01*
X48227700Y-22487500D01*
X48192700Y-22519500D01*
X48072200Y-22543500D01*
X47956400Y-22620800D01*
X47879100Y-22736600D01*
X47852000Y-22872700D01*
X42741780Y-22872700D01*
X42839600Y-22807400D01*
X42916900Y-22691600D01*
X42944100Y-22555000D01*
X42916900Y-22418500D01*
X42839600Y-22302700D01*
X42723800Y-22225300D01*
X42587200Y-22198200D01*
X42450700Y-22225300D01*
X42334900Y-22302700D01*
X42257600Y-22418500D01*
X42230500Y-22554500D01*
X40954500Y-22554500D01*
X40248400Y-21848400D01*
X40772710Y-21848400D01*
X40787800Y-21924200D01*
X40865200Y-22039900D01*
X40980900Y-22117300D01*
X41117500Y-22144500D01*
X41254100Y-22117300D01*
X41369800Y-22039900D01*
X41447200Y-21924200D01*
X41462270Y-21848400D01*
X42937600Y-21848400D01*
X42964700Y-21984500D01*
X43042000Y-22100300D01*
X43157800Y-22177600D01*
X43294400Y-22204800D01*
X43430900Y-22177600D01*
X43546700Y-22100300D01*
X43624100Y-21984500D01*
X43650700Y-21850700D01*
X43784500Y-21824100D01*
X43900200Y-21746700D01*
X43977600Y-21630900D01*
X44004200Y-21497100D01*
X44138000Y-21470500D01*
X44253800Y-21393200D01*
X44331100Y-21277400D01*
X44357800Y-21143600D01*
X44369330Y-21141300D01*
X46048900Y-21141300D01*
X46075900Y-21277400D01*
X46153300Y-21393200D01*
X46269100Y-21470500D01*
X46405600Y-21497700D01*
X46542200Y-21470500D01*
X46658000Y-21393200D01*
X46735300Y-21277400D01*
X46762500Y-21140800D01*
X46744520Y-21050500D01*
X46993200Y-21050500D01*
X47020300Y-21186600D01*
X47097700Y-21302300D01*
X47213400Y-21379700D01*
X47350000Y-21406900D01*
X47393100Y-21450000D01*
X47420300Y-21586600D01*
X47497700Y-21702400D01*
X47613400Y-21779700D01*
X47750000Y-21806900D01*
X47886500Y-21779700D01*
X48002300Y-21702400D01*
X48079700Y-21586600D01*
X48106800Y-21450000D01*
X48079700Y-21313400D01*
X48002300Y-21197700D01*
X47886500Y-21120300D01*
X47750000Y-21093200D01*
X47706800Y-21050000D01*
X47679700Y-20913500D01*
X47602300Y-20797700D01*
X47486500Y-20720300D01*
X47350000Y-20693100D01*
X47213400Y-20720300D01*
X47097700Y-20797700D01*
X47020300Y-20913500D01*
X46993200Y-21049500D01*
X46744320Y-21049500D01*
X46735300Y-21004200D01*
X46658000Y-20888500D01*
X46542200Y-20811100D01*
X46405600Y-20783900D01*
X46269100Y-20811100D01*
X46153300Y-20888500D01*
X46075900Y-21004200D01*
X46066910Y-21049500D01*
X44592570Y-21049500D01*
X44607400Y-21039600D01*
X44684700Y-20923800D01*
X44711900Y-20787300D01*
X44684700Y-20650700D01*
X44607400Y-20534900D01*
X44491600Y-20457600D01*
X44355000Y-20430400D01*
X44218400Y-20457600D01*
X44102700Y-20534900D01*
X44025300Y-20650700D01*
X43998700Y-20784500D01*
X43864900Y-20811100D01*
X43749100Y-20888500D01*
X43671800Y-21004200D01*
X43662800Y-21049500D01*
X42325340Y-21049500D01*
X42430500Y-20979300D01*
X42507800Y-20863500D01*
X42534500Y-20729700D01*
X42668300Y-20703100D01*
X42784000Y-20625700D01*
X42861400Y-20509900D01*
X42888000Y-20376200D01*
X43021800Y-20349500D01*
X43137600Y-20272200D01*
X43214900Y-20156400D01*
X43218420Y-20138700D01*
X46135400Y-20138700D01*
X46162500Y-20274800D01*
X46239800Y-20390600D01*
X46355600Y-20467900D01*
X46492200Y-20495100D01*
X46628800Y-20467900D01*
X46744500Y-20390600D01*
X46821900Y-20274800D01*
X46849000Y-20138200D01*
X46821900Y-20001600D01*
X46744500Y-19885900D01*
X46628800Y-19808500D01*
X46492200Y-19781400D01*
X46355600Y-19808500D01*
X46239800Y-19885900D01*
X46162500Y-20001600D01*
X46135400Y-20137700D01*
X43218620Y-20137700D01*
X43241500Y-20022600D01*
X43375400Y-19996000D01*
X43491100Y-19918600D01*
X43568500Y-19802900D01*
X43595700Y-19666300D01*
X43568500Y-19529700D01*
X43491100Y-19413900D01*
X43375400Y-19336600D01*
X43238800Y-19309400D01*
X43102300Y-19336600D01*
X42986500Y-19413900D01*
X42909100Y-19529700D01*
X42882500Y-19663500D01*
X42748700Y-19690200D01*
X42632900Y-19767500D01*
X42555600Y-19883300D01*
X42529000Y-20017100D01*
X42395100Y-20043700D01*
X42279400Y-20121100D01*
X42268300Y-20137700D01*
X38537610Y-20137700D01*
X38055900Y-19655900D01*
X38055900Y-19240700D01*
X44078420Y-19240700D01*
X44082500Y-19246800D01*
X44198300Y-19324200D01*
X44334800Y-19351300D01*
X44471400Y-19324200D01*
X44587200Y-19246800D01*
X44591270Y-19240700D01*
X45237400Y-19240700D01*
X45264500Y-19376700D01*
X45341800Y-19492500D01*
X45457600Y-19569900D01*
X45594100Y-19597000D01*
X45730700Y-19569900D01*
X45846500Y-19492500D01*
X45923900Y-19376700D01*
X45951000Y-19240200D01*
X45923900Y-19103600D01*
X45846500Y-18987900D01*
X45730700Y-18910500D01*
X45594100Y-18883300D01*
X45457600Y-18910500D01*
X45341800Y-18987900D01*
X45264500Y-19103600D01*
X45237400Y-19239700D01*
X44591940Y-19239700D01*
X44664500Y-19131000D01*
X44691700Y-18994500D01*
X44664500Y-18857900D01*
X44655100Y-18843800D01*
X44669300Y-18793600D01*
X44733800Y-18691500D01*
X44832700Y-18671900D01*
X44948500Y-18594500D01*
X45025800Y-18478700D01*
X45053000Y-18342200D01*
X45025800Y-18205600D01*
X44948500Y-18089800D01*
X44832700Y-18012500D01*
X44696100Y-17985300D01*
X44559600Y-18012500D01*
X44443800Y-18089800D01*
X44366500Y-18205600D01*
X44339300Y-18342200D01*
X44366500Y-18478700D01*
X44375900Y-18492900D01*
X44361700Y-18543000D01*
X44297200Y-18645100D01*
X44198300Y-18664800D01*
X44082500Y-18742200D01*
X44005100Y-18857900D01*
X43978100Y-18994000D01*
X38867880Y-18994000D01*
X38965700Y-18928700D01*
X39043000Y-18812900D01*
X39070200Y-18676300D01*
X39043000Y-18539800D01*
X38965700Y-18424000D01*
X38849900Y-18346600D01*
X38713300Y-18319500D01*
X38576800Y-18346600D01*
X38461000Y-18424000D01*
X38383600Y-18539800D01*
X38356600Y-18675800D01*
X38055900Y-18675800D01*
X38055900Y-17969700D01*
X39063700Y-17969700D01*
X39090700Y-18105800D01*
X39168100Y-18221600D01*
X39283900Y-18298900D01*
X39420400Y-18326100D01*
X39557000Y-18298900D01*
X39672800Y-18221600D01*
X39750100Y-18105800D01*
X39776700Y-17972000D01*
X39910600Y-17945400D01*
X40026300Y-17868000D01*
X40103700Y-17752200D01*
X40130300Y-17618400D01*
X40264100Y-17591800D01*
X40379900Y-17514500D01*
X40426490Y-17444700D01*
X42232750Y-17444700D01*
X42279400Y-17514500D01*
X42395100Y-17591800D01*
X42531700Y-17619000D01*
X42668300Y-17591800D01*
X42784000Y-17514500D01*
X42830650Y-17444700D01*
X43441400Y-17444700D01*
X43468400Y-17580700D01*
X43545800Y-17696500D01*
X43661500Y-17773800D01*
X43798100Y-17801000D01*
X43934700Y-17773800D01*
X44050400Y-17696500D01*
X44127800Y-17580700D01*
X44155000Y-17444200D01*
X44127800Y-17307600D01*
X44050400Y-17191800D01*
X43934700Y-17114400D01*
X43798100Y-17087300D01*
X43661500Y-17114400D01*
X43545800Y-17191800D01*
X43468400Y-17307600D01*
X43441400Y-17443700D01*
X42831320Y-17443700D01*
X42861400Y-17398700D01*
X42888600Y-17262100D01*
X42861400Y-17125500D01*
X42801800Y-17036300D01*
X42845000Y-16936000D01*
X42876200Y-16898200D01*
X42900100Y-16903000D01*
X43036700Y-16875800D01*
X43152400Y-16798500D01*
X43229800Y-16682700D01*
X43256900Y-16546100D01*
X43229800Y-16409500D01*
X43152400Y-16293800D01*
X43036700Y-16216400D01*
X42900100Y-16189300D01*
X42763500Y-16216400D01*
X42647700Y-16293800D01*
X42570400Y-16409500D01*
X42543200Y-16546100D01*
X42570400Y-16682700D01*
X42630000Y-16771900D01*
X42586800Y-16872300D01*
X42555600Y-16910000D01*
X42531700Y-16905300D01*
X42395100Y-16932400D01*
X42279400Y-17009800D01*
X42202000Y-17125500D01*
X42174900Y-17261600D01*
X40500490Y-17261600D01*
X40617600Y-17238300D01*
X40733400Y-17160900D01*
X40810800Y-17045100D01*
X40838000Y-16908600D01*
X40810800Y-16772000D01*
X40733400Y-16656200D01*
X40617600Y-16578900D01*
X40481100Y-16551700D01*
X40344500Y-16578900D01*
X40228800Y-16656200D01*
X40151400Y-16772000D01*
X40124800Y-16905800D01*
X39991000Y-16932400D01*
X39875200Y-17009800D01*
X39797900Y-17125500D01*
X39771200Y-17259400D01*
X39760130Y-17261600D01*
X38588390Y-17261600D01*
X38602300Y-17252300D01*
X38679700Y-17136600D01*
X38706800Y-17000000D01*
X38679700Y-16863500D01*
X38602300Y-16747700D01*
X38486500Y-16670300D01*
X38350000Y-16643200D01*
X38213400Y-16670300D01*
X38205900Y-16675400D01*
X38055900Y-16595200D01*
X38055900Y-15704800D01*
X38161140Y-15648600D01*
X38308320Y-15648600D01*
X38350000Y-15656900D01*
X38391650Y-15648600D01*
X41645300Y-15648600D01*
X41672400Y-15784600D01*
X41749700Y-15900400D01*
X41865500Y-15977800D01*
X42002000Y-16004900D01*
X42138600Y-15977800D01*
X42254400Y-15900400D01*
X42331700Y-15784600D01*
X42358900Y-15648100D01*
X42331700Y-15511500D01*
X42254400Y-15395800D01*
X42138600Y-15318400D01*
X42002000Y-15291200D01*
X41865500Y-15318400D01*
X41749700Y-15395800D01*
X41672400Y-15511500D01*
X41645300Y-15647600D01*
X38396670Y-15647600D01*
X38486500Y-15629700D01*
X38602300Y-15552300D01*
X38679700Y-15436600D01*
X38706800Y-15300000D01*
X38679700Y-15163500D01*
X38602300Y-15047700D01*
X38486500Y-14970300D01*
X38350000Y-14943100D01*
X38213400Y-14970300D01*
X38205900Y-14975400D01*
X38055900Y-14895200D01*
X38055900Y-14750600D01*
X40747300Y-14750600D01*
X40774300Y-14886600D01*
X40851700Y-15002400D01*
X40967500Y-15079800D01*
X41104000Y-15106900D01*
X41240600Y-15079800D01*
X41356400Y-15002400D01*
X41433700Y-14886600D01*
X41460900Y-14750100D01*
X41433700Y-14613500D01*
X41356400Y-14497700D01*
X41240600Y-14420400D01*
X41104000Y-14393200D01*
X40967500Y-14420400D01*
X40851700Y-14497700D01*
X40774300Y-14613500D01*
X40747300Y-14749600D01*
X38055900Y-14749600D01*
X38055900Y-13852600D01*
X39849300Y-13852600D01*
X39876300Y-13988600D01*
X39953700Y-14104400D01*
X40069400Y-14181700D01*
X40206000Y-14208900D01*
X40342600Y-14181700D01*
X40458300Y-14104400D01*
X40535700Y-13988600D01*
X40562900Y-13852100D01*
X40535700Y-13715500D01*
X40458300Y-13599700D01*
X40342600Y-13522300D01*
X40206000Y-13495200D01*
X40069400Y-13522300D01*
X39953700Y-13599700D01*
X39876300Y-13715500D01*
X39849300Y-13851600D01*
X38055900Y-13851600D01*
X38055900Y-13774500D01*
X38205900Y-13688100D01*
X38300000Y-13706900D01*
X38436600Y-13679700D01*
X38552300Y-13602400D01*
X38629700Y-13486600D01*
X38656800Y-13350000D01*
X38629700Y-13213400D01*
X38552300Y-13097700D01*
X38436600Y-13020300D01*
X38300000Y-12993200D01*
X38205900Y-13011900D01*
X38106250Y-12954500D01*
X38951200Y-12954500D01*
X38978300Y-13090600D01*
X39055600Y-13206400D01*
X39171400Y-13283700D01*
X39308000Y-13310900D01*
X39444500Y-13283700D01*
X39560300Y-13206400D01*
X39637700Y-13090600D01*
X39664800Y-12954000D01*
X39637700Y-12817400D01*
X39560300Y-12701700D01*
X39444500Y-12624300D01*
X39308000Y-12597100D01*
X39171400Y-12624300D01*
X39055600Y-12701700D01*
X38978300Y-12817400D01*
X38951200Y-12953500D01*
X38104510Y-12953500D01*
X38055900Y-12925500D01*
X38055900Y-12407000D01*
X38058700Y-12404300D01*
X38205900Y-12340500D01*
X38273400Y-12385700D01*
X38409900Y-12412800D01*
X38546500Y-12385700D01*
X38662300Y-12308300D01*
X38739700Y-12192500D01*
X38766800Y-12056000D01*
X38739700Y-11919400D01*
X38662300Y-11803600D01*
X38546500Y-11726300D01*
X38409900Y-11699100D01*
X38273400Y-11726300D01*
X38205900Y-11771400D01*
X38058700Y-11707700D01*
X38055900Y-11705000D01*
X38055900Y-10032700D01*
X38205900Y-9987300D01*
X38226200Y-10017800D01*
X38449500Y-10167000D01*
X38712900Y-10219300D01*
X38842400Y-10193600D01*
X38948500Y-10299700D01*
X38922700Y-10429100D01*
X38975100Y-10692500D01*
X39124300Y-10915800D01*
X39347500Y-11065000D01*
X39610900Y-11117400D01*
X39740400Y-11091600D01*
X39846500Y-11197700D01*
X39820700Y-11327100D01*
X39873100Y-11590500D01*
X40022300Y-11813800D01*
X40245600Y-11963000D01*
X40508900Y-12015400D01*
X40638400Y-11989600D01*
X40744500Y-12095700D01*
X40718800Y-12225200D01*
X40771100Y-12488600D01*
X40920300Y-12711800D01*
X41143600Y-12861000D01*
X41407000Y-12913400D01*
X41536500Y-12887700D01*
X41642500Y-12993700D01*
X41616800Y-13123200D01*
X41669200Y-13386600D01*
X41818400Y-13609900D01*
X42041600Y-13759100D01*
X42305000Y-13811400D01*
X42434500Y-13785700D01*
X42540600Y-13891800D01*
X42514800Y-14021200D01*
X42567200Y-14284600D01*
X42716400Y-14507900D01*
X42939600Y-14657100D01*
X43203000Y-14709500D01*
X43332500Y-14683700D01*
X43438600Y-14789800D01*
X43412800Y-14919300D01*
X43465200Y-15182600D01*
X43614400Y-15405900D01*
X43837700Y-15555100D01*
X44101000Y-15607500D01*
X44230500Y-15581700D01*
X44336600Y-15687800D01*
X44310900Y-15817300D01*
X44363200Y-16080700D01*
X44512400Y-16304000D01*
X44735700Y-16453100D01*
X44999100Y-16505500D01*
X45128600Y-16479700D01*
X45234600Y-16585800D01*
X45208900Y-16715300D01*
X45261300Y-16978700D01*
X45410500Y-17202000D01*
X45633700Y-17351100D01*
X45897100Y-17403500D01*
X46026600Y-17377800D01*
X46132700Y-17483800D01*
X46106900Y-17613300D01*
X46159300Y-17876700D01*
X46308500Y-18100000D01*
X46531700Y-18249200D01*
X46795100Y-18301600D01*
X46924600Y-18275800D01*
X47030700Y-18381900D01*
X47004900Y-18511400D01*
X47057300Y-18774700D01*
X47206500Y-18998000D01*
X47429800Y-19147200D01*
X47693100Y-19199600D01*
X47822600Y-19173800D01*
X47928700Y-19279900D01*
X47903000Y-19409400D01*
X47955300Y-19672800D01*
X48093100Y-19879000D01*
X48093100Y-20680200D01*
X48120300Y-20816800D01*
X48197700Y-20932600D01*
X55243100Y-27978100D01*
X55243100Y-47950000D01*
X55243100Y-53030000D01*
X55243100Y-53500000D01*
X55270300Y-53636600D01*
X55347700Y-53752300D01*
X55463400Y-53829700D01*
X55600000Y-53856900D01*
X55736500Y-53829700D01*
X55852300Y-53752300D01*
X55929700Y-53636600D01*
X55934200Y-53613800D01*
X55938400Y-53609900D01*
X56098500Y-53556900D01*
X56261600Y-53665800D01*
X56356800Y-53684800D01*
X56413200Y-53849000D01*
X56393100Y-53950000D01*
X56411900Y-54044100D01*
X56325500Y-54194100D01*
X54314400Y-54194100D01*
X54241200Y-54044100D01*
X54279700Y-53986500D01*
X54306900Y-53850000D01*
X54289800Y-53764100D01*
X54331200Y-53730400D01*
X54427900Y-53689700D01*
X54518200Y-53750000D01*
X54654700Y-53777100D01*
X54791300Y-53750000D01*
X54907000Y-53672600D01*
X54984400Y-53556900D01*
X55011600Y-53420300D01*
X54984400Y-53283700D01*
X54907000Y-53168000D01*
X54791300Y-53090600D01*
X54654700Y-53063400D01*
X54518200Y-53090600D01*
X54402400Y-53168000D01*
X54325000Y-53283700D01*
X54297900Y-53420300D01*
X54314900Y-53506200D01*
X54273500Y-53539800D01*
X54176800Y-53580600D01*
X54086600Y-53520300D01*
X53950000Y-53493100D01*
X53813400Y-53520300D01*
X53697700Y-53597600D01*
X53620300Y-53713400D01*
X53593200Y-53850000D01*
X53620300Y-53986500D01*
X53658800Y-54044100D01*
X53585700Y-54194100D01*
X49734100Y-54194100D01*
X49622700Y-54058700D01*
X49627500Y-54029400D01*
X49700000Y-53906900D01*
X49836500Y-53879700D01*
X49950000Y-53803900D01*
X50063400Y-53879700D01*
X50200000Y-53906900D01*
X50336500Y-53879700D01*
X50450000Y-53803900D01*
X50563400Y-53879700D01*
X50700000Y-53906900D01*
X50836500Y-53879700D01*
X50950000Y-53803900D01*
X51063400Y-53879700D01*
X51200000Y-53906900D01*
X51336500Y-53879700D01*
X51450000Y-53803900D01*
X51563400Y-53879700D01*
X51700000Y-53906900D01*
X51836500Y-53879700D01*
X51950000Y-53803900D01*
X52063400Y-53879700D01*
X52200000Y-53906900D01*
X52336500Y-53879700D01*
X52450000Y-53803900D01*
X52563400Y-53879700D01*
X52700000Y-53906900D01*
X52836500Y-53879700D01*
X52952300Y-53802400D01*
X53029700Y-53686600D01*
X53056900Y-53550000D01*
X53029700Y-53413500D01*
X52952300Y-53297700D01*
X52836500Y-53220300D01*
X52700000Y-53193100D01*
X52563400Y-53220300D01*
X52450000Y-53296100D01*
X52336500Y-53220300D01*
X52200000Y-53193100D01*
G37*
%TD.AperFunction*%
%TD*%
M02*
