%TF.GenerationSoftware,KiCad,Pcbnew,7.0.11+dfsg-1build4*%
%TF.CreationDate,2026-10-01T15:00:51+10:00*%
%TF.ProjectId,Reid_Orthotic_v2_LHS,52656964-5f4f-4727-9468-6f7469635f76,R4*%
%TF.SameCoordinates,Original*%
%TF.FileFunction,Soldermask,Top*%
%TF.FilePolarity,Negative*%
%FSLAX46Y46*%
G04 Gerber Fmt 4.6, Leading zero omitted, Abs format (unit mm)*
G04 Created by KiCad (PCBNEW 7.0.11+dfsg-1build4) date 2026-10-01 15:00:51*
%MOMM*%
%LPD*%
G01*
G04 APERTURE LIST*
G04 Aperture macros list*
%AMRoundRect*
0 Rectangle with rounded corners*
0 $1 Rounding radius*
0 $2 $3 $4 $5 $6 $7 $8 $9 X,Y pos of 4 corners*
0 Add a 4 corners polygon primitive as box body*
4,1,4,$2,$3,$4,$5,$6,$7,$8,$9,$2,$3,0*
0 Add four circle primitives for the rounded corners*
1,1,$1+$1,$2,$3*
1,1,$1+$1,$4,$5*
1,1,$1+$1,$6,$7*
1,1,$1+$1,$8,$9*
0 Add four rect primitives between the rounded corners*
20,1,$1+$1,$2,$3,$4,$5,0*
20,1,$1+$1,$4,$5,$6,$7,0*
20,1,$1+$1,$6,$7,$8,$9,0*
20,1,$1+$1,$8,$9,$2,$3,0*%
%AMHorizOval*
0 Thick line with rounded ends*
0 $1 width*
0 $2 $3 position (X,Y) of the first rounded end (center of the circle)*
0 $4 $5 position (X,Y) of the second rounded end (center of the circle)*
0 Add line between two ends*
20,1,$1,$2,$3,$4,$5,0*
0 Add two circle primitives to create the rounded ends*
1,1,$1,$2,$3*
1,1,$1,$4,$5*%
G04 Aperture macros list end*
%ADD10C,0.050000*%
%ADD11RoundRect,0.050000X-0.275000X-0.225000X0.275000X-0.225000X0.275000X0.225000X-0.275000X0.225000X0*%
%ADD12RoundRect,0.100000X-0.300000X-0.325000X0.300000X-0.325000X0.300000X0.325000X-0.300000X0.325000X0*%
%ADD13RoundRect,0.087500X-0.262500X-0.512500X0.262500X-0.512500X0.262500X0.512500X-0.262500X0.512500X0*%
%ADD14RoundRect,0.162499X0.194500X-0.424255X0.424255X-0.194500X-0.194500X0.424255X-0.424255X0.194500X0*%
%ADD15RoundRect,0.087498X0.106098X-0.229858X0.229858X-0.106098X-0.106098X0.229858X-0.229858X0.106098X0*%
%ADD16RoundRect,0.118694X-0.548001X-1.051844X1.051844X0.548001X0.548001X1.051844X-1.051844X-0.548001X0*%
%ADD17O,0.900000X0.350000*%
%ADD18O,0.350000X0.900000*%
%ADD19RoundRect,0.137500X-0.912500X-0.412500X0.912500X-0.412500X0.912500X0.412500X-0.912500X0.412500X0*%
%ADD20HorizOval,0.350000X0.194500X0.194500X-0.194500X-0.194500X0*%
%ADD21HorizOval,0.350000X-0.194500X0.194500X0.194500X-0.194500X0*%
%ADD22RoundRect,0.137501X-0.353500X-0.936933X0.936933X0.353500X0.353500X0.936933X-0.936933X-0.353500X0*%
%ADD23RoundRect,0.075000X-0.075000X-0.275000X0.075000X-0.275000X0.075000X0.275000X-0.075000X0.275000X0*%
%ADD24RoundRect,0.075000X-0.275000X-0.075000X0.275000X-0.075000X0.275000X0.075000X-0.275000X0.075000X0*%
%ADD25RoundRect,0.235000X-2.115000X-2.115000X2.115000X-2.115000X2.115000X2.115000X-2.115000X2.115000X0*%
%ADD26RoundRect,0.087500X-0.087500X-0.212500X0.087500X-0.212500X0.087500X0.212500X-0.087500X0.212500X0*%
%ADD27RoundRect,0.087500X-0.212500X-0.087500X0.212500X-0.087500X0.212500X0.087500X-0.212500X0.087500X0*%
%ADD28RoundRect,0.050000X-0.035401X-0.353599X0.353599X0.035401X0.035401X0.353599X-0.353599X-0.035401X0*%
%ADD29RoundRect,0.050000X0.035401X-0.353599X0.353599X-0.035401X-0.035401X0.353599X-0.353599X0.035401X0*%
%ADD30RoundRect,0.050000X-0.350000X-0.450000X0.350000X-0.450000X0.350000X0.450000X-0.350000X0.450000X0*%
%ADD31RoundRect,0.050000X-0.225000X-0.275000X0.225000X-0.275000X0.225000X0.275000X-0.225000X0.275000X0*%
%ADD32RoundRect,0.087500X-0.262500X-0.412500X0.262500X-0.412500X0.262500X0.412500X-0.262500X0.412500X0*%
%ADD33RoundRect,0.087500X0.106101X-0.477332X0.477332X-0.106101X-0.106101X0.477332X-0.477332X0.106101X0*%
%ADD34RoundRect,0.050000X-0.167998X-0.313105X0.340196X-0.102591X0.167998X0.313105X-0.340196X0.102591X0*%
%ADD35RoundRect,0.050000X-0.450000X-0.350000X0.450000X-0.350000X0.450000X0.350000X-0.450000X0.350000X0*%
%ADD36RoundRect,0.274995X0.353497X-0.742462X0.742462X-0.353497X-0.353497X0.742462X-0.742462X0.353497X0*%
%ADD37RoundRect,0.275000X-0.275000X-0.775000X0.275000X-0.775000X0.275000X0.775000X-0.275000X0.775000X0*%
%ADD38O,1.600000X1.150000*%
%ADD39HorizOval,1.150000X0.159099X0.159099X-0.159099X-0.159099X0*%
%ADD40RoundRect,0.050000X-0.070700X-0.494999X0.494999X0.070700X0.070700X0.494999X-0.494999X-0.070700X0*%
%ADD41RoundRect,0.050000X-0.450000X-0.400000X0.450000X-0.400000X0.450000X0.400000X-0.450000X0.400000X0*%
%ADD42RoundRect,0.050000X-0.070700X-0.565703X0.565703X0.070700X0.070700X0.565703X-0.565703X-0.070700X0*%
%ADD43RoundRect,0.050000X-0.675000X-0.400000X0.675000X-0.400000X0.675000X0.400000X-0.675000X0.400000X0*%
%ADD44RoundRect,0.050000X0.070700X-0.565703X0.565703X-0.070700X-0.070700X0.565703X-0.565703X0.070700X0*%
%ADD45RoundRect,0.050000X-0.400000X-0.675000X0.400000X-0.675000X0.400000X0.675000X-0.400000X0.675000X0*%
%ADD46RoundRect,0.050000X0.125700X-0.332395X0.350702X0.057407X-0.125700X0.332395X-0.350702X-0.057407X0*%
%ADD47RoundRect,0.089997X0.504164X-0.706758X0.864152X-0.083241X-0.504164X0.706758X-0.864152X0.083241X0*%
G04 APERTURE END LIST*
D10*
X42855000Y-35465000D02*
G75*
G03*
X42805000Y-35465000I-25000J0D01*
G01*
X42805000Y-35465000D02*
G75*
G03*
X42855000Y-35465000I25000J0D01*
G01*
X37775000Y-34450000D02*
G75*
G03*
X37725000Y-34450000I-25000J0D01*
G01*
X37725000Y-34450000D02*
G75*
G03*
X37775000Y-34450000I25000J0D01*
G01*
X37775000Y-36480000D02*
G75*
G03*
X37725000Y-36480000I-25000J0D01*
G01*
X37725000Y-36480000D02*
G75*
G03*
X37775000Y-36480000I25000J0D01*
G01*
D11*
%TO.C,R20*%
X38400000Y-38350000D03*
X38400000Y-37450000D03*
%TD*%
D12*
%TO.C,X2*%
X46600000Y-47775000D03*
X46600000Y-46425000D03*
X45600000Y-46425000D03*
X45600000Y-47775000D03*
%TD*%
D13*
%TO.C,X1*%
X42650000Y-37150000D03*
X41450000Y-37150000D03*
%TD*%
D14*
%TO.C,U9*%
X40503503Y-30227599D03*
X39831801Y-30899301D03*
X39160000Y-31571102D03*
X41139998Y-33551001D03*
X42483402Y-32207498D03*
%TD*%
D15*
%TO.C,U8*%
X43650101Y-29485099D03*
X44003697Y-29131603D03*
X44357300Y-28778000D03*
X44710797Y-28424503D03*
X45064399Y-28070900D03*
X43650200Y-26656701D03*
X43296597Y-27010303D03*
X42943100Y-27363800D03*
X42589497Y-27717304D03*
X42236001Y-28070900D03*
D16*
X43650101Y-28070900D03*
%TD*%
D17*
%TO.C,U7*%
X53200000Y-51350000D03*
D18*
X52700000Y-50350000D03*
X52200000Y-50350000D03*
X51700000Y-50350000D03*
X51200000Y-50350000D03*
X50700000Y-50350000D03*
X50200000Y-50350000D03*
D17*
X49700000Y-51350000D03*
X49700000Y-51850000D03*
D18*
X50200000Y-52850000D03*
X50700000Y-52850000D03*
X51200000Y-52850000D03*
X51700000Y-52850000D03*
X52200000Y-52850000D03*
X52700000Y-52850000D03*
D17*
X53200000Y-51850000D03*
D19*
X51450000Y-51600000D03*
%TD*%
D17*
%TO.C,U6*%
X53200000Y-42550000D03*
D18*
X52700000Y-41550000D03*
X52200000Y-41550000D03*
X51700000Y-41550000D03*
X51200000Y-41550000D03*
X50700000Y-41550000D03*
X50200000Y-41550000D03*
D17*
X49700000Y-42550000D03*
X49700000Y-43050000D03*
D18*
X50200000Y-44050000D03*
X50700000Y-44050000D03*
X51200000Y-44050000D03*
X51700000Y-44050000D03*
X52200000Y-44050000D03*
X52700000Y-44050000D03*
D17*
X53200000Y-43050000D03*
D19*
X51450000Y-42800000D03*
%TD*%
D20*
%TO.C,U5*%
X49814703Y-25535100D03*
D21*
X48754000Y-25181504D03*
X48400503Y-25535100D03*
X48046900Y-25888603D03*
X47693403Y-26242199D03*
X47339801Y-26595703D03*
X46986304Y-26949299D03*
D20*
X47339801Y-28009903D03*
X47693396Y-28363498D03*
D21*
X48754000Y-28716995D03*
X49107596Y-28363498D03*
X49461199Y-28009896D03*
X49814696Y-27656399D03*
X50168199Y-27302796D03*
X50521795Y-26949299D03*
D20*
X50168199Y-25888596D03*
D22*
X48754000Y-26949299D03*
%TD*%
D20*
%TO.C,U4*%
X45910404Y-21635601D03*
D21*
X44849800Y-21282005D03*
X44496204Y-21635601D03*
X44142700Y-21989104D03*
X43789104Y-22342700D03*
X43435601Y-22696204D03*
X43082005Y-23049800D03*
D20*
X43435601Y-24110404D03*
X43789097Y-24463999D03*
D21*
X44849800Y-24817595D03*
X45203297Y-24463999D03*
X45556900Y-24110397D03*
X45910397Y-23756900D03*
X46263999Y-23403396D03*
X46617595Y-23049800D03*
D20*
X46263999Y-21989097D03*
D22*
X44849800Y-23049800D03*
%TD*%
D20*
%TO.C,U3*%
X42036504Y-17756901D03*
D21*
X40975900Y-17403305D03*
X40622304Y-17756901D03*
X40268701Y-18110404D03*
X39915204Y-18464000D03*
X39561602Y-18817504D03*
X39208105Y-19171100D03*
D20*
X39561602Y-20231803D03*
X39915197Y-20585299D03*
D21*
X40975900Y-20938895D03*
X41329397Y-20585299D03*
X41683000Y-20231796D03*
X42036497Y-19878200D03*
X42390099Y-19524696D03*
X42743596Y-19171100D03*
D20*
X42390099Y-18110397D03*
D22*
X40975900Y-19171100D03*
%TD*%
D23*
%TO.C,U2*%
X43300000Y-39150000D03*
X42900000Y-39150000D03*
X42500000Y-39150000D03*
X42100000Y-39150000D03*
X41700000Y-39150000D03*
X41300000Y-39150000D03*
X40900000Y-39150000D03*
X40500000Y-39150000D03*
X40100000Y-39150000D03*
X39700000Y-39150000D03*
X39300000Y-39150000D03*
X38900000Y-39150000D03*
D24*
X38200000Y-39850000D03*
X38200000Y-40250000D03*
X38200000Y-40650000D03*
X38200000Y-41050000D03*
X38200000Y-41450000D03*
X38200000Y-41850000D03*
X38200000Y-42250000D03*
X38200000Y-42650000D03*
X38200000Y-43050000D03*
X38200000Y-43450000D03*
X38200000Y-43850000D03*
X38200000Y-44250000D03*
D23*
X38900000Y-44950000D03*
X39300000Y-44950000D03*
X39700000Y-44950000D03*
X40100000Y-44950000D03*
X40500000Y-44950000D03*
X40900000Y-44950000D03*
X41300000Y-44950000D03*
X41700000Y-44950000D03*
X42100000Y-44950000D03*
X42500000Y-44950000D03*
X42900000Y-44950000D03*
X43300000Y-44950000D03*
D24*
X44000000Y-44250000D03*
X44000000Y-43850000D03*
X44000000Y-43450000D03*
X44000000Y-43050000D03*
X44000000Y-42650000D03*
X44000000Y-42250000D03*
X44000000Y-41850000D03*
X44000000Y-41450000D03*
X44000000Y-41050000D03*
X44000000Y-40650000D03*
X44000000Y-40250000D03*
X44000000Y-39850000D03*
D25*
X41100000Y-42050000D03*
%TD*%
D26*
%TO.C,U1*%
X50300000Y-36700000D03*
X49800000Y-36700000D03*
X49300000Y-36700000D03*
X48800000Y-36700000D03*
D27*
X48650000Y-37350000D03*
X48650000Y-37850000D03*
X48650000Y-38350000D03*
D26*
X48800000Y-39000000D03*
X49300000Y-39000000D03*
X49800000Y-39000000D03*
X50300000Y-39000000D03*
D27*
X50450000Y-38350000D03*
X50450000Y-37850000D03*
X50450000Y-37350000D03*
%TD*%
D28*
%TO.C,R62*%
X42094502Y-25242502D03*
X42730898Y-25878898D03*
%TD*%
%TO.C,R61*%
X41458102Y-25878902D03*
X42094498Y-26515298D03*
%TD*%
%TO.C,R60*%
X46619998Y-29060798D03*
X45983602Y-28424402D03*
%TD*%
%TO.C,R59*%
X45347202Y-29060902D03*
X45983598Y-29697298D03*
%TD*%
D29*
%TO.C,R58*%
X38311602Y-30722598D03*
X38947899Y-30086202D03*
%TD*%
%TO.C,R57*%
X37675102Y-30086198D03*
X38311498Y-29449802D03*
%TD*%
D28*
%TO.C,R56*%
X44640102Y-29768002D03*
X45276498Y-30404398D03*
%TD*%
D29*
%TO.C,R55*%
X55045002Y-49219998D03*
X55681398Y-48583602D03*
%TD*%
D30*
%TO.C,R54*%
X53100000Y-30999900D03*
X51700000Y-30999900D03*
%TD*%
D31*
%TO.C,R51*%
X52200000Y-49000000D03*
X53100000Y-49000000D03*
%TD*%
%TO.C,R50*%
X52200000Y-40200100D03*
X53100000Y-40200100D03*
%TD*%
D29*
%TO.C,R49*%
X47446002Y-24580698D03*
X48082398Y-23944302D03*
%TD*%
%TO.C,R48*%
X43541802Y-20681198D03*
X44178198Y-20044802D03*
%TD*%
%TO.C,R47*%
X39667902Y-16802498D03*
X40304298Y-16166102D03*
%TD*%
D31*
%TO.C,R46*%
X52200100Y-35250000D03*
X53100100Y-35250000D03*
%TD*%
D11*
%TO.C,R45*%
X38349900Y-46200000D03*
X38349900Y-47100000D03*
%TD*%
D29*
%TO.C,R44*%
X45721498Y-31280801D03*
X45085102Y-31917098D03*
%TD*%
%TO.C,R43*%
X47489298Y-30644302D03*
X46852902Y-31280797D03*
%TD*%
%TO.C,R42*%
X50600598Y-33189902D03*
X49964202Y-33826298D03*
%TD*%
%TO.C,R41*%
X46994298Y-32553601D03*
X46357902Y-33189898D03*
%TD*%
D31*
%TO.C,R40*%
X51600000Y-37850000D03*
X52500000Y-37850000D03*
%TD*%
%TO.C,R39*%
X51600000Y-36950000D03*
X52500000Y-36950000D03*
%TD*%
D29*
%TO.C,R38*%
X55043602Y-53031398D03*
X55679998Y-52395002D03*
%TD*%
%TO.C,R37*%
X55043602Y-51761398D03*
X55679998Y-51125002D03*
%TD*%
%TO.C,R36*%
X55043602Y-50491398D03*
X55679998Y-49855002D03*
%TD*%
%TO.C,R35*%
X55043602Y-46681398D03*
X55679998Y-46045002D03*
%TD*%
%TO.C,R34*%
X55043602Y-45411398D03*
X55679998Y-44775002D03*
%TD*%
%TO.C,R33*%
X55043602Y-44141398D03*
X55679998Y-43505002D03*
%TD*%
%TO.C,R32*%
X55043602Y-42871398D03*
X55679998Y-42235002D03*
%TD*%
%TO.C,R31*%
X55043602Y-41601398D03*
X55679998Y-40965002D03*
%TD*%
%TO.C,R30*%
X55043602Y-40331398D03*
X55679998Y-39695002D03*
%TD*%
%TO.C,R29*%
X55043602Y-39061398D03*
X55679998Y-38425002D03*
%TD*%
%TO.C,R28*%
X55043602Y-37791398D03*
X55679998Y-37155002D03*
%TD*%
%TO.C,R27*%
X55043602Y-36521398D03*
X55679998Y-35885002D03*
%TD*%
%TO.C,R26*%
X55043602Y-35251398D03*
X55679998Y-34615002D03*
%TD*%
%TO.C,R25*%
X55043602Y-33981398D03*
X55679998Y-33345002D03*
%TD*%
%TO.C,R24*%
X55043602Y-32711398D03*
X55679998Y-32075002D03*
%TD*%
%TO.C,R23*%
X55043602Y-31441398D03*
X55679998Y-30805002D03*
%TD*%
%TO.C,R22*%
X55043602Y-30171398D03*
X55679998Y-29535002D03*
%TD*%
%TO.C,R21*%
X55043602Y-28901398D03*
X55679998Y-28265002D03*
%TD*%
D31*
%TO.C,R19*%
X54072400Y-27668500D03*
X54972400Y-27668500D03*
%TD*%
%TO.C,R18*%
X53674400Y-26770500D03*
X54574400Y-26770500D03*
%TD*%
%TO.C,R17*%
X52776400Y-25872500D03*
X53676400Y-25872500D03*
%TD*%
%TO.C,R16*%
X51878400Y-24974400D03*
X52778400Y-24974400D03*
%TD*%
%TO.C,R15*%
X50980300Y-24076400D03*
X51880300Y-24076400D03*
%TD*%
%TO.C,R14*%
X50082300Y-23178400D03*
X50982300Y-23178400D03*
%TD*%
%TO.C,R13*%
X49184300Y-22280400D03*
X50084300Y-22280400D03*
%TD*%
%TO.C,R12*%
X48286300Y-21382400D03*
X49186200Y-21382300D03*
%TD*%
D11*
%TO.C,R11*%
X47390200Y-20486200D03*
X47390200Y-19586300D03*
%TD*%
%TO.C,R10*%
X46492200Y-19588200D03*
X46492200Y-18688300D03*
%TD*%
%TO.C,R9*%
X45594100Y-18690200D03*
X45594100Y-17790200D03*
%TD*%
%TO.C,R8*%
X44696100Y-17792200D03*
X44696100Y-16892200D03*
%TD*%
%TO.C,R7*%
X43798100Y-16894200D03*
X43798100Y-15994200D03*
%TD*%
%TO.C,R6*%
X42900100Y-15996100D03*
X42900100Y-15096200D03*
%TD*%
%TO.C,R5*%
X42002000Y-15098100D03*
X42002000Y-14198100D03*
%TD*%
%TO.C,R4*%
X41104000Y-14200100D03*
X41104000Y-13300100D03*
%TD*%
%TO.C,R3*%
X40206000Y-13302100D03*
X40206000Y-12402100D03*
%TD*%
%TO.C,R2*%
X39308000Y-12404000D03*
X39308000Y-11504100D03*
%TD*%
%TO.C,R1*%
X38409900Y-11506000D03*
X38409900Y-10606000D03*
%TD*%
D32*
%TO.C,Q3*%
X51750100Y-34149900D03*
X53050100Y-34149900D03*
X52400100Y-32349900D03*
%TD*%
D33*
%TO.C,Q2*%
X49234302Y-33018399D03*
X50153499Y-32099202D03*
X48421101Y-31286001D03*
%TD*%
%TO.C,Q1*%
X47913598Y-33190000D03*
X46994401Y-34109197D03*
X48726799Y-34922398D03*
%TD*%
D34*
%TO.C,L3*%
X41127704Y-47134302D03*
X41472199Y-47965803D03*
%TD*%
D35*
%TO.C,L2*%
X46950000Y-39950100D03*
X46950000Y-41350100D03*
%TD*%
D31*
%TO.C,L1*%
X45950000Y-39900000D03*
X45050000Y-39900000D03*
%TD*%
D36*
%TO.C,J4*%
X40998500Y-24075700D03*
X39584300Y-25489999D03*
%TD*%
D37*
%TO.C,J3*%
X46300000Y-53250000D03*
X48300000Y-53250000D03*
%TD*%
D38*
%TO.C,J2*%
X56750000Y-53030000D03*
X56750000Y-51760000D03*
X56750000Y-50490000D03*
X56750000Y-49220000D03*
X56750000Y-47950000D03*
X56750000Y-46680000D03*
X56750000Y-45410000D03*
X56750000Y-44140000D03*
X56750000Y-42870000D03*
X56750000Y-41600000D03*
X56750000Y-40330000D03*
X56750000Y-39060000D03*
X56750000Y-37790000D03*
X56750000Y-36520000D03*
X56750000Y-35250000D03*
X56750000Y-33980000D03*
X56750000Y-32710000D03*
X56750000Y-31440000D03*
X56750000Y-30170000D03*
X56750000Y-28900000D03*
%TD*%
D39*
%TO.C,J1*%
X55036404Y-25536503D03*
X54138399Y-24638498D03*
X50546304Y-21046403D03*
X47852199Y-18352298D03*
X46954201Y-17454300D03*
X39770004Y-10270103D03*
X51444301Y-21944400D03*
X44260103Y-14760202D03*
X43362099Y-13862198D03*
X40668001Y-11168100D03*
X55934500Y-26434500D03*
X53240402Y-23740402D03*
X52342397Y-22842397D03*
X49648299Y-20148299D03*
X48750302Y-19250302D03*
X46056197Y-16556197D03*
X45158200Y-15658200D03*
X42464102Y-12964102D03*
X41566097Y-12066097D03*
X38871999Y-9371999D03*
%TD*%
D40*
%TO.C,F1*%
X38877097Y-26550497D03*
X39867004Y-27540503D03*
%TD*%
D41*
%TO.C,D2*%
X48300000Y-45550000D03*
X48300000Y-47850000D03*
%TD*%
%TO.C,D1*%
X48300000Y-51400000D03*
X48300000Y-49100000D03*
%TD*%
D42*
%TO.C,C43*%
X41634903Y-29308303D03*
X40644897Y-28318396D03*
%TD*%
D43*
%TO.C,C42*%
X50050000Y-45950000D03*
X50050000Y-47850000D03*
%TD*%
%TO.C,C40*%
X51850000Y-45950000D03*
X51850000Y-47850000D03*
%TD*%
D44*
%TO.C,C39*%
X42448097Y-34152003D03*
X43438004Y-33161997D03*
%TD*%
D45*
%TO.C,C38*%
X44950000Y-49350000D03*
X46850000Y-49350000D03*
%TD*%
%TO.C,C37*%
X44950000Y-51150000D03*
X46850000Y-51150000D03*
%TD*%
D42*
%TO.C,C35*%
X38629803Y-28353803D03*
X39619703Y-29343703D03*
%TD*%
%TO.C,C34*%
X42412797Y-30086197D03*
X43402697Y-31076097D03*
%TD*%
D11*
%TO.C,C28*%
X53950000Y-53300000D03*
X53950000Y-52400000D03*
%TD*%
%TO.C,C27*%
X53950000Y-44500000D03*
X53950000Y-43600000D03*
%TD*%
D28*
%TO.C,C26*%
X51724098Y-26383798D03*
X51087702Y-25747402D03*
%TD*%
%TO.C,C25*%
X47819898Y-22484298D03*
X47183502Y-21847902D03*
%TD*%
%TO.C,C24*%
X43945899Y-18605598D03*
X43309503Y-17969202D03*
%TD*%
D31*
%TO.C,C23*%
X51450000Y-49000000D03*
X50550000Y-49000000D03*
%TD*%
%TO.C,C22*%
X51450000Y-40200000D03*
X50550000Y-40200000D03*
%TD*%
D29*
%TO.C,C21*%
X46915699Y-25111002D03*
X46279402Y-25747398D03*
%TD*%
%TO.C,C20*%
X43011498Y-21211502D03*
X42375102Y-21847898D03*
%TD*%
%TO.C,C19*%
X39137598Y-17332802D03*
X38501202Y-17969198D03*
%TD*%
%TO.C,C18*%
X55043602Y-47951398D03*
X55679998Y-47315002D03*
%TD*%
D46*
%TO.C,C16*%
X42624901Y-47860301D03*
X42174996Y-48639698D03*
%TD*%
D31*
%TO.C,C15*%
X41900000Y-46200000D03*
X41000000Y-46200000D03*
%TD*%
D28*
%TO.C,C13*%
X43468298Y-47168198D03*
X42831902Y-46531802D03*
%TD*%
D11*
%TO.C,C12*%
X44650000Y-47850000D03*
X44650000Y-46950000D03*
%TD*%
D31*
%TO.C,C11*%
X46550000Y-45450000D03*
X45650000Y-45450000D03*
%TD*%
D29*
%TO.C,C10*%
X45518198Y-44281802D03*
X44881802Y-44918198D03*
%TD*%
D11*
%TO.C,C9*%
X45850000Y-41650000D03*
X45850000Y-40750000D03*
%TD*%
%TO.C,C8*%
X37349900Y-38350000D03*
X37349900Y-39250000D03*
%TD*%
D31*
%TO.C,C7*%
X46100000Y-39000000D03*
X45200000Y-39000000D03*
%TD*%
%TO.C,C6*%
X44450000Y-37950000D03*
X43550000Y-37950000D03*
%TD*%
%TO.C,C5*%
X40550000Y-37150000D03*
X39650000Y-37150000D03*
%TD*%
%TO.C,C4*%
X43550000Y-37050000D03*
X44450000Y-37050000D03*
%TD*%
D11*
%TO.C,C3*%
X39250000Y-47100000D03*
X39250000Y-46200000D03*
%TD*%
D29*
%TO.C,C2*%
X46357898Y-31917102D03*
X45721502Y-32553498D03*
%TD*%
D31*
%TO.C,C1*%
X52500000Y-38750000D03*
X51600000Y-38750000D03*
%TD*%
D47*
%TO.C,ANT1*%
X39775001Y-52242398D03*
X41325002Y-49557697D03*
%TD*%
M02*
