%TF.GenerationSoftware,KiCad,Pcbnew,7.0.11+dfsg-1build4*%
%TF.CreationDate,2026-10-01T15:00:51+10:00*%
%TF.ProjectId,Reid_Orthotic_v2_LHS,52656964-5f4f-4727-9468-6f7469635f76,R4*%
%TF.SameCoordinates,Original*%
%TF.FileFunction,Copper,L4,Bot*%
%TF.FilePolarity,Positive*%
%FSLAX46Y46*%
G04 Gerber Fmt 4.6, Leading zero omitted, Abs format (unit mm)*
G04 Created by KiCad (PCBNEW 7.0.11+dfsg-1build4) date 2026-10-01 15:00:51*
%MOMM*%
%LPD*%
G01*
G04 APERTURE LIST*
G04 Aperture macros list*
%AMHorizOval*
0 Thick line with rounded ends*
0 $1 width*
0 $2 $3 position (X,Y) of the first rounded end (center of the circle)*
0 $4 $5 position (X,Y) of the second rounded end (center of the circle)*
0 Add line between two ends*
20,1,$1,$2,$3,$4,$5,0*
0 Add two circle primitives to create the rounded ends*
1,1,$1,$2,$3*
1,1,$1,$4,$5*%
G04 Aperture macros list end*
%TA.AperFunction,ComponentPad*%
%ADD10O,1.500000X1.050000*%
%TD*%
%TA.AperFunction,ComponentPad*%
%ADD11HorizOval,1.050000X0.159099X0.159099X-0.159099X-0.159099X0*%
%TD*%
%TA.AperFunction,SMDPad,CuDef*%
%ADD12C,1.000000*%
%TD*%
%TA.AperFunction,SMDPad,CuDef*%
%ADD13C,0.800000*%
%TD*%
%TA.AperFunction,ViaPad*%
%ADD14C,0.400000*%
%TD*%
%TA.AperFunction,ViaPad*%
%ADD15C,0.800000*%
%TD*%
%TA.AperFunction,ViaPad*%
%ADD16C,0.600000*%
%TD*%
%TA.AperFunction,Conductor*%
%ADD17C,0.150000*%
%TD*%
%TA.AperFunction,Conductor*%
%ADD18C,0.400000*%
%TD*%
%TA.AperFunction,Conductor*%
%ADD19C,0.500000*%
%TD*%
%TA.AperFunction,Conductor*%
%ADD20C,0.120000*%
%TD*%
G04 APERTURE END LIST*
D10*
%TO.P,J2,1*%
%TO.N,0V*%
X56750000Y-53030000D03*
%TO.P,J2,2*%
%TO.N,NET56*%
X56750000Y-51760000D03*
%TO.P,J2,3*%
%TO.N,NET57*%
X56750000Y-50490000D03*
%TO.P,J2,4*%
%TO.N,NET58*%
X56750000Y-49220000D03*
%TO.P,J2,5*%
%TO.N,0V*%
X56750000Y-47950000D03*
%TO.P,J2,6*%
%TO.N,NET59*%
X56750000Y-46680000D03*
%TO.P,J2,7*%
%TO.N,NET60*%
X56750000Y-45410000D03*
%TO.P,J2,8*%
%TO.N,NET61*%
X56750000Y-44140000D03*
%TO.P,J2,9*%
%TO.N,NET62*%
X56750000Y-42870000D03*
%TO.P,J2,10*%
%TO.N,NET63*%
X56750000Y-41600000D03*
%TO.P,J2,11*%
%TO.N,NET65*%
X56750000Y-40330000D03*
%TO.P,J2,12*%
%TO.N,NET66*%
X56750000Y-39060000D03*
%TO.P,J2,13*%
%TO.N,NET67*%
X56750000Y-37790000D03*
%TO.P,J2,14*%
%TO.N,NET68*%
X56750000Y-36520000D03*
%TO.P,J2,15*%
%TO.N,NET69*%
X56750000Y-35250000D03*
%TO.P,J2,16*%
%TO.N,NET70*%
X56750000Y-33980000D03*
%TO.P,J2,17*%
%TO.N,NET71*%
X56750000Y-32710000D03*
%TO.P,J2,18*%
%TO.N,NET72*%
X56750000Y-31440000D03*
%TO.P,J2,19*%
%TO.N,NET73*%
X56750000Y-30170000D03*
%TO.P,J2,20*%
%TO.N,NET74*%
X56750000Y-28900000D03*
%TD*%
D11*
%TO.P,J1,1*%
%TO.N,NET38*%
X55036404Y-25536503D03*
%TO.P,J1,2*%
%TO.N,NET55*%
X54138399Y-24638498D03*
%TO.P,J1,3*%
%TO.N,NET77*%
X50546304Y-21046403D03*
%TO.P,J1,4*%
%TO.N,NET79*%
X47852199Y-18352298D03*
%TO.P,J1,5*%
%TO.N,NET39*%
X46954201Y-17454300D03*
%TO.P,J1,6*%
%TO.N,NET50*%
X39770004Y-10270103D03*
%TO.P,J1,7*%
%TO.N,NET76*%
X51444301Y-21944400D03*
%TO.P,J1,8*%
%TO.N,NET42*%
X44260103Y-14760202D03*
%TO.P,J1,9*%
%TO.N,NET43*%
X43362099Y-13862198D03*
%TO.P,J1,10*%
%TO.N,NET47*%
X40668001Y-11168100D03*
%TO.P,J1,11*%
%TO.N,NET37*%
X55934500Y-26434500D03*
%TO.P,J1,12*%
%TO.N,NET64*%
X53240402Y-23740402D03*
%TO.P,J1,13*%
%TO.N,NET75*%
X52342397Y-22842397D03*
%TO.P,J1,14*%
%TO.N,NET78*%
X49648299Y-20148299D03*
%TO.P,J1,15*%
%TO.N,0V*%
X48750302Y-19250302D03*
%TO.P,J1,16*%
%TO.N,NET40*%
X46056197Y-16556197D03*
%TO.P,J1,17*%
%TO.N,NET41*%
X45158200Y-15658200D03*
%TO.P,J1,18*%
%TO.N,NET44*%
X42464102Y-12964102D03*
%TO.P,J1,19*%
%TO.N,NET45*%
X41566097Y-12066097D03*
%TO.P,J1,20*%
%TO.N,NET53*%
X38871999Y-9371999D03*
%TD*%
D12*
%TO.P,PAD1,1*%
%TO.N,VSYS*%
X44750000Y-31000000D03*
%TD*%
%TO.P,PAD2,1*%
%TO.N,SWDIO*%
X39650000Y-44700000D03*
%TD*%
%TO.P,PAD3,1*%
%TO.N,3V3*%
X41300000Y-31950000D03*
%TD*%
%TO.P,PAD4,1*%
%TO.N,MCU_RST*%
X37750000Y-44850000D03*
%TD*%
%TO.P,PAD5,1*%
%TO.N,0V*%
X39150000Y-22350000D03*
%TD*%
%TO.P,PAD6,1*%
%TO.N,VBAT_F*%
X41564200Y-27100000D03*
%TD*%
%TO.P,PAD7,1*%
%TO.N,SWDCLK*%
X38750000Y-46400000D03*
%TD*%
D13*
%TO.P,PAD8,1*%
%TO.N,NET146*%
X39020000Y-34830000D03*
%TD*%
D14*
%TO.N,0V*%
X37700000Y-47600000D03*
X37500000Y-46900000D03*
X37300000Y-46200000D03*
X37250000Y-45600000D03*
%TO.N,TEMP_S4*%
X37600000Y-43850000D03*
%TO.N,TEMP_S1*%
X37250000Y-43450000D03*
%TO.N,TEMP_S0*%
X37600000Y-43050000D03*
%TO.N,TEMP_S2*%
X37250000Y-42650000D03*
%TO.N,TEMP_S3*%
X37600000Y-42250000D03*
%TO.N,CAP_S2*%
X37250000Y-41850000D03*
%TO.N,CAP_S1*%
X37600000Y-41450000D03*
%TO.N,CAP_S0*%
X37250000Y-41050000D03*
%TO.N,BQ_CHG*%
X37600000Y-40650000D03*
%TO.N,0V*%
X37250000Y-40250000D03*
%TO.N,3V3*%
X37600000Y-39850000D03*
%TO.N,0V*%
X37349900Y-37800000D03*
X37250000Y-35500000D03*
X37350000Y-33550000D03*
X37300000Y-32300000D03*
X37300000Y-30600000D03*
X37300000Y-29450000D03*
X37300000Y-28100000D03*
X37250000Y-26100000D03*
X37400000Y-24550000D03*
X38549000Y-22951000D03*
X39751000Y-22951000D03*
X41600000Y-23500000D03*
X42587200Y-22555000D03*
%TO.N,VBAT_F*%
X42518800Y-24818200D03*
%TO.N,NET7*%
X43119800Y-26267800D03*
%TO.N,BQ_CHG*%
X42483400Y-26904200D03*
%TO.N,VBAT_F*%
X41564200Y-28035500D03*
%TO.N,0V*%
X41350000Y-28600000D03*
X40600000Y-29300000D03*
X39100000Y-28850000D03*
X37950000Y-28850000D03*
X38100000Y-27850000D03*
X38950000Y-27550000D03*
%TO.N,3V3*%
X41069200Y-25490000D03*
%TO.N,0V*%
X40400000Y-24700000D03*
%TO.N,FSR_S0*%
X45698500Y-24959200D03*
%TO.N,FSR_S1*%
X45345000Y-25312700D03*
%TO.N,FSR_S2*%
X44991400Y-25666300D03*
%TO.N,NET99*%
X46052100Y-24605700D03*
%TO.N,NET128*%
X46405600Y-24252100D03*
%TO.N,NET98*%
X46759200Y-23898500D03*
%TO.N,NET97*%
X47112700Y-23545000D03*
%TO.N,MUX_VCC*%
X48471400Y-23555400D03*
%TO.N,0V*%
X48208800Y-22873200D03*
%TO.N,NET97*%
X48634300Y-22280400D03*
%TO.N,NET98*%
X49532300Y-23178400D03*
%TO.N,NET96*%
X50430400Y-24076400D03*
%TO.N,NET94*%
X50309900Y-25040300D03*
%TO.N,NET95*%
X51328400Y-24974400D03*
%TO.N,NET94*%
X52226400Y-25872500D03*
%TO.N,0V*%
X52113000Y-26772600D03*
%TO.N,NET93*%
X53124500Y-26770500D03*
%TO.N,NET92*%
X53522500Y-27668500D03*
%TO.N,NET93*%
X51017000Y-27444500D03*
%TO.N,NET92*%
X50663400Y-27798000D03*
%TO.N,NET126*%
X50309900Y-28151600D03*
%TO.N,NET127*%
X49956300Y-28505100D03*
%TO.N,FSR_S0*%
X49602800Y-28858700D03*
%TO.N,FSR_S1*%
X49249200Y-29212200D03*
%TO.N,FSR_S2*%
X48895700Y-29565800D03*
%TO.N,0V*%
X48850000Y-30150000D03*
X47000000Y-29550000D03*
X46200000Y-30350000D03*
%TO.N,ADC_VBAT*%
X46110400Y-30891900D03*
%TO.N,VSYS*%
X43968400Y-30510500D03*
X43685500Y-30227700D03*
%TO.N,0V*%
X42907700Y-30581100D03*
X41850000Y-30650000D03*
%TO.N,3V3*%
X42023800Y-32667100D03*
X42306700Y-32950000D03*
%TO.N,0V*%
X41900000Y-33400000D03*
D15*
%TO.N,SWDIO*%
X41560000Y-34830000D03*
%TO.N,3V3*%
X41560000Y-36100000D03*
D14*
%TO.N,0V*%
X42350000Y-36200000D03*
D15*
%TO.N,MCU_RST*%
X40290000Y-36100000D03*
%TO.N,SWDCLK*%
X40290000Y-34830000D03*
D14*
%TO.N,0V*%
X40300000Y-33950000D03*
X40400000Y-32100000D03*
X40450000Y-31550000D03*
X38950000Y-32900000D03*
D15*
X39020000Y-36100000D03*
D14*
X39100000Y-37150000D03*
%TO.N,NET7*%
X38600000Y-36900000D03*
%TO.N,FSR_S0*%
X39300000Y-38200000D03*
%TO.N,FSR_S1*%
X39700000Y-38550000D03*
%TO.N,FSR_S2*%
X40100000Y-38200000D03*
%TO.N,VBAT_ON*%
X40500000Y-38550000D03*
%TO.N,ADC_VBAT*%
X40900000Y-38200000D03*
%TO.N,FSR_CH0*%
X41300000Y-38550000D03*
%TO.N,FSR_CH1*%
X41700000Y-38200000D03*
%TO.N,FSR_CH2*%
X42100000Y-38550000D03*
%TO.N,3V3*%
X44550000Y-39000000D03*
%TO.N,0V*%
X45000000Y-37850000D03*
X45000000Y-37050000D03*
X46500000Y-36300000D03*
X46750000Y-35350000D03*
X48000000Y-34150000D03*
%TO.N,VBAT_ON*%
X47383200Y-32164600D03*
%TO.N,0V*%
X45332600Y-32942400D03*
X45050000Y-34000000D03*
X43800000Y-33950000D03*
X44350000Y-32200000D03*
X42600000Y-29150000D03*
X42943100Y-28778000D03*
X44357300Y-27363800D03*
X46491500Y-26454500D03*
%TO.N,NET125*%
X47198600Y-25747400D03*
%TO.N,NET95*%
X47552200Y-25393900D03*
%TO.N,FSR_CH2*%
X47905700Y-25040300D03*
%TO.N,NET96*%
X48259300Y-24686700D03*
%TO.N,0V*%
X50850000Y-28600000D03*
X50950000Y-31700000D03*
%TO.N,VBAT_F*%
X50989500Y-32801100D03*
%TO.N,0V*%
X50850000Y-34100000D03*
%TO.N,MUX_ON*%
X51650100Y-35250000D03*
%TO.N,0V*%
X52500000Y-36100000D03*
%TO.N,SDA*%
X51050000Y-36950000D03*
%TO.N,SCL*%
X51050000Y-37850000D03*
%TO.N,3V3*%
X51050000Y-38750000D03*
%TO.N,NET81*%
X51200000Y-40850000D03*
%TO.N,NET80*%
X51700000Y-40850000D03*
%TO.N,CAP_CH0*%
X52200000Y-40850000D03*
%TO.N,NET82*%
X52700000Y-40850000D03*
%TO.N,MUX_VCC*%
X53750000Y-40200000D03*
%TO.N,0V*%
X53750000Y-39050000D03*
%TO.N,TEMP_S2*%
X54654700Y-39450300D03*
%TO.N,NET85*%
X54654700Y-38180300D03*
%TO.N,NET83*%
X54654700Y-36910300D03*
%TO.N,NET84*%
X54654700Y-35640300D03*
%TO.N,NET82*%
X54654700Y-34370300D03*
%TO.N,TEMP_S0*%
X54654700Y-33100300D03*
%TO.N,NET80*%
X54654700Y-31830300D03*
%TO.N,NET81*%
X54654700Y-30560300D03*
%TO.N,TEMP_S1*%
X54654700Y-29290300D03*
%TO.N,0V*%
X56250000Y-27656800D03*
X56650000Y-27550000D03*
%TO.N,MUX_VCC*%
X53200100Y-31799900D03*
X53200100Y-32199900D03*
%TO.N,3V3*%
X53050100Y-33349900D03*
X52650100Y-33349900D03*
%TO.N,0V*%
X49800000Y-36150000D03*
%TO.N,NET46*%
X48800000Y-36150000D03*
%TO.N,3V3*%
X48100000Y-37350000D03*
%TO.N,0V*%
X48100000Y-38350000D03*
%TO.N,3V3*%
X48850000Y-39700000D03*
%TO.N,0V*%
X49850000Y-39800000D03*
X50200000Y-40850000D03*
X49000000Y-41500000D03*
X47500000Y-42150000D03*
X45850000Y-42200000D03*
%TO.N,CAP_CH0*%
X44950000Y-42250000D03*
%TO.N,MUX_ON*%
X44600000Y-41850000D03*
%TO.N,TEMP_COM*%
X44600000Y-42650000D03*
%TO.N,CAP_CH1*%
X44950000Y-43050000D03*
%TO.N,SCL*%
X44600000Y-43450000D03*
%TO.N,SDA*%
X44950000Y-43850000D03*
%TO.N,NET46*%
X44600000Y-44250000D03*
%TO.N,0V*%
X45907000Y-43892900D03*
X47099900Y-45450000D03*
%TO.N,VSYS*%
X47900000Y-47000000D03*
X48300000Y-47000000D03*
X48700000Y-47000000D03*
%TO.N,0V*%
X49300000Y-47100000D03*
X49650000Y-46700000D03*
X49000000Y-46250000D03*
X49300000Y-45150000D03*
%TO.N,CAP_S2*%
X49700000Y-44750000D03*
%TO.N,CAP_S1*%
X50200000Y-44750000D03*
%TO.N,CAP_S0*%
X50700000Y-44750000D03*
%TO.N,NET124*%
X51200000Y-44750000D03*
%TO.N,NET123*%
X51700000Y-44750000D03*
%TO.N,NET84*%
X52200000Y-44750000D03*
%TO.N,NET83*%
X52700000Y-44750000D03*
%TO.N,0V*%
X53950000Y-45050000D03*
%TO.N,NET90*%
X54654700Y-44530300D03*
%TO.N,TEMP_S3*%
X54654700Y-45800300D03*
%TO.N,TEMP_COM*%
X54350000Y-47300000D03*
%TO.N,0V*%
X53700000Y-48250000D03*
%TO.N,MUX_VCC*%
X53650000Y-49000000D03*
%TO.N,NET90*%
X52700000Y-49650000D03*
%TO.N,CAP_CH1*%
X52200000Y-49650000D03*
%TO.N,NET87*%
X51700000Y-49650000D03*
%TO.N,NET86*%
X51200000Y-49650000D03*
%TO.N,0V*%
X50200000Y-49650000D03*
X49250000Y-48650000D03*
X47600000Y-50600000D03*
X45700000Y-51150000D03*
X46050000Y-51900000D03*
X45450000Y-52250000D03*
X45450000Y-53250000D03*
X45450000Y-54000000D03*
X44450000Y-54000000D03*
X44450000Y-53400000D03*
X44450000Y-52800000D03*
X44450000Y-52200000D03*
X44200000Y-50350000D03*
X43700000Y-50050000D03*
X43100000Y-49700000D03*
X42500000Y-49350000D03*
X42900000Y-48800000D03*
X43250000Y-48150000D03*
X43800000Y-47900000D03*
X44150000Y-48450000D03*
X44200000Y-49350000D03*
X45700000Y-49350000D03*
X41400000Y-48700000D03*
X40900000Y-48450000D03*
X40400000Y-48150000D03*
X40500000Y-47450000D03*
X40350000Y-46600000D03*
X40350000Y-45900000D03*
%TO.N,SWDIO*%
X39300000Y-45550000D03*
%TO.N,SWDCLK*%
X38750000Y-45550000D03*
%TO.N,MCU_RST*%
X38200000Y-45550000D03*
%TO.N,3V3*%
X38349900Y-47650000D03*
%TO.N,0V*%
X39250000Y-47650000D03*
X39850000Y-47850000D03*
X42000000Y-47500000D03*
%TO.N,3V3*%
X43800000Y-45150000D03*
%TO.N,0V*%
X51150000Y-46700000D03*
X51850000Y-46700000D03*
X52750000Y-46700000D03*
%TO.N,NET85*%
X53900000Y-42550000D03*
%TO.N,NET86*%
X54654700Y-41990300D03*
%TO.N,NET89*%
X54654700Y-40720300D03*
%TO.N,NET87*%
X54654700Y-43260300D03*
%TO.N,TEMP_S4*%
X54654700Y-50880300D03*
%TO.N,NET89*%
X53900000Y-51350000D03*
%TO.N,NET91*%
X54654700Y-52150300D03*
%TO.N,NET88*%
X54654700Y-53420300D03*
%TO.N,0V*%
X55600000Y-53500000D03*
X56750000Y-53950000D03*
X53950000Y-53850000D03*
%TO.N,NET88*%
X52700000Y-53550000D03*
%TO.N,NET91*%
X52200000Y-53550000D03*
%TO.N,NET122*%
X51700000Y-53550000D03*
%TO.N,NET121*%
X51200000Y-53550000D03*
%TO.N,CAP_S0*%
X50700000Y-53550000D03*
%TO.N,CAP_S1*%
X50200000Y-53550000D03*
%TO.N,CAP_S2*%
X49700000Y-53550000D03*
%TO.N,0V*%
X49200000Y-54000000D03*
X47250000Y-53250000D03*
X46650000Y-39000000D03*
%TO.N,NET100*%
X46405600Y-21140800D03*
X47350000Y-21050000D03*
%TO.N,NET99*%
X47750000Y-21450000D03*
%TO.N,NET101*%
X46492200Y-20138200D03*
%TO.N,NET102*%
X45594100Y-19240200D03*
%TO.N,MUX_VCC*%
X44567200Y-19655900D03*
%TO.N,0V*%
X44334800Y-18994500D03*
%TO.N,NET103*%
X44696100Y-18342200D03*
%TO.N,NET106*%
X43798100Y-17444200D03*
%TO.N,NET107*%
X42531700Y-17262100D03*
X42900100Y-16546100D03*
%TO.N,NET108*%
X42002000Y-15648100D03*
%TO.N,MUX_VCC*%
X40693200Y-15777300D03*
%TO.N,NET110*%
X40481100Y-16908600D03*
%TO.N,FSR_CH0*%
X40127500Y-17262100D03*
%TO.N,NET105*%
X39774000Y-17615700D03*
%TO.N,NET104*%
X39420400Y-17969200D03*
%TO.N,0V*%
X38713300Y-18676300D03*
X38350000Y-17000000D03*
X38350000Y-15300000D03*
X38300000Y-13350000D03*
%TO.N,NET104*%
X38409900Y-12056000D03*
%TO.N,NET105*%
X39308000Y-12954000D03*
%TO.N,NET110*%
X40206000Y-13852100D03*
%TO.N,NET109*%
X41104000Y-14750100D03*
%TO.N,FSR_S0*%
X41824600Y-21080500D03*
%TO.N,FSR_S1*%
X41471000Y-21434100D03*
%TO.N,FSR_S2*%
X41117500Y-21787600D03*
%TO.N,0V*%
X39751000Y-21749000D03*
X38549000Y-21749000D03*
X38350000Y-20450000D03*
%TO.N,NET109*%
X42178200Y-20727000D03*
%TO.N,NET129*%
X42531700Y-20373400D03*
%TO.N,NET108*%
X42885300Y-20019800D03*
%TO.N,NET106*%
X43238800Y-19666300D03*
%TO.N,NET101*%
X43294400Y-21847900D03*
%TO.N,NET102*%
X43647900Y-21494400D03*
%TO.N,FSR_CH1*%
X44001500Y-21140800D03*
%TO.N,NET103*%
X44355000Y-20787300D03*
D16*
%TO.N,0V*%
X40300000Y-42900000D03*
X41900000Y-42900000D03*
X41900000Y-41200000D03*
X40300000Y-41200000D03*
%TO.N,MUX_VCC*%
X51450000Y-42800000D03*
X51450000Y-51600000D03*
X48754200Y-26949500D03*
X44850000Y-23050000D03*
X40976100Y-19171300D03*
%TD*%
D17*
%TO.N,FSR_S0*%
X45700900Y-24956800D02*
X49602800Y-28858700D01*
X41824600Y-21080500D02*
X45700900Y-24956800D01*
%TO.N,CAP_S1*%
X50400000Y-48760900D02*
X50400000Y-45150000D01*
X50200000Y-44950000D02*
X50400000Y-45150000D01*
X50200000Y-44950000D02*
X50200000Y-44750000D01*
%TO.N,CAP_S2*%
X50100000Y-48495200D02*
X50100000Y-45350000D01*
X49700000Y-44950000D02*
X50100000Y-45350000D01*
X49700000Y-44950000D02*
X49700000Y-44750000D01*
X49434700Y-49160500D02*
X50100000Y-48495200D01*
%TO.N,CAP_S1*%
X49752900Y-49408000D02*
X50400000Y-48760900D01*
%TO.N,NET89*%
X53900000Y-50698500D02*
X55400000Y-49198500D01*
X55400000Y-49198500D02*
X55400000Y-46600000D01*
X55400000Y-46600000D02*
X55700000Y-46300000D01*
X55700000Y-46300000D02*
X55700000Y-41765600D01*
%TO.N,NET86*%
X53774300Y-50400000D02*
X55100000Y-49074300D01*
X55100000Y-49074300D02*
X55100000Y-46450000D01*
X55100000Y-46450000D02*
X55400000Y-46150000D01*
X55400000Y-46150000D02*
X55400000Y-42735600D01*
%TO.N,NET87*%
X53650000Y-50100000D02*
X54800000Y-48950000D01*
X54800000Y-48950000D02*
X54800000Y-46300000D01*
X54800000Y-46300000D02*
X55100000Y-46000000D01*
X55100000Y-46000000D02*
X55100000Y-43705600D01*
%TO.N,NET90*%
X53650000Y-49650000D02*
X54225000Y-49075000D01*
X54225000Y-49075000D02*
X54225000Y-47975000D01*
X53900000Y-47650000D02*
X54225000Y-47975000D01*
X53900000Y-47650000D02*
X53900000Y-47050000D01*
X53900000Y-47050000D02*
X54200000Y-46750000D01*
%TO.N,NET98*%
X48800000Y-21800000D02*
X49532300Y-22532400D01*
X48300000Y-21800000D02*
X48800000Y-21800000D01*
X48150000Y-21950000D02*
X48300000Y-21800000D01*
X47450000Y-21950000D02*
X48150000Y-21950000D01*
X46450000Y-22950000D02*
X47450000Y-21950000D01*
%TO.N,NET101*%
X43294400Y-21847900D02*
X43396500Y-21950000D01*
X43396500Y-21950000D02*
X44300000Y-21950000D01*
%TO.N,MCU_RST*%
X43100000Y-42900000D02*
X43100000Y-37200000D01*
X42750000Y-36850000D02*
X43100000Y-37200000D01*
X41040000Y-36850000D02*
X42750000Y-36850000D01*
X40290000Y-36100000D02*
X41040000Y-36850000D01*
%TO.N,SWDCLK*%
X40290000Y-34830000D02*
X41120000Y-34000000D01*
%TO.N,SWDIO*%
X41560000Y-34830000D02*
X42090000Y-34300000D01*
%TO.N,SWDCLK*%
X41120000Y-34000000D02*
X43124200Y-34000000D01*
%TO.N,SWDIO*%
X42090000Y-34300000D02*
X43000000Y-34300000D01*
%TO.N,SWDCLK*%
X43124200Y-34000000D02*
X44000000Y-34875800D01*
%TO.N,SWDIO*%
X43000000Y-34300000D02*
X43700000Y-35000000D01*
%TO.N,SWDCLK*%
X44000000Y-36598500D02*
X44000000Y-34875800D01*
%TO.N,SWDIO*%
X43700000Y-36474300D02*
X43700000Y-35000000D01*
%TO.N,SWDCLK*%
X43700000Y-36898600D02*
X44000000Y-36598500D01*
%TO.N,SWDIO*%
X43400000Y-36774300D02*
X43700000Y-36474300D01*
%TO.N,SWDCLK*%
X43700000Y-43148600D02*
X43700000Y-36898600D01*
%TO.N,SWDIO*%
X43400000Y-43024300D02*
X43400000Y-36774300D01*
%TO.N,SWDCLK*%
X42498500Y-44350000D02*
X43700000Y-43148600D01*
%TO.N,SWDIO*%
X42374200Y-44050000D02*
X43400000Y-43024300D01*
%TO.N,MCU_RST*%
X42250000Y-43750000D02*
X43100000Y-42900000D01*
%TO.N,SWDCLK*%
X41150000Y-44350000D02*
X42498500Y-44350000D01*
X39100000Y-46400000D02*
X41150000Y-44350000D01*
X38750000Y-46400000D02*
X39100000Y-46400000D01*
%TO.N,MCU_RST*%
X39400000Y-43750000D02*
X42250000Y-43750000D01*
X38300000Y-44850000D02*
X39400000Y-43750000D01*
X37750000Y-44850000D02*
X38300000Y-44850000D01*
%TO.N,SWDIO*%
X40300000Y-44050000D02*
X42374200Y-44050000D01*
X39650000Y-44700000D02*
X40300000Y-44050000D01*
%TO.N,VBAT_F*%
X41564200Y-28035500D02*
X44585500Y-28035500D01*
X41564200Y-27100000D02*
X41564200Y-25772800D01*
X49351000Y-32801100D02*
X50989500Y-32801100D01*
X44585500Y-28035500D02*
X49351000Y-32801100D01*
X41564200Y-25772800D02*
X42518800Y-24818200D01*
%TO.N,NET90*%
X54200000Y-46750000D02*
X54200000Y-45500000D01*
%TO.N,CAP_S0*%
X50700000Y-53550000D02*
X50700000Y-44750000D01*
%TO.N,CAP_S2*%
X49434700Y-50221200D02*
X49434700Y-49160500D01*
X49434700Y-50221200D02*
X49700000Y-50486400D01*
X49700000Y-53550000D02*
X49700000Y-50486400D01*
%TO.N,CAP_S1*%
X50200000Y-53550000D02*
X50200000Y-50420700D01*
X49752900Y-49973700D02*
X50200000Y-50420700D01*
X49752900Y-49973700D02*
X49752900Y-49408000D01*
%TO.N,FSR_S1*%
X45375300Y-25333500D02*
X46004200Y-25962500D01*
X46004200Y-26599500D02*
X46004200Y-25962500D01*
X46004200Y-26599500D02*
X46404200Y-26999500D01*
X46404200Y-26999500D02*
X47036500Y-26999500D01*
X47036500Y-26999500D02*
X49249200Y-29212200D01*
%TO.N,FSR_S2*%
X46729400Y-27399500D02*
X48895700Y-29565800D01*
X46354200Y-27399500D02*
X46729400Y-27399500D01*
X45604200Y-26649500D02*
X46354200Y-27399500D01*
X45604200Y-26649500D02*
X45604200Y-26269600D01*
X45021700Y-25687100D02*
X45604200Y-26269600D01*
X41117500Y-21787600D02*
X41700000Y-22370100D01*
X41700000Y-22750000D02*
X41700000Y-22370100D01*
X41700000Y-22750000D02*
X42450000Y-23500000D01*
X42450000Y-23500000D02*
X42825100Y-23500000D01*
X42825100Y-23500000D02*
X44991400Y-25666300D01*
%TO.N,FSR_S1*%
X43132200Y-23100000D02*
X45345000Y-25312700D01*
X42500000Y-23100000D02*
X43132200Y-23100000D01*
X42100000Y-22700000D02*
X42500000Y-23100000D01*
X42100000Y-22700000D02*
X42100000Y-22063000D01*
X41471000Y-21434100D02*
X42100000Y-22063000D01*
%TO.N,NET103*%
X44355000Y-20787300D02*
X45000000Y-20142300D01*
%TO.N,NET81*%
X53900000Y-31315000D02*
X54654700Y-30560300D01*
%TO.N,NET80*%
X54200000Y-32285000D02*
X54654700Y-31830300D01*
%TO.N,NET81*%
X53900000Y-34225700D02*
X53900000Y-31315000D01*
%TO.N,NET80*%
X54200000Y-34350000D02*
X54200000Y-32285000D01*
%TO.N,NET81*%
X53300000Y-34825800D02*
X53900000Y-34225700D01*
%TO.N,NET80*%
X53600000Y-34950000D02*
X54200000Y-34350000D01*
%TO.N,NET82*%
X53900000Y-35125000D02*
X54654700Y-34370300D01*
%TO.N,NET84*%
X54200000Y-36095000D02*
X54654700Y-35640300D01*
%TO.N,NET83*%
X54654700Y-37495300D02*
X54654700Y-36910300D01*
%TO.N,NET85*%
X54200000Y-38635000D02*
X54654700Y-38180300D01*
%TO.N,NET81*%
X53300000Y-37153000D02*
X53300000Y-34825800D01*
%TO.N,NET80*%
X53600000Y-37277200D02*
X53600000Y-34950000D01*
%TO.N,NET82*%
X53900000Y-37401500D02*
X53900000Y-35125000D01*
%TO.N,NET84*%
X54200000Y-37525800D02*
X54200000Y-36095000D01*
X53000000Y-38725700D02*
X54200000Y-37525800D01*
%TO.N,NET82*%
X52700000Y-38601500D02*
X53900000Y-37401500D01*
%TO.N,NET80*%
X52400000Y-38477200D02*
X53600000Y-37277200D01*
%TO.N,NET81*%
X52100000Y-38353000D02*
X53300000Y-37153000D01*
%TO.N,NET83*%
X53300000Y-38850000D02*
X54654700Y-37495300D01*
%TO.N,NET80*%
X52400000Y-40000000D02*
X52400000Y-38477200D01*
X51700000Y-40700000D02*
X52400000Y-40000000D01*
X51700000Y-40850000D02*
X51700000Y-40700000D01*
%TO.N,NET81*%
X52100000Y-39800000D02*
X52100000Y-38353000D01*
X51200000Y-40700000D02*
X52100000Y-39800000D01*
X51200000Y-40850000D02*
X51200000Y-40700000D01*
%TO.N,NET82*%
X52700000Y-40850000D02*
X52700000Y-38601500D01*
%TO.N,NET84*%
X53000000Y-40550000D02*
X53000000Y-38725700D01*
X53000000Y-40550000D02*
X53150000Y-40700000D01*
%TO.N,NET83*%
X53300000Y-40400000D02*
X53300000Y-38850000D01*
X53300000Y-40400000D02*
X53450000Y-40550000D01*
X53450000Y-41750000D02*
X53450000Y-40550000D01*
X52700000Y-42500000D02*
X53450000Y-41750000D01*
X52700000Y-44750000D02*
X52700000Y-42500000D01*
%TO.N,NET84*%
X53150000Y-41500000D02*
X53150000Y-40700000D01*
X52200000Y-42450000D02*
X53150000Y-41500000D01*
X52200000Y-44750000D02*
X52200000Y-42450000D01*
%TO.N,NET85*%
X54200000Y-42250000D02*
X54200000Y-38635000D01*
X53900000Y-42550000D02*
X54200000Y-42250000D01*
%TO.N,NET86*%
X51750000Y-50400000D02*
X53774300Y-50400000D01*
X51200000Y-49850000D02*
X51750000Y-50400000D01*
X51200000Y-49850000D02*
X51200000Y-49650000D01*
%TO.N,NET87*%
X52000000Y-50100000D02*
X53650000Y-50100000D01*
X51700000Y-49800000D02*
X52000000Y-50100000D01*
X51700000Y-49800000D02*
X51700000Y-49650000D01*
%TO.N,NET90*%
X54200000Y-45500000D02*
X54654700Y-45045300D01*
%TO.N,NET88*%
X54584400Y-53350000D02*
X54654700Y-53420300D01*
X52900000Y-53350000D02*
X54584400Y-53350000D01*
X52700000Y-53550000D02*
X52900000Y-53350000D01*
%TO.N,NET89*%
X53900000Y-51350000D02*
X53900000Y-50698500D01*
%TO.N,NET90*%
X52700000Y-49650000D02*
X53650000Y-49650000D01*
%TO.N,NET89*%
X54654700Y-40720300D02*
X55700000Y-41765600D01*
%TO.N,NET86*%
X54654700Y-41990300D02*
X55400000Y-42735600D01*
%TO.N,NET87*%
X54654700Y-43260300D02*
X55100000Y-43705600D01*
%TO.N,NET90*%
X54654700Y-45045300D02*
X54654700Y-44530300D01*
%TO.N,NET91*%
X52200000Y-53550000D02*
X52200000Y-53200000D01*
X52200000Y-53200000D02*
X52450000Y-52950000D01*
X52450000Y-52950000D02*
X53855000Y-52950000D01*
X53855000Y-52950000D02*
X54654700Y-52150300D01*
%TO.N,NET96*%
X48259300Y-24686700D02*
X48869600Y-24076400D01*
%TO.N,NET94*%
X50309900Y-25040300D02*
X50719600Y-25450000D01*
%TO.N,NET92*%
X53291000Y-27900000D02*
X53522500Y-27668500D01*
X50765400Y-27900000D02*
X53291000Y-27900000D01*
X50663400Y-27798000D02*
X50765400Y-27900000D01*
%TO.N,NET93*%
X52450500Y-27444500D02*
X53124500Y-26770500D01*
X51017000Y-27444500D02*
X52450500Y-27444500D01*
%TO.N,NET95*%
X48250000Y-25450000D02*
X49100000Y-24600000D01*
X47608300Y-25450000D02*
X48250000Y-25450000D01*
X47552200Y-25393900D02*
X47608300Y-25450000D01*
%TO.N,NET94*%
X50719600Y-25450000D02*
X51804000Y-25450000D01*
X51804000Y-25450000D02*
X52226400Y-25872500D01*
%TO.N,NET95*%
X49100000Y-24600000D02*
X50954000Y-24600000D01*
X50954000Y-24600000D02*
X51328400Y-24974400D01*
%TO.N,NET96*%
X48869600Y-24076400D02*
X50430400Y-24076400D01*
%TO.N,NET99*%
X45750000Y-24303600D02*
X46052100Y-24605700D01*
%TO.N,NET97*%
X47112700Y-22787300D02*
X47112700Y-23545000D01*
X47112700Y-22787300D02*
X47619600Y-22280400D01*
X47619600Y-22280400D02*
X48634300Y-22280400D01*
%TO.N,NET98*%
X46450000Y-23589300D02*
X46450000Y-22950000D01*
X46450000Y-23589300D02*
X46759200Y-23898500D01*
X49532300Y-23178400D02*
X49532300Y-22532400D01*
%TO.N,NET99*%
X45750000Y-23100000D02*
X47400000Y-21450000D01*
X45750000Y-24303600D02*
X45750000Y-23100000D01*
%TO.N,NET100*%
X46405600Y-21140800D02*
X46496400Y-21050000D01*
X46496400Y-21050000D02*
X47350000Y-21050000D01*
%TO.N,NET102*%
X44200000Y-21600000D02*
X45594100Y-20205800D01*
X43753600Y-21600000D02*
X44200000Y-21600000D01*
X43647900Y-21494400D02*
X43753600Y-21600000D01*
%TO.N,NET99*%
X47400000Y-21450000D02*
X47750000Y-21450000D01*
%TO.N,NET101*%
X44300000Y-21950000D02*
X46111800Y-20138200D01*
X46111800Y-20138200D02*
X46492200Y-20138200D01*
%TO.N,NET102*%
X45594100Y-20205800D02*
X45594100Y-19240200D01*
%TO.N,NET103*%
X45000000Y-20142300D02*
X45000000Y-18646000D01*
X44696100Y-18342200D02*
X45000000Y-18646000D01*
%TO.N,NET104*%
X39250000Y-17798800D02*
X39250000Y-13500000D01*
X38409900Y-12660000D02*
X39250000Y-13500000D01*
X38409900Y-12660000D02*
X38409900Y-12056000D01*
X39250000Y-17798800D02*
X39420400Y-17969200D01*
%TO.N,NET105*%
X39308000Y-12954000D02*
X39700000Y-13346000D01*
X39700000Y-17541700D02*
X39700000Y-13346000D01*
X39700000Y-17541700D02*
X39774000Y-17615700D01*
%TO.N,NET106*%
X43238800Y-19666300D02*
X43238800Y-18003400D01*
%TO.N,NET107*%
X42531700Y-17262100D02*
X42531700Y-16914500D01*
%TO.N,NET108*%
X42002000Y-19136600D02*
X42885300Y-20019800D01*
%TO.N,NET109*%
X41550000Y-20098800D02*
X42178200Y-20727000D01*
%TO.N,NET106*%
X43238800Y-18003400D02*
X43798100Y-17444200D01*
%TO.N,NET107*%
X42531700Y-16914500D02*
X42900100Y-16546100D01*
%TO.N,NET108*%
X42002000Y-19136600D02*
X42002000Y-15648100D01*
%TO.N,NET109*%
X41550000Y-20098800D02*
X41550000Y-15196000D01*
X41104000Y-14750100D02*
X41550000Y-15196000D01*
%TO.N,NET110*%
X40206000Y-16633500D02*
X40481100Y-16908600D01*
X40206000Y-16633500D02*
X40206000Y-13852100D01*
D18*
%TO.N,3V3*%
X52650100Y-33349900D02*
X53050100Y-33349900D01*
%TO.N,MUX_VCC*%
X53200100Y-32199900D02*
X53200100Y-31799900D01*
%TO.N,MCU_RST*%
X37750000Y-45100000D02*
X38200000Y-45550000D01*
%TO.N,SWDIO*%
X39300000Y-45050000D02*
X39650000Y-44700000D01*
X39300000Y-45550000D02*
X39300000Y-45050000D01*
%TO.N,SWDCLK*%
X38750000Y-46400000D02*
X38750000Y-45550000D01*
D19*
%TO.N,3V3*%
X42023800Y-32667100D02*
X42306700Y-32950000D01*
X41306700Y-31950000D02*
X42023800Y-32667100D01*
%TO.N,VSYS*%
X48300000Y-47000000D02*
X48300000Y-41750000D01*
%TO.N,0V*%
X39150000Y-22350000D02*
X39751000Y-22951000D01*
X38549000Y-22951000D02*
X39150000Y-22350000D01*
X39150000Y-22350000D02*
X39751000Y-21749000D01*
X38549000Y-21749000D02*
X39150000Y-22350000D01*
%TO.N,VBAT_F*%
X41564200Y-28035500D02*
X41564200Y-27100000D01*
%TO.N,VSYS*%
X44750000Y-31000000D02*
X47400000Y-33650000D01*
X44260500Y-30510500D02*
X44750000Y-31000000D01*
X47400000Y-40850000D02*
X48300000Y-41750000D01*
X47400000Y-40850000D02*
X47400000Y-33650000D01*
X43968400Y-30510500D02*
X44260500Y-30510500D01*
X43685500Y-30227700D02*
X43968400Y-30510500D01*
X48300000Y-47000000D02*
X48700000Y-47000000D01*
X47900000Y-47000000D02*
X48300000Y-47000000D01*
D20*
%TO.N,NET147*%
X36200000Y-74600300D02*
X36200000Y-75800000D01*
X36200000Y-74600300D02*
X36714200Y-74600300D01*
X36714200Y-74600300D02*
X36885600Y-74657400D01*
X36885600Y-74657400D02*
X36942700Y-74714500D01*
X36942700Y-74714500D02*
X36999800Y-74828800D01*
X36999800Y-74828800D02*
X36999800Y-74943000D01*
X36999800Y-74943000D02*
X36942700Y-75057300D01*
X36942700Y-75057300D02*
X36885600Y-75114400D01*
X36885600Y-75114400D02*
X36714200Y-75171600D01*
X36200000Y-75171600D02*
X36714200Y-75171600D01*
X36714200Y-75171600D02*
X36885600Y-75228700D01*
X36885600Y-75228700D02*
X36942700Y-75285800D01*
X36942700Y-75285800D02*
X36999800Y-75400100D01*
X36999800Y-75400100D02*
X36999800Y-75571500D01*
X36999800Y-75571500D02*
X36942700Y-75685700D01*
X36942700Y-75685700D02*
X36885600Y-75742900D01*
X36885600Y-75742900D02*
X36714200Y-75800000D01*
X36714200Y-75800000D02*
X36200000Y-75800000D01*
%TO.N,NET148*%
X37554000Y-75000200D02*
X37439700Y-75057300D01*
X37439700Y-75057300D02*
X37325500Y-75171600D01*
X37325500Y-75171600D02*
X37268300Y-75343000D01*
X37268300Y-75343000D02*
X37268300Y-75457200D01*
X37268300Y-75457200D02*
X37325500Y-75628600D01*
X37325500Y-75628600D02*
X37439700Y-75742900D01*
X37439700Y-75742900D02*
X37554000Y-75800000D01*
X37554000Y-75800000D02*
X37725400Y-75800000D01*
X37725400Y-75800000D02*
X37839700Y-75742900D01*
X37839700Y-75742900D02*
X37953900Y-75628600D01*
X37953900Y-75628600D02*
X38011000Y-75457200D01*
X38011000Y-75457200D02*
X38011000Y-75343000D01*
X38011000Y-75343000D02*
X37953900Y-75171600D01*
X37953900Y-75171600D02*
X37839700Y-75057300D01*
X37839700Y-75057300D02*
X37725400Y-75000200D01*
X37725400Y-75000200D02*
X37554000Y-75000200D01*
%TO.N,NET149*%
X38445200Y-74600300D02*
X38445200Y-75571500D01*
X38445200Y-75571500D02*
X38502300Y-75742900D01*
X38502300Y-75742900D02*
X38616600Y-75800000D01*
X38616600Y-75800000D02*
X38730900Y-75800000D01*
X38273800Y-75000200D02*
X38673800Y-75000200D01*
%TO.N,NET150*%
X39073700Y-74600300D02*
X39073700Y-75571500D01*
X39073700Y-75571500D02*
X39130800Y-75742900D01*
X39130800Y-75742900D02*
X39245100Y-75800000D01*
X39245100Y-75800000D02*
X39359300Y-75800000D01*
X38902300Y-75000200D02*
X39302200Y-75000200D01*
%TO.N,NET151*%
X39816400Y-75000200D02*
X39702100Y-75057300D01*
X39702100Y-75057300D02*
X39587800Y-75171600D01*
X39587800Y-75171600D02*
X39530700Y-75343000D01*
X39530700Y-75343000D02*
X39530700Y-75457200D01*
X39530700Y-75457200D02*
X39587800Y-75628600D01*
X39587800Y-75628600D02*
X39702100Y-75742900D01*
X39702100Y-75742900D02*
X39816400Y-75800000D01*
X39816400Y-75800000D02*
X39987800Y-75800000D01*
X39987800Y-75800000D02*
X40102000Y-75742900D01*
X40102000Y-75742900D02*
X40216300Y-75628600D01*
X40216300Y-75628600D02*
X40273400Y-75457200D01*
X40273400Y-75457200D02*
X40273400Y-75343000D01*
X40273400Y-75343000D02*
X40216300Y-75171600D01*
X40216300Y-75171600D02*
X40102000Y-75057300D01*
X40102000Y-75057300D02*
X39987800Y-75000200D01*
X39987800Y-75000200D02*
X39816400Y-75000200D01*
%TO.N,NET152*%
X40536200Y-75000200D02*
X40536200Y-75800000D01*
X40536200Y-75228700D02*
X40707600Y-75057300D01*
X40707600Y-75057300D02*
X40821900Y-75000200D01*
X40821900Y-75000200D02*
X40993300Y-75000200D01*
X40993300Y-75000200D02*
X41107500Y-75057300D01*
X41107500Y-75057300D02*
X41164600Y-75228700D01*
X41164600Y-75228700D02*
X41164600Y-75800000D01*
X41164600Y-75228700D02*
X41336000Y-75057300D01*
X41336000Y-75057300D02*
X41450300Y-75000200D01*
X41450300Y-75000200D02*
X41621700Y-75000200D01*
X41621700Y-75000200D02*
X41736000Y-75057300D01*
X41736000Y-75057300D02*
X41793100Y-75228700D01*
X41793100Y-75228700D02*
X41793100Y-75800000D01*
%TO.N,NET153*%
X43112800Y-74600300D02*
X43112800Y-75800000D01*
X43112800Y-75800000D02*
X43798400Y-75800000D01*
%TO.N,NET154*%
X44615300Y-75000200D02*
X44615300Y-75800000D01*
X44615300Y-75171600D02*
X44501100Y-75057300D01*
X44501100Y-75057300D02*
X44386800Y-75000200D01*
X44386800Y-75000200D02*
X44215400Y-75000200D01*
X44215400Y-75000200D02*
X44101200Y-75057300D01*
X44101200Y-75057300D02*
X43986900Y-75171600D01*
X43986900Y-75171600D02*
X43929800Y-75343000D01*
X43929800Y-75343000D02*
X43929800Y-75457200D01*
X43929800Y-75457200D02*
X43986900Y-75628600D01*
X43986900Y-75628600D02*
X44101200Y-75742900D01*
X44101200Y-75742900D02*
X44215400Y-75800000D01*
X44215400Y-75800000D02*
X44386800Y-75800000D01*
X44386800Y-75800000D02*
X44501100Y-75742900D01*
X44501100Y-75742900D02*
X44615300Y-75628600D01*
%TO.N,NET155*%
X44992400Y-75000200D02*
X45335200Y-75800000D01*
X45678000Y-75000200D02*
X45335200Y-75800000D01*
X45335200Y-75800000D02*
X45220900Y-76028500D01*
X45220900Y-76028500D02*
X45106700Y-76142800D01*
X45106700Y-76142800D02*
X44992400Y-76199900D01*
X44992400Y-76199900D02*
X44935300Y-76199900D01*
%TO.N,NET156*%
X45877900Y-75343000D02*
X46563500Y-75343000D01*
X46563500Y-75343000D02*
X46563500Y-75228700D01*
X46563500Y-75228700D02*
X46506300Y-75114400D01*
X46506300Y-75114400D02*
X46449200Y-75057300D01*
X46449200Y-75057300D02*
X46335000Y-75000200D01*
X46335000Y-75000200D02*
X46163600Y-75000200D01*
X46163600Y-75000200D02*
X46049300Y-75057300D01*
X46049300Y-75057300D02*
X45935100Y-75171600D01*
X45935100Y-75171600D02*
X45877900Y-75343000D01*
X45877900Y-75343000D02*
X45877900Y-75457200D01*
X45877900Y-75457200D02*
X45935100Y-75628600D01*
X45935100Y-75628600D02*
X46049300Y-75742900D01*
X46049300Y-75742900D02*
X46163600Y-75800000D01*
X46163600Y-75800000D02*
X46335000Y-75800000D01*
X46335000Y-75800000D02*
X46449200Y-75742900D01*
X46449200Y-75742900D02*
X46563500Y-75628600D01*
%TO.N,NET157*%
X46820600Y-75000200D02*
X46820600Y-75800000D01*
X46820600Y-75343000D02*
X46877700Y-75171600D01*
X46877700Y-75171600D02*
X46992000Y-75057300D01*
X46992000Y-75057300D02*
X47106200Y-75000200D01*
X47106200Y-75000200D02*
X47277600Y-75000200D01*
%TD*%
%TA.AperFunction,Conductor*%
%TO.N,0V*%
G36*
X55156500Y-42836500D02*
G01*
X55156500Y-43219800D01*
X55006400Y-43234600D01*
X54984400Y-43123700D01*
X54907000Y-43008000D01*
X54791300Y-42930600D01*
X54654700Y-42903400D01*
X54518200Y-42930600D01*
X54402400Y-43008000D01*
X54325000Y-43123700D01*
X54297900Y-43260300D01*
X54325000Y-43396900D01*
X54402400Y-43512600D01*
X54518200Y-43590000D01*
X54654700Y-43617200D01*
X54665100Y-43615100D01*
X54856400Y-43806400D01*
X54856400Y-44077500D01*
X54706500Y-44183700D01*
X54654700Y-44173400D01*
X54518200Y-44200600D01*
X54402400Y-44278000D01*
X54325000Y-44393700D01*
X54297900Y-44530300D01*
X54325000Y-44666900D01*
X54402400Y-44782600D01*
X54411200Y-44788500D01*
X54411200Y-44944400D01*
X54027800Y-45327800D01*
X53956500Y-45500000D01*
X53956500Y-46649100D01*
X53727800Y-46877800D01*
X53656500Y-47050000D01*
X53656500Y-47650000D01*
X53727800Y-47822200D01*
X53981400Y-48075900D01*
X53981400Y-48620200D01*
X53831500Y-48700400D01*
X53786500Y-48670400D01*
X53650000Y-48643200D01*
X53513400Y-48670400D01*
X53397600Y-48747700D01*
X53320300Y-48863500D01*
X53293100Y-49000000D01*
X53320300Y-49136600D01*
X53397600Y-49252400D01*
X53403700Y-49256500D01*
X53358200Y-49406500D01*
X52958200Y-49406500D01*
X52952300Y-49397700D01*
X52836500Y-49320300D01*
X52700000Y-49293200D01*
X52563400Y-49320300D01*
X52450000Y-49396100D01*
X52336500Y-49320300D01*
X52200000Y-49293200D01*
X52063400Y-49320300D01*
X51950000Y-49396100D01*
X51836500Y-49320300D01*
X51700000Y-49293200D01*
X51563400Y-49320300D01*
X51450000Y-49396100D01*
X51336500Y-49320300D01*
X51200000Y-49293200D01*
X51093500Y-49314300D01*
X50989400Y-49258400D01*
X50943500Y-49220000D01*
X50943500Y-45180000D01*
X50989400Y-45141600D01*
X51093500Y-45085700D01*
X51200000Y-45106900D01*
X51336500Y-45079700D01*
X51450000Y-45003900D01*
X51563400Y-45079700D01*
X51700000Y-45106900D01*
X51836500Y-45079700D01*
X51950000Y-45003900D01*
X52063400Y-45079700D01*
X52200000Y-45106900D01*
X52336600Y-45079700D01*
X52450000Y-45003900D01*
X52563400Y-45079700D01*
X52700000Y-45106900D01*
X52836500Y-45079700D01*
X52952300Y-45002300D01*
X53029700Y-44886600D01*
X53056900Y-44750000D01*
X53029700Y-44613400D01*
X52952300Y-44497700D01*
X52943500Y-44491800D01*
X52943500Y-42600900D01*
X53622200Y-41922200D01*
X53693500Y-41750000D01*
X53693500Y-40698600D01*
X53711300Y-40653900D01*
X53817300Y-40623600D01*
X53956500Y-40726600D01*
X53956500Y-42059300D01*
X53900000Y-42193100D01*
X53763400Y-42220300D01*
X53647700Y-42297700D01*
X53570300Y-42413500D01*
X53543200Y-42550000D01*
X53570300Y-42686600D01*
X53647700Y-42802300D01*
X53763400Y-42879700D01*
X53900000Y-42906900D01*
X54036600Y-42879700D01*
X54152300Y-42802300D01*
X54229700Y-42686600D01*
X54256900Y-42550000D01*
X54254800Y-42539600D01*
X54372200Y-42422200D01*
X54378500Y-42407100D01*
X54518200Y-42320000D01*
X54654700Y-42347100D01*
X54665100Y-42345100D01*
X55156500Y-42836500D01*
G37*
%TD.AperFunction*%
%TD*%
%TA.AperFunction,Conductor*%
%TO.N,0V*%
G36*
X38805400Y-35581900D02*
G01*
X38623500Y-35703500D01*
X38501900Y-35885400D01*
X38459200Y-36100000D01*
X38459600Y-36102100D01*
X38318300Y-36160600D01*
X38218600Y-36011400D01*
X38003600Y-35867700D01*
X37750000Y-35817300D01*
X37496400Y-35867700D01*
X37281400Y-36011400D01*
X37205900Y-36124400D01*
X37055900Y-36078900D01*
X37055900Y-35554700D01*
X38941990Y-35554700D01*
X38805400Y-35581900D01*
G37*
%TD.AperFunction*%
%TA.AperFunction,Conductor*%
G36*
X37055900Y-25490500D02*
G01*
X40712500Y-25490500D01*
X40739500Y-25626600D01*
X40816900Y-25742300D01*
X40932600Y-25819700D01*
X41069200Y-25846900D01*
X41170700Y-25826700D01*
X41281400Y-25887900D01*
X41320600Y-25923400D01*
X41320600Y-26267300D01*
X37055900Y-26267300D01*
X37055900Y-25490500D01*
G37*
%TD.AperFunction*%
%TA.AperFunction,Conductor*%
G36*
X42856400Y-42799100D02*
G01*
X42149100Y-43506500D01*
X39400000Y-43506500D01*
X39278200Y-43556900D01*
X39227800Y-43577800D01*
X38384600Y-44421000D01*
X38235300Y-44406300D01*
X38218600Y-44381400D01*
X38003600Y-44237700D01*
X37937300Y-44224500D01*
X37915600Y-44193300D01*
X37880400Y-44060300D01*
X37929700Y-43986600D01*
X37956800Y-43850000D01*
X37929700Y-43713400D01*
X37852300Y-43597700D01*
X37750800Y-43529800D01*
X37743200Y-43450000D01*
X37750800Y-43370200D01*
X37852300Y-43302300D01*
X37929700Y-43186600D01*
X37956800Y-43050000D01*
X37929700Y-42913500D01*
X37852300Y-42797700D01*
X37750800Y-42729800D01*
X37743200Y-42650000D01*
X37750800Y-42570200D01*
X37852300Y-42502300D01*
X37929700Y-42386600D01*
X37956800Y-42250000D01*
X37929700Y-42113500D01*
X37852300Y-41997700D01*
X37750800Y-41929800D01*
X37743200Y-41850000D01*
X37750800Y-41770200D01*
X37852300Y-41702400D01*
X37929700Y-41586600D01*
X37956800Y-41450000D01*
X37929700Y-41313400D01*
X37852300Y-41197700D01*
X37750800Y-41129800D01*
X37743200Y-41050000D01*
X37750800Y-40970200D01*
X37852300Y-40902400D01*
X37929700Y-40786600D01*
X37956800Y-40650000D01*
X37929700Y-40513500D01*
X37852300Y-40397700D01*
X37750800Y-40329800D01*
X37743200Y-40250000D01*
X37750800Y-40170200D01*
X37852300Y-40102400D01*
X37929700Y-39986600D01*
X37956800Y-39850000D01*
X37929700Y-39713500D01*
X37852300Y-39597700D01*
X37736500Y-39520300D01*
X37600000Y-39493200D01*
X37463400Y-39520300D01*
X37347700Y-39597700D01*
X37270300Y-39713500D01*
X37243100Y-39850000D01*
X37270300Y-39986600D01*
X37347700Y-40102400D01*
X37449200Y-40170200D01*
X37456800Y-40250000D01*
X37449200Y-40329800D01*
X37347700Y-40397700D01*
X37270300Y-40513500D01*
X37261700Y-40556900D01*
X37205900Y-40578700D01*
X37055900Y-40476300D01*
X37055900Y-39000500D01*
X42856400Y-39000500D01*
X42856400Y-42799100D01*
G37*
%TD.AperFunction*%
%TA.AperFunction,Conductor*%
G36*
X37055900Y-30228200D02*
G01*
X43277800Y-30228200D01*
X43308700Y-30383700D01*
X43397100Y-30516000D01*
X43680000Y-30798900D01*
X43812300Y-30887300D01*
X43832930Y-30891400D01*
X37055900Y-30891400D01*
X37055900Y-30228200D01*
G37*
%TD.AperFunction*%
%TA.AperFunction,Conductor*%
G36*
X41949600Y-32016100D02*
G01*
X41962700Y-31950000D01*
X41912300Y-31696400D01*
X41768600Y-31481400D01*
X41553600Y-31337700D01*
X41300000Y-31287300D01*
X41046400Y-31337700D01*
X40831400Y-31481400D01*
X40687700Y-31696400D01*
X40637400Y-31949500D01*
X37055900Y-31949500D01*
X37055900Y-30892400D01*
X43837970Y-30892400D01*
X43951200Y-30914900D01*
X43998000Y-30938700D01*
X44087200Y-31000000D01*
X44137700Y-31253600D01*
X44281400Y-31468600D01*
X44496400Y-31612300D01*
X44750000Y-31662800D01*
X44821700Y-31648500D01*
X45337320Y-32164100D01*
X42097600Y-32164100D01*
X41949600Y-32016100D01*
G37*
%TD.AperFunction*%
%TA.AperFunction,Conductor*%
G36*
X37055900Y-31950500D02*
G01*
X40637400Y-31950500D01*
X40679850Y-32164100D01*
X37055900Y-32164100D01*
X37055900Y-31950500D01*
G37*
%TD.AperFunction*%
%TA.AperFunction,Conductor*%
G36*
X39771900Y-36314600D02*
G01*
X39893500Y-36496600D01*
X40075400Y-36618100D01*
X40290000Y-36660800D01*
X40470500Y-36624900D01*
X40867800Y-37022200D01*
X40918200Y-37043100D01*
X41040000Y-37093500D01*
X42649100Y-37093500D01*
X42856400Y-37300900D01*
X42856400Y-38999500D01*
X37055900Y-38999500D01*
X37055900Y-38200500D01*
X38943200Y-38200500D01*
X38970300Y-38336600D01*
X39047700Y-38452400D01*
X39163400Y-38529700D01*
X39300000Y-38556900D01*
X39370300Y-38686600D01*
X39447700Y-38802300D01*
X39563400Y-38879700D01*
X39700000Y-38906900D01*
X39836500Y-38879700D01*
X39952300Y-38802300D01*
X40020200Y-38700800D01*
X40100000Y-38693200D01*
X40179800Y-38700800D01*
X40247700Y-38802300D01*
X40363400Y-38879700D01*
X40500000Y-38906900D01*
X40636600Y-38879700D01*
X40752300Y-38802300D01*
X40820200Y-38700800D01*
X40900000Y-38693200D01*
X40979800Y-38700800D01*
X41047600Y-38802300D01*
X41163400Y-38879700D01*
X41300000Y-38906900D01*
X41436600Y-38879700D01*
X41552300Y-38802300D01*
X41620200Y-38700800D01*
X41700000Y-38693200D01*
X41779800Y-38700800D01*
X41847700Y-38802300D01*
X41963400Y-38879700D01*
X42100000Y-38906900D01*
X42236600Y-38879700D01*
X42352300Y-38802300D01*
X42429700Y-38686600D01*
X42456800Y-38550000D01*
X42429700Y-38413500D01*
X42352300Y-38297700D01*
X42236600Y-38220300D01*
X42200800Y-38213200D01*
X42100000Y-38193100D01*
X42029700Y-38063400D01*
X41952300Y-37947700D01*
X41836500Y-37870300D01*
X41700000Y-37843200D01*
X41563400Y-37870300D01*
X41447700Y-37947700D01*
X41379800Y-38049200D01*
X41300000Y-38056800D01*
X41220200Y-38049200D01*
X41152300Y-37947700D01*
X41036600Y-37870300D01*
X40900000Y-37843100D01*
X40763400Y-37870300D01*
X40647600Y-37947700D01*
X40579800Y-38049200D01*
X40500000Y-38056800D01*
X40420200Y-38049200D01*
X40352300Y-37947700D01*
X40236500Y-37870300D01*
X40100000Y-37843200D01*
X39963400Y-37870300D01*
X39847700Y-37947700D01*
X39779800Y-38049200D01*
X39700000Y-38056800D01*
X39620200Y-38049200D01*
X39552300Y-37947700D01*
X39436600Y-37870300D01*
X39300000Y-37843200D01*
X39163400Y-37870300D01*
X39047700Y-37947700D01*
X38970300Y-38063400D01*
X38943200Y-38199500D01*
X37055900Y-38199500D01*
X37055900Y-36881200D01*
X37205900Y-36835600D01*
X37281400Y-36948600D01*
X37496400Y-37092300D01*
X37750000Y-37142800D01*
X38003600Y-37092300D01*
X38113800Y-37018700D01*
X38155000Y-37023400D01*
X38297100Y-37076600D01*
X38347700Y-37152300D01*
X38463400Y-37229700D01*
X38600000Y-37256900D01*
X38736500Y-37229700D01*
X38852300Y-37152300D01*
X38929700Y-37036600D01*
X38956800Y-36900000D01*
X38936400Y-36797100D01*
X38997600Y-36697300D01*
X39039000Y-36657000D01*
X39234600Y-36618100D01*
X39416500Y-36496600D01*
X39538100Y-36314600D01*
X39565800Y-36175000D01*
X39020000Y-36175000D01*
X39020000Y-36150500D01*
X39739250Y-36150500D01*
X39771900Y-36314600D01*
G37*
%TD.AperFunction*%
%TA.AperFunction,Conductor*%
G36*
X41037100Y-36290600D02*
G01*
X40977600Y-36346900D01*
X40913400Y-36379000D01*
X40814800Y-36280500D01*
X40840730Y-36150500D01*
X41009240Y-36150500D01*
X41037100Y-36290600D01*
G37*
%TD.AperFunction*%
%TA.AperFunction,Conductor*%
G36*
X43456500Y-36373400D02*
G01*
X43227800Y-36602100D01*
X43178200Y-36721700D01*
X43017900Y-36773500D01*
X42922200Y-36677800D01*
X42750000Y-36606500D01*
X42041400Y-36606500D01*
X41983300Y-36456500D01*
X42078100Y-36314600D01*
X42110750Y-36150500D01*
X43456500Y-36150500D01*
X43456500Y-36373400D01*
G37*
%TD.AperFunction*%
%TA.AperFunction,Conductor*%
G36*
X44243500Y-34875800D02*
G01*
X44172200Y-34703600D01*
X43296400Y-33827800D01*
X43124200Y-33756500D01*
X41120000Y-33756500D01*
X40947800Y-33827800D01*
X40470500Y-34305100D01*
X40290000Y-34269200D01*
X40075400Y-34311900D01*
X39893500Y-34433500D01*
X39771900Y-34615400D01*
X39729200Y-34830000D01*
X39771900Y-35044600D01*
X39893500Y-35226500D01*
X40075400Y-35348100D01*
X40290000Y-35390800D01*
X40504600Y-35348100D01*
X40686500Y-35226500D01*
X40808100Y-35044600D01*
X40850800Y-34830000D01*
X40814800Y-34649500D01*
X40913400Y-34551000D01*
X40977600Y-34583200D01*
X41037100Y-34639400D01*
X40999200Y-34830000D01*
X41041900Y-35044600D01*
X41163500Y-35226500D01*
X41345400Y-35348100D01*
X41560000Y-35390800D01*
X41774600Y-35348100D01*
X41956500Y-35226500D01*
X42078100Y-35044600D01*
X42120800Y-34830000D01*
X42084900Y-34649500D01*
X42190900Y-34543500D01*
X42899100Y-34543500D01*
X43048300Y-34692800D01*
X42974500Y-34831000D01*
X42830000Y-34802300D01*
X42576400Y-34852700D01*
X42361400Y-34996400D01*
X42217700Y-35211400D01*
X42167300Y-35465000D01*
X42217700Y-35718600D01*
X42361400Y-35933700D01*
X42576400Y-36077300D01*
X42830000Y-36127700D01*
X43083600Y-36077300D01*
X43298600Y-35933700D01*
X43306500Y-35921900D01*
X43456500Y-35967400D01*
X43456500Y-36149500D01*
X42110950Y-36149500D01*
X42120800Y-36100000D01*
X42078100Y-35885400D01*
X41956500Y-35703500D01*
X41774600Y-35581900D01*
X41560000Y-35539200D01*
X41345400Y-35581900D01*
X41163500Y-35703500D01*
X41041900Y-35885400D01*
X40999200Y-36100000D01*
X41009040Y-36149500D01*
X40840930Y-36149500D01*
X40850800Y-36100000D01*
X40808100Y-35885400D01*
X40686500Y-35703500D01*
X40504600Y-35581900D01*
X40290000Y-35539200D01*
X40075400Y-35581900D01*
X39893500Y-35703500D01*
X39771900Y-35885400D01*
X39729200Y-36100000D01*
X39739050Y-36149500D01*
X39020000Y-36149500D01*
X39020000Y-36100000D01*
X38945000Y-36100000D01*
X38945000Y-35554700D01*
X39095000Y-35554700D01*
X39095000Y-36025000D01*
X39565800Y-36025000D01*
X39538100Y-35885400D01*
X39416500Y-35703500D01*
X39234600Y-35581900D01*
X39095500Y-35554300D01*
X39095500Y-35553700D01*
X37055900Y-35553700D01*
X37055900Y-34851100D01*
X37205900Y-34805700D01*
X37281400Y-34918600D01*
X37496400Y-35062300D01*
X37750000Y-35112800D01*
X38003600Y-35062300D01*
X38218600Y-34918600D01*
X38318300Y-34769400D01*
X38459600Y-34827900D01*
X38459200Y-34830000D01*
X38501900Y-35044600D01*
X38623500Y-35226500D01*
X38805400Y-35348100D01*
X39020000Y-35390800D01*
X39234600Y-35348100D01*
X39416500Y-35226500D01*
X39538100Y-35044600D01*
X39580700Y-34830000D01*
X39538100Y-34615400D01*
X39416500Y-34433500D01*
X39234600Y-34311900D01*
X39020000Y-34269200D01*
X38805400Y-34311900D01*
X38623500Y-34433500D01*
X38545800Y-34549700D01*
X38404500Y-34491100D01*
X38412700Y-34450000D01*
X38362300Y-34196400D01*
X38218600Y-33981400D01*
X38003600Y-33837700D01*
X37750000Y-33787300D01*
X37496400Y-33837700D01*
X37281400Y-33981400D01*
X37205900Y-34094400D01*
X37055900Y-34048900D01*
X37055900Y-32165100D01*
X40680050Y-32165100D01*
X40687700Y-32203600D01*
X40831400Y-32418600D01*
X41046400Y-32562300D01*
X41300000Y-32612800D01*
X41377300Y-32597400D01*
X42018300Y-33238300D01*
X42150600Y-33326700D01*
X42306700Y-33357800D01*
X42462700Y-33326700D01*
X42595100Y-33238300D01*
X42683500Y-33106000D01*
X42714500Y-32950000D01*
X42683500Y-32793900D01*
X42595100Y-32661600D01*
X42098600Y-32165100D01*
X45338320Y-32165100D01*
X46992200Y-33818900D01*
X46992200Y-36149500D01*
X44243500Y-36149500D01*
X44243500Y-34875800D01*
G37*
%TD.AperFunction*%
%TA.AperFunction,Conductor*%
G36*
X43943500Y-39000500D02*
G01*
X44193200Y-39000500D01*
X44220300Y-39136600D01*
X44297600Y-39252300D01*
X44413400Y-39329700D01*
X44550000Y-39356900D01*
X44686600Y-39329700D01*
X44802300Y-39252300D01*
X44879700Y-39136600D01*
X44906800Y-39000000D01*
X44879700Y-38863500D01*
X44802300Y-38747700D01*
X44686600Y-38670300D01*
X44550000Y-38643200D01*
X44413400Y-38670300D01*
X44297600Y-38747700D01*
X44220300Y-38863500D01*
X44193200Y-38999500D01*
X43943500Y-38999500D01*
X43943500Y-36999400D01*
X44172200Y-36770800D01*
X44243500Y-36598500D01*
X44243500Y-36150500D01*
X46992200Y-36150500D01*
X46992200Y-39699500D01*
X43943500Y-39699500D01*
X43943500Y-39000500D01*
G37*
%TD.AperFunction*%
%TA.AperFunction,Conductor*%
G36*
X44757700Y-27863300D02*
G01*
X44585500Y-27792000D01*
X41972000Y-27792000D01*
X41972000Y-27609300D01*
X42032800Y-27568600D01*
X42176500Y-27353600D01*
X42185800Y-27306700D01*
X42345700Y-27234400D01*
X42353000Y-27235100D01*
X42483400Y-27261000D01*
X42620000Y-27233900D01*
X42735700Y-27156500D01*
X42813100Y-27040700D01*
X42840200Y-26904200D01*
X42813100Y-26767600D01*
X42735700Y-26651900D01*
X42620000Y-26574500D01*
X42483400Y-26547300D01*
X42346800Y-26574500D01*
X42231000Y-26651900D01*
X42229000Y-26655000D01*
X42048600Y-26655000D01*
X42032800Y-26631400D01*
X41817800Y-26487700D01*
X41807700Y-26485700D01*
X41807700Y-26268300D01*
X42763000Y-26268300D01*
X42790100Y-26404400D01*
X42867500Y-26520100D01*
X42983200Y-26597500D01*
X43119800Y-26624700D01*
X43256300Y-26597500D01*
X43372100Y-26520100D01*
X43449500Y-26404400D01*
X43476700Y-26267800D01*
X43449500Y-26131200D01*
X43372100Y-26015400D01*
X43256300Y-25938100D01*
X43119800Y-25910900D01*
X42983200Y-25938100D01*
X42867500Y-26015400D01*
X42790100Y-26131200D01*
X42763000Y-26267300D01*
X41807700Y-26267300D01*
X41807700Y-25873700D01*
X42508400Y-25173000D01*
X42518800Y-25175100D01*
X42655400Y-25147900D01*
X42771100Y-25070600D01*
X42848500Y-24954800D01*
X42875600Y-24818200D01*
X42848500Y-24681600D01*
X42771100Y-24565900D01*
X42655400Y-24488500D01*
X42518800Y-24461400D01*
X42382200Y-24488500D01*
X42266400Y-24565900D01*
X42189100Y-24681600D01*
X42161900Y-24818200D01*
X42164000Y-24828600D01*
X41566300Y-25426300D01*
X41403600Y-25376900D01*
X41398900Y-25353500D01*
X41321600Y-25237700D01*
X41205800Y-25160300D01*
X41069200Y-25133100D01*
X40932600Y-25160300D01*
X40816900Y-25237700D01*
X40739500Y-25353500D01*
X40712500Y-25489500D01*
X37055900Y-25489500D01*
X37055900Y-24957100D01*
X37058000Y-24957100D01*
X37105700Y-24595000D01*
X37245500Y-24257600D01*
X37462100Y-23975200D01*
X37474400Y-23974400D01*
X37796100Y-23555100D01*
X37998300Y-23066900D01*
X38067300Y-22542900D01*
X38055900Y-22542900D01*
X38055900Y-19171800D01*
X40517400Y-19171800D01*
X40552200Y-19346900D01*
X40651600Y-19495800D01*
X40800500Y-19595200D01*
X40976100Y-19630100D01*
X41151600Y-19595200D01*
X41156500Y-19592000D01*
X41306500Y-19672200D01*
X41306500Y-20098800D01*
X41377800Y-20271000D01*
X41701900Y-20595100D01*
X41696600Y-20654700D01*
X41662500Y-20767900D01*
X41572300Y-20828200D01*
X41494900Y-20943900D01*
X41468300Y-21077800D01*
X41334500Y-21104400D01*
X41218700Y-21181700D01*
X41141400Y-21297500D01*
X41114700Y-21431300D01*
X40980900Y-21457900D01*
X40865200Y-21535300D01*
X40787800Y-21651000D01*
X40760600Y-21787600D01*
X40787800Y-21924200D01*
X40865200Y-22039900D01*
X40980900Y-22117300D01*
X41117500Y-22144500D01*
X41127900Y-22142400D01*
X41456500Y-22471000D01*
X41456500Y-22750000D01*
X41527800Y-22922200D01*
X42277800Y-23672200D01*
X42450000Y-23743600D01*
X42724300Y-23743600D01*
X44636600Y-25655900D01*
X44634600Y-25666300D01*
X44661700Y-25802900D01*
X44739100Y-25918600D01*
X44854900Y-25996000D01*
X44991400Y-26023200D01*
X45009700Y-26019500D01*
X45360700Y-26370500D01*
X45360700Y-26649500D01*
X45432000Y-26821700D01*
X46182000Y-27571700D01*
X46354200Y-27643000D01*
X46628500Y-27643000D01*
X48275300Y-29289800D01*
X46184200Y-29289800D01*
X44757700Y-27863300D01*
G37*
%TD.AperFunction*%
%TA.AperFunction,Conductor*%
G36*
X37055900Y-26268300D02*
G01*
X41320600Y-26268300D01*
X41320600Y-26485700D01*
X41310600Y-26487700D01*
X41095600Y-26631400D01*
X40951900Y-26846400D01*
X40901500Y-27100000D01*
X40951900Y-27353600D01*
X41095600Y-27568600D01*
X41156300Y-27609300D01*
X41156300Y-28035500D01*
X41187400Y-28191600D01*
X41275800Y-28323900D01*
X41408100Y-28412300D01*
X41564200Y-28443400D01*
X41720200Y-28412300D01*
X41852600Y-28323900D01*
X41882500Y-28279100D01*
X44484600Y-28279100D01*
X45495300Y-29289800D01*
X37055900Y-29289800D01*
X37055900Y-26268300D01*
G37*
%TD.AperFunction*%
%TA.AperFunction,Conductor*%
G36*
X51982400Y-53137400D02*
G01*
X51855300Y-53209700D01*
X51806500Y-53214300D01*
X51700000Y-53193200D01*
X51563400Y-53220300D01*
X51450000Y-53296100D01*
X51336500Y-53220300D01*
X51200000Y-53193200D01*
X51093500Y-53214300D01*
X50989400Y-53158400D01*
X50943500Y-53120000D01*
X50943500Y-53105500D01*
X51995610Y-53105500D01*
X51982400Y-53137400D01*
G37*
%TD.AperFunction*%
%TA.AperFunction,Conductor*%
G36*
X54494400Y-53106500D02*
G01*
X54238900Y-53106500D01*
X54238490Y-53105500D01*
X54495900Y-53105500D01*
X54494400Y-53106500D01*
G37*
%TD.AperFunction*%
%TA.AperFunction,Conductor*%
G36*
X49456500Y-53291800D02*
G01*
X49447700Y-53297700D01*
X49370300Y-53413500D01*
X49343100Y-53550000D01*
X49370300Y-53686600D01*
X49447700Y-53802400D01*
X49563400Y-53879700D01*
X49700000Y-53906900D01*
X49836500Y-53879700D01*
X49950000Y-53803900D01*
X50063400Y-53879700D01*
X50200000Y-53906900D01*
X50336500Y-53879700D01*
X50450000Y-53803900D01*
X50563400Y-53879700D01*
X50700000Y-53906900D01*
X50836500Y-53879700D01*
X50950000Y-53803900D01*
X51063400Y-53879700D01*
X51200000Y-53906900D01*
X51336500Y-53879700D01*
X51450000Y-53803900D01*
X51563400Y-53879700D01*
X51700000Y-53906900D01*
X51836500Y-53879700D01*
X51950000Y-53803900D01*
X52063400Y-53879700D01*
X52200000Y-53906900D01*
X52336500Y-53879700D01*
X52450000Y-53803900D01*
X52563400Y-53879700D01*
X52700000Y-53906900D01*
X52836500Y-53879700D01*
X52952300Y-53802400D01*
X53029700Y-53686600D01*
X53048200Y-53593600D01*
X54349500Y-53593600D01*
X54402400Y-53672600D01*
X54518200Y-53750000D01*
X54654700Y-53777100D01*
X54791300Y-53750000D01*
X54907000Y-53672600D01*
X54984400Y-53556900D01*
X55011600Y-53420300D01*
X54984400Y-53283700D01*
X54907000Y-53168000D01*
X54813570Y-53105500D01*
X55851800Y-53105500D01*
X55889200Y-53293400D01*
X56038300Y-53516700D01*
X56261600Y-53665800D01*
X56525000Y-53718200D01*
X56675000Y-53718200D01*
X56675000Y-53105000D01*
X55852200Y-53105000D01*
X55852200Y-53104500D01*
X54812080Y-53104500D01*
X54791300Y-53090600D01*
X54654700Y-53063400D01*
X54518200Y-53090600D01*
X54497390Y-53104500D01*
X54238070Y-53104500D01*
X54181500Y-52967900D01*
X54644300Y-52505100D01*
X54654700Y-52507200D01*
X54791300Y-52480000D01*
X54907000Y-52402600D01*
X54984400Y-52286900D01*
X55011600Y-52150300D01*
X54984400Y-52013700D01*
X54907000Y-51898000D01*
X54791300Y-51820600D01*
X54654700Y-51793400D01*
X54518200Y-51820600D01*
X54402400Y-51898000D01*
X54325000Y-52013700D01*
X54297900Y-52150300D01*
X54299900Y-52160700D01*
X53754100Y-52706500D01*
X52450000Y-52706500D01*
X52277800Y-52777800D01*
X52027800Y-53027800D01*
X51996030Y-53104500D01*
X50943500Y-53104500D01*
X50943500Y-51922000D01*
X51093500Y-51876500D01*
X51125500Y-51924500D01*
X51274400Y-52023900D01*
X51450000Y-52058800D01*
X51625600Y-52023900D01*
X51774400Y-51924500D01*
X51873900Y-51775600D01*
X51908800Y-51600000D01*
X51873900Y-51424400D01*
X51774400Y-51275600D01*
X51625600Y-51176100D01*
X51450000Y-51141200D01*
X51274400Y-51176100D01*
X51125500Y-51275600D01*
X51093500Y-51323500D01*
X50943500Y-51278000D01*
X50943500Y-50150100D01*
X51093500Y-50088000D01*
X51577800Y-50572200D01*
X51628200Y-50593100D01*
X51750000Y-50643600D01*
X53619700Y-50643600D01*
X53656500Y-50698500D01*
X53656500Y-51091800D01*
X53647600Y-51097700D01*
X53570300Y-51213500D01*
X53543100Y-51350000D01*
X53570300Y-51486600D01*
X53647600Y-51602400D01*
X53763400Y-51679700D01*
X53900000Y-51706900D01*
X54036600Y-51679700D01*
X54152300Y-51602400D01*
X54229700Y-51486600D01*
X54256800Y-51350000D01*
X54229700Y-51213500D01*
X54152300Y-51097700D01*
X54143500Y-51091800D01*
X54143500Y-50936000D01*
X54154700Y-50929300D01*
X54322400Y-51003700D01*
X54325000Y-51016800D01*
X54402400Y-51132600D01*
X54518200Y-51210000D01*
X54654700Y-51237200D01*
X54791300Y-51210000D01*
X54907000Y-51132600D01*
X54984400Y-51016800D01*
X55011600Y-50880300D01*
X54984400Y-50743700D01*
X54907000Y-50627900D01*
X54791300Y-50550600D01*
X54654700Y-50523400D01*
X54625900Y-50529200D01*
X54552000Y-50390900D01*
X55572200Y-49370700D01*
X55593100Y-49320300D01*
X55643500Y-49198500D01*
X55643500Y-46788600D01*
X55692100Y-46731000D01*
X55699200Y-46727400D01*
X55862200Y-46808100D01*
X55889200Y-46943400D01*
X56038300Y-47166700D01*
X56148100Y-47240000D01*
X56148100Y-47390000D01*
X56038300Y-47463400D01*
X55889200Y-47686600D01*
X55851700Y-47875000D01*
X56750000Y-47875000D01*
X56750000Y-48025000D01*
X55851700Y-48025000D01*
X55889200Y-48213400D01*
X56038300Y-48436700D01*
X56148100Y-48510000D01*
X56148100Y-48660000D01*
X56038300Y-48733400D01*
X55889200Y-48956600D01*
X55836800Y-49220000D01*
X55889200Y-49483400D01*
X56038300Y-49706700D01*
X56148100Y-49780000D01*
X56148100Y-49930000D01*
X56038300Y-50003400D01*
X55889200Y-50226600D01*
X55836800Y-50490000D01*
X55889200Y-50753400D01*
X56038300Y-50976700D01*
X56148100Y-51050000D01*
X56148100Y-51200000D01*
X56038300Y-51273400D01*
X55889200Y-51496600D01*
X55836800Y-51760000D01*
X55889200Y-52023400D01*
X56038300Y-52246700D01*
X56148100Y-52320000D01*
X56148100Y-52470000D01*
X56038300Y-52543400D01*
X55889200Y-52766600D01*
X55851700Y-52955000D01*
X56750000Y-52955000D01*
X56750000Y-53030000D01*
X56825000Y-53030000D01*
X56825000Y-53718200D01*
X56975000Y-53718200D01*
X57238400Y-53665800D01*
X57414100Y-53548400D01*
X57557000Y-53589600D01*
X57578000Y-53605600D01*
X57587800Y-53656200D01*
X57414900Y-53914900D01*
X57100600Y-54124900D01*
X56741300Y-54196400D01*
X56730000Y-54194100D01*
X44211100Y-54194100D01*
X44211100Y-53105500D01*
X49456500Y-53105500D01*
X49456500Y-53291800D01*
G37*
%TD.AperFunction*%
%TA.AperFunction,Conductor*%
G36*
X43614400Y-15405900D02*
G01*
X43837700Y-15555100D01*
X44101000Y-15607500D01*
X44230500Y-15581700D01*
X44336600Y-15687800D01*
X44310900Y-15817300D01*
X44363200Y-16080700D01*
X44512400Y-16304000D01*
X44735700Y-16453100D01*
X44999100Y-16505500D01*
X45128600Y-16479700D01*
X45234600Y-16585800D01*
X45208900Y-16715300D01*
X45261300Y-16978700D01*
X45410500Y-17202000D01*
X45633700Y-17351100D01*
X45897100Y-17403500D01*
X46026600Y-17377800D01*
X46132700Y-17483800D01*
X46106900Y-17613300D01*
X46159300Y-17876700D01*
X46308500Y-18100000D01*
X46531700Y-18249200D01*
X46795100Y-18301600D01*
X46924600Y-18275800D01*
X47030700Y-18381900D01*
X47004900Y-18511400D01*
X47057300Y-18774700D01*
X47206500Y-18998000D01*
X47429800Y-19147200D01*
X47693100Y-19199600D01*
X47822600Y-19173800D01*
X47928700Y-19279900D01*
X47903000Y-19409400D01*
X47955300Y-19672800D01*
X48062000Y-19832500D01*
X48697200Y-19197300D01*
X48803300Y-19303300D01*
X48168100Y-19938500D01*
X48327800Y-20045200D01*
X48591200Y-20097600D01*
X48720700Y-20071900D01*
X48826800Y-20177900D01*
X48801000Y-20307400D01*
X48853400Y-20570800D01*
X49002600Y-20794100D01*
X49225800Y-20943300D01*
X49489200Y-20995600D01*
X49618700Y-20969900D01*
X49724800Y-21076000D01*
X49699000Y-21205400D01*
X49751400Y-21468800D01*
X49900600Y-21692100D01*
X50123800Y-21841300D01*
X50387200Y-21893700D01*
X50516700Y-21867900D01*
X50622800Y-21974000D01*
X50597000Y-22103500D01*
X50649400Y-22366900D01*
X50798600Y-22590100D01*
X51021900Y-22739300D01*
X51285200Y-22791700D01*
X51414800Y-22765900D01*
X51520800Y-22872000D01*
X51495100Y-23001500D01*
X51547500Y-23264900D01*
X51696600Y-23488100D01*
X51919900Y-23637300D01*
X52183300Y-23689700D01*
X52312800Y-23664000D01*
X52418900Y-23770000D01*
X52393100Y-23899500D01*
X52445500Y-24162900D01*
X52594600Y-24386200D01*
X52817900Y-24535400D01*
X53081300Y-24587700D01*
X53210800Y-24562000D01*
X53316900Y-24668100D01*
X53291100Y-24797500D01*
X53343500Y-25060900D01*
X53492700Y-25284200D01*
X53716000Y-25433400D01*
X53979300Y-25485800D01*
X54108800Y-25460000D01*
X54214900Y-25566100D01*
X54189100Y-25695600D01*
X54241500Y-25959000D01*
X54390700Y-26182200D01*
X54614000Y-26331400D01*
X54877300Y-26383800D01*
X55006800Y-26358000D01*
X55112900Y-26464100D01*
X55087200Y-26593600D01*
X55139500Y-26857000D01*
X55288700Y-27080300D01*
X55512000Y-27229400D01*
X55775400Y-27281800D01*
X56038800Y-27229400D01*
X56262000Y-27080300D01*
X56580200Y-26762100D01*
X56729400Y-26538800D01*
X56781800Y-26275400D01*
X56763800Y-26184900D01*
X56778500Y-26171400D01*
X56981000Y-26185800D01*
X57228200Y-26487000D01*
X57483200Y-26964100D01*
X57640300Y-27481700D01*
X57693300Y-28020000D01*
X57694100Y-28020000D01*
X57694100Y-28491300D01*
X57544100Y-28536800D01*
X57461600Y-28413400D01*
X57238400Y-28264200D01*
X56975000Y-28211800D01*
X56525000Y-28211800D01*
X56261600Y-28264200D01*
X56038300Y-28413400D01*
X55889200Y-28636600D01*
X55836800Y-28900000D01*
X55889200Y-29163400D01*
X56038300Y-29386700D01*
X56148100Y-29460000D01*
X56148100Y-29610000D01*
X56038300Y-29683400D01*
X55889200Y-29906600D01*
X55836800Y-30170000D01*
X55889200Y-30433400D01*
X56038300Y-30656600D01*
X56148100Y-30730000D01*
X56148100Y-30880000D01*
X56038300Y-30953400D01*
X55889200Y-31176600D01*
X55836800Y-31440000D01*
X55889200Y-31703400D01*
X56038300Y-31926700D01*
X56148100Y-32000000D01*
X56148100Y-32150000D01*
X56038300Y-32223400D01*
X55889200Y-32446600D01*
X55836800Y-32710000D01*
X55889200Y-32973400D01*
X56038300Y-33196700D01*
X56148100Y-33270000D01*
X56148100Y-33420000D01*
X56038300Y-33493400D01*
X55889200Y-33716600D01*
X55836800Y-33980000D01*
X55889200Y-34243400D01*
X56038300Y-34466700D01*
X56148100Y-34540000D01*
X56148100Y-34690000D01*
X56038300Y-34763400D01*
X55889200Y-34986600D01*
X55836800Y-35250000D01*
X55889200Y-35513400D01*
X56038300Y-35736700D01*
X56148100Y-35810000D01*
X56148100Y-35960000D01*
X56038300Y-36033400D01*
X55889200Y-36256700D01*
X55836800Y-36520000D01*
X55889200Y-36783400D01*
X56038300Y-37006700D01*
X56148100Y-37080000D01*
X56148100Y-37230000D01*
X56038300Y-37303400D01*
X55889200Y-37526600D01*
X55836800Y-37790000D01*
X55889200Y-38053400D01*
X56038300Y-38276700D01*
X56148100Y-38350000D01*
X56148100Y-38500000D01*
X56038300Y-38573400D01*
X55889200Y-38796600D01*
X55836800Y-39060000D01*
X55889200Y-39323400D01*
X56038300Y-39546700D01*
X56148100Y-39620000D01*
X56148100Y-39770000D01*
X56038300Y-39843400D01*
X55889200Y-40066700D01*
X55836800Y-40330000D01*
X55889200Y-40593400D01*
X56038300Y-40816700D01*
X56148100Y-40890000D01*
X56148100Y-41040000D01*
X56038300Y-41113400D01*
X55889200Y-41336600D01*
X55874800Y-41408900D01*
X55731200Y-41452400D01*
X55009500Y-40730700D01*
X55011600Y-40720300D01*
X54984400Y-40583700D01*
X54907000Y-40468000D01*
X54791300Y-40390600D01*
X54654700Y-40363400D01*
X54593500Y-40375600D01*
X54443500Y-40273800D01*
X54443500Y-39896800D01*
X54593500Y-39795000D01*
X54654700Y-39807200D01*
X54791300Y-39780000D01*
X54907000Y-39702600D01*
X54984400Y-39586900D01*
X55011600Y-39450300D01*
X54984400Y-39313700D01*
X54907000Y-39198000D01*
X54791300Y-39120600D01*
X54654700Y-39093400D01*
X54593500Y-39105600D01*
X54443500Y-39003800D01*
X54443500Y-38735900D01*
X54644300Y-38535100D01*
X54654700Y-38537100D01*
X54791300Y-38510000D01*
X54907000Y-38432600D01*
X54984400Y-38316900D01*
X55011600Y-38180300D01*
X54984400Y-38043700D01*
X54907000Y-37927900D01*
X54830000Y-37876500D01*
X54786100Y-37708300D01*
X54826900Y-37667500D01*
X54847800Y-37617100D01*
X54898300Y-37495300D01*
X54898300Y-37168500D01*
X54907000Y-37162600D01*
X54984400Y-37046800D01*
X55011600Y-36910300D01*
X54984400Y-36773700D01*
X54907000Y-36658000D01*
X54791300Y-36580600D01*
X54654700Y-36553400D01*
X54593500Y-36565600D01*
X54443500Y-36463800D01*
X54443500Y-36195900D01*
X54644300Y-35995100D01*
X54654700Y-35997200D01*
X54791300Y-35970000D01*
X54907000Y-35892600D01*
X54984400Y-35776900D01*
X55011600Y-35640300D01*
X54984400Y-35503700D01*
X54907000Y-35388000D01*
X54791300Y-35310600D01*
X54654700Y-35283400D01*
X54518200Y-35310600D01*
X54402400Y-35388000D01*
X54325000Y-35503700D01*
X54321300Y-35522300D01*
X54293500Y-35537400D01*
X54143600Y-35448000D01*
X54143600Y-35225900D01*
X54644300Y-34725100D01*
X54654700Y-34727100D01*
X54791300Y-34700000D01*
X54907000Y-34622600D01*
X54984400Y-34506900D01*
X55011600Y-34370300D01*
X54984400Y-34233700D01*
X54907000Y-34118000D01*
X54791300Y-34040600D01*
X54654700Y-34013400D01*
X54593500Y-34025600D01*
X54443500Y-33923800D01*
X54443500Y-33546800D01*
X54593500Y-33445000D01*
X54654700Y-33457200D01*
X54791300Y-33430000D01*
X54907000Y-33352600D01*
X54984400Y-33236800D01*
X55011600Y-33100300D01*
X54984400Y-32963700D01*
X54907000Y-32848000D01*
X54791300Y-32770600D01*
X54654700Y-32743400D01*
X54593500Y-32755600D01*
X54443500Y-32653800D01*
X54443500Y-32385900D01*
X54644300Y-32185100D01*
X54654700Y-32187200D01*
X54791300Y-32160000D01*
X54907000Y-32082600D01*
X54984400Y-31966900D01*
X55011600Y-31830300D01*
X54984400Y-31693700D01*
X54907000Y-31577900D01*
X54791300Y-31500600D01*
X54654700Y-31473400D01*
X54518200Y-31500600D01*
X54402400Y-31577900D01*
X54325000Y-31693700D01*
X54321300Y-31712400D01*
X54293500Y-31727400D01*
X54143500Y-31638000D01*
X54143500Y-31415900D01*
X54644300Y-30915100D01*
X54654700Y-30917100D01*
X54791300Y-30890000D01*
X54907000Y-30812600D01*
X54984400Y-30696900D01*
X55011600Y-30560300D01*
X54984400Y-30423700D01*
X54907000Y-30308000D01*
X54791300Y-30230600D01*
X54654700Y-30203400D01*
X54518200Y-30230600D01*
X54402400Y-30308000D01*
X54325000Y-30423700D01*
X54297900Y-30560300D01*
X54299900Y-30570700D01*
X53727800Y-31142800D01*
X53656500Y-31315000D01*
X53656500Y-31590000D01*
X53506500Y-31628500D01*
X53452400Y-31547600D01*
X53336600Y-31470200D01*
X53200100Y-31443100D01*
X53063500Y-31470200D01*
X52947700Y-31547600D01*
X52870400Y-31663400D01*
X52843200Y-31799900D01*
X52843200Y-32199900D01*
X52870400Y-32336500D01*
X52947700Y-32452300D01*
X53063500Y-32529600D01*
X53200100Y-32556800D01*
X53336600Y-32529600D01*
X53452400Y-32452300D01*
X53506500Y-32371400D01*
X53656500Y-32409900D01*
X53656500Y-34124900D01*
X53127800Y-34653600D01*
X53056500Y-34825800D01*
X53056500Y-37052100D01*
X51927800Y-38180800D01*
X51856400Y-38353000D01*
X51856400Y-39699100D01*
X51027800Y-40527800D01*
X51018400Y-40550400D01*
X50947700Y-40597700D01*
X50870300Y-40713400D01*
X50843100Y-40850000D01*
X50870300Y-40986600D01*
X50947700Y-41102400D01*
X51063400Y-41179700D01*
X51200000Y-41206900D01*
X51336500Y-41179700D01*
X51450000Y-41103900D01*
X51563400Y-41179700D01*
X51700000Y-41206900D01*
X51836500Y-41179700D01*
X51950000Y-41103900D01*
X52063400Y-41179700D01*
X52200000Y-41206900D01*
X52336600Y-41179700D01*
X52450000Y-41103900D01*
X52563400Y-41179700D01*
X52700000Y-41206900D01*
X52737800Y-41199300D01*
X52862400Y-41291500D01*
X52871700Y-41433900D01*
X52027800Y-42277800D01*
X51956500Y-42450000D01*
X51956500Y-42478000D01*
X51806500Y-42523500D01*
X51774400Y-42475600D01*
X51625600Y-42376100D01*
X51450000Y-42341200D01*
X51274400Y-42376100D01*
X51125600Y-42475600D01*
X51026100Y-42624400D01*
X50991200Y-42800000D01*
X51026100Y-42975600D01*
X51125600Y-43124500D01*
X51274400Y-43223900D01*
X51450000Y-43258800D01*
X51625600Y-43223900D01*
X51774400Y-43124500D01*
X51806500Y-43076500D01*
X51956500Y-43122000D01*
X51956500Y-44320000D01*
X51910600Y-44358400D01*
X51806500Y-44414300D01*
X51700000Y-44393200D01*
X51563400Y-44420300D01*
X51450000Y-44496100D01*
X51336500Y-44420300D01*
X51200000Y-44393200D01*
X51063400Y-44420300D01*
X50950000Y-44496100D01*
X50836500Y-44420300D01*
X50700000Y-44393100D01*
X50563400Y-44420300D01*
X50450000Y-44496100D01*
X50336500Y-44420300D01*
X50200000Y-44393100D01*
X50063400Y-44420300D01*
X49950000Y-44496100D01*
X49836600Y-44420300D01*
X49700000Y-44393200D01*
X49563400Y-44420300D01*
X49447700Y-44497700D01*
X49370300Y-44613400D01*
X49343100Y-44750000D01*
X49370300Y-44886600D01*
X49447700Y-45002300D01*
X49489800Y-45030500D01*
X49527800Y-45122200D01*
X49856400Y-45450900D01*
X49856400Y-48394300D01*
X49262500Y-48988300D01*
X49191200Y-49160500D01*
X49191200Y-50221200D01*
X49241600Y-50342900D01*
X49262500Y-50393400D01*
X49456500Y-50587300D01*
X49456500Y-53104500D01*
X44211100Y-53104500D01*
X44211100Y-50588900D01*
X39380600Y-47800000D01*
X38829900Y-47800000D01*
X38706800Y-47650000D01*
X38679700Y-47513400D01*
X38602300Y-47397700D01*
X38486500Y-47320300D01*
X38349900Y-47293100D01*
X38213400Y-47320300D01*
X38097600Y-47397700D01*
X38020300Y-47513400D01*
X37993100Y-47650000D01*
X37870000Y-47800000D01*
X37520700Y-47800000D01*
X37055900Y-46206300D01*
X37055900Y-45251100D01*
X37205900Y-45205600D01*
X37281400Y-45318600D01*
X37496400Y-45462300D01*
X37635200Y-45489900D01*
X37947700Y-45802400D01*
X38063400Y-45879700D01*
X38127000Y-45892400D01*
X38202900Y-46045400D01*
X38202900Y-46048800D01*
X38137700Y-46146400D01*
X38087200Y-46400000D01*
X38137700Y-46653600D01*
X38281400Y-46868600D01*
X38496400Y-47012300D01*
X38750000Y-47062700D01*
X39003600Y-47012300D01*
X39218600Y-46868600D01*
X39362300Y-46653600D01*
X39404800Y-46439500D01*
X40693940Y-45150500D01*
X43443200Y-45150500D01*
X43470300Y-45286600D01*
X43547600Y-45402300D01*
X43663400Y-45479700D01*
X43800000Y-45506900D01*
X43936600Y-45479700D01*
X44052300Y-45402300D01*
X44129700Y-45286600D01*
X44156900Y-45150000D01*
X44129700Y-45013400D01*
X44052300Y-44897700D01*
X43936600Y-44820300D01*
X43800000Y-44793200D01*
X43663400Y-44820300D01*
X43547600Y-44897700D01*
X43470300Y-45013400D01*
X43443200Y-45149500D01*
X40694940Y-45149500D01*
X41250900Y-44593600D01*
X42498500Y-44593600D01*
X42670700Y-44522200D01*
X42942400Y-44250500D01*
X44243200Y-44250500D01*
X44270300Y-44386600D01*
X44347700Y-44502400D01*
X44463400Y-44579700D01*
X44600000Y-44606900D01*
X44736600Y-44579700D01*
X44852300Y-44502400D01*
X44929700Y-44386600D01*
X44936800Y-44350800D01*
X44956800Y-44250000D01*
X45086500Y-44179700D01*
X45202300Y-44102400D01*
X45279700Y-43986600D01*
X45306900Y-43850000D01*
X45279700Y-43713400D01*
X45202300Y-43597700D01*
X45100800Y-43529800D01*
X45093200Y-43450000D01*
X45100800Y-43370200D01*
X45202300Y-43302300D01*
X45279700Y-43186600D01*
X45306900Y-43050000D01*
X45279700Y-42913500D01*
X45202300Y-42797700D01*
X45100800Y-42729800D01*
X45093200Y-42650000D01*
X45100800Y-42570200D01*
X45202300Y-42502300D01*
X45279700Y-42386600D01*
X45306900Y-42250000D01*
X45279700Y-42113500D01*
X45202300Y-41997700D01*
X45086500Y-41920300D01*
X44956800Y-41850000D01*
X44936800Y-41749200D01*
X44929700Y-41713400D01*
X44852300Y-41597700D01*
X44736600Y-41520300D01*
X44600000Y-41493200D01*
X44463400Y-41520300D01*
X44347700Y-41597700D01*
X44270300Y-41713400D01*
X44243100Y-41850000D01*
X44270300Y-41986600D01*
X44347700Y-42102400D01*
X44449200Y-42170200D01*
X44456800Y-42250000D01*
X44449200Y-42329800D01*
X44347700Y-42397700D01*
X44270300Y-42513500D01*
X44243100Y-42650000D01*
X44270300Y-42786600D01*
X44347700Y-42902400D01*
X44449200Y-42970200D01*
X44456800Y-43050000D01*
X44449200Y-43129800D01*
X44347700Y-43197700D01*
X44270300Y-43313400D01*
X44243100Y-43450000D01*
X44270300Y-43586600D01*
X44347700Y-43702400D01*
X44449200Y-43770200D01*
X44456800Y-43850000D01*
X44449200Y-43929800D01*
X44347700Y-43997700D01*
X44270300Y-44113500D01*
X44243200Y-44249500D01*
X42943400Y-44249500D01*
X43872200Y-43320700D01*
X43893100Y-43270300D01*
X43943500Y-43148600D01*
X43943500Y-39700500D01*
X46992200Y-39700500D01*
X46992200Y-40850000D01*
X47018000Y-40980200D01*
X47023200Y-41006100D01*
X47111600Y-41138400D01*
X47892200Y-41918900D01*
X47892200Y-46593700D01*
X47743900Y-46623200D01*
X47611600Y-46711600D01*
X47523200Y-46843900D01*
X47492200Y-47000000D01*
X47523200Y-47156100D01*
X47611600Y-47288400D01*
X47743900Y-47376800D01*
X47900000Y-47407900D01*
X48700000Y-47407900D01*
X48856000Y-47376800D01*
X48988400Y-47288400D01*
X49076800Y-47156100D01*
X49107800Y-47000000D01*
X49076800Y-46843900D01*
X48988400Y-46711600D01*
X48856000Y-46623200D01*
X48707800Y-46593700D01*
X48707800Y-41750000D01*
X48676800Y-41593900D01*
X48588400Y-41461600D01*
X48588300Y-41461600D01*
X47807800Y-40681100D01*
X47807800Y-39700500D01*
X48493200Y-39700500D01*
X48520300Y-39836600D01*
X48597700Y-39952400D01*
X48713400Y-40029700D01*
X48850000Y-40056900D01*
X48986500Y-40029700D01*
X49102300Y-39952400D01*
X49179700Y-39836600D01*
X49206800Y-39700000D01*
X49179700Y-39563400D01*
X49102300Y-39447700D01*
X48986500Y-39370300D01*
X48850000Y-39343200D01*
X48713400Y-39370300D01*
X48597700Y-39447700D01*
X48520300Y-39563400D01*
X48493200Y-39699500D01*
X47807800Y-39699500D01*
X47807800Y-38750500D01*
X50693200Y-38750500D01*
X50720300Y-38886500D01*
X50797700Y-39002300D01*
X50913500Y-39079700D01*
X51050000Y-39106800D01*
X51186600Y-39079700D01*
X51302300Y-39002300D01*
X51379700Y-38886500D01*
X51406900Y-38750000D01*
X51379700Y-38613400D01*
X51302300Y-38497700D01*
X51186600Y-38420300D01*
X51050000Y-38393100D01*
X50913500Y-38420300D01*
X50797700Y-38497700D01*
X50720300Y-38613400D01*
X50693200Y-38749500D01*
X47807800Y-38749500D01*
X47807800Y-37850500D01*
X50693200Y-37850500D01*
X50720300Y-37986600D01*
X50797700Y-38102400D01*
X50913500Y-38179700D01*
X51050000Y-38206900D01*
X51186600Y-38179700D01*
X51302300Y-38102400D01*
X51379700Y-37986600D01*
X51406900Y-37850000D01*
X51379700Y-37713500D01*
X51302300Y-37597700D01*
X51186600Y-37520400D01*
X51050000Y-37493200D01*
X50913500Y-37520400D01*
X50797700Y-37597700D01*
X50720300Y-37713500D01*
X50693200Y-37849500D01*
X47807800Y-37849500D01*
X47807800Y-37756100D01*
X47957800Y-37676000D01*
X47963400Y-37679700D01*
X48100000Y-37706900D01*
X48236600Y-37679700D01*
X48352300Y-37602400D01*
X48429700Y-37486600D01*
X48456800Y-37350000D01*
X48429700Y-37213400D01*
X48352300Y-37097700D01*
X48236600Y-37020300D01*
X48100000Y-36993200D01*
X47963400Y-37020300D01*
X47957800Y-37024100D01*
X47820140Y-36950500D01*
X50693200Y-36950500D01*
X50720300Y-37086600D01*
X50797700Y-37202400D01*
X50913500Y-37279800D01*
X51050000Y-37306900D01*
X51186600Y-37279800D01*
X51302300Y-37202400D01*
X51379700Y-37086600D01*
X51406900Y-36950000D01*
X51379700Y-36813500D01*
X51302300Y-36697700D01*
X51186600Y-36620400D01*
X51050000Y-36593200D01*
X50913500Y-36620400D01*
X50797700Y-36697700D01*
X50720300Y-36813500D01*
X50693200Y-36949500D01*
X47818270Y-36949500D01*
X47807800Y-36943900D01*
X47807800Y-36150500D01*
X48443200Y-36150500D01*
X48470300Y-36286600D01*
X48547600Y-36402400D01*
X48663400Y-36479700D01*
X48800000Y-36506900D01*
X48936600Y-36479700D01*
X49052300Y-36402400D01*
X49129700Y-36286600D01*
X49156900Y-36150000D01*
X49129700Y-36013500D01*
X49052300Y-35897700D01*
X48936600Y-35820300D01*
X48800000Y-35793200D01*
X48663400Y-35820300D01*
X48547600Y-35897700D01*
X48470300Y-36013500D01*
X48443200Y-36149500D01*
X47807800Y-36149500D01*
X47807800Y-35250500D01*
X51293300Y-35250500D01*
X51320400Y-35386500D01*
X51397800Y-35502300D01*
X51513500Y-35579700D01*
X51650100Y-35606800D01*
X51786700Y-35579700D01*
X51902400Y-35502300D01*
X51979800Y-35386500D01*
X52007000Y-35250000D01*
X51979800Y-35113400D01*
X51902400Y-34997600D01*
X51786700Y-34920300D01*
X51650100Y-34893100D01*
X51513500Y-34920300D01*
X51397800Y-34997600D01*
X51320400Y-35113400D01*
X51293300Y-35249500D01*
X47807800Y-35249500D01*
X47807800Y-33650000D01*
X47781900Y-33519800D01*
X47776800Y-33493900D01*
X47688400Y-33361600D01*
X47677200Y-33350400D01*
X52293300Y-33350400D01*
X52320400Y-33486500D01*
X52397700Y-33602300D01*
X52513500Y-33679600D01*
X52650100Y-33706800D01*
X53050100Y-33706800D01*
X53186600Y-33679600D01*
X53302400Y-33602300D01*
X53379800Y-33486500D01*
X53406900Y-33349900D01*
X53379800Y-33213400D01*
X53302400Y-33097600D01*
X53186600Y-33020200D01*
X53050100Y-32993100D01*
X52650100Y-32993100D01*
X52513500Y-33020200D01*
X52397700Y-33097600D01*
X52320400Y-33213400D01*
X52293300Y-33349400D01*
X47676200Y-33349400D01*
X46491900Y-32165100D01*
X47026500Y-32165100D01*
X47053500Y-32301200D01*
X47130900Y-32417000D01*
X47246600Y-32494400D01*
X47383200Y-32521500D01*
X47519800Y-32494400D01*
X47635600Y-32417000D01*
X47712900Y-32301200D01*
X47740100Y-32164600D01*
X47712900Y-32028100D01*
X47635600Y-31912300D01*
X47519800Y-31835000D01*
X47383200Y-31807800D01*
X47246600Y-31835000D01*
X47130900Y-31912300D01*
X47053500Y-32028100D01*
X47026500Y-32164100D01*
X46490900Y-32164100D01*
X45398500Y-31071700D01*
X45412700Y-31000000D01*
X45391320Y-30892400D01*
X45753700Y-30892400D01*
X45780700Y-31028400D01*
X45858100Y-31144200D01*
X45973900Y-31221600D01*
X46110400Y-31248700D01*
X46247000Y-31221600D01*
X46362800Y-31144200D01*
X46440100Y-31028400D01*
X46467300Y-30891900D01*
X46440100Y-30755300D01*
X46362800Y-30639500D01*
X46247000Y-30562200D01*
X46110400Y-30535000D01*
X45973900Y-30562200D01*
X45858100Y-30639500D01*
X45780700Y-30755300D01*
X45753700Y-30891400D01*
X45391120Y-30891400D01*
X45362300Y-30746400D01*
X45218600Y-30531400D01*
X45003600Y-30387700D01*
X44750000Y-30337300D01*
X44678300Y-30351600D01*
X44548900Y-30222100D01*
X44416500Y-30133700D01*
X44390600Y-30128500D01*
X44260500Y-30102700D01*
X44260400Y-30102700D01*
X44137300Y-30102700D01*
X43973900Y-29939300D01*
X43841600Y-29850900D01*
X43685500Y-29819800D01*
X43529400Y-29850900D01*
X43397100Y-29939300D01*
X43308700Y-30071600D01*
X43277800Y-30227200D01*
X37055900Y-30227200D01*
X37055900Y-29290800D01*
X45496300Y-29290800D01*
X49178800Y-32973300D01*
X49229200Y-32994100D01*
X49351000Y-33044600D01*
X50731200Y-33044600D01*
X50737100Y-33053400D01*
X50852900Y-33130700D01*
X50989500Y-33157900D01*
X51126000Y-33130700D01*
X51241800Y-33053400D01*
X51319200Y-32937600D01*
X51346300Y-32801100D01*
X51319200Y-32664500D01*
X51241800Y-32548700D01*
X51126000Y-32471400D01*
X50989500Y-32444200D01*
X50852900Y-32471400D01*
X50737100Y-32548700D01*
X50731200Y-32557500D01*
X49451900Y-32557500D01*
X46185200Y-29290800D01*
X48276300Y-29290800D01*
X48540900Y-29555400D01*
X48538800Y-29565800D01*
X48566000Y-29702300D01*
X48643300Y-29818100D01*
X48759100Y-29895500D01*
X48895700Y-29922600D01*
X49032200Y-29895500D01*
X49148000Y-29818100D01*
X49225400Y-29702300D01*
X49252000Y-29568500D01*
X49385800Y-29541900D01*
X49501600Y-29464600D01*
X49578900Y-29348800D01*
X49590430Y-29290800D01*
X54298000Y-29290800D01*
X54325000Y-29426800D01*
X54402400Y-29542600D01*
X54518200Y-29620000D01*
X54654700Y-29647200D01*
X54791300Y-29620000D01*
X54907000Y-29542600D01*
X54984400Y-29426800D01*
X55011600Y-29290300D01*
X54984400Y-29153700D01*
X54907000Y-29038000D01*
X54791300Y-28960600D01*
X54654700Y-28933400D01*
X54518200Y-28960600D01*
X54402400Y-29038000D01*
X54325000Y-29153700D01*
X54298000Y-29289800D01*
X49590630Y-29289800D01*
X49605500Y-29215000D01*
X49739300Y-29188400D01*
X49855100Y-29111000D01*
X49932500Y-28995200D01*
X49959100Y-28861400D01*
X50092900Y-28834800D01*
X50208600Y-28757400D01*
X50286000Y-28641700D01*
X50312700Y-28507900D01*
X50446400Y-28481300D01*
X50562200Y-28403900D01*
X50639600Y-28288100D01*
X50650500Y-28233200D01*
X50765400Y-28143600D01*
X53291000Y-28143600D01*
X53463200Y-28072200D01*
X53512100Y-28023300D01*
X53522500Y-28025400D01*
X53659000Y-27998200D01*
X53774800Y-27920800D01*
X53852200Y-27805100D01*
X53879300Y-27668500D01*
X53852200Y-27532000D01*
X53774800Y-27416200D01*
X53659000Y-27338800D01*
X53522500Y-27311600D01*
X53385900Y-27338800D01*
X53270100Y-27416200D01*
X53192800Y-27532000D01*
X53168000Y-27656500D01*
X52795000Y-27656500D01*
X52732900Y-27506500D01*
X53114100Y-27125300D01*
X53124500Y-27127300D01*
X53261000Y-27100200D01*
X53376800Y-27022800D01*
X53454100Y-26907000D01*
X53481300Y-26770500D01*
X53454100Y-26633900D01*
X53376800Y-26518200D01*
X53261000Y-26440800D01*
X53124500Y-26413600D01*
X52987900Y-26440800D01*
X52872100Y-26518200D01*
X52794800Y-26633900D01*
X52767600Y-26770500D01*
X52769700Y-26780900D01*
X52349600Y-27200900D01*
X51275200Y-27200900D01*
X51269300Y-27192100D01*
X51153600Y-27114700D01*
X51017000Y-27087600D01*
X50880400Y-27114700D01*
X50764600Y-27192100D01*
X50687300Y-27307900D01*
X50660700Y-27441700D01*
X50526900Y-27468300D01*
X50411100Y-27545700D01*
X50333700Y-27661400D01*
X50307100Y-27795300D01*
X50173300Y-27821900D01*
X50057500Y-27899200D01*
X49980200Y-28015000D01*
X49953600Y-28148800D01*
X49819800Y-28175400D01*
X49704000Y-28252800D01*
X49643700Y-28343000D01*
X49530500Y-28377100D01*
X49470900Y-28382400D01*
X48623800Y-27535300D01*
X48697700Y-27397100D01*
X48754200Y-27408300D01*
X48929800Y-27373400D01*
X49078700Y-27273900D01*
X49178100Y-27125100D01*
X49213100Y-26949500D01*
X49178100Y-26773900D01*
X49078700Y-26625100D01*
X48929800Y-26525600D01*
X48754200Y-26490700D01*
X48578700Y-26525600D01*
X48429800Y-26625100D01*
X48330400Y-26773900D01*
X48295400Y-26949500D01*
X48306700Y-27006000D01*
X48168400Y-27079900D01*
X47321300Y-26232800D01*
X47326600Y-26173200D01*
X47360700Y-26060000D01*
X47450900Y-25999700D01*
X47528300Y-25884000D01*
X47554900Y-25750200D01*
X47688700Y-25723500D01*
X47733600Y-25693500D01*
X48250000Y-25693500D01*
X48422200Y-25622200D01*
X49200900Y-24843500D01*
X49853700Y-24843500D01*
X49962300Y-24993600D01*
X49953000Y-25040300D01*
X49980200Y-25176800D01*
X50057600Y-25292600D01*
X50173300Y-25370000D01*
X50309900Y-25397200D01*
X50320300Y-25395100D01*
X50547400Y-25622200D01*
X50719600Y-25693500D01*
X51703100Y-25693500D01*
X51871600Y-25862100D01*
X51869600Y-25872500D01*
X51896700Y-26009000D01*
X51974100Y-26124800D01*
X52089900Y-26202100D01*
X52226400Y-26229300D01*
X52363000Y-26202100D01*
X52478800Y-26124800D01*
X52556100Y-26009000D01*
X52583300Y-25872500D01*
X52556100Y-25735900D01*
X52478800Y-25620100D01*
X52363000Y-25542800D01*
X52226400Y-25515600D01*
X52216000Y-25517700D01*
X51976200Y-25277800D01*
X51804000Y-25206500D01*
X51761000Y-25206500D01*
X51668900Y-25056500D01*
X51685300Y-24974400D01*
X51658100Y-24837900D01*
X51580700Y-24722100D01*
X51465000Y-24644700D01*
X51328400Y-24617600D01*
X51318000Y-24619700D01*
X51126200Y-24427800D01*
X50954000Y-24356500D01*
X50844600Y-24356500D01*
X50760700Y-24214100D01*
X50761400Y-24206500D01*
X50787200Y-24076400D01*
X50760100Y-23939800D01*
X50682700Y-23824100D01*
X50566900Y-23746700D01*
X50430400Y-23719500D01*
X50293800Y-23746700D01*
X50178000Y-23824100D01*
X50172100Y-23832900D01*
X48887400Y-23832900D01*
X48839900Y-23780700D01*
X48794700Y-23701500D01*
X48801100Y-23692000D01*
X48828300Y-23555400D01*
X48801100Y-23418900D01*
X48723800Y-23303100D01*
X48608000Y-23225700D01*
X48471400Y-23198500D01*
X48334800Y-23225700D01*
X48219100Y-23303100D01*
X48141700Y-23418900D01*
X48114600Y-23555400D01*
X48141700Y-23692000D01*
X48219100Y-23807700D01*
X48334800Y-23885100D01*
X48471400Y-23912300D01*
X48478600Y-23910800D01*
X48552500Y-24049100D01*
X48269700Y-24331900D01*
X48259300Y-24329900D01*
X48122700Y-24357100D01*
X48006900Y-24434400D01*
X47929600Y-24550200D01*
X47903000Y-24684000D01*
X47769200Y-24710600D01*
X47653400Y-24788000D01*
X47576000Y-24903700D01*
X47549400Y-25037500D01*
X47415600Y-25064100D01*
X47299800Y-25141500D01*
X47222500Y-25257300D01*
X47195900Y-25391100D01*
X47062000Y-25417700D01*
X46946300Y-25495100D01*
X46886000Y-25585300D01*
X46772800Y-25619400D01*
X46713200Y-25624700D01*
X46178700Y-25090200D01*
X46182300Y-25035300D01*
X46217000Y-24916400D01*
X46304400Y-24858000D01*
X46381800Y-24742200D01*
X46408400Y-24608400D01*
X46542200Y-24581800D01*
X46658000Y-24504400D01*
X46735300Y-24388600D01*
X46761900Y-24254900D01*
X46895800Y-24228200D01*
X47011500Y-24150800D01*
X47088900Y-24035100D01*
X47115500Y-23901300D01*
X47249300Y-23874700D01*
X47365100Y-23797300D01*
X47442400Y-23681500D01*
X47469600Y-23545000D01*
X47442400Y-23408400D01*
X47365100Y-23292600D01*
X47356300Y-23286800D01*
X47356300Y-22888200D01*
X47720500Y-22523900D01*
X48376100Y-22523900D01*
X48382000Y-22532700D01*
X48497800Y-22610000D01*
X48634300Y-22637200D01*
X48770900Y-22610000D01*
X48886700Y-22532700D01*
X48922500Y-22479100D01*
X49099900Y-22444300D01*
X49288800Y-22633200D01*
X49288800Y-22920200D01*
X49280000Y-22926100D01*
X49202700Y-23041800D01*
X49175500Y-23178400D01*
X49202700Y-23314900D01*
X49280000Y-23430700D01*
X49395800Y-23508100D01*
X49532300Y-23535200D01*
X49668900Y-23508100D01*
X49784700Y-23430700D01*
X49862000Y-23314900D01*
X49889200Y-23178400D01*
X49862000Y-23041800D01*
X49784700Y-22926100D01*
X49775900Y-22920200D01*
X49775900Y-22532400D01*
X49725400Y-22410600D01*
X49704600Y-22360200D01*
X48972200Y-21627800D01*
X48800000Y-21556500D01*
X48300000Y-21556500D01*
X48233100Y-21584200D01*
X48117500Y-21503400D01*
X48101600Y-21476300D01*
X48106800Y-21450000D01*
X48079700Y-21313400D01*
X48002300Y-21197700D01*
X47886500Y-21120300D01*
X47750000Y-21093200D01*
X47706800Y-21050000D01*
X47679700Y-20913500D01*
X47602300Y-20797700D01*
X47486500Y-20720300D01*
X47350000Y-20693100D01*
X47213400Y-20720300D01*
X47097700Y-20797700D01*
X47091800Y-20806500D01*
X46518900Y-20806500D01*
X46405600Y-20783900D01*
X46269100Y-20811100D01*
X46153300Y-20888500D01*
X46075900Y-21004200D01*
X46048800Y-21140800D01*
X46075900Y-21277400D01*
X46153300Y-21393200D01*
X46269100Y-21470500D01*
X46405600Y-21497700D01*
X46542200Y-21470500D01*
X46658000Y-21393200D01*
X46724500Y-21293500D01*
X46999900Y-21293500D01*
X47062000Y-21443500D01*
X45577800Y-22927800D01*
X45506400Y-23100000D01*
X45506400Y-24205800D01*
X45356400Y-24267900D01*
X44725500Y-23637000D01*
X44799400Y-23498700D01*
X44850000Y-23508800D01*
X45025600Y-23473900D01*
X45174400Y-23374400D01*
X45273900Y-23225600D01*
X45308800Y-23050000D01*
X45273900Y-22874400D01*
X45174400Y-22725600D01*
X45025600Y-22626100D01*
X44850000Y-22591200D01*
X44674400Y-22626100D01*
X44525600Y-22725600D01*
X44426100Y-22874400D01*
X44391200Y-23050000D01*
X44401200Y-23100600D01*
X44263000Y-23174500D01*
X43432000Y-22343500D01*
X43494200Y-22193500D01*
X44300000Y-22193500D01*
X44472200Y-22122200D01*
X46118300Y-20476000D01*
X46239800Y-20390600D01*
X46355600Y-20467900D01*
X46492200Y-20495100D01*
X46628800Y-20467900D01*
X46744500Y-20390600D01*
X46821900Y-20274800D01*
X46849000Y-20138200D01*
X46821900Y-20001600D01*
X46744500Y-19885900D01*
X46628800Y-19808500D01*
X46492200Y-19781400D01*
X46355600Y-19808500D01*
X46239800Y-19885900D01*
X46233900Y-19894700D01*
X46111800Y-19894700D01*
X45990000Y-19945100D01*
X45987700Y-19946100D01*
X45837700Y-19871900D01*
X45837700Y-19498400D01*
X45846500Y-19492500D01*
X45923900Y-19376700D01*
X45951000Y-19240200D01*
X45923900Y-19103600D01*
X45846500Y-18987900D01*
X45730700Y-18910500D01*
X45594100Y-18883300D01*
X45457600Y-18910500D01*
X45393500Y-18953300D01*
X45243500Y-18885500D01*
X45243500Y-18646000D01*
X45193100Y-18524300D01*
X45172200Y-18473800D01*
X45050900Y-18352500D01*
X45053000Y-18342200D01*
X45025800Y-18205600D01*
X44948500Y-18089800D01*
X44832700Y-18012500D01*
X44696100Y-17985300D01*
X44559600Y-18012500D01*
X44443800Y-18089800D01*
X44366500Y-18205600D01*
X44339300Y-18342200D01*
X44366500Y-18478700D01*
X44443800Y-18594500D01*
X44559600Y-18671900D01*
X44696100Y-18699000D01*
X44756400Y-18830300D01*
X44756400Y-19194800D01*
X44606400Y-19306900D01*
X44567200Y-19299100D01*
X44430600Y-19326200D01*
X44314800Y-19403600D01*
X44237500Y-19519300D01*
X44210300Y-19655900D01*
X44237500Y-19792500D01*
X44314800Y-19908300D01*
X44430600Y-19985600D01*
X44567200Y-20012800D01*
X44574400Y-20011400D01*
X44648300Y-20149600D01*
X44365400Y-20432500D01*
X44355000Y-20430400D01*
X44218400Y-20457600D01*
X44102700Y-20534900D01*
X44025300Y-20650700D01*
X43998700Y-20784500D01*
X43864900Y-20811100D01*
X43749100Y-20888500D01*
X43671800Y-21004200D01*
X43645200Y-21138100D01*
X43511400Y-21164700D01*
X43395600Y-21242000D01*
X43318200Y-21357800D01*
X43291600Y-21491600D01*
X43157800Y-21518200D01*
X43042000Y-21595600D01*
X42983600Y-21683000D01*
X42864700Y-21717700D01*
X42809800Y-21721300D01*
X42300800Y-21212300D01*
X42306200Y-21152700D01*
X42340200Y-21039600D01*
X42430500Y-20979300D01*
X42507800Y-20863500D01*
X42534500Y-20729700D01*
X42668300Y-20703100D01*
X42784000Y-20625700D01*
X42861400Y-20509900D01*
X42888000Y-20376200D01*
X43021800Y-20349500D01*
X43137600Y-20272200D01*
X43214900Y-20156400D01*
X43241500Y-20022600D01*
X43375400Y-19996000D01*
X43491100Y-19918600D01*
X43568500Y-19802900D01*
X43595700Y-19666300D01*
X43568500Y-19529700D01*
X43491100Y-19413900D01*
X43482300Y-19408100D01*
X43482300Y-18104300D01*
X43787700Y-17798900D01*
X43798100Y-17801000D01*
X43934700Y-17773800D01*
X44050400Y-17696500D01*
X44127800Y-17580700D01*
X44155000Y-17444200D01*
X44127800Y-17307600D01*
X44050400Y-17191800D01*
X43934700Y-17114400D01*
X43798100Y-17087300D01*
X43661500Y-17114400D01*
X43545800Y-17191800D01*
X43468400Y-17307600D01*
X43441300Y-17444200D01*
X43443300Y-17454500D01*
X43066600Y-17831200D01*
X42995300Y-18003400D01*
X42995300Y-19408100D01*
X42986500Y-19413900D01*
X42926200Y-19504200D01*
X42813000Y-19538300D01*
X42753400Y-19543600D01*
X42245600Y-19035800D01*
X42245600Y-17672300D01*
X42395100Y-17591800D01*
X42531700Y-17619000D01*
X42668300Y-17591800D01*
X42784000Y-17514500D01*
X42861400Y-17398700D01*
X42888600Y-17262100D01*
X42861400Y-17125500D01*
X42784100Y-17009800D01*
X42783800Y-17006800D01*
X42889700Y-16900900D01*
X42900100Y-16903000D01*
X43036700Y-16875800D01*
X43152400Y-16798500D01*
X43229800Y-16682700D01*
X43256900Y-16546100D01*
X43229800Y-16409500D01*
X43152400Y-16293800D01*
X43036700Y-16216400D01*
X42900100Y-16189300D01*
X42763500Y-16216400D01*
X42647700Y-16293800D01*
X42570400Y-16409500D01*
X42543200Y-16546100D01*
X42545300Y-16556500D01*
X42395600Y-16706200D01*
X42245600Y-16655200D01*
X42245600Y-15906300D01*
X42254400Y-15900400D01*
X42331700Y-15784600D01*
X42358900Y-15648100D01*
X42331700Y-15511500D01*
X42254400Y-15395800D01*
X42138600Y-15318400D01*
X42002000Y-15291200D01*
X41943500Y-15302900D01*
X41798400Y-15203200D01*
X41791700Y-15191800D01*
X41722200Y-15023800D01*
X41458800Y-14760400D01*
X41460900Y-14750100D01*
X41433700Y-14613500D01*
X41356400Y-14497700D01*
X41240600Y-14420400D01*
X41104000Y-14393200D01*
X40967500Y-14420400D01*
X40851700Y-14497700D01*
X40774300Y-14613500D01*
X40747200Y-14750100D01*
X40774300Y-14886600D01*
X40851700Y-15002400D01*
X40967500Y-15079800D01*
X41104000Y-15106900D01*
X41114400Y-15104900D01*
X41306500Y-15296900D01*
X41306500Y-18670400D01*
X41156500Y-18750600D01*
X41151600Y-18747400D01*
X40976100Y-18712500D01*
X40800500Y-18747400D01*
X40651600Y-18846900D01*
X40552200Y-18995700D01*
X40517400Y-19170800D01*
X38055900Y-19170800D01*
X38055900Y-12785100D01*
X38205900Y-12755200D01*
X38237700Y-12832200D01*
X39006400Y-13600900D01*
X39006400Y-17798800D01*
X39068000Y-17947200D01*
X39063600Y-17969200D01*
X39090700Y-18105800D01*
X39168100Y-18221600D01*
X39283900Y-18298900D01*
X39420400Y-18326100D01*
X39557000Y-18298900D01*
X39672800Y-18221600D01*
X39750100Y-18105800D01*
X39776700Y-17972000D01*
X39910600Y-17945400D01*
X40026300Y-17868000D01*
X40103700Y-17752200D01*
X40130300Y-17618400D01*
X40264100Y-17591800D01*
X40379900Y-17514500D01*
X40457200Y-17398700D01*
X40483900Y-17264900D01*
X40617600Y-17238300D01*
X40733400Y-17160900D01*
X40810800Y-17045100D01*
X40838000Y-16908600D01*
X40810800Y-16772000D01*
X40733400Y-16656200D01*
X40617600Y-16578900D01*
X40481100Y-16551700D01*
X40449600Y-16405100D01*
X40449600Y-16202000D01*
X40599500Y-16115400D01*
X40693200Y-16134100D01*
X40829800Y-16106900D01*
X40945600Y-16029600D01*
X41022900Y-15913800D01*
X41050100Y-15777300D01*
X41022900Y-15640700D01*
X40945600Y-15524900D01*
X40829800Y-15447500D01*
X40693200Y-15420400D01*
X40599500Y-15439000D01*
X40449600Y-15352400D01*
X40449600Y-14110300D01*
X40458300Y-14104400D01*
X40535700Y-13988600D01*
X40562900Y-13852100D01*
X40535700Y-13715500D01*
X40458300Y-13599700D01*
X40342600Y-13522300D01*
X40206000Y-13495200D01*
X40093500Y-13517500D01*
X40010900Y-13477600D01*
X39943500Y-13426100D01*
X39943500Y-13346000D01*
X39872200Y-13173800D01*
X39662800Y-12964400D01*
X39664800Y-12954000D01*
X39637700Y-12817400D01*
X39560300Y-12701700D01*
X39444500Y-12624300D01*
X39308000Y-12597100D01*
X39171400Y-12624300D01*
X39055600Y-12701700D01*
X39036600Y-12730100D01*
X38849400Y-12755000D01*
X38653500Y-12559100D01*
X38653500Y-12314200D01*
X38662300Y-12308300D01*
X38739700Y-12192500D01*
X38766800Y-12056000D01*
X38739700Y-11919400D01*
X38662300Y-11803600D01*
X38546500Y-11726300D01*
X38409900Y-11699100D01*
X38273400Y-11726300D01*
X38205900Y-11771400D01*
X38058700Y-11707700D01*
X38055900Y-11705000D01*
X38055900Y-10032700D01*
X38205900Y-9987300D01*
X38226200Y-10017800D01*
X38449500Y-10167000D01*
X38712900Y-10219300D01*
X38842400Y-10193600D01*
X38948500Y-10299700D01*
X38922700Y-10429100D01*
X38975100Y-10692500D01*
X39124300Y-10915800D01*
X39347500Y-11065000D01*
X39610900Y-11117400D01*
X39740400Y-11091600D01*
X39846500Y-11197700D01*
X39820700Y-11327100D01*
X39873100Y-11590500D01*
X40022300Y-11813800D01*
X40245600Y-11963000D01*
X40508900Y-12015400D01*
X40638400Y-11989600D01*
X40744500Y-12095700D01*
X40718800Y-12225200D01*
X40771100Y-12488600D01*
X40920300Y-12711800D01*
X41143600Y-12861000D01*
X41407000Y-12913400D01*
X41536500Y-12887700D01*
X41642500Y-12993700D01*
X41616800Y-13123200D01*
X41669200Y-13386600D01*
X41818400Y-13609900D01*
X42041600Y-13759100D01*
X42305000Y-13811400D01*
X42434500Y-13785700D01*
X42540600Y-13891800D01*
X42514800Y-14021200D01*
X42567200Y-14284600D01*
X42716400Y-14507900D01*
X42939600Y-14657100D01*
X43203000Y-14709500D01*
X43332500Y-14683700D01*
X43438600Y-14789800D01*
X43412800Y-14919300D01*
X43465200Y-15182600D01*
X43614400Y-15405900D01*
G37*
%TD.AperFunction*%
%TD*%
M02*
