%TF.GenerationSoftware,KiCad,Pcbnew,7.0.11+dfsg-1build4*%
%TF.CreationDate,2026-10-01T15:00:51+10:00*%
%TF.ProjectId,Reid_Orthotic_v2_LHS,52656964-5f4f-4727-9468-6f7469635f76,R4*%
%TF.SameCoordinates,Original*%
%TF.FileFunction,Copper,L3,Inr*%
%TF.FilePolarity,Positive*%
%FSLAX46Y46*%
G04 Gerber Fmt 4.6, Leading zero omitted, Abs format (unit mm)*
G04 Created by KiCad (PCBNEW 7.0.11+dfsg-1build4) date 2026-10-01 15:00:51*
%MOMM*%
%LPD*%
G01*
G04 APERTURE LIST*
G04 Aperture macros list*
%AMHorizOval*
0 Thick line with rounded ends*
0 $1 width*
0 $2 $3 position (X,Y) of the first rounded end (center of the circle)*
0 $4 $5 position (X,Y) of the second rounded end (center of the circle)*
0 Add line between two ends*
20,1,$1,$2,$3,$4,$5,0*
0 Add two circle primitives to create the rounded ends*
1,1,$1,$2,$3*
1,1,$1,$4,$5*%
G04 Aperture macros list end*
%TA.AperFunction,ComponentPad*%
%ADD10O,1.500000X1.050000*%
%TD*%
%TA.AperFunction,ComponentPad*%
%ADD11HorizOval,1.050000X0.159099X0.159099X-0.159099X-0.159099X0*%
%TD*%
%TA.AperFunction,ViaPad*%
%ADD12C,0.400000*%
%TD*%
%TA.AperFunction,Conductor*%
%ADD13C,0.150000*%
%TD*%
%TA.AperFunction,Conductor*%
%ADD14C,0.400000*%
%TD*%
G04 APERTURE END LIST*
D10*
%TO.N,0V*%
%TO.C,J2*%
X56750000Y-53030000D03*
%TD*%
D11*
%TO.N,0V*%
%TO.C,J1*%
X48750302Y-19250302D03*
%TD*%
D12*
%TO.N,TEMP_S4*%
X37600000Y-43850000D03*
%TO.N,TEMP_S1*%
X37250000Y-43450000D03*
%TO.N,TEMP_S0*%
X37600000Y-43050000D03*
%TO.N,TEMP_S2*%
X37250000Y-42650000D03*
%TO.N,TEMP_S3*%
X37600000Y-42250000D03*
%TO.N,CAP_S2*%
X37250000Y-41850000D03*
%TO.N,CAP_S1*%
X37600000Y-41450000D03*
%TO.N,CAP_S0*%
X37250000Y-41050000D03*
%TO.N,BQ_CHG*%
X37600000Y-40650000D03*
%TO.N,NET7*%
X43119800Y-26267800D03*
%TO.N,BQ_CHG*%
X42483400Y-26904200D03*
%TO.N,FSR_S0*%
X49602800Y-28858700D03*
%TO.N,FSR_S1*%
X49249200Y-29212200D03*
%TO.N,FSR_S2*%
X48895700Y-29565800D03*
%TO.N,ADC_VBAT*%
X46110400Y-30891900D03*
%TO.N,VSYS*%
X43968400Y-30510500D03*
X43685500Y-30227700D03*
%TO.N,3V3*%
X42023800Y-32667100D03*
X42306700Y-32950000D03*
%TO.N,NET7*%
X38600000Y-36900000D03*
%TO.N,FSR_S0*%
X39300000Y-38200000D03*
%TO.N,FSR_S1*%
X39700000Y-38550000D03*
%TO.N,FSR_S2*%
X40100000Y-38200000D03*
%TO.N,VBAT_ON*%
X40500000Y-38550000D03*
%TO.N,ADC_VBAT*%
X40900000Y-38200000D03*
%TO.N,FSR_CH0*%
X41300000Y-38550000D03*
%TO.N,FSR_CH1*%
X41700000Y-38200000D03*
%TO.N,FSR_CH2*%
X42100000Y-38550000D03*
%TO.N,VBAT_ON*%
X47383200Y-32164600D03*
%TO.N,FSR_CH2*%
X47905700Y-25040300D03*
%TO.N,MUX_ON*%
X51650100Y-35250000D03*
%TO.N,SDA*%
X51050000Y-36950000D03*
%TO.N,SCL*%
X51050000Y-37850000D03*
%TO.N,CAP_CH0*%
X52200000Y-40850000D03*
%TO.N,TEMP_S2*%
X54654700Y-39450300D03*
%TO.N,TEMP_S0*%
X54654700Y-33100300D03*
%TO.N,TEMP_S1*%
X54654700Y-29290300D03*
%TO.N,0V*%
X56250000Y-27656800D03*
X56650000Y-27550000D03*
%TO.N,MUX_VCC*%
X53200100Y-31799900D03*
X53200100Y-32199900D03*
%TO.N,3V3*%
X53050100Y-33349900D03*
X52650100Y-33349900D03*
%TO.N,NET46*%
X48800000Y-36150000D03*
%TO.N,CAP_CH0*%
X44950000Y-42250000D03*
%TO.N,MUX_ON*%
X44600000Y-41850000D03*
%TO.N,TEMP_COM*%
X44600000Y-42650000D03*
%TO.N,CAP_CH1*%
X44950000Y-43050000D03*
%TO.N,SCL*%
X44600000Y-43450000D03*
%TO.N,SDA*%
X44950000Y-43850000D03*
%TO.N,NET46*%
X44600000Y-44250000D03*
%TO.N,VSYS*%
X47900000Y-47000000D03*
X48300000Y-47000000D03*
X48700000Y-47000000D03*
%TO.N,CAP_S2*%
X49700000Y-44750000D03*
%TO.N,CAP_S1*%
X50200000Y-44750000D03*
%TO.N,CAP_S0*%
X50700000Y-44750000D03*
%TO.N,TEMP_S3*%
X54654700Y-45800300D03*
%TO.N,TEMP_COM*%
X54350000Y-47300000D03*
%TO.N,CAP_CH1*%
X52200000Y-49650000D03*
%TO.N,TEMP_S4*%
X54654700Y-50880300D03*
%TO.N,0V*%
X55600000Y-53500000D03*
%TO.N,FSR_CH0*%
X40127500Y-17262100D03*
%TO.N,FSR_CH1*%
X44001500Y-21140800D03*
%TD*%
D13*
%TO.N,FSR_CH1*%
X44100000Y-25375800D02*
X44100000Y-21140800D01*
%TO.N,MUX_ON*%
X51650100Y-35250000D02*
X52050000Y-35649800D01*
X52050000Y-38400000D02*
X52050000Y-35649800D01*
%TO.N,FSR_CH0*%
X40250000Y-21550000D02*
X43750000Y-25050000D01*
X43750000Y-25450000D02*
X43750000Y-25050000D01*
X43750000Y-25450000D02*
X47400000Y-29100000D01*
X40250000Y-21550000D02*
X40250000Y-17384600D01*
%TO.N,NET7*%
X41950000Y-28700000D02*
X41950000Y-26800000D01*
X39500000Y-31150000D02*
X41950000Y-28700000D01*
X39500000Y-36300000D02*
X39500000Y-31150000D01*
%TO.N,BQ_CHG*%
X42250000Y-28850000D02*
X42250000Y-27137600D01*
X39800000Y-31300000D02*
X42250000Y-28850000D01*
X39800000Y-37100000D02*
X39800000Y-31300000D01*
%TO.N,MUX_ON*%
X49600000Y-40850000D02*
X52050000Y-38400000D01*
X45600000Y-40850000D02*
X49600000Y-40850000D01*
%TO.N,FSR_S0*%
X45250000Y-38900000D02*
X45448500Y-38900000D01*
X40000000Y-39600000D02*
X44550000Y-39600000D01*
X44550000Y-39600000D02*
X45250000Y-38900000D01*
X45448500Y-38900000D02*
X50050000Y-34298600D01*
X39300000Y-38900000D02*
X40000000Y-39600000D01*
X39300000Y-38900000D02*
X39300000Y-38200000D01*
X50050000Y-34298600D02*
X50050000Y-29305900D01*
X49602800Y-28858700D02*
X50050000Y-29305900D01*
%TO.N,NET7*%
X42482200Y-26267800D02*
X43119800Y-26267800D01*
X41950000Y-26800000D02*
X42482200Y-26267800D01*
%TO.N,BQ_CHG*%
X42250000Y-27137600D02*
X42483400Y-26904200D01*
X38300000Y-38600000D02*
X39800000Y-37100000D01*
%TO.N,NET7*%
X39150000Y-36650000D02*
X39500000Y-36300000D01*
X38850000Y-36650000D02*
X39150000Y-36650000D01*
X38600000Y-36900000D02*
X38850000Y-36650000D01*
%TO.N,BQ_CHG*%
X38300000Y-39950000D02*
X38300000Y-38600000D01*
X37600000Y-40650000D02*
X38300000Y-39950000D01*
%TO.N,FSR_CH0*%
X40127500Y-17262100D02*
X40250000Y-17384600D01*
%TO.N,FSR_CH1*%
X44100000Y-25375800D02*
X47700000Y-28975700D01*
X47700000Y-30125800D02*
X47700000Y-28975700D01*
%TO.N,FSR_CH0*%
X47400000Y-30250000D02*
X47400000Y-29100000D01*
%TO.N,FSR_CH2*%
X48000000Y-30001500D02*
X48000000Y-25100000D01*
X48000000Y-30001500D02*
X48750000Y-30751500D01*
%TO.N,FSR_CH1*%
X47700000Y-30125800D02*
X48450000Y-30875800D01*
%TO.N,FSR_CH0*%
X47400000Y-30250000D02*
X48150000Y-31000000D01*
%TO.N,FSR_CH2*%
X48750000Y-32698500D02*
X48750000Y-30751500D01*
%TO.N,FSR_CH1*%
X48450000Y-32574300D02*
X48450000Y-30875800D01*
%TO.N,FSR_CH0*%
X48150000Y-32450000D02*
X48150000Y-31000000D01*
%TO.N,FSR_CH2*%
X43098500Y-38350000D02*
X48750000Y-32698500D01*
%TO.N,FSR_CH1*%
X42974200Y-38050000D02*
X48450000Y-32574300D01*
%TO.N,FSR_CH0*%
X42850000Y-37750000D02*
X48150000Y-32450000D01*
X41550000Y-37750000D02*
X42850000Y-37750000D01*
X41300000Y-38000000D02*
X41550000Y-37750000D01*
X41300000Y-38550000D02*
X41300000Y-38000000D01*
%TO.N,FSR_CH2*%
X42300000Y-38350000D02*
X43098500Y-38350000D01*
X42100000Y-38550000D02*
X42300000Y-38350000D01*
%TO.N,FSR_CH1*%
X41850000Y-38050000D02*
X42974200Y-38050000D01*
X41700000Y-38200000D02*
X41850000Y-38050000D01*
%TO.N,ADC_VBAT*%
X47800000Y-32374300D02*
X47800000Y-31851500D01*
X46840400Y-30891900D02*
X47800000Y-31851500D01*
%TO.N,VBAT_ON*%
X47383200Y-32366800D02*
X47383200Y-32164600D01*
%TO.N,ADC_VBAT*%
X42974200Y-37200000D02*
X47800000Y-32374300D01*
%TO.N,VBAT_ON*%
X42850000Y-36900000D02*
X47383200Y-32366800D01*
%TO.N,FSR_S1*%
X49249200Y-29212200D02*
X49750000Y-29713000D01*
X49750000Y-34174300D02*
X49750000Y-29713000D01*
%TO.N,FSR_S2*%
X48895700Y-29565800D02*
X49450000Y-30120100D01*
X49450000Y-34050000D02*
X49450000Y-30120100D01*
%TO.N,FSR_S1*%
X45324200Y-38600000D02*
X49750000Y-34174300D01*
%TO.N,FSR_S2*%
X45200000Y-38300000D02*
X49450000Y-34050000D01*
%TO.N,FSR_S1*%
X44324200Y-38600000D02*
X45324200Y-38600000D01*
%TO.N,FSR_S2*%
X44200000Y-38300000D02*
X45200000Y-38300000D01*
%TO.N,FSR_S1*%
X43624200Y-39300000D02*
X44324200Y-38600000D01*
%TO.N,FSR_S2*%
X43500000Y-39000000D02*
X44200000Y-38300000D01*
%TO.N,FSR_S1*%
X40150000Y-39300000D02*
X43624200Y-39300000D01*
X39700000Y-38850000D02*
X40150000Y-39300000D01*
X39700000Y-38850000D02*
X39700000Y-38550000D01*
%TO.N,FSR_S2*%
X40300000Y-39000000D02*
X43500000Y-39000000D01*
X40100000Y-38800000D02*
X40300000Y-39000000D01*
X40100000Y-38800000D02*
X40100000Y-38200000D01*
%TO.N,ADC_VBAT*%
X40900000Y-38200000D02*
X40900000Y-37700000D01*
%TO.N,VBAT_ON*%
X40500000Y-38550000D02*
X40500000Y-37675800D01*
X40500000Y-37675800D02*
X41275700Y-36900000D01*
%TO.N,ADC_VBAT*%
X40900000Y-37700000D02*
X41400000Y-37200000D01*
X41400000Y-37200000D02*
X42974200Y-37200000D01*
%TO.N,VBAT_ON*%
X41275700Y-36900000D02*
X42850000Y-36900000D01*
%TO.N,ADC_VBAT*%
X46110400Y-30891900D02*
X46840400Y-30891900D01*
%TO.N,CAP_CH1*%
X50300000Y-43250000D02*
X50900000Y-43850000D01*
%TO.N,TEMP_COM*%
X50424300Y-42950000D02*
X51024300Y-43550000D01*
X51024300Y-43550000D02*
X52624200Y-43550000D01*
%TO.N,CAP_CH1*%
X50900000Y-43850000D02*
X52500000Y-43850000D01*
%TO.N,TEMP_COM*%
X52624200Y-43550000D02*
X53500000Y-44425800D01*
%TO.N,CAP_CH1*%
X52500000Y-43850000D02*
X53200000Y-44550000D01*
%TO.N,CAP_CH0*%
X52200000Y-41200000D02*
X52200000Y-40850000D01*
X50750000Y-42650000D02*
X52200000Y-41200000D01*
%TO.N,CAP_CH1*%
X45150000Y-43250000D02*
X50300000Y-43250000D01*
X44950000Y-43050000D02*
X45150000Y-43250000D01*
%TO.N,TEMP_COM*%
X45500000Y-42950000D02*
X50424300Y-42950000D01*
X45200000Y-42650000D02*
X45500000Y-42950000D01*
X44600000Y-42650000D02*
X45200000Y-42650000D01*
%TO.N,CAP_CH0*%
X45650000Y-42650000D02*
X50750000Y-42650000D01*
X45250000Y-42250000D02*
X45650000Y-42650000D01*
X44950000Y-42250000D02*
X45250000Y-42250000D01*
%TO.N,CAP_CH1*%
X53200000Y-48400000D02*
X53200000Y-44550000D01*
X52200000Y-49400000D02*
X53200000Y-48400000D01*
X52200000Y-49650000D02*
X52200000Y-49400000D01*
%TO.N,TEMP_COM*%
X53500000Y-46450000D02*
X54350000Y-47300000D01*
X53500000Y-46450000D02*
X53500000Y-44425800D01*
%TO.N,MUX_ON*%
X44600000Y-41850000D02*
X45600000Y-40850000D01*
%TO.N,SCL*%
X50074200Y-37850000D02*
X51050000Y-37850000D01*
X47774300Y-40150000D02*
X50074200Y-37850000D01*
%TO.N,SDA*%
X50550000Y-36950000D02*
X51050000Y-36950000D01*
X47650000Y-39850000D02*
X50550000Y-36950000D01*
%TO.N,NET46*%
X48800000Y-38275800D02*
X48800000Y-36150000D01*
X47525700Y-39550000D02*
X48800000Y-38275800D01*
X45251500Y-39550000D02*
X47525700Y-39550000D01*
%TO.N,SCL*%
X45500000Y-40150000D02*
X47774300Y-40150000D01*
%TO.N,SDA*%
X45375700Y-39850000D02*
X47650000Y-39850000D01*
X43700000Y-41525800D02*
X45375700Y-39850000D01*
%TO.N,NET46*%
X43400000Y-41401500D02*
X45251500Y-39550000D01*
%TO.N,SCL*%
X44000000Y-41650000D02*
X45500000Y-40150000D01*
X44421300Y-43450000D02*
X44600000Y-43450000D01*
X44000000Y-43028700D02*
X44421300Y-43450000D01*
%TO.N,SDA*%
X44397000Y-43850000D02*
X44950000Y-43850000D01*
X43700000Y-43153000D02*
X44397000Y-43850000D01*
%TO.N,NET46*%
X44372800Y-44250000D02*
X44600000Y-44250000D01*
X43400000Y-43277200D02*
X44372800Y-44250000D01*
%TO.N,CAP_S0*%
X43100000Y-43401500D02*
X44398500Y-44700000D01*
%TO.N,CAP_S1*%
X42800000Y-43525800D02*
X44274300Y-45000000D01*
%TO.N,CAP_S2*%
X42500000Y-43650000D02*
X43350000Y-44500000D01*
%TO.N,SCL*%
X44000000Y-43028700D02*
X44000000Y-41650000D01*
%TO.N,SDA*%
X43700000Y-43153000D02*
X43700000Y-41525800D01*
%TO.N,NET46*%
X43400000Y-43277200D02*
X43400000Y-41401500D01*
%TO.N,CAP_S2*%
X42500000Y-43650000D02*
X42500000Y-42724300D01*
X43350000Y-45400000D02*
X43350000Y-44500000D01*
X43350000Y-45400000D02*
X43550000Y-45600000D01*
%TO.N,CAP_S0*%
X42374200Y-41750000D02*
X43100000Y-42475700D01*
X43100000Y-43401500D02*
X43100000Y-42475700D01*
%TO.N,CAP_S1*%
X42250000Y-42050000D02*
X42800000Y-42600000D01*
X42800000Y-43525800D02*
X42800000Y-42600000D01*
%TO.N,CAP_S2*%
X42125700Y-42350000D02*
X42500000Y-42724300D01*
%TO.N,CAP_S1*%
X50200000Y-44750000D02*
X50200000Y-44650000D01*
X49850000Y-44300000D02*
X50200000Y-44650000D01*
X46875700Y-44300000D02*
X49850000Y-44300000D01*
%TO.N,CAP_S0*%
X50700000Y-44750000D02*
X50700000Y-44650000D01*
X50050000Y-44000000D02*
X50700000Y-44650000D01*
X46751500Y-44000000D02*
X50050000Y-44000000D01*
%TO.N,CAP_S2*%
X49550000Y-44600000D02*
X49700000Y-44750000D01*
X47000000Y-44600000D02*
X49550000Y-44600000D01*
%TO.N,CAP_S1*%
X46175700Y-45000000D02*
X46875700Y-44300000D01*
%TO.N,CAP_S0*%
X46051500Y-44700000D02*
X46751500Y-44000000D01*
%TO.N,CAP_S2*%
X46300000Y-45300000D02*
X47000000Y-44600000D01*
%TO.N,TEMP_S3*%
X45647000Y-46250000D02*
X49497000Y-50100000D01*
X43197100Y-46250000D02*
X45647000Y-46250000D01*
X40497000Y-43550000D02*
X43197100Y-46250000D01*
%TO.N,TEMP_S2*%
X45522800Y-46550000D02*
X49372800Y-50400000D01*
X43072800Y-46550000D02*
X45522800Y-46550000D01*
X40372800Y-43850000D02*
X43072800Y-46550000D01*
%TO.N,TEMP_S0*%
X45398500Y-46850000D02*
X49248500Y-50700000D01*
X42948500Y-46850000D02*
X45398500Y-46850000D01*
X40248500Y-44150000D02*
X42948500Y-46850000D01*
%TO.N,TEMP_S1*%
X45274300Y-47150000D02*
X49124200Y-51000000D01*
X42824200Y-47150000D02*
X45274300Y-47150000D01*
X40124200Y-44450000D02*
X42824200Y-47150000D01*
%TO.N,TEMP_S4*%
X45150000Y-47450000D02*
X49000000Y-51300000D01*
X42700000Y-47450000D02*
X45150000Y-47450000D01*
X40000000Y-44750000D02*
X42700000Y-47450000D01*
%TO.N,CAP_S2*%
X44300000Y-45300000D02*
X46300000Y-45300000D01*
X44000000Y-45600000D02*
X44300000Y-45300000D01*
%TO.N,CAP_S1*%
X44275700Y-45000000D02*
X46175700Y-45000000D01*
%TO.N,CAP_S0*%
X44400000Y-44700000D02*
X46051500Y-44700000D01*
%TO.N,CAP_S2*%
X43550000Y-45600000D02*
X44000000Y-45600000D01*
%TO.N,TEMP_S4*%
X49000000Y-51300000D02*
X50300000Y-51300000D01*
%TO.N,TEMP_S1*%
X49124200Y-51000000D02*
X53572800Y-51000000D01*
%TO.N,TEMP_S4*%
X50300000Y-51300000D02*
X51250000Y-52250000D01*
X51250000Y-52250000D02*
X53750000Y-52250000D01*
X53750000Y-52250000D02*
X54654700Y-51345300D01*
X54654700Y-51345300D02*
X54654700Y-50880300D01*
%TO.N,TEMP_S0*%
X49248500Y-50700000D02*
X53448500Y-50700000D01*
%TO.N,TEMP_S2*%
X49372800Y-50400000D02*
X53324200Y-50400000D01*
%TO.N,TEMP_S3*%
X49497000Y-50100000D02*
X53200000Y-50100000D01*
%TO.N,TEMP_S0*%
X53448500Y-50700000D02*
X55400000Y-48748500D01*
%TO.N,TEMP_S2*%
X53324200Y-50400000D02*
X55100000Y-48624300D01*
%TO.N,TEMP_S3*%
X53200000Y-50100000D02*
X54800000Y-48500000D01*
X54800000Y-48500000D02*
X54800000Y-45945600D01*
X54654700Y-45800300D02*
X54800000Y-45945600D01*
X39198500Y-43550000D02*
X40497000Y-43550000D01*
%TO.N,CAP_S2*%
X39475700Y-42350000D02*
X42125700Y-42350000D01*
%TO.N,CAP_S0*%
X39724200Y-41750000D02*
X42374200Y-41750000D01*
%TO.N,CAP_S1*%
X39600000Y-42050000D02*
X42250000Y-42050000D01*
%TO.N,CAP_S2*%
X38875700Y-41750000D02*
X39475700Y-42350000D01*
%TO.N,CAP_S0*%
X39124300Y-41150000D02*
X39724200Y-41750000D01*
%TO.N,CAP_S1*%
X39000000Y-41450000D02*
X39600000Y-42050000D01*
%TO.N,CAP_S0*%
X37900000Y-41150000D02*
X39124300Y-41150000D01*
X37800000Y-41050000D02*
X37900000Y-41150000D01*
X37250000Y-41050000D02*
X37800000Y-41050000D01*
%TO.N,CAP_S2*%
X37950000Y-41750000D02*
X38875700Y-41750000D01*
X37850000Y-41850000D02*
X37950000Y-41750000D01*
X37250000Y-41850000D02*
X37850000Y-41850000D01*
%TO.N,CAP_S1*%
X37600000Y-41450000D02*
X39000000Y-41450000D01*
%TO.N,TEMP_S3*%
X37600000Y-42250000D02*
X37898500Y-42250000D01*
%TO.N,TEMP_S2*%
X37250000Y-42650000D02*
X37874200Y-42650000D01*
%TO.N,TEMP_S0*%
X37600000Y-43050000D02*
X37850000Y-43050000D01*
%TO.N,TEMP_S1*%
X37250000Y-43450000D02*
X37825700Y-43450000D01*
%TO.N,TEMP_S4*%
X37600000Y-43850000D02*
X37801500Y-43850000D01*
X37801500Y-43850000D02*
X38701400Y-44750000D01*
%TO.N,TEMP_S1*%
X37825700Y-43450000D02*
X38825700Y-44450000D01*
%TO.N,TEMP_S2*%
X37874200Y-42650000D02*
X39074200Y-43850000D01*
%TO.N,TEMP_S3*%
X37898500Y-42250000D02*
X39198500Y-43550000D01*
%TO.N,TEMP_S0*%
X37850000Y-43050000D02*
X38950000Y-44150000D01*
%TO.N,TEMP_S4*%
X38701400Y-44750000D02*
X40000000Y-44750000D01*
%TO.N,TEMP_S1*%
X38825700Y-44450000D02*
X40124200Y-44450000D01*
%TO.N,TEMP_S0*%
X38950000Y-44150000D02*
X40248500Y-44150000D01*
%TO.N,TEMP_S2*%
X39074200Y-43850000D02*
X40372800Y-43850000D01*
X55100000Y-48624300D02*
X55100000Y-39895600D01*
%TO.N,TEMP_S0*%
X55400000Y-48748500D02*
X55400000Y-33845600D01*
X54654700Y-33100300D02*
X55400000Y-33845600D01*
%TO.N,TEMP_S2*%
X54654700Y-39450300D02*
X55100000Y-39895600D01*
%TO.N,TEMP_S1*%
X54654700Y-29290300D02*
X55700000Y-30335600D01*
X53572800Y-51000000D02*
X55700000Y-48872800D01*
X55700000Y-48872800D02*
X55700000Y-30335600D01*
D14*
%TO.N,MUX_VCC*%
X53200100Y-32199900D02*
X53200100Y-31799900D01*
%TO.N,3V3*%
X52650100Y-33349900D02*
X53050100Y-33349900D01*
X42023800Y-32667100D02*
X42306700Y-32950000D01*
%TO.N,VSYS*%
X43685500Y-30227700D02*
X43968400Y-30510500D01*
X48300000Y-47000000D02*
X48700000Y-47000000D01*
X47900000Y-47000000D02*
X48300000Y-47000000D01*
%TD*%
%TA.AperFunction,Conductor*%
%TO.N,0V*%
G36*
X52063400Y-45079700D02*
G01*
X52200000Y-45106900D01*
X52336600Y-45079700D01*
X52450000Y-45003900D01*
X52563400Y-45079700D01*
X52700000Y-45106900D01*
X52806500Y-45085700D01*
X52910600Y-45141600D01*
X52956500Y-45180000D01*
X52956500Y-48299100D01*
X52027800Y-49227800D01*
X52014800Y-49259000D01*
X51836500Y-49320300D01*
X51700000Y-49293200D01*
X51563400Y-49320300D01*
X51450000Y-49396100D01*
X51336500Y-49320300D01*
X51200000Y-49293200D01*
X51063400Y-49320300D01*
X50947700Y-49397700D01*
X50870300Y-49513400D01*
X50843100Y-49650000D01*
X50854400Y-49706500D01*
X50750300Y-49856500D01*
X49597900Y-49856500D01*
X46741900Y-47000500D01*
X47543200Y-47000500D01*
X47570300Y-47136600D01*
X47647600Y-47252300D01*
X47763400Y-47329700D01*
X47900000Y-47356900D01*
X48700000Y-47356900D01*
X48836500Y-47329700D01*
X48952300Y-47252300D01*
X49029700Y-47136600D01*
X49056900Y-47000000D01*
X49029700Y-46863400D01*
X48952300Y-46747700D01*
X48836500Y-46670300D01*
X48700000Y-46643200D01*
X47900000Y-46643200D01*
X47763400Y-46670300D01*
X47647600Y-46747700D01*
X47570300Y-46863400D01*
X47543200Y-46999500D01*
X46740900Y-46999500D01*
X45819200Y-46077800D01*
X45647000Y-46006500D01*
X43297900Y-46006500D01*
X40669300Y-43377800D01*
X40497000Y-43306500D01*
X39299400Y-43306500D01*
X38136500Y-42143600D01*
X38198600Y-41993600D01*
X38774800Y-41993600D01*
X39303500Y-42522200D01*
X39475700Y-42593500D01*
X42024800Y-42593500D01*
X42256400Y-42825200D01*
X42256400Y-43650000D01*
X42327800Y-43822200D01*
X43106400Y-44600900D01*
X43106400Y-45400000D01*
X43177800Y-45572200D01*
X43377800Y-45772200D01*
X43550000Y-45843600D01*
X44000000Y-45843600D01*
X44172200Y-45772200D01*
X44400800Y-45543500D01*
X46300000Y-45543500D01*
X46472200Y-45472200D01*
X47100900Y-44843600D01*
X49361800Y-44843600D01*
X49370300Y-44886600D01*
X49447700Y-45002300D01*
X49563400Y-45079700D01*
X49700000Y-45106900D01*
X49836600Y-45079700D01*
X49950000Y-45003900D01*
X50063400Y-45079700D01*
X50200000Y-45106900D01*
X50336500Y-45079700D01*
X50450000Y-45003900D01*
X50563400Y-45079700D01*
X50700000Y-45106900D01*
X50836500Y-45079700D01*
X50950000Y-45003900D01*
X51063400Y-45079700D01*
X51200000Y-45106900D01*
X51336500Y-45079700D01*
X51450000Y-45003900D01*
X51563400Y-45079700D01*
X51700000Y-45106900D01*
X51836500Y-45079700D01*
X51950000Y-45003900D01*
X52063400Y-45079700D01*
G37*
%TD.AperFunction*%
%TD*%
%TA.AperFunction,Conductor*%
%TO.N,0V*%
G36*
X38962200Y-36893600D02*
G01*
X39150000Y-36893600D01*
X39322200Y-36822200D01*
X39417900Y-36726500D01*
X39556500Y-36783900D01*
X39556500Y-36999100D01*
X38127800Y-38427800D01*
X38056500Y-38600000D01*
X38056500Y-39640400D01*
X37906500Y-39678700D01*
X37852300Y-39597700D01*
X37736500Y-39520300D01*
X37600000Y-39493200D01*
X37463400Y-39520300D01*
X37347700Y-39597700D01*
X37270300Y-39713500D01*
X37243100Y-39850000D01*
X37270300Y-39986600D01*
X37347700Y-40102400D01*
X37449200Y-40170200D01*
X37456800Y-40250000D01*
X37449200Y-40329800D01*
X37347700Y-40397700D01*
X37270300Y-40513500D01*
X37261700Y-40556900D01*
X37205900Y-40578700D01*
X37055900Y-40476300D01*
X37055900Y-36881200D01*
X37205900Y-36835600D01*
X37281400Y-36948600D01*
X37496400Y-37092300D01*
X37750000Y-37142800D01*
X38003600Y-37092300D01*
X38113800Y-37018700D01*
X38155000Y-37023400D01*
X38297100Y-37076600D01*
X38347700Y-37152300D01*
X38463400Y-37229700D01*
X38600000Y-37256900D01*
X38736500Y-37229700D01*
X38852300Y-37152300D01*
X38929700Y-37036600D01*
X38956800Y-36900000D01*
X38962200Y-36893600D01*
G37*
%TD.AperFunction*%
%TD*%
%TA.AperFunction,Conductor*%
%TO.N,0V*%
G36*
X52399100Y-44093600D02*
G01*
X52559000Y-44253500D01*
X52525300Y-44402400D01*
X52396500Y-44460300D01*
X52336600Y-44420300D01*
X52200000Y-44393100D01*
X52063400Y-44420300D01*
X51950000Y-44496100D01*
X51836500Y-44420300D01*
X51700000Y-44393200D01*
X51563400Y-44420300D01*
X51450000Y-44496100D01*
X51336500Y-44420300D01*
X51200000Y-44393200D01*
X51063400Y-44420300D01*
X50950000Y-44496100D01*
X50836500Y-44420300D01*
X50809300Y-44414900D01*
X50222200Y-43827800D01*
X50050000Y-43756500D01*
X46751500Y-43756500D01*
X46579300Y-43827800D01*
X45950600Y-44456500D01*
X45074000Y-44456500D01*
X44988400Y-44339400D01*
X45002400Y-44284600D01*
X45086500Y-44179700D01*
X45202300Y-44102400D01*
X45279700Y-43986600D01*
X45306900Y-43850000D01*
X45279700Y-43713400D01*
X45233000Y-43643600D01*
X45293100Y-43500400D01*
X45299400Y-43493600D01*
X50199100Y-43493600D01*
X50727800Y-44022200D01*
X50900000Y-44093600D01*
X52399100Y-44093600D01*
G37*
%TD.AperFunction*%
%TD*%
%TA.AperFunction,Conductor*%
%TO.N,0V*%
G36*
X43017900Y-42049200D02*
G01*
X42546400Y-41577800D01*
X42374200Y-41506500D01*
X39825100Y-41506500D01*
X39296400Y-40977800D01*
X39124300Y-40906500D01*
X38030000Y-40906500D01*
X37934100Y-40791800D01*
X37929800Y-40785900D01*
X37956800Y-40650000D01*
X37954800Y-40639600D01*
X38472200Y-40122300D01*
X38543500Y-39950000D01*
X38543500Y-38700900D01*
X38842100Y-38402300D01*
X39030200Y-38426300D01*
X39047700Y-38452400D01*
X39056500Y-38458300D01*
X39056500Y-38900000D01*
X39127800Y-39072200D01*
X39827800Y-39772200D01*
X40000000Y-39843500D01*
X44401400Y-39843500D01*
X44463500Y-39993600D01*
X43227800Y-41229300D01*
X43156500Y-41401500D01*
X43156500Y-41991800D01*
X43017900Y-42049200D01*
G37*
%TD.AperFunction*%
%TD*%
%TA.AperFunction,Conductor*%
%TO.N,0V*%
G36*
X49343200Y-53549500D02*
G01*
X44211100Y-53549500D01*
X44211100Y-53420800D01*
X49368850Y-53420800D01*
X49343200Y-53549500D01*
G37*
%TD.AperFunction*%
%TA.AperFunction,Conductor*%
G36*
X54402400Y-53168000D02*
G01*
X54325000Y-53283700D01*
X54298000Y-53419800D01*
X53030960Y-53419800D01*
X53029700Y-53413500D01*
X52952300Y-53297700D01*
X52836500Y-53220300D01*
X52700000Y-53193100D01*
X52563400Y-53220300D01*
X52450000Y-53296100D01*
X52336500Y-53220300D01*
X52200000Y-53193100D01*
X52063400Y-53220300D01*
X51950000Y-53296100D01*
X51836500Y-53220300D01*
X51700000Y-53193200D01*
X51563400Y-53220300D01*
X51450000Y-53296100D01*
X51336500Y-53220300D01*
X51200000Y-53193200D01*
X51063400Y-53220300D01*
X50950000Y-53296100D01*
X50836500Y-53220300D01*
X50700000Y-53193100D01*
X50563400Y-53220300D01*
X50450000Y-53296100D01*
X50336500Y-53220300D01*
X50200000Y-53193100D01*
X50063400Y-53220300D01*
X49950000Y-53296100D01*
X49836500Y-53220300D01*
X49700000Y-53193200D01*
X49563400Y-53220300D01*
X49447700Y-53297700D01*
X49370300Y-53413500D01*
X49369040Y-53419800D01*
X44211100Y-53419800D01*
X44211100Y-53105500D01*
X54495910Y-53105500D01*
X54402400Y-53168000D01*
G37*
%TD.AperFunction*%
%TA.AperFunction,Conductor*%
G36*
X54984400Y-51016800D02*
G01*
X55011600Y-50880300D01*
X54984400Y-50743700D01*
X54907000Y-50627900D01*
X54791300Y-50550600D01*
X54654700Y-50523400D01*
X54593800Y-50535600D01*
X54519900Y-50397300D01*
X55695000Y-49222200D01*
X55848800Y-49280500D01*
X55889200Y-49483400D01*
X56038300Y-49706700D01*
X56148100Y-49780000D01*
X56148100Y-49930000D01*
X56038300Y-50003400D01*
X55889200Y-50226600D01*
X55836800Y-50490000D01*
X55889200Y-50753400D01*
X56038300Y-50976700D01*
X56148100Y-51050000D01*
X56148100Y-51200000D01*
X56038300Y-51273400D01*
X55889200Y-51496600D01*
X55836800Y-51760000D01*
X55889200Y-52023400D01*
X56038300Y-52246700D01*
X56148100Y-52320000D01*
X56148100Y-52470000D01*
X56038300Y-52543400D01*
X55889200Y-52766600D01*
X55851700Y-52955000D01*
X56750000Y-52955000D01*
X56750000Y-53030000D01*
X56825000Y-53030000D01*
X56825000Y-53718200D01*
X56975000Y-53718200D01*
X57238400Y-53665800D01*
X57414100Y-53548400D01*
X57557000Y-53589600D01*
X57578000Y-53605600D01*
X57587800Y-53656200D01*
X57414900Y-53914900D01*
X57100600Y-54124900D01*
X56741300Y-54196400D01*
X56730000Y-54194100D01*
X44211100Y-54194100D01*
X44211100Y-53550500D01*
X49343200Y-53550500D01*
X49370300Y-53686600D01*
X49447700Y-53802400D01*
X49563400Y-53879700D01*
X49700000Y-53906900D01*
X49836500Y-53879700D01*
X49950000Y-53803900D01*
X50063400Y-53879700D01*
X50200000Y-53906900D01*
X50336500Y-53879700D01*
X50450000Y-53803900D01*
X50563400Y-53879700D01*
X50700000Y-53906900D01*
X50836500Y-53879700D01*
X50950000Y-53803900D01*
X51063400Y-53879700D01*
X51200000Y-53906900D01*
X51336500Y-53879700D01*
X51450000Y-53803900D01*
X51563400Y-53879700D01*
X51700000Y-53906900D01*
X51836500Y-53879700D01*
X51950000Y-53803900D01*
X52063400Y-53879700D01*
X52200000Y-53906900D01*
X52336500Y-53879700D01*
X52450000Y-53803900D01*
X52563400Y-53879700D01*
X52700000Y-53906900D01*
X52836500Y-53879700D01*
X52952300Y-53802400D01*
X53029700Y-53686600D01*
X53056900Y-53550000D01*
X53031150Y-53420800D01*
X54298000Y-53420800D01*
X54325000Y-53556900D01*
X54402400Y-53672600D01*
X54518200Y-53750000D01*
X54654700Y-53777100D01*
X54791300Y-53750000D01*
X54907000Y-53672600D01*
X54984400Y-53556900D01*
X55011600Y-53420300D01*
X54984400Y-53283700D01*
X54907000Y-53168000D01*
X54813570Y-53105500D01*
X55851800Y-53105500D01*
X55889200Y-53293400D01*
X56038300Y-53516700D01*
X56261600Y-53665800D01*
X56525000Y-53718200D01*
X56675000Y-53718200D01*
X56675000Y-53105000D01*
X55852200Y-53105000D01*
X55852200Y-53104500D01*
X54812080Y-53104500D01*
X54791300Y-53090600D01*
X54654700Y-53063400D01*
X54518200Y-53090600D01*
X54497400Y-53104500D01*
X44211100Y-53104500D01*
X44211100Y-50588900D01*
X39380600Y-47800000D01*
X38829900Y-47800000D01*
X38706800Y-47650000D01*
X38679700Y-47513400D01*
X38602300Y-47397700D01*
X38486500Y-47320300D01*
X38349900Y-47293100D01*
X38213400Y-47320300D01*
X38097600Y-47397700D01*
X38020300Y-47513400D01*
X37993100Y-47650000D01*
X37870000Y-47800000D01*
X37520700Y-47800000D01*
X37055900Y-46206300D01*
X37055900Y-45550500D01*
X37843200Y-45550500D01*
X37870300Y-45686600D01*
X37947700Y-45802400D01*
X38063400Y-45879700D01*
X38200000Y-45906900D01*
X38336500Y-45879700D01*
X38452300Y-45802400D01*
X38497700Y-45802400D01*
X38613400Y-45879700D01*
X38750000Y-45906900D01*
X38886500Y-45879700D01*
X39002300Y-45802400D01*
X39047700Y-45802400D01*
X39163400Y-45879700D01*
X39300000Y-45906900D01*
X39436600Y-45879700D01*
X39552300Y-45802400D01*
X39629700Y-45686600D01*
X39656900Y-45550000D01*
X39629700Y-45413500D01*
X39552300Y-45297700D01*
X39436600Y-45220300D01*
X39300000Y-45193200D01*
X39163400Y-45220300D01*
X39047700Y-45297700D01*
X39002300Y-45297700D01*
X38886500Y-45220300D01*
X38750000Y-45193200D01*
X38613400Y-45220300D01*
X38497700Y-45297700D01*
X38452300Y-45297700D01*
X38336500Y-45220300D01*
X38200000Y-45193200D01*
X38063400Y-45220300D01*
X37947700Y-45297700D01*
X37870300Y-45413500D01*
X37843200Y-45549500D01*
X37055900Y-45549500D01*
X37055900Y-44023700D01*
X37205900Y-43921300D01*
X37261700Y-43943100D01*
X37263200Y-43950800D01*
X37270300Y-43986600D01*
X37347700Y-44102400D01*
X37463400Y-44179700D01*
X37600000Y-44206900D01*
X37736500Y-44179700D01*
X37766600Y-44159600D01*
X38529200Y-44922200D01*
X38701400Y-44993500D01*
X39899100Y-44993500D01*
X42527800Y-47622200D01*
X42700000Y-47693500D01*
X45049100Y-47693500D01*
X48827800Y-51472200D01*
X48878200Y-51493100D01*
X49000000Y-51543500D01*
X50199100Y-51543500D01*
X51077800Y-52422200D01*
X51128200Y-52443100D01*
X51250000Y-52493500D01*
X53750000Y-52493500D01*
X53922200Y-52422200D01*
X54153100Y-52191300D01*
X54315800Y-52240700D01*
X54325000Y-52286900D01*
X54402400Y-52402600D01*
X54518200Y-52480000D01*
X54654700Y-52507200D01*
X54791300Y-52480000D01*
X54907000Y-52402600D01*
X54984400Y-52286900D01*
X55011600Y-52150300D01*
X54984400Y-52013700D01*
X54907000Y-51898000D01*
X54791300Y-51820600D01*
X54745100Y-51811400D01*
X54695700Y-51648700D01*
X54826900Y-51517500D01*
X54847800Y-51467100D01*
X54898300Y-51345300D01*
X54898300Y-51138500D01*
X54907000Y-51132600D01*
X54984400Y-51016800D01*
G37*
%TD.AperFunction*%
%TD*%
%TA.AperFunction,Conductor*%
%TO.N,0V*%
G36*
X37205900Y-34805700D02*
G01*
X37221820Y-34829500D01*
X37127270Y-34829500D01*
X37205900Y-34805700D01*
G37*
%TD.AperFunction*%
%TA.AperFunction,Conductor*%
G36*
X39256400Y-36199100D02*
G01*
X39049100Y-36406500D01*
X38850000Y-36406500D01*
X38677800Y-36477800D01*
X38610400Y-36545200D01*
X38600000Y-36543200D01*
X38551200Y-36552900D01*
X38511300Y-36531900D01*
X38406000Y-36443100D01*
X38404900Y-36440700D01*
X38362300Y-36226400D01*
X38218600Y-36011400D01*
X38003600Y-35867700D01*
X37750000Y-35817300D01*
X37496400Y-35867700D01*
X37281400Y-36011400D01*
X37205900Y-36124400D01*
X37055900Y-36078900D01*
X37055900Y-34851100D01*
X37123960Y-34830500D01*
X37222480Y-34830500D01*
X37281400Y-34918600D01*
X37496400Y-35062300D01*
X37750000Y-35112800D01*
X38003600Y-35062300D01*
X38218600Y-34918600D01*
X38277480Y-34830500D01*
X39256400Y-34830500D01*
X39256400Y-36199100D01*
G37*
%TD.AperFunction*%
%TA.AperFunction,Conductor*%
G36*
X40336500Y-15776800D02*
G01*
X38055900Y-15776800D01*
X38055900Y-15648600D01*
X40361930Y-15648600D01*
X40336500Y-15776800D01*
G37*
%TD.AperFunction*%
%TA.AperFunction,Conductor*%
G36*
X39256400Y-34829500D02*
G01*
X38278150Y-34829500D01*
X38362300Y-34703600D01*
X38412700Y-34450000D01*
X38362300Y-34196400D01*
X38218600Y-33981400D01*
X38003600Y-33837700D01*
X37750000Y-33787300D01*
X37496400Y-33837700D01*
X37281400Y-33981400D01*
X37205900Y-34094400D01*
X37055900Y-34048900D01*
X37055900Y-32667600D01*
X39256400Y-32667600D01*
X39256400Y-34829500D01*
G37*
%TD.AperFunction*%
%TA.AperFunction,Conductor*%
G36*
X39327800Y-30977800D02*
G01*
X39256400Y-31150000D01*
X39256400Y-32666600D01*
X37055900Y-32666600D01*
X37055900Y-30228200D01*
X40077400Y-30228200D01*
X39327800Y-30977800D01*
G37*
%TD.AperFunction*%
%TA.AperFunction,Conductor*%
G36*
X39521600Y-17363300D02*
G01*
X39444300Y-17479100D01*
X39417700Y-17612900D01*
X39283900Y-17639500D01*
X39168100Y-17716900D01*
X39090700Y-17832700D01*
X39063600Y-17969200D01*
X39090700Y-18105800D01*
X39168100Y-18221600D01*
X39283900Y-18298900D01*
X39420400Y-18326100D01*
X39557000Y-18298900D01*
X39672800Y-18221600D01*
X39750100Y-18105800D01*
X39759500Y-18058500D01*
X39869200Y-18017100D01*
X40006400Y-18108600D01*
X40006400Y-21550000D01*
X40077800Y-21722200D01*
X42714600Y-24359000D01*
X42698000Y-24395300D01*
X42626100Y-24482700D01*
X42518800Y-24461400D01*
X42382200Y-24488500D01*
X42266400Y-24565900D01*
X42189100Y-24681600D01*
X42161900Y-24818200D01*
X42189100Y-24954800D01*
X42266400Y-25070600D01*
X42382200Y-25147900D01*
X42518800Y-25175100D01*
X42655400Y-25147900D01*
X42771100Y-25070600D01*
X42848500Y-24954800D01*
X42875600Y-24818200D01*
X42854300Y-24710900D01*
X42941800Y-24639000D01*
X42978000Y-24622400D01*
X43506400Y-25150900D01*
X43506400Y-25450000D01*
X43577800Y-25622200D01*
X47156500Y-29200900D01*
X47156500Y-30250000D01*
X47227800Y-30422200D01*
X47906500Y-31100900D01*
X47906500Y-31417600D01*
X47767900Y-31475000D01*
X47012600Y-30719700D01*
X46840400Y-30648300D01*
X46368700Y-30648300D01*
X46362800Y-30639500D01*
X46247000Y-30562200D01*
X46110400Y-30535000D01*
X45973900Y-30562200D01*
X45858100Y-30639500D01*
X45780700Y-30755300D01*
X45753600Y-30891900D01*
X45780700Y-31028400D01*
X45858100Y-31144200D01*
X45973900Y-31221600D01*
X46110400Y-31248700D01*
X46247000Y-31221600D01*
X46362800Y-31144200D01*
X46368700Y-31135400D01*
X46739500Y-31135400D01*
X47279600Y-31675500D01*
X47249100Y-31823300D01*
X47234800Y-31842900D01*
X47130900Y-31912300D01*
X47053500Y-32028100D01*
X47026400Y-32164600D01*
X47053500Y-32301200D01*
X47073900Y-32331700D01*
X43493200Y-35912400D01*
X43376700Y-35816700D01*
X43442300Y-35718600D01*
X43492700Y-35465000D01*
X43442300Y-35211400D01*
X43298600Y-34996400D01*
X43083600Y-34852700D01*
X42830000Y-34802300D01*
X42576400Y-34852700D01*
X42361400Y-34996400D01*
X42217700Y-35211400D01*
X42167300Y-35465000D01*
X42217700Y-35718600D01*
X42361400Y-35933700D01*
X42576400Y-36077300D01*
X42830000Y-36127700D01*
X43083600Y-36077300D01*
X43181700Y-36011700D01*
X43277300Y-36128300D01*
X42749100Y-36656500D01*
X41275700Y-36656500D01*
X41103500Y-36727800D01*
X40327800Y-37503500D01*
X40256500Y-37675800D01*
X40256500Y-37721300D01*
X40106400Y-37844500D01*
X40100000Y-37843200D01*
X39963400Y-37870300D01*
X39847700Y-37947700D01*
X39779800Y-38049200D01*
X39700000Y-38056800D01*
X39620200Y-38049200D01*
X39552300Y-37947700D01*
X39526300Y-37930300D01*
X39502300Y-37742100D01*
X39972200Y-37272200D01*
X40043500Y-37100000D01*
X40043500Y-36522900D01*
X40193500Y-36437700D01*
X40290000Y-36456900D01*
X40426500Y-36429700D01*
X40542300Y-36352400D01*
X40619700Y-36236600D01*
X40646800Y-36100500D01*
X41203200Y-36100500D01*
X41230300Y-36236600D01*
X41307600Y-36352400D01*
X41423400Y-36429700D01*
X41560000Y-36456900D01*
X41696600Y-36429700D01*
X41812300Y-36352400D01*
X41889700Y-36236600D01*
X41916800Y-36100000D01*
X41889700Y-35963400D01*
X41812300Y-35847700D01*
X41696600Y-35770300D01*
X41560000Y-35743200D01*
X41423400Y-35770300D01*
X41307600Y-35847700D01*
X41230300Y-35963400D01*
X41203200Y-36099500D01*
X40646800Y-36099500D01*
X40619700Y-35963400D01*
X40542300Y-35847700D01*
X40426500Y-35770300D01*
X40290000Y-35743200D01*
X40193500Y-35762400D01*
X40043500Y-35677100D01*
X40043500Y-35253000D01*
X40193500Y-35167700D01*
X40290000Y-35186900D01*
X40426500Y-35159700D01*
X40542300Y-35082300D01*
X40619700Y-34966600D01*
X40646800Y-34830500D01*
X41203200Y-34830500D01*
X41230300Y-34966600D01*
X41307600Y-35082300D01*
X41423400Y-35159700D01*
X41560000Y-35186900D01*
X41696600Y-35159700D01*
X41812300Y-35082300D01*
X41889700Y-34966600D01*
X41916800Y-34830000D01*
X41889700Y-34693500D01*
X41812300Y-34577700D01*
X41696600Y-34500300D01*
X41560000Y-34473200D01*
X41423400Y-34500300D01*
X41307600Y-34577700D01*
X41230300Y-34693500D01*
X41203200Y-34829500D01*
X40646800Y-34829500D01*
X40619700Y-34693500D01*
X40542300Y-34577700D01*
X40426500Y-34500300D01*
X40290000Y-34473200D01*
X40193500Y-34492300D01*
X40043500Y-34407100D01*
X40043500Y-32667600D01*
X41667100Y-32667600D01*
X41694100Y-32803600D01*
X41771500Y-32919400D01*
X42054300Y-33202300D01*
X42170100Y-33279600D01*
X42306700Y-33306800D01*
X42443200Y-33279600D01*
X42559000Y-33202300D01*
X42636400Y-33086500D01*
X42663500Y-32950000D01*
X42636400Y-32813400D01*
X42559000Y-32697600D01*
X42276200Y-32414800D01*
X42160400Y-32337400D01*
X42023800Y-32310200D01*
X41887300Y-32337400D01*
X41771500Y-32414800D01*
X41694100Y-32530500D01*
X41667100Y-32666600D01*
X40043500Y-32666600D01*
X40043500Y-31400900D01*
X41216200Y-30228200D01*
X43328800Y-30228200D01*
X43355800Y-30364200D01*
X43433200Y-30480000D01*
X43716000Y-30762800D01*
X43831800Y-30840200D01*
X43968400Y-30867300D01*
X44104900Y-30840200D01*
X44220700Y-30762800D01*
X44298100Y-30647100D01*
X44325200Y-30510500D01*
X44298100Y-30373900D01*
X44220700Y-30258100D01*
X43937900Y-29975300D01*
X43822100Y-29897900D01*
X43685500Y-29870800D01*
X43549000Y-29897900D01*
X43433200Y-29975300D01*
X43355800Y-30091100D01*
X43328800Y-30227200D01*
X41217200Y-30227200D01*
X42422200Y-29022200D01*
X42493500Y-28850000D01*
X42493500Y-27259000D01*
X42620000Y-27233900D01*
X42735700Y-27156500D01*
X42813100Y-27040700D01*
X42840200Y-26904200D01*
X42813100Y-26767600D01*
X42799600Y-26747400D01*
X42867400Y-26578900D01*
X42933500Y-26564300D01*
X42983200Y-26597500D01*
X43119800Y-26624700D01*
X43256300Y-26597500D01*
X43372100Y-26520100D01*
X43449500Y-26404400D01*
X43476700Y-26267800D01*
X43449500Y-26131200D01*
X43372100Y-26015400D01*
X43256300Y-25938100D01*
X43119800Y-25910900D01*
X42983200Y-25938100D01*
X42867500Y-26015400D01*
X42861600Y-26024300D01*
X42482200Y-26024300D01*
X42360400Y-26074700D01*
X42310000Y-26095600D01*
X41777800Y-26627800D01*
X41706500Y-26800000D01*
X41706500Y-27554000D01*
X41564200Y-27678700D01*
X41427600Y-27705800D01*
X41311900Y-27783200D01*
X41234500Y-27899000D01*
X41207300Y-28035500D01*
X41234500Y-28172100D01*
X41311900Y-28287900D01*
X41427600Y-28365200D01*
X41564200Y-28392400D01*
X41653800Y-28470900D01*
X41658500Y-28647100D01*
X40078400Y-30227200D01*
X37055900Y-30227200D01*
X37055900Y-25490500D01*
X40712500Y-25490500D01*
X40739500Y-25626600D01*
X40816900Y-25742300D01*
X40932600Y-25819700D01*
X41069200Y-25846900D01*
X41205800Y-25819700D01*
X41321600Y-25742300D01*
X41398900Y-25626600D01*
X41426100Y-25490000D01*
X41398900Y-25353500D01*
X41321600Y-25237700D01*
X41205800Y-25160300D01*
X41069200Y-25133100D01*
X40932600Y-25160300D01*
X40816900Y-25237700D01*
X40739500Y-25353500D01*
X40712500Y-25489500D01*
X37055900Y-25489500D01*
X37055900Y-24957100D01*
X37058000Y-24957100D01*
X37105700Y-24595000D01*
X37245500Y-24257600D01*
X37462100Y-23975200D01*
X37474400Y-23974400D01*
X37796100Y-23555100D01*
X37998300Y-23066900D01*
X38067300Y-22542900D01*
X38055900Y-22542900D01*
X38055900Y-17262600D01*
X39755100Y-17262600D01*
X39637400Y-17286000D01*
X39521600Y-17363300D01*
G37*
%TD.AperFunction*%
%TA.AperFunction,Conductor*%
G36*
X40493500Y-17384600D02*
G01*
X40571180Y-17262600D01*
X42174900Y-17262600D01*
X42202000Y-17398700D01*
X42232080Y-17443700D01*
X40493500Y-17443700D01*
X40493500Y-17384600D01*
G37*
%TD.AperFunction*%
%TA.AperFunction,Conductor*%
G36*
X42882500Y-19663500D02*
G01*
X42748700Y-19690200D01*
X42632900Y-19767500D01*
X42555600Y-19883300D01*
X42529000Y-20017100D01*
X42395100Y-20043700D01*
X42279400Y-20121100D01*
X42202000Y-20236800D01*
X42175400Y-20370600D01*
X42041600Y-20397200D01*
X41925800Y-20474600D01*
X41848400Y-20590400D01*
X41821800Y-20724200D01*
X41688000Y-20750800D01*
X41572300Y-20828200D01*
X41494900Y-20943900D01*
X41468300Y-21077800D01*
X41334500Y-21104400D01*
X41218700Y-21181700D01*
X41141400Y-21297500D01*
X41114700Y-21431300D01*
X40980900Y-21457900D01*
X40865200Y-21535300D01*
X40835800Y-21579300D01*
X40654600Y-21610200D01*
X40493500Y-21449100D01*
X40493500Y-19656400D01*
X42883910Y-19656400D01*
X42882500Y-19663500D01*
G37*
%TD.AperFunction*%
%TA.AperFunction,Conductor*%
G36*
X43511400Y-21164700D02*
G01*
X43395600Y-21242000D01*
X43318200Y-21357800D01*
X43291600Y-21491600D01*
X43157800Y-21518200D01*
X43042000Y-21595600D01*
X42964700Y-21711400D01*
X42937500Y-21847900D01*
X42964700Y-21984500D01*
X43042000Y-22100300D01*
X43157800Y-22177600D01*
X43294400Y-22204800D01*
X43430900Y-22177600D01*
X43546700Y-22100300D01*
X43624100Y-21984500D01*
X43627500Y-21967300D01*
X43710200Y-21933700D01*
X43856400Y-22032600D01*
X43856400Y-24616100D01*
X43717900Y-24673500D01*
X41294900Y-22250500D01*
X41325800Y-22069300D01*
X41369800Y-22039900D01*
X41447200Y-21924200D01*
X41473800Y-21790400D01*
X41607600Y-21763800D01*
X41723400Y-21686400D01*
X41800700Y-21570600D01*
X41827400Y-21436800D01*
X41961200Y-21410200D01*
X42076900Y-21332900D01*
X42154300Y-21217100D01*
X42169370Y-21141300D01*
X43629100Y-21141300D01*
X43511400Y-21164700D01*
G37*
%TD.AperFunction*%
%TA.AperFunction,Conductor*%
G36*
X43645200Y-21138100D02*
G01*
X43634130Y-21140300D01*
X42169570Y-21140300D01*
X42180900Y-21083300D01*
X42314700Y-21056600D01*
X42323840Y-21050500D01*
X43662600Y-21050500D01*
X43645200Y-21138100D01*
G37*
%TD.AperFunction*%
%TA.AperFunction,Conductor*%
G36*
X46048900Y-21140300D02*
G01*
X44374340Y-21140300D01*
X44491600Y-21116900D01*
X44591070Y-21050500D01*
X46066710Y-21050500D01*
X46048900Y-21140300D01*
G37*
%TD.AperFunction*%
%TA.AperFunction,Conductor*%
G36*
X46622600Y-23568800D02*
G01*
X46506800Y-23646200D01*
X46429500Y-23762000D01*
X46402900Y-23895800D01*
X46269100Y-23922400D01*
X46153300Y-23999800D01*
X46075900Y-24115500D01*
X46049300Y-24249300D01*
X45915500Y-24275900D01*
X45799700Y-24353300D01*
X45722400Y-24469100D01*
X45695800Y-24602900D01*
X45562000Y-24629500D01*
X45446200Y-24706800D01*
X45368800Y-24822600D01*
X45342200Y-24956400D01*
X45208400Y-24983100D01*
X45092600Y-25060400D01*
X45015300Y-25176200D01*
X44988600Y-25310000D01*
X44854900Y-25336600D01*
X44739100Y-25414000D01*
X44721300Y-25440600D01*
X44533400Y-25464700D01*
X44343500Y-25274900D01*
X44343500Y-23555900D01*
X46687490Y-23555900D01*
X46622600Y-23568800D01*
G37*
%TD.AperFunction*%
%TA.AperFunction,Conductor*%
G36*
X47415600Y-25064100D02*
G01*
X47299800Y-25141500D01*
X47222500Y-25257300D01*
X47195900Y-25391100D01*
X47062000Y-25417700D01*
X46946300Y-25495100D01*
X46868900Y-25610800D01*
X46841700Y-25747400D01*
X46868900Y-25884000D01*
X46946300Y-25999700D01*
X47062000Y-26077100D01*
X47198600Y-26104200D01*
X47335200Y-26077100D01*
X47450900Y-25999700D01*
X47528300Y-25884000D01*
X47531000Y-25870200D01*
X47608900Y-25838900D01*
X47756400Y-25939500D01*
X47756400Y-28491800D01*
X47617900Y-28549200D01*
X45193000Y-26124400D01*
X45217200Y-25936400D01*
X45243800Y-25918600D01*
X45321100Y-25802900D01*
X45347700Y-25669000D01*
X45481500Y-25642400D01*
X45597300Y-25565100D01*
X45674700Y-25449300D01*
X45701300Y-25315500D01*
X45835100Y-25288900D01*
X45950900Y-25211500D01*
X46028200Y-25095800D01*
X46039130Y-25040800D01*
X47532800Y-25040800D01*
X47415600Y-25064100D01*
G37*
%TD.AperFunction*%
%TA.AperFunction,Conductor*%
G36*
X49206500Y-33949100D02*
G01*
X45099100Y-38056500D01*
X44200000Y-38056500D01*
X44027800Y-38127800D01*
X43399100Y-38756500D01*
X42703200Y-38756500D01*
X42612400Y-38606500D01*
X42619200Y-38593500D01*
X43098500Y-38593500D01*
X43270700Y-38522200D01*
X48922200Y-32870800D01*
X48950840Y-32801600D01*
X49206500Y-32801600D01*
X49206500Y-33949100D01*
G37*
%TD.AperFunction*%
%TA.AperFunction,Conductor*%
G36*
X47549400Y-25037500D02*
G01*
X47537830Y-25039800D01*
X46039320Y-25039800D01*
X46052220Y-24974900D01*
X47561850Y-24974900D01*
X47549400Y-25037500D01*
G37*
%TD.AperFunction*%
%TA.AperFunction,Conductor*%
G36*
X49953100Y-25039800D02*
G01*
X48278540Y-25039800D01*
X48395800Y-25016400D01*
X48457970Y-24974900D01*
X49966020Y-24974900D01*
X49953100Y-25039800D01*
G37*
%TD.AperFunction*%
%TA.AperFunction,Conductor*%
G36*
X49206500Y-32800600D02*
G01*
X48951250Y-32800600D01*
X48993500Y-32698500D01*
X48993500Y-32200400D01*
X49206500Y-32200400D01*
X49206500Y-32800600D01*
G37*
%TD.AperFunction*%
%TA.AperFunction,Conductor*%
G36*
X50307100Y-27795300D02*
G01*
X50173300Y-27821900D01*
X50057500Y-27899200D01*
X49980200Y-28015000D01*
X49953600Y-28148800D01*
X49819800Y-28175400D01*
X49704000Y-28252800D01*
X49626600Y-28368600D01*
X49600000Y-28502300D01*
X49466200Y-28529000D01*
X49350400Y-28606300D01*
X49273100Y-28722100D01*
X49246500Y-28855900D01*
X49112700Y-28882500D01*
X48996900Y-28959900D01*
X48919500Y-29075700D01*
X48892900Y-29209500D01*
X48759100Y-29236100D01*
X48643300Y-29313400D01*
X48566000Y-29429200D01*
X48538800Y-29565800D01*
X48566000Y-29702300D01*
X48643300Y-29818100D01*
X48759100Y-29895500D01*
X48895700Y-29922600D01*
X48906000Y-29920600D01*
X49206500Y-30221000D01*
X49206500Y-32199400D01*
X48993500Y-32199400D01*
X48993500Y-30751500D01*
X48922200Y-30579300D01*
X48243500Y-29900600D01*
X48243500Y-27669000D01*
X50332190Y-27669000D01*
X50307100Y-27795300D01*
G37*
%TD.AperFunction*%
%TA.AperFunction,Conductor*%
G36*
X49499100Y-40606500D02*
G01*
X45663600Y-40606500D01*
X45583700Y-40463300D01*
X45636200Y-40393600D01*
X47774300Y-40393600D01*
X47946500Y-40322200D01*
X48068200Y-40200500D01*
X49905100Y-40200500D01*
X49499100Y-40606500D01*
G37*
%TD.AperFunction*%
%TA.AperFunction,Conductor*%
G36*
X52843200Y-32199400D02*
G01*
X50293500Y-32199400D01*
X50293500Y-31830800D01*
X52843200Y-31830800D01*
X52843200Y-32199400D01*
G37*
%TD.AperFunction*%
%TA.AperFunction,Conductor*%
G36*
X47693100Y-19199600D02*
G01*
X47822600Y-19173800D01*
X47928700Y-19279900D01*
X47903000Y-19409400D01*
X47955300Y-19672800D01*
X48062000Y-19832500D01*
X48697200Y-19197300D01*
X48803300Y-19303300D01*
X48168100Y-19938500D01*
X48327800Y-20045200D01*
X48591200Y-20097600D01*
X48720700Y-20071900D01*
X48826800Y-20177900D01*
X48801000Y-20307400D01*
X48853400Y-20570800D01*
X49002600Y-20794100D01*
X49225800Y-20943300D01*
X49489200Y-20995600D01*
X49618700Y-20969900D01*
X49724800Y-21076000D01*
X49699000Y-21205400D01*
X49751400Y-21468800D01*
X49900600Y-21692100D01*
X50123800Y-21841300D01*
X50387200Y-21893700D01*
X50516700Y-21867900D01*
X50622800Y-21974000D01*
X50597000Y-22103500D01*
X50649400Y-22366900D01*
X50798600Y-22590100D01*
X51021900Y-22739300D01*
X51285200Y-22791700D01*
X51414800Y-22765900D01*
X51520800Y-22872000D01*
X51495100Y-23001500D01*
X51547500Y-23264900D01*
X51696600Y-23488100D01*
X51919900Y-23637300D01*
X52183300Y-23689700D01*
X52312800Y-23664000D01*
X52418900Y-23770000D01*
X52393100Y-23899500D01*
X52445500Y-24162900D01*
X52594600Y-24386200D01*
X52817900Y-24535400D01*
X53081300Y-24587700D01*
X53210800Y-24562000D01*
X53316900Y-24668100D01*
X53291100Y-24797500D01*
X53343500Y-25060900D01*
X53492700Y-25284200D01*
X53716000Y-25433400D01*
X53979300Y-25485800D01*
X54108800Y-25460000D01*
X54214900Y-25566100D01*
X54189100Y-25695600D01*
X54241500Y-25959000D01*
X54390700Y-26182200D01*
X54614000Y-26331400D01*
X54877300Y-26383800D01*
X55006800Y-26358000D01*
X55112900Y-26464100D01*
X55087200Y-26593600D01*
X55139500Y-26857000D01*
X55288700Y-27080300D01*
X55512000Y-27229400D01*
X55775400Y-27281800D01*
X56038800Y-27229400D01*
X56262000Y-27080300D01*
X56580200Y-26762100D01*
X56729400Y-26538800D01*
X56781800Y-26275400D01*
X56763800Y-26184900D01*
X56778500Y-26171400D01*
X56981000Y-26185800D01*
X57228200Y-26487000D01*
X57483200Y-26964100D01*
X57640300Y-27481700D01*
X57693300Y-28020000D01*
X57694100Y-28020000D01*
X57694100Y-28491300D01*
X57544100Y-28536800D01*
X57461600Y-28413400D01*
X57238400Y-28264200D01*
X56975000Y-28211800D01*
X56525000Y-28211800D01*
X56261600Y-28264200D01*
X56038300Y-28413400D01*
X55889200Y-28636600D01*
X55836800Y-28900000D01*
X55889200Y-29163400D01*
X56038300Y-29386700D01*
X56148100Y-29460000D01*
X56148100Y-29610000D01*
X56038300Y-29683400D01*
X55889200Y-29906600D01*
X55874800Y-29978900D01*
X55731200Y-30022400D01*
X55009500Y-29300700D01*
X55011600Y-29290300D01*
X54984400Y-29153700D01*
X54907000Y-29038000D01*
X54791300Y-28960600D01*
X54654700Y-28933400D01*
X54518200Y-28960600D01*
X54402400Y-29038000D01*
X54325000Y-29153700D01*
X54297900Y-29290300D01*
X54325000Y-29426800D01*
X54402400Y-29542600D01*
X54518200Y-29620000D01*
X54654700Y-29647200D01*
X54665100Y-29645100D01*
X55456500Y-30436400D01*
X55456500Y-33361700D01*
X55317900Y-33419000D01*
X55009500Y-33110700D01*
X55011600Y-33100300D01*
X54984400Y-32963700D01*
X54907000Y-32848000D01*
X54791300Y-32770600D01*
X54654700Y-32743400D01*
X54518200Y-32770600D01*
X54402400Y-32848000D01*
X54325000Y-32963700D01*
X54297900Y-33100300D01*
X54325000Y-33236800D01*
X54402400Y-33352600D01*
X54518200Y-33430000D01*
X54654700Y-33457200D01*
X54665100Y-33455100D01*
X55156500Y-33946400D01*
X55156500Y-34329800D01*
X55029300Y-34342300D01*
X55023800Y-34342900D01*
X55016100Y-34343600D01*
X55008600Y-34344400D01*
X55006500Y-34344600D01*
X54989000Y-34256500D01*
X54984400Y-34233700D01*
X54907000Y-34118000D01*
X54791300Y-34040600D01*
X54654700Y-34013400D01*
X54518200Y-34040600D01*
X54402400Y-34118000D01*
X54325000Y-34233700D01*
X54297900Y-34370300D01*
X54325000Y-34506900D01*
X54402400Y-34622600D01*
X54518200Y-34700000D01*
X54654700Y-34727100D01*
X54791300Y-34700000D01*
X54907000Y-34622600D01*
X54984400Y-34506900D01*
X54989000Y-34484100D01*
X55006500Y-34396000D01*
X55008600Y-34396200D01*
X55016100Y-34397000D01*
X55023800Y-34397700D01*
X55029300Y-34398300D01*
X55156500Y-34410800D01*
X55156500Y-35599800D01*
X55029300Y-35612300D01*
X55023800Y-35612900D01*
X55016100Y-35613600D01*
X55008600Y-35614300D01*
X55006500Y-35614600D01*
X54989000Y-35526500D01*
X54984400Y-35503700D01*
X54907000Y-35388000D01*
X54791300Y-35310600D01*
X54654700Y-35283400D01*
X54518200Y-35310600D01*
X54402400Y-35388000D01*
X54325000Y-35503700D01*
X54297900Y-35640300D01*
X54325000Y-35776900D01*
X54402400Y-35892600D01*
X54518200Y-35970000D01*
X54654700Y-35997200D01*
X54791300Y-35970000D01*
X54907000Y-35892600D01*
X54984400Y-35776900D01*
X54989000Y-35754100D01*
X55006500Y-35666000D01*
X55008600Y-35666200D01*
X55016100Y-35667000D01*
X55023800Y-35667700D01*
X55029300Y-35668300D01*
X55156500Y-35680800D01*
X55156500Y-36869800D01*
X55029300Y-36882300D01*
X55023800Y-36882900D01*
X55016100Y-36883600D01*
X55008600Y-36884300D01*
X55006500Y-36884600D01*
X54989000Y-36796500D01*
X54984400Y-36773700D01*
X54907000Y-36658000D01*
X54791300Y-36580600D01*
X54654700Y-36553400D01*
X54518200Y-36580600D01*
X54402400Y-36658000D01*
X54325000Y-36773700D01*
X54297900Y-36910300D01*
X54325000Y-37046800D01*
X54402400Y-37162600D01*
X54518200Y-37240000D01*
X54654700Y-37267200D01*
X54791300Y-37240000D01*
X54907000Y-37162600D01*
X54984400Y-37046800D01*
X54989000Y-37024100D01*
X55006500Y-36936000D01*
X55008600Y-36936200D01*
X55016100Y-36937000D01*
X55023800Y-36937700D01*
X55029300Y-36938300D01*
X55156500Y-36950800D01*
X55156500Y-38139800D01*
X55029300Y-38152300D01*
X55023800Y-38152900D01*
X55016100Y-38153600D01*
X55008600Y-38154400D01*
X55006500Y-38154600D01*
X54989000Y-38066500D01*
X54984400Y-38043700D01*
X54907000Y-37927900D01*
X54791300Y-37850600D01*
X54654700Y-37823400D01*
X54518200Y-37850600D01*
X54402400Y-37927900D01*
X54325000Y-38043700D01*
X54297900Y-38180300D01*
X54325000Y-38316900D01*
X54402400Y-38432600D01*
X54518200Y-38510000D01*
X54654700Y-38537100D01*
X54791300Y-38510000D01*
X54907000Y-38432600D01*
X54984400Y-38316900D01*
X54989000Y-38294100D01*
X55006500Y-38206000D01*
X55008600Y-38206200D01*
X55016100Y-38207000D01*
X55023800Y-38207700D01*
X55029300Y-38208300D01*
X55156500Y-38220800D01*
X55156500Y-39409800D01*
X55006400Y-39424600D01*
X54984400Y-39313700D01*
X54907000Y-39198000D01*
X54791300Y-39120600D01*
X54654700Y-39093400D01*
X54518200Y-39120600D01*
X54402400Y-39198000D01*
X54325000Y-39313700D01*
X54297900Y-39450300D01*
X54325000Y-39586900D01*
X54402400Y-39702600D01*
X54518200Y-39780000D01*
X54654700Y-39807200D01*
X54665100Y-39805100D01*
X54856400Y-39996400D01*
X54856400Y-40267500D01*
X54706500Y-40373700D01*
X54654700Y-40363400D01*
X54518200Y-40390600D01*
X54402400Y-40468000D01*
X54325000Y-40583700D01*
X54297900Y-40720300D01*
X54325000Y-40856900D01*
X54402400Y-40972600D01*
X54518200Y-41050000D01*
X54654700Y-41077100D01*
X54706500Y-41066900D01*
X54856400Y-41173100D01*
X54856400Y-41537500D01*
X54706500Y-41643700D01*
X54654700Y-41633400D01*
X54518200Y-41660600D01*
X54402400Y-41737900D01*
X54325000Y-41853700D01*
X54297900Y-41990300D01*
X54325000Y-42126900D01*
X54402400Y-42242600D01*
X54518200Y-42320000D01*
X54654700Y-42347100D01*
X54706500Y-42336900D01*
X54856400Y-42443100D01*
X54856400Y-42807500D01*
X54706500Y-42913700D01*
X54654700Y-42903400D01*
X54518200Y-42930600D01*
X54402400Y-43008000D01*
X54325000Y-43123700D01*
X54297900Y-43260300D01*
X54325000Y-43396900D01*
X54402400Y-43512600D01*
X54518200Y-43590000D01*
X54654700Y-43617200D01*
X54706500Y-43606900D01*
X54856400Y-43713100D01*
X54856400Y-44077500D01*
X54706500Y-44183700D01*
X54654700Y-44173400D01*
X54518200Y-44200600D01*
X54402400Y-44278000D01*
X54325000Y-44393700D01*
X54297900Y-44530300D01*
X54325000Y-44666900D01*
X54402400Y-44782600D01*
X54518200Y-44860000D01*
X54654700Y-44887100D01*
X54706500Y-44876900D01*
X54856400Y-44983100D01*
X54856400Y-45347500D01*
X54706500Y-45453700D01*
X54654700Y-45443400D01*
X54518200Y-45470600D01*
X54402400Y-45547900D01*
X54325000Y-45663700D01*
X54297900Y-45800300D01*
X54325000Y-45936800D01*
X54402400Y-46052600D01*
X54518200Y-46130000D01*
X54556500Y-46137600D01*
X54556500Y-46850400D01*
X54406500Y-46954400D01*
X54350000Y-46943200D01*
X54339600Y-46945200D01*
X53743500Y-46349100D01*
X53743500Y-44425800D01*
X53693100Y-44304000D01*
X53672200Y-44253500D01*
X52796400Y-43377800D01*
X52624200Y-43306500D01*
X51772000Y-43306500D01*
X51726500Y-43156500D01*
X51774400Y-43124500D01*
X51873900Y-42975600D01*
X51908800Y-42800000D01*
X51873900Y-42624400D01*
X51824480Y-42550500D01*
X53543300Y-42550500D01*
X53570300Y-42686600D01*
X53647700Y-42802300D01*
X53763400Y-42879700D01*
X53900000Y-42906900D01*
X54036600Y-42879700D01*
X54152300Y-42802300D01*
X54229700Y-42686600D01*
X54256900Y-42550000D01*
X54229700Y-42413500D01*
X54152300Y-42297700D01*
X54036600Y-42220300D01*
X53900000Y-42193100D01*
X53763400Y-42220300D01*
X53647700Y-42297700D01*
X53570300Y-42413500D01*
X53543300Y-42549500D01*
X51823820Y-42549500D01*
X51774400Y-42475600D01*
X51625600Y-42376100D01*
X51587900Y-42368600D01*
X51538500Y-42205900D01*
X52372200Y-41372200D01*
X52417600Y-41262700D01*
X52544700Y-41190300D01*
X52593500Y-41185700D01*
X52700000Y-41206900D01*
X52836500Y-41179700D01*
X52952300Y-41102400D01*
X53029700Y-40986600D01*
X53056900Y-40850000D01*
X53029700Y-40713400D01*
X52952300Y-40597700D01*
X52836500Y-40520300D01*
X52700000Y-40493200D01*
X52563400Y-40520300D01*
X52450000Y-40596100D01*
X52336600Y-40520300D01*
X52200000Y-40493200D01*
X52063400Y-40520300D01*
X51950000Y-40596100D01*
X51836500Y-40520300D01*
X51700000Y-40493200D01*
X51563400Y-40520300D01*
X51450000Y-40596100D01*
X51336500Y-40520300D01*
X51200000Y-40493200D01*
X51063400Y-40520300D01*
X50947700Y-40597700D01*
X50870300Y-40713400D01*
X50843100Y-40850000D01*
X50870300Y-40986600D01*
X50947700Y-41102400D01*
X51063400Y-41179700D01*
X51200000Y-41206900D01*
X51336500Y-41179700D01*
X51450000Y-41103900D01*
X51563400Y-41179700D01*
X51647100Y-41196400D01*
X51705700Y-41337700D01*
X51706200Y-41349400D01*
X50649100Y-42406500D01*
X45750900Y-42406500D01*
X45422200Y-42077800D01*
X45250000Y-42006500D01*
X45208200Y-42006500D01*
X45202300Y-41997700D01*
X45086500Y-41920300D01*
X45086300Y-41920300D01*
X45036900Y-41757500D01*
X45700900Y-41093500D01*
X49600000Y-41093500D01*
X49772200Y-41022200D01*
X50593900Y-40200500D01*
X53393200Y-40200500D01*
X53420300Y-40336600D01*
X53497700Y-40452400D01*
X53613400Y-40529700D01*
X53750000Y-40556900D01*
X53886500Y-40529700D01*
X54002300Y-40452400D01*
X54079700Y-40336600D01*
X54106800Y-40200000D01*
X54079700Y-40063400D01*
X54002300Y-39947700D01*
X53886500Y-39870300D01*
X53750000Y-39843200D01*
X53613400Y-39870300D01*
X53497700Y-39947700D01*
X53420300Y-40063400D01*
X53393200Y-40199500D01*
X50594900Y-40199500D01*
X52222200Y-38572200D01*
X52293500Y-38400000D01*
X52293500Y-35649800D01*
X52222200Y-35477700D01*
X52004900Y-35260300D01*
X52007000Y-35250000D01*
X51979800Y-35113400D01*
X51902400Y-34997600D01*
X51786700Y-34920300D01*
X51650100Y-34893100D01*
X51513500Y-34920300D01*
X51397800Y-34997600D01*
X51320400Y-35113400D01*
X51293200Y-35250000D01*
X51320400Y-35386500D01*
X51397800Y-35502300D01*
X51513500Y-35579700D01*
X51650100Y-35606800D01*
X51660500Y-35604800D01*
X51806500Y-35750700D01*
X51806500Y-38299100D01*
X51516200Y-38589400D01*
X51339800Y-38553700D01*
X51302300Y-38497700D01*
X51186600Y-38420300D01*
X51050000Y-38393100D01*
X50913500Y-38420300D01*
X50797700Y-38497700D01*
X50720300Y-38613400D01*
X50693100Y-38750000D01*
X50720300Y-38886500D01*
X50797700Y-39002300D01*
X50853700Y-39039800D01*
X50889400Y-39216200D01*
X49906100Y-40199500D01*
X48069200Y-40199500D01*
X48387800Y-39880900D01*
X48569900Y-39910900D01*
X48597700Y-39952400D01*
X48713400Y-40029700D01*
X48850000Y-40056900D01*
X48986500Y-40029700D01*
X49102300Y-39952400D01*
X49179700Y-39836600D01*
X49206800Y-39700000D01*
X49179700Y-39563400D01*
X49102300Y-39447700D01*
X49060900Y-39420000D01*
X49030900Y-39237800D01*
X50175100Y-38093600D01*
X50791800Y-38093600D01*
X50797700Y-38102400D01*
X50913500Y-38179700D01*
X51050000Y-38206900D01*
X51186600Y-38179700D01*
X51302300Y-38102400D01*
X51379700Y-37986600D01*
X51406900Y-37850000D01*
X51379700Y-37713500D01*
X51302300Y-37597700D01*
X51186600Y-37520400D01*
X51050000Y-37493200D01*
X50913500Y-37520400D01*
X50797700Y-37597700D01*
X50791800Y-37606500D01*
X50433900Y-37606500D01*
X50376500Y-37467900D01*
X50650500Y-37193800D01*
X50797400Y-37201900D01*
X50797700Y-37202400D01*
X50913500Y-37279800D01*
X51050000Y-37306900D01*
X51186600Y-37279800D01*
X51302300Y-37202400D01*
X51379700Y-37086600D01*
X51406900Y-36950000D01*
X51379700Y-36813500D01*
X51302300Y-36697700D01*
X51186600Y-36620400D01*
X51050000Y-36593200D01*
X50913500Y-36620400D01*
X50797700Y-36697700D01*
X50791800Y-36706500D01*
X50550000Y-36706500D01*
X50428200Y-36757000D01*
X50377700Y-36777800D01*
X49182100Y-37973500D01*
X49043500Y-37916100D01*
X49043500Y-36408300D01*
X49052300Y-36402400D01*
X49129700Y-36286600D01*
X49156900Y-36150000D01*
X49129700Y-36013500D01*
X49052300Y-35897700D01*
X49025400Y-35879700D01*
X49001100Y-35691900D01*
X50222200Y-34470800D01*
X50293500Y-34298600D01*
X50293500Y-33350400D01*
X52293300Y-33350400D01*
X52320400Y-33486500D01*
X52397700Y-33602300D01*
X52513500Y-33679600D01*
X52650100Y-33706800D01*
X53050100Y-33706800D01*
X53186600Y-33679600D01*
X53302400Y-33602300D01*
X53379800Y-33486500D01*
X53406900Y-33349900D01*
X53379800Y-33213400D01*
X53302400Y-33097600D01*
X53186600Y-33020200D01*
X53050100Y-32993100D01*
X52650100Y-32993100D01*
X52513500Y-33020200D01*
X52397700Y-33097600D01*
X52320400Y-33213400D01*
X52293300Y-33349400D01*
X50293500Y-33349400D01*
X50293500Y-32801600D01*
X50632700Y-32801600D01*
X50659800Y-32937600D01*
X50737100Y-33053400D01*
X50852900Y-33130700D01*
X50989500Y-33157900D01*
X51126000Y-33130700D01*
X51241800Y-33053400D01*
X51319200Y-32937600D01*
X51346300Y-32801100D01*
X51319200Y-32664500D01*
X51241800Y-32548700D01*
X51126000Y-32471400D01*
X50989500Y-32444200D01*
X50852900Y-32471400D01*
X50737100Y-32548700D01*
X50659800Y-32664500D01*
X50632700Y-32800600D01*
X50293500Y-32800600D01*
X50293500Y-32200400D01*
X52843300Y-32200400D01*
X52870400Y-32336500D01*
X52947700Y-32452300D01*
X53063500Y-32529600D01*
X53200100Y-32556800D01*
X53336600Y-32529600D01*
X53452400Y-32452300D01*
X53529800Y-32336500D01*
X53556900Y-32199900D01*
X53556900Y-31830800D01*
X54298000Y-31830800D01*
X54325000Y-31966900D01*
X54402400Y-32082600D01*
X54518200Y-32160000D01*
X54654700Y-32187200D01*
X54791300Y-32160000D01*
X54907000Y-32082600D01*
X54984400Y-31966900D01*
X55011600Y-31830300D01*
X54984400Y-31693700D01*
X54907000Y-31577900D01*
X54791300Y-31500600D01*
X54654700Y-31473400D01*
X54518200Y-31500600D01*
X54402400Y-31577900D01*
X54325000Y-31693700D01*
X54298000Y-31829800D01*
X53556900Y-31829800D01*
X53556900Y-31799900D01*
X53529800Y-31663400D01*
X53452400Y-31547600D01*
X53336600Y-31470200D01*
X53200100Y-31443100D01*
X53063500Y-31470200D01*
X52947700Y-31547600D01*
X52870400Y-31663400D01*
X52843200Y-31799900D01*
X52843200Y-31829800D01*
X50293500Y-31829800D01*
X50293500Y-30560800D01*
X54298000Y-30560800D01*
X54325000Y-30696900D01*
X54402400Y-30812600D01*
X54518200Y-30890000D01*
X54654700Y-30917100D01*
X54791300Y-30890000D01*
X54907000Y-30812600D01*
X54984400Y-30696900D01*
X55011600Y-30560300D01*
X54984400Y-30423700D01*
X54907000Y-30308000D01*
X54791300Y-30230600D01*
X54654700Y-30203400D01*
X54518200Y-30230600D01*
X54402400Y-30308000D01*
X54325000Y-30423700D01*
X54298000Y-30559800D01*
X50293500Y-30559800D01*
X50293500Y-29305900D01*
X50243100Y-29184100D01*
X50222200Y-29133700D01*
X50079000Y-28990500D01*
X50084300Y-28930900D01*
X50118400Y-28817700D01*
X50208600Y-28757400D01*
X50286000Y-28641700D01*
X50312700Y-28507900D01*
X50446400Y-28481300D01*
X50562200Y-28403900D01*
X50639600Y-28288100D01*
X50666200Y-28154300D01*
X50800000Y-28127700D01*
X50915800Y-28050400D01*
X50993100Y-27934600D01*
X51019700Y-27800800D01*
X51153600Y-27774100D01*
X51269300Y-27696800D01*
X51287880Y-27669000D01*
X53165700Y-27669000D01*
X53192800Y-27805100D01*
X53270100Y-27920800D01*
X53385900Y-27998200D01*
X53522500Y-28025400D01*
X53659000Y-27998200D01*
X53774800Y-27920800D01*
X53852200Y-27805100D01*
X53879300Y-27668500D01*
X53852200Y-27532000D01*
X53774800Y-27416200D01*
X53659000Y-27338800D01*
X53522500Y-27311600D01*
X53385900Y-27338800D01*
X53270100Y-27416200D01*
X53192800Y-27532000D01*
X53165700Y-27668000D01*
X51288550Y-27668000D01*
X51346700Y-27581000D01*
X51373800Y-27444500D01*
X51346700Y-27307900D01*
X51269300Y-27192100D01*
X51153600Y-27114700D01*
X51017000Y-27087600D01*
X50880400Y-27114700D01*
X50764600Y-27192100D01*
X50687300Y-27307900D01*
X50660700Y-27441700D01*
X50526900Y-27468300D01*
X50411100Y-27545700D01*
X50333700Y-27661400D01*
X50332390Y-27668000D01*
X48243500Y-27668000D01*
X48243500Y-27265100D01*
X48393500Y-27219600D01*
X48429800Y-27273900D01*
X48578700Y-27373400D01*
X48754200Y-27408300D01*
X48929800Y-27373400D01*
X49078700Y-27273900D01*
X49178100Y-27125100D01*
X49213100Y-26949500D01*
X49178100Y-26773900D01*
X49176160Y-26771000D01*
X52767700Y-26771000D01*
X52794800Y-26907000D01*
X52872100Y-27022800D01*
X52987900Y-27100200D01*
X53124500Y-27127300D01*
X53261000Y-27100200D01*
X53376800Y-27022800D01*
X53454100Y-26907000D01*
X53481300Y-26770500D01*
X53454100Y-26633900D01*
X53376800Y-26518200D01*
X53261000Y-26440800D01*
X53124500Y-26413600D01*
X52987900Y-26440800D01*
X52872100Y-26518200D01*
X52794800Y-26633900D01*
X52767700Y-26770000D01*
X49175490Y-26770000D01*
X49078700Y-26625100D01*
X48929800Y-26525600D01*
X48754200Y-26490700D01*
X48578700Y-26525600D01*
X48429800Y-26625100D01*
X48393500Y-26679400D01*
X48243500Y-26633900D01*
X48243500Y-25873000D01*
X51869700Y-25873000D01*
X51896700Y-26009000D01*
X51974100Y-26124800D01*
X52089900Y-26202100D01*
X52226400Y-26229300D01*
X52363000Y-26202100D01*
X52478800Y-26124800D01*
X52556100Y-26009000D01*
X52583300Y-25872500D01*
X52556100Y-25735900D01*
X52478800Y-25620100D01*
X52363000Y-25542800D01*
X52226400Y-25515600D01*
X52089900Y-25542800D01*
X51974100Y-25620100D01*
X51896700Y-25735900D01*
X51869700Y-25872000D01*
X48243500Y-25872000D01*
X48243500Y-25136000D01*
X48262000Y-25043100D01*
X48273530Y-25040800D01*
X49953100Y-25040800D01*
X49980200Y-25176800D01*
X50057600Y-25292600D01*
X50173300Y-25370000D01*
X50309900Y-25397200D01*
X50446400Y-25370000D01*
X50562200Y-25292600D01*
X50639600Y-25176800D01*
X50666700Y-25040300D01*
X50653730Y-24974900D01*
X50971600Y-24974900D01*
X50998700Y-25111000D01*
X51076000Y-25226800D01*
X51191800Y-25304100D01*
X51328400Y-25331300D01*
X51465000Y-25304100D01*
X51580700Y-25226800D01*
X51658100Y-25111000D01*
X51685300Y-24974400D01*
X51658100Y-24837900D01*
X51580700Y-24722100D01*
X51465000Y-24644700D01*
X51328400Y-24617600D01*
X51191800Y-24644700D01*
X51076000Y-24722100D01*
X50998700Y-24837900D01*
X50971600Y-24973900D01*
X50653530Y-24973900D01*
X50639600Y-24903700D01*
X50562200Y-24788000D01*
X50446400Y-24710600D01*
X50309900Y-24683400D01*
X50173300Y-24710600D01*
X50057600Y-24788000D01*
X49980200Y-24903700D01*
X49966220Y-24973900D01*
X48459470Y-24973900D01*
X48511600Y-24939100D01*
X48589000Y-24823300D01*
X48616100Y-24686700D01*
X48589000Y-24550200D01*
X48511600Y-24434400D01*
X48395800Y-24357100D01*
X48259300Y-24329900D01*
X48122700Y-24357100D01*
X48006900Y-24434400D01*
X47929600Y-24550200D01*
X47903000Y-24684000D01*
X47769200Y-24710600D01*
X47653400Y-24788000D01*
X47576000Y-24903700D01*
X47562040Y-24973900D01*
X46052420Y-24973900D01*
X46054800Y-24961900D01*
X46188600Y-24935300D01*
X46304400Y-24858000D01*
X46381800Y-24742200D01*
X46408400Y-24608400D01*
X46542200Y-24581800D01*
X46658000Y-24504400D01*
X46735300Y-24388600D01*
X46761900Y-24254900D01*
X46895800Y-24228200D01*
X47011500Y-24150800D01*
X47060940Y-24076900D01*
X50073600Y-24076900D01*
X50100700Y-24213000D01*
X50178000Y-24328700D01*
X50293800Y-24406100D01*
X50430400Y-24433300D01*
X50566900Y-24406100D01*
X50682700Y-24328700D01*
X50760100Y-24213000D01*
X50787200Y-24076400D01*
X50760100Y-23939800D01*
X50682700Y-23824100D01*
X50566900Y-23746700D01*
X50430400Y-23719500D01*
X50293800Y-23746700D01*
X50178000Y-23824100D01*
X50100700Y-23939800D01*
X50073600Y-24075900D01*
X47061610Y-24075900D01*
X47088900Y-24035100D01*
X47115500Y-23901300D01*
X47249300Y-23874700D01*
X47365100Y-23797300D01*
X47442400Y-23681500D01*
X47467430Y-23555900D01*
X48114700Y-23555900D01*
X48141700Y-23692000D01*
X48219100Y-23807700D01*
X48334800Y-23885100D01*
X48471400Y-23912300D01*
X48608000Y-23885100D01*
X48723800Y-23807700D01*
X48801100Y-23692000D01*
X48828300Y-23555400D01*
X48801100Y-23418900D01*
X48723800Y-23303100D01*
X48608000Y-23225700D01*
X48471400Y-23198500D01*
X48334800Y-23225700D01*
X48219100Y-23303100D01*
X48141700Y-23418900D01*
X48114700Y-23554900D01*
X47467630Y-23554900D01*
X47469600Y-23545000D01*
X47442400Y-23408400D01*
X47365100Y-23292600D01*
X47249300Y-23215300D01*
X47112700Y-23188100D01*
X46976200Y-23215300D01*
X46860400Y-23292600D01*
X46783100Y-23408400D01*
X46756400Y-23542200D01*
X46692520Y-23554900D01*
X44343500Y-23554900D01*
X44343500Y-23372000D01*
X44493500Y-23326500D01*
X44525600Y-23374400D01*
X44674400Y-23473900D01*
X44850000Y-23508800D01*
X45025600Y-23473900D01*
X45174400Y-23374400D01*
X45273900Y-23225600D01*
X45283180Y-23178900D01*
X49175600Y-23178900D01*
X49202700Y-23314900D01*
X49280000Y-23430700D01*
X49395800Y-23508100D01*
X49532300Y-23535200D01*
X49668900Y-23508100D01*
X49784700Y-23430700D01*
X49862000Y-23314900D01*
X49889200Y-23178400D01*
X49862000Y-23041800D01*
X49784700Y-22926100D01*
X49668900Y-22848700D01*
X49532300Y-22821500D01*
X49395800Y-22848700D01*
X49280000Y-22926100D01*
X49202700Y-23041800D01*
X49175600Y-23177900D01*
X45283380Y-23177900D01*
X45308800Y-23050000D01*
X45273900Y-22874400D01*
X45174400Y-22725600D01*
X45025600Y-22626100D01*
X44850000Y-22591200D01*
X44674400Y-22626100D01*
X44525600Y-22725600D01*
X44493500Y-22773500D01*
X44343500Y-22728000D01*
X44343500Y-22280900D01*
X48277600Y-22280900D01*
X48304600Y-22416900D01*
X48382000Y-22532700D01*
X48497800Y-22610000D01*
X48634300Y-22637200D01*
X48770900Y-22610000D01*
X48886700Y-22532700D01*
X48964000Y-22416900D01*
X48991200Y-22280400D01*
X48964000Y-22143800D01*
X48886700Y-22028000D01*
X48770900Y-21950700D01*
X48634300Y-21923500D01*
X48497800Y-21950700D01*
X48382000Y-22028000D01*
X48304600Y-22143800D01*
X48277600Y-22279900D01*
X44343500Y-22279900D01*
X44343500Y-21215200D01*
X44357800Y-21143600D01*
X44369330Y-21141300D01*
X46048900Y-21141300D01*
X46075900Y-21277400D01*
X46153300Y-21393200D01*
X46269100Y-21470500D01*
X46405600Y-21497700D01*
X46542200Y-21470500D01*
X46658000Y-21393200D01*
X46735300Y-21277400D01*
X46762500Y-21140800D01*
X46744520Y-21050500D01*
X46993200Y-21050500D01*
X47020300Y-21186600D01*
X47097700Y-21302300D01*
X47213400Y-21379700D01*
X47350000Y-21406900D01*
X47393100Y-21450000D01*
X47420300Y-21586600D01*
X47497700Y-21702400D01*
X47613400Y-21779700D01*
X47750000Y-21806900D01*
X47886500Y-21779700D01*
X48002300Y-21702400D01*
X48079700Y-21586600D01*
X48106800Y-21450000D01*
X48079700Y-21313400D01*
X48002300Y-21197700D01*
X47886500Y-21120300D01*
X47750000Y-21093200D01*
X47706800Y-21050000D01*
X47679700Y-20913500D01*
X47602300Y-20797700D01*
X47486500Y-20720300D01*
X47350000Y-20693100D01*
X47213400Y-20720300D01*
X47097700Y-20797700D01*
X47020300Y-20913500D01*
X46993200Y-21049500D01*
X46744320Y-21049500D01*
X46735300Y-21004200D01*
X46658000Y-20888500D01*
X46542200Y-20811100D01*
X46405600Y-20783900D01*
X46269100Y-20811100D01*
X46153300Y-20888500D01*
X46075900Y-21004200D01*
X46066910Y-21049500D01*
X44592570Y-21049500D01*
X44607400Y-21039600D01*
X44684700Y-20923800D01*
X44711900Y-20787300D01*
X44684700Y-20650700D01*
X44607400Y-20534900D01*
X44491600Y-20457600D01*
X44355000Y-20430400D01*
X44218400Y-20457600D01*
X44102700Y-20534900D01*
X44025300Y-20650700D01*
X43998700Y-20784500D01*
X43864900Y-20811100D01*
X43749100Y-20888500D01*
X43671800Y-21004200D01*
X43662800Y-21049500D01*
X42325340Y-21049500D01*
X42430500Y-20979300D01*
X42507800Y-20863500D01*
X42534500Y-20729700D01*
X42668300Y-20703100D01*
X42784000Y-20625700D01*
X42861400Y-20509900D01*
X42888000Y-20376200D01*
X43021800Y-20349500D01*
X43137600Y-20272200D01*
X43214900Y-20156400D01*
X43218420Y-20138700D01*
X46135400Y-20138700D01*
X46162500Y-20274800D01*
X46239800Y-20390600D01*
X46355600Y-20467900D01*
X46492200Y-20495100D01*
X46628800Y-20467900D01*
X46744500Y-20390600D01*
X46821900Y-20274800D01*
X46849000Y-20138200D01*
X46821900Y-20001600D01*
X46744500Y-19885900D01*
X46628800Y-19808500D01*
X46492200Y-19781400D01*
X46355600Y-19808500D01*
X46239800Y-19885900D01*
X46162500Y-20001600D01*
X46135400Y-20137700D01*
X43218620Y-20137700D01*
X43241500Y-20022600D01*
X43375400Y-19996000D01*
X43491100Y-19918600D01*
X43568500Y-19802900D01*
X43595700Y-19666300D01*
X43593730Y-19656400D01*
X44210400Y-19656400D01*
X44237500Y-19792500D01*
X44314800Y-19908300D01*
X44430600Y-19985600D01*
X44567200Y-20012800D01*
X44703700Y-19985600D01*
X44819500Y-19908300D01*
X44896900Y-19792500D01*
X44924000Y-19655900D01*
X44896900Y-19519300D01*
X44819500Y-19403600D01*
X44703700Y-19326200D01*
X44567200Y-19299100D01*
X44430600Y-19326200D01*
X44314800Y-19403600D01*
X44237500Y-19519300D01*
X44210400Y-19655400D01*
X43593530Y-19655400D01*
X43568500Y-19529700D01*
X43491100Y-19413900D01*
X43375400Y-19336600D01*
X43238800Y-19309400D01*
X43102300Y-19336600D01*
X42986500Y-19413900D01*
X42909100Y-19529700D01*
X42884110Y-19655400D01*
X40493500Y-19655400D01*
X40493500Y-19529100D01*
X40643500Y-19483600D01*
X40651600Y-19495800D01*
X40800500Y-19595200D01*
X40976100Y-19630100D01*
X41151600Y-19595200D01*
X41300500Y-19495800D01*
X41400000Y-19346900D01*
X41421110Y-19240700D01*
X45237400Y-19240700D01*
X45264500Y-19376700D01*
X45341800Y-19492500D01*
X45457600Y-19569900D01*
X45594100Y-19597000D01*
X45730700Y-19569900D01*
X45846500Y-19492500D01*
X45923900Y-19376700D01*
X45951000Y-19240200D01*
X45923900Y-19103600D01*
X45846500Y-18987900D01*
X45730700Y-18910500D01*
X45594100Y-18883300D01*
X45457600Y-18910500D01*
X45341800Y-18987900D01*
X45264500Y-19103600D01*
X45237400Y-19239700D01*
X41421310Y-19239700D01*
X41434900Y-19171300D01*
X41400000Y-18995700D01*
X41300500Y-18846900D01*
X41151600Y-18747400D01*
X40976100Y-18712500D01*
X40800500Y-18747400D01*
X40651600Y-18846900D01*
X40643500Y-18859000D01*
X40493500Y-18813500D01*
X40493500Y-18342700D01*
X44339400Y-18342700D01*
X44366500Y-18478700D01*
X44443800Y-18594500D01*
X44559600Y-18671900D01*
X44696100Y-18699000D01*
X44832700Y-18671900D01*
X44948500Y-18594500D01*
X45025800Y-18478700D01*
X45053000Y-18342200D01*
X45025800Y-18205600D01*
X44948500Y-18089800D01*
X44832700Y-18012500D01*
X44696100Y-17985300D01*
X44559600Y-18012500D01*
X44443800Y-18089800D01*
X44366500Y-18205600D01*
X44339400Y-18341700D01*
X40493500Y-18341700D01*
X40493500Y-17444700D01*
X42232750Y-17444700D01*
X42279400Y-17514500D01*
X42395100Y-17591800D01*
X42531700Y-17619000D01*
X42668300Y-17591800D01*
X42784000Y-17514500D01*
X42830650Y-17444700D01*
X43441400Y-17444700D01*
X43468400Y-17580700D01*
X43545800Y-17696500D01*
X43661500Y-17773800D01*
X43798100Y-17801000D01*
X43934700Y-17773800D01*
X44050400Y-17696500D01*
X44127800Y-17580700D01*
X44155000Y-17444200D01*
X44127800Y-17307600D01*
X44050400Y-17191800D01*
X43934700Y-17114400D01*
X43798100Y-17087300D01*
X43661500Y-17114400D01*
X43545800Y-17191800D01*
X43468400Y-17307600D01*
X43441400Y-17443700D01*
X42831320Y-17443700D01*
X42861400Y-17398700D01*
X42888600Y-17262100D01*
X42861400Y-17125500D01*
X42801800Y-17036300D01*
X42845000Y-16936000D01*
X42876200Y-16898200D01*
X42900100Y-16903000D01*
X43036700Y-16875800D01*
X43152400Y-16798500D01*
X43229800Y-16682700D01*
X43256900Y-16546100D01*
X43229800Y-16409500D01*
X43152400Y-16293800D01*
X43036700Y-16216400D01*
X42900100Y-16189300D01*
X42763500Y-16216400D01*
X42647700Y-16293800D01*
X42570400Y-16409500D01*
X42543200Y-16546100D01*
X42570400Y-16682700D01*
X42630000Y-16771900D01*
X42586800Y-16872300D01*
X42555600Y-16910000D01*
X42531700Y-16905300D01*
X42395100Y-16932400D01*
X42279400Y-17009800D01*
X42202000Y-17125500D01*
X42174900Y-17261600D01*
X40571820Y-17261600D01*
X40582200Y-17245300D01*
X40617600Y-17238300D01*
X40733400Y-17160900D01*
X40810800Y-17045100D01*
X40838000Y-16908600D01*
X40810800Y-16772000D01*
X40733400Y-16656200D01*
X40617600Y-16578900D01*
X40481100Y-16551700D01*
X40344500Y-16578900D01*
X40228800Y-16656200D01*
X40151400Y-16772000D01*
X40124800Y-16905800D01*
X39991000Y-16932400D01*
X39875200Y-17009800D01*
X39797900Y-17125500D01*
X39771200Y-17259400D01*
X39760130Y-17261600D01*
X38055900Y-17261600D01*
X38055900Y-15777800D01*
X40336500Y-15777800D01*
X40363500Y-15913800D01*
X40440900Y-16029600D01*
X40556700Y-16106900D01*
X40693200Y-16134100D01*
X40829800Y-16106900D01*
X40945600Y-16029600D01*
X41022900Y-15913800D01*
X41050100Y-15777300D01*
X41024470Y-15648600D01*
X41645300Y-15648600D01*
X41672400Y-15784600D01*
X41749700Y-15900400D01*
X41865500Y-15977800D01*
X42002000Y-16004900D01*
X42138600Y-15977800D01*
X42254400Y-15900400D01*
X42331700Y-15784600D01*
X42358900Y-15648100D01*
X42331700Y-15511500D01*
X42254400Y-15395800D01*
X42138600Y-15318400D01*
X42002000Y-15291200D01*
X41865500Y-15318400D01*
X41749700Y-15395800D01*
X41672400Y-15511500D01*
X41645300Y-15647600D01*
X41024270Y-15647600D01*
X41022900Y-15640700D01*
X40945600Y-15524900D01*
X40829800Y-15447500D01*
X40693200Y-15420400D01*
X40556700Y-15447500D01*
X40440900Y-15524900D01*
X40363500Y-15640700D01*
X40362130Y-15647600D01*
X38055900Y-15647600D01*
X38055900Y-14750600D01*
X40747300Y-14750600D01*
X40774300Y-14886600D01*
X40851700Y-15002400D01*
X40967500Y-15079800D01*
X41104000Y-15106900D01*
X41240600Y-15079800D01*
X41356400Y-15002400D01*
X41433700Y-14886600D01*
X41460900Y-14750100D01*
X41433700Y-14613500D01*
X41356400Y-14497700D01*
X41240600Y-14420400D01*
X41104000Y-14393200D01*
X40967500Y-14420400D01*
X40851700Y-14497700D01*
X40774300Y-14613500D01*
X40747300Y-14749600D01*
X38055900Y-14749600D01*
X38055900Y-13852600D01*
X39849300Y-13852600D01*
X39876300Y-13988600D01*
X39953700Y-14104400D01*
X40069400Y-14181700D01*
X40206000Y-14208900D01*
X40342600Y-14181700D01*
X40458300Y-14104400D01*
X40535700Y-13988600D01*
X40562900Y-13852100D01*
X40535700Y-13715500D01*
X40458300Y-13599700D01*
X40342600Y-13522300D01*
X40206000Y-13495200D01*
X40069400Y-13522300D01*
X39953700Y-13599700D01*
X39876300Y-13715500D01*
X39849300Y-13851600D01*
X38055900Y-13851600D01*
X38055900Y-12954500D01*
X38951200Y-12954500D01*
X38978300Y-13090600D01*
X39055600Y-13206400D01*
X39171400Y-13283700D01*
X39308000Y-13310900D01*
X39444500Y-13283700D01*
X39560300Y-13206400D01*
X39637700Y-13090600D01*
X39664800Y-12954000D01*
X39637700Y-12817400D01*
X39560300Y-12701700D01*
X39444500Y-12624300D01*
X39308000Y-12597100D01*
X39171400Y-12624300D01*
X39055600Y-12701700D01*
X38978300Y-12817400D01*
X38951200Y-12953500D01*
X38055900Y-12953500D01*
X38055900Y-12407000D01*
X38058700Y-12404300D01*
X38205900Y-12340500D01*
X38273400Y-12385700D01*
X38409900Y-12412800D01*
X38546500Y-12385700D01*
X38662300Y-12308300D01*
X38739700Y-12192500D01*
X38766800Y-12056000D01*
X38739700Y-11919400D01*
X38662300Y-11803600D01*
X38546500Y-11726300D01*
X38409900Y-11699100D01*
X38273400Y-11726300D01*
X38205900Y-11771400D01*
X38058700Y-11707700D01*
X38055900Y-11705000D01*
X38055900Y-10032700D01*
X38205900Y-9987300D01*
X38226200Y-10017800D01*
X38449500Y-10167000D01*
X38712900Y-10219300D01*
X38842400Y-10193600D01*
X38948500Y-10299700D01*
X38922700Y-10429100D01*
X38975100Y-10692500D01*
X39124300Y-10915800D01*
X39347500Y-11065000D01*
X39610900Y-11117400D01*
X39740400Y-11091600D01*
X39846500Y-11197700D01*
X39820700Y-11327100D01*
X39873100Y-11590500D01*
X40022300Y-11813800D01*
X40245600Y-11963000D01*
X40508900Y-12015400D01*
X40638400Y-11989600D01*
X40744500Y-12095700D01*
X40718800Y-12225200D01*
X40771100Y-12488600D01*
X40920300Y-12711800D01*
X41143600Y-12861000D01*
X41407000Y-12913400D01*
X41536500Y-12887700D01*
X41642500Y-12993700D01*
X41616800Y-13123200D01*
X41669200Y-13386600D01*
X41818400Y-13609900D01*
X42041600Y-13759100D01*
X42305000Y-13811400D01*
X42434500Y-13785700D01*
X42540600Y-13891800D01*
X42514800Y-14021200D01*
X42567200Y-14284600D01*
X42716400Y-14507900D01*
X42939600Y-14657100D01*
X43203000Y-14709500D01*
X43332500Y-14683700D01*
X43438600Y-14789800D01*
X43412800Y-14919300D01*
X43465200Y-15182600D01*
X43614400Y-15405900D01*
X43837700Y-15555100D01*
X44101000Y-15607500D01*
X44230500Y-15581700D01*
X44336600Y-15687800D01*
X44310900Y-15817300D01*
X44363200Y-16080700D01*
X44512400Y-16304000D01*
X44735700Y-16453100D01*
X44999100Y-16505500D01*
X45128600Y-16479700D01*
X45234600Y-16585800D01*
X45208900Y-16715300D01*
X45261300Y-16978700D01*
X45410500Y-17202000D01*
X45633700Y-17351100D01*
X45897100Y-17403500D01*
X46026600Y-17377800D01*
X46132700Y-17483800D01*
X46106900Y-17613300D01*
X46159300Y-17876700D01*
X46308500Y-18100000D01*
X46531700Y-18249200D01*
X46795100Y-18301600D01*
X46924600Y-18275800D01*
X47030700Y-18381900D01*
X47004900Y-18511400D01*
X47057300Y-18774700D01*
X47206500Y-18998000D01*
X47429800Y-19147200D01*
X47693100Y-19199600D01*
G37*
%TD.AperFunction*%
%TD*%
%TA.AperFunction,Conductor*%
%TO.N,0V*%
G36*
X47770300Y-37486600D02*
G01*
X47847700Y-37602400D01*
X47963400Y-37679700D01*
X48100000Y-37706900D01*
X48236600Y-37679700D01*
X48352300Y-37602400D01*
X48406500Y-37521400D01*
X48556500Y-37559700D01*
X48556500Y-38174900D01*
X47424800Y-39306500D01*
X45549400Y-39306500D01*
X45443900Y-39156500D01*
X45448500Y-39143600D01*
X45620700Y-39072200D01*
X48341800Y-36351100D01*
X48529700Y-36375400D01*
X48547600Y-36402400D01*
X48556500Y-36408300D01*
X48556500Y-37140400D01*
X48406500Y-37178700D01*
X48352300Y-37097700D01*
X48236600Y-37020300D01*
X48100000Y-36993200D01*
X47963400Y-37020300D01*
X47847700Y-37097700D01*
X47770300Y-37213400D01*
X47743100Y-37350000D01*
X47770300Y-37486600D01*
G37*
%TD.AperFunction*%
%TD*%
M02*
