M48
; DRILL file {KiCad 7.0.11+dfsg-1build4} date Thu 01 Oct 2026 15:00:51
; FORMAT={-:-/ absolute / metric / decimal}
; #@! TF.CreationDate,2026-10-01T15:00:51+10:00
; #@! TF.GenerationSoftware,Kicad,Pcbnew,7.0.11+dfsg-1build4
; #@! TF.FileFunction,Plated,1,4,PTH
FMAT,2
METRIC
; #@! TA.AperFunction,Plated,PTH,ViaDrill
T1C0.200
; #@! TA.AperFunction,Plated,PTH,ViaDrill
T2C0.300
; #@! TA.AperFunction,Plated,PTH,ComponentDrill
T3C0.700
%
G90
G05
T1
X37.25Y-26.1
X37.25Y-35.5
X37.25Y-40.25
X37.25Y-41.05
X37.25Y-41.85
X37.25Y-42.65
X37.25Y-43.45
X37.25Y-45.6
X37.3Y-28.1
X37.3Y-29.45
X37.3Y-30.6
X37.3Y-32.3
X37.3Y-46.2
X37.35Y-37.8
X37.35Y-33.55
X37.4Y-24.55
X37.5Y-46.9
X37.6Y-39.85
X37.6Y-40.65
X37.6Y-41.45
X37.6Y-42.25
X37.6Y-43.05
X37.6Y-43.85
X37.7Y-47.6
X37.95Y-28.85
X38.1Y-27.85
X38.2Y-45.55
X38.3Y-13.35
X38.35Y-47.65
X38.35Y-15.3
X38.35Y-17.0
X38.35Y-20.45
X38.41Y-12.056
X38.549Y-21.749
X38.549Y-22.951
X38.6Y-36.9
X38.713Y-18.676
X38.75Y-45.55
X38.95Y-27.55
X38.95Y-32.9
X39.02Y-36.1
X39.1Y-28.85
X39.1Y-37.15
X39.25Y-47.65
X39.3Y-38.2
X39.3Y-45.55
X39.308Y-12.954
X39.42Y-17.969
X39.7Y-38.55
X39.751Y-21.749
X39.751Y-22.951
X39.774Y-17.616
X39.85Y-47.85
X40.1Y-38.2
X40.127Y-17.262
X40.206Y-13.852
X40.29Y-34.83
X40.29Y-36.1
X40.3Y-33.95
X40.35Y-45.9
X40.35Y-46.6
X40.4Y-24.7
X40.4Y-32.1
X40.4Y-48.15
X40.45Y-31.55
X40.481Y-16.909
X40.5Y-38.55
X40.5Y-47.45
X40.6Y-29.3
X40.693Y-15.777
X40.9Y-38.2
X40.9Y-48.45
X41.069Y-25.49
X41.104Y-14.75
X41.117Y-21.788
X41.3Y-38.55
X41.35Y-28.6
X41.4Y-48.7
X41.471Y-21.434
X41.56Y-34.83
X41.56Y-36.1
X41.564Y-28.035
X41.6Y-23.5
X41.7Y-38.2
X41.825Y-21.081
X41.85Y-30.65
X41.9Y-33.4
X42.0Y-47.5
X42.002Y-15.648
X42.024Y-32.667
X42.1Y-38.55
X42.178Y-20.727
X42.307Y-32.95
X42.35Y-36.2
X42.483Y-26.904
X42.5Y-49.35
X42.519Y-24.818
X42.532Y-17.262
X42.532Y-20.373
X42.587Y-22.555
X42.6Y-29.15
X42.885Y-20.02
X42.9Y-48.8
X42.9Y-16.546
X42.908Y-30.581
X42.943Y-28.778
X43.1Y-49.7
X43.12Y-26.268
X43.239Y-19.666
X43.25Y-48.15
X43.294Y-21.848
X43.648Y-21.494
X43.685Y-30.228
X43.7Y-50.05
X43.798Y-17.444
X43.8Y-33.95
X43.8Y-45.15
X43.8Y-47.9
X43.968Y-30.51
X44.002Y-21.141
X44.15Y-48.45
X44.2Y-49.35
X44.2Y-50.35
X44.335Y-18.994
X44.35Y-32.2
X44.355Y-20.787
X44.357Y-27.364
X44.45Y-52.2
X44.45Y-52.8
X44.45Y-53.4
X44.45Y-54.0
X44.55Y-39.0
X44.567Y-19.656
X44.6Y-41.85
X44.6Y-42.65
X44.6Y-43.45
X44.6Y-44.25
X44.696Y-18.342
X44.95Y-42.25
X44.95Y-43.05
X44.95Y-43.85
X44.991Y-25.666
X45.0Y-37.05
X45.0Y-37.85
X45.05Y-34.0
X45.333Y-32.942
X45.345Y-25.313
X45.45Y-52.25
X45.45Y-53.25
X45.45Y-54.0
X45.594Y-19.24
X45.698Y-24.959
X45.7Y-49.35
X45.7Y-51.15
X45.85Y-42.2
X45.907Y-43.893
X46.05Y-51.9
X46.052Y-24.606
X46.11Y-30.892
X46.2Y-30.35
X46.406Y-21.141
X46.406Y-24.252
X46.491Y-26.454
X46.492Y-20.138
X46.5Y-36.3
X46.65Y-39.0
X46.75Y-35.35
X46.759Y-23.898
X47.0Y-29.55
X47.1Y-45.45
X47.113Y-23.545
X47.199Y-25.747
X47.25Y-53.25
X47.35Y-21.05
X47.383Y-32.165
X47.5Y-42.15
X47.552Y-25.394
X47.6Y-50.6
X47.75Y-21.45
X47.9Y-47.0
X47.906Y-25.04
X48.0Y-34.15
X48.1Y-37.35
X48.1Y-38.35
X48.209Y-22.873
X48.259Y-24.687
X48.3Y-47.0
X48.471Y-23.555
X48.634Y-22.28
X48.7Y-47.0
X48.8Y-36.15
X48.85Y-30.15
X48.85Y-39.7
X48.896Y-29.566
X49.0Y-41.5
X49.0Y-46.25
X49.2Y-54.0
X49.249Y-29.212
X49.25Y-48.65
X49.3Y-45.15
X49.3Y-47.1
X49.532Y-23.178
X49.603Y-28.859
X49.65Y-46.7
X49.7Y-44.75
X49.7Y-53.55
X49.8Y-36.15
X49.85Y-39.8
X49.956Y-28.505
X50.2Y-40.85
X50.2Y-44.75
X50.2Y-49.65
X50.2Y-53.55
X50.31Y-25.04
X50.31Y-28.152
X50.43Y-24.076
X50.663Y-27.798
X50.7Y-44.75
X50.7Y-53.55
X50.85Y-28.6
X50.85Y-34.1
X50.95Y-31.7
X50.989Y-32.801
X51.017Y-27.444
X51.05Y-36.95
X51.05Y-37.85
X51.05Y-38.75
X51.15Y-46.7
X51.2Y-40.85
X51.2Y-44.75
X51.2Y-49.65
X51.2Y-53.55
X51.328Y-24.974
X51.65Y-35.25
X51.7Y-40.85
X51.7Y-44.75
X51.7Y-49.65
X51.7Y-53.55
X51.85Y-46.7
X52.113Y-26.773
X52.2Y-40.85
X52.2Y-44.75
X52.2Y-49.65
X52.2Y-53.55
X52.226Y-25.872
X52.5Y-36.1
X52.65Y-33.35
X52.7Y-40.85
X52.7Y-44.75
X52.7Y-49.65
X52.7Y-53.55
X52.75Y-46.7
X53.05Y-33.35
X53.124Y-26.77
X53.2Y-31.8
X53.2Y-32.2
X53.523Y-27.668
X53.65Y-49.0
X53.7Y-48.25
X53.75Y-39.05
X53.75Y-40.2
X53.9Y-42.55
X53.9Y-51.35
X53.95Y-45.05
X53.95Y-53.85
X54.35Y-47.3
X54.655Y-29.29
X54.655Y-30.56
X54.655Y-31.83
X54.655Y-33.1
X54.655Y-34.37
X54.655Y-35.64
X54.655Y-36.91
X54.655Y-38.18
X54.655Y-39.45
X54.655Y-40.72
X54.655Y-41.99
X54.655Y-43.26
X54.655Y-44.53
X54.655Y-45.8
X54.655Y-50.88
X54.655Y-52.15
X54.655Y-53.42
X55.6Y-53.5
X56.25Y-27.657
X56.65Y-27.55
X56.75Y-53.95
T2
X40.3Y-41.2
X40.3Y-42.9
X40.976Y-19.171
X41.9Y-41.2
X41.9Y-42.9
X44.85Y-23.05
X48.754Y-26.95
X51.45Y-42.8
X51.45Y-51.6
T3
X38.872Y-9.372
X39.77Y-10.27
X40.668Y-11.168
X41.566Y-12.066
X42.464Y-12.964
X43.362Y-13.862
X44.26Y-14.76
X45.158Y-15.658
X46.056Y-16.556
X46.954Y-17.454
X47.852Y-18.352
X48.75Y-19.25
X49.648Y-20.148
X50.546Y-21.046
X51.444Y-21.944
X52.342Y-22.842
X53.24Y-23.74
X54.138Y-24.638
X55.036Y-25.537
X55.934Y-26.434
X56.75Y-28.9
X56.75Y-30.17
X56.75Y-31.44
X56.75Y-32.71
X56.75Y-33.98
X56.75Y-35.25
X56.75Y-36.52
X56.75Y-37.79
X56.75Y-39.06
X56.75Y-40.33
X56.75Y-41.6
X56.75Y-42.87
X56.75Y-44.14
X56.75Y-45.41
X56.75Y-46.68
X56.75Y-47.95
X56.75Y-49.22
X56.75Y-50.49
X56.75Y-51.76
X56.75Y-53.03
M30
