G04 Layer_Color=11579568*
%FSLAX44Y44*%
%MOMM*%
G71*
G01*
G75*
%ADD10C,0.2500*%
%ADD11C,0.1500*%
%ADD12C,0.2000*%
%ADD48C,0.4000*%
%ADD52C,0.1200*%
%ADD59C,0.3000*%
%ADD103C,0.1000*%
%ADD104C,0.1600*%
%ADD105R,10.0000X2.0000*%
%ADD106R,10.0000X2.0000*%
G36*
X3915789Y2219469D02*
X3916163Y2219427D01*
X3916580Y2219386D01*
X3917038Y2219344D01*
X3918038Y2219177D01*
X3919121Y2218927D01*
X3920246Y2218594D01*
X3921329Y2218136D01*
X3920162Y2215761D01*
X3920121D01*
X3920038Y2215803D01*
X3919912Y2215886D01*
X3919704Y2215970D01*
X3919454Y2216053D01*
X3919163Y2216178D01*
X3918496Y2216428D01*
X3917705Y2216636D01*
X3916788Y2216844D01*
X3915830Y2217011D01*
X3914830Y2217053D01*
X3914456D01*
X3914206Y2217011D01*
X3913872Y2216969D01*
X3913456Y2216928D01*
X3913039Y2216844D01*
X3912581Y2216720D01*
X3911623Y2216428D01*
X3911082Y2216220D01*
X3910581Y2215928D01*
X3910081Y2215636D01*
X3909582Y2215303D01*
X3909124Y2214887D01*
X3908665Y2214428D01*
X3908624Y2214387D01*
X3908582Y2214303D01*
X3908457Y2214178D01*
X3908332Y2213970D01*
X3908166Y2213679D01*
X3907957Y2213387D01*
X3907749Y2213012D01*
X3907541Y2212596D01*
X3907332Y2212096D01*
X3907124Y2211554D01*
X3906957Y2210971D01*
X3906749Y2210346D01*
X3906624Y2209680D01*
X3906499Y2208930D01*
X3906458Y2208180D01*
X3906416Y2207347D01*
Y2207305D01*
Y2207139D01*
Y2206889D01*
X3906458Y2206597D01*
X3906499Y2206181D01*
X3906541Y2205764D01*
X3906583Y2205264D01*
X3906707Y2204723D01*
X3906957Y2203556D01*
X3907332Y2202390D01*
X3907582Y2201807D01*
X3907874Y2201223D01*
X3908207Y2200682D01*
X3908582Y2200182D01*
X3908624Y2200140D01*
X3908665Y2200057D01*
X3908790Y2199932D01*
X3908999Y2199807D01*
X3909207Y2199599D01*
X3909499Y2199391D01*
X3909790Y2199182D01*
X3910165Y2198932D01*
X3910581Y2198682D01*
X3911040Y2198474D01*
X3911540Y2198266D01*
X3912123Y2198058D01*
X3912706Y2197933D01*
X3913372Y2197808D01*
X3914039Y2197724D01*
X3914789Y2197683D01*
X3915205D01*
X3915455Y2197724D01*
X3915747D01*
X3916039Y2197766D01*
X3916413Y2197808D01*
X3917246Y2197891D01*
X3918205Y2198058D01*
X3919246Y2198266D01*
X3920412Y2198557D01*
Y2196141D01*
X3920371D01*
X3920287Y2196100D01*
X3920162Y2196058D01*
X3919954Y2196017D01*
X3919746Y2195933D01*
X3919454Y2195850D01*
X3919121Y2195766D01*
X3918746Y2195725D01*
X3918329Y2195642D01*
X3917871Y2195558D01*
X3916830Y2195392D01*
X3915663Y2195308D01*
X3914372Y2195267D01*
X3914164D01*
X3913872Y2195308D01*
X3913497D01*
X3913081Y2195350D01*
X3912581Y2195433D01*
X3911998Y2195517D01*
X3911414Y2195642D01*
X3910790Y2195808D01*
X3910123Y2196017D01*
X3909457Y2196266D01*
X3908790Y2196600D01*
X3908124Y2196933D01*
X3907499Y2197350D01*
X3906874Y2197849D01*
X3906333Y2198391D01*
X3906291Y2198432D01*
X3906208Y2198557D01*
X3906083Y2198724D01*
X3905874Y2198974D01*
X3905666Y2199307D01*
X3905458Y2199682D01*
X3905166Y2200182D01*
X3904916Y2200724D01*
X3904666Y2201307D01*
X3904417Y2201973D01*
X3904167Y2202723D01*
X3903958Y2203515D01*
X3903750Y2204389D01*
X3903625Y2205347D01*
X3903542Y2206347D01*
X3903500Y2207388D01*
Y2207430D01*
Y2207555D01*
Y2207764D01*
X3903542Y2208013D01*
Y2208305D01*
X3903583Y2208680D01*
X3903625Y2209096D01*
X3903667Y2209555D01*
X3903833Y2210554D01*
X3904083Y2211638D01*
X3904375Y2212720D01*
X3904833Y2213762D01*
Y2213804D01*
X3904916Y2213887D01*
X3904958Y2214012D01*
X3905083Y2214220D01*
X3905416Y2214720D01*
X3905833Y2215345D01*
X3906416Y2216011D01*
X3907083Y2216720D01*
X3907874Y2217386D01*
X3908790Y2218011D01*
X3908832D01*
X3908915Y2218094D01*
X3909040Y2218136D01*
X3909248Y2218261D01*
X3909499Y2218344D01*
X3909790Y2218469D01*
X3910123Y2218636D01*
X3910498Y2218761D01*
X3911414Y2219052D01*
X3912415Y2219261D01*
X3913581Y2219427D01*
X3914830Y2219510D01*
X3915455D01*
X3915789Y2219469D01*
D02*
G37*
G36*
X4006099Y2213554D02*
X4006349D01*
X4006640Y2213512D01*
X4007348Y2213387D01*
X4008140Y2213220D01*
X4008931Y2212929D01*
X4009723Y2212554D01*
X4010389Y2212054D01*
X4010473Y2211971D01*
X4010639Y2211762D01*
X4010889Y2211387D01*
X4011223Y2210846D01*
X4011514Y2210179D01*
X4011639Y2209763D01*
X4011764Y2209305D01*
X4011847Y2208805D01*
X4011931Y2208305D01*
X4012014Y2207722D01*
Y2207097D01*
Y2195600D01*
X4009306D01*
Y2207014D01*
Y2207055D01*
Y2207097D01*
Y2207347D01*
X4009265Y2207764D01*
X4009181Y2208222D01*
X4009056Y2208721D01*
X4008890Y2209263D01*
X4008640Y2209763D01*
X4008307Y2210221D01*
X4008265Y2210263D01*
X4008140Y2210388D01*
X4007890Y2210554D01*
X4007557Y2210763D01*
X4007140Y2210971D01*
X4006640Y2211138D01*
X4006015Y2211263D01*
X4005266Y2211304D01*
X4005016D01*
X4004807Y2211263D01*
X4004308Y2211221D01*
X4003724Y2211138D01*
X4003058Y2210929D01*
X4002350Y2210679D01*
X4001725Y2210305D01*
X4001183Y2209805D01*
X4001142Y2209721D01*
X4000975Y2209513D01*
X4000767Y2209138D01*
X4000558Y2208638D01*
X4000433Y2208305D01*
X4000309Y2207930D01*
X4000184Y2207513D01*
X4000100Y2207097D01*
X4000017Y2206597D01*
X3999933Y2206056D01*
X3999892Y2205472D01*
Y2204848D01*
Y2195600D01*
X3997226D01*
Y2213262D01*
X3999392D01*
X3999809Y2210846D01*
X3999975D01*
X4000017Y2210888D01*
X4000142Y2211054D01*
X4000309Y2211304D01*
X4000558Y2211596D01*
X4000892Y2211887D01*
X4001266Y2212221D01*
X4001725Y2212554D01*
X4002267Y2212845D01*
X4002350Y2212887D01*
X4002516Y2212970D01*
X4002850Y2213095D01*
X4003224Y2213220D01*
X4003724Y2213345D01*
X4004308Y2213470D01*
X4004891Y2213554D01*
X4005557Y2213595D01*
X4005849D01*
X4006099Y2213554D01*
D02*
G37*
G36*
X4045118Y2195600D02*
X4040161D01*
Y2213637D01*
X4045118D01*
Y2195600D01*
D02*
G37*
G36*
X4119474Y2213637D02*
X4124514D01*
Y2209930D01*
X4119474D01*
Y2201223D01*
Y2201182D01*
Y2201057D01*
X4119516Y2200849D01*
X4119557Y2200640D01*
X4119724Y2200140D01*
X4119849Y2199890D01*
X4120057Y2199682D01*
X4120099D01*
X4120182Y2199599D01*
X4120307Y2199516D01*
X4120474Y2199432D01*
X4120724Y2199349D01*
X4120974Y2199266D01*
X4121307Y2199224D01*
X4121640Y2199182D01*
X4121890D01*
X4122140Y2199224D01*
X4122515Y2199266D01*
X4122973Y2199307D01*
X4123473Y2199432D01*
X4124098Y2199557D01*
X4124723Y2199724D01*
Y2196058D01*
X4124640Y2196017D01*
X4124390Y2195933D01*
X4124015Y2195808D01*
X4123473Y2195683D01*
X4122807Y2195517D01*
X4122057Y2195392D01*
X4121182Y2195308D01*
X4120224Y2195267D01*
X4119932D01*
X4119724Y2195308D01*
X4119516D01*
X4119224Y2195350D01*
X4118558Y2195433D01*
X4117849Y2195642D01*
X4117141Y2195892D01*
X4116475Y2196225D01*
X4115892Y2196725D01*
X4115850Y2196808D01*
X4115683Y2197016D01*
X4115475Y2197350D01*
X4115225Y2197849D01*
X4114975Y2198474D01*
X4114767Y2199266D01*
X4114601Y2200182D01*
X4114559Y2201223D01*
Y2209930D01*
X4112226D01*
Y2212012D01*
X4114933Y2213637D01*
X4116350Y2217469D01*
X4119474D01*
Y2213637D01*
D02*
G37*
G36*
X3985062Y2213554D02*
X3985354Y2213512D01*
X3985729Y2213470D01*
X3986562Y2213304D01*
X3987520Y2212970D01*
X3987979Y2212804D01*
X3988478Y2212554D01*
X3988978Y2212262D01*
X3989436Y2211929D01*
X3989894Y2211554D01*
X3990311Y2211096D01*
X3990353Y2211054D01*
X3990394Y2210971D01*
X3990519Y2210846D01*
X3990644Y2210638D01*
X3990811Y2210388D01*
X3991019Y2210096D01*
X3991227Y2209763D01*
X3991436Y2209346D01*
X3991602Y2208888D01*
X3991811Y2208388D01*
X3992019Y2207847D01*
X3992186Y2207264D01*
X3992310Y2206597D01*
X3992436Y2205931D01*
X3992477Y2205181D01*
X3992519Y2204431D01*
Y2204389D01*
Y2204223D01*
Y2204014D01*
X3992477Y2203723D01*
X3992436Y2203348D01*
X3992394Y2202931D01*
X3992352Y2202473D01*
X3992227Y2201973D01*
X3991977Y2200890D01*
X3991602Y2199765D01*
X3991353Y2199224D01*
X3991061Y2198682D01*
X3990686Y2198141D01*
X3990311Y2197683D01*
X3990269Y2197641D01*
X3990228Y2197599D01*
X3990103Y2197474D01*
X3989894Y2197308D01*
X3989686Y2197141D01*
X3989436Y2196933D01*
X3989103Y2196683D01*
X3988770Y2196475D01*
X3988353Y2196266D01*
X3987895Y2196017D01*
X3987395Y2195808D01*
X3986854Y2195642D01*
X3986270Y2195475D01*
X3985687Y2195392D01*
X3985021Y2195308D01*
X3984313Y2195267D01*
X3983896D01*
X3983480Y2195308D01*
X3982896Y2195392D01*
X3982230Y2195517D01*
X3981522Y2195725D01*
X3980814Y2195975D01*
X3980105Y2196350D01*
X3980022Y2196391D01*
X3979814Y2196558D01*
X3979481Y2196808D01*
X3979064Y2197183D01*
X3978606Y2197641D01*
X3978148Y2198183D01*
X3977689Y2198807D01*
X3977273Y2199557D01*
Y2199599D01*
X3977231Y2199641D01*
X3977190Y2199765D01*
X3977106Y2199932D01*
X3976939Y2200349D01*
X3976773Y2200932D01*
X3976606Y2201682D01*
X3976440Y2202473D01*
X3976315Y2203431D01*
X3976273Y2204431D01*
Y2204473D01*
Y2204639D01*
Y2204848D01*
X3976315Y2205139D01*
X3976356Y2205514D01*
X3976398Y2205931D01*
X3976440Y2206389D01*
X3976565Y2206889D01*
X3976815Y2207972D01*
X3977190Y2209096D01*
X3977439Y2209680D01*
X3977731Y2210179D01*
X3978064Y2210721D01*
X3978439Y2211179D01*
X3978481Y2211221D01*
X3978522Y2211304D01*
X3978647Y2211387D01*
X3978856Y2211554D01*
X3979064Y2211721D01*
X3979314Y2211929D01*
X3979647Y2212179D01*
X3980022Y2212387D01*
X3980397Y2212596D01*
X3980855Y2212845D01*
X3981355Y2213054D01*
X3981897Y2213220D01*
X3982480Y2213387D01*
X3983063Y2213512D01*
X3983729Y2213554D01*
X3984438Y2213595D01*
X3984813D01*
X3985062Y2213554D01*
D02*
G37*
G36*
X3959694Y2214595D02*
Y2214553D01*
Y2214512D01*
Y2214262D01*
Y2213845D01*
Y2213345D01*
X3959652Y2212762D01*
Y2212137D01*
X3959611Y2211512D01*
X3959569Y2210888D01*
X3959694D01*
X3959736Y2210929D01*
X3959777Y2211013D01*
X3959902Y2211138D01*
X3960027Y2211304D01*
X3960236Y2211512D01*
X3960486Y2211721D01*
X3960777Y2211971D01*
X3961110Y2212221D01*
X3961443Y2212471D01*
X3961860Y2212720D01*
X3962318Y2212929D01*
X3962818Y2213137D01*
X3963360Y2213304D01*
X3963943Y2213429D01*
X3964568Y2213512D01*
X3965234Y2213554D01*
X3965567D01*
X3965817Y2213512D01*
X3966109Y2213470D01*
X3966442Y2213429D01*
X3967234Y2213262D01*
X3968109Y2212970D01*
X3968525Y2212762D01*
X3968983Y2212554D01*
X3969442Y2212262D01*
X3969858Y2211929D01*
X3970275Y2211554D01*
X3970649Y2211138D01*
X3970691Y2211096D01*
X3970733Y2211013D01*
X3970816Y2210888D01*
X3970941Y2210721D01*
X3971108Y2210471D01*
X3971274Y2210179D01*
X3971441Y2209805D01*
X3971608Y2209430D01*
X3971774Y2208972D01*
X3971941Y2208472D01*
X3972108Y2207888D01*
X3972274Y2207305D01*
X3972399Y2206680D01*
X3972482Y2205972D01*
X3972566Y2205222D01*
Y2204431D01*
Y2204389D01*
Y2204223D01*
Y2204014D01*
X3972524Y2203723D01*
Y2203348D01*
X3972482Y2202931D01*
X3972399Y2202431D01*
X3972316Y2201932D01*
X3972108Y2200849D01*
X3971732Y2199724D01*
X3971274Y2198641D01*
X3970941Y2198099D01*
X3970608Y2197641D01*
X3970566Y2197599D01*
X3970525Y2197558D01*
X3970399Y2197433D01*
X3970275Y2197266D01*
X3970066Y2197099D01*
X3969816Y2196891D01*
X3969233Y2196475D01*
X3968442Y2196017D01*
X3967525Y2195642D01*
X3967025Y2195475D01*
X3966442Y2195350D01*
X3965859Y2195308D01*
X3965234Y2195267D01*
X3964943D01*
X3964609Y2195308D01*
X3964193Y2195350D01*
X3963693Y2195433D01*
X3963193Y2195517D01*
X3962610Y2195683D01*
X3962068Y2195892D01*
X3962027Y2195933D01*
X3961819Y2196017D01*
X3961569Y2196141D01*
X3961235Y2196391D01*
X3960860Y2196641D01*
X3960486Y2196974D01*
X3960069Y2197391D01*
X3959694Y2197849D01*
X3959486D01*
X3958944Y2195600D01*
X3957028D01*
Y2220719D01*
X3959694D01*
Y2214595D01*
D02*
G37*
G36*
X3952279Y2213554D02*
X3952612D01*
X3952987Y2213512D01*
X3953695Y2213387D01*
X3953321Y2210929D01*
X3953279D01*
X3953154Y2210971D01*
X3952946Y2211013D01*
X3952696Y2211054D01*
X3952071Y2211138D01*
X3951404Y2211179D01*
X3951196D01*
X3951029Y2211138D01*
X3950655Y2211096D01*
X3950113Y2210971D01*
X3949530Y2210763D01*
X3948947Y2210429D01*
X3948280Y2210013D01*
X3947697Y2209430D01*
X3947614Y2209346D01*
X3947447Y2209096D01*
X3947239Y2208721D01*
X3946947Y2208222D01*
X3946656Y2207597D01*
X3946447Y2206847D01*
X3946281Y2206014D01*
X3946198Y2205056D01*
Y2195600D01*
X3943531D01*
Y2213262D01*
X3945739D01*
X3946031Y2209971D01*
X3946156D01*
X3946198Y2210054D01*
X3946322Y2210263D01*
X3946530Y2210554D01*
X3946822Y2210971D01*
X3947155Y2211387D01*
X3947572Y2211846D01*
X3948030Y2212262D01*
X3948530Y2212637D01*
X3948613Y2212679D01*
X3948780Y2212804D01*
X3949072Y2212929D01*
X3949447Y2213137D01*
X3949905Y2213304D01*
X3950405Y2213429D01*
X3950988Y2213554D01*
X3951571Y2213595D01*
X3951988D01*
X3952279Y2213554D01*
D02*
G37*
G36*
X3932576Y2213512D02*
X3932867Y2213470D01*
X3933576Y2213387D01*
X3934325Y2213220D01*
X3935075Y2212970D01*
X3935825Y2212596D01*
X3936450Y2212137D01*
X3936533Y2212054D01*
X3936700Y2211887D01*
X3936950Y2211512D01*
X3937242Y2211054D01*
X3937491Y2210429D01*
X3937741Y2209638D01*
X3937908Y2208721D01*
X3937991Y2207639D01*
Y2195600D01*
X3936033D01*
X3935492Y2198099D01*
X3935367D01*
X3935325Y2198016D01*
X3935159Y2197849D01*
X3934867Y2197558D01*
X3934534Y2197183D01*
X3934117Y2196808D01*
X3933701Y2196433D01*
X3933201Y2196100D01*
X3932701Y2195850D01*
X3932659Y2195808D01*
X3932451Y2195766D01*
X3932201Y2195683D01*
X3931826Y2195558D01*
X3931326Y2195433D01*
X3930785Y2195350D01*
X3930160Y2195308D01*
X3929452Y2195267D01*
X3929202D01*
X3929035Y2195308D01*
X3928535Y2195350D01*
X3927952Y2195433D01*
X3927285Y2195600D01*
X3926619Y2195850D01*
X3925952Y2196141D01*
X3925328Y2196600D01*
X3925244Y2196683D01*
X3925078Y2196850D01*
X3924869Y2197183D01*
X3924578Y2197599D01*
X3924286Y2198141D01*
X3924078Y2198807D01*
X3923911Y2199599D01*
X3923828Y2200474D01*
Y2200515D01*
Y2200724D01*
X3923870Y2200974D01*
X3923953Y2201307D01*
X3924078Y2201723D01*
X3924286Y2202182D01*
X3924536Y2202681D01*
X3924911Y2203181D01*
X3925369Y2203681D01*
X3925911Y2204181D01*
X3926619Y2204639D01*
X3927452Y2205098D01*
X3928452Y2205431D01*
X3928994Y2205597D01*
X3929577Y2205764D01*
X3930201Y2205847D01*
X3930910Y2205972D01*
X3931618Y2206014D01*
X3932409Y2206056D01*
X3935409Y2206181D01*
Y2207264D01*
Y2207305D01*
Y2207347D01*
Y2207597D01*
X3935367Y2207972D01*
X3935284Y2208430D01*
X3935200Y2208930D01*
X3935034Y2209430D01*
X3934784Y2209930D01*
X3934492Y2210346D01*
X3934450Y2210388D01*
X3934325Y2210513D01*
X3934117Y2210679D01*
X3933826Y2210846D01*
X3933409Y2211013D01*
X3932909Y2211179D01*
X3932326Y2211304D01*
X3931618Y2211346D01*
X3931243D01*
X3931035Y2211304D01*
X3930785Y2211263D01*
X3930160Y2211179D01*
X3929410Y2211013D01*
X3928577Y2210763D01*
X3927619Y2210429D01*
X3926619Y2209971D01*
X3925828Y2212012D01*
X3925869Y2212054D01*
X3926036Y2212137D01*
X3926328Y2212262D01*
X3926661Y2212429D01*
X3927077Y2212596D01*
X3927577Y2212804D01*
X3928077Y2212970D01*
X3928660Y2213137D01*
X3928744D01*
X3928952Y2213220D01*
X3929243Y2213262D01*
X3929660Y2213345D01*
X3930118Y2213429D01*
X3930660Y2213470D01*
X3931784Y2213554D01*
X3932284D01*
X3932576Y2213512D01*
D02*
G37*
G36*
X4108893Y2195600D02*
X4103936D01*
Y2213637D01*
X4108893D01*
Y2195600D01*
D02*
G37*
G36*
X3883321Y2225911D02*
X3878680Y2223231D01*
X3866000Y2230552D01*
X3853321Y2223231D01*
Y2208590D01*
X3866000Y2201270D01*
X3881000Y2209930D01*
X3898321Y2199930D01*
X3893680Y2197251D01*
X3881000Y2204571D01*
X3868321Y2197251D01*
Y2182610D01*
X3881000Y2175289D01*
X3893680Y2182610D01*
X3898321Y2179930D01*
X3881000Y2169930D01*
X3863680Y2179930D01*
Y2197251D01*
X3848680Y2205911D01*
Y2225911D01*
X3866000Y2235911D01*
X3883321Y2225911D01*
D02*
G37*
G36*
X4030122Y2219469D02*
X4030455D01*
X4030789Y2219427D01*
X4031205Y2219386D01*
X4031705Y2219302D01*
X4032746Y2219094D01*
X4033913Y2218802D01*
X4035162Y2218386D01*
X4036454Y2217844D01*
X4034829Y2213762D01*
X4034788Y2213804D01*
X4034621Y2213887D01*
X4034329Y2213970D01*
X4033996Y2214137D01*
X4033579Y2214303D01*
X4033163Y2214470D01*
X4032163Y2214845D01*
X4032122Y2214887D01*
X4031955Y2214928D01*
X4031663Y2215012D01*
X4031330Y2215095D01*
X4030955Y2215178D01*
X4030497Y2215262D01*
X4030039Y2215345D01*
X4029289D01*
X4029081Y2215303D01*
X4028831Y2215262D01*
X4028581Y2215220D01*
X4027914Y2215095D01*
X4027248Y2214845D01*
X4026498Y2214470D01*
X4026123Y2214220D01*
X4025790Y2213929D01*
X4025457Y2213595D01*
X4025165Y2213220D01*
Y2213179D01*
X4025081Y2213137D01*
X4025040Y2213012D01*
X4024915Y2212845D01*
X4024790Y2212596D01*
X4024665Y2212346D01*
X4024540Y2212054D01*
X4024415Y2211679D01*
X4024248Y2211304D01*
X4024124Y2210846D01*
X4023999Y2210346D01*
X4023874Y2209846D01*
X4023748Y2209263D01*
X4023707Y2208638D01*
X4023624Y2207305D01*
Y2207264D01*
Y2207222D01*
Y2206972D01*
X4023665Y2206597D01*
X4023707Y2206097D01*
X4023790Y2205472D01*
X4023957Y2204806D01*
X4024124Y2204098D01*
X4024373Y2203390D01*
X4024665Y2202640D01*
X4025081Y2201932D01*
X4025540Y2201265D01*
X4026123Y2200682D01*
X4026790Y2200140D01*
X4027581Y2199765D01*
X4028497Y2199516D01*
X4028997Y2199474D01*
X4029539Y2199432D01*
X4029997D01*
X4030247Y2199474D01*
X4030497Y2199516D01*
X4030830D01*
X4031247Y2199599D01*
X4032122Y2199724D01*
X4033121Y2199932D01*
X4034288Y2200224D01*
X4035537Y2200640D01*
Y2196475D01*
X4035496D01*
X4035412Y2196433D01*
X4035246Y2196350D01*
X4035038Y2196308D01*
X4034746Y2196183D01*
X4034454Y2196100D01*
X4034079Y2195975D01*
X4033663Y2195892D01*
X4033205Y2195766D01*
X4032705Y2195642D01*
X4031622Y2195475D01*
X4030372Y2195308D01*
X4029081Y2195267D01*
X4028872D01*
X4028581Y2195308D01*
X4028247D01*
X4027789Y2195350D01*
X4027289Y2195433D01*
X4026748Y2195517D01*
X4026165Y2195642D01*
X4025540Y2195808D01*
X4024873Y2196017D01*
X4024248Y2196266D01*
X4023582Y2196558D01*
X4022957Y2196933D01*
X4022332Y2197350D01*
X4021749Y2197808D01*
X4021208Y2198349D01*
X4021166Y2198391D01*
X4021083Y2198516D01*
X4020958Y2198682D01*
X4020791Y2198932D01*
X4020583Y2199266D01*
X4020333Y2199641D01*
X4020125Y2200099D01*
X4019875Y2200640D01*
X4019583Y2201265D01*
X4019375Y2201932D01*
X4019125Y2202640D01*
X4018917Y2203473D01*
X4018750Y2204348D01*
X4018625Y2205264D01*
X4018542Y2206264D01*
X4018500Y2207347D01*
Y2207388D01*
Y2207513D01*
Y2207722D01*
X4018542Y2207972D01*
Y2208263D01*
X4018583Y2208638D01*
X4018625Y2209055D01*
X4018667Y2209513D01*
X4018833Y2210513D01*
X4019083Y2211596D01*
X4019375Y2212679D01*
X4019833Y2213762D01*
Y2213804D01*
X4019916Y2213887D01*
X4019958Y2214012D01*
X4020083Y2214220D01*
X4020374Y2214720D01*
X4020833Y2215345D01*
X4021374Y2216011D01*
X4021999Y2216720D01*
X4022791Y2217428D01*
X4023665Y2218011D01*
X4023707D01*
X4023790Y2218094D01*
X4023915Y2218136D01*
X4024124Y2218261D01*
X4024332Y2218344D01*
X4024623Y2218469D01*
X4024957Y2218636D01*
X4025332Y2218761D01*
X4026206Y2219052D01*
X4027206Y2219261D01*
X4028331Y2219427D01*
X4029539Y2219510D01*
X4029872D01*
X4030122Y2219469D01*
D02*
G37*
G36*
X4043077Y2220677D02*
X4043494Y2220594D01*
X4043994Y2220427D01*
X4044493Y2220135D01*
X4044702Y2219927D01*
X4044910Y2219719D01*
X4045077Y2219427D01*
X4045201Y2219094D01*
X4045285Y2218719D01*
X4045327Y2218302D01*
Y2218261D01*
Y2218094D01*
X4045285Y2217886D01*
X4045243Y2217636D01*
X4045160Y2217344D01*
X4045035Y2217053D01*
X4044868Y2216761D01*
X4044660Y2216511D01*
X4044618Y2216470D01*
X4044535Y2216428D01*
X4044368Y2216303D01*
X4044160Y2216220D01*
X4043868Y2216095D01*
X4043535Y2215970D01*
X4043119Y2215928D01*
X4042661Y2215886D01*
X4042411D01*
X4042244Y2215928D01*
X4041786Y2216011D01*
X4041328Y2216178D01*
X4040828Y2216470D01*
X4040578Y2216678D01*
X4040369Y2216928D01*
X4040203Y2217178D01*
X4040078Y2217511D01*
X4039995Y2217886D01*
X4039953Y2218302D01*
Y2218344D01*
Y2218427D01*
Y2218511D01*
X4039995Y2218677D01*
X4040078Y2219052D01*
X4040286Y2219510D01*
X4040619Y2219969D01*
X4040828Y2220177D01*
X4041078Y2220344D01*
X4041411Y2220510D01*
X4041786Y2220635D01*
X4042202Y2220677D01*
X4042661Y2220719D01*
X4042910D01*
X4043077Y2220677D01*
D02*
G37*
G36*
X4106852D02*
X4107269Y2220594D01*
X4107769Y2220427D01*
X4108269Y2220135D01*
X4108477Y2219927D01*
X4108685Y2219719D01*
X4108852Y2219427D01*
X4108977Y2219094D01*
X4109060Y2218719D01*
X4109102Y2218302D01*
Y2218261D01*
Y2218094D01*
X4109060Y2217886D01*
X4109019Y2217636D01*
X4108935Y2217344D01*
X4108810Y2217053D01*
X4108643Y2216761D01*
X4108435Y2216511D01*
X4108394Y2216470D01*
X4108310Y2216428D01*
X4108144Y2216303D01*
X4107935Y2216220D01*
X4107644Y2216095D01*
X4107310Y2215970D01*
X4106894Y2215928D01*
X4106436Y2215886D01*
X4106186D01*
X4106019Y2215928D01*
X4105561Y2216011D01*
X4105103Y2216178D01*
X4104603Y2216470D01*
X4104353Y2216678D01*
X4104145Y2216928D01*
X4103978Y2217178D01*
X4103853Y2217511D01*
X4103770Y2217886D01*
X4103728Y2218302D01*
Y2218344D01*
Y2218427D01*
Y2218511D01*
X4103770Y2218677D01*
X4103853Y2219052D01*
X4104061Y2219510D01*
X4104395Y2219969D01*
X4104603Y2220177D01*
X4104853Y2220344D01*
X4105186Y2220510D01*
X4105561Y2220635D01*
X4105977Y2220677D01*
X4106436Y2220719D01*
X4106686D01*
X4106852Y2220677D01*
D02*
G37*
G36*
X4073819Y2213929D02*
X4074153Y2213887D01*
X4074902Y2213804D01*
X4075777Y2213679D01*
X4076735Y2213429D01*
X4077693Y2213137D01*
X4078651Y2212720D01*
X4077193Y2208930D01*
X4077151Y2208972D01*
X4076985Y2209013D01*
X4076777Y2209096D01*
X4076485Y2209180D01*
X4076152Y2209305D01*
X4075777Y2209430D01*
X4075027Y2209680D01*
X4074985D01*
X4074861Y2209721D01*
X4074652Y2209805D01*
X4074402Y2209846D01*
X4074111Y2209930D01*
X4073777Y2209971D01*
X4073028Y2210013D01*
X4072861D01*
X4072694Y2209971D01*
X4072444Y2209930D01*
X4072153Y2209846D01*
X4071820Y2209721D01*
X4071487Y2209555D01*
X4071111Y2209346D01*
X4070737Y2209055D01*
X4070403Y2208680D01*
X4070070Y2208222D01*
X4069778Y2207722D01*
X4069570Y2207097D01*
X4069362Y2206347D01*
X4069237Y2205514D01*
X4069195Y2204556D01*
Y2204514D01*
Y2204348D01*
X4069237Y2204056D01*
Y2203723D01*
X4069320Y2203348D01*
X4069404Y2202890D01*
X4069529Y2202390D01*
X4069695Y2201932D01*
X4069862Y2201432D01*
X4070112Y2200932D01*
X4070445Y2200474D01*
X4070820Y2200099D01*
X4071237Y2199765D01*
X4071778Y2199474D01*
X4072361Y2199307D01*
X4073028Y2199266D01*
X4073278D01*
X4073528Y2199307D01*
X4073903D01*
X4074277Y2199349D01*
X4074736Y2199432D01*
X4075652Y2199641D01*
X4075694D01*
X4075860Y2199724D01*
X4076110Y2199807D01*
X4076402Y2199932D01*
X4076777Y2200099D01*
X4077193Y2200307D01*
X4078068Y2200807D01*
Y2196600D01*
X4078026Y2196558D01*
X4077860Y2196475D01*
X4077610Y2196350D01*
X4077318Y2196183D01*
X4076943Y2196017D01*
X4076527Y2195808D01*
X4076110Y2195683D01*
X4075652Y2195558D01*
X4075610D01*
X4075444Y2195517D01*
X4075152Y2195475D01*
X4074819Y2195433D01*
X4074361Y2195350D01*
X4073861Y2195308D01*
X4073236Y2195267D01*
X4072195D01*
X4071778Y2195308D01*
X4071237Y2195392D01*
X4070612Y2195558D01*
X4069904Y2195766D01*
X4069154Y2196058D01*
X4068362Y2196433D01*
X4067571Y2196891D01*
X4066821Y2197516D01*
X4066113Y2198266D01*
X4065488Y2199141D01*
X4065197Y2199641D01*
X4064946Y2200224D01*
X4064696Y2200807D01*
X4064530Y2201432D01*
X4064363Y2202140D01*
X4064238Y2202848D01*
X4064196Y2203640D01*
X4064155Y2204473D01*
Y2204514D01*
Y2204681D01*
Y2204931D01*
X4064196Y2205222D01*
X4064238Y2205639D01*
X4064280Y2206056D01*
X4064363Y2206555D01*
X4064447Y2207097D01*
X4064696Y2208222D01*
X4065113Y2209388D01*
X4065405Y2209971D01*
X4065696Y2210513D01*
X4066029Y2211054D01*
X4066446Y2211512D01*
X4066488Y2211554D01*
X4066571Y2211638D01*
X4066696Y2211721D01*
X4066862Y2211887D01*
X4067112Y2212096D01*
X4067404Y2212304D01*
X4067737Y2212512D01*
X4068112Y2212762D01*
X4068571Y2212970D01*
X4069070Y2213179D01*
X4069612Y2213387D01*
X4070195Y2213595D01*
X4070820Y2213762D01*
X4071528Y2213845D01*
X4072236Y2213929D01*
X4073028Y2213970D01*
X4073569D01*
X4073819Y2213929D01*
D02*
G37*
G36*
X4098813Y2195600D02*
X4095022D01*
X4094355Y2197891D01*
X4094106D01*
X4094064Y2197849D01*
X4093981Y2197683D01*
X4093772Y2197433D01*
X4093522Y2197183D01*
X4093189Y2196850D01*
X4092814Y2196516D01*
X4092356Y2196225D01*
X4091856Y2195933D01*
X4091773Y2195892D01*
X4091606Y2195850D01*
X4091315Y2195725D01*
X4090898Y2195600D01*
X4090398Y2195475D01*
X4089857Y2195392D01*
X4089232Y2195308D01*
X4088565Y2195267D01*
X4088274D01*
X4088065Y2195308D01*
X4087774D01*
X4087482Y2195350D01*
X4086774Y2195475D01*
X4086024Y2195683D01*
X4085191Y2195975D01*
X4084442Y2196391D01*
X4083775Y2196933D01*
X4083692Y2197016D01*
X4083525Y2197266D01*
X4083275Y2197641D01*
X4082983Y2198183D01*
X4082650Y2198891D01*
X4082400Y2199724D01*
X4082234Y2200724D01*
X4082150Y2201848D01*
Y2213637D01*
X4087066D01*
Y2203056D01*
Y2203015D01*
Y2202973D01*
Y2202723D01*
X4087108Y2202390D01*
X4087149Y2201973D01*
X4087232Y2201473D01*
X4087357Y2201015D01*
X4087524Y2200557D01*
X4087774Y2200140D01*
X4087816Y2200099D01*
X4087899Y2199974D01*
X4088065Y2199849D01*
X4088315Y2199682D01*
X4088607Y2199474D01*
X4089024Y2199349D01*
X4089440Y2199224D01*
X4089982Y2199182D01*
X4090065D01*
X4090315Y2199224D01*
X4090690Y2199266D01*
X4091106Y2199349D01*
X4091606Y2199516D01*
X4092106Y2199765D01*
X4092564Y2200099D01*
X4092939Y2200557D01*
X4092981Y2200640D01*
X4093064Y2200807D01*
X4093231Y2201182D01*
X4093398Y2201640D01*
X4093564Y2202265D01*
X4093731Y2203056D01*
X4093814Y2204014D01*
X4093856Y2204556D01*
Y2205139D01*
Y2213637D01*
X4098813D01*
Y2195600D01*
D02*
G37*
G36*
X4061447Y2213887D02*
X4061989Y2213804D01*
X4061614Y2209180D01*
X4061572D01*
X4061530Y2209221D01*
X4061364D01*
X4061198Y2209263D01*
X4060739Y2209305D01*
X4060156Y2209346D01*
X4059781D01*
X4059365Y2209305D01*
X4058823Y2209180D01*
X4058240Y2209055D01*
X4057615Y2208846D01*
X4057032Y2208555D01*
X4056490Y2208138D01*
X4056449Y2208097D01*
X4056282Y2207930D01*
X4056074Y2207639D01*
X4055865Y2207264D01*
X4055616Y2206805D01*
X4055407Y2206222D01*
X4055240Y2205514D01*
X4055199Y2204764D01*
Y2195600D01*
X4050242D01*
Y2213637D01*
X4053991D01*
X4054699Y2210596D01*
X4054949D01*
X4054991Y2210679D01*
X4055116Y2210846D01*
X4055282Y2211138D01*
X4055532Y2211471D01*
X4055865Y2211846D01*
X4056240Y2212262D01*
X4056699Y2212637D01*
X4057198Y2213012D01*
X4057282Y2213054D01*
X4057448Y2213179D01*
X4057740Y2213304D01*
X4058156Y2213512D01*
X4058615Y2213679D01*
X4059115Y2213804D01*
X4059698Y2213929D01*
X4060323Y2213970D01*
X4060906D01*
X4061447Y2213887D01*
D02*
G37*
G36*
X4134970Y2213929D02*
X4135262D01*
X4135637Y2213887D01*
X4136012Y2213845D01*
X4136428Y2213804D01*
X4137386Y2213595D01*
X4138469Y2213345D01*
X4139594Y2213012D01*
X4140760Y2212512D01*
X4139261Y2208972D01*
X4139219Y2209013D01*
X4139052Y2209055D01*
X4138761Y2209180D01*
X4138428Y2209305D01*
X4138053Y2209471D01*
X4137636Y2209638D01*
X4136720Y2209930D01*
X4136678D01*
X4136512Y2209971D01*
X4136303Y2210054D01*
X4135970Y2210138D01*
X4135637Y2210179D01*
X4135220Y2210263D01*
X4134345Y2210305D01*
X4134012D01*
X4133637Y2210263D01*
X4133262Y2210138D01*
X4132846Y2210013D01*
X4132471Y2209805D01*
X4132221Y2209513D01*
X4132179Y2209305D01*
X4132137Y2209096D01*
Y2209055D01*
Y2208972D01*
X4132179Y2208846D01*
X4132221Y2208721D01*
X4132304Y2208513D01*
X4132429Y2208305D01*
X4132596Y2208138D01*
X4132846Y2207930D01*
X4132887D01*
X4133012Y2207847D01*
X4133179Y2207722D01*
X4133512Y2207597D01*
X4133929Y2207388D01*
X4134429Y2207139D01*
X4135095Y2206847D01*
X4135928Y2206514D01*
X4135970D01*
X4136012Y2206472D01*
X4136262Y2206389D01*
X4136636Y2206222D01*
X4137095Y2206014D01*
X4137636Y2205764D01*
X4138136Y2205514D01*
X4138594Y2205222D01*
X4139011Y2204931D01*
X4139052Y2204889D01*
X4139178Y2204806D01*
X4139344Y2204639D01*
X4139552Y2204431D01*
X4139802Y2204181D01*
X4140052Y2203889D01*
X4140261Y2203556D01*
X4140469Y2203223D01*
X4140510Y2203181D01*
X4140552Y2203056D01*
X4140635Y2202848D01*
X4140719Y2202556D01*
X4140802Y2202223D01*
X4140844Y2201848D01*
X4140927Y2201390D01*
Y2200890D01*
Y2200849D01*
Y2200765D01*
Y2200640D01*
X4140885Y2200432D01*
X4140844Y2199932D01*
X4140677Y2199349D01*
X4140469Y2198641D01*
X4140135Y2197974D01*
X4139636Y2197266D01*
X4139344Y2196974D01*
X4139011Y2196683D01*
X4138969D01*
X4138928Y2196641D01*
X4138802Y2196558D01*
X4138636Y2196475D01*
X4138469Y2196350D01*
X4138219Y2196225D01*
X4137928Y2196100D01*
X4137595Y2195975D01*
X4137178Y2195850D01*
X4136761Y2195725D01*
X4136303Y2195600D01*
X4135762Y2195475D01*
X4135220Y2195392D01*
X4134595Y2195308D01*
X4133970Y2195267D01*
X4132554D01*
X4132096Y2195308D01*
X4131554D01*
X4131013Y2195392D01*
X4130430Y2195433D01*
X4129888Y2195517D01*
X4129846D01*
X4129638Y2195558D01*
X4129388Y2195642D01*
X4129055Y2195725D01*
X4128639Y2195808D01*
X4128222Y2195975D01*
X4127306Y2196308D01*
Y2200349D01*
X4127389Y2200307D01*
X4127556Y2200224D01*
X4127847Y2200099D01*
X4128222Y2199974D01*
X4128680Y2199807D01*
X4129180Y2199599D01*
X4129763Y2199432D01*
X4130388Y2199266D01*
X4130471D01*
X4130680Y2199182D01*
X4131013Y2199141D01*
X4131429Y2199057D01*
X4131888Y2198974D01*
X4132387Y2198932D01*
X4133429Y2198849D01*
X4133679D01*
X4133846Y2198891D01*
X4134262Y2198932D01*
X4134762Y2199057D01*
X4135262Y2199224D01*
X4135678Y2199516D01*
X4135845Y2199682D01*
X4135970Y2199890D01*
X4136053Y2200140D01*
X4136095Y2200390D01*
Y2200432D01*
Y2200474D01*
X4136053Y2200724D01*
X4135928Y2201015D01*
X4135720Y2201307D01*
X4135637Y2201390D01*
X4135428Y2201557D01*
X4135262Y2201682D01*
X4135053Y2201807D01*
X4134803Y2201973D01*
X4134512Y2202140D01*
X4134470Y2202182D01*
X4134345Y2202223D01*
X4134179Y2202307D01*
X4133887Y2202431D01*
X4133554Y2202598D01*
X4133179Y2202806D01*
X4132679Y2203015D01*
X4132179Y2203223D01*
X4132137D01*
X4132096Y2203265D01*
X4131846Y2203390D01*
X4131471Y2203556D01*
X4131013Y2203764D01*
X4130513Y2204014D01*
X4130013Y2204264D01*
X4129513Y2204556D01*
X4129097Y2204806D01*
X4129055Y2204848D01*
X4128930Y2204931D01*
X4128763Y2205098D01*
X4128555Y2205306D01*
X4128347Y2205556D01*
X4128097Y2205847D01*
X4127888Y2206181D01*
X4127680Y2206514D01*
Y2206555D01*
X4127597Y2206680D01*
X4127556Y2206889D01*
X4127472Y2207180D01*
X4127389Y2207513D01*
X4127347Y2207930D01*
X4127264Y2208388D01*
Y2208888D01*
Y2208930D01*
Y2209013D01*
Y2209138D01*
X4127306Y2209305D01*
X4127347Y2209721D01*
X4127514Y2210263D01*
X4127722Y2210846D01*
X4128055Y2211471D01*
X4128513Y2212096D01*
X4128805Y2212387D01*
X4129138Y2212637D01*
X4129180D01*
X4129221Y2212679D01*
X4129347Y2212762D01*
X4129472Y2212845D01*
X4129680Y2212929D01*
X4129930Y2213054D01*
X4130513Y2213304D01*
X4131263Y2213554D01*
X4132179Y2213762D01*
X4133221Y2213929D01*
X4134429Y2213970D01*
X4134762D01*
X4134970Y2213929D01*
D02*
G37*
%LPC*%
G36*
X3984354Y2211304D02*
X3984104D01*
X3983938Y2211263D01*
X3983438Y2211221D01*
X3982896Y2211096D01*
X3982230Y2210888D01*
X3981563Y2210554D01*
X3980938Y2210138D01*
X3980397Y2209555D01*
X3980355Y2209471D01*
X3980189Y2209221D01*
X3979980Y2208846D01*
X3979731Y2208263D01*
X3979481Y2207555D01*
X3979272Y2206680D01*
X3979106Y2205639D01*
X3979064Y2204431D01*
Y2204389D01*
Y2204264D01*
Y2204098D01*
X3979106Y2203889D01*
Y2203598D01*
X3979147Y2203265D01*
X3979231Y2202515D01*
X3979397Y2201682D01*
X3979647Y2200849D01*
X3979939Y2200015D01*
X3980397Y2199266D01*
X3980480Y2199182D01*
X3980647Y2198974D01*
X3980980Y2198724D01*
X3981397Y2198391D01*
X3981980Y2198058D01*
X3982646Y2197808D01*
X3983480Y2197599D01*
X3984396Y2197516D01*
X3984646D01*
X3984813Y2197558D01*
X3985312Y2197599D01*
X3985896Y2197724D01*
X3986520Y2197933D01*
X3987187Y2198266D01*
X3987812Y2198682D01*
X3988353Y2199266D01*
X3988395Y2199349D01*
X3988561Y2199599D01*
X3988770Y2200015D01*
X3989061Y2200557D01*
X3989312Y2201307D01*
X3989520Y2202182D01*
X3989686Y2203223D01*
X3989728Y2204431D01*
Y2204473D01*
Y2204598D01*
Y2204764D01*
Y2204973D01*
X3989686Y2205264D01*
X3989644Y2205597D01*
X3989561Y2206347D01*
X3989395Y2207180D01*
X3989145Y2208013D01*
X3988812Y2208846D01*
X3988353Y2209555D01*
X3988311Y2209638D01*
X3988103Y2209846D01*
X3987812Y2210096D01*
X3987354Y2210429D01*
X3986812Y2210763D01*
X3986104Y2211013D01*
X3985312Y2211221D01*
X3984354Y2211304D01*
D02*
G37*
G36*
X3964859D02*
X3964609D01*
X3964401Y2211263D01*
X3963943Y2211221D01*
X3963318Y2211096D01*
X3962693Y2210929D01*
X3962027Y2210638D01*
X3961402Y2210263D01*
X3960902Y2209721D01*
X3960860Y2209638D01*
X3960735Y2209430D01*
X3960610Y2209263D01*
X3960527Y2209013D01*
X3960402Y2208763D01*
X3960319Y2208472D01*
X3960194Y2208138D01*
X3960069Y2207722D01*
X3959985Y2207305D01*
X3959902Y2206805D01*
X3959819Y2206306D01*
X3959736Y2205722D01*
X3959694Y2205098D01*
Y2204431D01*
Y2204389D01*
Y2204264D01*
Y2204056D01*
X3959736Y2203806D01*
Y2203515D01*
X3959777Y2203181D01*
X3959861Y2202348D01*
X3959985Y2201473D01*
X3960236Y2200599D01*
X3960527Y2199765D01*
X3960735Y2199432D01*
X3960944Y2199099D01*
X3960985Y2199016D01*
X3961194Y2198849D01*
X3961485Y2198599D01*
X3961902Y2198307D01*
X3962443Y2198016D01*
X3963152Y2197766D01*
X3963943Y2197599D01*
X3964901Y2197516D01*
X3965151D01*
X3965317Y2197558D01*
X3965776Y2197599D01*
X3966317Y2197724D01*
X3966900Y2197974D01*
X3967525Y2198266D01*
X3968109Y2198724D01*
X3968358Y2198974D01*
X3968608Y2199307D01*
Y2199349D01*
X3968650Y2199391D01*
X3968817Y2199641D01*
X3968983Y2200057D01*
X3969233Y2200640D01*
X3969442Y2201348D01*
X3969650Y2202223D01*
X3969775Y2203265D01*
X3969816Y2204473D01*
Y2204514D01*
Y2204639D01*
Y2204806D01*
Y2205014D01*
X3969775Y2205306D01*
Y2205639D01*
X3969650Y2206389D01*
X3969525Y2207222D01*
X3969316Y2208097D01*
X3969025Y2208888D01*
X3968608Y2209596D01*
X3968567Y2209680D01*
X3968400Y2209846D01*
X3968109Y2210138D01*
X3967692Y2210471D01*
X3967150Y2210763D01*
X3966526Y2211054D01*
X3965734Y2211221D01*
X3964859Y2211304D01*
D02*
G37*
G36*
X3935325Y2204264D02*
X3932659Y2204139D01*
X3932368D01*
X3932118Y2204098D01*
X3931868D01*
X3931576Y2204056D01*
X3930868Y2203973D01*
X3930118Y2203848D01*
X3929368Y2203681D01*
X3928660Y2203431D01*
X3928327Y2203306D01*
X3928035Y2203140D01*
X3927994Y2203098D01*
X3927827Y2202973D01*
X3927577Y2202765D01*
X3927327Y2202473D01*
X3927077Y2202098D01*
X3926827Y2201640D01*
X3926661Y2201057D01*
X3926619Y2200432D01*
Y2200349D01*
Y2200182D01*
X3926661Y2199932D01*
X3926744Y2199599D01*
X3926827Y2199266D01*
X3926994Y2198891D01*
X3927202Y2198516D01*
X3927494Y2198224D01*
X3927535Y2198183D01*
X3927661Y2198099D01*
X3927869Y2197974D01*
X3928119Y2197849D01*
X3928494Y2197724D01*
X3928910Y2197599D01*
X3929410Y2197516D01*
X3929951Y2197474D01*
X3930201D01*
X3930368Y2197516D01*
X3930826Y2197558D01*
X3931368Y2197641D01*
X3931993Y2197808D01*
X3932659Y2198058D01*
X3933284Y2198349D01*
X3933867Y2198807D01*
X3933951Y2198891D01*
X3934117Y2199057D01*
X3934325Y2199391D01*
X3934617Y2199807D01*
X3934867Y2200349D01*
X3935117Y2201015D01*
X3935284Y2201765D01*
X3935325Y2202640D01*
Y2204264D01*
D02*
G37*
%LPD*%
D10*
X4020500Y2912500D02*
X4120500D01*
Y2892500D02*
Y2912500D01*
X4020500Y2892500D02*
X4120500D01*
X4020500D02*
Y2912500D01*
X3920500D02*
X4020500D01*
Y2892500D02*
Y2912500D01*
X3920500Y2892500D02*
X4020500D01*
X3920500D02*
Y2912500D01*
X3820500D02*
X3920500D01*
Y2892500D02*
Y2912500D01*
X3820500Y2892500D02*
X3920500D01*
X3820500D02*
Y2912500D01*
X3720500D02*
X3820500D01*
Y2892500D02*
Y2912500D01*
X3720500Y2892500D02*
X3820500D01*
X3720500D02*
Y2912500D01*
X3620500Y2892500D02*
Y2912500D01*
Y2892500D02*
X3720500D01*
Y2912500D01*
X3620500D02*
X3720500D01*
D11*
X3613356Y2882498D02*
X3611928Y2882021D01*
X3610976Y2880593D01*
X3610500Y2878213D01*
Y2876784D01*
X3610976Y2874404D01*
X3611928Y2872976D01*
X3613356Y2872500D01*
X3614308D01*
X3615737Y2872976D01*
X3616689Y2874404D01*
X3617165Y2876784D01*
Y2878213D01*
X3616689Y2880593D01*
X3615737Y2882021D01*
X3614308Y2882498D01*
X3613356D01*
X3619403Y2879165D02*
Y2872500D01*
Y2877261D02*
X3620831Y2878689D01*
X3621783Y2879165D01*
X3623211D01*
X3624164Y2878689D01*
X3624640Y2877261D01*
Y2872500D01*
Y2877261D02*
X3626068Y2878689D01*
X3627020Y2879165D01*
X3628448D01*
X3629401Y2878689D01*
X3629877Y2877261D01*
Y2872500D01*
X3633019Y2879165D02*
Y2872500D01*
Y2877261D02*
X3634447Y2878689D01*
X3635399Y2879165D01*
X3636827D01*
X3637780Y2878689D01*
X3638256Y2877261D01*
Y2872500D01*
Y2877261D02*
X3639684Y2878689D01*
X3640636Y2879165D01*
X3642065D01*
X3643017Y2878689D01*
X3643493Y2877261D01*
Y2872500D01*
X3710500Y2880593D02*
X3711452Y2881069D01*
X3712880Y2882498D01*
Y2872500D01*
X3720688Y2882498D02*
X3719260Y2882021D01*
X3718308Y2880593D01*
X3717832Y2878213D01*
Y2876784D01*
X3718308Y2874404D01*
X3719260Y2872976D01*
X3720688Y2872500D01*
X3721640D01*
X3723069Y2872976D01*
X3724021Y2874404D01*
X3724497Y2876784D01*
Y2878213D01*
X3724021Y2880593D01*
X3723069Y2882021D01*
X3721640Y2882498D01*
X3720688D01*
X3726735Y2879165D02*
Y2872500D01*
Y2877261D02*
X3728163Y2878689D01*
X3729115Y2879165D01*
X3730543D01*
X3731495Y2878689D01*
X3731971Y2877261D01*
Y2872500D01*
Y2877261D02*
X3733400Y2878689D01*
X3734352Y2879165D01*
X3735780D01*
X3736732Y2878689D01*
X3737208Y2877261D01*
Y2872500D01*
X3740351Y2879165D02*
Y2872500D01*
Y2877261D02*
X3741779Y2878689D01*
X3742731Y2879165D01*
X3744159D01*
X3745111Y2878689D01*
X3745587Y2877261D01*
Y2872500D01*
Y2877261D02*
X3747016Y2878689D01*
X3747968Y2879165D01*
X3749396D01*
X3750349Y2878689D01*
X3750825Y2877261D01*
Y2872500D01*
X3800976Y2880117D02*
Y2880593D01*
X3801452Y2881545D01*
X3801928Y2882021D01*
X3802880Y2882498D01*
X3804785D01*
X3805737Y2882021D01*
X3806213Y2881545D01*
X3806689Y2880593D01*
Y2879641D01*
X3806213Y2878689D01*
X3805261Y2877261D01*
X3800500Y2872500D01*
X3807165D01*
X3812259Y2882498D02*
X3810831Y2882021D01*
X3809879Y2880593D01*
X3809403Y2878213D01*
Y2876784D01*
X3809879Y2874404D01*
X3810831Y2872976D01*
X3812259Y2872500D01*
X3813211D01*
X3814640Y2872976D01*
X3815592Y2874404D01*
X3816068Y2876784D01*
Y2878213D01*
X3815592Y2880593D01*
X3814640Y2882021D01*
X3813211Y2882498D01*
X3812259D01*
X3818305Y2879165D02*
Y2872500D01*
Y2877261D02*
X3819734Y2878689D01*
X3820686Y2879165D01*
X3822114D01*
X3823066Y2878689D01*
X3823542Y2877261D01*
Y2872500D01*
Y2877261D02*
X3824971Y2878689D01*
X3825923Y2879165D01*
X3827351D01*
X3828304Y2878689D01*
X3828780Y2877261D01*
Y2872500D01*
X3831922Y2879165D02*
Y2872500D01*
Y2877261D02*
X3833350Y2878689D01*
X3834302Y2879165D01*
X3835730D01*
X3836683Y2878689D01*
X3837159Y2877261D01*
Y2872500D01*
Y2877261D02*
X3838587Y2878689D01*
X3839539Y2879165D01*
X3840967D01*
X3841920Y2878689D01*
X3842396Y2877261D01*
Y2872500D01*
X3901452Y2882498D02*
X3906689D01*
X3903832Y2878689D01*
X3905261D01*
X3906213Y2878213D01*
X3906689Y2877737D01*
X3907165Y2876308D01*
Y2875356D01*
X3906689Y2873928D01*
X3905737Y2872976D01*
X3904308Y2872500D01*
X3902880D01*
X3901452Y2872976D01*
X3900976Y2873452D01*
X3900500Y2874404D01*
X3912259Y2882498D02*
X3910831Y2882021D01*
X3909879Y2880593D01*
X3909403Y2878213D01*
Y2876784D01*
X3909879Y2874404D01*
X3910831Y2872976D01*
X3912259Y2872500D01*
X3913211D01*
X3914640Y2872976D01*
X3915592Y2874404D01*
X3916068Y2876784D01*
Y2878213D01*
X3915592Y2880593D01*
X3914640Y2882021D01*
X3913211Y2882498D01*
X3912259D01*
X3918305Y2879165D02*
Y2872500D01*
Y2877261D02*
X3919734Y2878689D01*
X3920686Y2879165D01*
X3922114D01*
X3923066Y2878689D01*
X3923542Y2877261D01*
Y2872500D01*
Y2877261D02*
X3924971Y2878689D01*
X3925923Y2879165D01*
X3927351D01*
X3928304Y2878689D01*
X3928780Y2877261D01*
Y2872500D01*
X3931922Y2879165D02*
Y2872500D01*
Y2877261D02*
X3933350Y2878689D01*
X3934302Y2879165D01*
X3935730D01*
X3936683Y2878689D01*
X3937159Y2877261D01*
Y2872500D01*
Y2877261D02*
X3938587Y2878689D01*
X3939539Y2879165D01*
X3940967D01*
X3941920Y2878689D01*
X3942396Y2877261D01*
Y2872500D01*
X4005261Y2882498D02*
X4000500Y2875832D01*
X4007641D01*
X4005261Y2882498D02*
Y2872500D01*
X4012259Y2882498D02*
X4010831Y2882021D01*
X4009879Y2880593D01*
X4009403Y2878213D01*
Y2876784D01*
X4009879Y2874404D01*
X4010831Y2872976D01*
X4012259Y2872500D01*
X4013211D01*
X4014640Y2872976D01*
X4015592Y2874404D01*
X4016068Y2876784D01*
Y2878213D01*
X4015592Y2880593D01*
X4014640Y2882021D01*
X4013211Y2882498D01*
X4012259D01*
X4018306Y2879165D02*
Y2872500D01*
Y2877261D02*
X4019734Y2878689D01*
X4020686Y2879165D01*
X4022114D01*
X4023066Y2878689D01*
X4023542Y2877261D01*
Y2872500D01*
Y2877261D02*
X4024971Y2878689D01*
X4025923Y2879165D01*
X4027351D01*
X4028304Y2878689D01*
X4028780Y2877261D01*
Y2872500D01*
X4031922Y2879165D02*
Y2872500D01*
Y2877261D02*
X4033350Y2878689D01*
X4034302Y2879165D01*
X4035730D01*
X4036683Y2878689D01*
X4037159Y2877261D01*
Y2872500D01*
Y2877261D02*
X4038587Y2878689D01*
X4039539Y2879165D01*
X4040967D01*
X4041920Y2878689D01*
X4042396Y2877261D01*
Y2872500D01*
X4106213Y2882498D02*
X4101452D01*
X4100976Y2878213D01*
X4101452Y2878689D01*
X4102880Y2879165D01*
X4104308D01*
X4105737Y2878689D01*
X4106689Y2877737D01*
X4107165Y2876308D01*
Y2875356D01*
X4106689Y2873928D01*
X4105737Y2872976D01*
X4104308Y2872500D01*
X4102880D01*
X4101452Y2872976D01*
X4100976Y2873452D01*
X4100500Y2874404D01*
X4112259Y2882498D02*
X4110831Y2882021D01*
X4109879Y2880593D01*
X4109403Y2878213D01*
Y2876784D01*
X4109879Y2874404D01*
X4110831Y2872976D01*
X4112259Y2872500D01*
X4113211D01*
X4114640Y2872976D01*
X4115592Y2874404D01*
X4116068Y2876784D01*
Y2878213D01*
X4115592Y2880593D01*
X4114640Y2882021D01*
X4113211Y2882498D01*
X4112259D01*
X4118306Y2879165D02*
Y2872500D01*
Y2877261D02*
X4119734Y2878689D01*
X4120686Y2879165D01*
X4122114D01*
X4123066Y2878689D01*
X4123542Y2877261D01*
Y2872500D01*
Y2877261D02*
X4124971Y2878689D01*
X4125923Y2879165D01*
X4127351D01*
X4128304Y2878689D01*
X4128780Y2877261D01*
Y2872500D01*
X4131922Y2879165D02*
Y2872500D01*
Y2877261D02*
X4133350Y2878689D01*
X4134302Y2879165D01*
X4135730D01*
X4136683Y2878689D01*
X4137159Y2877261D01*
Y2872500D01*
Y2877261D02*
X4138587Y2878689D01*
X4139539Y2879165D01*
X4140967D01*
X4141920Y2878689D01*
X4142396Y2877261D01*
Y2872500D01*
D12*
X3594500Y2455500D02*
X4089500D01*
X3594500Y2480500D02*
X4089500D01*
X3594500Y2505500D02*
X4089500D01*
X3594500Y2530500D02*
X4089500D01*
X3594500Y2555500D02*
X4089500D01*
X3594500Y2580500D02*
X4089500D01*
X3594500Y2630500D02*
X4089500D01*
X3594500Y2605500D02*
X4089500D01*
X3889500Y2430500D02*
Y2780500D01*
X3594500Y2655500D02*
X4089500D01*
X3594500Y2680500D02*
X4089500D01*
X3594500Y2705500D02*
X4089500D01*
X3594500Y2730500D02*
X4089500D01*
X3594500Y2755500D02*
X4089500D01*
X3558000Y2132000D02*
Y2282000D01*
X3253500Y2207000D02*
X3833000D01*
X3282283Y2237235D02*
X3281330Y2239139D01*
X3279426Y2241044D01*
X3277522Y2241996D01*
X3273713D01*
X3271809Y2241044D01*
X3269904Y2239139D01*
X3268952Y2237235D01*
X3268000Y2234378D01*
Y2229617D01*
X3268952Y2226761D01*
X3269904Y2224857D01*
X3271809Y2222952D01*
X3273713Y2222000D01*
X3277522D01*
X3279426Y2222952D01*
X3281330Y2224857D01*
X3282283Y2226761D01*
X3303135Y2222000D02*
X3295518Y2241996D01*
X3287900Y2222000D01*
X3290757Y2228665D02*
X3300279D01*
X3307801Y2241996D02*
Y2222000D01*
X3319227D01*
X3321417Y2238187D02*
X3323322Y2239139D01*
X3326178Y2241996D01*
Y2222000D01*
X3341794Y2241996D02*
X3338937Y2241044D01*
X3337033Y2238187D01*
X3336081Y2233426D01*
Y2230570D01*
X3337033Y2225809D01*
X3338937Y2222952D01*
X3341794Y2222000D01*
X3343698D01*
X3346555Y2222952D01*
X3348459Y2225809D01*
X3349411Y2230570D01*
Y2233426D01*
X3348459Y2238187D01*
X3346555Y2241044D01*
X3343698Y2241996D01*
X3341794D01*
X3354839Y2237235D02*
Y2238187D01*
X3355791Y2240091D01*
X3356743Y2241044D01*
X3358647Y2241996D01*
X3362456D01*
X3364360Y2241044D01*
X3365312Y2240091D01*
X3366265Y2238187D01*
Y2236283D01*
X3365312Y2234378D01*
X3363408Y2231522D01*
X3353886Y2222000D01*
X3367217D01*
X3377405Y2241996D02*
X3374549Y2241044D01*
X3372644Y2238187D01*
X3371692Y2233426D01*
Y2230570D01*
X3372644Y2225809D01*
X3374549Y2222952D01*
X3377405Y2222000D01*
X3379309D01*
X3382166Y2222952D01*
X3384070Y2225809D01*
X3385023Y2230570D01*
Y2233426D01*
X3384070Y2238187D01*
X3382166Y2241044D01*
X3379309Y2241996D01*
X3377405D01*
X3268000Y2166996D02*
Y2147000D01*
X3279426D01*
X3281616Y2166996D02*
Y2147000D01*
X3294947Y2166996D02*
Y2147000D01*
X3281616Y2157474D02*
X3294947D01*
X3313800Y2164139D02*
X3311895Y2166044D01*
X3309039Y2166996D01*
X3305230D01*
X3302374Y2166044D01*
X3300469Y2164139D01*
Y2162235D01*
X3301422Y2160331D01*
X3302374Y2159378D01*
X3304278Y2158426D01*
X3309991Y2156522D01*
X3311895Y2155570D01*
X3312848Y2154617D01*
X3313800Y2152713D01*
Y2149857D01*
X3311895Y2147952D01*
X3309039Y2147000D01*
X3305230D01*
X3302374Y2147952D01*
X3300469Y2149857D01*
X3333986Y2160331D02*
X3339699Y2147000D01*
X3345412Y2160331D02*
X3339699Y2147000D01*
X3349602Y2162235D02*
Y2163187D01*
X3350554Y2165091D01*
X3351506Y2166044D01*
X3353410Y2166996D01*
X3357219D01*
X3359123Y2166044D01*
X3360075Y2165091D01*
X3361028Y2163187D01*
Y2161283D01*
X3360075Y2159378D01*
X3358171Y2156522D01*
X3348649Y2147000D01*
X3361980D01*
X3575213Y2166996D02*
X3572357Y2166044D01*
X3570452Y2163187D01*
X3569500Y2158426D01*
Y2155570D01*
X3570452Y2150809D01*
X3572357Y2147952D01*
X3575213Y2147000D01*
X3577117D01*
X3579974Y2147952D01*
X3581878Y2150809D01*
X3582831Y2155570D01*
Y2158426D01*
X3581878Y2163187D01*
X3579974Y2166044D01*
X3577117Y2166996D01*
X3575213D01*
X3598732D02*
X3589210D01*
X3588258Y2158426D01*
X3589210Y2159378D01*
X3592067Y2160331D01*
X3594923D01*
X3597780Y2159378D01*
X3599684Y2157474D01*
X3600636Y2154617D01*
Y2152713D01*
X3599684Y2149857D01*
X3597780Y2147952D01*
X3594923Y2147000D01*
X3592067D01*
X3589210Y2147952D01*
X3588258Y2148904D01*
X3587306Y2150809D01*
X3605111Y2144144D02*
X3618442Y2166996D01*
X3625488D02*
X3622632Y2166044D01*
X3620727Y2163187D01*
X3619775Y2158426D01*
Y2155570D01*
X3620727Y2150809D01*
X3622632Y2147952D01*
X3625488Y2147000D01*
X3627392D01*
X3630249Y2147952D01*
X3632153Y2150809D01*
X3633105Y2155570D01*
Y2158426D01*
X3632153Y2163187D01*
X3630249Y2166044D01*
X3627392Y2166996D01*
X3625488D01*
X3649959Y2160331D02*
X3649007Y2157474D01*
X3647102Y2155570D01*
X3644246Y2154617D01*
X3643294D01*
X3640437Y2155570D01*
X3638533Y2157474D01*
X3637581Y2160331D01*
Y2161283D01*
X3638533Y2164139D01*
X3640437Y2166044D01*
X3643294Y2166996D01*
X3644246D01*
X3647102Y2166044D01*
X3649007Y2164139D01*
X3649959Y2160331D01*
Y2155570D01*
X3649007Y2150809D01*
X3647102Y2147952D01*
X3644246Y2147000D01*
X3642342D01*
X3639485Y2147952D01*
X3638533Y2149857D01*
X3655386Y2144144D02*
X3668717Y2166996D01*
X3671002Y2162235D02*
Y2163187D01*
X3671954Y2165091D01*
X3672906Y2166044D01*
X3674811Y2166996D01*
X3678619D01*
X3680524Y2166044D01*
X3681476Y2165091D01*
X3682428Y2163187D01*
Y2161283D01*
X3681476Y2159378D01*
X3679572Y2156522D01*
X3670050Y2147000D01*
X3683380D01*
X3693569Y2166996D02*
X3690712Y2166044D01*
X3688808Y2163187D01*
X3687856Y2158426D01*
Y2155570D01*
X3688808Y2150809D01*
X3690712Y2147952D01*
X3693569Y2147000D01*
X3695473D01*
X3698329Y2147952D01*
X3700234Y2150809D01*
X3701186Y2155570D01*
Y2158426D01*
X3700234Y2163187D01*
X3698329Y2166044D01*
X3695473Y2166996D01*
X3693569D01*
X3706613Y2162235D02*
Y2163187D01*
X3707566Y2165091D01*
X3708518Y2166044D01*
X3710422Y2166996D01*
X3714231D01*
X3716135Y2166044D01*
X3717087Y2165091D01*
X3718040Y2163187D01*
Y2161283D01*
X3717087Y2159378D01*
X3715183Y2156522D01*
X3705661Y2147000D01*
X3718992D01*
X3732989Y2166996D02*
X3723467Y2153665D01*
X3737750D01*
X3732989Y2166996D02*
Y2147000D01*
X3584735Y2222000D02*
X3577117Y2241996D01*
X3569500Y2222000D01*
X3572357Y2228665D02*
X3581878D01*
X3589401Y2241996D02*
Y2222000D01*
X3593590Y2229617D02*
X3605016D01*
Y2231522D01*
X3604064Y2233426D01*
X3603112Y2234378D01*
X3601208Y2235331D01*
X3598351D01*
X3596447Y2234378D01*
X3594542Y2232474D01*
X3593590Y2229617D01*
Y2227713D01*
X3594542Y2224857D01*
X3596447Y2222952D01*
X3598351Y2222000D01*
X3601208D01*
X3603112Y2222952D01*
X3605016Y2224857D01*
X3609301Y2235331D02*
X3619775Y2222000D01*
Y2235331D02*
X3609301Y2222000D01*
X3653958Y2237235D02*
X3653006Y2239139D01*
X3651102Y2241044D01*
X3649197Y2241996D01*
X3645388D01*
X3643484Y2241044D01*
X3641580Y2239139D01*
X3640628Y2237235D01*
X3639675Y2234378D01*
Y2229617D01*
X3640628Y2226761D01*
X3641580Y2224857D01*
X3643484Y2222952D01*
X3645388Y2222000D01*
X3649197D01*
X3651102Y2222952D01*
X3653006Y2224857D01*
X3653958Y2226761D01*
Y2229617D01*
X3649197D02*
X3653958D01*
X3660433Y2241996D02*
X3661385Y2241044D01*
X3662337Y2241996D01*
X3661385Y2242948D01*
X3660433Y2241996D01*
X3661385Y2235331D02*
Y2222000D01*
X3665860Y2241996D02*
Y2222000D01*
X3670050Y2235331D02*
Y2222000D01*
Y2231522D02*
X3672906Y2234378D01*
X3674811Y2235331D01*
X3677667D01*
X3679572Y2234378D01*
X3680524Y2231522D01*
Y2222000D01*
Y2231522D02*
X3683380Y2234378D01*
X3685285Y2235331D01*
X3688141D01*
X3690045Y2234378D01*
X3690998Y2231522D01*
Y2222000D01*
X3702043Y2235331D02*
X3700139Y2234378D01*
X3698234Y2232474D01*
X3697282Y2229617D01*
Y2227713D01*
X3698234Y2224857D01*
X3700139Y2222952D01*
X3702043Y2222000D01*
X3704900D01*
X3706804Y2222952D01*
X3708708Y2224857D01*
X3709661Y2227713D01*
Y2229617D01*
X3708708Y2232474D01*
X3706804Y2234378D01*
X3704900Y2235331D01*
X3702043D01*
X3714041D02*
Y2225809D01*
X3714993Y2222952D01*
X3716897Y2222000D01*
X3719753D01*
X3721658Y2222952D01*
X3724514Y2225809D01*
Y2235331D02*
Y2222000D01*
X3729751Y2235331D02*
Y2222000D01*
Y2229617D02*
X3730704Y2232474D01*
X3732608Y2234378D01*
X3734512Y2235331D01*
X3737369D01*
D48*
X3594500Y2780500D02*
X4089500D01*
X3594500Y2820000D02*
X4089500D01*
Y2388000D02*
Y2820000D01*
X3594500Y2430500D02*
X4089500D01*
X3594500Y2388000D02*
X4089500D01*
X3594500Y2388000D02*
Y2820000D01*
X3253500Y2282000D02*
X4152000D01*
Y2132000D02*
Y2282000D01*
X3833000Y2132000D02*
Y2282000D01*
X3253500Y2132000D02*
Y2282000D01*
Y2132000D02*
X4152000D01*
Y2282000D02*
Y3022000D01*
X2452000D02*
X4152000D01*
X2452000Y2132000D02*
Y3022000D01*
Y2132000D02*
X3253500D01*
D52*
X3899500Y2449998D02*
Y2438000D01*
Y2449998D02*
X3907498Y2438000D01*
Y2449998D02*
Y2438000D01*
X3914240Y2449998D02*
X3913097Y2449426D01*
X3911954Y2448284D01*
X3911383Y2447141D01*
X3910812Y2445427D01*
Y2442570D01*
X3911383Y2440857D01*
X3911954Y2439714D01*
X3913097Y2438571D01*
X3914240Y2438000D01*
X3916525D01*
X3917668Y2438571D01*
X3918810Y2439714D01*
X3919381Y2440857D01*
X3919953Y2442570D01*
Y2445427D01*
X3919381Y2447141D01*
X3918810Y2448284D01*
X3917668Y2449426D01*
X3916525Y2449998D01*
X3914240D01*
X3922752D02*
Y2438000D01*
Y2449998D02*
X3930750Y2438000D01*
Y2449998D02*
Y2438000D01*
X3941491Y2449998D02*
X3934064D01*
Y2438000D01*
X3941491D01*
X3934064Y2444284D02*
X3938634D01*
X3612498Y2448284D02*
X3611356Y2449426D01*
X3609642Y2449998D01*
X3607356D01*
X3605642Y2449426D01*
X3604500Y2448284D01*
Y2447141D01*
X3605071Y2445998D01*
X3605642Y2445427D01*
X3606785Y2444856D01*
X3610213Y2443713D01*
X3611356Y2443142D01*
X3611927Y2442570D01*
X3612498Y2441428D01*
Y2439714D01*
X3611356Y2438571D01*
X3609642Y2438000D01*
X3607356D01*
X3605642Y2438571D01*
X3604500Y2439714D01*
X3615183Y2443713D02*
X3620325D01*
X3622039Y2444284D01*
X3622610Y2444856D01*
X3623181Y2445998D01*
Y2447712D01*
X3622610Y2448855D01*
X3622039Y2449426D01*
X3620325Y2449998D01*
X3615183D01*
Y2438000D01*
X3633294Y2449998D02*
X3625867D01*
Y2438000D01*
X3633294D01*
X3625867Y2444284D02*
X3630437D01*
X3643863Y2447141D02*
X3643292Y2448284D01*
X3642149Y2449426D01*
X3641006Y2449998D01*
X3638721D01*
X3637578Y2449426D01*
X3636436Y2448284D01*
X3635865Y2447141D01*
X3635293Y2445427D01*
Y2442570D01*
X3635865Y2440857D01*
X3636436Y2439714D01*
X3637578Y2438571D01*
X3638721Y2438000D01*
X3641006D01*
X3642149Y2438571D01*
X3643292Y2439714D01*
X3643863Y2440857D01*
X3647234Y2449998D02*
Y2438000D01*
X3658888D02*
X3654318Y2449998D01*
X3649747Y2438000D01*
X3651461Y2441999D02*
X3657174D01*
X3661688Y2449998D02*
Y2438000D01*
X3668543D01*
X3679284Y2449998D02*
Y2438000D01*
Y2449998D02*
X3686711D01*
X3679284Y2444284D02*
X3683854D01*
X3695509Y2449998D02*
X3688082D01*
Y2438000D01*
X3695509D01*
X3688082Y2444284D02*
X3692652D01*
X3706649Y2438000D02*
X3702079Y2449998D01*
X3697509Y2438000D01*
X3699222Y2441999D02*
X3704936D01*
X3713448Y2449998D02*
Y2438000D01*
X3709449Y2449998D02*
X3717447D01*
X3718875D02*
Y2441428D01*
X3719447Y2439714D01*
X3720589Y2438571D01*
X3722303Y2438000D01*
X3723446D01*
X3725160Y2438571D01*
X3726302Y2439714D01*
X3726874Y2441428D01*
Y2449998D01*
X3730187D02*
Y2438000D01*
Y2449998D02*
X3735329D01*
X3737043Y2449426D01*
X3737614Y2448855D01*
X3738185Y2447712D01*
Y2446570D01*
X3737614Y2445427D01*
X3737043Y2444856D01*
X3735329Y2444284D01*
X3730187D01*
X3734186D02*
X3738185Y2438000D01*
X3748298Y2449998D02*
X3740871D01*
Y2438000D01*
X3748298D01*
X3740871Y2444284D02*
X3745441D01*
X3758296Y2448284D02*
X3757153Y2449426D01*
X3755439Y2449998D01*
X3753154D01*
X3751440Y2449426D01*
X3750297Y2448284D01*
Y2447141D01*
X3750869Y2445998D01*
X3751440Y2445427D01*
X3752582Y2444856D01*
X3756010Y2443713D01*
X3757153Y2443142D01*
X3757724Y2442570D01*
X3758296Y2441428D01*
Y2439714D01*
X3757153Y2438571D01*
X3755439Y2438000D01*
X3753154D01*
X3751440Y2438571D01*
X3750297Y2439714D01*
X3612498Y2598283D02*
X3611356Y2599426D01*
X3609642Y2599997D01*
X3607356D01*
X3605642Y2599426D01*
X3604500Y2598283D01*
Y2597141D01*
X3605071Y2595998D01*
X3605642Y2595427D01*
X3606785Y2594856D01*
X3610213Y2593713D01*
X3611356Y2593142D01*
X3611927Y2592570D01*
X3612498Y2591428D01*
Y2589714D01*
X3611356Y2588571D01*
X3609642Y2588000D01*
X3607356D01*
X3605642Y2588571D01*
X3604500Y2589714D01*
X3618611Y2599997D02*
X3617469Y2599426D01*
X3616326Y2598283D01*
X3615755Y2597141D01*
X3615183Y2595427D01*
Y2592570D01*
X3615755Y2590857D01*
X3616326Y2589714D01*
X3617469Y2588571D01*
X3618611Y2588000D01*
X3620896D01*
X3622039Y2588571D01*
X3623181Y2589714D01*
X3623753Y2590857D01*
X3624324Y2592570D01*
Y2595427D01*
X3623753Y2597141D01*
X3623181Y2598283D01*
X3622039Y2599426D01*
X3620896Y2599997D01*
X3618611D01*
X3627124D02*
Y2588000D01*
X3633979D01*
X3635293Y2599997D02*
Y2588000D01*
Y2599997D02*
X3639292D01*
X3641006Y2599426D01*
X3642149Y2598283D01*
X3642720Y2597141D01*
X3643292Y2595427D01*
Y2592570D01*
X3642720Y2590857D01*
X3642149Y2589714D01*
X3641006Y2588571D01*
X3639292Y2588000D01*
X3635293D01*
X3653404Y2599997D02*
X3645977D01*
Y2588000D01*
X3653404D01*
X3645977Y2594284D02*
X3650547D01*
X3655403Y2599997D02*
Y2588000D01*
Y2599997D02*
X3660545D01*
X3662259Y2599426D01*
X3662830Y2598855D01*
X3663401Y2597712D01*
Y2596570D01*
X3662830Y2595427D01*
X3662259Y2594856D01*
X3660545Y2594284D01*
X3655403D01*
X3659402D02*
X3663401Y2588000D01*
X3666087Y2599997D02*
Y2588000D01*
Y2599997D02*
X3670657Y2588000D01*
X3675228Y2599997D02*
X3670657Y2588000D01*
X3675228Y2599997D02*
Y2588000D01*
X3687796D02*
X3683226Y2599997D01*
X3678655Y2588000D01*
X3680369Y2591999D02*
X3686082D01*
X3698594Y2598283D02*
X3697451Y2599426D01*
X3695738Y2599997D01*
X3693452D01*
X3691738Y2599426D01*
X3690596Y2598283D01*
Y2597141D01*
X3691167Y2595998D01*
X3691738Y2595427D01*
X3692881Y2594856D01*
X3696309Y2593713D01*
X3697451Y2593142D01*
X3698023Y2592570D01*
X3698594Y2591428D01*
Y2589714D01*
X3697451Y2588571D01*
X3695738Y2588000D01*
X3693452D01*
X3691738Y2588571D01*
X3690596Y2589714D01*
X3701279Y2599997D02*
Y2588000D01*
X3709277Y2599997D02*
X3701279Y2591999D01*
X3704136Y2594856D02*
X3709277Y2588000D01*
X3711963Y2597141D02*
Y2597712D01*
X3712534Y2598855D01*
X3713105Y2599426D01*
X3714248Y2599997D01*
X3716533D01*
X3717675Y2599426D01*
X3718247Y2598855D01*
X3718818Y2597712D01*
Y2596570D01*
X3718247Y2595427D01*
X3717675Y2594856D01*
X3715390Y2593713D01*
Y2591999D01*
Y2589142D02*
X3714819Y2588571D01*
X3715390Y2588000D01*
X3715962Y2588571D01*
X3715390Y2589142D01*
X3612498Y2573283D02*
X3611356Y2574426D01*
X3609642Y2574997D01*
X3607356D01*
X3605642Y2574426D01*
X3604500Y2573283D01*
Y2572141D01*
X3605071Y2570998D01*
X3605642Y2570427D01*
X3606785Y2569856D01*
X3610213Y2568713D01*
X3611356Y2568142D01*
X3611927Y2567570D01*
X3612498Y2566428D01*
Y2564714D01*
X3611356Y2563571D01*
X3609642Y2563000D01*
X3607356D01*
X3605642Y2563571D01*
X3604500Y2564714D01*
X3618611Y2574997D02*
X3617469Y2574426D01*
X3616326Y2573283D01*
X3615755Y2572141D01*
X3615183Y2570427D01*
Y2567570D01*
X3615755Y2565857D01*
X3616326Y2564714D01*
X3617469Y2563571D01*
X3618611Y2563000D01*
X3620896D01*
X3622039Y2563571D01*
X3623181Y2564714D01*
X3623753Y2565857D01*
X3624324Y2567570D01*
Y2570427D01*
X3623753Y2572141D01*
X3623181Y2573283D01*
X3622039Y2574426D01*
X3620896Y2574997D01*
X3618611D01*
X3627124D02*
Y2563000D01*
X3633979D01*
X3635293Y2574997D02*
Y2563000D01*
Y2574997D02*
X3639292D01*
X3641006Y2574426D01*
X3642149Y2573283D01*
X3642720Y2572141D01*
X3643292Y2570427D01*
Y2567570D01*
X3642720Y2565857D01*
X3642149Y2564714D01*
X3641006Y2563571D01*
X3639292Y2563000D01*
X3635293D01*
X3653404Y2574997D02*
X3645977D01*
Y2563000D01*
X3653404D01*
X3645977Y2569284D02*
X3650547D01*
X3655403Y2574997D02*
Y2563000D01*
Y2574997D02*
X3660545D01*
X3662259Y2574426D01*
X3662830Y2573855D01*
X3663401Y2572712D01*
Y2571570D01*
X3662830Y2570427D01*
X3662259Y2569856D01*
X3660545Y2569284D01*
X3655403D01*
X3659402D02*
X3663401Y2563000D01*
X3666087Y2574997D02*
Y2563000D01*
Y2574997D02*
X3670657Y2563000D01*
X3675228Y2574997D02*
X3670657Y2563000D01*
X3675228Y2574997D02*
Y2563000D01*
X3687796D02*
X3683226Y2574997D01*
X3678655Y2563000D01*
X3680369Y2566999D02*
X3686082D01*
X3698594Y2573283D02*
X3697451Y2574426D01*
X3695738Y2574997D01*
X3693452D01*
X3691738Y2574426D01*
X3690596Y2573283D01*
Y2572141D01*
X3691167Y2570998D01*
X3691738Y2570427D01*
X3692881Y2569856D01*
X3696309Y2568713D01*
X3697451Y2568142D01*
X3698023Y2567570D01*
X3698594Y2566428D01*
Y2564714D01*
X3697451Y2563571D01*
X3695738Y2563000D01*
X3693452D01*
X3691738Y2563571D01*
X3690596Y2564714D01*
X3701279Y2574997D02*
Y2563000D01*
X3709277Y2574997D02*
X3701279Y2566999D01*
X3704136Y2569856D02*
X3709277Y2563000D01*
X3729959Y2572141D02*
X3729388Y2573283D01*
X3728245Y2574426D01*
X3727102Y2574997D01*
X3724817D01*
X3723674Y2574426D01*
X3722532Y2573283D01*
X3721960Y2572141D01*
X3721389Y2570427D01*
Y2567570D01*
X3721960Y2565857D01*
X3722532Y2564714D01*
X3723674Y2563571D01*
X3724817Y2563000D01*
X3727102D01*
X3728245Y2563571D01*
X3729388Y2564714D01*
X3729959Y2565857D01*
X3736757Y2574997D02*
X3735615Y2574426D01*
X3734472Y2573283D01*
X3733901Y2572141D01*
X3733329Y2570427D01*
Y2567570D01*
X3733901Y2565857D01*
X3734472Y2564714D01*
X3735615Y2563571D01*
X3736757Y2563000D01*
X3739042D01*
X3740185Y2563571D01*
X3741328Y2564714D01*
X3741899Y2565857D01*
X3742470Y2567570D01*
Y2570427D01*
X3741899Y2572141D01*
X3741328Y2573283D01*
X3740185Y2574426D01*
X3739042Y2574997D01*
X3736757D01*
X3745270D02*
Y2563000D01*
X3752126D01*
X3756867Y2574997D02*
X3755724Y2574426D01*
X3754582Y2573283D01*
X3754011Y2572141D01*
X3753439Y2570427D01*
Y2567570D01*
X3754011Y2565857D01*
X3754582Y2564714D01*
X3755724Y2563571D01*
X3756867Y2563000D01*
X3759153D01*
X3760295Y2563571D01*
X3761438Y2564714D01*
X3762009Y2565857D01*
X3762580Y2567570D01*
Y2570427D01*
X3762009Y2572141D01*
X3761438Y2573283D01*
X3760295Y2574426D01*
X3759153Y2574997D01*
X3756867D01*
X3765380D02*
Y2566428D01*
X3765951Y2564714D01*
X3767094Y2563571D01*
X3768807Y2563000D01*
X3769950D01*
X3771664Y2563571D01*
X3772807Y2564714D01*
X3773378Y2566428D01*
Y2574997D01*
X3776692D02*
Y2563000D01*
Y2574997D02*
X3781833D01*
X3783547Y2574426D01*
X3784119Y2573855D01*
X3784690Y2572712D01*
Y2571570D01*
X3784119Y2570427D01*
X3783547Y2569856D01*
X3781833Y2569284D01*
X3776692D01*
X3780691D02*
X3784690Y2563000D01*
X3612498Y2548284D02*
X3611356Y2549426D01*
X3609642Y2549997D01*
X3607356D01*
X3605642Y2549426D01*
X3604500Y2548284D01*
Y2547141D01*
X3605071Y2545998D01*
X3605642Y2545427D01*
X3606785Y2544856D01*
X3610213Y2543713D01*
X3611356Y2543142D01*
X3611927Y2542570D01*
X3612498Y2541428D01*
Y2539714D01*
X3611356Y2538571D01*
X3609642Y2538000D01*
X3607356D01*
X3605642Y2538571D01*
X3604500Y2539714D01*
X3615183Y2549997D02*
Y2538000D01*
X3617697Y2549997D02*
Y2538000D01*
X3624553D01*
X3625867Y2549997D02*
Y2538000D01*
X3633865Y2549997D02*
X3625867Y2541999D01*
X3628723Y2544856D02*
X3633865Y2538000D01*
X3644548Y2548284D02*
X3643406Y2549426D01*
X3641692Y2549997D01*
X3639407D01*
X3637693Y2549426D01*
X3636550Y2548284D01*
Y2547141D01*
X3637121Y2545998D01*
X3637693Y2545427D01*
X3638835Y2544856D01*
X3642263Y2543713D01*
X3643406Y2543142D01*
X3643977Y2542570D01*
X3644548Y2541428D01*
Y2539714D01*
X3643406Y2538571D01*
X3641692Y2538000D01*
X3639407D01*
X3637693Y2538571D01*
X3636550Y2539714D01*
X3655803Y2547141D02*
X3655232Y2548284D01*
X3654089Y2549426D01*
X3652946Y2549997D01*
X3650661D01*
X3649519Y2549426D01*
X3648376Y2548284D01*
X3647805Y2547141D01*
X3647234Y2545427D01*
Y2542570D01*
X3647805Y2540856D01*
X3648376Y2539714D01*
X3649519Y2538571D01*
X3650661Y2538000D01*
X3652946D01*
X3654089Y2538571D01*
X3655232Y2539714D01*
X3655803Y2540856D01*
X3659174Y2549997D02*
Y2538000D01*
Y2549997D02*
X3664315D01*
X3666029Y2549426D01*
X3666601Y2548855D01*
X3667172Y2547712D01*
Y2546570D01*
X3666601Y2545427D01*
X3666029Y2544856D01*
X3664315Y2544284D01*
X3659174D01*
X3663173D02*
X3667172Y2538000D01*
X3677284Y2549997D02*
X3669857D01*
Y2538000D01*
X3677284D01*
X3669857Y2544284D02*
X3674428D01*
X3686711Y2549997D02*
X3679284D01*
Y2538000D01*
X3686711D01*
X3679284Y2544284D02*
X3683854D01*
X3688710Y2549997D02*
Y2538000D01*
Y2549997D02*
X3696709Y2538000D01*
Y2549997D02*
Y2538000D01*
X3700022Y2547141D02*
Y2547712D01*
X3700594Y2548855D01*
X3701165Y2549426D01*
X3702307Y2549997D01*
X3704593D01*
X3705735Y2549426D01*
X3706306Y2548855D01*
X3706878Y2547712D01*
Y2546570D01*
X3706306Y2545427D01*
X3705735Y2544856D01*
X3703450Y2543713D01*
Y2541999D01*
Y2539143D02*
X3702879Y2538571D01*
X3703450Y2538000D01*
X3704021Y2538571D01*
X3703450Y2539143D01*
X3612498Y2523284D02*
X3611356Y2524426D01*
X3609642Y2524997D01*
X3607356D01*
X3605642Y2524426D01*
X3604500Y2523284D01*
Y2522141D01*
X3605071Y2520998D01*
X3605642Y2520427D01*
X3606785Y2519856D01*
X3610213Y2518713D01*
X3611356Y2518142D01*
X3611927Y2517570D01*
X3612498Y2516428D01*
Y2514714D01*
X3611356Y2513571D01*
X3609642Y2513000D01*
X3607356D01*
X3605642Y2513571D01*
X3604500Y2514714D01*
X3615183Y2524997D02*
Y2513000D01*
X3617697Y2524997D02*
Y2513000D01*
X3624553D01*
X3625867Y2524997D02*
Y2513000D01*
X3633865Y2524997D02*
X3625867Y2516999D01*
X3628723Y2519856D02*
X3633865Y2513000D01*
X3644548Y2523284D02*
X3643406Y2524426D01*
X3641692Y2524997D01*
X3639407D01*
X3637693Y2524426D01*
X3636550Y2523284D01*
Y2522141D01*
X3637121Y2520998D01*
X3637693Y2520427D01*
X3638835Y2519856D01*
X3642263Y2518713D01*
X3643406Y2518142D01*
X3643977Y2517570D01*
X3644548Y2516428D01*
Y2514714D01*
X3643406Y2513571D01*
X3641692Y2513000D01*
X3639407D01*
X3637693Y2513571D01*
X3636550Y2514714D01*
X3655803Y2522141D02*
X3655232Y2523284D01*
X3654089Y2524426D01*
X3652946Y2524997D01*
X3650661D01*
X3649519Y2524426D01*
X3648376Y2523284D01*
X3647805Y2522141D01*
X3647234Y2520427D01*
Y2517570D01*
X3647805Y2515856D01*
X3648376Y2514714D01*
X3649519Y2513571D01*
X3650661Y2513000D01*
X3652946D01*
X3654089Y2513571D01*
X3655232Y2514714D01*
X3655803Y2515856D01*
X3659174Y2524997D02*
Y2513000D01*
Y2524997D02*
X3664315D01*
X3666029Y2524426D01*
X3666601Y2523855D01*
X3667172Y2522712D01*
Y2521570D01*
X3666601Y2520427D01*
X3666029Y2519856D01*
X3664315Y2519284D01*
X3659174D01*
X3663173D02*
X3667172Y2513000D01*
X3677284Y2524997D02*
X3669857D01*
Y2513000D01*
X3677284D01*
X3669857Y2519284D02*
X3674428D01*
X3686711Y2524997D02*
X3679284D01*
Y2513000D01*
X3686711D01*
X3679284Y2519284D02*
X3683854D01*
X3688710Y2524997D02*
Y2513000D01*
Y2524997D02*
X3696709Y2513000D01*
Y2524997D02*
Y2513000D01*
X3718018Y2522141D02*
X3717447Y2523284D01*
X3716305Y2524426D01*
X3715162Y2524997D01*
X3712877D01*
X3711734Y2524426D01*
X3710591Y2523284D01*
X3710020Y2522141D01*
X3709449Y2520427D01*
Y2517570D01*
X3710020Y2515856D01*
X3710591Y2514714D01*
X3711734Y2513571D01*
X3712877Y2513000D01*
X3715162D01*
X3716305Y2513571D01*
X3717447Y2514714D01*
X3718018Y2515856D01*
X3724817Y2524997D02*
X3723674Y2524426D01*
X3722532Y2523284D01*
X3721960Y2522141D01*
X3721389Y2520427D01*
Y2517570D01*
X3721960Y2515856D01*
X3722532Y2514714D01*
X3723674Y2513571D01*
X3724817Y2513000D01*
X3727102D01*
X3728245Y2513571D01*
X3729388Y2514714D01*
X3729959Y2515856D01*
X3730530Y2517570D01*
Y2520427D01*
X3729959Y2522141D01*
X3729388Y2523284D01*
X3728245Y2524426D01*
X3727102Y2524997D01*
X3724817D01*
X3733329D02*
Y2513000D01*
X3740185D01*
X3744927Y2524997D02*
X3743784Y2524426D01*
X3742642Y2523284D01*
X3742070Y2522141D01*
X3741499Y2520427D01*
Y2517570D01*
X3742070Y2515856D01*
X3742642Y2514714D01*
X3743784Y2513571D01*
X3744927Y2513000D01*
X3747212D01*
X3748355Y2513571D01*
X3749497Y2514714D01*
X3750069Y2515856D01*
X3750640Y2517570D01*
Y2520427D01*
X3750069Y2522141D01*
X3749497Y2523284D01*
X3748355Y2524426D01*
X3747212Y2524997D01*
X3744927D01*
X3753439D02*
Y2516428D01*
X3754011Y2514714D01*
X3755153Y2513571D01*
X3756867Y2513000D01*
X3758010D01*
X3759724Y2513571D01*
X3760866Y2514714D01*
X3761438Y2516428D01*
Y2524997D01*
X3764751D02*
Y2513000D01*
Y2524997D02*
X3769893D01*
X3771607Y2524426D01*
X3772178Y2523855D01*
X3772750Y2522712D01*
Y2521570D01*
X3772178Y2520427D01*
X3771607Y2519856D01*
X3769893Y2519284D01*
X3764751D01*
X3768750D02*
X3772750Y2513000D01*
X3604500Y2493713D02*
X3609642D01*
X3611356Y2494284D01*
X3611927Y2494856D01*
X3612498Y2495998D01*
Y2497712D01*
X3611927Y2498855D01*
X3611356Y2499426D01*
X3609642Y2499997D01*
X3604500D01*
Y2488000D01*
X3624324D02*
X3619754Y2499997D01*
X3615183Y2488000D01*
X3616897Y2491999D02*
X3622610D01*
X3627124Y2499997D02*
Y2488000D01*
Y2499997D02*
X3635122Y2488000D01*
Y2499997D02*
Y2488000D01*
X3645862Y2499997D02*
X3638435D01*
Y2488000D01*
X3645862D01*
X3638435Y2494284D02*
X3643006D01*
X3647862Y2499997D02*
Y2488000D01*
X3654718D01*
X3656032Y2499997D02*
Y2488000D01*
X3666544Y2498284D02*
X3665401Y2499426D01*
X3663687Y2499997D01*
X3661402D01*
X3659688Y2499426D01*
X3658546Y2498284D01*
Y2497141D01*
X3659117Y2495998D01*
X3659688Y2495427D01*
X3660831Y2494856D01*
X3664258Y2493713D01*
X3665401Y2493142D01*
X3665972Y2492570D01*
X3666544Y2491428D01*
Y2489714D01*
X3665401Y2488571D01*
X3663687Y2488000D01*
X3661402D01*
X3659688Y2488571D01*
X3658546Y2489714D01*
X3678370Y2488000D02*
X3673799Y2499997D01*
X3669229Y2488000D01*
X3670943Y2491999D02*
X3676656D01*
X3685168Y2499997D02*
Y2488000D01*
X3681169Y2499997D02*
X3689167D01*
X3690596D02*
Y2488000D01*
X3696537Y2499997D02*
X3695395Y2499426D01*
X3694252Y2498284D01*
X3693681Y2497141D01*
X3693109Y2495427D01*
Y2492570D01*
X3693681Y2490856D01*
X3694252Y2489714D01*
X3695395Y2488571D01*
X3696537Y2488000D01*
X3698823D01*
X3699965Y2488571D01*
X3701108Y2489714D01*
X3701679Y2490856D01*
X3702250Y2492570D01*
Y2495427D01*
X3701679Y2497141D01*
X3701108Y2498284D01*
X3699965Y2499426D01*
X3698823Y2499997D01*
X3696537D01*
X3705050D02*
Y2488000D01*
Y2499997D02*
X3713048Y2488000D01*
Y2499997D02*
Y2488000D01*
X3725788Y2499997D02*
Y2488000D01*
Y2499997D02*
X3730930D01*
X3732644Y2499426D01*
X3733215Y2498855D01*
X3733787Y2497712D01*
Y2496570D01*
X3733215Y2495427D01*
X3732644Y2494856D01*
X3730930Y2494284D01*
X3725788D01*
X3729787D02*
X3733787Y2488000D01*
X3743899Y2499997D02*
X3736472D01*
Y2488000D01*
X3743899D01*
X3736472Y2494284D02*
X3741042D01*
X3749326Y2499997D02*
X3748183Y2499426D01*
X3747041Y2498284D01*
X3746469Y2497141D01*
X3745898Y2495427D01*
Y2492570D01*
X3746469Y2490856D01*
X3747041Y2489714D01*
X3748183Y2488571D01*
X3749326Y2488000D01*
X3751611D01*
X3752754Y2488571D01*
X3753896Y2489714D01*
X3754468Y2490856D01*
X3755039Y2492570D01*
Y2495427D01*
X3754468Y2497141D01*
X3753896Y2498284D01*
X3752754Y2499426D01*
X3751611Y2499997D01*
X3749326D01*
X3751040Y2490285D02*
X3754468Y2486857D01*
X3757838Y2499997D02*
Y2491428D01*
X3758410Y2489714D01*
X3759552Y2488571D01*
X3761266Y2488000D01*
X3762409D01*
X3764123Y2488571D01*
X3765266Y2489714D01*
X3765837Y2491428D01*
Y2499997D01*
X3769150D02*
Y2488000D01*
X3771664Y2499997D02*
Y2488000D01*
Y2499997D02*
X3776806D01*
X3778520Y2499426D01*
X3779091Y2498855D01*
X3779662Y2497712D01*
Y2496570D01*
X3779091Y2495427D01*
X3778520Y2494856D01*
X3776806Y2494284D01*
X3771664D01*
X3775663D02*
X3779662Y2488000D01*
X3789774Y2499997D02*
X3782347D01*
Y2488000D01*
X3789774D01*
X3782347Y2494284D02*
X3786918D01*
X3791774Y2499997D02*
Y2488000D01*
Y2499997D02*
X3795773D01*
X3797487Y2499426D01*
X3798630Y2498284D01*
X3799201Y2497141D01*
X3799772Y2495427D01*
Y2492570D01*
X3799201Y2490856D01*
X3798630Y2489714D01*
X3797487Y2488571D01*
X3795773Y2488000D01*
X3791774D01*
X3802457Y2497141D02*
Y2497712D01*
X3803029Y2498855D01*
X3803600Y2499426D01*
X3804743Y2499997D01*
X3807028D01*
X3808170Y2499426D01*
X3808742Y2498855D01*
X3809313Y2497712D01*
Y2496570D01*
X3808742Y2495427D01*
X3808170Y2494856D01*
X3805885Y2493713D01*
Y2491999D01*
Y2489143D02*
X3805314Y2488571D01*
X3805885Y2488000D01*
X3806457Y2488571D01*
X3805885Y2489143D01*
X3611927Y2474997D02*
X3604500D01*
Y2463000D01*
X3611927D01*
X3604500Y2469284D02*
X3609070D01*
X3613926Y2468142D02*
X3624210D01*
X3631751Y2474997D02*
Y2463000D01*
X3627752Y2474997D02*
X3635750D01*
X3644606D02*
X3637179D01*
Y2463000D01*
X3644606D01*
X3637179Y2469284D02*
X3641749D01*
X3654603Y2473284D02*
X3653461Y2474426D01*
X3651747Y2474997D01*
X3649462D01*
X3647748Y2474426D01*
X3646605Y2473284D01*
Y2472141D01*
X3647177Y2470998D01*
X3647748Y2470427D01*
X3648890Y2469856D01*
X3652318Y2468713D01*
X3653461Y2468142D01*
X3654032Y2467570D01*
X3654603Y2466428D01*
Y2464714D01*
X3653461Y2463571D01*
X3651747Y2463000D01*
X3649462D01*
X3647748Y2463571D01*
X3646605Y2464714D01*
X3661288Y2474997D02*
Y2463000D01*
X3657289Y2474997D02*
X3665287D01*
X3676142D02*
Y2463000D01*
Y2474997D02*
X3681283D01*
X3682997Y2474426D01*
X3683569Y2473855D01*
X3684140Y2472712D01*
Y2471570D01*
X3683569Y2470427D01*
X3682997Y2469856D01*
X3681283Y2469284D01*
X3676142D01*
X3680141D02*
X3684140Y2463000D01*
X3694252Y2474997D02*
X3686825D01*
Y2463000D01*
X3694252D01*
X3686825Y2469284D02*
X3691396D01*
X3699679Y2474997D02*
X3698537Y2474426D01*
X3697394Y2473284D01*
X3696823Y2472141D01*
X3696252Y2470427D01*
Y2467570D01*
X3696823Y2465856D01*
X3697394Y2464714D01*
X3698537Y2463571D01*
X3699679Y2463000D01*
X3701965D01*
X3703107Y2463571D01*
X3704250Y2464714D01*
X3704821Y2465856D01*
X3705392Y2467570D01*
Y2470427D01*
X3704821Y2472141D01*
X3704250Y2473284D01*
X3703107Y2474426D01*
X3701965Y2474997D01*
X3699679D01*
X3701393Y2465285D02*
X3704821Y2461857D01*
X3708192Y2474997D02*
Y2466428D01*
X3708763Y2464714D01*
X3709906Y2463571D01*
X3711620Y2463000D01*
X3712762D01*
X3714476Y2463571D01*
X3715619Y2464714D01*
X3716190Y2466428D01*
Y2474997D01*
X3719504D02*
Y2463000D01*
X3722018Y2474997D02*
Y2463000D01*
Y2474997D02*
X3727159D01*
X3728873Y2474426D01*
X3729445Y2473855D01*
X3730016Y2472712D01*
Y2471570D01*
X3729445Y2470427D01*
X3728873Y2469856D01*
X3727159Y2469284D01*
X3722018D01*
X3726017D02*
X3730016Y2463000D01*
X3740128Y2474997D02*
X3732701D01*
Y2463000D01*
X3740128D01*
X3732701Y2469284D02*
X3737271D01*
X3742127Y2474997D02*
Y2463000D01*
Y2474997D02*
X3746127D01*
X3747841Y2474426D01*
X3748983Y2473284D01*
X3749554Y2472141D01*
X3750126Y2470427D01*
Y2467570D01*
X3749554Y2465856D01*
X3748983Y2464714D01*
X3747841Y2463571D01*
X3746127Y2463000D01*
X3742127D01*
X3752811Y2472141D02*
Y2472712D01*
X3753382Y2473855D01*
X3753954Y2474426D01*
X3755096Y2474997D01*
X3757381D01*
X3758524Y2474426D01*
X3759095Y2473855D01*
X3759667Y2472712D01*
Y2471570D01*
X3759095Y2470427D01*
X3758524Y2469856D01*
X3756239Y2468713D01*
Y2466999D01*
Y2464143D02*
X3755667Y2463571D01*
X3756239Y2463000D01*
X3756810Y2463571D01*
X3756239Y2464143D01*
X3899500Y2474997D02*
X3904070Y2469284D01*
Y2463000D01*
X3908641Y2474997D02*
X3904070Y2469284D01*
X3917610Y2474997D02*
X3910183D01*
Y2463000D01*
X3917610D01*
X3910183Y2469284D02*
X3914754D01*
X3927608Y2473284D02*
X3926465Y2474426D01*
X3924752Y2474997D01*
X3922466D01*
X3920753Y2474426D01*
X3919610Y2473284D01*
Y2472141D01*
X3920181Y2470998D01*
X3920753Y2470427D01*
X3921895Y2469856D01*
X3925323Y2468713D01*
X3926465Y2468142D01*
X3927037Y2467570D01*
X3927608Y2466428D01*
Y2464714D01*
X3926465Y2463571D01*
X3924752Y2463000D01*
X3922466D01*
X3920753Y2463571D01*
X3919610Y2464714D01*
X3899500Y2499997D02*
Y2488000D01*
Y2499997D02*
X3907498Y2488000D01*
Y2499997D02*
Y2488000D01*
X3914240Y2499997D02*
X3913097Y2499426D01*
X3911954Y2498284D01*
X3911383Y2497141D01*
X3910812Y2495427D01*
Y2492570D01*
X3911383Y2490856D01*
X3911954Y2489714D01*
X3913097Y2488571D01*
X3914240Y2488000D01*
X3916525D01*
X3917668Y2488571D01*
X3918810Y2489714D01*
X3919381Y2490856D01*
X3919953Y2492570D01*
Y2495427D01*
X3919381Y2497141D01*
X3918810Y2498284D01*
X3917668Y2499426D01*
X3916525Y2499997D01*
X3914240D01*
X3899500Y2524997D02*
X3902356Y2513000D01*
X3905213Y2524997D02*
X3902356Y2513000D01*
X3905213Y2524997D02*
X3908069Y2513000D01*
X3910926Y2524997D02*
X3908069Y2513000D01*
X3913326Y2524997D02*
Y2513000D01*
X3921324Y2524997D02*
Y2513000D01*
X3913326Y2519284D02*
X3921324D01*
X3924637Y2524997D02*
Y2513000D01*
X3931150Y2524997D02*
Y2513000D01*
X3927151Y2524997D02*
X3935150D01*
X3944005D02*
X3936577D01*
Y2513000D01*
X3944005D01*
X3936577Y2519284D02*
X3941148D01*
X3899500Y2549997D02*
X3904070Y2544284D01*
Y2538000D01*
X3908641Y2549997D02*
X3904070Y2544284D01*
X3917610Y2549997D02*
X3910183D01*
Y2538000D01*
X3917610D01*
X3910183Y2544284D02*
X3914754D01*
X3927608Y2548284D02*
X3926465Y2549426D01*
X3924752Y2549997D01*
X3922466D01*
X3920753Y2549426D01*
X3919610Y2548284D01*
Y2547141D01*
X3920181Y2545998D01*
X3920753Y2545427D01*
X3921895Y2544856D01*
X3925323Y2543713D01*
X3926465Y2543142D01*
X3927037Y2542570D01*
X3927608Y2541428D01*
Y2539714D01*
X3926465Y2538571D01*
X3924752Y2538000D01*
X3922466D01*
X3920753Y2538571D01*
X3919610Y2539714D01*
X3899500Y2574997D02*
Y2563000D01*
Y2574997D02*
X3904642D01*
X3906356Y2574426D01*
X3906927Y2573855D01*
X3907498Y2572712D01*
Y2571570D01*
X3906927Y2570427D01*
X3906356Y2569856D01*
X3904642Y2569284D01*
X3899500D02*
X3904642D01*
X3906356Y2568713D01*
X3906927Y2568142D01*
X3907498Y2566999D01*
Y2565285D01*
X3906927Y2564142D01*
X3906356Y2563571D01*
X3904642Y2563000D01*
X3899500D01*
X3910183Y2574997D02*
Y2563000D01*
X3917039D01*
X3927494D02*
X3922923Y2574997D01*
X3918353Y2563000D01*
X3920067Y2566999D02*
X3925780D01*
X3938863Y2572141D02*
X3938292Y2573283D01*
X3937149Y2574426D01*
X3936006Y2574997D01*
X3933721D01*
X3932578Y2574426D01*
X3931436Y2573283D01*
X3930865Y2572141D01*
X3930293Y2570427D01*
Y2567570D01*
X3930865Y2565857D01*
X3931436Y2564714D01*
X3932578Y2563571D01*
X3933721Y2563000D01*
X3936006D01*
X3937149Y2563571D01*
X3938292Y2564714D01*
X3938863Y2565857D01*
X3942234Y2574997D02*
Y2563000D01*
X3950232Y2574997D02*
X3942234Y2566999D01*
X3945090Y2569856D02*
X3950232Y2563000D01*
X3899500Y2599997D02*
X3904070Y2594284D01*
Y2588000D01*
X3908641Y2599997D02*
X3904070Y2594284D01*
X3917610Y2599997D02*
X3910183D01*
Y2588000D01*
X3917610D01*
X3910183Y2594284D02*
X3914754D01*
X3927608Y2598283D02*
X3926465Y2599426D01*
X3924752Y2599997D01*
X3922466D01*
X3920753Y2599426D01*
X3919610Y2598283D01*
Y2597141D01*
X3920181Y2595998D01*
X3920753Y2595427D01*
X3921895Y2594856D01*
X3925323Y2593713D01*
X3926465Y2593142D01*
X3927037Y2592570D01*
X3927608Y2591428D01*
Y2589714D01*
X3926465Y2588571D01*
X3924752Y2588000D01*
X3922466D01*
X3920753Y2588571D01*
X3919610Y2589714D01*
X3899500Y2649997D02*
Y2638000D01*
X3902014Y2643713D02*
X3907155D01*
X3908869Y2644284D01*
X3909441Y2644856D01*
X3910012Y2645998D01*
Y2647712D01*
X3909441Y2648855D01*
X3908869Y2649426D01*
X3907155Y2649997D01*
X3902014D01*
Y2638000D01*
X3921267Y2647141D02*
X3920695Y2648283D01*
X3919553Y2649426D01*
X3918410Y2649997D01*
X3916125D01*
X3914982Y2649426D01*
X3913840Y2648283D01*
X3913268Y2647141D01*
X3912697Y2645427D01*
Y2642570D01*
X3913268Y2640857D01*
X3913840Y2639714D01*
X3914982Y2638571D01*
X3916125Y2638000D01*
X3918410D01*
X3919553Y2638571D01*
X3920695Y2639714D01*
X3921267Y2640857D01*
X3924637Y2643142D02*
X3934921D01*
X3944176Y2649997D02*
X3938463Y2641999D01*
X3947032D01*
X3944176Y2649997D02*
Y2638000D01*
X3956002Y2649997D02*
X3950289D01*
X3949718Y2644856D01*
X3950289Y2645427D01*
X3952003Y2645998D01*
X3953717D01*
X3955431Y2645427D01*
X3956573Y2644284D01*
X3957145Y2642570D01*
Y2641428D01*
X3956573Y2639714D01*
X3955431Y2638571D01*
X3953717Y2638000D01*
X3952003D01*
X3950289Y2638571D01*
X3949718Y2639142D01*
X3949146Y2640285D01*
X3966685Y2649997D02*
X3960972D01*
X3960401Y2644856D01*
X3960972Y2645427D01*
X3962686Y2645998D01*
X3964400D01*
X3966114Y2645427D01*
X3967257Y2644284D01*
X3967828Y2642570D01*
Y2641428D01*
X3967257Y2639714D01*
X3966114Y2638571D01*
X3964400Y2638000D01*
X3962686D01*
X3960972Y2638571D01*
X3960401Y2639142D01*
X3959830Y2640285D01*
X3971085Y2647141D02*
Y2647712D01*
X3971656Y2648855D01*
X3972227Y2649426D01*
X3973370Y2649997D01*
X3975655D01*
X3976797Y2649426D01*
X3977369Y2648855D01*
X3977940Y2647712D01*
Y2646570D01*
X3977369Y2645427D01*
X3976226Y2643713D01*
X3970513Y2638000D01*
X3978511D01*
X3990338D02*
X3985767Y2649997D01*
X3981197Y2638000D01*
X3982910Y2641999D02*
X3988624D01*
X3899500Y2624997D02*
Y2613000D01*
X3902014Y2618713D02*
X3907155D01*
X3908869Y2619284D01*
X3909441Y2619856D01*
X3910012Y2620998D01*
Y2622712D01*
X3909441Y2623855D01*
X3908869Y2624426D01*
X3907155Y2624997D01*
X3902014D01*
Y2613000D01*
X3921267Y2622141D02*
X3920695Y2623283D01*
X3919553Y2624426D01*
X3918410Y2624997D01*
X3916125D01*
X3914982Y2624426D01*
X3913840Y2623283D01*
X3913268Y2622141D01*
X3912697Y2620427D01*
Y2617570D01*
X3913268Y2615857D01*
X3913840Y2614714D01*
X3914982Y2613571D01*
X3916125Y2613000D01*
X3918410D01*
X3919553Y2613571D01*
X3920695Y2614714D01*
X3921267Y2615857D01*
X3924637Y2618142D02*
X3934921D01*
X3944176Y2624997D02*
X3938463Y2616999D01*
X3947032D01*
X3944176Y2624997D02*
Y2613000D01*
X3956002Y2624997D02*
X3950289D01*
X3949718Y2619856D01*
X3950289Y2620427D01*
X3952003Y2620998D01*
X3953717D01*
X3955431Y2620427D01*
X3956573Y2619284D01*
X3957145Y2617570D01*
Y2616428D01*
X3956573Y2614714D01*
X3955431Y2613571D01*
X3953717Y2613000D01*
X3952003D01*
X3950289Y2613571D01*
X3949718Y2614142D01*
X3949146Y2615285D01*
X3966685Y2624997D02*
X3960972D01*
X3960401Y2619856D01*
X3960972Y2620427D01*
X3962686Y2620998D01*
X3964400D01*
X3966114Y2620427D01*
X3967257Y2619284D01*
X3967828Y2617570D01*
Y2616428D01*
X3967257Y2614714D01*
X3966114Y2613571D01*
X3964400Y2613000D01*
X3962686D01*
X3960972Y2613571D01*
X3960401Y2614142D01*
X3959830Y2615285D01*
X3971085Y2622141D02*
Y2622712D01*
X3971656Y2623855D01*
X3972227Y2624426D01*
X3973370Y2624997D01*
X3975655D01*
X3976797Y2624426D01*
X3977369Y2623855D01*
X3977940Y2622712D01*
Y2621570D01*
X3977369Y2620427D01*
X3976226Y2618713D01*
X3970513Y2613000D01*
X3978511D01*
X3990338D02*
X3985767Y2624997D01*
X3981197Y2613000D01*
X3982910Y2616999D02*
X3988624D01*
X3613069Y2622141D02*
X3612498Y2623283D01*
X3611356Y2624426D01*
X3610213Y2624997D01*
X3607928D01*
X3606785Y2624426D01*
X3605642Y2623283D01*
X3605071Y2622141D01*
X3604500Y2620427D01*
Y2617570D01*
X3605071Y2615857D01*
X3605642Y2614714D01*
X3606785Y2613571D01*
X3607928Y2613000D01*
X3610213D01*
X3611356Y2613571D01*
X3612498Y2614714D01*
X3613069Y2615857D01*
Y2617570D01*
X3610213D02*
X3613069D01*
X3619240Y2624997D02*
X3618097Y2624426D01*
X3616954Y2623283D01*
X3616383Y2622141D01*
X3615812Y2620427D01*
Y2617570D01*
X3616383Y2615857D01*
X3616954Y2614714D01*
X3618097Y2613571D01*
X3619240Y2613000D01*
X3621525D01*
X3622668Y2613571D01*
X3623810Y2614714D01*
X3624381Y2615857D01*
X3624953Y2617570D01*
Y2620427D01*
X3624381Y2622141D01*
X3623810Y2623283D01*
X3622668Y2624426D01*
X3621525Y2624997D01*
X3619240D01*
X3627752D02*
Y2613000D01*
X3634608D01*
X3635922Y2624997D02*
Y2613000D01*
Y2624997D02*
X3639921D01*
X3641635Y2624426D01*
X3642777Y2623283D01*
X3643349Y2622141D01*
X3643920Y2620427D01*
Y2617570D01*
X3643349Y2615857D01*
X3642777Y2614714D01*
X3641635Y2613571D01*
X3639921Y2613000D01*
X3635922D01*
X3656032Y2618713D02*
X3661173D01*
X3662887Y2619284D01*
X3663459Y2619856D01*
X3664030Y2620998D01*
Y2622712D01*
X3663459Y2623855D01*
X3662887Y2624426D01*
X3661173Y2624997D01*
X3656032D01*
Y2613000D01*
X3666715Y2624997D02*
Y2613000D01*
X3673571D01*
X3684026D02*
X3679455Y2624997D01*
X3674885Y2613000D01*
X3676599Y2616999D02*
X3682312D01*
X3690824Y2624997D02*
Y2613000D01*
X3686825Y2624997D02*
X3694823D01*
X3696252D02*
Y2613000D01*
X3698765Y2624997D02*
Y2613000D01*
Y2624997D02*
X3706764Y2613000D01*
Y2624997D02*
Y2613000D01*
X3718647Y2622141D02*
X3718076Y2623283D01*
X3716933Y2624426D01*
X3715790Y2624997D01*
X3713505D01*
X3712362Y2624426D01*
X3711220Y2623283D01*
X3710648Y2622141D01*
X3710077Y2620427D01*
Y2617570D01*
X3710648Y2615857D01*
X3711220Y2614714D01*
X3712362Y2613571D01*
X3713505Y2613000D01*
X3715790D01*
X3716933Y2613571D01*
X3718076Y2614714D01*
X3718647Y2615857D01*
Y2617570D01*
X3715790D02*
X3718647D01*
X3734815Y2624997D02*
Y2613000D01*
X3730816Y2624997D02*
X3738814D01*
X3740242D02*
Y2613000D01*
X3748240Y2624997D02*
Y2613000D01*
X3740242Y2619284D02*
X3748240D01*
X3751554Y2624997D02*
Y2613000D01*
X3762637Y2622141D02*
X3762066Y2623283D01*
X3760923Y2624426D01*
X3759781Y2624997D01*
X3757496D01*
X3756353Y2624426D01*
X3755210Y2623283D01*
X3754639Y2622141D01*
X3754068Y2620427D01*
Y2617570D01*
X3754639Y2615857D01*
X3755210Y2614714D01*
X3756353Y2613571D01*
X3757496Y2613000D01*
X3759781D01*
X3760923Y2613571D01*
X3762066Y2614714D01*
X3762637Y2615857D01*
X3766008Y2624997D02*
Y2613000D01*
X3774006Y2624997D02*
X3766008Y2616999D01*
X3768865Y2619856D02*
X3774006Y2613000D01*
X3776692Y2624997D02*
Y2613000D01*
Y2624997D02*
X3784690Y2613000D01*
Y2624997D02*
Y2613000D01*
X3795430Y2624997D02*
X3788004D01*
Y2613000D01*
X3795430D01*
X3788004Y2619284D02*
X3792574D01*
X3805428Y2623283D02*
X3804286Y2624426D01*
X3802572Y2624997D01*
X3800287D01*
X3798573Y2624426D01*
X3797430Y2623283D01*
Y2622141D01*
X3798001Y2620998D01*
X3798573Y2620427D01*
X3799715Y2619856D01*
X3803143Y2618713D01*
X3804286Y2618142D01*
X3804857Y2617570D01*
X3805428Y2616428D01*
Y2614714D01*
X3804286Y2613571D01*
X3802572Y2613000D01*
X3800287D01*
X3798573Y2613571D01*
X3797430Y2614714D01*
X3816112Y2623283D02*
X3814969Y2624426D01*
X3813255Y2624997D01*
X3810970D01*
X3809256Y2624426D01*
X3808113Y2623283D01*
Y2622141D01*
X3808685Y2620998D01*
X3809256Y2620427D01*
X3810399Y2619856D01*
X3813827Y2618713D01*
X3814969Y2618142D01*
X3815540Y2617570D01*
X3816112Y2616428D01*
Y2614714D01*
X3814969Y2613571D01*
X3813255Y2613000D01*
X3810970D01*
X3809256Y2613571D01*
X3808113Y2614714D01*
X3604500Y2649997D02*
Y2638000D01*
Y2649997D02*
X3612498Y2638000D01*
Y2649997D02*
Y2638000D01*
X3615812Y2649997D02*
Y2638000D01*
X3626895Y2647141D02*
X3626324Y2648283D01*
X3625181Y2649426D01*
X3624038Y2649997D01*
X3621753D01*
X3620611Y2649426D01*
X3619468Y2648283D01*
X3618897Y2647141D01*
X3618326Y2645427D01*
Y2642570D01*
X3618897Y2640857D01*
X3619468Y2639714D01*
X3620611Y2638571D01*
X3621753Y2638000D01*
X3624038D01*
X3625181Y2638571D01*
X3626324Y2639714D01*
X3626895Y2640857D01*
X3630266Y2649997D02*
Y2638000D01*
X3638264Y2649997D02*
X3630266Y2641999D01*
X3633122Y2644856D02*
X3638264Y2638000D01*
X3648376Y2649997D02*
X3640949D01*
Y2638000D01*
X3648376D01*
X3640949Y2644284D02*
X3645520D01*
X3650376Y2649997D02*
Y2638000D01*
X3657231D01*
X3667972Y2643713D02*
X3673114D01*
X3674828Y2644284D01*
X3675399Y2644856D01*
X3675970Y2645998D01*
Y2647712D01*
X3675399Y2648855D01*
X3674828Y2649426D01*
X3673114Y2649997D01*
X3667972D01*
Y2638000D01*
X3678655Y2649997D02*
Y2638000D01*
X3685511D01*
X3695966D02*
X3691396Y2649997D01*
X3686825Y2638000D01*
X3688539Y2641999D02*
X3694252D01*
X3702765Y2649997D02*
Y2638000D01*
X3698765Y2649997D02*
X3706764D01*
X3708192D02*
Y2638000D01*
X3710706Y2649997D02*
Y2638000D01*
Y2649997D02*
X3718704Y2638000D01*
Y2649997D02*
Y2638000D01*
X3730587Y2647141D02*
X3730016Y2648283D01*
X3728873Y2649426D01*
X3727731Y2649997D01*
X3725445D01*
X3724303Y2649426D01*
X3723160Y2648283D01*
X3722589Y2647141D01*
X3722018Y2645427D01*
Y2642570D01*
X3722589Y2640857D01*
X3723160Y2639714D01*
X3724303Y2638571D01*
X3725445Y2638000D01*
X3727731D01*
X3728873Y2638571D01*
X3730016Y2639714D01*
X3730587Y2640857D01*
Y2642570D01*
X3727731D02*
X3730587D01*
X3746755Y2649997D02*
Y2638000D01*
X3742756Y2649997D02*
X3750754D01*
X3752183D02*
Y2638000D01*
X3760181Y2649997D02*
Y2638000D01*
X3752183Y2644284D02*
X3760181D01*
X3763494Y2649997D02*
Y2638000D01*
X3774578Y2647141D02*
X3774006Y2648283D01*
X3772864Y2649426D01*
X3771721Y2649997D01*
X3769436D01*
X3768293Y2649426D01*
X3767151Y2648283D01*
X3766579Y2647141D01*
X3766008Y2645427D01*
Y2642570D01*
X3766579Y2640857D01*
X3767151Y2639714D01*
X3768293Y2638571D01*
X3769436Y2638000D01*
X3771721D01*
X3772864Y2638571D01*
X3774006Y2639714D01*
X3774578Y2640857D01*
X3777948Y2649997D02*
Y2638000D01*
X3785947Y2649997D02*
X3777948Y2641999D01*
X3780805Y2644856D02*
X3785947Y2638000D01*
X3788632Y2649997D02*
Y2638000D01*
Y2649997D02*
X3796630Y2638000D01*
Y2649997D02*
Y2638000D01*
X3807371Y2649997D02*
X3799944D01*
Y2638000D01*
X3807371D01*
X3799944Y2644284D02*
X3804514D01*
X3817368Y2648283D02*
X3816226Y2649426D01*
X3814512Y2649997D01*
X3812227D01*
X3810513Y2649426D01*
X3809370Y2648283D01*
Y2647141D01*
X3809942Y2645998D01*
X3810513Y2645427D01*
X3811656Y2644856D01*
X3815083Y2643713D01*
X3816226Y2643142D01*
X3816797Y2642570D01*
X3817368Y2641428D01*
Y2639714D01*
X3816226Y2638571D01*
X3814512Y2638000D01*
X3812227D01*
X3810513Y2638571D01*
X3809370Y2639714D01*
X3828052Y2648283D02*
X3826909Y2649426D01*
X3825195Y2649997D01*
X3822910D01*
X3821196Y2649426D01*
X3820054Y2648283D01*
Y2647141D01*
X3820625Y2645998D01*
X3821196Y2645427D01*
X3822339Y2644856D01*
X3825767Y2643713D01*
X3826909Y2643142D01*
X3827481Y2642570D01*
X3828052Y2641428D01*
Y2639714D01*
X3826909Y2638571D01*
X3825195Y2638000D01*
X3822910D01*
X3821196Y2638571D01*
X3820054Y2639714D01*
X3609070Y2774997D02*
X3605071Y2759001D01*
X3612498Y2774997D02*
X3608499Y2759001D01*
X3605071Y2768713D02*
X3613069D01*
X3604500Y2765285D02*
X3612498D01*
X3628666Y2774997D02*
X3627523Y2774426D01*
X3626381Y2773283D01*
X3625810Y2772141D01*
X3625238Y2770427D01*
Y2767570D01*
X3625810Y2765857D01*
X3626381Y2764714D01*
X3627523Y2763571D01*
X3628666Y2763000D01*
X3630952D01*
X3632094Y2763571D01*
X3633237Y2764714D01*
X3633808Y2765857D01*
X3634379Y2767570D01*
Y2770427D01*
X3633808Y2772141D01*
X3633237Y2773283D01*
X3632094Y2774426D01*
X3630952Y2774997D01*
X3628666D01*
X3637179D02*
Y2763000D01*
Y2774997D02*
X3644606D01*
X3637179Y2769284D02*
X3641749D01*
X3655403Y2774997D02*
Y2763000D01*
X3662259D01*
X3672714D02*
X3668143Y2774997D01*
X3663573Y2763000D01*
X3665287Y2766999D02*
X3671000D01*
X3675513Y2774997D02*
X3680084Y2769284D01*
Y2763000D01*
X3684654Y2774997D02*
X3680084Y2769284D01*
X3693624Y2774997D02*
X3686197D01*
Y2763000D01*
X3693624D01*
X3686197Y2769284D02*
X3690767D01*
X3695623Y2774997D02*
Y2763000D01*
Y2774997D02*
X3700765D01*
X3702479Y2774426D01*
X3703050Y2773855D01*
X3703622Y2772712D01*
Y2771570D01*
X3703050Y2770427D01*
X3702479Y2769856D01*
X3700765Y2769284D01*
X3695623D01*
X3699622D02*
X3703622Y2763000D01*
X3714305Y2773283D02*
X3713162Y2774426D01*
X3711448Y2774997D01*
X3709163D01*
X3707449Y2774426D01*
X3706307Y2773283D01*
Y2772141D01*
X3706878Y2770998D01*
X3707449Y2770427D01*
X3708592Y2769856D01*
X3712020Y2768713D01*
X3713162Y2768142D01*
X3713734Y2767570D01*
X3714305Y2766428D01*
Y2764714D01*
X3713162Y2763571D01*
X3711448Y2763000D01*
X3709163D01*
X3707449Y2763571D01*
X3706307Y2764714D01*
X3604500Y2749997D02*
Y2738000D01*
Y2749997D02*
X3611927D01*
X3604500Y2744284D02*
X3609070D01*
X3613298Y2749997D02*
Y2738000D01*
X3615812Y2749997D02*
Y2738000D01*
Y2749997D02*
X3623810Y2738000D01*
Y2749997D02*
Y2738000D01*
X3627124Y2749997D02*
Y2738000D01*
X3637635Y2748283D02*
X3636493Y2749426D01*
X3634779Y2749997D01*
X3632494D01*
X3630780Y2749426D01*
X3629637Y2748283D01*
Y2747141D01*
X3630209Y2745998D01*
X3630780Y2745427D01*
X3631923Y2744856D01*
X3635350Y2743713D01*
X3636493Y2743142D01*
X3637064Y2742570D01*
X3637635Y2741428D01*
Y2739714D01*
X3636493Y2738571D01*
X3634779Y2738000D01*
X3632494D01*
X3630780Y2738571D01*
X3629637Y2739714D01*
X3640321Y2749997D02*
Y2738000D01*
X3648319Y2749997D02*
Y2738000D01*
X3640321Y2744284D02*
X3648319D01*
X3659059Y2749997D02*
X3651633D01*
Y2738000D01*
X3659059D01*
X3651633Y2744284D02*
X3656203D01*
X3661059Y2749997D02*
Y2738000D01*
Y2749997D02*
X3665058D01*
X3666772Y2749426D01*
X3667915Y2748283D01*
X3668486Y2747141D01*
X3669058Y2745427D01*
Y2742570D01*
X3668486Y2740857D01*
X3667915Y2739714D01*
X3666772Y2738571D01*
X3665058Y2738000D01*
X3661059D01*
X3681169Y2749997D02*
Y2738000D01*
Y2749997D02*
X3686311D01*
X3688025Y2749426D01*
X3688596Y2748855D01*
X3689167Y2747712D01*
Y2746570D01*
X3688596Y2745427D01*
X3688025Y2744856D01*
X3686311Y2744284D01*
X3681169D02*
X3686311D01*
X3688025Y2743713D01*
X3688596Y2743142D01*
X3689167Y2741999D01*
Y2740285D01*
X3688596Y2739142D01*
X3688025Y2738571D01*
X3686311Y2738000D01*
X3681169D01*
X3695280Y2749997D02*
X3694138Y2749426D01*
X3692995Y2748283D01*
X3692424Y2747141D01*
X3691853Y2745427D01*
Y2742570D01*
X3692424Y2740857D01*
X3692995Y2739714D01*
X3694138Y2738571D01*
X3695280Y2738000D01*
X3697566D01*
X3698708Y2738571D01*
X3699851Y2739714D01*
X3700422Y2740857D01*
X3700994Y2742570D01*
Y2745427D01*
X3700422Y2747141D01*
X3699851Y2748283D01*
X3698708Y2749426D01*
X3697566Y2749997D01*
X3695280D01*
X3712934Y2738000D02*
X3708363Y2749997D01*
X3703793Y2738000D01*
X3705507Y2741999D02*
X3711220D01*
X3715733Y2749997D02*
Y2738000D01*
Y2749997D02*
X3720875D01*
X3722589Y2749426D01*
X3723160Y2748855D01*
X3723731Y2747712D01*
Y2746570D01*
X3723160Y2745427D01*
X3722589Y2744856D01*
X3720875Y2744284D01*
X3715733D01*
X3719732D02*
X3723731Y2738000D01*
X3726417Y2749997D02*
Y2738000D01*
Y2749997D02*
X3730416D01*
X3732130Y2749426D01*
X3733272Y2748283D01*
X3733844Y2747141D01*
X3734415Y2745427D01*
Y2742570D01*
X3733844Y2740857D01*
X3733272Y2739714D01*
X3732130Y2738571D01*
X3730416Y2738000D01*
X3726417D01*
X3750526Y2749997D02*
Y2738000D01*
X3746526Y2749997D02*
X3754525D01*
X3755953D02*
Y2738000D01*
X3763951Y2749997D02*
Y2738000D01*
X3755953Y2744284D02*
X3763951D01*
X3767265Y2749997D02*
Y2738000D01*
X3778348Y2747141D02*
X3777777Y2748283D01*
X3776635Y2749426D01*
X3775492Y2749997D01*
X3773206D01*
X3772064Y2749426D01*
X3770921Y2748283D01*
X3770350Y2747141D01*
X3769779Y2745427D01*
Y2742570D01*
X3770350Y2740857D01*
X3770921Y2739714D01*
X3772064Y2738571D01*
X3773206Y2738000D01*
X3775492D01*
X3776635Y2738571D01*
X3777777Y2739714D01*
X3778348Y2740857D01*
X3781719Y2749997D02*
Y2738000D01*
X3789717Y2749997D02*
X3781719Y2741999D01*
X3784576Y2744856D02*
X3789717Y2738000D01*
X3792402Y2749997D02*
Y2738000D01*
Y2749997D02*
X3800401Y2738000D01*
Y2749997D02*
Y2738000D01*
X3811141Y2749997D02*
X3803714D01*
Y2738000D01*
X3811141D01*
X3803714Y2744284D02*
X3808285D01*
X3821139Y2748283D02*
X3819997Y2749426D01*
X3818282Y2749997D01*
X3815997D01*
X3814283Y2749426D01*
X3813141Y2748283D01*
Y2747141D01*
X3813712Y2745998D01*
X3814283Y2745427D01*
X3815426Y2744856D01*
X3818854Y2743713D01*
X3819997Y2743142D01*
X3820568Y2742570D01*
X3821139Y2741428D01*
Y2739714D01*
X3819997Y2738571D01*
X3818282Y2738000D01*
X3815997D01*
X3814283Y2738571D01*
X3813141Y2739714D01*
X3831823Y2748283D02*
X3830680Y2749426D01*
X3828966Y2749997D01*
X3826681D01*
X3824967Y2749426D01*
X3823824Y2748283D01*
Y2747141D01*
X3824396Y2745998D01*
X3824967Y2745427D01*
X3826110Y2744856D01*
X3829537Y2743713D01*
X3830680Y2743142D01*
X3831251Y2742570D01*
X3831823Y2741428D01*
Y2739714D01*
X3830680Y2738571D01*
X3828966Y2738000D01*
X3826681D01*
X3824967Y2738571D01*
X3823824Y2739714D01*
X3604500Y2724997D02*
Y2713000D01*
Y2724997D02*
X3609642D01*
X3611356Y2724426D01*
X3611927Y2723855D01*
X3612498Y2722712D01*
Y2721570D01*
X3611927Y2720427D01*
X3611356Y2719856D01*
X3609642Y2719284D01*
X3604500D02*
X3609642D01*
X3611356Y2718713D01*
X3611927Y2718142D01*
X3612498Y2716999D01*
Y2715285D01*
X3611927Y2714142D01*
X3611356Y2713571D01*
X3609642Y2713000D01*
X3604500D01*
X3618611Y2724997D02*
X3617469Y2724426D01*
X3616326Y2723283D01*
X3615755Y2722141D01*
X3615183Y2720427D01*
Y2717570D01*
X3615755Y2715857D01*
X3616326Y2714714D01*
X3617469Y2713571D01*
X3618611Y2713000D01*
X3620896D01*
X3622039Y2713571D01*
X3623181Y2714714D01*
X3623753Y2715857D01*
X3624324Y2717570D01*
Y2720427D01*
X3623753Y2722141D01*
X3623181Y2723283D01*
X3622039Y2724426D01*
X3620896Y2724997D01*
X3618611D01*
X3636265Y2713000D02*
X3631694Y2724997D01*
X3627124Y2713000D01*
X3628838Y2716999D02*
X3634550D01*
X3639064Y2724997D02*
Y2713000D01*
Y2724997D02*
X3644206D01*
X3645919Y2724426D01*
X3646491Y2723855D01*
X3647062Y2722712D01*
Y2721570D01*
X3646491Y2720427D01*
X3645919Y2719856D01*
X3644206Y2719284D01*
X3639064D01*
X3643063D02*
X3647062Y2713000D01*
X3649747Y2724997D02*
Y2713000D01*
Y2724997D02*
X3653747D01*
X3655461Y2724426D01*
X3656603Y2723283D01*
X3657174Y2722141D01*
X3657746Y2720427D01*
Y2717570D01*
X3657174Y2715857D01*
X3656603Y2714714D01*
X3655461Y2713571D01*
X3653747Y2713000D01*
X3649747D01*
X3669857Y2724997D02*
Y2713000D01*
Y2724997D02*
X3674428Y2713000D01*
X3678998Y2724997D02*
X3674428Y2713000D01*
X3678998Y2724997D02*
Y2713000D01*
X3691567D02*
X3686996Y2724997D01*
X3682426Y2713000D01*
X3684140Y2716999D02*
X3689853D01*
X3698365Y2724997D02*
Y2713000D01*
X3694366Y2724997D02*
X3702365D01*
X3711220D02*
X3703793D01*
Y2713000D01*
X3711220D01*
X3703793Y2719284D02*
X3708363D01*
X3713219Y2724997D02*
Y2713000D01*
Y2724997D02*
X3718361D01*
X3720075Y2724426D01*
X3720646Y2723855D01*
X3721218Y2722712D01*
Y2721570D01*
X3720646Y2720427D01*
X3720075Y2719856D01*
X3718361Y2719284D01*
X3713219D01*
X3717219D02*
X3721218Y2713000D01*
X3723903Y2724997D02*
Y2713000D01*
X3735558D02*
X3730987Y2724997D01*
X3726417Y2713000D01*
X3728130Y2716999D02*
X3733844D01*
X3738357Y2724997D02*
Y2713000D01*
X3745213D01*
X3604500Y2699997D02*
Y2688000D01*
Y2699997D02*
X3611927D01*
X3604500Y2694284D02*
X3609070D01*
X3613298Y2699997D02*
Y2688000D01*
X3615812Y2699997D02*
Y2688000D01*
Y2699997D02*
X3623810Y2688000D01*
Y2699997D02*
Y2688000D01*
X3627124Y2699997D02*
Y2688000D01*
X3637635Y2698283D02*
X3636493Y2699426D01*
X3634779Y2699997D01*
X3632494D01*
X3630780Y2699426D01*
X3629637Y2698283D01*
Y2697141D01*
X3630209Y2695998D01*
X3630780Y2695427D01*
X3631923Y2694856D01*
X3635350Y2693713D01*
X3636493Y2693142D01*
X3637064Y2692570D01*
X3637635Y2691428D01*
Y2689714D01*
X3636493Y2688571D01*
X3634779Y2688000D01*
X3632494D01*
X3630780Y2688571D01*
X3629637Y2689714D01*
X3640321Y2699997D02*
Y2688000D01*
X3648319Y2699997D02*
Y2688000D01*
X3640321Y2694284D02*
X3648319D01*
X3659059Y2699997D02*
X3651633D01*
Y2688000D01*
X3659059D01*
X3651633Y2694284D02*
X3656203D01*
X3661059Y2699997D02*
Y2688000D01*
Y2699997D02*
X3665058D01*
X3666772Y2699426D01*
X3667915Y2698283D01*
X3668486Y2697141D01*
X3669058Y2695427D01*
Y2692570D01*
X3668486Y2690857D01*
X3667915Y2689714D01*
X3666772Y2688571D01*
X3665058Y2688000D01*
X3661059D01*
X3689739Y2697141D02*
X3689167Y2698283D01*
X3688025Y2699426D01*
X3686882Y2699997D01*
X3684597D01*
X3683454Y2699426D01*
X3682312Y2698283D01*
X3681740Y2697141D01*
X3681169Y2695427D01*
Y2692570D01*
X3681740Y2690857D01*
X3682312Y2689714D01*
X3683454Y2688571D01*
X3684597Y2688000D01*
X3686882D01*
X3688025Y2688571D01*
X3689167Y2689714D01*
X3689739Y2690857D01*
X3696537Y2699997D02*
X3695395Y2699426D01*
X3694252Y2698283D01*
X3693681Y2697141D01*
X3693109Y2695427D01*
Y2692570D01*
X3693681Y2690857D01*
X3694252Y2689714D01*
X3695395Y2688571D01*
X3696537Y2688000D01*
X3698823D01*
X3699965Y2688571D01*
X3701108Y2689714D01*
X3701679Y2690857D01*
X3702250Y2692570D01*
Y2695427D01*
X3701679Y2697141D01*
X3701108Y2698283D01*
X3699965Y2699426D01*
X3698823Y2699997D01*
X3696537D01*
X3705050Y2693713D02*
X3710192D01*
X3711906Y2694284D01*
X3712477Y2694856D01*
X3713048Y2695998D01*
Y2697712D01*
X3712477Y2698855D01*
X3711906Y2699426D01*
X3710192Y2699997D01*
X3705050D01*
Y2688000D01*
X3715733Y2693713D02*
X3720875D01*
X3722589Y2694284D01*
X3723160Y2694856D01*
X3723731Y2695998D01*
Y2697712D01*
X3723160Y2698855D01*
X3722589Y2699426D01*
X3720875Y2699997D01*
X3715733D01*
Y2688000D01*
X3733844Y2699997D02*
X3726417D01*
Y2688000D01*
X3733844D01*
X3726417Y2694284D02*
X3730987D01*
X3735843Y2699997D02*
Y2688000D01*
Y2699997D02*
X3740985D01*
X3742699Y2699426D01*
X3743270Y2698855D01*
X3743841Y2697712D01*
Y2696570D01*
X3743270Y2695427D01*
X3742699Y2694856D01*
X3740985Y2694284D01*
X3735843D01*
X3739842D02*
X3743841Y2688000D01*
X3759952Y2699997D02*
Y2688000D01*
X3755953Y2699997D02*
X3763951D01*
X3765380D02*
Y2688000D01*
X3773378Y2699997D02*
Y2688000D01*
X3765380Y2694284D02*
X3773378D01*
X3776692Y2699997D02*
Y2688000D01*
X3787775Y2697141D02*
X3787204Y2698283D01*
X3786061Y2699426D01*
X3784918Y2699997D01*
X3782633D01*
X3781490Y2699426D01*
X3780348Y2698283D01*
X3779777Y2697141D01*
X3779205Y2695427D01*
Y2692570D01*
X3779777Y2690857D01*
X3780348Y2689714D01*
X3781490Y2688571D01*
X3782633Y2688000D01*
X3784918D01*
X3786061Y2688571D01*
X3787204Y2689714D01*
X3787775Y2690857D01*
X3791146Y2699997D02*
Y2688000D01*
X3799144Y2699997D02*
X3791146Y2691999D01*
X3794002Y2694856D02*
X3799144Y2688000D01*
X3801829Y2699997D02*
Y2688000D01*
Y2699997D02*
X3809827Y2688000D01*
Y2699997D02*
Y2688000D01*
X3820568Y2699997D02*
X3813141D01*
Y2688000D01*
X3820568D01*
X3813141Y2694284D02*
X3817711D01*
X3830566Y2698283D02*
X3829423Y2699426D01*
X3827709Y2699997D01*
X3825424D01*
X3823710Y2699426D01*
X3822567Y2698283D01*
Y2697141D01*
X3823139Y2695998D01*
X3823710Y2695427D01*
X3824853Y2694856D01*
X3828281Y2693713D01*
X3829423Y2693142D01*
X3829995Y2692570D01*
X3830566Y2691428D01*
Y2689714D01*
X3829423Y2688571D01*
X3827709Y2688000D01*
X3825424D01*
X3823710Y2688571D01*
X3822567Y2689714D01*
X3841249Y2698283D02*
X3840107Y2699426D01*
X3838393Y2699997D01*
X3836107D01*
X3834393Y2699426D01*
X3833251Y2698283D01*
Y2697141D01*
X3833822Y2695998D01*
X3834393Y2695427D01*
X3835536Y2694856D01*
X3838964Y2693713D01*
X3840107Y2693142D01*
X3840678Y2692570D01*
X3841249Y2691428D01*
Y2689714D01*
X3840107Y2688571D01*
X3838393Y2688000D01*
X3836107D01*
X3834393Y2688571D01*
X3833251Y2689714D01*
X3612498Y2673283D02*
X3611356Y2674426D01*
X3609642Y2674997D01*
X3607356D01*
X3605642Y2674426D01*
X3604500Y2673283D01*
Y2672141D01*
X3605071Y2670998D01*
X3605642Y2670427D01*
X3606785Y2669856D01*
X3610213Y2668713D01*
X3611356Y2668142D01*
X3611927Y2667570D01*
X3612498Y2666428D01*
Y2664714D01*
X3611356Y2663571D01*
X3609642Y2663000D01*
X3607356D01*
X3605642Y2663571D01*
X3604500Y2664714D01*
X3615183Y2674997D02*
Y2666428D01*
X3615755Y2664714D01*
X3616897Y2663571D01*
X3618611Y2663000D01*
X3619754D01*
X3621468Y2663571D01*
X3622610Y2664714D01*
X3623181Y2666428D01*
Y2674997D01*
X3626495D02*
Y2663000D01*
Y2674997D02*
X3631637D01*
X3633351Y2674426D01*
X3633922Y2673855D01*
X3634493Y2672712D01*
Y2671570D01*
X3633922Y2670427D01*
X3633351Y2669856D01*
X3631637Y2669284D01*
X3626495D01*
X3630494D02*
X3634493Y2663000D01*
X3637179Y2674997D02*
Y2663000D01*
Y2674997D02*
X3644606D01*
X3637179Y2669284D02*
X3641749D01*
X3655117Y2663000D02*
X3650547Y2674997D01*
X3645977Y2663000D01*
X3647691Y2666999D02*
X3653404D01*
X3666487Y2672141D02*
X3665915Y2673283D01*
X3664773Y2674426D01*
X3663630Y2674997D01*
X3661345D01*
X3660202Y2674426D01*
X3659059Y2673283D01*
X3658488Y2672141D01*
X3657917Y2670427D01*
Y2667570D01*
X3658488Y2665857D01*
X3659059Y2664714D01*
X3660202Y2663571D01*
X3661345Y2663000D01*
X3663630D01*
X3664773Y2663571D01*
X3665915Y2664714D01*
X3666487Y2665857D01*
X3677284Y2674997D02*
X3669857D01*
Y2663000D01*
X3677284D01*
X3669857Y2669284D02*
X3674428D01*
X3688710Y2674997D02*
Y2663000D01*
Y2674997D02*
X3696137D01*
X3688710Y2669284D02*
X3693281D01*
X3697509Y2674997D02*
Y2663000D01*
X3700022Y2674997D02*
Y2663000D01*
Y2674997D02*
X3708021Y2663000D01*
Y2674997D02*
Y2663000D01*
X3711334Y2674997D02*
Y2663000D01*
X3721846Y2673283D02*
X3720704Y2674426D01*
X3718990Y2674997D01*
X3716704D01*
X3714991Y2674426D01*
X3713848Y2673283D01*
Y2672141D01*
X3714419Y2670998D01*
X3714991Y2670427D01*
X3716133Y2669856D01*
X3719561Y2668713D01*
X3720704Y2668142D01*
X3721275Y2667570D01*
X3721846Y2666428D01*
Y2664714D01*
X3720704Y2663571D01*
X3718990Y2663000D01*
X3716704D01*
X3714991Y2663571D01*
X3713848Y2664714D01*
X3724531Y2674997D02*
Y2663000D01*
X3732530Y2674997D02*
Y2663000D01*
X3724531Y2669284D02*
X3732530D01*
X3906927Y2674997D02*
X3899500D01*
Y2663000D01*
X3906927D01*
X3899500Y2669284D02*
X3904070D01*
X3908926Y2674997D02*
Y2663000D01*
Y2674997D02*
X3916925Y2663000D01*
Y2674997D02*
Y2663000D01*
X3920238Y2674997D02*
Y2663000D01*
X3931322Y2672141D02*
X3930750Y2673283D01*
X3929608Y2674426D01*
X3928465Y2674997D01*
X3926180D01*
X3925037Y2674426D01*
X3923895Y2673283D01*
X3923323Y2672141D01*
X3922752Y2670427D01*
Y2667570D01*
X3923323Y2665857D01*
X3923895Y2664714D01*
X3925037Y2663571D01*
X3926180Y2663000D01*
X3928465D01*
X3929608Y2663571D01*
X3930750Y2664714D01*
X3931322Y2665857D01*
Y2667570D01*
X3928465D02*
X3931322D01*
X3900642Y2699997D02*
X3906927D01*
X3903499Y2695427D01*
X3905213D01*
X3906356Y2694856D01*
X3906927Y2694284D01*
X3907498Y2692570D01*
Y2691428D01*
X3906927Y2689714D01*
X3905784Y2688571D01*
X3904070Y2688000D01*
X3902356D01*
X3900642Y2688571D01*
X3900071Y2689142D01*
X3899500Y2690285D01*
X3917039Y2699997D02*
X3911326D01*
X3910755Y2694856D01*
X3911326Y2695427D01*
X3913040Y2695998D01*
X3914754D01*
X3916468Y2695427D01*
X3917610Y2694284D01*
X3918181Y2692570D01*
Y2691428D01*
X3917610Y2689714D01*
X3916468Y2688571D01*
X3914754Y2688000D01*
X3913040D01*
X3911326Y2688571D01*
X3910755Y2689142D01*
X3910183Y2690285D01*
X3930293Y2695998D02*
Y2690285D01*
X3930865Y2688571D01*
X3932007Y2688000D01*
X3933721D01*
X3934864Y2688571D01*
X3936577Y2690285D01*
Y2695998D02*
Y2688000D01*
X3939720Y2695998D02*
Y2688000D01*
Y2693713D02*
X3941434Y2695427D01*
X3942576Y2695998D01*
X3944290D01*
X3945433Y2695427D01*
X3946004Y2693713D01*
Y2688000D01*
Y2693713D02*
X3947718Y2695427D01*
X3948861Y2695998D01*
X3950575D01*
X3951717Y2695427D01*
X3952289Y2693713D01*
Y2688000D01*
X3978911Y2702283D02*
X3977769Y2701140D01*
X3976626Y2699426D01*
X3975484Y2697141D01*
X3974912Y2694284D01*
Y2691999D01*
X3975484Y2689142D01*
X3976626Y2686857D01*
X3977769Y2685143D01*
X3978911Y2684001D01*
X3977769Y2701140D02*
X3976626Y2698855D01*
X3976055Y2697141D01*
X3975484Y2694284D01*
Y2691999D01*
X3976055Y2689142D01*
X3976626Y2687429D01*
X3977769Y2685143D01*
X3981197Y2697712D02*
X3982339Y2698283D01*
X3984053Y2699997D01*
Y2688000D01*
X4002278Y2695998D02*
X4001135Y2695427D01*
X3999993Y2694284D01*
X3999421Y2692570D01*
Y2691428D01*
X3999993Y2689714D01*
X4001135Y2688571D01*
X4002278Y2688000D01*
X4003992D01*
X4005134Y2688571D01*
X4006277Y2689714D01*
X4006848Y2691428D01*
Y2692570D01*
X4006277Y2694284D01*
X4005134Y2695427D01*
X4003992Y2695998D01*
X4002278D01*
X4015761D02*
X4009476Y2688000D01*
Y2695998D02*
X4015761D01*
X4009476Y2688000D02*
X4015761D01*
X4018275Y2702283D02*
X4019417Y2701140D01*
X4020560Y2699426D01*
X4021702Y2697141D01*
X4022274Y2694284D01*
Y2691999D01*
X4021702Y2689142D01*
X4020560Y2686857D01*
X4019417Y2685143D01*
X4018275Y2684001D01*
X4019417Y2701140D02*
X4020560Y2698855D01*
X4021131Y2697141D01*
X4021702Y2694284D01*
Y2691999D01*
X4021131Y2689142D01*
X4020560Y2687429D01*
X4019417Y2685143D01*
X3899500Y2724997D02*
Y2713000D01*
Y2724997D02*
X3906927D01*
X3899500Y2719284D02*
X3904070D01*
X3908298Y2724997D02*
Y2713000D01*
Y2724997D02*
X3913440D01*
X3915154Y2724426D01*
X3915725Y2723855D01*
X3916296Y2722712D01*
Y2721570D01*
X3915725Y2720427D01*
X3915154Y2719856D01*
X3913440Y2719284D01*
X3908298D01*
X3912297D02*
X3916296Y2713000D01*
X3924695Y2724997D02*
X3918981Y2716999D01*
X3927551D01*
X3924695Y2724997D02*
Y2713000D01*
X3902928Y2749997D02*
X3901214Y2749426D01*
X3900071Y2747712D01*
X3899500Y2744856D01*
Y2743142D01*
X3900071Y2740285D01*
X3901214Y2738571D01*
X3902928Y2738000D01*
X3904070D01*
X3905784Y2738571D01*
X3906927Y2740285D01*
X3907498Y2743142D01*
Y2744856D01*
X3906927Y2747712D01*
X3905784Y2749426D01*
X3904070Y2749997D01*
X3902928D01*
X3910755Y2739142D02*
X3910183Y2738571D01*
X3910755Y2738000D01*
X3911326Y2738571D01*
X3910755Y2739142D01*
X3919667Y2749997D02*
X3913954Y2741999D01*
X3922523D01*
X3919667Y2749997D02*
Y2738000D01*
X3924637Y2745998D02*
Y2738000D01*
Y2743713D02*
X3926351Y2745427D01*
X3927494Y2745998D01*
X3929208D01*
X3930350Y2745427D01*
X3930922Y2743713D01*
Y2738000D01*
Y2743713D02*
X3932635Y2745427D01*
X3933778Y2745998D01*
X3935492D01*
X3936635Y2745427D01*
X3937206Y2743713D01*
Y2738000D01*
X3940977Y2745998D02*
Y2738000D01*
Y2743713D02*
X3942691Y2745427D01*
X3943833Y2745998D01*
X3945547D01*
X3946690Y2745427D01*
X3947261Y2743713D01*
Y2738000D01*
Y2743713D02*
X3948975Y2745427D01*
X3950117Y2745998D01*
X3951831D01*
X3952974Y2745427D01*
X3953546Y2743713D01*
Y2738000D01*
X3905213Y2774997D02*
X3899500Y2766999D01*
X3908069D01*
X3905213Y2774997D02*
Y2763000D01*
X3919610Y2774997D02*
Y2763000D01*
X3926465D01*
X3936920D02*
X3932350Y2774997D01*
X3927780Y2763000D01*
X3929493Y2766999D02*
X3935207D01*
X3939720Y2774997D02*
X3944290Y2769284D01*
Y2763000D01*
X3948861Y2774997D02*
X3944290Y2769284D01*
X3957830Y2774997D02*
X3950403D01*
Y2763000D01*
X3957830D01*
X3950403Y2769284D02*
X3954974D01*
X3959830Y2774997D02*
Y2763000D01*
Y2774997D02*
X3964972D01*
X3966685Y2774426D01*
X3967257Y2773855D01*
X3967828Y2772712D01*
Y2771570D01*
X3967257Y2770427D01*
X3966685Y2769856D01*
X3964972Y2769284D01*
X3959830D01*
X3963829D02*
X3967828Y2763000D01*
X3268000Y2192713D02*
X3273142D01*
X3274856Y2193284D01*
X3275427Y2193856D01*
X3275998Y2194998D01*
Y2196712D01*
X3275427Y2197855D01*
X3274856Y2198426D01*
X3273142Y2198997D01*
X3268000D01*
Y2187000D01*
X3287253Y2196141D02*
X3286682Y2197283D01*
X3285539Y2198426D01*
X3284396Y2198997D01*
X3282111D01*
X3280969Y2198426D01*
X3279826Y2197283D01*
X3279255Y2196141D01*
X3278683Y2194427D01*
Y2191570D01*
X3279255Y2189857D01*
X3279826Y2188714D01*
X3280969Y2187571D01*
X3282111Y2187000D01*
X3284396D01*
X3285539Y2187571D01*
X3286682Y2188714D01*
X3287253Y2189857D01*
X3290624Y2198997D02*
Y2187000D01*
Y2198997D02*
X3295765D01*
X3297479Y2198426D01*
X3298051Y2197855D01*
X3298622Y2196712D01*
Y2195570D01*
X3298051Y2194427D01*
X3297479Y2193856D01*
X3295765Y2193284D01*
X3290624D02*
X3295765D01*
X3297479Y2192713D01*
X3298051Y2192142D01*
X3298622Y2190999D01*
Y2189285D01*
X3298051Y2188143D01*
X3297479Y2187571D01*
X3295765Y2187000D01*
X3290624D01*
X3314733Y2198997D02*
Y2187000D01*
X3310734Y2198997D02*
X3318732D01*
X3321303D02*
X3321874Y2198426D01*
X3322445Y2198997D01*
X3321874Y2199569D01*
X3321303Y2198997D01*
X3321874Y2194998D02*
Y2187000D01*
X3326273Y2198997D02*
Y2189285D01*
X3326844Y2187571D01*
X3327987Y2187000D01*
X3329130D01*
X3324559Y2194998D02*
X3328558D01*
X3330844Y2198997D02*
Y2187000D01*
X3333358Y2191570D02*
X3340213D01*
Y2192713D01*
X3339642Y2193856D01*
X3339070Y2194427D01*
X3337928Y2194998D01*
X3336214D01*
X3335071Y2194427D01*
X3333929Y2193284D01*
X3333358Y2191570D01*
Y2190428D01*
X3333929Y2188714D01*
X3335071Y2187571D01*
X3336214Y2187000D01*
X3337928D01*
X3339070Y2187571D01*
X3340213Y2188714D01*
X3268000Y2267713D02*
X3273142D01*
X3274856Y2268284D01*
X3275427Y2268856D01*
X3275998Y2269998D01*
Y2271712D01*
X3275427Y2272855D01*
X3274856Y2273426D01*
X3273142Y2273997D01*
X3268000D01*
Y2262000D01*
X3278683Y2269998D02*
Y2262000D01*
Y2266570D02*
X3279255Y2268284D01*
X3280397Y2269427D01*
X3281540Y2269998D01*
X3283254D01*
X3287196D02*
X3286053Y2269427D01*
X3284911Y2268284D01*
X3284339Y2266570D01*
Y2265428D01*
X3284911Y2263714D01*
X3286053Y2262571D01*
X3287196Y2262000D01*
X3288910D01*
X3290052Y2262571D01*
X3291195Y2263714D01*
X3291766Y2265428D01*
Y2266570D01*
X3291195Y2268284D01*
X3290052Y2269427D01*
X3288910Y2269998D01*
X3287196D01*
X3296679Y2273997D02*
X3297251Y2273426D01*
X3297822Y2273997D01*
X3297251Y2274569D01*
X3296679Y2273997D01*
X3297251Y2269998D02*
Y2260286D01*
X3296679Y2258572D01*
X3295537Y2258001D01*
X3294394D01*
X3300050Y2266570D02*
X3306906D01*
Y2267713D01*
X3306335Y2268856D01*
X3305763Y2269427D01*
X3304621Y2269998D01*
X3302907D01*
X3301764Y2269427D01*
X3300622Y2268284D01*
X3300050Y2266570D01*
Y2265428D01*
X3300622Y2263714D01*
X3301764Y2262571D01*
X3302907Y2262000D01*
X3304621D01*
X3305763Y2262571D01*
X3306906Y2263714D01*
X3316332Y2268284D02*
X3315190Y2269427D01*
X3314047Y2269998D01*
X3312333D01*
X3311191Y2269427D01*
X3310048Y2268284D01*
X3309477Y2266570D01*
Y2265428D01*
X3310048Y2263714D01*
X3311191Y2262571D01*
X3312333Y2262000D01*
X3314047D01*
X3315190Y2262571D01*
X3316332Y2263714D01*
X3320617Y2273997D02*
Y2264285D01*
X3321188Y2262571D01*
X3322331Y2262000D01*
X3323474D01*
X3318903Y2269998D02*
X3322903D01*
X3338613Y2273997D02*
Y2262000D01*
X3334614Y2273997D02*
X3342613D01*
X3345183D02*
X3345755Y2273426D01*
X3346326Y2273997D01*
X3345755Y2274569D01*
X3345183Y2273997D01*
X3345755Y2269998D02*
Y2262000D01*
X3350154Y2273997D02*
Y2264285D01*
X3350725Y2262571D01*
X3351868Y2262000D01*
X3353010D01*
X3348440Y2269998D02*
X3352439D01*
X3354724Y2273997D02*
Y2262000D01*
X3357238Y2266570D02*
X3364094D01*
Y2267713D01*
X3363522Y2268856D01*
X3362951Y2269427D01*
X3361808Y2269998D01*
X3360095D01*
X3358952Y2269427D01*
X3357809Y2268284D01*
X3357238Y2266570D01*
Y2265428D01*
X3357809Y2263714D01*
X3358952Y2262571D01*
X3360095Y2262000D01*
X3361808D01*
X3362951Y2262571D01*
X3364094Y2263714D01*
X3569500Y2198997D02*
Y2187000D01*
Y2198997D02*
X3573499D01*
X3575213Y2198426D01*
X3576356Y2197283D01*
X3576927Y2196141D01*
X3577498Y2194427D01*
Y2191570D01*
X3576927Y2189857D01*
X3576356Y2188714D01*
X3575213Y2187571D01*
X3573499Y2187000D01*
X3569500D01*
X3587039Y2194998D02*
Y2187000D01*
Y2193284D02*
X3585897Y2194427D01*
X3584754Y2194998D01*
X3583040D01*
X3581897Y2194427D01*
X3580755Y2193284D01*
X3580183Y2191570D01*
Y2190428D01*
X3580755Y2188714D01*
X3581897Y2187571D01*
X3583040Y2187000D01*
X3584754D01*
X3585897Y2187571D01*
X3587039Y2188714D01*
X3591952Y2198997D02*
Y2189285D01*
X3592523Y2187571D01*
X3593666Y2187000D01*
X3594809D01*
X3590238Y2194998D02*
X3594237D01*
X3596523Y2191570D02*
X3603378D01*
Y2192713D01*
X3602807Y2193856D01*
X3602236Y2194427D01*
X3601093Y2194998D01*
X3599379D01*
X3598237Y2194427D01*
X3597094Y2193284D01*
X3596523Y2191570D01*
Y2190428D01*
X3597094Y2188714D01*
X3598237Y2187571D01*
X3599379Y2187000D01*
X3601093D01*
X3602236Y2187571D01*
X3603378Y2188714D01*
X3618232Y2194998D02*
X3617090Y2194427D01*
X3615947Y2193284D01*
X3615376Y2191570D01*
Y2190428D01*
X3615947Y2188714D01*
X3617090Y2187571D01*
X3618232Y2187000D01*
X3619946D01*
X3621089Y2187571D01*
X3622231Y2188714D01*
X3622803Y2190428D01*
Y2191570D01*
X3622231Y2193284D01*
X3621089Y2194427D01*
X3619946Y2194998D01*
X3618232D01*
X3630001Y2198997D02*
X3628859D01*
X3627716Y2198426D01*
X3627145Y2196712D01*
Y2187000D01*
X3625431Y2194998D02*
X3629430D01*
X3641142Y2198997D02*
Y2187000D01*
X3647997D01*
X3656167Y2194998D02*
Y2187000D01*
Y2193284D02*
X3655024Y2194427D01*
X3653882Y2194998D01*
X3652168D01*
X3651025Y2194427D01*
X3649883Y2193284D01*
X3649312Y2191570D01*
Y2190428D01*
X3649883Y2188714D01*
X3651025Y2187571D01*
X3652168Y2187000D01*
X3653882D01*
X3655024Y2187571D01*
X3656167Y2188714D01*
X3665651Y2193284D02*
X3665080Y2194427D01*
X3663365Y2194998D01*
X3661652D01*
X3659938Y2194427D01*
X3659366Y2193284D01*
X3659938Y2192142D01*
X3661080Y2191570D01*
X3663937Y2190999D01*
X3665080Y2190428D01*
X3665651Y2189285D01*
Y2188714D01*
X3665080Y2187571D01*
X3663365Y2187000D01*
X3661652D01*
X3659938Y2187571D01*
X3659366Y2188714D01*
X3669879Y2198997D02*
Y2189285D01*
X3670450Y2187571D01*
X3671592Y2187000D01*
X3672735D01*
X3668165Y2194998D02*
X3672164D01*
X3683875Y2198997D02*
Y2187000D01*
Y2198997D02*
X3688446Y2187000D01*
X3693016Y2198997D02*
X3688446Y2187000D01*
X3693016Y2198997D02*
Y2187000D01*
X3699301Y2194998D02*
X3698158Y2194427D01*
X3697015Y2193284D01*
X3696444Y2191570D01*
Y2190428D01*
X3697015Y2188714D01*
X3698158Y2187571D01*
X3699301Y2187000D01*
X3701015D01*
X3702157Y2187571D01*
X3703300Y2188714D01*
X3703871Y2190428D01*
Y2191570D01*
X3703300Y2193284D01*
X3702157Y2194427D01*
X3701015Y2194998D01*
X3699301D01*
X3713355Y2198997D02*
Y2187000D01*
Y2193284D02*
X3712212Y2194427D01*
X3711070Y2194998D01*
X3709356D01*
X3708213Y2194427D01*
X3707071Y2193284D01*
X3706499Y2191570D01*
Y2190428D01*
X3707071Y2188714D01*
X3708213Y2187571D01*
X3709356Y2187000D01*
X3711070D01*
X3712212Y2187571D01*
X3713355Y2188714D01*
X3717697Y2198997D02*
X3718268Y2198426D01*
X3718839Y2198997D01*
X3718268Y2199569D01*
X3717697Y2198997D01*
X3718268Y2194998D02*
Y2187000D01*
X3725524Y2198997D02*
X3724381D01*
X3723239Y2198426D01*
X3722667Y2196712D01*
Y2187000D01*
X3720953Y2194998D02*
X3724952D01*
X3728380Y2198997D02*
X3728951Y2198426D01*
X3729523Y2198997D01*
X3728951Y2199569D01*
X3728380Y2198997D01*
X3728951Y2194998D02*
Y2187000D01*
X3738492Y2193284D02*
X3737350Y2194427D01*
X3736207Y2194998D01*
X3734493D01*
X3733351Y2194427D01*
X3732208Y2193284D01*
X3731637Y2191570D01*
Y2190428D01*
X3732208Y2188714D01*
X3733351Y2187571D01*
X3734493Y2187000D01*
X3736207D01*
X3737350Y2187571D01*
X3738492Y2188714D01*
X3747919Y2194998D02*
Y2187000D01*
Y2193284D02*
X3746776Y2194427D01*
X3745634Y2194998D01*
X3743920D01*
X3742777Y2194427D01*
X3741635Y2193284D01*
X3741063Y2191570D01*
Y2190428D01*
X3741635Y2188714D01*
X3742777Y2187571D01*
X3743920Y2187000D01*
X3745634D01*
X3746776Y2187571D01*
X3747919Y2188714D01*
X3752832Y2198997D02*
Y2189285D01*
X3753403Y2187571D01*
X3754546Y2187000D01*
X3755689D01*
X3751118Y2194998D02*
X3755117D01*
X3758545Y2198997D02*
X3759117Y2198426D01*
X3759688Y2198997D01*
X3759117Y2199569D01*
X3758545Y2198997D01*
X3759117Y2194998D02*
Y2187000D01*
X3764658Y2194998D02*
X3763516Y2194427D01*
X3762373Y2193284D01*
X3761801Y2191570D01*
Y2190428D01*
X3762373Y2188714D01*
X3763516Y2187571D01*
X3764658Y2187000D01*
X3766372D01*
X3767515Y2187571D01*
X3768657Y2188714D01*
X3769229Y2190428D01*
Y2191570D01*
X3768657Y2193284D01*
X3767515Y2194427D01*
X3766372Y2194998D01*
X3764658D01*
X3771857D02*
Y2187000D01*
Y2192713D02*
X3773571Y2194427D01*
X3774713Y2194998D01*
X3776427D01*
X3777570Y2194427D01*
X3778141Y2192713D01*
Y2187000D01*
X3578141Y2262000D02*
X3573570Y2273997D01*
X3569000Y2262000D01*
X3570714Y2265999D02*
X3576427D01*
X3580940Y2269998D02*
Y2264285D01*
X3581512Y2262571D01*
X3582654Y2262000D01*
X3584368D01*
X3585511Y2262571D01*
X3587225Y2264285D01*
Y2269998D02*
Y2262000D01*
X3592081Y2273997D02*
Y2264285D01*
X3592652Y2262571D01*
X3593795Y2262000D01*
X3594937D01*
X3590367Y2269998D02*
X3594366D01*
X3596651Y2273997D02*
Y2262000D01*
Y2267713D02*
X3598365Y2269427D01*
X3599508Y2269998D01*
X3601222D01*
X3602364Y2269427D01*
X3602935Y2267713D01*
Y2262000D01*
X3608934Y2269998D02*
X3607792Y2269427D01*
X3606649Y2268284D01*
X3606078Y2266570D01*
Y2265428D01*
X3606649Y2263714D01*
X3607792Y2262571D01*
X3608934Y2262000D01*
X3610648D01*
X3611791Y2262571D01*
X3612933Y2263714D01*
X3613505Y2265428D01*
Y2266570D01*
X3612933Y2268284D01*
X3611791Y2269427D01*
X3610648Y2269998D01*
X3608934D01*
X3616133D02*
Y2262000D01*
Y2266570D02*
X3616704Y2268284D01*
X3617847Y2269427D01*
X3618989Y2269998D01*
X3620703D01*
D59*
X3685000Y2809996D02*
Y2790000D01*
Y2809996D02*
X3693570D01*
X3696426Y2809044D01*
X3697378Y2808091D01*
X3698330Y2806187D01*
Y2804283D01*
X3697378Y2802378D01*
X3696426Y2801426D01*
X3693570Y2800474D01*
X3685000D02*
X3693570D01*
X3696426Y2799522D01*
X3697378Y2798570D01*
X3698330Y2796665D01*
Y2793809D01*
X3697378Y2791904D01*
X3696426Y2790952D01*
X3693570Y2790000D01*
X3685000D01*
X3708519Y2809996D02*
X3706614Y2809044D01*
X3704710Y2807139D01*
X3703758Y2805235D01*
X3702806Y2802378D01*
Y2797617D01*
X3703758Y2794761D01*
X3704710Y2792856D01*
X3706614Y2790952D01*
X3708519Y2790000D01*
X3712328D01*
X3714232Y2790952D01*
X3716136Y2792856D01*
X3717088Y2794761D01*
X3718040Y2797617D01*
Y2802378D01*
X3717088Y2805235D01*
X3716136Y2807139D01*
X3714232Y2809044D01*
X3712328Y2809996D01*
X3708519D01*
X3737941Y2790000D02*
X3730324Y2809996D01*
X3722706Y2790000D01*
X3725563Y2796665D02*
X3735085D01*
X3742607Y2809996D02*
Y2790000D01*
Y2809996D02*
X3751176D01*
X3754033Y2809044D01*
X3754985Y2808091D01*
X3755937Y2806187D01*
Y2804283D01*
X3754985Y2802378D01*
X3754033Y2801426D01*
X3751176Y2800474D01*
X3742607D01*
X3749272D02*
X3755937Y2790000D01*
X3760413Y2809996D02*
Y2790000D01*
Y2809996D02*
X3767078D01*
X3769934Y2809044D01*
X3771839Y2807139D01*
X3772791Y2805235D01*
X3773743Y2802378D01*
Y2797617D01*
X3772791Y2794761D01*
X3771839Y2792856D01*
X3769934Y2790952D01*
X3767078Y2790000D01*
X3760413D01*
X3807260Y2807139D02*
X3805355Y2809044D01*
X3802499Y2809996D01*
X3798690D01*
X3795833Y2809044D01*
X3793929Y2807139D01*
Y2805235D01*
X3794881Y2803330D01*
X3795833Y2802378D01*
X3797738Y2801426D01*
X3803451Y2799522D01*
X3805355Y2798570D01*
X3806307Y2797617D01*
X3807260Y2795713D01*
Y2792856D01*
X3805355Y2790952D01*
X3802499Y2790000D01*
X3798690D01*
X3795833Y2790952D01*
X3793929Y2792856D01*
X3811735Y2799522D02*
X3820305D01*
X3823161Y2800474D01*
X3824113Y2801426D01*
X3825065Y2803330D01*
Y2806187D01*
X3824113Y2808091D01*
X3823161Y2809044D01*
X3820305Y2809996D01*
X3811735D01*
Y2790000D01*
X3841919Y2809996D02*
X3829541D01*
Y2790000D01*
X3841919D01*
X3829541Y2800474D02*
X3837158D01*
X3859534Y2805235D02*
X3858582Y2807139D01*
X3856678Y2809044D01*
X3854773Y2809996D01*
X3850965D01*
X3849060Y2809044D01*
X3847156Y2807139D01*
X3846204Y2805235D01*
X3845251Y2802378D01*
Y2797617D01*
X3846204Y2794761D01*
X3847156Y2792856D01*
X3849060Y2790952D01*
X3850965Y2790000D01*
X3854773D01*
X3856678Y2790952D01*
X3858582Y2792856D01*
X3859534Y2794761D01*
X3865152Y2809996D02*
Y2790000D01*
X3869342Y2809996D02*
Y2790000D01*
Y2809996D02*
X3881720D01*
X3869342Y2800474D02*
X3876959D01*
X3884005Y2809996D02*
Y2790000D01*
X3902477Y2805235D02*
X3901525Y2807139D01*
X3899621Y2809044D01*
X3897716Y2809996D01*
X3893908D01*
X3892003Y2809044D01*
X3890099Y2807139D01*
X3889147Y2805235D01*
X3888195Y2802378D01*
Y2797617D01*
X3889147Y2794761D01*
X3890099Y2792856D01*
X3892003Y2790952D01*
X3893908Y2790000D01*
X3897716D01*
X3899621Y2790952D01*
X3901525Y2792856D01*
X3902477Y2794761D01*
X3923330Y2790000D02*
X3915713Y2809996D01*
X3908095Y2790000D01*
X3910952Y2796665D02*
X3920474D01*
X3934661Y2809996D02*
Y2790000D01*
X3927996Y2809996D02*
X3941326D01*
X3943707D02*
Y2790000D01*
X3953609Y2809996D02*
X3951705Y2809044D01*
X3949801Y2807139D01*
X3948848Y2805235D01*
X3947896Y2802378D01*
Y2797617D01*
X3948848Y2794761D01*
X3949801Y2792856D01*
X3951705Y2790952D01*
X3953609Y2790000D01*
X3957418D01*
X3959323Y2790952D01*
X3961227Y2792856D01*
X3962179Y2794761D01*
X3963131Y2797617D01*
Y2802378D01*
X3962179Y2805235D01*
X3961227Y2807139D01*
X3959323Y2809044D01*
X3957418Y2809996D01*
X3953609D01*
X3967797D02*
Y2790000D01*
Y2809996D02*
X3981127Y2790000D01*
Y2809996D02*
Y2790000D01*
X3999980Y2807139D02*
X3998076Y2809044D01*
X3995219Y2809996D01*
X3991411D01*
X3988554Y2809044D01*
X3986650Y2807139D01*
Y2805235D01*
X3987602Y2803330D01*
X3988554Y2802378D01*
X3990459Y2801426D01*
X3996172Y2799522D01*
X3998076Y2798570D01*
X3999028Y2797617D01*
X3999980Y2795713D01*
Y2792856D01*
X3998076Y2790952D01*
X3995219Y2790000D01*
X3991411D01*
X3988554Y2790952D01*
X3986650Y2792856D01*
D103*
X3893680Y2182610D02*
Y2197251D01*
X3881000Y2175289D02*
Y2189930D01*
X3868321Y2197251D02*
X3881000Y2189930D01*
X3893680Y2197251D01*
X3876359Y2172610D02*
X3881000Y2169930D01*
X3863680Y2179930D02*
X3876359Y2172610D01*
X3893680Y2182610D02*
X3898321Y2179930D01*
X3881000Y2169930D02*
X3898321Y2179930D01*
X3881000Y2175289D02*
X3893680Y2182610D01*
X3868321D02*
X3881000Y2175289D01*
X3868321Y2182610D02*
Y2197251D01*
X3881000Y2204571D01*
X3893680Y2197251D01*
X3881000Y2204571D02*
Y2209930D01*
X3863680Y2179930D02*
X3868321Y2182610D01*
X3863680Y2199930D02*
X3868321Y2197251D01*
X3876359Y2207251D02*
X3881000Y2209930D01*
X3893680Y2197251D02*
X3898321Y2199930D01*
X3881000Y2209930D02*
X3898321Y2199930D01*
X3863680D02*
X3881000Y2209930D01*
X3863680Y2179930D02*
Y2199930D01*
X3881000Y2169930D02*
Y2175289D01*
X3866000Y2195911D02*
Y2201270D01*
X3848680Y2205911D02*
Y2225911D01*
X3866000Y2235911D01*
X3883321Y2225911D01*
X3878680Y2223231D02*
X3883321Y2225911D01*
X3861359Y2233231D02*
X3866000Y2235911D01*
X3848680Y2225911D02*
X3853321Y2223231D01*
X3848680Y2205911D02*
X3853321Y2208590D01*
X3866000Y2230552D02*
Y2235911D01*
Y2230552D02*
X3878680Y2223231D01*
X3853321D02*
X3866000Y2230552D01*
X3853321Y2208590D02*
Y2223231D01*
Y2208590D02*
X3866000Y2201270D01*
X3878680Y2208590D01*
X3866000Y2195911D02*
X3883321Y2205911D01*
X3878680Y2208590D02*
X3883321Y2205911D01*
X3848680D02*
X3861359Y2198590D01*
X3866000Y2195911D01*
Y2215911D02*
X3878680Y2223231D01*
X3853321D02*
X3866000Y2215911D01*
Y2201270D02*
Y2215911D01*
X3878680Y2208590D02*
Y2223231D01*
D104*
X3604500Y2407497D02*
Y2398928D01*
X3605071Y2397214D01*
X3606214Y2396071D01*
X3607928Y2395500D01*
X3609070D01*
X3610784Y2396071D01*
X3611927Y2397214D01*
X3612498Y2398928D01*
Y2407497D01*
X3615812D02*
Y2395500D01*
Y2407497D02*
X3623810Y2395500D01*
Y2407497D02*
Y2395500D01*
X3627124Y2407497D02*
Y2395500D01*
X3633979D01*
X3642720Y2407497D02*
X3635293D01*
Y2395500D01*
X3642720D01*
X3635293Y2401784D02*
X3639864D01*
X3652718Y2405784D02*
X3651576Y2406926D01*
X3649861Y2407497D01*
X3647576D01*
X3645862Y2406926D01*
X3644720Y2405784D01*
Y2404641D01*
X3645291Y2403498D01*
X3645862Y2402927D01*
X3647005Y2402356D01*
X3650433Y2401213D01*
X3651576Y2400642D01*
X3652147Y2400070D01*
X3652718Y2398928D01*
Y2397214D01*
X3651576Y2396071D01*
X3649861Y2395500D01*
X3647576D01*
X3645862Y2396071D01*
X3644720Y2397214D01*
X3663401Y2405784D02*
X3662259Y2406926D01*
X3660545Y2407497D01*
X3658260D01*
X3656546Y2406926D01*
X3655403Y2405784D01*
Y2404641D01*
X3655975Y2403498D01*
X3656546Y2402927D01*
X3657689Y2402356D01*
X3661116Y2401213D01*
X3662259Y2400642D01*
X3662830Y2400070D01*
X3663401Y2398928D01*
Y2397214D01*
X3662259Y2396071D01*
X3660545Y2395500D01*
X3658260D01*
X3656546Y2396071D01*
X3655403Y2397214D01*
X3678941Y2407497D02*
X3677798Y2406926D01*
X3676656Y2405784D01*
X3676085Y2404641D01*
X3675513Y2402927D01*
Y2400070D01*
X3676085Y2398356D01*
X3676656Y2397214D01*
X3677798Y2396071D01*
X3678941Y2395500D01*
X3681226D01*
X3682369Y2396071D01*
X3683511Y2397214D01*
X3684083Y2398356D01*
X3684654Y2400070D01*
Y2402927D01*
X3684083Y2404641D01*
X3683511Y2405784D01*
X3682369Y2406926D01*
X3681226Y2407497D01*
X3678941D01*
X3691453D02*
Y2395500D01*
X3687454Y2407497D02*
X3695452D01*
X3696880D02*
Y2395500D01*
X3704879Y2407497D02*
Y2395500D01*
X3696880Y2401784D02*
X3704879D01*
X3715619Y2407497D02*
X3708192D01*
Y2395500D01*
X3715619D01*
X3708192Y2401784D02*
X3712762D01*
X3717618Y2407497D02*
Y2395500D01*
Y2407497D02*
X3722760D01*
X3724474Y2406926D01*
X3725045Y2406355D01*
X3725617Y2405212D01*
Y2404070D01*
X3725045Y2402927D01*
X3724474Y2402356D01*
X3722760Y2401784D01*
X3717618D01*
X3721618D02*
X3725617Y2395500D01*
X3728302Y2407497D02*
X3731158Y2395500D01*
X3734015Y2407497D02*
X3731158Y2395500D01*
X3734015Y2407497D02*
X3736872Y2395500D01*
X3739728Y2407497D02*
X3736872Y2395500D01*
X3742127Y2407497D02*
Y2395500D01*
X3752639Y2405784D02*
X3751497Y2406926D01*
X3749783Y2407497D01*
X3747498D01*
X3745784Y2406926D01*
X3744641Y2405784D01*
Y2404641D01*
X3745213Y2403498D01*
X3745784Y2402927D01*
X3746927Y2402356D01*
X3750354Y2401213D01*
X3751497Y2400642D01*
X3752068Y2400070D01*
X3752639Y2398928D01*
Y2397214D01*
X3751497Y2396071D01*
X3749783Y2395500D01*
X3747498D01*
X3745784Y2396071D01*
X3744641Y2397214D01*
X3762752Y2407497D02*
X3755325D01*
Y2395500D01*
X3762752D01*
X3755325Y2401784D02*
X3759895D01*
X3782176Y2405784D02*
X3781033Y2406926D01*
X3779319Y2407497D01*
X3777034D01*
X3775320Y2406926D01*
X3774178Y2405784D01*
Y2404641D01*
X3774749Y2403498D01*
X3775320Y2402927D01*
X3776463Y2402356D01*
X3779891Y2401213D01*
X3781033Y2400642D01*
X3781605Y2400070D01*
X3782176Y2398928D01*
Y2397214D01*
X3781033Y2396071D01*
X3779319Y2395500D01*
X3777034D01*
X3775320Y2396071D01*
X3774178Y2397214D01*
X3784861Y2401213D02*
X3790003D01*
X3791717Y2401784D01*
X3792288Y2402356D01*
X3792859Y2403498D01*
Y2405212D01*
X3792288Y2406355D01*
X3791717Y2406926D01*
X3790003Y2407497D01*
X3784861D01*
Y2395500D01*
X3802971Y2407497D02*
X3795545D01*
Y2395500D01*
X3802971D01*
X3795545Y2401784D02*
X3800115D01*
X3813541Y2404641D02*
X3812969Y2405784D01*
X3811827Y2406926D01*
X3810684Y2407497D01*
X3808399D01*
X3807256Y2406926D01*
X3806114Y2405784D01*
X3805543Y2404641D01*
X3804971Y2402927D01*
Y2400070D01*
X3805543Y2398356D01*
X3806114Y2397214D01*
X3807256Y2396071D01*
X3808399Y2395500D01*
X3810684D01*
X3811827Y2396071D01*
X3812969Y2397214D01*
X3813541Y2398356D01*
X3816912Y2407497D02*
Y2395500D01*
X3819425Y2407497D02*
Y2395500D01*
Y2407497D02*
X3826852D01*
X3819425Y2401784D02*
X3823996D01*
X3828223Y2407497D02*
Y2395500D01*
X3838164Y2407497D02*
X3830737D01*
Y2395500D01*
X3838164D01*
X3830737Y2401784D02*
X3835308D01*
X3840164Y2407497D02*
Y2395500D01*
Y2407497D02*
X3844163D01*
X3845877Y2406926D01*
X3847019Y2405784D01*
X3847591Y2404641D01*
X3848162Y2402927D01*
Y2400070D01*
X3847591Y2398356D01*
X3847019Y2397214D01*
X3845877Y2396071D01*
X3844163Y2395500D01*
X3840164D01*
X3604500Y2424998D02*
Y2413000D01*
Y2424998D02*
X3609070Y2413000D01*
X3613641Y2424998D02*
X3609070Y2413000D01*
X3613641Y2424998D02*
Y2413000D01*
X3626209D02*
X3621639Y2424998D01*
X3617068Y2413000D01*
X3618782Y2416999D02*
X3624496D01*
X3629009Y2424998D02*
Y2413000D01*
Y2424998D02*
X3637007Y2413000D01*
Y2424998D02*
Y2413000D01*
X3640321Y2424998D02*
Y2416428D01*
X3640892Y2414714D01*
X3642035Y2413571D01*
X3643748Y2413000D01*
X3644891D01*
X3646605Y2413571D01*
X3647748Y2414714D01*
X3648319Y2416428D01*
Y2424998D01*
X3651633D02*
Y2413000D01*
Y2424998D02*
X3659059D01*
X3651633Y2419284D02*
X3656203D01*
X3669572Y2413000D02*
X3665001Y2424998D01*
X3660431Y2413000D01*
X3662145Y2416999D02*
X3667858D01*
X3680941Y2422141D02*
X3680369Y2423284D01*
X3679227Y2424426D01*
X3678084Y2424998D01*
X3675799D01*
X3674656Y2424426D01*
X3673514Y2423284D01*
X3672943Y2422141D01*
X3672371Y2420427D01*
Y2417570D01*
X3672943Y2415857D01*
X3673514Y2414714D01*
X3674656Y2413571D01*
X3675799Y2413000D01*
X3678084D01*
X3679227Y2413571D01*
X3680369Y2414714D01*
X3680941Y2415857D01*
X3688311Y2424998D02*
Y2413000D01*
X3684312Y2424998D02*
X3692310D01*
X3693738D02*
Y2416428D01*
X3694309Y2414714D01*
X3695452Y2413571D01*
X3697166Y2413000D01*
X3698308D01*
X3700022Y2413571D01*
X3701165Y2414714D01*
X3701736Y2416428D01*
Y2424998D01*
X3705050D02*
Y2413000D01*
Y2424998D02*
X3710192D01*
X3711906Y2424426D01*
X3712477Y2423855D01*
X3713048Y2422712D01*
Y2421570D01*
X3712477Y2420427D01*
X3711906Y2419856D01*
X3710192Y2419284D01*
X3705050D01*
X3709049D02*
X3713048Y2413000D01*
X3723160Y2424998D02*
X3715733D01*
Y2413000D01*
X3723160D01*
X3715733Y2419284D02*
X3720304D01*
X3738586Y2424998D02*
Y2413000D01*
X3734586Y2424998D02*
X3742585D01*
X3747441D02*
X3746298Y2424426D01*
X3745156Y2423284D01*
X3744584Y2422141D01*
X3744013Y2420427D01*
Y2417570D01*
X3744584Y2415857D01*
X3745156Y2414714D01*
X3746298Y2413571D01*
X3747441Y2413000D01*
X3749726D01*
X3750869Y2413571D01*
X3752011Y2414714D01*
X3752582Y2415857D01*
X3753154Y2417570D01*
Y2420427D01*
X3752582Y2422141D01*
X3752011Y2423284D01*
X3750869Y2424426D01*
X3749726Y2424998D01*
X3747441D01*
X3765380D02*
Y2413000D01*
X3767893Y2418713D02*
X3773035D01*
X3774749Y2419284D01*
X3775320Y2419856D01*
X3775892Y2420998D01*
Y2422712D01*
X3775320Y2423855D01*
X3774749Y2424426D01*
X3773035Y2424998D01*
X3767893D01*
Y2413000D01*
X3787147Y2422141D02*
X3786575Y2423284D01*
X3785433Y2424426D01*
X3784290Y2424998D01*
X3782005D01*
X3780862Y2424426D01*
X3779720Y2423284D01*
X3779148Y2422141D01*
X3778577Y2420427D01*
Y2417570D01*
X3779148Y2415857D01*
X3779720Y2414714D01*
X3780862Y2413571D01*
X3782005Y2413000D01*
X3784290D01*
X3785433Y2413571D01*
X3786575Y2414714D01*
X3787147Y2415857D01*
X3790517Y2418142D02*
X3800801D01*
X3813484Y2413000D02*
X3808913Y2424998D01*
X3804343Y2413000D01*
X3806057Y2416999D02*
X3811770D01*
X3816283Y2418142D02*
X3826566D01*
X3836964Y2423284D02*
X3836393Y2424426D01*
X3834679Y2424998D01*
X3833537D01*
X3831823Y2424426D01*
X3830680Y2422712D01*
X3830109Y2419856D01*
Y2416999D01*
X3830680Y2414714D01*
X3831823Y2413571D01*
X3833537Y2413000D01*
X3834108D01*
X3835822Y2413571D01*
X3836964Y2414714D01*
X3837536Y2416428D01*
Y2416999D01*
X3836964Y2418713D01*
X3835822Y2419856D01*
X3834108Y2420427D01*
X3833537D01*
X3831823Y2419856D01*
X3830680Y2418713D01*
X3830109Y2416999D01*
X3843592Y2424998D02*
X3841878Y2424426D01*
X3840735Y2422712D01*
X3840164Y2419856D01*
Y2418142D01*
X3840735Y2415285D01*
X3841878Y2413571D01*
X3843592Y2413000D01*
X3844734D01*
X3846448Y2413571D01*
X3847591Y2415285D01*
X3848162Y2418142D01*
Y2419856D01*
X3847591Y2422712D01*
X3846448Y2424426D01*
X3844734Y2424998D01*
X3843592D01*
X3854275D02*
X3852561Y2424426D01*
X3851418Y2422712D01*
X3850847Y2419856D01*
Y2418142D01*
X3851418Y2415285D01*
X3852561Y2413571D01*
X3854275Y2413000D01*
X3855417D01*
X3857131Y2413571D01*
X3858274Y2415285D01*
X3858846Y2418142D01*
Y2419856D01*
X3858274Y2422712D01*
X3857131Y2424426D01*
X3855417Y2424998D01*
X3854275D01*
X3879527Y2422141D02*
X3878955Y2423284D01*
X3877813Y2424426D01*
X3876670Y2424998D01*
X3874385D01*
X3873242Y2424426D01*
X3872100Y2423284D01*
X3871528Y2422141D01*
X3870957Y2420427D01*
Y2417570D01*
X3871528Y2415857D01*
X3872100Y2414714D01*
X3873242Y2413571D01*
X3874385Y2413000D01*
X3876670D01*
X3877813Y2413571D01*
X3878955Y2414714D01*
X3879527Y2415857D01*
X3882897Y2424998D02*
Y2413000D01*
X3889753D01*
X3900208D02*
X3895638Y2424998D01*
X3891067Y2413000D01*
X3892781Y2416999D02*
X3898494D01*
X3911006Y2423284D02*
X3909863Y2424426D01*
X3908149Y2424998D01*
X3905864D01*
X3904150Y2424426D01*
X3903008Y2423284D01*
Y2422141D01*
X3903579Y2420998D01*
X3904150Y2420427D01*
X3905293Y2419856D01*
X3908720Y2418713D01*
X3909863Y2418142D01*
X3910434Y2417570D01*
X3911006Y2416428D01*
Y2414714D01*
X3909863Y2413571D01*
X3908149Y2413000D01*
X3905864D01*
X3904150Y2413571D01*
X3903008Y2414714D01*
X3921689Y2423284D02*
X3920547Y2424426D01*
X3918833Y2424998D01*
X3916548D01*
X3914833Y2424426D01*
X3913691Y2423284D01*
Y2422141D01*
X3914262Y2420998D01*
X3914833Y2420427D01*
X3915976Y2419856D01*
X3919404Y2418713D01*
X3920547Y2418142D01*
X3921118Y2417570D01*
X3921689Y2416428D01*
Y2414714D01*
X3920547Y2413571D01*
X3918833Y2413000D01*
X3916548D01*
X3914833Y2413571D01*
X3913691Y2414714D01*
X3934372Y2422141D02*
Y2422712D01*
X3934944Y2423855D01*
X3935515Y2424426D01*
X3936657Y2424998D01*
X3938943D01*
X3940085Y2424426D01*
X3940656Y2423855D01*
X3941228Y2422712D01*
Y2421570D01*
X3940656Y2420427D01*
X3939514Y2418713D01*
X3933801Y2413000D01*
X3941799D01*
D105*
X4070500Y2902500D02*
D03*
D106*
X3870500D02*
D03*
X3670500D02*
D03*
M02*
