G04 Layer_Physical_Order=4*
G04 Layer_Color=16711680*
%FSLAX44Y44*%
%MOMM*%
G71*
G01*
G75*
%ADD11C,0.1500*%
%ADD48C,0.4000*%
%ADD49C,0.5000*%
%ADD52C,0.1200*%
G04:AMPARAMS|DCode=53|XSize=1.5mm|YSize=1.05mm|CornerRadius=0mm|HoleSize=0mm|Usage=FLASHONLY|Rotation=45.000|XOffset=0mm|YOffset=0mm|HoleType=Round|Shape=Round|*
%AMOVALD53*
21,1,0.4500,1.0500,0.0000,0.0000,45.0*
1,1,1.0500,-0.1591,-0.1591*
1,1,1.0500,0.1591,0.1591*
%
%ADD53OVALD53*%

%ADD54O,1.5000X1.0500*%
%ADD55C,0.4000*%
%ADD56C,0.6000*%
%ADD57C,1.0000*%
%ADD58C,0.8000*%
G36*
X2939565Y2592734D02*
Y2579407D01*
X2939000Y2578069D01*
X2937634Y2577797D01*
X2936477Y2577023D01*
X2935703Y2575865D01*
X2935432Y2574500D01*
X2935703Y2573134D01*
X2936477Y2571977D01*
X2937634Y2571203D01*
X2939000Y2570931D01*
X2940366Y2571203D01*
X2941523Y2571977D01*
X2942297Y2573134D01*
X2942569Y2574500D01*
X2942548Y2574604D01*
X2943722Y2575778D01*
X2943785Y2575929D01*
X2945182Y2576800D01*
X2946547Y2576529D01*
X2946651Y2576549D01*
X2951565Y2571635D01*
Y2567802D01*
X2950064Y2567654D01*
X2949844Y2568763D01*
X2949070Y2569920D01*
X2947913Y2570694D01*
X2946547Y2570966D01*
X2945182Y2570694D01*
X2944024Y2569920D01*
X2943250Y2568763D01*
X2942979Y2567397D01*
X2943250Y2566031D01*
X2944024Y2564874D01*
X2945182Y2564100D01*
X2946547Y2563828D01*
X2946651Y2563849D01*
X2948564Y2561936D01*
Y2559225D01*
X2947065Y2558163D01*
X2946547Y2558266D01*
X2945182Y2557994D01*
X2944024Y2557220D01*
X2943250Y2556063D01*
X2942979Y2554697D01*
X2943250Y2553331D01*
X2944024Y2552174D01*
X2944112Y2552115D01*
Y2550556D01*
X2940278Y2546722D01*
X2939565Y2545000D01*
Y2533509D01*
X2937278Y2531222D01*
X2936565Y2529500D01*
Y2523500D01*
X2937278Y2521778D01*
X2939814Y2519241D01*
Y2513798D01*
X2938315Y2512996D01*
X2937865Y2513296D01*
X2936500Y2513568D01*
X2935134Y2513296D01*
X2933976Y2512523D01*
X2933203Y2511365D01*
X2932931Y2510000D01*
X2933203Y2508634D01*
X2933976Y2507476D01*
X2934037Y2507435D01*
X2933582Y2505935D01*
X2929582D01*
X2929523Y2506023D01*
X2928365Y2506797D01*
X2927000Y2507068D01*
X2925634Y2506797D01*
X2924500Y2506039D01*
X2923365Y2506797D01*
X2922000Y2507068D01*
X2920634Y2506797D01*
X2919500Y2506039D01*
X2918365Y2506797D01*
X2917000Y2507068D01*
X2915634Y2506797D01*
X2914500Y2506039D01*
X2913365Y2506797D01*
X2912000Y2507068D01*
X2910935Y2506857D01*
X2909894Y2507416D01*
X2909435Y2507800D01*
Y2548200D01*
X2909894Y2548584D01*
X2910935Y2549143D01*
X2912000Y2548931D01*
X2913365Y2549203D01*
X2914500Y2549961D01*
X2915634Y2549203D01*
X2917000Y2548931D01*
X2918365Y2549203D01*
X2919500Y2549961D01*
X2920634Y2549203D01*
X2922000Y2548931D01*
X2923366Y2549203D01*
X2924500Y2549961D01*
X2925634Y2549203D01*
X2927000Y2548931D01*
X2928365Y2549203D01*
X2929523Y2549977D01*
X2930297Y2551134D01*
X2930569Y2552500D01*
X2930297Y2553866D01*
X2929523Y2555023D01*
X2929435Y2555082D01*
Y2573991D01*
X2936222Y2580778D01*
X2936935Y2582500D01*
Y2593014D01*
X2937113Y2593461D01*
X2938173Y2593764D01*
X2939565Y2592734D01*
D02*
G37*
G36*
X2782262Y2899822D02*
X2784495Y2898330D01*
X2787129Y2897807D01*
X2788424Y2898064D01*
X2789485Y2897003D01*
X2789227Y2895709D01*
X2789751Y2893075D01*
X2791243Y2890842D01*
X2793475Y2889350D01*
X2796109Y2888826D01*
X2797404Y2889084D01*
X2798465Y2888023D01*
X2798207Y2886729D01*
X2798731Y2884095D01*
X2800223Y2881862D01*
X2802456Y2880370D01*
X2805089Y2879846D01*
X2806384Y2880104D01*
X2807445Y2879043D01*
X2807188Y2877748D01*
X2807711Y2875114D01*
X2809203Y2872882D01*
X2811436Y2871390D01*
X2814070Y2870866D01*
X2815365Y2871123D01*
X2816425Y2870063D01*
X2816168Y2868768D01*
X2816692Y2866134D01*
X2818184Y2863901D01*
X2820416Y2862409D01*
X2823050Y2861886D01*
X2824345Y2862143D01*
X2825406Y2861082D01*
X2825148Y2859788D01*
X2825672Y2857154D01*
X2827164Y2854921D01*
X2829396Y2853429D01*
X2832030Y2852905D01*
X2833325Y2853163D01*
X2834386Y2852102D01*
X2834128Y2850807D01*
X2834652Y2848174D01*
X2836144Y2845941D01*
X2838377Y2844449D01*
X2841010Y2843925D01*
X2842305Y2844183D01*
X2843366Y2843122D01*
X2843109Y2841827D01*
X2843632Y2839193D01*
X2845124Y2836960D01*
X2847357Y2835469D01*
X2849991Y2834945D01*
X2851286Y2835203D01*
X2852346Y2834142D01*
X2852089Y2832847D01*
X2852613Y2830213D01*
X2854105Y2827980D01*
X2856337Y2826489D01*
X2858971Y2825965D01*
X2860266Y2826222D01*
X2861327Y2825162D01*
X2861069Y2823867D01*
X2861593Y2821233D01*
X2863085Y2819000D01*
X2865317Y2817508D01*
X2867951Y2816984D01*
X2869246Y2817242D01*
X2870307Y2816181D01*
X2870049Y2814886D01*
X2870573Y2812253D01*
X2872065Y2810020D01*
X2874298Y2808528D01*
X2876931Y2808004D01*
X2878226Y2808262D01*
X2879287Y2807201D01*
X2879030Y2805906D01*
X2879553Y2803272D01*
X2880620Y2801675D01*
X2886972Y2808027D01*
X2888033Y2806967D01*
X2881681Y2800615D01*
X2883278Y2799548D01*
X2885912Y2799024D01*
X2887207Y2799281D01*
X2888268Y2798221D01*
X2888010Y2796926D01*
X2888534Y2794292D01*
X2890026Y2792059D01*
X2892258Y2790567D01*
X2894892Y2790044D01*
X2896187Y2790301D01*
X2897248Y2789240D01*
X2896990Y2787946D01*
X2897514Y2785312D01*
X2899006Y2783079D01*
X2901238Y2781587D01*
X2903872Y2781063D01*
X2905167Y2781321D01*
X2906228Y2780260D01*
X2905970Y2778965D01*
X2906494Y2776331D01*
X2907986Y2774099D01*
X2910219Y2772607D01*
X2912852Y2772083D01*
X2914148Y2772341D01*
X2915208Y2771280D01*
X2914951Y2769985D01*
X2915475Y2767351D01*
X2916966Y2765119D01*
X2919199Y2763627D01*
X2921833Y2763103D01*
X2923128Y2763360D01*
X2924189Y2762300D01*
X2923931Y2761005D01*
X2924455Y2758371D01*
X2925946Y2756138D01*
X2928179Y2754646D01*
X2930813Y2754123D01*
X2932108Y2754380D01*
X2933169Y2753319D01*
X2932911Y2752025D01*
X2933435Y2749391D01*
X2934927Y2747158D01*
X2937160Y2745666D01*
X2939793Y2745142D01*
X2941088Y2745400D01*
X2942149Y2744339D01*
X2941891Y2743044D01*
X2942415Y2740410D01*
X2943907Y2738178D01*
X2946140Y2736686D01*
X2948773Y2736162D01*
X2950068Y2736420D01*
X2951129Y2735359D01*
X2950872Y2734064D01*
X2951395Y2731430D01*
X2952887Y2729197D01*
X2955120Y2727706D01*
X2957754Y2727182D01*
X2960388Y2727706D01*
X2962620Y2729197D01*
X2965802Y2732379D01*
X2967294Y2734612D01*
X2967818Y2737246D01*
X2967638Y2738151D01*
X2967785Y2738286D01*
X2969810Y2738142D01*
X2972282Y2735130D01*
X2974832Y2730359D01*
X2976403Y2725183D01*
X2976933Y2719800D01*
X2976941D01*
Y2715087D01*
X2975441Y2714632D01*
X2974616Y2715866D01*
X2972384Y2717358D01*
X2969750Y2717882D01*
X2965250D01*
X2962616Y2717358D01*
X2960383Y2715866D01*
X2958892Y2713634D01*
X2958368Y2711000D01*
X2958892Y2708366D01*
X2960383Y2706133D01*
X2961481Y2705400D01*
Y2703900D01*
X2960383Y2703166D01*
X2958892Y2700934D01*
X2958368Y2698300D01*
X2958892Y2695666D01*
X2960383Y2693434D01*
X2961481Y2692700D01*
Y2691200D01*
X2960383Y2690466D01*
X2958892Y2688234D01*
X2958368Y2685600D01*
X2958892Y2682966D01*
X2960383Y2680733D01*
X2961481Y2680000D01*
Y2678500D01*
X2960383Y2677766D01*
X2958892Y2675534D01*
X2958368Y2672900D01*
X2958892Y2670266D01*
X2960383Y2668033D01*
X2961481Y2667300D01*
Y2665800D01*
X2960383Y2665066D01*
X2958892Y2662834D01*
X2958368Y2660200D01*
X2958892Y2657566D01*
X2960383Y2655333D01*
X2961481Y2654600D01*
Y2653100D01*
X2960383Y2652366D01*
X2958892Y2650134D01*
X2958368Y2647500D01*
X2958892Y2644866D01*
X2960383Y2642633D01*
X2961481Y2641900D01*
Y2640400D01*
X2960383Y2639666D01*
X2958892Y2637433D01*
X2958368Y2634800D01*
X2958892Y2632166D01*
X2960383Y2629933D01*
X2961481Y2629200D01*
Y2627700D01*
X2960383Y2626966D01*
X2958892Y2624734D01*
X2958368Y2622100D01*
X2958892Y2619466D01*
X2960383Y2617233D01*
X2961481Y2616500D01*
Y2615000D01*
X2960383Y2614266D01*
X2958892Y2612034D01*
X2958368Y2609400D01*
X2958892Y2606766D01*
X2960383Y2604533D01*
X2961481Y2603800D01*
Y2602300D01*
X2960383Y2601566D01*
X2958892Y2599333D01*
X2958368Y2596700D01*
X2958892Y2594066D01*
X2960383Y2591833D01*
X2961481Y2591100D01*
Y2589600D01*
X2960383Y2588866D01*
X2958892Y2586634D01*
X2958748Y2585911D01*
X2957312Y2585476D01*
X2950095Y2592693D01*
X2950116Y2592797D01*
X2949844Y2594163D01*
X2949070Y2595320D01*
X2947913Y2596094D01*
X2946547Y2596366D01*
X2945935Y2596244D01*
X2944435Y2597262D01*
Y2601032D01*
X2945935Y2602050D01*
X2946547Y2601928D01*
X2947913Y2602200D01*
X2949070Y2602974D01*
X2949844Y2604131D01*
X2950116Y2605497D01*
X2949844Y2606863D01*
X2949070Y2608020D01*
X2947913Y2608794D01*
X2946547Y2609066D01*
X2945935Y2608944D01*
X2944435Y2609962D01*
Y2612641D01*
X2946443Y2614649D01*
X2946547Y2614629D01*
X2947913Y2614900D01*
X2949070Y2615674D01*
X2949844Y2616831D01*
X2950116Y2618197D01*
X2949844Y2619563D01*
X2949070Y2620721D01*
X2948300Y2621235D01*
X2947861Y2622917D01*
X2948269Y2623325D01*
X2948478Y2623829D01*
X2948983Y2625047D01*
Y2628315D01*
X2949070Y2628374D01*
X2949844Y2629532D01*
X2950116Y2630897D01*
X2949844Y2632263D01*
X2949070Y2633420D01*
X2947913Y2634194D01*
X2946547Y2634466D01*
X2945935Y2634344D01*
X2944435Y2635362D01*
Y2638041D01*
X2946443Y2640049D01*
X2946547Y2640028D01*
X2947913Y2640300D01*
X2949070Y2641074D01*
X2949844Y2642231D01*
X2950116Y2643597D01*
X2949844Y2644963D01*
X2949070Y2646120D01*
X2947913Y2646894D01*
X2946547Y2647166D01*
X2945182Y2646894D01*
X2944024Y2646120D01*
X2943250Y2644963D01*
X2943213Y2644777D01*
X2942935Y2644626D01*
X2941436Y2645520D01*
Y2647741D01*
X2946443Y2652749D01*
X2946547Y2652729D01*
X2947913Y2653000D01*
X2949070Y2653774D01*
X2949844Y2654931D01*
X2950116Y2656297D01*
X2949844Y2657663D01*
X2949070Y2658820D01*
X2947913Y2659594D01*
X2946547Y2659866D01*
X2945935Y2659744D01*
X2944435Y2660762D01*
Y2664532D01*
X2945935Y2665550D01*
X2946547Y2665428D01*
X2947913Y2665700D01*
X2949070Y2666474D01*
X2949844Y2667632D01*
X2950116Y2668997D01*
X2949844Y2670363D01*
X2949070Y2671520D01*
X2947913Y2672294D01*
X2946547Y2672566D01*
X2945935Y2672444D01*
X2944435Y2673462D01*
Y2676141D01*
X2946443Y2678149D01*
X2946547Y2678128D01*
X2947913Y2678400D01*
X2949070Y2679174D01*
X2949844Y2680331D01*
X2950116Y2681697D01*
X2949844Y2683063D01*
X2949070Y2684221D01*
X2947913Y2684994D01*
X2946547Y2685266D01*
X2945182Y2684994D01*
X2944024Y2684221D01*
X2943250Y2683063D01*
X2943213Y2682876D01*
X2942935Y2682726D01*
X2941435Y2683620D01*
Y2685841D01*
X2946443Y2690849D01*
X2946547Y2690829D01*
X2947913Y2691100D01*
X2949070Y2691874D01*
X2949844Y2693031D01*
X2950116Y2694397D01*
X2949844Y2695763D01*
X2949070Y2696920D01*
X2947913Y2697694D01*
X2946547Y2697966D01*
X2945182Y2697694D01*
X2944024Y2696920D01*
X2943250Y2695763D01*
X2942979Y2694397D01*
X2942999Y2694293D01*
X2937278Y2688572D01*
X2936565Y2686850D01*
Y2684100D01*
X2935065Y2683715D01*
X2934524Y2684524D01*
X2933366Y2685298D01*
X2932001Y2685569D01*
X2930635Y2685298D01*
X2929477Y2684524D01*
X2928704Y2683366D01*
X2928432Y2682001D01*
Y2678001D01*
X2928704Y2676635D01*
X2929477Y2675477D01*
X2930635Y2674704D01*
X2932001Y2674432D01*
X2933366Y2674704D01*
X2934524Y2675477D01*
X2935065Y2676286D01*
X2936565Y2675901D01*
Y2658751D01*
X2931278Y2653464D01*
X2930565Y2651742D01*
Y2629479D01*
X2919278Y2618192D01*
X2918564Y2616470D01*
Y2603009D01*
X2910278Y2594722D01*
X2910184Y2594496D01*
X2909477Y2594023D01*
X2908703Y2592866D01*
X2908431Y2591500D01*
X2908703Y2590134D01*
X2909477Y2588976D01*
X2910634Y2588203D01*
X2912000Y2587931D01*
X2913365Y2588203D01*
X2914500Y2588961D01*
X2915634Y2588203D01*
X2917000Y2587931D01*
X2918365Y2588203D01*
X2919500Y2588961D01*
X2920634Y2588203D01*
X2922000Y2587931D01*
X2923366Y2588203D01*
X2924500Y2588961D01*
X2925634Y2588203D01*
X2927000Y2587931D01*
X2927378Y2588007D01*
X2928624Y2587085D01*
X2928717Y2585661D01*
X2920278Y2577222D01*
X2919565Y2575500D01*
Y2575220D01*
X2918065Y2574765D01*
X2917744Y2575244D01*
X2916256Y2576239D01*
X2914500Y2576588D01*
X2912744Y2576239D01*
X2911256Y2575244D01*
X2910261Y2573756D01*
X2909912Y2572000D01*
X2910261Y2570244D01*
X2911256Y2568755D01*
X2912744Y2567761D01*
X2914500Y2567412D01*
X2916256Y2567761D01*
X2917744Y2568755D01*
X2918065Y2569235D01*
X2919565Y2568780D01*
Y2556800D01*
X2919106Y2556416D01*
X2918065Y2555857D01*
X2917000Y2556068D01*
X2915634Y2555797D01*
X2914500Y2555039D01*
X2913365Y2555797D01*
X2912000Y2556068D01*
X2910634Y2555797D01*
X2909500Y2555039D01*
X2908365Y2555797D01*
X2907000Y2556069D01*
X2905634Y2555797D01*
X2904500Y2555039D01*
X2903365Y2555797D01*
X2902000Y2556069D01*
X2900634Y2555797D01*
X2899500Y2555039D01*
X2898366Y2555797D01*
X2897000Y2556068D01*
X2895634Y2555797D01*
X2894477Y2555023D01*
X2893703Y2553866D01*
X2893431Y2552500D01*
X2893703Y2551134D01*
X2894477Y2549977D01*
X2894898Y2549695D01*
X2895278Y2548778D01*
X2898564Y2545491D01*
Y2516057D01*
X2892625Y2510117D01*
X2891912Y2508395D01*
Y2497788D01*
X2892416Y2496571D01*
X2892625Y2496066D01*
X2894565Y2494127D01*
Y2467082D01*
X2894477Y2467023D01*
X2893703Y2465865D01*
X2893431Y2464500D01*
X2893703Y2463134D01*
X2894477Y2461976D01*
X2895634Y2461203D01*
X2897000Y2460931D01*
X2898365Y2461203D01*
X2899500Y2461961D01*
X2900634Y2461203D01*
X2902000Y2460931D01*
X2903365Y2461203D01*
X2904500Y2461961D01*
X2905634Y2461203D01*
X2907000Y2460931D01*
X2908365Y2461203D01*
X2909500Y2461961D01*
X2910634Y2461203D01*
X2912000Y2460931D01*
X2913365Y2461203D01*
X2914500Y2461961D01*
X2915634Y2461203D01*
X2917000Y2460931D01*
X2918365Y2461203D01*
X2919500Y2461961D01*
X2920634Y2461203D01*
X2922000Y2460931D01*
X2923365Y2461203D01*
X2924500Y2461961D01*
X2925634Y2461203D01*
X2927000Y2460931D01*
X2928365Y2461203D01*
X2929523Y2461976D01*
X2930297Y2463134D01*
X2930482Y2464064D01*
X2943495D01*
X2944024Y2463274D01*
X2945182Y2462500D01*
X2946547Y2462229D01*
X2947913Y2462500D01*
X2949070Y2463274D01*
X2949844Y2464431D01*
X2950116Y2465797D01*
X2949844Y2467163D01*
X2949070Y2468320D01*
X2947913Y2469094D01*
X2946547Y2469366D01*
X2945182Y2469094D01*
X2944944Y2468935D01*
X2942389D01*
X2941815Y2470321D01*
X2946443Y2474949D01*
X2946547Y2474928D01*
X2947913Y2475200D01*
X2949070Y2475974D01*
X2949844Y2477131D01*
X2950116Y2478497D01*
X2949844Y2479863D01*
X2949070Y2481020D01*
X2947913Y2481794D01*
X2946547Y2482066D01*
X2945182Y2481794D01*
X2944024Y2481020D01*
X2943250Y2479863D01*
X2942979Y2478497D01*
X2942999Y2478393D01*
X2937541Y2472935D01*
X2924500D01*
X2922778Y2472222D01*
X2920278Y2469722D01*
X2919824Y2468626D01*
X2918553Y2467903D01*
X2918065Y2467857D01*
X2917000Y2468068D01*
X2915634Y2467797D01*
X2914500Y2467039D01*
X2913365Y2467797D01*
X2912000Y2468068D01*
X2910935Y2467857D01*
X2909894Y2468416D01*
X2909435Y2468800D01*
Y2480780D01*
X2910935Y2481235D01*
X2911255Y2480755D01*
X2912744Y2479761D01*
X2914500Y2479412D01*
X2916256Y2479761D01*
X2917744Y2480755D01*
X2918739Y2482244D01*
X2919088Y2484000D01*
X2918739Y2485756D01*
X2917744Y2487244D01*
X2916256Y2488239D01*
X2914500Y2488588D01*
X2912744Y2488239D01*
X2911255Y2487244D01*
X2910935Y2486765D01*
X2909435Y2487220D01*
Y2498499D01*
X2910935Y2499120D01*
X2915778Y2494278D01*
X2916282Y2494069D01*
X2917500Y2493564D01*
X2936197D01*
X2936565Y2493015D01*
Y2489082D01*
X2936476Y2489023D01*
X2935703Y2487865D01*
X2935431Y2486500D01*
X2935703Y2485134D01*
X2936476Y2483976D01*
X2937634Y2483203D01*
X2939000Y2482931D01*
X2940366Y2483203D01*
X2941523Y2483976D01*
X2942297Y2485134D01*
X2942568Y2486500D01*
X2942297Y2487865D01*
X2941523Y2489023D01*
X2941435Y2489082D01*
Y2490640D01*
X2941547Y2490707D01*
X2943224Y2489963D01*
X2943250Y2489832D01*
X2944024Y2488674D01*
X2945182Y2487900D01*
X2946547Y2487628D01*
X2947913Y2487900D01*
X2949070Y2488674D01*
X2949844Y2489832D01*
X2950116Y2491197D01*
X2949844Y2492563D01*
X2949070Y2493721D01*
X2947913Y2494494D01*
X2946547Y2494766D01*
X2946259Y2494708D01*
X2945520Y2496091D01*
X2955722Y2506293D01*
X2955931Y2506797D01*
X2956435Y2508015D01*
Y2532114D01*
X2956921Y2532690D01*
X2956992Y2532726D01*
X2958622Y2531919D01*
X2958892Y2530566D01*
X2960383Y2528333D01*
X2961481Y2527600D01*
Y2526100D01*
X2960383Y2525366D01*
X2958892Y2523134D01*
X2958517Y2521250D01*
X2967500D01*
Y2519750D01*
X2958517D01*
X2958892Y2517866D01*
X2960383Y2515633D01*
X2961481Y2514900D01*
Y2513400D01*
X2960383Y2512666D01*
X2958892Y2510434D01*
X2958368Y2507800D01*
X2958892Y2505166D01*
X2960383Y2502933D01*
X2961481Y2502200D01*
Y2500700D01*
X2960383Y2499966D01*
X2958892Y2497734D01*
X2958368Y2495100D01*
X2958892Y2492466D01*
X2960383Y2490233D01*
X2961481Y2489500D01*
Y2488000D01*
X2960383Y2487266D01*
X2958892Y2485034D01*
X2958368Y2482400D01*
X2958892Y2479766D01*
X2960383Y2477533D01*
X2961481Y2476800D01*
Y2475300D01*
X2960383Y2474566D01*
X2958892Y2472334D01*
X2958517Y2470450D01*
X2967500D01*
Y2469700D01*
X2968250D01*
Y2462818D01*
X2969750D01*
X2972384Y2463342D01*
X2974141Y2464516D01*
X2975570Y2464104D01*
X2975780Y2463944D01*
X2975878Y2463438D01*
X2974149Y2460851D01*
X2971006Y2458751D01*
X2967413Y2458036D01*
X2967300Y2458059D01*
X2842111D01*
Y2494111D01*
X2793806Y2522000D01*
X2788299D01*
X2787068Y2523500D01*
X2787068Y2523500D01*
X2786797Y2524866D01*
X2786023Y2526023D01*
X2784865Y2526797D01*
X2783499Y2527069D01*
X2782134Y2526797D01*
X2780976Y2526023D01*
X2780203Y2524866D01*
X2779931Y2523500D01*
X2779931Y2523500D01*
X2778700Y2522000D01*
X2775207D01*
X2770559Y2537937D01*
Y2547489D01*
X2772059Y2547944D01*
X2772814Y2546814D01*
X2774964Y2545377D01*
X2776352Y2545101D01*
X2779477Y2541976D01*
X2780634Y2541203D01*
X2781270Y2541076D01*
X2782029Y2539546D01*
X2782029Y2539512D01*
X2781377Y2538536D01*
X2780872Y2536000D01*
X2781377Y2533464D01*
X2782814Y2531314D01*
X2784964Y2529877D01*
X2787500Y2529373D01*
X2790036Y2529877D01*
X2792186Y2531314D01*
X2793623Y2533464D01*
X2794048Y2535605D01*
X2812509Y2554064D01*
X2824985D01*
X2826707Y2554778D01*
X2838722Y2566793D01*
X2838931Y2567297D01*
X2839435Y2568514D01*
Y2630006D01*
X2841722Y2632292D01*
X2842435Y2634015D01*
Y2651242D01*
X2841722Y2652964D01*
X2832964Y2661722D01*
X2831242Y2662435D01*
X2811200D01*
X2809478Y2661722D01*
X2804705Y2656949D01*
X2802900Y2657308D01*
X2800754Y2656881D01*
X2798935Y2655665D01*
X2797719Y2653846D01*
X2797292Y2651700D01*
X2797719Y2649554D01*
X2798935Y2647735D01*
X2800754Y2646519D01*
X2802900Y2646092D01*
X2805046Y2646519D01*
X2806865Y2647735D01*
X2808081Y2649554D01*
X2808508Y2651700D01*
X2808148Y2653505D01*
X2809134Y2654490D01*
X2809776Y2654168D01*
X2810371Y2653606D01*
X2809992Y2651700D01*
X2810419Y2649554D01*
X2811635Y2647735D01*
X2813454Y2646519D01*
X2815600Y2646092D01*
X2817746Y2646519D01*
X2819565Y2647735D01*
X2820781Y2649554D01*
X2821208Y2651700D01*
X2820849Y2653505D01*
X2821909Y2654565D01*
X2828991D01*
X2830483Y2653072D01*
X2829745Y2651690D01*
X2828300Y2651977D01*
X2825764Y2651473D01*
X2823614Y2650036D01*
X2822177Y2647886D01*
X2821673Y2645350D01*
X2822177Y2642814D01*
X2823614Y2640663D01*
X2825764Y2639227D01*
X2828300Y2638723D01*
X2830836Y2639227D01*
X2832986Y2640663D01*
X2833065Y2640781D01*
X2834565Y2640326D01*
Y2636266D01*
X2832278Y2633979D01*
X2831782Y2632783D01*
X2830179Y2632265D01*
X2829222Y2633222D01*
X2827500Y2633935D01*
X2820414D01*
X2819833Y2635435D01*
X2820781Y2636854D01*
X2821208Y2639000D01*
X2820781Y2641146D01*
X2819565Y2642965D01*
X2817746Y2644181D01*
X2815600Y2644608D01*
X2813454Y2644181D01*
X2811635Y2642965D01*
X2810419Y2641146D01*
X2809992Y2639000D01*
X2810371Y2637094D01*
X2809776Y2636531D01*
X2809134Y2636210D01*
X2808148Y2637195D01*
X2808508Y2639000D01*
X2808081Y2641146D01*
X2806865Y2642965D01*
X2805046Y2644181D01*
X2802900Y2644608D01*
X2800754Y2644181D01*
X2798935Y2642965D01*
X2797719Y2641146D01*
X2797292Y2639000D01*
X2797719Y2636854D01*
X2798935Y2635034D01*
X2800754Y2633819D01*
X2802900Y2633392D01*
X2804705Y2633751D01*
X2808678Y2629778D01*
X2809182Y2629569D01*
X2810400Y2629065D01*
X2826491D01*
X2828564Y2626991D01*
Y2572009D01*
X2821491Y2564935D01*
X2794000D01*
X2792782Y2564431D01*
X2792278Y2564222D01*
X2783846Y2555790D01*
X2782353Y2555937D01*
X2782186Y2556186D01*
X2780036Y2557623D01*
X2779373Y2557755D01*
X2779156Y2558067D01*
X2778804Y2559397D01*
X2779297Y2560134D01*
X2779568Y2561500D01*
X2779297Y2562866D01*
X2778523Y2564023D01*
X2777508Y2564702D01*
X2777432Y2565500D01*
X2777508Y2566298D01*
X2778523Y2566977D01*
X2779297Y2568134D01*
X2779568Y2569500D01*
X2779297Y2570865D01*
X2778523Y2572023D01*
X2777508Y2572702D01*
X2777432Y2573500D01*
X2777508Y2574298D01*
X2778523Y2574977D01*
X2779297Y2576134D01*
X2779568Y2577500D01*
X2779297Y2578865D01*
X2778523Y2580023D01*
X2777508Y2580702D01*
X2777432Y2581500D01*
X2777508Y2582298D01*
X2778523Y2582976D01*
X2779297Y2584134D01*
X2779568Y2585500D01*
X2779297Y2586866D01*
X2778523Y2588023D01*
X2777508Y2588702D01*
X2777432Y2589500D01*
X2777508Y2590298D01*
X2778523Y2590976D01*
X2779297Y2592134D01*
X2779568Y2593500D01*
X2779297Y2594865D01*
X2778523Y2596023D01*
X2777508Y2596702D01*
X2777432Y2597500D01*
X2777508Y2598298D01*
X2778523Y2598976D01*
X2779297Y2600134D01*
X2779568Y2601500D01*
X2779297Y2602865D01*
X2778523Y2604023D01*
X2777365Y2604797D01*
X2776000Y2605068D01*
X2774634Y2604797D01*
X2773477Y2604023D01*
X2772703Y2602865D01*
X2772431Y2601500D01*
X2772703Y2600134D01*
X2773477Y2598976D01*
X2774492Y2598298D01*
X2774568Y2597500D01*
X2774492Y2596702D01*
X2773477Y2596023D01*
X2772703Y2594865D01*
X2772617Y2594431D01*
X2772059Y2594213D01*
X2770559Y2595237D01*
Y2631188D01*
X2772059Y2631644D01*
X2772814Y2630514D01*
X2774964Y2629077D01*
X2777500Y2628572D01*
X2780036Y2629077D01*
X2781138Y2629813D01*
X2781550Y2629766D01*
X2782971Y2629234D01*
X2783477Y2628477D01*
X2784634Y2627703D01*
X2786000Y2627431D01*
X2787365Y2627703D01*
X2788523Y2628477D01*
X2789297Y2629634D01*
X2789568Y2631000D01*
X2789364Y2632029D01*
X2789976Y2633027D01*
X2790390Y2633430D01*
X2792346Y2633819D01*
X2794165Y2635034D01*
X2795381Y2636854D01*
X2795658Y2638250D01*
X2790200D01*
Y2639000D01*
X2789450D01*
Y2644459D01*
X2788054Y2644181D01*
X2786235Y2642965D01*
X2785019Y2641146D01*
X2784592Y2639000D01*
X2784596Y2638979D01*
X2783183Y2638394D01*
X2782186Y2639886D01*
X2780036Y2641323D01*
X2777500Y2641827D01*
X2774964Y2641323D01*
X2772814Y2639886D01*
X2772059Y2638756D01*
X2770559Y2639211D01*
Y2651489D01*
X2772059Y2651943D01*
X2772814Y2650814D01*
X2774964Y2649377D01*
X2777500Y2648872D01*
X2780036Y2649377D01*
X2782186Y2650814D01*
X2783183Y2652306D01*
X2784596Y2651721D01*
X2784592Y2651700D01*
X2785019Y2649554D01*
X2786235Y2647735D01*
X2788054Y2646519D01*
X2790200Y2646092D01*
X2792346Y2646519D01*
X2794165Y2647735D01*
X2795381Y2649554D01*
X2795807Y2651700D01*
X2795381Y2653846D01*
X2794165Y2655665D01*
X2792346Y2656881D01*
X2790200Y2657308D01*
X2788054Y2656881D01*
X2786235Y2655665D01*
X2785458Y2654503D01*
X2784045Y2655089D01*
X2784127Y2655500D01*
X2783623Y2658036D01*
X2782186Y2660186D01*
X2780036Y2661623D01*
X2777500Y2662127D01*
X2774964Y2661623D01*
X2772814Y2660186D01*
X2772059Y2659056D01*
X2770559Y2659511D01*
Y2750429D01*
X2770580D01*
X2771057Y2754050D01*
X2772455Y2757424D01*
X2774621Y2760248D01*
X2774744Y2760256D01*
X2774744D01*
X2777961Y2764449D01*
X2779983Y2769331D01*
X2780673Y2774571D01*
X2780559D01*
Y2872149D01*
X2782059Y2872448D01*
X2782377Y2871678D01*
X2790064Y2863991D01*
Y2822012D01*
X2790680Y2820528D01*
X2790636Y2820308D01*
X2790907Y2818942D01*
X2791681Y2817784D01*
X2792839Y2817011D01*
X2794204Y2816739D01*
X2795570Y2817011D01*
X2796728Y2817784D01*
X2797501Y2818942D01*
X2797767Y2820280D01*
X2799106Y2820546D01*
X2800263Y2821320D01*
X2801037Y2822478D01*
X2801303Y2823816D01*
X2802641Y2824082D01*
X2803799Y2824855D01*
X2804572Y2826013D01*
X2804839Y2827351D01*
X2806176Y2827617D01*
X2807334Y2828391D01*
X2808108Y2829549D01*
X2808380Y2830914D01*
X2808108Y2832280D01*
X2807334Y2833438D01*
X2806176Y2834211D01*
X2804811Y2834483D01*
X2804496Y2835949D01*
Y2837980D01*
X2805995Y2838846D01*
X2806932Y2838659D01*
X2808298Y2838931D01*
X2809456Y2839704D01*
X2810229Y2840862D01*
X2810501Y2842227D01*
X2810229Y2843593D01*
X2809456Y2844751D01*
X2808298Y2845525D01*
X2806932Y2845796D01*
X2805995Y2845610D01*
X2804496Y2846476D01*
Y2858897D01*
X2804583Y2858956D01*
X2805357Y2860114D01*
X2805629Y2861479D01*
X2805357Y2862845D01*
X2804583Y2864003D01*
X2803426Y2864777D01*
X2802060Y2865048D01*
X2800935Y2864825D01*
X2800109Y2865224D01*
X2799435Y2865739D01*
Y2866540D01*
X2798722Y2868262D01*
X2796628Y2870356D01*
X2796648Y2870460D01*
X2796377Y2871826D01*
X2795603Y2872983D01*
X2794445Y2873757D01*
X2793080Y2874029D01*
X2791714Y2873757D01*
X2790556Y2872983D01*
X2790366Y2872699D01*
X2788494Y2872450D01*
X2786535Y2874409D01*
Y2876858D01*
X2786623Y2876917D01*
X2787397Y2878075D01*
X2787668Y2879440D01*
X2787397Y2880806D01*
X2786623Y2881964D01*
X2785465Y2882737D01*
X2784099Y2883009D01*
X2782734Y2882737D01*
X2782059Y2882286D01*
X2780587Y2882923D01*
X2780559Y2882950D01*
Y2899673D01*
X2782059Y2900127D01*
X2782262Y2899822D01*
D02*
G37*
%LPC*%
G36*
X2910500Y2625068D02*
X2909135Y2624796D01*
X2907977Y2624023D01*
X2907203Y2622865D01*
X2906931Y2621500D01*
X2907203Y2620134D01*
X2907977Y2618976D01*
X2909135Y2618203D01*
X2910500Y2617931D01*
X2911866Y2618203D01*
X2913023Y2618976D01*
X2913797Y2620134D01*
X2914069Y2621500D01*
X2913797Y2622865D01*
X2913023Y2624023D01*
X2911866Y2624796D01*
X2910500Y2625068D01*
D02*
G37*
G36*
X2910500Y2616069D02*
X2909135Y2615797D01*
X2907977Y2615023D01*
X2907203Y2613866D01*
X2906931Y2612500D01*
X2907203Y2611135D01*
X2907977Y2609977D01*
X2909135Y2609203D01*
X2910500Y2608932D01*
X2911866Y2609203D01*
X2913023Y2609977D01*
X2913797Y2611135D01*
X2914069Y2612500D01*
X2913797Y2613866D01*
X2913023Y2615023D01*
X2911866Y2615797D01*
X2910500Y2616069D01*
D02*
G37*
G36*
X2910500Y2634068D02*
X2909135Y2633796D01*
X2907977Y2633023D01*
X2907203Y2631865D01*
X2906931Y2630500D01*
X2907203Y2629134D01*
X2907977Y2627976D01*
X2909135Y2627202D01*
X2910500Y2626931D01*
X2911866Y2627202D01*
X2913023Y2627976D01*
X2913797Y2629134D01*
X2914069Y2630500D01*
X2913797Y2631865D01*
X2913023Y2633023D01*
X2911866Y2633796D01*
X2910500Y2634068D01*
D02*
G37*
G36*
X2836855Y2701802D02*
X2835294Y2701491D01*
X2833971Y2700607D01*
X2833087Y2699284D01*
X2832777Y2697723D01*
X2833087Y2696163D01*
X2833971Y2694840D01*
X2836800Y2692011D01*
X2836800Y2692011D01*
X2838123Y2691127D01*
X2839512Y2690851D01*
X2839980Y2690613D01*
X2840872Y2690000D01*
X2841377Y2687464D01*
X2842814Y2685314D01*
X2844964Y2683877D01*
X2847500Y2683372D01*
X2848217Y2683515D01*
X2869922Y2661811D01*
Y2591500D01*
X2869922Y2591500D01*
X2870180Y2590198D01*
X2870232Y2589939D01*
X2871116Y2588616D01*
X2878922Y2580811D01*
Y2534063D01*
X2877439Y2533768D01*
X2876116Y2532884D01*
X2875232Y2531561D01*
X2874922Y2530000D01*
X2875232Y2528439D01*
X2876116Y2527116D01*
X2877439Y2526232D01*
X2879000Y2525921D01*
X2887000D01*
X2888560Y2526232D01*
X2889884Y2527116D01*
X2890768Y2528439D01*
X2891078Y2530000D01*
X2890768Y2531561D01*
X2889884Y2532884D01*
X2888560Y2533768D01*
X2887078Y2534063D01*
Y2582500D01*
X2886768Y2584061D01*
X2885884Y2585384D01*
X2885883Y2585384D01*
X2878078Y2593189D01*
Y2622439D01*
X2879578Y2623240D01*
X2879634Y2623203D01*
X2881000Y2622931D01*
X2882366Y2623203D01*
X2883523Y2623976D01*
X2884297Y2625134D01*
X2884568Y2626500D01*
X2884297Y2627866D01*
X2883523Y2629023D01*
X2882366Y2629797D01*
X2881000Y2630068D01*
X2879634Y2629797D01*
X2879578Y2629759D01*
X2878078Y2630561D01*
Y2663500D01*
X2878078Y2663500D01*
X2877819Y2664802D01*
X2877768Y2665061D01*
X2876884Y2666384D01*
X2853985Y2689283D01*
X2854127Y2690000D01*
X2853623Y2692536D01*
X2852186Y2694686D01*
X2850036Y2696123D01*
X2847500Y2696627D01*
X2846783Y2696484D01*
X2845489Y2697779D01*
X2844165Y2698663D01*
X2843906Y2698715D01*
X2842605Y2698973D01*
X2842604Y2698973D01*
X2841373D01*
X2839739Y2700607D01*
X2838416Y2701491D01*
X2836855Y2701802D01*
D02*
G37*
G36*
X2809000Y2621569D02*
X2807634Y2621297D01*
X2806476Y2620523D01*
X2805798Y2619508D01*
X2805000Y2619432D01*
X2804202Y2619508D01*
X2803523Y2620523D01*
X2802365Y2621297D01*
X2801000Y2621568D01*
X2799634Y2621297D01*
X2798477Y2620523D01*
X2797798Y2619508D01*
X2797000Y2619432D01*
X2796202Y2619508D01*
X2795523Y2620523D01*
X2794366Y2621297D01*
X2793000Y2621568D01*
X2791634Y2621297D01*
X2790477Y2620523D01*
X2789703Y2619366D01*
X2789431Y2618000D01*
X2789703Y2616634D01*
X2790477Y2615476D01*
X2791634Y2614703D01*
X2793000Y2614431D01*
X2793703Y2613134D01*
Y2613134D01*
X2793703Y2613134D01*
X2794477Y2611977D01*
X2795634Y2611203D01*
X2797000Y2610931D01*
X2798365Y2611203D01*
X2799523Y2611977D01*
X2800202Y2612992D01*
X2801000Y2613068D01*
X2801798Y2612992D01*
X2802477Y2611977D01*
X2803634Y2611203D01*
X2805000Y2610931D01*
X2806366Y2611203D01*
X2807523Y2611977D01*
X2808202Y2612992D01*
X2809000Y2613068D01*
X2809798Y2612992D01*
X2810476Y2611977D01*
X2811634Y2611203D01*
X2813000Y2610931D01*
X2814366Y2611203D01*
X2815523Y2611977D01*
X2816202Y2612992D01*
X2817000Y2613068D01*
X2817798Y2612992D01*
X2818477Y2611977D01*
X2819634Y2611203D01*
X2821000Y2610931D01*
X2822366Y2611203D01*
X2823523Y2611977D01*
X2824297Y2613134D01*
X2824568Y2614500D01*
X2824297Y2615865D01*
X2823523Y2617023D01*
X2822366Y2617797D01*
X2822008Y2617868D01*
X2821000Y2618069D01*
X2820297Y2619366D01*
Y2619366D01*
X2820297Y2619366D01*
X2819523Y2620523D01*
X2818365Y2621297D01*
X2817000Y2621568D01*
X2815634Y2621297D01*
X2814477Y2620523D01*
X2813798Y2619508D01*
X2813000Y2619432D01*
X2812202Y2619508D01*
X2811523Y2620523D01*
X2810366Y2621297D01*
X2809000Y2621569D01*
D02*
G37*
G36*
X2838000Y2552068D02*
X2836634Y2551797D01*
X2835476Y2551023D01*
X2834703Y2549866D01*
X2834431Y2548500D01*
X2834703Y2547134D01*
X2835476Y2545977D01*
X2836634Y2545203D01*
X2838000Y2544931D01*
X2839366Y2545203D01*
X2840523Y2545977D01*
X2841297Y2547134D01*
X2841569Y2548500D01*
X2841297Y2549866D01*
X2840523Y2551023D01*
X2839366Y2551797D01*
X2838000Y2552068D01*
D02*
G37*
G36*
X2966750Y2468950D02*
X2958517D01*
X2958892Y2467066D01*
X2960383Y2464833D01*
X2962616Y2463342D01*
X2965250Y2462818D01*
X2966750D01*
Y2468950D01*
D02*
G37*
G36*
X2846000Y2585068D02*
X2844634Y2584797D01*
X2843477Y2584023D01*
X2842703Y2582866D01*
X2842431Y2581500D01*
X2842703Y2580134D01*
X2843477Y2578976D01*
X2844492Y2578298D01*
X2844568Y2577500D01*
X2844492Y2576702D01*
X2843477Y2576023D01*
X2842703Y2574865D01*
X2842431Y2573500D01*
X2842703Y2572134D01*
X2843477Y2570976D01*
X2844492Y2570298D01*
X2844568Y2569500D01*
X2844492Y2568702D01*
X2843477Y2568023D01*
X2842703Y2566866D01*
X2842431Y2565500D01*
X2842703Y2564134D01*
X2843477Y2562976D01*
X2844492Y2562298D01*
X2844568Y2561500D01*
X2844492Y2560702D01*
X2843477Y2560023D01*
X2842703Y2558865D01*
X2842431Y2557500D01*
X2842703Y2556134D01*
X2843477Y2554976D01*
X2844634Y2554203D01*
X2846000Y2553931D01*
X2847366Y2554203D01*
X2848523Y2554976D01*
X2849297Y2556134D01*
X2849368Y2556492D01*
X2849568Y2557500D01*
X2850865Y2558203D01*
X2850865D01*
X2850865Y2558203D01*
X2852023Y2558976D01*
X2852797Y2560134D01*
X2853069Y2561500D01*
X2852797Y2562866D01*
X2852023Y2564023D01*
X2851008Y2564702D01*
X2850932Y2565500D01*
X2851008Y2566298D01*
X2852023Y2566977D01*
X2852797Y2568134D01*
X2853069Y2569500D01*
X2852797Y2570865D01*
X2852023Y2572023D01*
X2851008Y2572702D01*
X2850932Y2573500D01*
X2851008Y2574298D01*
X2852023Y2574977D01*
X2852797Y2576134D01*
X2853069Y2577500D01*
X2852797Y2578865D01*
X2852023Y2580023D01*
X2850865Y2580797D01*
X2850865Y2580797D01*
X2850865D01*
X2849568Y2581500D01*
X2849368Y2582508D01*
X2849297Y2582866D01*
X2848523Y2584023D01*
X2847366Y2584797D01*
X2846000Y2585068D01*
D02*
G37*
G36*
X2845500Y2613568D02*
X2844134Y2613297D01*
X2842976Y2612523D01*
X2842203Y2611365D01*
X2841931Y2610000D01*
X2842203Y2608634D01*
X2842976Y2607477D01*
X2844134Y2606703D01*
X2845500Y2606431D01*
X2846866Y2606703D01*
X2848023Y2607477D01*
X2848797Y2608634D01*
X2849068Y2610000D01*
X2848797Y2611365D01*
X2848023Y2612523D01*
X2846866Y2613297D01*
X2845500Y2613568D01*
D02*
G37*
G36*
X2888500Y2606568D02*
X2887134Y2606297D01*
X2885977Y2605523D01*
X2885203Y2604366D01*
X2884931Y2603000D01*
X2885203Y2601634D01*
X2885977Y2600476D01*
X2887134Y2599703D01*
X2888500Y2599431D01*
X2889865Y2599703D01*
X2891023Y2600476D01*
X2891797Y2601634D01*
X2892068Y2603000D01*
X2891797Y2604366D01*
X2891023Y2605523D01*
X2889865Y2606297D01*
X2888500Y2606568D01*
D02*
G37*
G36*
X2946547Y2710666D02*
X2945182Y2710394D01*
X2944024Y2709620D01*
X2943250Y2708463D01*
X2942979Y2707097D01*
X2943250Y2705732D01*
X2944024Y2704574D01*
X2945182Y2703800D01*
X2946547Y2703528D01*
X2947913Y2703800D01*
X2949070Y2704574D01*
X2949844Y2705732D01*
X2950116Y2707097D01*
X2949844Y2708463D01*
X2949070Y2709620D01*
X2947913Y2710394D01*
X2946547Y2710666D01*
D02*
G37*
G36*
X2861104Y2694650D02*
X2859739Y2694378D01*
X2858581Y2693605D01*
X2857807Y2692447D01*
X2857536Y2691081D01*
X2857807Y2689716D01*
X2858581Y2688558D01*
X2859739Y2687784D01*
X2861104Y2687513D01*
X2862470Y2687784D01*
X2863628Y2688558D01*
X2864401Y2689716D01*
X2864673Y2691081D01*
X2864401Y2692447D01*
X2863628Y2693605D01*
X2862470Y2694378D01*
X2861104Y2694650D01*
D02*
G37*
G36*
X2831198Y2740891D02*
X2829832Y2740619D01*
X2828675Y2739846D01*
X2827901Y2738688D01*
X2827629Y2737322D01*
X2827901Y2735956D01*
X2828675Y2734799D01*
X2829832Y2734025D01*
X2831198Y2733753D01*
X2832563Y2734025D01*
X2833721Y2734799D01*
X2834495Y2735956D01*
X2834767Y2737322D01*
X2834495Y2738688D01*
X2833721Y2739846D01*
X2832563Y2740619D01*
X2831198Y2740891D01*
D02*
G37*
G36*
X2811040Y2856068D02*
X2809675Y2855796D01*
X2808517Y2855023D01*
X2807743Y2853865D01*
X2807472Y2852499D01*
X2807743Y2851134D01*
X2808517Y2849976D01*
X2809675Y2849202D01*
X2811040Y2848931D01*
X2811144Y2848951D01*
X2813065Y2847031D01*
Y2813296D01*
X2811565Y2812494D01*
X2811516Y2812526D01*
X2809761Y2812875D01*
X2808005Y2812526D01*
X2806516Y2811531D01*
X2805522Y2810043D01*
X2805173Y2808287D01*
X2805522Y2806531D01*
X2806516Y2805042D01*
X2808005Y2804048D01*
X2809761Y2803699D01*
X2811516Y2804048D01*
X2811565Y2804080D01*
X2813065Y2803278D01*
Y2799012D01*
X2813778Y2797290D01*
X2817019Y2794049D01*
X2816966Y2793453D01*
X2816625Y2792321D01*
X2815723Y2791718D01*
X2814949Y2790561D01*
X2814683Y2789222D01*
X2813345Y2788956D01*
X2812187Y2788183D01*
X2811414Y2787025D01*
X2811147Y2785687D01*
X2809809Y2785421D01*
X2808652Y2784647D01*
X2807878Y2783490D01*
X2807606Y2782124D01*
X2807878Y2780758D01*
X2808652Y2779601D01*
X2809809Y2778827D01*
X2811175Y2778555D01*
X2811279Y2778576D01*
X2814565Y2775290D01*
Y2772500D01*
X2815278Y2770778D01*
X2822778Y2763278D01*
X2824500Y2762564D01*
X2827243D01*
X2846366Y2743441D01*
X2846346Y2743337D01*
X2846617Y2741971D01*
X2847391Y2740814D01*
X2848549Y2740040D01*
X2849914Y2739768D01*
X2850097Y2739805D01*
X2853607Y2736295D01*
Y2733505D01*
X2854320Y2731783D01*
X2861820Y2724283D01*
X2863542Y2723570D01*
X2866285D01*
X2885409Y2704446D01*
X2885388Y2704342D01*
X2885660Y2702977D01*
X2886433Y2701819D01*
X2887591Y2701045D01*
X2888957Y2700774D01*
X2890322Y2701045D01*
X2891480Y2701819D01*
X2892254Y2702977D01*
X2892520Y2704315D01*
X2893858Y2704581D01*
X2895016Y2705354D01*
X2895789Y2706512D01*
X2896055Y2707850D01*
X2897393Y2708116D01*
X2898551Y2708890D01*
X2899325Y2710048D01*
X2899591Y2711386D01*
X2900929Y2711652D01*
X2902086Y2712426D01*
X2902860Y2713583D01*
X2903127Y2714921D01*
X2904464Y2715187D01*
X2905622Y2715961D01*
X2906396Y2717119D01*
X2906505Y2717668D01*
X2907654Y2718564D01*
X2932910D01*
X2934632Y2719278D01*
X2935121Y2719767D01*
X2935225Y2719746D01*
X2936590Y2720018D01*
X2937748Y2720792D01*
X2938522Y2721949D01*
X2938793Y2723315D01*
X2938522Y2724680D01*
X2937748Y2725838D01*
X2936590Y2726612D01*
X2935225Y2726884D01*
X2933859Y2726612D01*
X2932701Y2725838D01*
X2931928Y2724680D01*
X2931680Y2723435D01*
X2927950D01*
X2927329Y2724935D01*
X2931141Y2728747D01*
X2931245Y2728727D01*
X2932610Y2728998D01*
X2933768Y2729772D01*
X2934541Y2730930D01*
X2934813Y2732295D01*
X2934541Y2733661D01*
X2933768Y2734818D01*
X2932610Y2735592D01*
X2931245Y2735864D01*
X2929879Y2735592D01*
X2928721Y2734818D01*
X2927948Y2733661D01*
X2927676Y2732295D01*
X2927697Y2732191D01*
X2923496Y2727991D01*
X2912752D01*
X2912693Y2728079D01*
X2911536Y2728853D01*
X2910170Y2729124D01*
X2908804Y2728853D01*
X2907646Y2728079D01*
X2906873Y2726921D01*
X2906607Y2725583D01*
X2905269Y2725317D01*
X2904111Y2724543D01*
X2903337Y2723386D01*
X2903071Y2722047D01*
X2901733Y2721781D01*
X2900575Y2721008D01*
X2899802Y2719850D01*
X2899536Y2718512D01*
X2898198Y2718246D01*
X2897040Y2717472D01*
X2896437Y2716570D01*
X2895305Y2716229D01*
X2894709Y2716176D01*
X2886238Y2724647D01*
X2886977Y2726029D01*
X2887542Y2725917D01*
X2889298Y2726266D01*
X2890787Y2727261D01*
X2891781Y2728749D01*
X2892131Y2730505D01*
X2891781Y2732261D01*
X2890787Y2733749D01*
X2889298Y2734744D01*
X2887542Y2735093D01*
X2885787Y2734744D01*
X2884298Y2733749D01*
X2883304Y2732261D01*
X2882954Y2730505D01*
X2883067Y2729940D01*
X2881684Y2729201D01*
X2873213Y2737672D01*
X2873266Y2738268D01*
X2873607Y2739400D01*
X2874509Y2740003D01*
X2875283Y2741160D01*
X2875549Y2742498D01*
X2876887Y2742765D01*
X2877336Y2743065D01*
X2882500D01*
X2884222Y2743778D01*
X2892009Y2751565D01*
X2898537D01*
X2899623Y2750064D01*
X2899530Y2749597D01*
X2899802Y2748232D01*
X2900576Y2747074D01*
X2901733Y2746300D01*
X2903099Y2746028D01*
X2903203Y2746049D01*
X2905474Y2743778D01*
X2907196Y2743065D01*
X2917031D01*
X2918716Y2741379D01*
X2918696Y2741275D01*
X2918967Y2739910D01*
X2919741Y2738752D01*
X2920899Y2737979D01*
X2922264Y2737707D01*
X2923630Y2737979D01*
X2924788Y2738752D01*
X2925561Y2739910D01*
X2925833Y2741275D01*
X2925561Y2742641D01*
X2924788Y2743799D01*
X2923630Y2744572D01*
X2922264Y2744844D01*
X2922160Y2744823D01*
X2919762Y2747222D01*
X2918040Y2747935D01*
X2917610D01*
X2916689Y2749435D01*
X2916853Y2750256D01*
X2916581Y2751621D01*
X2915807Y2752779D01*
X2914650Y2753553D01*
X2913284Y2753824D01*
X2913180Y2753803D01*
X2911262Y2755722D01*
X2909540Y2756435D01*
X2908446D01*
X2907607Y2757859D01*
X2907614Y2757935D01*
X2907872Y2759236D01*
X2907601Y2760602D01*
X2906827Y2761759D01*
X2905669Y2762533D01*
X2904304Y2762805D01*
X2902938Y2762533D01*
X2901780Y2761759D01*
X2901721Y2761671D01*
X2888874D01*
X2888399Y2762193D01*
X2887947Y2762985D01*
X2888011Y2763080D01*
X2888283Y2764446D01*
X2888011Y2765811D01*
X2887238Y2766969D01*
X2886080Y2767743D01*
X2884714Y2768015D01*
X2883348Y2767743D01*
X2882191Y2766969D01*
X2881417Y2765811D01*
X2881146Y2764446D01*
X2881417Y2763080D01*
X2882191Y2761923D01*
X2883348Y2761149D01*
X2884714Y2760877D01*
X2884786Y2760892D01*
X2885525Y2759509D01*
X2882697Y2756681D01*
X2882593Y2756701D01*
X2881227Y2756429D01*
X2880069Y2755656D01*
X2879296Y2754498D01*
X2879030Y2753160D01*
X2877692Y2752894D01*
X2876534Y2752120D01*
X2875760Y2750963D01*
X2875494Y2749625D01*
X2874156Y2749359D01*
X2872998Y2748585D01*
X2872225Y2747427D01*
X2871959Y2746089D01*
X2870620Y2745823D01*
X2869463Y2745049D01*
X2868860Y2744147D01*
X2867728Y2743806D01*
X2867132Y2743753D01*
X2861787Y2749098D01*
X2861823Y2749647D01*
X2862170Y2750836D01*
X2863044Y2751420D01*
X2863818Y2752578D01*
X2864084Y2753916D01*
X2865422Y2754182D01*
X2866580Y2754956D01*
X2867353Y2756114D01*
X2867619Y2757451D01*
X2868958Y2757718D01*
X2870115Y2758492D01*
X2870889Y2759649D01*
X2871155Y2760987D01*
X2872493Y2761253D01*
X2873651Y2762027D01*
X2874424Y2763185D01*
X2874696Y2764550D01*
X2874424Y2765916D01*
X2873651Y2767074D01*
X2873563Y2767132D01*
X2873563Y2771118D01*
X2877205Y2774761D01*
X2883761D01*
X2883820Y2774673D01*
X2884978Y2773900D01*
X2886343Y2773628D01*
X2887709Y2773900D01*
X2888867Y2774673D01*
X2889225Y2775209D01*
X2890999Y2775557D01*
X2892888Y2773668D01*
Y2770798D01*
X2892800Y2770739D01*
X2892027Y2769582D01*
X2891755Y2768216D01*
X2892027Y2766851D01*
X2892800Y2765693D01*
X2893958Y2764919D01*
X2895323Y2764648D01*
X2896689Y2764919D01*
X2897847Y2765693D01*
X2898620Y2766851D01*
X2898892Y2768216D01*
X2898620Y2769582D01*
X2897847Y2770739D01*
X2897759Y2770798D01*
Y2774676D01*
X2897254Y2775894D01*
X2897046Y2776398D01*
X2889722Y2783722D01*
X2888000Y2784435D01*
X2883000D01*
X2882331Y2784158D01*
X2881175Y2784966D01*
X2881016Y2785237D01*
X2881068Y2785500D01*
X2880797Y2786866D01*
X2880023Y2788023D01*
X2878865Y2788797D01*
X2877500Y2789068D01*
X2877068Y2789500D01*
X2876797Y2790865D01*
X2876023Y2792023D01*
X2874865Y2792797D01*
X2873500Y2793069D01*
X2872134Y2792797D01*
X2870977Y2792023D01*
X2870918Y2791935D01*
X2865189D01*
X2864056Y2792161D01*
X2862691Y2791889D01*
X2861533Y2791115D01*
X2860759Y2789958D01*
X2860488Y2788592D01*
X2860759Y2787226D01*
X2861533Y2786068D01*
X2862691Y2785295D01*
X2864056Y2785023D01*
X2865422Y2785295D01*
X2866580Y2786068D01*
X2867245Y2787065D01*
X2869999D01*
X2870620Y2785565D01*
X2855778Y2770722D01*
X2855064Y2769000D01*
Y2757942D01*
X2853564Y2757321D01*
X2847255Y2763630D01*
X2847994Y2765013D01*
X2848500Y2764912D01*
X2850256Y2765261D01*
X2851744Y2766256D01*
X2852739Y2767744D01*
X2853088Y2769500D01*
X2852739Y2771256D01*
X2851744Y2772744D01*
X2850256Y2773739D01*
X2848500Y2774088D01*
X2846744Y2773739D01*
X2845256Y2772744D01*
X2844261Y2771256D01*
X2843912Y2769500D01*
X2844012Y2768994D01*
X2842630Y2768255D01*
X2834320Y2776565D01*
X2834942Y2778065D01*
X2843000D01*
X2844722Y2778778D01*
X2861183Y2795240D01*
X2862398Y2796094D01*
X2863556Y2795321D01*
X2864922Y2795049D01*
X2866288Y2795321D01*
X2867445Y2796094D01*
X2868219Y2797252D01*
X2868490Y2798618D01*
X2868219Y2799984D01*
X2867445Y2801141D01*
X2866288Y2801915D01*
X2864922Y2802186D01*
X2863556Y2801915D01*
X2862398Y2801141D01*
X2862339Y2801053D01*
X2861118D01*
X2859900Y2800549D01*
X2859877Y2800539D01*
X2858377Y2801281D01*
Y2805016D01*
X2858465Y2805075D01*
X2859239Y2806233D01*
X2859510Y2807598D01*
X2859239Y2808964D01*
X2858465Y2810121D01*
X2857307Y2810895D01*
X2855941Y2811167D01*
X2854576Y2810895D01*
X2853935Y2810467D01*
X2852435Y2811145D01*
Y2813540D01*
X2851931Y2814757D01*
X2851722Y2815262D01*
X2850509Y2816475D01*
X2850530Y2816578D01*
X2850258Y2817944D01*
X2849485Y2819102D01*
X2848327Y2819875D01*
X2846961Y2820147D01*
X2845596Y2819875D01*
X2844438Y2819102D01*
X2843665Y2817944D01*
X2843393Y2816578D01*
X2843665Y2815213D01*
X2844438Y2814055D01*
X2845596Y2813281D01*
X2846961Y2813010D01*
X2847564Y2811697D01*
Y2808052D01*
X2846064Y2806931D01*
X2845672Y2807009D01*
X2844306Y2806738D01*
X2843148Y2805964D01*
X2842375Y2804807D01*
X2842103Y2803441D01*
X2842375Y2802075D01*
X2843148Y2800917D01*
X2844306Y2800144D01*
X2845672Y2799872D01*
X2845744Y2799886D01*
X2846483Y2798504D01*
X2843654Y2795675D01*
X2843550Y2795696D01*
X2842184Y2795424D01*
X2841027Y2794651D01*
X2840253Y2793493D01*
X2839987Y2792155D01*
X2838649Y2791889D01*
X2837491Y2791115D01*
X2836718Y2789958D01*
X2836452Y2788619D01*
X2835114Y2788353D01*
X2833956Y2787580D01*
X2833182Y2786422D01*
X2832916Y2785084D01*
X2831578Y2784818D01*
X2830420Y2784044D01*
X2829836Y2783170D01*
X2828647Y2782823D01*
X2828098Y2782787D01*
X2823008Y2787877D01*
X2823062Y2788473D01*
X2823402Y2789604D01*
X2824305Y2790207D01*
X2825078Y2791365D01*
X2825345Y2792703D01*
X2826683Y2792969D01*
X2827840Y2793743D01*
X2828614Y2794901D01*
X2828880Y2796238D01*
X2830218Y2796505D01*
X2831376Y2797278D01*
X2832149Y2798436D01*
X2832415Y2799774D01*
X2833754Y2800040D01*
X2834911Y2800814D01*
X2835685Y2801971D01*
X2835957Y2803337D01*
X2835685Y2804703D01*
X2834911Y2805861D01*
X2834823Y2805919D01*
Y2818957D01*
X2837877Y2822011D01*
X2837981Y2821990D01*
X2839347Y2822262D01*
X2840504Y2823035D01*
X2841278Y2824193D01*
X2841550Y2825558D01*
X2841278Y2826924D01*
X2840504Y2828082D01*
X2839347Y2828856D01*
X2837981Y2829127D01*
X2836615Y2828856D01*
X2835458Y2828082D01*
X2834684Y2826924D01*
X2834413Y2825558D01*
X2834433Y2825455D01*
X2830666Y2821688D01*
X2829953Y2819966D01*
Y2805919D01*
X2829865Y2805861D01*
X2829262Y2804958D01*
X2828130Y2804617D01*
X2827534Y2804564D01*
X2822456Y2809642D01*
Y2823277D01*
X2823951Y2824082D01*
X2825317Y2823810D01*
X2826683Y2824082D01*
X2827840Y2824855D01*
X2828614Y2826013D01*
X2828886Y2827379D01*
X2828614Y2828745D01*
X2827841Y2829902D01*
X2827838Y2829932D01*
X2828897Y2830991D01*
X2829001Y2830970D01*
X2830367Y2831242D01*
X2831524Y2832015D01*
X2832298Y2833173D01*
X2832569Y2834539D01*
X2832298Y2835905D01*
X2831524Y2837062D01*
X2830367Y2837836D01*
X2829001Y2838107D01*
X2827635Y2837836D01*
X2826477Y2837062D01*
X2825704Y2835905D01*
X2825432Y2834539D01*
X2825453Y2834435D01*
X2823956Y2832938D01*
X2822456Y2833448D01*
Y2840937D01*
X2822544Y2840996D01*
X2823317Y2842154D01*
X2823589Y2843519D01*
X2823317Y2844885D01*
X2822544Y2846042D01*
X2821386Y2846816D01*
X2820020Y2847088D01*
X2819435Y2846971D01*
X2817984Y2847968D01*
X2817917Y2848082D01*
X2817222Y2849762D01*
X2814588Y2852396D01*
X2814609Y2852499D01*
X2814337Y2853865D01*
X2813564Y2855023D01*
X2812406Y2855796D01*
X2811040Y2856068D01*
D02*
G37*
G36*
X2825188Y2755386D02*
X2823822Y2755115D01*
X2822664Y2754341D01*
X2821891Y2753184D01*
X2821619Y2751818D01*
X2821640Y2751714D01*
X2815663Y2745737D01*
X2814036Y2746231D01*
X2813989Y2746465D01*
X2813216Y2747623D01*
X2812058Y2748397D01*
X2810692Y2748669D01*
X2809326Y2748397D01*
X2808169Y2747623D01*
X2807395Y2746465D01*
X2807124Y2745100D01*
X2807395Y2743734D01*
X2808169Y2742577D01*
X2809326Y2741803D01*
X2810692Y2741531D01*
X2811707Y2741733D01*
X2812814Y2741121D01*
X2813206Y2740766D01*
Y2735143D01*
X2813106Y2735123D01*
X2810956Y2733686D01*
X2809519Y2731536D01*
X2809015Y2729000D01*
X2809519Y2726464D01*
X2810956Y2724314D01*
X2811563Y2723907D01*
Y2719645D01*
X2811874Y2718084D01*
X2812758Y2716761D01*
X2814081Y2715877D01*
X2815642Y2715566D01*
X2817202Y2715877D01*
X2818526Y2716761D01*
X2818825Y2717209D01*
X2844846D01*
X2891788Y2670267D01*
X2892292Y2670059D01*
X2893510Y2669554D01*
X2907312D01*
X2907371Y2669466D01*
X2908529Y2668693D01*
X2909895Y2668421D01*
X2911260Y2668693D01*
X2912418Y2669466D01*
X2913192Y2670624D01*
X2913463Y2671989D01*
X2913192Y2673355D01*
X2912418Y2674513D01*
X2911260Y2675286D01*
X2909895Y2675558D01*
X2908529Y2675286D01*
X2907371Y2674513D01*
X2907312Y2674425D01*
X2894519D01*
X2847577Y2721367D01*
X2845855Y2722080D01*
X2819720D01*
Y2723907D01*
X2820328Y2724314D01*
X2821765Y2726464D01*
X2821858Y2726933D01*
X2823457Y2727656D01*
X2823530Y2727649D01*
X2824834Y2727390D01*
X2826200Y2727661D01*
X2827357Y2728435D01*
X2828131Y2729593D01*
X2828402Y2730958D01*
X2828131Y2732324D01*
X2827357Y2733481D01*
X2826200Y2734255D01*
X2824834Y2734527D01*
X2823468Y2734255D01*
X2822310Y2733481D01*
X2822290Y2733450D01*
X2820486Y2733450D01*
X2820328Y2733686D01*
X2818178Y2735123D01*
X2818077Y2735143D01*
Y2741263D01*
X2825084Y2748270D01*
X2825188Y2748249D01*
X2826554Y2748521D01*
X2827711Y2749294D01*
X2828485Y2750452D01*
X2828756Y2751818D01*
X2828485Y2753184D01*
X2827711Y2754341D01*
X2826554Y2755115D01*
X2825188Y2755386D01*
D02*
G37*
G36*
X2873832Y2681922D02*
X2872466Y2681650D01*
X2871309Y2680877D01*
X2870535Y2679719D01*
X2870264Y2678354D01*
X2870535Y2676988D01*
X2871309Y2675830D01*
X2872466Y2675056D01*
X2873832Y2674785D01*
X2875198Y2675056D01*
X2876356Y2675830D01*
X2877129Y2676988D01*
X2877401Y2678354D01*
X2877129Y2679719D01*
X2876356Y2680877D01*
X2875198Y2681650D01*
X2873832Y2681922D01*
D02*
G37*
G36*
X2790950Y2644458D02*
Y2639750D01*
X2795658D01*
X2795381Y2641146D01*
X2794165Y2642965D01*
X2792346Y2644181D01*
X2790950Y2644458D01*
D02*
G37*
G36*
X2888000Y2642068D02*
X2886634Y2641797D01*
X2885476Y2641023D01*
X2884703Y2639865D01*
X2884431Y2638500D01*
X2884703Y2637134D01*
X2885476Y2635976D01*
X2886634Y2635203D01*
X2888000Y2634931D01*
X2889366Y2635203D01*
X2890523Y2635976D01*
X2891297Y2637134D01*
X2891569Y2638500D01*
X2891297Y2639865D01*
X2890523Y2641023D01*
X2889366Y2641797D01*
X2888000Y2642068D01*
D02*
G37*
G36*
X2916501Y2651069D02*
X2915135Y2650797D01*
X2913978Y2650024D01*
X2913204Y2648866D01*
X2912932Y2647500D01*
X2913204Y2646135D01*
X2913978Y2644977D01*
X2915135Y2644203D01*
X2916501Y2643932D01*
X2917867Y2644203D01*
X2919024Y2644977D01*
X2919798Y2646135D01*
X2920070Y2647500D01*
X2919798Y2648866D01*
X2919024Y2650024D01*
X2917867Y2650797D01*
X2916501Y2651069D01*
D02*
G37*
G36*
X2813000Y2687127D02*
X2810464Y2686623D01*
X2808314Y2685186D01*
X2806877Y2683036D01*
X2806373Y2680500D01*
X2806877Y2677964D01*
X2808314Y2675814D01*
X2810464Y2674377D01*
X2813000Y2673872D01*
X2813773Y2674026D01*
X2820183Y2667617D01*
X2821506Y2666733D01*
X2823067Y2666422D01*
X2824627Y2666733D01*
X2825951Y2667617D01*
X2826835Y2668940D01*
X2827145Y2670500D01*
X2826835Y2672061D01*
X2825951Y2673384D01*
X2819496Y2679839D01*
X2819627Y2680500D01*
X2819123Y2683036D01*
X2817686Y2685186D01*
X2815536Y2686623D01*
X2813000Y2687127D01*
D02*
G37*
G36*
X2930501Y2670069D02*
X2926501D01*
X2925135Y2669798D01*
X2923977Y2669024D01*
X2923204Y2667866D01*
X2922932Y2666501D01*
X2923204Y2665135D01*
X2923977Y2663977D01*
X2925135Y2663204D01*
X2926501Y2662932D01*
X2930501D01*
X2931866Y2663204D01*
X2933024Y2663977D01*
X2933798Y2665135D01*
X2934069Y2666501D01*
X2933798Y2667866D01*
X2933024Y2669024D01*
X2931866Y2669798D01*
X2930501Y2670069D01*
D02*
G37*
%LPD*%
D11*
X2857009Y2750432D02*
X2896028Y2711413D01*
X2818246Y2789195D02*
X2857009Y2750432D01*
X2904000Y2512391D02*
Y2548500D01*
X2902000Y2550500D02*
X2904000Y2548500D01*
X2902000Y2550500D02*
Y2552500D01*
X2901000Y2515048D02*
Y2546500D01*
X2897000Y2550500D02*
X2901000Y2546500D01*
X2897000Y2550500D02*
Y2552500D01*
X2894347Y2508395D02*
X2901000Y2515048D01*
X2897529Y2505920D02*
X2904000Y2512391D01*
X2939000Y2493015D02*
X2954000Y2508015D01*
Y2534000D01*
X2957000Y2537000D01*
Y2582344D01*
X2937743Y2496000D02*
X2951000Y2509257D01*
Y2535500D01*
X2954000Y2538500D01*
Y2572644D01*
X2936500Y2499000D02*
X2948000Y2510500D01*
Y2537000D01*
X2951000Y2540000D01*
Y2562944D01*
X2936500Y2503500D02*
X2942250Y2509250D01*
Y2520250D01*
X2939000Y2523500D02*
X2942250Y2520250D01*
X2939000Y2523500D02*
Y2529500D01*
X2942000Y2532500D01*
X2888000Y2782000D02*
X2895323Y2774676D01*
X2883000Y2782000D02*
X2888000D01*
X2881500Y2780500D02*
X2883000Y2782000D01*
X2874500Y2780500D02*
X2881500D01*
X2864500Y2770500D02*
X2874500Y2780500D01*
X2832944Y2781521D02*
X2833965Y2780500D01*
X2843000D01*
X2831000Y2571000D02*
Y2628000D01*
X2827500Y2631500D02*
X2831000Y2628000D01*
X2810400Y2631500D02*
X2827500D01*
X2802900Y2639000D02*
X2810400Y2631500D01*
X2802900Y2651700D02*
X2811200Y2660000D01*
X2815600Y2651700D02*
X2820900Y2657000D01*
X2811200Y2660000D02*
X2831242D01*
X2820900Y2657000D02*
X2830000D01*
X2831242Y2660000D02*
X2840000Y2651242D01*
X2830000Y2657000D02*
X2837000Y2650000D01*
X2840000Y2634015D02*
Y2651242D01*
X2837000Y2635257D02*
Y2650000D01*
X2837000Y2631014D02*
X2840000Y2634015D01*
X2834000Y2632257D02*
X2837000Y2635257D01*
X2837000Y2568514D02*
Y2631014D01*
X2834000Y2569757D02*
Y2632257D01*
X2824985Y2556500D02*
X2837000Y2568514D01*
X2823742Y2559500D02*
X2834000Y2569757D01*
X2822500Y2562500D02*
X2831000Y2571000D01*
X2811500Y2556500D02*
X2824985D01*
X2791000Y2536000D02*
X2811500Y2556500D01*
X2787500Y2536000D02*
X2791000D01*
X2794000Y2562500D02*
X2822500D01*
X2783000Y2551500D02*
X2794000Y2562500D01*
X2777500Y2551500D02*
X2783000D01*
X2803000Y2559500D02*
X2823742D01*
X2796500Y2553000D02*
X2803000Y2559500D01*
X2815642Y2719645D02*
X2845855D01*
X2815642Y2729000D02*
Y2742272D01*
X2893510Y2671989D02*
X2909895D01*
X2845855Y2719645D02*
X2893510Y2671989D01*
X2815642Y2742272D02*
X2825188Y2751818D01*
X2942000Y2532500D02*
Y2545000D01*
X2907000Y2464500D02*
Y2552500D01*
X2894347Y2497788D02*
Y2508395D01*
Y2497788D02*
X2897000Y2495136D01*
Y2464500D02*
Y2495136D01*
X2902000Y2464500D02*
Y2495793D01*
X2897529Y2500263D02*
X2902000Y2495793D01*
X2897529Y2500263D02*
Y2505920D01*
X2853753Y2746665D02*
X2860042Y2740375D01*
Y2734005D02*
Y2740375D01*
Y2734005D02*
X2864042Y2730005D01*
X2870365D01*
X2892492Y2707878D01*
X2867294Y2726005D02*
X2888957Y2704342D01*
X2863542Y2726005D02*
X2867294D01*
X2856042Y2733505D02*
X2863542Y2726005D01*
X2856042Y2733505D02*
Y2737304D01*
X2850217Y2743129D02*
X2856042Y2737304D01*
X2811175Y2782124D02*
X2817000Y2776299D01*
Y2772500D02*
Y2776299D01*
Y2772500D02*
X2824500Y2765000D01*
X2828251D01*
X2849914Y2743337D01*
X2831322Y2769000D02*
X2853450Y2746873D01*
X2825000Y2769000D02*
X2831322D01*
X2821000Y2773000D02*
X2825000Y2769000D01*
X2821000Y2773000D02*
Y2779370D01*
X2814710Y2785659D02*
X2821000Y2779370D01*
X2843550Y2792127D02*
X2850000Y2798577D01*
X2939000Y2686850D02*
X2946547Y2694397D01*
X2942000Y2677150D02*
X2946547Y2681697D01*
X2939000Y2657743D02*
Y2686850D01*
X2942000Y2656500D02*
Y2677150D01*
X2933000Y2651742D02*
X2939000Y2657743D01*
X2936000Y2650500D02*
X2942000Y2656500D01*
X2939000Y2648750D02*
X2946547Y2656297D01*
X2942000Y2639050D02*
X2946547Y2643597D01*
Y2625047D02*
Y2630897D01*
X2942000Y2613650D02*
X2946547Y2618197D01*
X2933000Y2628470D02*
Y2651742D01*
X2936000Y2627228D02*
Y2650500D01*
X2939000Y2625985D02*
Y2648750D01*
X2942000Y2624742D02*
Y2639050D01*
X2930000Y2612743D02*
X2942000Y2624742D01*
X2927000Y2613985D02*
X2939000Y2625985D01*
X2924000Y2615228D02*
X2936000Y2627228D01*
X2921000Y2616470D02*
X2933000Y2628470D01*
Y2611500D02*
X2946547Y2625047D01*
X2924000Y2600000D02*
Y2615228D01*
X2917000Y2593000D02*
X2924000Y2600000D01*
X2917000Y2591500D02*
Y2593000D01*
X2921000Y2602000D02*
Y2616470D01*
X2912000Y2593000D02*
X2921000Y2602000D01*
X2912000Y2591500D02*
Y2593000D01*
X2927000Y2591500D02*
Y2613985D01*
X2930000Y2594500D02*
Y2612743D01*
Y2594500D02*
X2931500Y2593000D01*
X2933000Y2596000D02*
Y2611500D01*
Y2596000D02*
X2934500Y2594500D01*
Y2582500D02*
Y2594500D01*
X2927000Y2575000D02*
X2934500Y2582500D01*
X2927000Y2552500D02*
Y2575000D01*
X2931500Y2585000D02*
Y2593000D01*
X2922000Y2575500D02*
X2931500Y2585000D01*
X2922000Y2552500D02*
Y2575500D01*
X2942000Y2577500D02*
Y2613650D01*
X2939000Y2574500D02*
X2942000Y2577500D01*
X2917500Y2496000D02*
X2937743D01*
X2912000Y2501500D02*
X2917500Y2496000D01*
X2912000Y2501500D02*
Y2503500D01*
X2920000Y2499000D02*
X2936500D01*
X2917000Y2502000D02*
X2920000Y2499000D01*
X2917000Y2502000D02*
Y2503500D01*
X2942000Y2545000D02*
X2946547Y2549547D01*
X2945844Y2466500D02*
X2946547Y2465797D01*
X2929000Y2466500D02*
X2945844D01*
X2927000Y2464500D02*
X2929000Y2466500D01*
X2939000Y2486500D02*
Y2493015D01*
X2927000Y2503500D02*
X2936500D01*
X2946547Y2592797D02*
X2957000Y2582344D01*
X2946547Y2580097D02*
X2954000Y2572644D01*
X2946547Y2567397D02*
X2951000Y2562944D01*
X2946547Y2549547D02*
Y2554697D01*
X2922000Y2464500D02*
Y2468000D01*
X2924500Y2470500D01*
X2938550D01*
X2946547Y2478497D01*
X2882593Y2753133D02*
X2888696Y2759236D01*
X2903099Y2749597D02*
X2907196Y2745500D01*
X2932910Y2721000D02*
X2935225Y2723315D01*
X2907654Y2721000D02*
X2932910D01*
X2906634Y2722020D02*
X2907654Y2721000D01*
X2924505Y2725555D02*
X2931245Y2732295D01*
X2910170Y2725555D02*
X2924505D01*
X2882500Y2745500D02*
X2891000Y2754000D01*
X2876083Y2745500D02*
X2882500D01*
X2875522Y2746061D02*
X2876083Y2745500D01*
X2907196D02*
X2918040D01*
X2922264Y2741275D01*
X2891000Y2754000D02*
X2909540D01*
X2913284Y2750256D01*
X2888696Y2759236D02*
X2904304D01*
X2857500Y2756964D02*
X2860521Y2753943D01*
X2871127Y2772127D02*
X2871127Y2764550D01*
X2871127Y2772127D02*
X2876196Y2777196D01*
X2886343D01*
X2864500Y2764107D02*
Y2770500D01*
Y2764107D02*
X2867592Y2761015D01*
X2895323Y2768216D02*
Y2774676D01*
X2857500Y2769000D02*
X2874000Y2785500D01*
X2857500Y2756964D02*
Y2769000D01*
X2864056Y2788592D02*
X2864964Y2789500D01*
X2873500D01*
X2842000Y2784000D02*
X2855941Y2797942D01*
X2837536Y2784000D02*
X2842000D01*
X2836479Y2785056D02*
X2837536Y2784000D01*
X2874000Y2785500D02*
X2877500D01*
X2843000Y2780500D02*
X2861118Y2798618D01*
X2864922D01*
X2855941Y2797942D02*
Y2807598D01*
X2850000Y2798577D02*
Y2813540D01*
X2846961Y2816578D02*
X2850000Y2813540D01*
X2792500Y2822012D02*
Y2865000D01*
X2784099Y2873400D02*
X2792500Y2865000D01*
X2784099Y2873400D02*
Y2879440D01*
X2792500Y2822012D02*
X2794204Y2820308D01*
X2793080Y2870460D02*
X2797000Y2866540D01*
Y2824583D02*
Y2866540D01*
Y2824583D02*
X2797740Y2823843D01*
X2832388Y2803337D02*
Y2819966D01*
X2825317Y2827379D02*
Y2830855D01*
X2820020Y2808634D02*
X2828853Y2799802D01*
X2815500Y2799012D02*
X2821782Y2792730D01*
X2832388Y2819966D02*
X2837981Y2825558D01*
X2825317Y2830855D02*
X2829001Y2834539D01*
X2820020Y2808634D02*
Y2843519D01*
X2815500Y2799012D02*
Y2848040D01*
X2811040Y2852499D02*
X2815500Y2848040D01*
X2802060Y2833665D02*
X2804811Y2830914D01*
X2802060Y2833665D02*
Y2861479D01*
D48*
X2926501Y2666501D02*
X2930501D01*
X2932001Y2678001D02*
Y2682001D01*
X2777500Y2549000D02*
X2782000Y2544500D01*
X2793000Y2549500D02*
X2796500Y2553000D01*
X2793000Y2544500D02*
Y2549500D01*
X2787500Y2536000D02*
Y2544500D01*
D49*
X2820238Y2673329D02*
X2823067Y2670500D01*
X2813067Y2680500D02*
X2820238Y2673329D01*
X2883000Y2530000D02*
Y2582500D01*
X2791500Y2776500D02*
X2797510Y2770490D01*
X2785490D02*
X2791500Y2776500D01*
X2797510Y2782510D01*
X2785490D02*
X2791500Y2776500D01*
X2815642Y2719645D02*
Y2729000D01*
X2847500Y2690000D02*
X2874000Y2663500D01*
X2842605Y2694895D02*
X2847500Y2690000D01*
X2874000Y2591500D02*
X2883000Y2582500D01*
X2874000Y2591500D02*
Y2663500D01*
X2839684Y2694895D02*
X2842605D01*
X2836855Y2697723D02*
X2839684Y2694895D01*
X2883000Y2530000D02*
X2887000D01*
X2879000D02*
X2883000D01*
D52*
X2762000Y2253997D02*
Y2242000D01*
Y2253997D02*
X2767142D01*
X2768856Y2253426D01*
X2769427Y2252855D01*
X2769998Y2251712D01*
Y2250570D01*
X2769427Y2249427D01*
X2768856Y2248856D01*
X2767142Y2248284D01*
X2762000D02*
X2767142D01*
X2768856Y2247713D01*
X2769427Y2247142D01*
X2769998Y2245999D01*
Y2244285D01*
X2769427Y2243143D01*
X2768856Y2242571D01*
X2767142Y2242000D01*
X2762000D01*
X2775540Y2249998D02*
X2774397Y2249427D01*
X2773255Y2248284D01*
X2772683Y2246570D01*
Y2245428D01*
X2773255Y2243714D01*
X2774397Y2242571D01*
X2775540Y2242000D01*
X2777254D01*
X2778397Y2242571D01*
X2779539Y2243714D01*
X2780110Y2245428D01*
Y2246570D01*
X2779539Y2248284D01*
X2778397Y2249427D01*
X2777254Y2249998D01*
X2775540D01*
X2784452Y2253997D02*
Y2244285D01*
X2785023Y2242571D01*
X2786166Y2242000D01*
X2787309D01*
X2782738Y2249998D02*
X2786738D01*
X2790737Y2253997D02*
Y2244285D01*
X2791308Y2242571D01*
X2792451Y2242000D01*
X2793593D01*
X2789023Y2249998D02*
X2793022D01*
X2798164D02*
X2797021Y2249427D01*
X2795878Y2248284D01*
X2795307Y2246570D01*
Y2245428D01*
X2795878Y2243714D01*
X2797021Y2242571D01*
X2798164Y2242000D01*
X2799878D01*
X2801020Y2242571D01*
X2802163Y2243714D01*
X2802734Y2245428D01*
Y2246570D01*
X2802163Y2248284D01*
X2801020Y2249427D01*
X2799878Y2249998D01*
X2798164D01*
X2805362D02*
Y2242000D01*
Y2247713D02*
X2807076Y2249427D01*
X2808219Y2249998D01*
X2809933D01*
X2811075Y2249427D01*
X2811646Y2247713D01*
Y2242000D01*
Y2247713D02*
X2813360Y2249427D01*
X2814503Y2249998D01*
X2816217D01*
X2817360Y2249427D01*
X2817931Y2247713D01*
Y2242000D01*
X2831128Y2253997D02*
Y2242000D01*
X2837984D01*
X2846153Y2249998D02*
Y2242000D01*
Y2248284D02*
X2845011Y2249427D01*
X2843868Y2249998D01*
X2842154D01*
X2841012Y2249427D01*
X2839869Y2248284D01*
X2839298Y2246570D01*
Y2245428D01*
X2839869Y2243714D01*
X2841012Y2242571D01*
X2842154Y2242000D01*
X2843868D01*
X2845011Y2242571D01*
X2846153Y2243714D01*
X2849924Y2249998D02*
X2853352Y2242000D01*
X2856780Y2249998D02*
X2853352Y2242000D01*
X2852209Y2239715D01*
X2851067Y2238572D01*
X2849924Y2238001D01*
X2849353D01*
X2858779Y2246570D02*
X2865635D01*
Y2247713D01*
X2865063Y2248856D01*
X2864492Y2249427D01*
X2863350Y2249998D01*
X2861636D01*
X2860493Y2249427D01*
X2859351Y2248284D01*
X2858779Y2246570D01*
Y2245428D01*
X2859351Y2243714D01*
X2860493Y2242571D01*
X2861636Y2242000D01*
X2863350D01*
X2864492Y2242571D01*
X2865635Y2243714D01*
X2868206Y2249998D02*
Y2242000D01*
Y2246570D02*
X2868777Y2248284D01*
X2869920Y2249427D01*
X2871062Y2249998D01*
X2872776D01*
D53*
X2959345Y2735655D02*
D03*
X2950364Y2744635D02*
D03*
X2941384Y2753615D02*
D03*
X2932404Y2762596D02*
D03*
X2923424Y2771576D02*
D03*
X2914443Y2780556D02*
D03*
X2905463Y2789536D02*
D03*
X2896483Y2798517D02*
D03*
X2887503Y2807497D02*
D03*
X2878522Y2816477D02*
D03*
X2869542Y2825457D02*
D03*
X2860562Y2834438D02*
D03*
X2851582Y2843418D02*
D03*
X2842601Y2852398D02*
D03*
X2833621Y2861378D02*
D03*
X2824641Y2870359D02*
D03*
X2815661Y2879339D02*
D03*
X2806680Y2888319D02*
D03*
X2797700Y2897299D02*
D03*
X2788720Y2906280D02*
D03*
D54*
X2967500Y2469700D02*
D03*
Y2482400D02*
D03*
Y2495100D02*
D03*
Y2507800D02*
D03*
Y2520500D02*
D03*
Y2533200D02*
D03*
Y2545900D02*
D03*
Y2558600D02*
D03*
Y2571300D02*
D03*
Y2584000D02*
D03*
Y2596700D02*
D03*
Y2609400D02*
D03*
Y2622100D02*
D03*
Y2634800D02*
D03*
Y2647500D02*
D03*
Y2660200D02*
D03*
Y2672900D02*
D03*
Y2685600D02*
D03*
Y2698300D02*
D03*
Y2711000D02*
D03*
D55*
X2803000Y2660500D02*
D03*
X2789500Y2671000D02*
D03*
X2804000Y2679000D02*
D03*
X2804500Y2684500D02*
D03*
X2829077Y2694189D02*
D03*
X2816000Y2765000D02*
D03*
X2804000Y2753000D02*
D03*
X2937000Y2517500D02*
D03*
X2956000Y2465000D02*
D03*
X2967500Y2460500D02*
D03*
X2872500Y2467500D02*
D03*
X2870000Y2704500D02*
D03*
X2862000Y2696500D02*
D03*
X2888500Y2698500D02*
D03*
X2908500Y2714000D02*
D03*
X2909500Y2683000D02*
D03*
X2908500Y2659000D02*
D03*
X2925000Y2639000D02*
D03*
X2937500Y2609500D02*
D03*
X2898500Y2602000D02*
D03*
X2865000Y2637000D02*
D03*
X2772500Y2597500D02*
D03*
Y2645000D02*
D03*
X2773500Y2664500D02*
D03*
X2773000Y2677000D02*
D03*
Y2705500D02*
D03*
Y2694000D02*
D03*
Y2719000D02*
D03*
X2772500Y2739000D02*
D03*
X2774000Y2754500D02*
D03*
X2783500Y2795500D02*
D03*
Y2847000D02*
D03*
X2783000Y2866500D02*
D03*
X2783500Y2830000D02*
D03*
X2779500Y2711500D02*
D03*
X2791000D02*
D03*
X2789500Y2724500D02*
D03*
X2781000Y2721500D02*
D03*
X2813500Y2714000D02*
D03*
X2806000Y2707000D02*
D03*
X2826000Y2708500D02*
D03*
X2818500Y2693500D02*
D03*
X2843500Y2678000D02*
D03*
X2880000Y2658500D02*
D03*
X2867500Y2646500D02*
D03*
X2850500Y2660000D02*
D03*
X2838000Y2660500D02*
D03*
X2823500Y2638000D02*
D03*
X2819000Y2666000D02*
D03*
X2829000Y2512000D02*
D03*
X2832500Y2518500D02*
D03*
X2805000Y2525500D02*
D03*
X2803500Y2534000D02*
D03*
Y2541000D02*
D03*
X2820000Y2525000D02*
D03*
X2911500Y2533000D02*
D03*
X2927500D02*
D03*
X2890000Y2537500D02*
D03*
X2896500Y2533000D02*
D03*
X2893000Y2548500D02*
D03*
X2918500Y2533000D02*
D03*
X2860500Y2481000D02*
D03*
X2854500Y2460000D02*
D03*
Y2467500D02*
D03*
X2841500Y2515500D02*
D03*
X2842000Y2506500D02*
D03*
X2857000D02*
D03*
Y2488500D02*
D03*
X2844500Y2466000D02*
D03*
Y2472000D02*
D03*
Y2478000D02*
D03*
Y2460000D02*
D03*
X2831000Y2503000D02*
D03*
X2837000Y2499500D02*
D03*
X2842000Y2496500D02*
D03*
X2825000Y2506500D02*
D03*
X2814000Y2513000D02*
D03*
X2809000Y2515500D02*
D03*
X2804000Y2518500D02*
D03*
X2798500Y2521500D02*
D03*
X2775000Y2531000D02*
D03*
X2773000Y2538000D02*
D03*
X2772500Y2544000D02*
D03*
X2777000Y2524000D02*
D03*
X2966500Y2724500D02*
D03*
X2818246Y2789195D02*
D03*
X2856985Y2750408D02*
D03*
X2896028Y2711413D02*
D03*
X2793000Y2618000D02*
D03*
X2797510Y2770490D02*
D03*
X2785490D02*
D03*
X2797510Y2782510D02*
D03*
X2785490D02*
D03*
X2786000Y2631000D02*
D03*
X2776000Y2593500D02*
D03*
X2879000Y2530000D02*
D03*
X2887000D02*
D03*
X2883000D02*
D03*
X2801000Y2618000D02*
D03*
X2850000Y2621500D02*
D03*
X2861104Y2691081D02*
D03*
X2888500Y2603000D02*
D03*
X2838000Y2521000D02*
D03*
X2943500Y2527000D02*
D03*
X2790200Y2639000D02*
D03*
X2815600Y2651700D02*
D03*
X2815600Y2639000D02*
D03*
X2802900D02*
D03*
Y2651700D02*
D03*
X2932001Y2678001D02*
D03*
Y2682001D02*
D03*
X2926501Y2666501D02*
D03*
X2930501D02*
D03*
X2916501Y2647500D02*
D03*
X2909895Y2671989D02*
D03*
X2873832Y2678354D02*
D03*
X2853326Y2670576D02*
D03*
X2858500Y2578000D02*
D03*
X2792500Y2523500D02*
D03*
X2783499Y2523500D02*
D03*
X2866500Y2610000D02*
D03*
X2845500Y2610000D02*
D03*
X2859070Y2561071D02*
D03*
X2838000Y2548500D02*
D03*
X2849500Y2561500D02*
D03*
X2846000Y2557500D02*
D03*
X2846000Y2565500D02*
D03*
X2849500Y2577500D02*
D03*
X2846000Y2573500D02*
D03*
X2846000Y2581500D02*
D03*
X2849500Y2569500D02*
D03*
X2791000Y2628500D02*
D03*
X2850000Y2629500D02*
D03*
X2823067Y2670500D02*
D03*
X2820238Y2673329D02*
D03*
X2897000Y2464500D02*
D03*
X2946547Y2465797D02*
D03*
Y2478497D02*
D03*
X2946547Y2491197D02*
D03*
X2946547Y2541997D02*
D03*
Y2554697D02*
D03*
Y2567397D02*
D03*
X2946547Y2580097D02*
D03*
Y2592797D02*
D03*
X2946547Y2605497D02*
D03*
Y2618197D02*
D03*
Y2630897D02*
D03*
Y2643597D02*
D03*
Y2656297D02*
D03*
Y2668997D02*
D03*
Y2681697D02*
D03*
Y2694397D02*
D03*
X2946547Y2707097D02*
D03*
X2784099Y2879440D02*
D03*
X2793080Y2870460D02*
D03*
X2802060Y2861479D02*
D03*
X2811040Y2852499D02*
D03*
X2820020Y2843519D02*
D03*
X2829001Y2834539D02*
D03*
X2837981Y2825558D02*
D03*
X2846961Y2816578D02*
D03*
X2855941Y2807598D02*
D03*
X2864922Y2798618D02*
D03*
X2877500Y2785500D02*
D03*
X2873500Y2789500D02*
D03*
X2886343Y2777196D02*
D03*
X2895323Y2768216D02*
D03*
X2904304Y2759236D02*
D03*
X2913284Y2750256D02*
D03*
X2922264Y2741275D02*
D03*
X2931245Y2732295D02*
D03*
X2935225Y2723315D02*
D03*
X2902000Y2464500D02*
D03*
X2907000D02*
D03*
X2912000Y2464500D02*
D03*
X2917000D02*
D03*
X2922000Y2464500D02*
D03*
X2927000D02*
D03*
X2939000Y2486500D02*
D03*
X2927000Y2503500D02*
D03*
X2922000D02*
D03*
X2917000Y2503500D02*
D03*
X2912000D02*
D03*
X2902000Y2503500D02*
D03*
X2936500Y2510000D02*
D03*
X2902000Y2591500D02*
D03*
X2912000Y2591500D02*
D03*
X2917000D02*
D03*
X2922000Y2591500D02*
D03*
X2927000D02*
D03*
X2939000Y2574500D02*
D03*
X2927000Y2552500D02*
D03*
X2922000D02*
D03*
X2917000Y2552500D02*
D03*
X2912000D02*
D03*
X2907000Y2552500D02*
D03*
X2902000D02*
D03*
X2897000Y2552500D02*
D03*
X2864915Y2735455D02*
D03*
X2871986Y2742526D02*
D03*
X2875522Y2746061D02*
D03*
X2879057Y2749597D02*
D03*
X2882593Y2753133D02*
D03*
X2903099Y2749597D02*
D03*
X2910170Y2725555D02*
D03*
X2906634Y2722020D02*
D03*
X2903099Y2718484D02*
D03*
X2899563Y2714949D02*
D03*
X2892492Y2707878D02*
D03*
X2888957Y2704342D02*
D03*
X2825872Y2774450D02*
D03*
X2832944Y2781521D02*
D03*
X2836479Y2785056D02*
D03*
X2840015Y2788592D02*
D03*
X2843550Y2792127D02*
D03*
X2864056Y2788592D02*
D03*
X2871127Y2764550D02*
D03*
X2867592Y2761015D02*
D03*
X2864056Y2757479D02*
D03*
X2860521Y2753943D02*
D03*
X2853450Y2746873D02*
D03*
X2849914Y2743337D02*
D03*
X2787133Y2813237D02*
D03*
X2794204Y2820308D02*
D03*
X2797740Y2823843D02*
D03*
X2801275Y2827379D02*
D03*
X2804811Y2830914D02*
D03*
X2825317Y2827379D02*
D03*
X2832388Y2803337D02*
D03*
X2828853Y2799802D02*
D03*
X2825317Y2796266D02*
D03*
X2821782Y2792730D02*
D03*
X2814710Y2785659D02*
D03*
X2811175Y2782124D02*
D03*
X2937500Y2598000D02*
D03*
X2939500Y2549500D02*
D03*
X2939500Y2461500D02*
D03*
X2843348Y2810055D02*
D03*
X2806932Y2842227D02*
D03*
X2882088Y2771268D02*
D03*
X2845672Y2803441D02*
D03*
X2921130Y2732274D02*
D03*
X2884714Y2764446D02*
D03*
X2772500Y2589500D02*
D03*
X2776000Y2585500D02*
D03*
X2776000Y2601500D02*
D03*
X2776000Y2577500D02*
D03*
X2772500Y2581500D02*
D03*
X2776000Y2569500D02*
D03*
X2772500Y2573500D02*
D03*
X2776000Y2561500D02*
D03*
X2772500Y2565500D02*
D03*
X2793000Y2544500D02*
D03*
X2782000D02*
D03*
X2787500D02*
D03*
X2809000Y2618000D02*
D03*
X2797000Y2614500D02*
D03*
X2805000Y2614500D02*
D03*
X2813000Y2614500D02*
D03*
X2821000Y2614500D02*
D03*
X2817000Y2618000D02*
D03*
X2773499Y2622000D02*
D03*
X2870999Y2545500D02*
D03*
X2910500Y2630500D02*
D03*
Y2621500D02*
D03*
X2910500Y2612500D02*
D03*
X2888000Y2638500D02*
D03*
X2881000Y2626500D02*
D03*
X2898000Y2638500D02*
D03*
X2881000Y2616500D02*
D03*
X2824834Y2730958D02*
D03*
X2831198Y2737322D02*
D03*
X2810692Y2745100D02*
D03*
X2825188Y2751818D02*
D03*
X2839684Y2694895D02*
D03*
X2836855Y2697723D02*
D03*
X2815642Y2719645D02*
D03*
X2843573Y2726362D02*
D03*
X2829431Y2712220D02*
D03*
X2892500Y2513500D02*
D03*
X2893000Y2529000D02*
D03*
X2875000Y2578500D02*
D03*
X2890000Y2585000D02*
D03*
X2876000Y2494000D02*
D03*
X2854500Y2477500D02*
D03*
X2892000Y2460000D02*
D03*
X2962500Y2723432D02*
D03*
D56*
X2819000Y2571000D02*
D03*
X2803000D02*
D03*
X2819000Y2588000D02*
D03*
X2803000D02*
D03*
X2914500Y2484000D02*
D03*
X2914500Y2572000D02*
D03*
X2887542Y2730505D02*
D03*
X2848500Y2769500D02*
D03*
X2809761Y2808287D02*
D03*
D57*
X2847500Y2690000D02*
D03*
X2796500Y2553000D02*
D03*
X2813000Y2680500D02*
D03*
X2777500Y2551500D02*
D03*
X2791500Y2776500D02*
D03*
X2815642Y2729000D02*
D03*
X2787500Y2536000D02*
D03*
D58*
X2815600Y2639000D02*
D03*
X2802900D02*
D03*
X2790200Y2639000D02*
D03*
Y2651700D02*
D03*
X2802900Y2651700D02*
D03*
X2815600D02*
D03*
M02*
