M48
;Layer_Color=9474304
;FILE_FORMAT=4:4
METRIC,LZ
;TYPE=PLATED
T1F00S00C0.2000
T2F00S00C0.3000
T3F00S00C0.7000
%
T01
X02777Y02524
X02775Y02531
X02773Y02538
X027725Y02544
X02776Y025615
X027725Y025655
X02776Y025695
X027725Y025735
X02776Y025775
X027725Y025815
X02776Y025855
X027725Y025895
X02776Y025935
X027725Y025975
X02776Y026015
X02773499Y02622
X027725Y02645
X027735Y026645
X02773Y02677
Y02694
Y027055
Y02719
X027725Y02739
X02774Y027545
X0278549Y0277049
X0279751
X02816Y02765
X02825872Y0277445
X02825188Y02751818
X02831198Y02737322
X02824834Y02730958
X02815642Y02719645
X028135Y02714
X02806Y02707
X02791Y027115
X027795
X02781Y027215
X027895Y027245
X02810692Y027451
X02804Y02753
X02856985Y02750408
X0285345Y02746873
X02849914Y02743337
X02860521Y02753943
X02864056Y02757479
X02867592Y02761015
X02871127Y0276455
X02884714Y02764446
X02882088Y02771268
X02886343Y02777196
X02895323Y02768216
X02904304Y02759236
X02903099Y02749597
X02913284Y02750256
X02922264Y02741275
X0292113Y02732274
X02931245Y02732295
X02935225Y02723315
X0291017Y02725555
X02906634Y0272202
X02903099Y02718484
X02899563Y02714949
X02896028Y02711413
X02892492Y02707878
X02888957Y02704342
X028885Y026985
X0287Y027045
X02862Y026965
X02861104Y02691081
X02839684Y02694895
X02836855Y02697723
X02829077Y02694189
X028185Y026935
X02820238Y02673329
X02823067Y026705
X02819Y02666
X028156Y026517
X028156Y02639
X028235Y02638
X028029Y02639
Y026517
X02803Y026605
X02804Y02679
X028045Y026845
X027895Y02671
X027902Y02639
X02791Y026285
X02786Y02631
X02793Y02618
X02797Y026145
X02801Y02618
X02805Y026145
X02809Y02618
X02813Y026145
X02817Y02618
X02821Y026145
X028455Y0261
X0285Y026215
X0285Y026295
X02865Y02637
X028675Y026465
X0288Y026585
X02873832Y02678354
X02853326Y02670576
X028505Y0266
X02838Y026605
X028435Y02678
X02826Y027085
X02829431Y0271222
X02843573Y02726362
X02864915Y02735455
X02871986Y02742526
X02875522Y02746061
X02879057Y02749597
X02882593Y02753133
X029085Y02714
X029095Y02683
X02909895Y02671989
X029085Y02659
X02916501Y026475
X02925Y02639
X029105Y026305
Y026215
X029105Y026125
X02912Y025915
X02917
X02922Y025915
X02927
X029375Y02598
Y026095
X02946547Y02605497
Y02618197
Y02630897
Y02643597
Y02656297
Y02668997
Y02681697
Y02694397
X02946547Y02707097
X029625Y02723432
X029665Y027245
X02932001Y02682001
Y02678001
X02930501Y02666501
X02926501
X02898Y026385
X02888
X02881Y026265
X02881Y026165
X028885Y02603
X028985Y02602
X02902Y025915
X0289Y02585
X02875Y025785
X028585Y02578
X028495Y025775
X02846Y025815
X02846Y025735
X028495Y025695
X02846Y025655
X028495Y025615
X02846Y025575
X0285907Y02561071
X02870999Y025455
X02879Y0253
X02883
X02887
X02893Y02529
X028965Y02533
X0289Y025375
X02893Y025485
X02897Y025525
X02902Y025525
X02907
X02912Y025525
X02917
X02922Y025525
X02927
X029395Y025495
X02946547Y02554697
Y02541997
X029435Y02527
X02937Y025175
X029365Y0251
X02927Y025035
X02922
X02917Y025035
X02912
X02902Y025035
X028925Y025135
X02876Y02494
X02857Y024885
X028605Y02481
X028545Y024775
Y024675
Y0246
X028445
Y02466
Y02472
Y02478
X02842Y024965
X02837Y024995
X02831Y02503
X02825Y025065
X02829Y02512
X028325Y025185
X02838Y02521
X028415Y025155
X02842Y025065
X02857
X02814Y02513
X02809Y025155
X02804Y025185
X02805Y025255
X028035Y02534
Y02541
X02793Y025445
X027875
X02782
X02783499Y025235
X027925Y025235
X027985Y025215
X0282Y02525
X02838Y025485
X029115Y02533
X029185
X029275
X02939Y025745
X02946547Y02580097
Y02592797
X02946547Y02567397
X02946547Y02491197
X02939Y024865
X02946547Y02478497
Y02465797
X02956Y02465
X029675Y024605
X029395Y024615
X02927Y024645
X02922
X02917Y024645
X02912
X02907Y024645
X02902
X02897Y024645
X02892Y0246
X028725Y024675
X028665Y0261
X02864056Y02788592
X028735Y027895
X028775Y027855
X02864922Y02798618
X02855941Y02807598
X02845672Y02803441
X02843348Y02810055
X02846961Y02816578
X02837981Y02825558
X02825317Y02827379
X02829001Y02834539
X0282002Y02843519
X02806932Y02842227
X02804811Y02830914
X02801275Y02827379
X0279774Y02823843
X02794204Y02820308
X02787133Y02813237
X027835Y0283
Y02847
X02783Y028665
X02784099Y0287944
X0279308Y0287046
X0280206Y02861479
X0281104Y02852499
X02818246Y02789195
X0281471Y02785659
X02811175Y02782124
X0279751Y0278251
X0278549
X027835Y027955
X02821782Y0279273
X02825317Y02796266
X02828853Y02799802
X02832388Y02803337
X02832944Y02781521
X02836479Y02785056
X02840015Y02788592
X0284355Y02792127
T02
X02803Y02571
X02819
Y02588
X02803
X029145Y02572
X029145Y02484
X02887542Y02730505
X028485Y027695
X02809761Y02808287
T03
X029675Y024697
Y024824
Y024951
Y025078
Y025205
Y025332
Y025459
Y025586
Y025713
Y02584
Y025967
Y026094
Y026221
Y026348
Y026475
Y026602
Y026729
Y026856
Y026983
Y02711
X02959345Y02735655
X02950364Y02744635
X02941384Y02753615
X02932404Y02762596
X02923424Y02771576
X02914443Y02780556
X02905463Y02789536
X02896483Y02798517
X02887503Y02807497
X02878522Y02816477
X02869542Y02825457
X02860562Y02834438
X02851582Y02843418
X02842601Y02852398
X02833621Y02861378
X02824641Y02870359
X02815661Y02879339
X0280668Y02888319
X027977Y02897299
X0278872Y0290628
M30
