G04 Layer_Color=8421504*
%FSLAX44Y44*%
%MOMM*%
G71*
G01*
G75*
G04:AMPARAMS|DCode=13|XSize=0.55mm|YSize=0.45mm|CornerRadius=0mm|HoleSize=0mm|Usage=FLASHONLY|Rotation=135.000|XOffset=0mm|YOffset=0mm|HoleType=Round|Shape=Rectangle|*
%AMROTATEDRECTD13*
4,1,4,0.3536,-0.0354,0.0354,-0.3536,-0.3536,0.0354,-0.0354,0.3536,0.3536,-0.0354,0.0*
%
%ADD13ROTATEDRECTD13*%

%ADD14R,0.7000X0.9000*%
%ADD15R,0.5500X0.4500*%
G04:AMPARAMS|DCode=16|XSize=2mm|YSize=1mm|CornerRadius=0.25mm|HoleSize=0mm|Usage=FLASHONLY|Rotation=135.000|XOffset=0mm|YOffset=0mm|HoleType=Round|Shape=RoundedRectangle|*
%AMROUNDEDRECTD16*
21,1,2.0000,0.5000,0,0,135.0*
21,1,1.5000,1.0000,0,0,135.0*
1,1,0.5000,-0.3535,0.7071*
1,1,0.5000,0.7071,-0.3535*
1,1,0.5000,0.3535,-0.7071*
1,1,0.5000,-0.7071,0.3535*
%
%ADD16ROUNDEDRECTD16*%
%ADD17R,0.9000X0.8000*%
G04:AMPARAMS|DCode=18|XSize=2mm|YSize=1mm|CornerRadius=0.25mm|HoleSize=0mm|Usage=FLASHONLY|Rotation=270.000|XOffset=0mm|YOffset=0mm|HoleType=Round|Shape=RoundedRectangle|*
%AMROUNDEDRECTD18*
21,1,2.0000,0.5000,0,0,270.0*
21,1,1.5000,1.0000,0,0,270.0*
1,1,0.5000,-0.2500,-0.7500*
1,1,0.5000,-0.2500,0.7500*
1,1,0.5000,0.2500,0.7500*
1,1,0.5000,0.2500,-0.7500*
%
%ADD18ROUNDEDRECTD18*%
%ADD19R,1.3500X0.8000*%
%ADD20R,0.8000X1.3500*%
G04:AMPARAMS|DCode=21|XSize=0.6mm|YSize=0.8mm|CornerRadius=0mm|HoleSize=0mm|Usage=FLASHONLY|Rotation=315.000|XOffset=0mm|YOffset=0mm|HoleType=Round|Shape=Rectangle|*
%AMROTATEDRECTD21*
4,1,4,-0.4950,-0.0707,0.0707,0.4950,0.4950,0.0707,-0.0707,-0.4950,-0.4950,-0.0707,0.0*
%
%ADD21ROTATEDRECTD21*%

G04:AMPARAMS|DCode=23|XSize=0.55mm|YSize=0.25mm|CornerRadius=0.0625mm|HoleSize=0mm|Usage=FLASHONLY|Rotation=135.000|XOffset=0mm|YOffset=0mm|HoleType=Round|Shape=RoundedRectangle|*
%AMROUNDEDRECTD23*
21,1,0.5500,0.1250,0,0,135.0*
21,1,0.4250,0.2500,0,0,135.0*
1,1,0.1250,-0.1061,0.1945*
1,1,0.1250,0.1945,-0.1061*
1,1,0.1250,0.1061,-0.1945*
1,1,0.1250,-0.1945,0.1061*
%
%ADD23ROUNDEDRECTD23*%
G04:AMPARAMS|DCode=24|XSize=0.9mm|YSize=0.7mm|CornerRadius=0mm|HoleSize=0mm|Usage=FLASHONLY|Rotation=225.000|XOffset=0mm|YOffset=0mm|HoleType=Round|Shape=Rectangle|*
%AMROTATEDRECTD24*
4,1,4,0.0707,0.5657,0.5657,0.0707,-0.0707,-0.5657,-0.5657,-0.0707,0.0707,0.5657,0.0*
%
%ADD24ROTATEDRECTD24*%

G04:AMPARAMS|DCode=25|XSize=0.55mm|YSize=0.45mm|CornerRadius=0mm|HoleSize=0mm|Usage=FLASHONLY|Rotation=45.000|XOffset=0mm|YOffset=0mm|HoleType=Round|Shape=Rectangle|*
%AMROTATEDRECTD25*
4,1,4,-0.0354,-0.3536,-0.3536,-0.0354,0.0354,0.3536,0.3536,0.0354,-0.0354,-0.3536,0.0*
%
%ADD25ROTATEDRECTD25*%

G04:AMPARAMS|DCode=26|XSize=0.55mm|YSize=1.1mm|CornerRadius=0.1375mm|HoleSize=0mm|Usage=FLASHONLY|Rotation=45.000|XOffset=0mm|YOffset=0mm|HoleType=Round|Shape=RoundedRectangle|*
%AMROUNDEDRECTD26*
21,1,0.5500,0.8250,0,0,45.0*
21,1,0.2750,1.1000,0,0,45.0*
1,1,0.2750,0.3889,-0.1945*
1,1,0.2750,0.1945,-0.3889*
1,1,0.2750,-0.3889,0.1945*
1,1,0.2750,-0.1945,0.3889*
%
%ADD26ROUNDEDRECTD26*%
G04:AMPARAMS|DCode=27|XSize=0.9mm|YSize=0.7mm|CornerRadius=0mm|HoleSize=0mm|Usage=FLASHONLY|Rotation=135.000|XOffset=0mm|YOffset=0mm|HoleType=Round|Shape=Rectangle|*
%AMROTATEDRECTD27*
4,1,4,0.5657,-0.0707,0.0707,-0.5657,-0.5657,0.0707,-0.0707,0.5657,0.5657,-0.0707,0.0*
%
%ADD27ROTATEDRECTD27*%

G04:AMPARAMS|DCode=28|XSize=0.6mm|YSize=0.9mm|CornerRadius=0.075mm|HoleSize=0mm|Usage=FLASHONLY|Rotation=0.000|XOffset=0mm|YOffset=0mm|HoleType=Round|Shape=RoundedRectangle|*
%AMROUNDEDRECTD28*
21,1,0.6000,0.7500,0,0,0.0*
21,1,0.4500,0.9000,0,0,0.0*
1,1,0.1500,0.2250,-0.3750*
1,1,0.1500,-0.2250,-0.3750*
1,1,0.1500,-0.2250,0.3750*
1,1,0.1500,0.2250,0.3750*
%
%ADD28ROUNDEDRECTD28*%
G04:AMPARAMS|DCode=29|XSize=2mm|YSize=1mm|CornerRadius=0.125mm|HoleSize=0mm|Usage=FLASHONLY|Rotation=180.000|XOffset=0mm|YOffset=0mm|HoleType=Round|Shape=RoundedRectangle|*
%AMROUNDEDRECTD29*
21,1,2.0000,0.7500,0,0,180.0*
21,1,1.7500,1.0000,0,0,180.0*
1,1,0.2500,-0.8750,0.3750*
1,1,0.2500,0.8750,0.3750*
1,1,0.2500,0.8750,-0.3750*
1,1,0.2500,-0.8750,-0.3750*
%
%ADD29ROUNDEDRECTD29*%
%ADD30O,0.8000X0.2500*%
%ADD31O,0.2500X0.8000*%
G04:AMPARAMS|DCode=32|XSize=2mm|YSize=1mm|CornerRadius=0.125mm|HoleSize=0mm|Usage=FLASHONLY|Rotation=225.000|XOffset=0mm|YOffset=0mm|HoleType=Round|Shape=RoundedRectangle|*
%AMROUNDEDRECTD32*
21,1,2.0000,0.7500,0,0,225.0*
21,1,1.7500,1.0000,0,0,225.0*
1,1,0.2500,-0.8839,-0.3535*
1,1,0.2500,0.3535,0.8839*
1,1,0.2500,0.8839,0.3535*
1,1,0.2500,-0.3535,-0.8839*
%
%ADD32ROUNDEDRECTD32*%
G04:AMPARAMS|DCode=33|XSize=0.8mm|YSize=0.25mm|CornerRadius=0mm|HoleSize=0mm|Usage=FLASHONLY|Rotation=225.000|XOffset=0mm|YOffset=0mm|HoleType=Round|Shape=Round|*
%AMOVALD33*
21,1,0.5500,0.2500,0.0000,0.0000,225.0*
1,1,0.2500,0.1945,0.1945*
1,1,0.2500,-0.1945,-0.1945*
%
%ADD33OVALD33*%

G04:AMPARAMS|DCode=34|XSize=0.8mm|YSize=0.25mm|CornerRadius=0mm|HoleSize=0mm|Usage=FLASHONLY|Rotation=135.000|XOffset=0mm|YOffset=0mm|HoleType=Round|Shape=Round|*
%AMOVALD34*
21,1,0.5500,0.2500,0.0000,0.0000,135.0*
1,1,0.2500,0.1945,-0.1945*
1,1,0.2500,-0.1945,0.1945*
%
%ADD34OVALD34*%

%ADD35R,0.4500X0.5500*%
%ADD36R,0.9000X0.7000*%
G04:AMPARAMS|DCode=37|XSize=0.75mm|YSize=0.7mm|CornerRadius=0.0875mm|HoleSize=0mm|Usage=FLASHONLY|Rotation=270.000|XOffset=0mm|YOffset=0mm|HoleType=Round|Shape=RoundedRectangle|*
%AMROUNDEDRECTD37*
21,1,0.7500,0.5250,0,0,270.0*
21,1,0.5750,0.7000,0,0,270.0*
1,1,0.1750,-0.2625,-0.2875*
1,1,0.1750,-0.2625,0.2875*
1,1,0.1750,0.2625,0.2875*
1,1,0.1750,0.2625,-0.2875*
%
%ADD37ROUNDEDRECTD37*%
G04:AMPARAMS|DCode=38|XSize=0.6mm|YSize=1.1mm|CornerRadius=0.075mm|HoleSize=0mm|Usage=FLASHONLY|Rotation=180.000|XOffset=0mm|YOffset=0mm|HoleType=Round|Shape=RoundedRectangle|*
%AMROUNDEDRECTD38*
21,1,0.6000,0.9500,0,0,180.0*
21,1,0.4500,1.1000,0,0,180.0*
1,1,0.1500,-0.2250,0.4750*
1,1,0.1500,0.2250,0.4750*
1,1,0.1500,0.2250,-0.4750*
1,1,0.1500,-0.2250,-0.4750*
%
%ADD38ROUNDEDRECTD38*%
G04:AMPARAMS|DCode=39|XSize=0.6mm|YSize=0.2mm|CornerRadius=0.05mm|HoleSize=0mm|Usage=FLASHONLY|Rotation=270.000|XOffset=0mm|YOffset=0mm|HoleType=Round|Shape=RoundedRectangle|*
%AMROUNDEDRECTD39*
21,1,0.6000,0.1000,0,0,270.0*
21,1,0.5000,0.2000,0,0,270.0*
1,1,0.1000,-0.0500,-0.2500*
1,1,0.1000,-0.0500,0.2500*
1,1,0.1000,0.0500,0.2500*
1,1,0.1000,0.0500,-0.2500*
%
%ADD39ROUNDEDRECTD39*%
G04:AMPARAMS|DCode=40|XSize=0.6mm|YSize=0.2mm|CornerRadius=0.05mm|HoleSize=0mm|Usage=FLASHONLY|Rotation=0.000|XOffset=0mm|YOffset=0mm|HoleType=Round|Shape=RoundedRectangle|*
%AMROUNDEDRECTD40*
21,1,0.6000,0.1000,0,0,0.0*
21,1,0.5000,0.2000,0,0,0.0*
1,1,0.1000,0.2500,-0.0500*
1,1,0.1000,-0.2500,-0.0500*
1,1,0.1000,-0.2500,0.0500*
1,1,0.1000,0.2500,0.0500*
%
%ADD40ROUNDEDRECTD40*%
G04:AMPARAMS|DCode=42|XSize=1.66mm|YSize=0.8mm|CornerRadius=0.08mm|HoleSize=0mm|Usage=FLASHONLY|Rotation=330.000|XOffset=0mm|YOffset=0mm|HoleType=Round|Shape=RoundedRectangle|*
%AMROUNDEDRECTD42*
21,1,1.6600,0.6400,0,0,330.0*
21,1,1.5000,0.8000,0,0,330.0*
1,1,0.1600,0.4895,-0.6521*
1,1,0.1600,-0.8095,0.0979*
1,1,0.1600,-0.4895,0.6521*
1,1,0.1600,0.8095,-0.0979*
%
%ADD42ROUNDEDRECTD42*%
G04:AMPARAMS|DCode=43|XSize=0.55mm|YSize=0.45mm|CornerRadius=0mm|HoleSize=0mm|Usage=FLASHONLY|Rotation=22.500|XOffset=0mm|YOffset=0mm|HoleType=Round|Shape=Rectangle|*
%AMROTATEDRECTD43*
4,1,4,-0.1680,-0.3131,-0.3402,0.1026,0.1680,0.3131,0.3402,-0.1026,-0.1680,-0.3131,0.0*
%
%ADD43ROTATEDRECTD43*%

G04:AMPARAMS|DCode=44|XSize=0.55mm|YSize=0.45mm|CornerRadius=0mm|HoleSize=0mm|Usage=FLASHONLY|Rotation=330.000|XOffset=0mm|YOffset=0mm|HoleType=Round|Shape=Rectangle|*
%AMROTATEDRECTD44*
4,1,4,-0.3507,-0.0574,-0.1257,0.3324,0.3507,0.0574,0.1257,-0.3324,-0.3507,-0.0574,0.0*
%
%ADD44ROTATEDRECTD44*%

G04:AMPARAMS|DCode=45|XSize=0.5mm|YSize=0.25mm|CornerRadius=0.0625mm|HoleSize=0mm|Usage=FLASHONLY|Rotation=270.000|XOffset=0mm|YOffset=0mm|HoleType=Round|Shape=RoundedRectangle|*
%AMROUNDEDRECTD45*
21,1,0.5000,0.1250,0,0,270.0*
21,1,0.3750,0.2500,0,0,270.0*
1,1,0.1250,-0.0625,-0.1875*
1,1,0.1250,-0.0625,0.1875*
1,1,0.1250,0.0625,0.1875*
1,1,0.1250,0.0625,-0.1875*
%
%ADD45ROUNDEDRECTD45*%
G04:AMPARAMS|DCode=46|XSize=0.5mm|YSize=0.25mm|CornerRadius=0.0625mm|HoleSize=0mm|Usage=FLASHONLY|Rotation=0.000|XOffset=0mm|YOffset=0mm|HoleType=Round|Shape=RoundedRectangle|*
%AMROUNDEDRECTD46*
21,1,0.5000,0.1250,0,0,0.0*
21,1,0.3750,0.2500,0,0,0.0*
1,1,0.1250,0.1875,-0.0625*
1,1,0.1250,-0.1875,-0.0625*
1,1,0.1250,-0.1875,0.0625*
1,1,0.1250,0.1875,0.0625*
%
%ADD46ROUNDEDRECTD46*%
G04:AMPARAMS|DCode=47|XSize=0.6mm|YSize=0.9mm|CornerRadius=0.075mm|HoleSize=0mm|Usage=FLASHONLY|Rotation=45.000|XOffset=0mm|YOffset=0mm|HoleType=Round|Shape=RoundedRectangle|*
%AMROUNDEDRECTD47*
21,1,0.6000,0.7500,0,0,45.0*
21,1,0.4500,0.9000,0,0,45.0*
1,1,0.1500,0.4243,-0.1061*
1,1,0.1500,0.1061,-0.4243*
1,1,0.1500,-0.4243,0.1061*
1,1,0.1500,-0.1061,0.4243*
%
%ADD47ROUNDEDRECTD47*%
%ADD52C,0.1200*%
G04:AMPARAMS|DCode=60|XSize=0.8mm|YSize=1mm|CornerRadius=0mm|HoleSize=0mm|Usage=FLASHONLY|Rotation=315.000|XOffset=0mm|YOffset=0mm|HoleType=Round|Shape=Rectangle|*
%AMROTATEDRECTD60*
4,1,4,-0.6364,-0.0707,0.0707,0.6364,0.6364,0.0707,-0.0707,-0.6364,-0.6364,-0.0707,0.0*
%
%ADD60ROTATEDRECTD60*%

G04:AMPARAMS|DCode=61|XSize=0.8mm|YSize=1mm|CornerRadius=0mm|HoleSize=0mm|Usage=FLASHONLY|Rotation=135.000|XOffset=0mm|YOffset=0mm|HoleType=Round|Shape=Rectangle|*
%AMROTATEDRECTD61*
4,1,4,0.6364,0.0707,-0.0707,-0.6364,-0.6364,-0.0707,0.0707,0.6364,0.6364,0.0707,0.0*
%
%ADD61ROTATEDRECTD61*%

%ADD62R,1.2000X1.2000*%
D13*
X2950450Y2507800D02*
D03*
X2956814Y2514164D02*
D03*
X2956800Y2526850D02*
D03*
X2950436Y2520486D02*
D03*
X2776751Y2699138D02*
D03*
X2783115Y2705502D02*
D03*
X2783116Y2692774D02*
D03*
X2789479Y2699138D02*
D03*
X2796679Y2831975D02*
D03*
X2803043Y2838339D02*
D03*
X2785012Y2820308D02*
D03*
X2791376Y2826672D02*
D03*
X2835418Y2793188D02*
D03*
X2841782Y2799552D02*
D03*
X2823751Y2781521D02*
D03*
X2830115Y2787885D02*
D03*
X2874460Y2754193D02*
D03*
X2880824Y2760557D02*
D03*
X2862794Y2742526D02*
D03*
X2869157Y2748890D02*
D03*
X2848818Y2550818D02*
D03*
X2855182Y2557182D02*
D03*
X2950436Y2710986D02*
D03*
X2956800Y2717350D02*
D03*
X2950436Y2698286D02*
D03*
X2956800Y2704650D02*
D03*
X2950436Y2685586D02*
D03*
X2956800Y2691950D02*
D03*
X2950436Y2672886D02*
D03*
X2956800Y2679250D02*
D03*
X2950436Y2660186D02*
D03*
X2956800Y2666550D02*
D03*
X2950436Y2647486D02*
D03*
X2956800Y2653850D02*
D03*
X2950436Y2634786D02*
D03*
X2956800Y2641150D02*
D03*
X2950436Y2622086D02*
D03*
X2956800Y2628450D02*
D03*
X2950436Y2609386D02*
D03*
X2956800Y2615750D02*
D03*
X2950436Y2596686D02*
D03*
X2956800Y2603050D02*
D03*
X2906006Y2668101D02*
D03*
X2899642Y2661737D02*
D03*
X2950436Y2583986D02*
D03*
X2956800Y2590350D02*
D03*
X2950436Y2571286D02*
D03*
X2956800Y2577650D02*
D03*
X2950436Y2558586D02*
D03*
X2956800Y2564950D02*
D03*
X2950436Y2545886D02*
D03*
X2956800Y2552250D02*
D03*
X2874893Y2693557D02*
D03*
X2868529Y2687192D02*
D03*
X2950436Y2533186D02*
D03*
X2956800Y2539550D02*
D03*
X2950436Y2495086D02*
D03*
X2956800Y2501450D02*
D03*
X2950436Y2482386D02*
D03*
X2956800Y2488750D02*
D03*
X2950436Y2469686D02*
D03*
X2956800Y2476050D02*
D03*
X2857215Y2687192D02*
D03*
X2850851Y2680829D02*
D03*
X2869943Y2674464D02*
D03*
X2863579Y2668101D02*
D03*
X2857215Y2674465D02*
D03*
X2863579Y2680829D02*
D03*
D14*
X2917000Y2690001D02*
D03*
X2931000D02*
D03*
D15*
X2784000Y2616500D02*
D03*
Y2625500D02*
D03*
X2939500Y2564000D02*
D03*
Y2555000D02*
D03*
X2939500Y2476000D02*
D03*
Y2467000D02*
D03*
X2858500Y2592500D02*
D03*
X2858500Y2583500D02*
D03*
X2846500Y2530500D02*
D03*
Y2521500D02*
D03*
X2773499Y2607500D02*
D03*
X2773499Y2616500D02*
D03*
X2783499Y2538000D02*
D03*
X2783499Y2529000D02*
D03*
X2792500Y2538000D02*
D03*
Y2529000D02*
D03*
X2784099Y2884940D02*
D03*
Y2893940D02*
D03*
X2793080Y2875960D02*
D03*
Y2884959D02*
D03*
X2802060Y2866979D02*
D03*
Y2875979D02*
D03*
X2811040Y2857999D02*
D03*
Y2866999D02*
D03*
X2820020Y2849019D02*
D03*
Y2858019D02*
D03*
X2829001Y2840039D02*
D03*
Y2849038D02*
D03*
X2837981Y2831058D02*
D03*
Y2840058D02*
D03*
X2846961Y2822078D02*
D03*
Y2831078D02*
D03*
X2855941Y2813098D02*
D03*
Y2822098D02*
D03*
X2864922Y2804118D02*
D03*
Y2813117D02*
D03*
X2873902Y2795138D02*
D03*
Y2804137D02*
D03*
D16*
X2795843Y2745100D02*
D03*
X2809985Y2759243D02*
D03*
D17*
X2883000Y2521500D02*
D03*
X2883000Y2544500D02*
D03*
X2883000Y2509000D02*
D03*
Y2486000D02*
D03*
D18*
X2863000Y2467500D02*
D03*
X2883000D02*
D03*
D19*
X2900500Y2521500D02*
D03*
Y2540500D02*
D03*
X2918500Y2521500D02*
D03*
X2918500Y2540500D02*
D03*
D20*
X2868500Y2506500D02*
D03*
X2849500Y2506500D02*
D03*
X2868500Y2488500D02*
D03*
X2849500D02*
D03*
D21*
X2788771Y2734495D02*
D03*
X2798670Y2724595D02*
D03*
D23*
X2822360Y2719291D02*
D03*
X2825895Y2722827D02*
D03*
X2829431Y2726362D02*
D03*
X2832966Y2729897D02*
D03*
X2836502Y2733433D02*
D03*
X2850644Y2719291D02*
D03*
X2847108Y2715755D02*
D03*
X2843573Y2712220D02*
D03*
X2840037Y2708684D02*
D03*
X2836501Y2705149D02*
D03*
D24*
X2806449Y2716816D02*
D03*
X2816349Y2706917D02*
D03*
X2834027Y2689239D02*
D03*
X2824128Y2699138D02*
D03*
X2796197Y2706563D02*
D03*
X2786298Y2716462D02*
D03*
D25*
X2853472Y2709391D02*
D03*
X2859836Y2703027D02*
D03*
X2846401Y2702320D02*
D03*
X2852765Y2695956D02*
D03*
X2866200Y2709392D02*
D03*
X2859836Y2715756D02*
D03*
X2814581Y2741211D02*
D03*
X2820945Y2734847D02*
D03*
X2820945Y2747575D02*
D03*
X2827309Y2741211D02*
D03*
X2833095Y2820308D02*
D03*
X2839459Y2813944D02*
D03*
X2871835Y2781521D02*
D03*
X2878199Y2775157D02*
D03*
X2910877Y2742526D02*
D03*
X2917241Y2736162D02*
D03*
X2828319Y2534682D02*
D03*
X2834683Y2528318D02*
D03*
D26*
X2824834Y2677925D02*
D03*
X2811400Y2664490D02*
D03*
X2791600Y2684289D02*
D03*
X2798318Y2691007D02*
D03*
X2805035Y2697724D02*
D03*
D27*
X2834380Y2668380D02*
D03*
X2824481Y2658480D02*
D03*
D28*
X2924001Y2676501D02*
D03*
X2930501Y2658501D02*
D03*
X2917501D02*
D03*
D29*
X2914500Y2572000D02*
D03*
Y2484000D02*
D03*
D30*
X2932000Y2569500D02*
D03*
X2897000D02*
D03*
Y2574500D02*
D03*
X2932000Y2574500D02*
D03*
Y2481500D02*
D03*
X2897000D02*
D03*
Y2486500D02*
D03*
X2932000D02*
D03*
D31*
X2927000Y2559500D02*
D03*
X2922000D02*
D03*
X2917000D02*
D03*
X2912000D02*
D03*
X2907000D02*
D03*
X2902000D02*
D03*
Y2584500D02*
D03*
X2907000D02*
D03*
X2912000Y2584500D02*
D03*
X2917000D02*
D03*
X2922000Y2584500D02*
D03*
X2927000D02*
D03*
Y2471500D02*
D03*
X2922000D02*
D03*
X2917000Y2471500D02*
D03*
X2912000D02*
D03*
X2907000Y2471500D02*
D03*
X2902000D02*
D03*
Y2496500D02*
D03*
X2907000D02*
D03*
X2912000Y2496500D02*
D03*
X2917000D02*
D03*
X2922000Y2496500D02*
D03*
X2927000D02*
D03*
D32*
X2809759Y2808289D02*
D03*
X2848498Y2769502D02*
D03*
X2887540Y2730507D02*
D03*
D33*
X2823901Y2818896D02*
D03*
X2799152Y2794147D02*
D03*
X2795616Y2797682D02*
D03*
X2820365Y2822431D02*
D03*
X2862640Y2780109D02*
D03*
X2837891Y2755360D02*
D03*
X2834356Y2758896D02*
D03*
X2859104Y2783644D02*
D03*
X2901682Y2741114D02*
D03*
X2876934Y2716365D02*
D03*
X2873398Y2719901D02*
D03*
X2898147Y2744649D02*
D03*
D34*
X2827436Y2808289D02*
D03*
X2823901Y2804753D02*
D03*
X2820365Y2801218D02*
D03*
X2816830Y2797682D02*
D03*
X2813294Y2794147D02*
D03*
X2809759Y2790611D02*
D03*
X2792081Y2808289D02*
D03*
X2795616Y2811825D02*
D03*
X2799152Y2815360D02*
D03*
X2802687Y2818896D02*
D03*
X2806223Y2822431D02*
D03*
X2809759Y2825967D02*
D03*
X2866176Y2769502D02*
D03*
X2862640Y2765966D02*
D03*
X2859104Y2762431D02*
D03*
X2855569Y2758896D02*
D03*
X2852033Y2755360D02*
D03*
X2848498Y2751824D02*
D03*
X2830820Y2769502D02*
D03*
X2834356Y2773038D02*
D03*
X2837891Y2776573D02*
D03*
X2841427Y2780109D02*
D03*
X2844962Y2783644D02*
D03*
X2848498Y2787180D02*
D03*
X2905218Y2730507D02*
D03*
X2901682Y2726972D02*
D03*
X2898147Y2723436D02*
D03*
X2894612Y2719901D02*
D03*
X2891076Y2716365D02*
D03*
X2887540Y2712830D02*
D03*
X2869863Y2730507D02*
D03*
X2873398Y2734043D02*
D03*
X2876934Y2737578D02*
D03*
X2880469Y2741114D02*
D03*
X2884005Y2744649D02*
D03*
X2887540Y2748185D02*
D03*
D35*
X2922001Y2647500D02*
D03*
X2931001D02*
D03*
X2922000Y2597999D02*
D03*
X2931000Y2597999D02*
D03*
X2905500Y2598000D02*
D03*
X2914500Y2598000D02*
D03*
X2922000Y2510000D02*
D03*
X2931000D02*
D03*
X2905500Y2510000D02*
D03*
X2914500D02*
D03*
X2859500Y2601000D02*
D03*
X2850500D02*
D03*
X2856500Y2545500D02*
D03*
X2865500Y2545500D02*
D03*
X2852000Y2610000D02*
D03*
X2861000D02*
D03*
X2835500Y2620500D02*
D03*
X2844500D02*
D03*
X2844500Y2629500D02*
D03*
X2835500D02*
D03*
X2796500Y2628500D02*
D03*
X2805500D02*
D03*
X2810000Y2538000D02*
D03*
X2819000D02*
D03*
X2916000Y2630500D02*
D03*
X2925000D02*
D03*
X2916000Y2621500D02*
D03*
X2925000Y2621500D02*
D03*
X2916000Y2612500D02*
D03*
X2925000D02*
D03*
X2882863Y2786176D02*
D03*
X2891862Y2786177D02*
D03*
X2891843Y2777196D02*
D03*
X2900843D02*
D03*
X2900823Y2768216D02*
D03*
X2909823Y2768216D02*
D03*
X2909803Y2759236D02*
D03*
X2918803D02*
D03*
X2918784Y2750256D02*
D03*
X2927784Y2750256D02*
D03*
X2927764Y2741275D02*
D03*
X2936764Y2741275D02*
D03*
X2936744Y2732295D02*
D03*
X2945744D02*
D03*
X2940724Y2723315D02*
D03*
X2949724D02*
D03*
D36*
X2869500Y2600499D02*
D03*
Y2586499D02*
D03*
D37*
X2866000Y2535750D02*
D03*
X2856000Y2522250D02*
D03*
Y2535750D02*
D03*
X2866000Y2522250D02*
D03*
D38*
X2814500Y2628500D02*
D03*
X2826500Y2628500D02*
D03*
D39*
X2833000Y2608500D02*
D03*
X2829000Y2608500D02*
D03*
X2825000Y2608500D02*
D03*
X2821000Y2608500D02*
D03*
X2817000D02*
D03*
X2813000Y2608500D02*
D03*
X2809000D02*
D03*
X2805000D02*
D03*
X2801000D02*
D03*
X2797000D02*
D03*
X2793000Y2608500D02*
D03*
X2789000Y2608500D02*
D03*
Y2550500D02*
D03*
X2793000Y2550500D02*
D03*
X2797000Y2550500D02*
D03*
X2801000D02*
D03*
X2805000D02*
D03*
X2809000D02*
D03*
X2813000D02*
D03*
X2817000Y2550500D02*
D03*
X2821000Y2550500D02*
D03*
X2825000D02*
D03*
X2829000D02*
D03*
X2833000D02*
D03*
D40*
X2782000Y2601500D02*
D03*
X2782000Y2597500D02*
D03*
X2782000Y2593500D02*
D03*
X2782000Y2589500D02*
D03*
X2782000Y2585500D02*
D03*
X2782000Y2581500D02*
D03*
Y2577500D02*
D03*
X2782000Y2573500D02*
D03*
Y2569500D02*
D03*
X2782000Y2565500D02*
D03*
X2782000Y2561500D02*
D03*
X2782000Y2557500D02*
D03*
X2840000Y2557500D02*
D03*
Y2561500D02*
D03*
X2840000Y2565500D02*
D03*
X2840000Y2569500D02*
D03*
Y2573500D02*
D03*
Y2577500D02*
D03*
Y2581500D02*
D03*
Y2585500D02*
D03*
Y2589500D02*
D03*
Y2593500D02*
D03*
Y2597500D02*
D03*
X2840000Y2601500D02*
D03*
D42*
X2797750Y2477576D02*
D03*
X2813250Y2504423D02*
D03*
D43*
X2811277Y2528657D02*
D03*
X2814722Y2520342D02*
D03*
D44*
X2821750Y2513603D02*
D03*
X2826249Y2521397D02*
D03*
D45*
X2903000Y2633000D02*
D03*
X2898000Y2633000D02*
D03*
X2893000D02*
D03*
X2888000D02*
D03*
X2888000Y2610000D02*
D03*
X2893000Y2610000D02*
D03*
X2898000D02*
D03*
X2903000Y2610000D02*
D03*
D46*
X2886500Y2626500D02*
D03*
Y2621500D02*
D03*
Y2616500D02*
D03*
X2904500Y2616500D02*
D03*
X2904500Y2621500D02*
D03*
X2904500Y2626500D02*
D03*
D47*
X2884211Y2687140D02*
D03*
X2901535Y2679008D02*
D03*
X2892343Y2669816D02*
D03*
X2887268Y2650776D02*
D03*
X2869944Y2658908D02*
D03*
X2879136Y2668100D02*
D03*
D52*
X2585999Y2233997D02*
Y2222000D01*
X2582000Y2233997D02*
X2589998D01*
X2594283Y2229998D02*
X2593141Y2229427D01*
X2591998Y2228284D01*
X2591426Y2226570D01*
Y2225428D01*
X2591998Y2223714D01*
X2593141Y2222571D01*
X2594283Y2222000D01*
X2595997D01*
X2597140Y2222571D01*
X2598282Y2223714D01*
X2598853Y2225428D01*
Y2226570D01*
X2598282Y2228284D01*
X2597140Y2229427D01*
X2595997Y2229998D01*
X2594283D01*
X2601482D02*
Y2218001D01*
Y2228284D02*
X2602624Y2229427D01*
X2603767Y2229998D01*
X2605481D01*
X2606623Y2229427D01*
X2607766Y2228284D01*
X2608337Y2226570D01*
Y2225428D01*
X2607766Y2223714D01*
X2606623Y2222571D01*
X2605481Y2222000D01*
X2603767D01*
X2602624Y2222571D01*
X2601482Y2223714D01*
X2620334Y2227713D02*
X2625476D01*
X2627190Y2228284D01*
X2627762Y2228856D01*
X2628333Y2229998D01*
Y2231712D01*
X2627762Y2232855D01*
X2627190Y2233426D01*
X2625476Y2233997D01*
X2620334D01*
Y2222000D01*
X2637874Y2229998D02*
Y2222000D01*
Y2228284D02*
X2636731Y2229427D01*
X2635588Y2229998D01*
X2633875D01*
X2632732Y2229427D01*
X2631589Y2228284D01*
X2631018Y2226570D01*
Y2225428D01*
X2631589Y2223714D01*
X2632732Y2222571D01*
X2633875Y2222000D01*
X2635588D01*
X2636731Y2222571D01*
X2637874Y2223714D01*
X2647357Y2228284D02*
X2646786Y2229427D01*
X2645072Y2229998D01*
X2643358D01*
X2641644Y2229427D01*
X2641073Y2228284D01*
X2641644Y2227142D01*
X2642787Y2226570D01*
X2645644Y2225999D01*
X2646786Y2225428D01*
X2647357Y2224285D01*
Y2223714D01*
X2646786Y2222571D01*
X2645072Y2222000D01*
X2643358D01*
X2641644Y2222571D01*
X2641073Y2223714D01*
X2651585Y2233997D02*
Y2224285D01*
X2652156Y2222571D01*
X2653299Y2222000D01*
X2654442D01*
X2649871Y2229998D02*
X2653870D01*
X2656155Y2226570D02*
X2663011D01*
Y2227713D01*
X2662440Y2228856D01*
X2661869Y2229427D01*
X2660726Y2229998D01*
X2659012D01*
X2657870Y2229427D01*
X2656727Y2228284D01*
X2656155Y2226570D01*
Y2225428D01*
X2656727Y2223714D01*
X2657870Y2222571D01*
X2659012Y2222000D01*
X2660726D01*
X2661869Y2222571D01*
X2663011Y2223714D01*
D60*
X2832260Y2715049D02*
D03*
D61*
X2840744Y2723533D02*
D03*
D62*
X2826501Y2595000D02*
D03*
Y2564000D02*
D03*
X2795501D02*
D03*
Y2595000D02*
D03*
Y2579500D02*
D03*
X2811001Y2595000D02*
D03*
X2826501Y2579500D02*
D03*
X2811001Y2564000D02*
D03*
Y2579500D02*
D03*
M02*
