G04 Layer_Physical_Order=3*
G04 Layer_Color=16750848*
%FSLAX44Y44*%
%MOMM*%
G71*
G01*
G75*
%ADD11C,0.1500*%
%ADD48C,0.4000*%
G04:AMPARAMS|DCode=53|XSize=1.5mm|YSize=1.05mm|CornerRadius=0mm|HoleSize=0mm|Usage=FLASHONLY|Rotation=45.000|XOffset=0mm|YOffset=0mm|HoleType=Round|Shape=Round|*
%AMOVALD53*
21,1,0.4500,1.0500,0.0000,0.0000,45.0*
1,1,1.0500,-0.1591,-0.1591*
1,1,1.0500,0.1591,0.1591*
%
%ADD53OVALD53*%

%ADD54O,1.5000X1.0500*%
%ADD55C,0.4000*%
%ADD56C,0.6000*%
G36*
X2793035Y2574778D02*
X2794757Y2574065D01*
X2820248D01*
X2822564Y2571748D01*
Y2563500D01*
X2823278Y2561778D01*
X2831064Y2553991D01*
Y2546000D01*
X2831778Y2544278D01*
X2833778Y2542278D01*
X2835500Y2541564D01*
X2840000D01*
X2841722Y2542278D01*
X2844008Y2544565D01*
X2863000D01*
X2864722Y2545278D01*
X2871009Y2551564D01*
X2893618D01*
X2893703Y2551134D01*
X2894477Y2549977D01*
X2895634Y2549203D01*
X2897000Y2548931D01*
X2898366Y2549203D01*
X2899500Y2549961D01*
X2900634Y2549203D01*
X2902000Y2548931D01*
X2903365Y2549203D01*
X2904500Y2549961D01*
X2905634Y2549203D01*
X2907000Y2548931D01*
X2908365Y2549203D01*
X2909500Y2549961D01*
X2910634Y2549203D01*
X2912000Y2548931D01*
X2913365Y2549203D01*
X2914500Y2549961D01*
X2915634Y2549203D01*
X2917000Y2548931D01*
X2918365Y2549203D01*
X2919500Y2549961D01*
X2920634Y2549203D01*
X2922000Y2548931D01*
X2923366Y2549203D01*
X2924500Y2549961D01*
X2925634Y2549203D01*
X2927000Y2548931D01*
X2928065Y2549143D01*
X2929106Y2548584D01*
X2929565Y2548200D01*
Y2517009D01*
X2920278Y2507722D01*
X2920148Y2507410D01*
X2918365Y2506797D01*
X2917000Y2507068D01*
X2915634Y2506797D01*
X2914500Y2506039D01*
X2913365Y2506797D01*
X2912000Y2507068D01*
X2910634Y2506797D01*
X2909477Y2506023D01*
X2908703Y2504866D01*
X2908431Y2503500D01*
X2908544Y2502935D01*
X2907503Y2501435D01*
X2895979D01*
X2858192Y2539222D01*
X2856470Y2539935D01*
X2832979D01*
X2806693Y2566222D01*
X2804970Y2566935D01*
X2792994D01*
X2781365Y2578564D01*
X2781986Y2580064D01*
X2787748D01*
X2793035Y2574778D01*
D02*
G37*
G36*
X2795565Y2632161D02*
Y2630009D01*
X2781278Y2615722D01*
X2780565Y2614000D01*
Y2603596D01*
X2779065Y2603213D01*
X2778523Y2604023D01*
X2777365Y2604797D01*
X2776000Y2605068D01*
X2774634Y2604797D01*
X2773477Y2604023D01*
X2772703Y2602865D01*
X2772431Y2601500D01*
X2772703Y2600134D01*
X2773477Y2598976D01*
X2774492Y2598298D01*
X2774568Y2597500D01*
X2774492Y2596702D01*
X2773477Y2596023D01*
X2772703Y2594865D01*
X2772617Y2594431D01*
X2772059Y2594213D01*
X2770559Y2595237D01*
Y2631188D01*
X2772059Y2631644D01*
X2772814Y2630514D01*
X2774964Y2629077D01*
X2777500Y2628572D01*
X2780036Y2629077D01*
X2781138Y2629813D01*
X2781550Y2629766D01*
X2782971Y2629234D01*
X2783477Y2628477D01*
X2784634Y2627703D01*
X2786000Y2627431D01*
X2787365Y2627703D01*
X2788523Y2628477D01*
X2789297Y2629634D01*
X2789568Y2631000D01*
X2789622Y2631064D01*
X2791500D01*
X2793222Y2631778D01*
X2794179Y2632735D01*
X2795565Y2632161D01*
D02*
G37*
G36*
X2907278Y2559778D02*
X2909000Y2559064D01*
X2923991D01*
X2925590Y2557465D01*
X2925253Y2555976D01*
X2923965Y2555397D01*
X2923366Y2555797D01*
X2922000Y2556069D01*
X2920634Y2555797D01*
X2919500Y2555039D01*
X2918365Y2555797D01*
X2917000Y2556068D01*
X2915634Y2555797D01*
X2914500Y2555039D01*
X2913365Y2555797D01*
X2912000Y2556068D01*
X2910634Y2555797D01*
X2909500Y2555039D01*
X2908365Y2555797D01*
X2908093Y2555851D01*
X2902222Y2561722D01*
X2900500Y2562435D01*
X2867515D01*
X2865793Y2561722D01*
X2859506Y2555435D01*
X2850740D01*
X2849884Y2556606D01*
X2850024Y2557154D01*
X2850865Y2558203D01*
Y2558203D01*
X2850865D01*
X2850865Y2558203D01*
X2852023Y2558976D01*
X2852797Y2560134D01*
X2853069Y2561500D01*
X2852797Y2562866D01*
X2852330Y2563564D01*
X2852931Y2564996D01*
X2852994Y2565064D01*
X2901991D01*
X2907278Y2559778D01*
D02*
G37*
G36*
X2790302Y2615737D02*
X2790477Y2615476D01*
X2790565Y2615417D01*
Y2611000D01*
X2791278Y2609278D01*
X2798278Y2602278D01*
X2800000Y2601565D01*
X2844014D01*
X2844635Y2600064D01*
X2832278Y2587707D01*
X2831565Y2585985D01*
Y2580082D01*
X2830179Y2579508D01*
X2825464Y2584222D01*
X2823742Y2584935D01*
X2798251D01*
X2792964Y2590222D01*
X2791243Y2590935D01*
X2780300D01*
X2779341Y2592082D01*
X2779298Y2592141D01*
X2779568Y2593500D01*
X2779548Y2593604D01*
X2784722Y2598777D01*
X2785435Y2600500D01*
Y2612991D01*
X2788421Y2615977D01*
X2790302Y2615737D01*
D02*
G37*
G36*
X2772617Y2560569D02*
X2772632Y2560492D01*
X2772703Y2560134D01*
X2773477Y2558976D01*
X2774634Y2558203D01*
X2776000Y2557931D01*
X2777365Y2558203D01*
X2777666Y2558404D01*
X2785292Y2550778D01*
X2787014Y2550065D01*
X2798991D01*
X2825278Y2523778D01*
X2827000Y2523065D01*
X2850491D01*
X2888278Y2485278D01*
X2888782Y2485069D01*
X2890000Y2484565D01*
X2901991D01*
X2910778Y2475778D01*
X2911282Y2475569D01*
X2912500Y2475065D01*
X2937500D01*
X2939222Y2475778D01*
X2941531Y2478087D01*
X2943158Y2477593D01*
X2943250Y2477131D01*
X2944024Y2475974D01*
X2945182Y2475200D01*
X2946547Y2474928D01*
X2947913Y2475200D01*
X2949070Y2475974D01*
X2949844Y2477131D01*
X2950116Y2478497D01*
X2949844Y2479863D01*
X2949070Y2481020D01*
X2947913Y2481794D01*
X2947451Y2481886D01*
X2946957Y2483513D01*
X2948269Y2484825D01*
X2948478Y2485329D01*
X2948983Y2486547D01*
Y2488615D01*
X2949070Y2488674D01*
X2949844Y2489832D01*
X2950116Y2491197D01*
X2949844Y2492563D01*
X2949070Y2493721D01*
X2947913Y2494494D01*
X2946547Y2494766D01*
X2945938Y2494644D01*
X2945199Y2496027D01*
X2956950Y2507778D01*
X2958488Y2507195D01*
X2958892Y2505166D01*
X2960383Y2502933D01*
X2961481Y2502200D01*
Y2500700D01*
X2960383Y2499966D01*
X2958892Y2497734D01*
X2958368Y2495100D01*
X2958892Y2492466D01*
X2960383Y2490233D01*
X2961481Y2489500D01*
Y2488000D01*
X2960383Y2487266D01*
X2958892Y2485034D01*
X2958368Y2482400D01*
X2958892Y2479766D01*
X2960383Y2477533D01*
X2961481Y2476800D01*
Y2475300D01*
X2960383Y2474566D01*
X2958892Y2472334D01*
X2958517Y2470450D01*
X2967500D01*
Y2469700D01*
X2968250D01*
Y2462818D01*
X2969750D01*
X2972384Y2463342D01*
X2974141Y2464516D01*
X2975570Y2464104D01*
X2975780Y2463944D01*
X2975878Y2463438D01*
X2974149Y2460851D01*
X2971006Y2458751D01*
X2967413Y2458036D01*
X2967300Y2458059D01*
X2842111D01*
Y2494111D01*
X2793806Y2522000D01*
X2788299D01*
X2787068Y2523500D01*
X2787068Y2523500D01*
X2786797Y2524866D01*
X2786023Y2526023D01*
X2784865Y2526797D01*
X2783499Y2527069D01*
X2782134Y2526797D01*
X2780976Y2526023D01*
X2780203Y2524866D01*
X2779931Y2523500D01*
X2779931Y2523500D01*
X2778700Y2522000D01*
X2775207D01*
X2770559Y2537937D01*
Y2559763D01*
X2772059Y2560787D01*
X2772617Y2560569D01*
D02*
G37*
G36*
X2782262Y2899822D02*
X2784495Y2898330D01*
X2787129Y2897807D01*
X2788424Y2898064D01*
X2789485Y2897003D01*
X2789227Y2895709D01*
X2789751Y2893075D01*
X2791243Y2890842D01*
X2793475Y2889350D01*
X2796109Y2888826D01*
X2797404Y2889084D01*
X2798465Y2888023D01*
X2798207Y2886729D01*
X2798731Y2884095D01*
X2800223Y2881862D01*
X2802456Y2880370D01*
X2805089Y2879846D01*
X2806384Y2880104D01*
X2807445Y2879043D01*
X2807188Y2877748D01*
X2807711Y2875114D01*
X2809203Y2872882D01*
X2811436Y2871390D01*
X2814070Y2870866D01*
X2815365Y2871123D01*
X2816425Y2870063D01*
X2816168Y2868768D01*
X2816692Y2866134D01*
X2818184Y2863901D01*
X2820416Y2862409D01*
X2823050Y2861886D01*
X2824345Y2862143D01*
X2825406Y2861082D01*
X2825148Y2859788D01*
X2825672Y2857154D01*
X2827164Y2854921D01*
X2829396Y2853429D01*
X2832030Y2852905D01*
X2833325Y2853163D01*
X2834386Y2852102D01*
X2834128Y2850807D01*
X2834652Y2848174D01*
X2836144Y2845941D01*
X2838377Y2844449D01*
X2841010Y2843925D01*
X2842305Y2844183D01*
X2843366Y2843122D01*
X2843109Y2841827D01*
X2843632Y2839193D01*
X2845124Y2836960D01*
X2847357Y2835469D01*
X2849991Y2834945D01*
X2851286Y2835203D01*
X2852346Y2834142D01*
X2852089Y2832847D01*
X2852613Y2830213D01*
X2854105Y2827980D01*
X2856337Y2826489D01*
X2858971Y2825965D01*
X2860266Y2826222D01*
X2861327Y2825162D01*
X2861069Y2823867D01*
X2861593Y2821233D01*
X2863085Y2819000D01*
X2865317Y2817508D01*
X2867951Y2816984D01*
X2869246Y2817242D01*
X2870307Y2816181D01*
X2870049Y2814886D01*
X2870573Y2812253D01*
X2872065Y2810020D01*
X2874298Y2808528D01*
X2876931Y2808004D01*
X2878226Y2808262D01*
X2879287Y2807201D01*
X2879030Y2805906D01*
X2879553Y2803272D01*
X2880620Y2801675D01*
X2886972Y2808027D01*
X2888033Y2806967D01*
X2881681Y2800615D01*
X2883278Y2799548D01*
X2885912Y2799024D01*
X2887207Y2799281D01*
X2888268Y2798221D01*
X2888010Y2796926D01*
X2888534Y2794292D01*
X2890026Y2792059D01*
X2892258Y2790567D01*
X2894892Y2790044D01*
X2896187Y2790301D01*
X2897248Y2789240D01*
X2896990Y2787946D01*
X2897514Y2785312D01*
X2899006Y2783079D01*
X2901238Y2781587D01*
X2903872Y2781063D01*
X2905167Y2781321D01*
X2906228Y2780260D01*
X2905970Y2778965D01*
X2906494Y2776331D01*
X2907986Y2774099D01*
X2910219Y2772607D01*
X2912852Y2772083D01*
X2914148Y2772341D01*
X2915208Y2771280D01*
X2914951Y2769985D01*
X2915475Y2767351D01*
X2916966Y2765119D01*
X2919199Y2763627D01*
X2921833Y2763103D01*
X2923128Y2763360D01*
X2924189Y2762300D01*
X2923931Y2761005D01*
X2924455Y2758371D01*
X2925946Y2756138D01*
X2928179Y2754646D01*
X2930813Y2754123D01*
X2932108Y2754380D01*
X2933169Y2753319D01*
X2932911Y2752025D01*
X2933435Y2749391D01*
X2934927Y2747158D01*
X2937160Y2745666D01*
X2939793Y2745142D01*
X2941088Y2745400D01*
X2942149Y2744339D01*
X2941891Y2743044D01*
X2942415Y2740410D01*
X2943907Y2738178D01*
X2946140Y2736686D01*
X2948773Y2736162D01*
X2950068Y2736420D01*
X2951129Y2735359D01*
X2950872Y2734064D01*
X2951395Y2731430D01*
X2952887Y2729197D01*
X2955120Y2727706D01*
X2957754Y2727182D01*
X2960388Y2727706D01*
X2962620Y2729197D01*
X2965802Y2732379D01*
X2967294Y2734612D01*
X2967818Y2737246D01*
X2967638Y2738151D01*
X2967785Y2738286D01*
X2969810Y2738142D01*
X2972282Y2735130D01*
X2974832Y2730359D01*
X2976403Y2725183D01*
X2976933Y2719800D01*
X2976941D01*
Y2715087D01*
X2975441Y2714632D01*
X2974616Y2715866D01*
X2972384Y2717358D01*
X2969750Y2717882D01*
X2965250D01*
X2962616Y2717358D01*
X2960383Y2715866D01*
X2958892Y2713634D01*
X2958368Y2711000D01*
X2958892Y2708366D01*
X2960383Y2706133D01*
X2961481Y2705400D01*
Y2703900D01*
X2960383Y2703166D01*
X2958892Y2700934D01*
X2958748Y2700211D01*
X2957312Y2699776D01*
X2950095Y2706993D01*
X2950116Y2707097D01*
X2949844Y2708463D01*
X2949070Y2709620D01*
X2947913Y2710394D01*
X2946547Y2710666D01*
X2945182Y2710394D01*
X2944024Y2709620D01*
X2943250Y2708463D01*
X2942979Y2707097D01*
X2943250Y2705732D01*
X2944024Y2704574D01*
X2945182Y2703800D01*
X2946547Y2703528D01*
X2946651Y2703549D01*
X2954565Y2695636D01*
Y2666383D01*
X2953179Y2665810D01*
X2950095Y2668893D01*
X2950116Y2668997D01*
X2949844Y2670363D01*
X2949070Y2671520D01*
X2947913Y2672294D01*
X2946547Y2672566D01*
X2945182Y2672294D01*
X2944024Y2671520D01*
X2943250Y2670363D01*
X2942979Y2668997D01*
X2943250Y2667632D01*
X2944024Y2666474D01*
X2945182Y2665700D01*
X2946547Y2665428D01*
X2946651Y2665449D01*
X2951565Y2660536D01*
Y2656702D01*
X2950293Y2656577D01*
X2950238Y2656571D01*
X2950161Y2656564D01*
X2950086Y2656556D01*
X2950065Y2656554D01*
X2949890Y2657435D01*
Y2657435D01*
X2949844Y2657663D01*
X2949070Y2658820D01*
X2947913Y2659594D01*
X2946547Y2659866D01*
X2945182Y2659594D01*
X2944024Y2658820D01*
X2943250Y2657663D01*
X2942979Y2656297D01*
X2943250Y2654931D01*
X2944024Y2653774D01*
X2945182Y2653000D01*
X2946547Y2652729D01*
X2947913Y2653000D01*
X2949070Y2653774D01*
X2949844Y2654931D01*
X2949890Y2655159D01*
Y2655159D01*
X2950065Y2656040D01*
X2950086Y2656038D01*
X2950161Y2656030D01*
X2950238Y2656023D01*
X2950293Y2656017D01*
X2951565Y2655892D01*
Y2644002D01*
X2950293Y2643877D01*
X2950238Y2643871D01*
X2950161Y2643864D01*
X2950086Y2643857D01*
X2950065Y2643854D01*
X2949890Y2644735D01*
Y2644735D01*
X2949844Y2644963D01*
X2949070Y2646120D01*
X2947913Y2646894D01*
X2946547Y2647166D01*
X2945182Y2646894D01*
X2944024Y2646120D01*
X2943250Y2644963D01*
X2942979Y2643597D01*
X2943250Y2642231D01*
X2944024Y2641074D01*
X2945182Y2640300D01*
X2946547Y2640028D01*
X2947913Y2640300D01*
X2949070Y2641074D01*
X2949844Y2642231D01*
X2949890Y2642459D01*
Y2642459D01*
X2950065Y2643340D01*
X2950086Y2643338D01*
X2950161Y2643330D01*
X2950238Y2643323D01*
X2950293Y2643317D01*
X2951565Y2643192D01*
Y2631302D01*
X2950293Y2631177D01*
X2950238Y2631171D01*
X2950161Y2631164D01*
X2950086Y2631157D01*
X2950065Y2631154D01*
X2949890Y2632035D01*
Y2632035D01*
X2949844Y2632263D01*
X2949070Y2633420D01*
X2947913Y2634194D01*
X2946547Y2634466D01*
X2945182Y2634194D01*
X2944024Y2633420D01*
X2943250Y2632263D01*
X2942979Y2630897D01*
X2943250Y2629532D01*
X2944024Y2628374D01*
X2945182Y2627600D01*
X2946547Y2627328D01*
X2947913Y2627600D01*
X2949070Y2628374D01*
X2949844Y2629532D01*
X2949890Y2629759D01*
Y2629759D01*
X2950065Y2630640D01*
X2950086Y2630638D01*
X2950161Y2630630D01*
X2950238Y2630623D01*
X2950293Y2630617D01*
X2951565Y2630492D01*
Y2618602D01*
X2950293Y2618477D01*
X2950238Y2618471D01*
X2950161Y2618464D01*
X2950086Y2618456D01*
X2950065Y2618454D01*
X2949890Y2619335D01*
Y2619335D01*
X2949844Y2619563D01*
X2949070Y2620721D01*
X2947913Y2621494D01*
X2946547Y2621766D01*
X2945182Y2621494D01*
X2944024Y2620721D01*
X2943250Y2619563D01*
X2942979Y2618197D01*
X2943250Y2616831D01*
X2944024Y2615674D01*
X2945182Y2614900D01*
X2946547Y2614629D01*
X2947913Y2614900D01*
X2949070Y2615674D01*
X2949844Y2616831D01*
X2949890Y2617059D01*
Y2617059D01*
X2950065Y2617940D01*
X2950086Y2617938D01*
X2950161Y2617930D01*
X2950238Y2617923D01*
X2950293Y2617917D01*
X2951565Y2617792D01*
Y2605902D01*
X2950064Y2605754D01*
X2949844Y2606863D01*
X2949070Y2608020D01*
X2947913Y2608794D01*
X2946547Y2609066D01*
X2945182Y2608794D01*
X2944024Y2608020D01*
X2943250Y2606863D01*
X2942979Y2605497D01*
X2943250Y2604131D01*
X2944024Y2602974D01*
X2945182Y2602200D01*
X2946547Y2601928D01*
X2946651Y2601949D01*
X2948564Y2600036D01*
Y2597325D01*
X2947065Y2596263D01*
X2946547Y2596366D01*
X2945182Y2596094D01*
X2944024Y2595320D01*
X2943250Y2594163D01*
X2942979Y2592797D01*
X2943250Y2591431D01*
X2944024Y2590274D01*
X2945182Y2589500D01*
X2946547Y2589229D01*
X2947065Y2589331D01*
X2948564Y2588269D01*
Y2584625D01*
X2947065Y2583563D01*
X2946547Y2583666D01*
X2945182Y2583394D01*
X2944024Y2582621D01*
X2943250Y2581463D01*
X2942979Y2580097D01*
X2943250Y2578731D01*
X2944024Y2577574D01*
X2945182Y2576800D01*
X2946547Y2576529D01*
X2947065Y2576631D01*
X2948564Y2575569D01*
Y2571925D01*
X2947065Y2570863D01*
X2946547Y2570966D01*
X2945182Y2570694D01*
X2944024Y2569920D01*
X2943250Y2568763D01*
X2942979Y2567397D01*
X2943250Y2566031D01*
X2944024Y2564874D01*
X2945182Y2564100D01*
X2946547Y2563828D01*
X2947065Y2563931D01*
X2948564Y2562869D01*
Y2559225D01*
X2947065Y2558163D01*
X2946547Y2558266D01*
X2945182Y2557994D01*
X2944024Y2557220D01*
X2943250Y2556063D01*
X2942979Y2554697D01*
X2943250Y2553331D01*
X2944024Y2552174D01*
X2945182Y2551400D01*
X2946547Y2551129D01*
X2947065Y2551231D01*
X2948564Y2550169D01*
Y2546525D01*
X2947065Y2545463D01*
X2946547Y2545566D01*
X2945182Y2545294D01*
X2944024Y2544521D01*
X2943250Y2543363D01*
X2942979Y2541997D01*
X2943250Y2540632D01*
X2944024Y2539474D01*
X2945182Y2538700D01*
X2945565Y2538624D01*
Y2531496D01*
X2944065Y2530456D01*
X2943500Y2530568D01*
X2943396Y2530548D01*
X2937435Y2536509D01*
Y2555742D01*
X2936931Y2556960D01*
X2936722Y2557465D01*
X2927964Y2566222D01*
X2926242Y2566935D01*
X2917720D01*
X2917265Y2568435D01*
X2917744Y2568755D01*
X2918739Y2570244D01*
X2919088Y2572000D01*
X2918739Y2573756D01*
X2917744Y2575244D01*
X2916256Y2576239D01*
X2915879Y2576314D01*
X2915385Y2577941D01*
X2923722Y2586278D01*
X2924176Y2587373D01*
X2925447Y2588097D01*
X2925935Y2588143D01*
X2927000Y2587931D01*
X2928365Y2588203D01*
X2929523Y2588976D01*
X2930297Y2590134D01*
X2930569Y2591500D01*
X2930297Y2592866D01*
X2929523Y2594023D01*
X2928365Y2594797D01*
X2927000Y2595068D01*
X2925634Y2594797D01*
X2924500Y2594039D01*
X2923366Y2594797D01*
X2922000Y2595068D01*
X2920634Y2594797D01*
X2919500Y2594039D01*
X2918365Y2594797D01*
X2917000Y2595068D01*
X2915634Y2594797D01*
X2914500Y2594039D01*
X2913365Y2594797D01*
X2912000Y2595068D01*
X2910634Y2594797D01*
X2909477Y2594023D01*
X2908703Y2592866D01*
X2908431Y2591500D01*
X2908703Y2590134D01*
X2909477Y2588976D01*
X2910634Y2588203D01*
X2912000Y2587931D01*
X2913365Y2588203D01*
X2914500Y2588961D01*
X2915634Y2588203D01*
X2916471Y2588036D01*
X2917057Y2586623D01*
X2917062Y2586506D01*
X2906491Y2575935D01*
X2857509D01*
X2854222Y2579222D01*
X2852500Y2579935D01*
X2852082D01*
X2852023Y2580023D01*
X2850865Y2580797D01*
X2850863Y2580797D01*
X2850369Y2582425D01*
X2857009Y2589065D01*
X2896000D01*
X2897722Y2589778D01*
X2922222Y2614278D01*
X2922935Y2616000D01*
Y2643502D01*
X2922222Y2645223D01*
X2920049Y2647397D01*
X2920070Y2647500D01*
X2919798Y2648866D01*
X2919024Y2650024D01*
X2917867Y2650797D01*
X2916501Y2651069D01*
X2915135Y2650797D01*
X2913978Y2650024D01*
X2913204Y2648866D01*
X2912932Y2647500D01*
X2913204Y2646135D01*
X2913978Y2644977D01*
X2915135Y2644203D01*
X2916501Y2643932D01*
X2916605Y2643952D01*
X2918065Y2642493D01*
Y2617009D01*
X2915162Y2614106D01*
X2913398Y2614463D01*
X2913023Y2615023D01*
X2911866Y2615797D01*
X2910500Y2616069D01*
X2909135Y2615797D01*
X2907977Y2615023D01*
X2907203Y2613866D01*
X2906931Y2612500D01*
X2907203Y2611135D01*
X2907977Y2609977D01*
X2908537Y2609602D01*
X2908894Y2607838D01*
X2894991Y2593935D01*
X2856636D01*
X2855837Y2595367D01*
X2856362Y2596064D01*
X2877743D01*
X2879465Y2596778D01*
X2883878Y2601191D01*
X2885699Y2600891D01*
X2885977Y2600476D01*
X2887134Y2599703D01*
X2888500Y2599431D01*
X2889865Y2599703D01*
X2891023Y2600476D01*
X2891797Y2601634D01*
X2892068Y2603000D01*
X2891797Y2604366D01*
X2891023Y2605523D01*
X2890609Y2605800D01*
X2890309Y2607622D01*
X2901751Y2619064D01*
X2907918D01*
X2907977Y2618976D01*
X2909135Y2618203D01*
X2910500Y2617931D01*
X2911866Y2618203D01*
X2913023Y2618976D01*
X2913797Y2620134D01*
X2914069Y2621500D01*
X2913797Y2622865D01*
X2913023Y2624023D01*
X2911866Y2624796D01*
X2910500Y2625068D01*
X2909135Y2624796D01*
X2907977Y2624023D01*
X2907918Y2623935D01*
X2904339D01*
X2903765Y2625321D01*
X2906505Y2628062D01*
X2907974Y2627981D01*
X2907977Y2627976D01*
X2909135Y2627202D01*
X2910500Y2626931D01*
X2911866Y2627202D01*
X2913023Y2627976D01*
X2913797Y2629134D01*
X2914069Y2630500D01*
X2913797Y2631865D01*
X2913023Y2633023D01*
X2911866Y2633796D01*
X2910500Y2634068D01*
X2909135Y2633796D01*
X2907977Y2633023D01*
X2907918Y2632935D01*
X2905500D01*
X2904282Y2632430D01*
X2903777Y2632222D01*
X2891821Y2620265D01*
X2890435Y2620839D01*
Y2635917D01*
X2890523Y2635976D01*
X2891297Y2637134D01*
X2891569Y2638500D01*
X2891297Y2639865D01*
X2890523Y2641023D01*
X2890254Y2641203D01*
X2890011Y2643081D01*
X2902222Y2655292D01*
X2902935Y2657014D01*
Y2706941D01*
X2902431Y2708159D01*
X2902222Y2708663D01*
X2900790Y2710095D01*
X2900843Y2710691D01*
X2901184Y2711823D01*
X2902086Y2712426D01*
X2902860Y2713583D01*
X2903127Y2714921D01*
X2904464Y2715187D01*
X2905622Y2715961D01*
X2906396Y2717119D01*
X2906662Y2718457D01*
X2908000Y2718723D01*
X2909158Y2719496D01*
X2909931Y2720654D01*
X2910197Y2721992D01*
X2911536Y2722259D01*
X2912693Y2723032D01*
X2913467Y2724190D01*
X2913738Y2725555D01*
X2913467Y2726921D01*
X2912693Y2728079D01*
X2911536Y2728853D01*
X2910170Y2729124D01*
X2908804Y2728853D01*
X2907646Y2728079D01*
X2906873Y2726921D01*
X2906607Y2725583D01*
X2905269Y2725317D01*
X2904111Y2724543D01*
X2903337Y2723386D01*
X2903071Y2722047D01*
X2901733Y2721781D01*
X2900575Y2721008D01*
X2899802Y2719850D01*
X2899536Y2718512D01*
X2898198Y2718246D01*
X2897040Y2717472D01*
X2896266Y2716314D01*
X2896000Y2714977D01*
X2894662Y2714710D01*
X2893504Y2713937D01*
X2892731Y2712779D01*
X2892465Y2711441D01*
X2891127Y2711175D01*
X2889969Y2710401D01*
X2889195Y2709243D01*
X2888929Y2707905D01*
X2887591Y2707639D01*
X2886433Y2706866D01*
X2885660Y2705708D01*
X2885388Y2704342D01*
X2885660Y2702977D01*
X2886433Y2701819D01*
X2887591Y2701045D01*
X2888957Y2700774D01*
X2889060Y2700794D01*
X2892065Y2697790D01*
Y2660509D01*
X2850991Y2619435D01*
X2842000D01*
X2840278Y2618722D01*
X2833991Y2612435D01*
X2827032D01*
X2826124Y2613935D01*
X2826192Y2614065D01*
X2830985D01*
X2832707Y2614778D01*
X2889222Y2671292D01*
X2889935Y2673015D01*
Y2692485D01*
X2889222Y2694207D01*
X2882435Y2700994D01*
Y2727349D01*
X2883935Y2727804D01*
X2884298Y2727261D01*
X2885787Y2726266D01*
X2887542Y2725917D01*
X2889298Y2726266D01*
X2890787Y2727261D01*
X2891781Y2728749D01*
X2892131Y2730505D01*
X2891781Y2732261D01*
X2890787Y2733749D01*
X2889298Y2734744D01*
X2887542Y2735093D01*
X2885787Y2734744D01*
X2884298Y2733749D01*
X2883935Y2733206D01*
X2882435Y2733661D01*
Y2748640D01*
X2882620Y2749569D01*
X2883958Y2749836D01*
X2885116Y2750609D01*
X2885890Y2751767D01*
X2886161Y2753133D01*
X2885890Y2754498D01*
X2885116Y2755656D01*
X2883958Y2756429D01*
X2882593Y2756701D01*
X2881227Y2756429D01*
X2880069Y2755656D01*
X2879296Y2754498D01*
X2879030Y2753160D01*
X2877692Y2752894D01*
X2876534Y2752120D01*
X2875760Y2750963D01*
X2875494Y2749625D01*
X2874156Y2749359D01*
X2872998Y2748585D01*
X2872225Y2747427D01*
X2871959Y2746089D01*
X2870620Y2745823D01*
X2869463Y2745049D01*
X2868689Y2743892D01*
X2868417Y2742526D01*
X2868689Y2741160D01*
X2869463Y2740003D01*
X2870620Y2739229D01*
X2871986Y2738958D01*
X2873352Y2739229D01*
X2874509Y2740003D01*
X2875283Y2741160D01*
X2875310Y2741298D01*
X2876089Y2741611D01*
X2877564Y2740605D01*
Y2715082D01*
X2876179Y2714508D01*
X2851930Y2738756D01*
X2852172Y2740636D01*
X2852438Y2740814D01*
X2853211Y2741971D01*
X2853477Y2743310D01*
X2854815Y2743576D01*
X2855973Y2744349D01*
X2856747Y2745507D01*
X2857013Y2746845D01*
X2858351Y2747111D01*
X2859509Y2747885D01*
X2860282Y2749042D01*
X2860548Y2750381D01*
X2861886Y2750647D01*
X2863044Y2751420D01*
X2863818Y2752578D01*
X2864084Y2753916D01*
X2865422Y2754182D01*
X2866580Y2754956D01*
X2867353Y2756114D01*
X2867619Y2757451D01*
X2868958Y2757718D01*
X2870115Y2758492D01*
X2870889Y2759649D01*
X2871155Y2760987D01*
X2872493Y2761253D01*
X2873651Y2762027D01*
X2874424Y2763185D01*
X2874696Y2764550D01*
X2874424Y2765916D01*
X2873651Y2767074D01*
X2872493Y2767847D01*
X2871127Y2768119D01*
X2869762Y2767847D01*
X2868604Y2767074D01*
X2867831Y2765916D01*
X2867564Y2764578D01*
X2866226Y2764312D01*
X2865068Y2763538D01*
X2864295Y2762380D01*
X2864029Y2761042D01*
X2862691Y2760776D01*
X2861533Y2760002D01*
X2860759Y2758845D01*
X2860493Y2757507D01*
X2859155Y2757241D01*
X2857997Y2756467D01*
X2857224Y2755309D01*
X2856958Y2753971D01*
X2855620Y2753705D01*
X2854462Y2752932D01*
X2853688Y2751774D01*
X2853422Y2750436D01*
X2852084Y2750169D01*
X2850926Y2749396D01*
X2850153Y2748238D01*
X2849886Y2746900D01*
X2848549Y2746634D01*
X2847391Y2745860D01*
X2847213Y2745594D01*
X2845334Y2745353D01*
X2843435Y2747251D01*
Y2766280D01*
X2844935Y2766735D01*
X2845256Y2766256D01*
X2846744Y2765261D01*
X2848500Y2764912D01*
X2850256Y2765261D01*
X2851744Y2766256D01*
X2852739Y2767744D01*
X2853088Y2769500D01*
X2852739Y2771256D01*
X2851744Y2772744D01*
X2850256Y2773739D01*
X2848500Y2774088D01*
X2846744Y2773739D01*
X2845256Y2772744D01*
X2844935Y2772265D01*
X2843435Y2772720D01*
Y2787848D01*
X2843578Y2788564D01*
X2844916Y2788831D01*
X2846074Y2789604D01*
X2846847Y2790762D01*
X2847119Y2792127D01*
X2846847Y2793493D01*
X2846074Y2794651D01*
X2844916Y2795424D01*
X2843550Y2795696D01*
X2842184Y2795424D01*
X2841027Y2794651D01*
X2840253Y2793493D01*
X2839987Y2792155D01*
X2838649Y2791889D01*
X2837491Y2791115D01*
X2836718Y2789958D01*
X2836452Y2788619D01*
X2835114Y2788353D01*
X2833956Y2787580D01*
X2833182Y2786422D01*
X2832916Y2785084D01*
X2831578Y2784818D01*
X2830420Y2784044D01*
X2829647Y2782886D01*
X2829375Y2781521D01*
X2829647Y2780155D01*
X2830420Y2778997D01*
X2831578Y2778224D01*
X2832944Y2777952D01*
X2834309Y2778224D01*
X2835467Y2778997D01*
X2836241Y2780155D01*
X2836275Y2780327D01*
X2837102Y2780663D01*
X2838564Y2779674D01*
Y2753839D01*
X2837179Y2753265D01*
X2812949Y2777495D01*
X2813258Y2779307D01*
X2813698Y2779601D01*
X2814472Y2780758D01*
X2814738Y2782096D01*
X2816076Y2782362D01*
X2817234Y2783136D01*
X2818007Y2784294D01*
X2818274Y2785632D01*
X2819612Y2785898D01*
X2820769Y2786671D01*
X2821543Y2787829D01*
X2821809Y2789167D01*
X2823147Y2789434D01*
X2824305Y2790207D01*
X2825078Y2791365D01*
X2825345Y2792703D01*
X2826683Y2792969D01*
X2827840Y2793743D01*
X2828614Y2794901D01*
X2828880Y2796238D01*
X2830218Y2796505D01*
X2831376Y2797278D01*
X2832149Y2798436D01*
X2832415Y2799774D01*
X2833754Y2800040D01*
X2834911Y2800814D01*
X2835685Y2801971D01*
X2835957Y2803337D01*
X2835685Y2804703D01*
X2834911Y2805861D01*
X2833754Y2806634D01*
X2832388Y2806906D01*
X2831023Y2806634D01*
X2829865Y2805861D01*
X2829091Y2804703D01*
X2828825Y2803365D01*
X2827487Y2803098D01*
X2826329Y2802325D01*
X2825556Y2801167D01*
X2825290Y2799829D01*
X2823951Y2799563D01*
X2822794Y2798789D01*
X2822020Y2797632D01*
X2821754Y2796294D01*
X2820416Y2796028D01*
X2819258Y2795254D01*
X2818484Y2794096D01*
X2818218Y2792758D01*
X2816880Y2792492D01*
X2815723Y2791718D01*
X2814949Y2790561D01*
X2814683Y2789222D01*
X2813345Y2788956D01*
X2812187Y2788183D01*
X2811414Y2787025D01*
X2811147Y2785687D01*
X2809809Y2785421D01*
X2808652Y2784647D01*
X2808358Y2784207D01*
X2806546Y2783898D01*
X2804935Y2785509D01*
Y2804709D01*
X2806435Y2805164D01*
X2806516Y2805042D01*
X2808005Y2804048D01*
X2809761Y2803699D01*
X2811516Y2804048D01*
X2813005Y2805042D01*
X2814000Y2806531D01*
X2814349Y2808287D01*
X2814000Y2810043D01*
X2813005Y2811531D01*
X2811516Y2812526D01*
X2809761Y2812875D01*
X2808005Y2812526D01*
X2806516Y2811531D01*
X2806435Y2811410D01*
X2804935Y2811865D01*
Y2826154D01*
X2805822Y2827547D01*
X2806176Y2827617D01*
X2807334Y2828391D01*
X2808108Y2829549D01*
X2808380Y2830914D01*
X2808108Y2832280D01*
X2807334Y2833438D01*
X2806176Y2834211D01*
X2804811Y2834483D01*
X2803445Y2834211D01*
X2802288Y2833438D01*
X2801514Y2832280D01*
X2801248Y2830942D01*
X2799910Y2830676D01*
X2798752Y2829902D01*
X2797979Y2828745D01*
X2797712Y2827406D01*
X2796374Y2827140D01*
X2795216Y2826367D01*
X2794443Y2825209D01*
X2794177Y2823871D01*
X2792839Y2823605D01*
X2791681Y2822831D01*
X2790907Y2821673D01*
X2790636Y2820308D01*
X2790907Y2818942D01*
X2791681Y2817784D01*
X2792839Y2817011D01*
X2794204Y2816739D01*
X2795570Y2817011D01*
X2796728Y2817784D01*
X2797501Y2818942D01*
X2797595Y2819415D01*
X2798692Y2819829D01*
X2800064Y2818914D01*
Y2784500D01*
X2800778Y2782778D01*
X2827146Y2756410D01*
X2826980Y2756047D01*
X2826261Y2755173D01*
X2825188Y2755386D01*
X2823822Y2755115D01*
X2822664Y2754341D01*
X2821891Y2753184D01*
X2821619Y2751818D01*
X2821891Y2750452D01*
X2822664Y2749294D01*
X2823822Y2748521D01*
X2825188Y2748249D01*
X2826554Y2748521D01*
X2827711Y2749294D01*
X2828485Y2750452D01*
X2828756Y2751818D01*
X2828543Y2752891D01*
X2829418Y2753610D01*
X2829780Y2753776D01*
X2835064Y2748491D01*
Y2745500D01*
X2835778Y2743778D01*
X2871565Y2707991D01*
Y2697500D01*
X2872278Y2695778D01*
X2879065Y2688991D01*
Y2685824D01*
X2877679Y2685250D01*
X2870126Y2692803D01*
X2868404Y2693517D01*
X2863687D01*
X2863628Y2693605D01*
X2862470Y2694378D01*
X2861104Y2694650D01*
X2859739Y2694378D01*
X2858581Y2693605D01*
X2857807Y2692447D01*
X2857536Y2691081D01*
X2857807Y2689716D01*
X2858581Y2688558D01*
X2859739Y2687784D01*
X2861104Y2687513D01*
X2862470Y2687784D01*
X2863628Y2688558D01*
X2863687Y2688646D01*
X2867395D01*
X2872796Y2683245D01*
X2872491Y2681767D01*
X2872348Y2681571D01*
X2871309Y2680877D01*
X2870535Y2679719D01*
X2870264Y2678354D01*
X2870535Y2676988D01*
X2870739Y2676683D01*
X2834932Y2640876D01*
X2833767Y2641833D01*
X2834423Y2642814D01*
X2834927Y2645350D01*
X2834423Y2647886D01*
X2832986Y2650036D01*
X2830836Y2651473D01*
X2828300Y2651977D01*
X2825764Y2651473D01*
X2823614Y2650036D01*
X2822177Y2647886D01*
X2821673Y2645350D01*
X2822177Y2642814D01*
X2823614Y2640663D01*
X2825764Y2639227D01*
X2828300Y2638723D01*
X2830836Y2639227D01*
X2831817Y2639883D01*
X2832773Y2638717D01*
X2827491Y2633435D01*
X2812757D01*
X2811035Y2632722D01*
X2803278Y2624965D01*
X2802565Y2623242D01*
Y2622787D01*
X2801064Y2621555D01*
X2801000Y2621568D01*
X2799634Y2621297D01*
X2798477Y2620523D01*
X2797798Y2619508D01*
X2797000Y2619432D01*
X2796202Y2619508D01*
X2795523Y2620523D01*
X2795263Y2620697D01*
X2795023Y2622579D01*
X2799722Y2627278D01*
X2800435Y2629000D01*
Y2634771D01*
X2801935Y2635623D01*
X2802900Y2635431D01*
X2804265Y2635703D01*
X2805423Y2636476D01*
X2806197Y2637634D01*
X2806469Y2639000D01*
X2806197Y2640366D01*
X2805423Y2641523D01*
X2804265Y2642297D01*
X2802900Y2642568D01*
X2801935Y2642376D01*
X2800435Y2643229D01*
Y2647470D01*
X2801935Y2648323D01*
X2802900Y2648131D01*
X2804265Y2648403D01*
X2805423Y2649177D01*
X2806197Y2650334D01*
X2806469Y2651700D01*
X2806197Y2653065D01*
X2805423Y2654223D01*
X2804265Y2654997D01*
X2802900Y2655268D01*
X2801935Y2655077D01*
X2800435Y2655929D01*
Y2685991D01*
X2824222Y2709778D01*
X2824935Y2711500D01*
Y2727410D01*
X2826200Y2727661D01*
X2827357Y2728435D01*
X2828131Y2729593D01*
X2828402Y2730958D01*
X2828131Y2732324D01*
X2827996Y2732526D01*
X2828674Y2734211D01*
X2829335Y2734357D01*
X2829832Y2734025D01*
X2831198Y2733753D01*
X2832563Y2734025D01*
X2833721Y2734799D01*
X2834495Y2735956D01*
X2834767Y2737322D01*
X2834495Y2738688D01*
X2833721Y2739846D01*
X2832563Y2740619D01*
X2831198Y2740891D01*
X2829832Y2740619D01*
X2828675Y2739846D01*
X2828616Y2739757D01*
X2824822D01*
X2823604Y2739253D01*
X2823100Y2739044D01*
X2817778Y2733722D01*
X2817065Y2732000D01*
Y2724460D01*
X2815642Y2723213D01*
X2814276Y2722942D01*
X2813119Y2722168D01*
X2812345Y2721010D01*
X2812073Y2719645D01*
X2812345Y2718279D01*
X2813119Y2717121D01*
X2814276Y2716348D01*
X2815642Y2716076D01*
X2816538Y2715291D01*
X2816585Y2713529D01*
X2793278Y2690222D01*
X2792564Y2688500D01*
Y2638009D01*
X2790491Y2635935D01*
X2788500D01*
X2786778Y2635222D01*
X2786104Y2634548D01*
X2786000Y2634568D01*
X2785512Y2634471D01*
X2785113Y2634681D01*
X2784060Y2635569D01*
X2784049Y2635593D01*
X2783623Y2637736D01*
X2782186Y2639886D01*
X2780036Y2641323D01*
X2777500Y2641827D01*
X2774964Y2641323D01*
X2772814Y2639886D01*
X2772059Y2638756D01*
X2770559Y2639211D01*
Y2651489D01*
X2772059Y2651943D01*
X2772814Y2650814D01*
X2774964Y2649377D01*
X2777500Y2648872D01*
X2780036Y2649377D01*
X2782186Y2650814D01*
X2783623Y2652964D01*
X2784127Y2655500D01*
X2783623Y2658036D01*
X2782186Y2660186D01*
X2780036Y2661623D01*
X2777500Y2662127D01*
X2774964Y2661623D01*
X2772814Y2660186D01*
X2772059Y2659056D01*
X2770559Y2659511D01*
Y2750429D01*
X2770580D01*
X2771057Y2754050D01*
X2772455Y2757424D01*
X2774621Y2760248D01*
X2774744Y2760256D01*
X2774744D01*
X2777961Y2764449D01*
X2779983Y2769331D01*
X2780673Y2774571D01*
X2780559D01*
Y2875930D01*
X2780587Y2875957D01*
X2782059Y2876595D01*
X2782734Y2876143D01*
X2784099Y2875872D01*
X2785465Y2876143D01*
X2786623Y2876917D01*
X2787397Y2878075D01*
X2787668Y2879440D01*
X2787397Y2880806D01*
X2786623Y2881964D01*
X2785465Y2882737D01*
X2784099Y2883009D01*
X2782734Y2882737D01*
X2782059Y2882286D01*
X2780587Y2882923D01*
X2780559Y2882950D01*
Y2899673D01*
X2782059Y2900127D01*
X2782262Y2899822D01*
D02*
G37*
G36*
X2885297Y2636246D02*
X2885476Y2635976D01*
X2885565Y2635917D01*
Y2628596D01*
X2884065Y2628213D01*
X2883523Y2629023D01*
X2882366Y2629797D01*
X2881000Y2630068D01*
X2879634Y2629797D01*
X2878477Y2629023D01*
X2877703Y2627866D01*
X2877431Y2626500D01*
X2877703Y2625134D01*
X2878477Y2623976D01*
X2879634Y2623203D01*
X2881000Y2622931D01*
X2882366Y2623203D01*
X2883523Y2623976D01*
X2884065Y2624786D01*
X2885565Y2624403D01*
Y2618251D01*
X2874248Y2606935D01*
X2855494D01*
X2854439Y2608435D01*
X2854485Y2608564D01*
X2856207Y2609278D01*
X2883418Y2636489D01*
X2885297Y2636246D01*
D02*
G37*
%LPC*%
G36*
X2815600Y2655268D02*
X2814234Y2654997D01*
X2813076Y2654223D01*
X2812303Y2653065D01*
X2812031Y2651700D01*
X2812303Y2650334D01*
X2813076Y2649177D01*
X2814234Y2648403D01*
X2815600Y2648131D01*
X2816966Y2648403D01*
X2818123Y2649177D01*
X2818897Y2650334D01*
X2819168Y2651700D01*
X2818897Y2653065D01*
X2818123Y2654223D01*
X2816966Y2654997D01*
X2815600Y2655268D01*
D02*
G37*
G36*
X2930501Y2670069D02*
X2926501D01*
X2925135Y2669798D01*
X2923977Y2669024D01*
X2923204Y2667866D01*
X2922932Y2666501D01*
X2923204Y2665135D01*
X2923977Y2663977D01*
X2925135Y2663204D01*
X2926501Y2662932D01*
X2930501D01*
X2931866Y2663204D01*
X2933024Y2663977D01*
X2933798Y2665135D01*
X2934069Y2666501D01*
X2933798Y2667866D01*
X2933024Y2669024D01*
X2931866Y2669798D01*
X2930501Y2670069D01*
D02*
G37*
G36*
X2820238Y2676898D02*
X2818873Y2676626D01*
X2817715Y2675852D01*
X2816941Y2674695D01*
X2816670Y2673329D01*
X2816941Y2671964D01*
X2817715Y2670806D01*
X2820543Y2667977D01*
X2821701Y2667204D01*
X2823067Y2666932D01*
X2823067D01*
X2824432Y2667204D01*
X2825590Y2667977D01*
X2826364Y2669135D01*
X2826635Y2670500D01*
X2826364Y2671866D01*
X2825590Y2673024D01*
X2825590Y2673024D01*
X2822762Y2675852D01*
X2821604Y2676626D01*
X2820238Y2676898D01*
D02*
G37*
G36*
X2946547Y2697966D02*
X2945182Y2697694D01*
X2944024Y2696920D01*
X2943250Y2695763D01*
X2942979Y2694397D01*
X2943250Y2693031D01*
X2944024Y2691874D01*
X2945182Y2691100D01*
X2946547Y2690829D01*
X2947913Y2691100D01*
X2949070Y2691874D01*
X2949844Y2693031D01*
X2950116Y2694397D01*
X2949844Y2695763D01*
X2949070Y2696920D01*
X2947913Y2697694D01*
X2946547Y2697966D01*
D02*
G37*
G36*
X2836855Y2701292D02*
X2835490Y2701021D01*
X2834332Y2700247D01*
X2833558Y2699089D01*
X2833287Y2697723D01*
X2833558Y2696358D01*
X2834332Y2695200D01*
X2837160Y2692372D01*
X2837160D01*
Y2692372D01*
X2838318Y2691598D01*
X2839684Y2691327D01*
X2841049Y2691598D01*
X2842207Y2692372D01*
X2842981Y2693529D01*
X2843252Y2694895D01*
X2842981Y2696261D01*
X2842207Y2697419D01*
X2842207D01*
Y2697419D01*
X2839379Y2700247D01*
X2838221Y2701021D01*
X2836855Y2701292D01*
D02*
G37*
G36*
X2946547Y2685266D02*
X2945182Y2684994D01*
X2944024Y2684221D01*
X2943250Y2683063D01*
X2942979Y2681697D01*
X2943250Y2680331D01*
X2944024Y2679174D01*
X2945182Y2678400D01*
X2946547Y2678128D01*
X2947913Y2678400D01*
X2949070Y2679174D01*
X2949844Y2680331D01*
X2950116Y2681697D01*
X2949844Y2683063D01*
X2949070Y2684221D01*
X2947913Y2684994D01*
X2946547Y2685266D01*
D02*
G37*
G36*
X2909895Y2675558D02*
X2908529Y2675286D01*
X2907371Y2674513D01*
X2906598Y2673355D01*
X2906326Y2671989D01*
X2906598Y2670624D01*
X2907371Y2669466D01*
X2908529Y2668693D01*
X2909895Y2668421D01*
X2911260Y2668693D01*
X2912418Y2669466D01*
X2913192Y2670624D01*
X2913463Y2671989D01*
X2913192Y2673355D01*
X2912418Y2674513D01*
X2911260Y2675286D01*
X2909895Y2675558D01*
D02*
G37*
G36*
X2932001Y2685569D02*
X2930635Y2685298D01*
X2929477Y2684524D01*
X2928704Y2683366D01*
X2928432Y2682001D01*
Y2678001D01*
X2928704Y2676635D01*
X2929477Y2675477D01*
X2930635Y2674704D01*
X2932001Y2674432D01*
X2933366Y2674704D01*
X2934524Y2675477D01*
X2935298Y2676635D01*
X2935569Y2678001D01*
Y2682001D01*
X2935298Y2683366D01*
X2934524Y2684524D01*
X2933366Y2685298D01*
X2932001Y2685569D01*
D02*
G37*
G36*
X2927000Y2468069D02*
X2925634Y2467797D01*
X2924500Y2467039D01*
X2923365Y2467797D01*
X2922000Y2468069D01*
X2920634Y2467797D01*
X2919500Y2467039D01*
X2918365Y2467797D01*
X2917000Y2468068D01*
X2915634Y2467797D01*
X2914500Y2467039D01*
X2913365Y2467797D01*
X2912000Y2468068D01*
X2910634Y2467797D01*
X2909500Y2467039D01*
X2908365Y2467797D01*
X2907000Y2468069D01*
X2905634Y2467797D01*
X2904500Y2467039D01*
X2903365Y2467797D01*
X2902000Y2468069D01*
X2900634Y2467797D01*
X2899500Y2467039D01*
X2898365Y2467797D01*
X2897000Y2468068D01*
X2895634Y2467797D01*
X2894477Y2467023D01*
X2893703Y2465865D01*
X2893431Y2464500D01*
X2893703Y2463134D01*
X2894477Y2461976D01*
X2895634Y2461203D01*
X2897000Y2460931D01*
X2898365Y2461203D01*
X2899500Y2461961D01*
X2900634Y2461203D01*
X2902000Y2460931D01*
X2903365Y2461203D01*
X2904500Y2461961D01*
X2905634Y2461203D01*
X2907000Y2460931D01*
X2908365Y2461203D01*
X2909500Y2461961D01*
X2910634Y2461203D01*
X2912000Y2460931D01*
X2913365Y2461203D01*
X2914500Y2461961D01*
X2915634Y2461203D01*
X2917000Y2460931D01*
X2918365Y2461203D01*
X2919500Y2461961D01*
X2920634Y2461203D01*
X2922000Y2460931D01*
X2923365Y2461203D01*
X2924500Y2461961D01*
X2925634Y2461203D01*
X2927000Y2460931D01*
X2928365Y2461203D01*
X2929523Y2461976D01*
X2930297Y2463134D01*
X2930569Y2464500D01*
X2930297Y2465865D01*
X2929523Y2467023D01*
X2928365Y2467797D01*
X2927000Y2468069D01*
D02*
G37*
G36*
X2887000Y2533568D02*
X2879000D01*
X2877634Y2533297D01*
X2876476Y2532523D01*
X2875703Y2531366D01*
X2875431Y2530000D01*
X2875703Y2528634D01*
X2876476Y2527477D01*
X2877634Y2526703D01*
X2879000Y2526431D01*
X2887000D01*
X2888365Y2526703D01*
X2889523Y2527477D01*
X2890297Y2528634D01*
X2890569Y2530000D01*
X2890297Y2531366D01*
X2889523Y2532523D01*
X2888365Y2533297D01*
X2887000Y2533568D01*
D02*
G37*
G36*
X2946547Y2469366D02*
X2945182Y2469094D01*
X2944024Y2468320D01*
X2943250Y2467163D01*
X2942979Y2465797D01*
X2943250Y2464431D01*
X2944024Y2463274D01*
X2945182Y2462500D01*
X2946547Y2462229D01*
X2947913Y2462500D01*
X2949070Y2463274D01*
X2949844Y2464431D01*
X2950116Y2465797D01*
X2949844Y2467163D01*
X2949070Y2468320D01*
X2947913Y2469094D01*
X2946547Y2469366D01*
D02*
G37*
G36*
X2966750Y2468950D02*
X2958517D01*
X2958892Y2467066D01*
X2960383Y2464833D01*
X2962616Y2463342D01*
X2965250Y2462818D01*
X2966750D01*
Y2468950D01*
D02*
G37*
G36*
X2937500Y2601568D02*
X2936134Y2601297D01*
X2934977Y2600523D01*
X2934203Y2599366D01*
X2933931Y2598000D01*
X2934203Y2596634D01*
X2934977Y2595476D01*
X2936134Y2594703D01*
X2937500Y2594431D01*
X2938865Y2594703D01*
X2940023Y2595476D01*
X2940797Y2596634D01*
X2941068Y2598000D01*
X2940797Y2599366D01*
X2940023Y2600523D01*
X2938865Y2601297D01*
X2937500Y2601568D01*
D02*
G37*
G36*
X2815600Y2642568D02*
X2814234Y2642297D01*
X2813076Y2641523D01*
X2812303Y2640366D01*
X2812031Y2639000D01*
X2812303Y2637634D01*
X2813076Y2636476D01*
X2814234Y2635703D01*
X2815600Y2635431D01*
X2816966Y2635703D01*
X2818123Y2636476D01*
X2818897Y2637634D01*
X2819168Y2639000D01*
X2818897Y2640366D01*
X2818123Y2641523D01*
X2816966Y2642297D01*
X2815600Y2642568D01*
D02*
G37*
G36*
X2793000Y2548068D02*
X2791634Y2547797D01*
X2790477Y2547023D01*
X2790023D01*
X2788865Y2547797D01*
X2787500Y2548068D01*
X2786134Y2547797D01*
X2784977Y2547023D01*
X2784523D01*
X2783365Y2547797D01*
X2782000Y2548068D01*
X2780634Y2547797D01*
X2779477Y2547023D01*
X2778703Y2545865D01*
X2778431Y2544500D01*
X2778703Y2543134D01*
X2779477Y2541976D01*
X2780634Y2541203D01*
X2782000Y2540931D01*
X2783365Y2541203D01*
X2784523Y2541976D01*
X2784977D01*
X2786134Y2541203D01*
X2787500Y2540931D01*
X2788865Y2541203D01*
X2790023Y2541976D01*
X2790477D01*
X2791634Y2541203D01*
X2793000Y2540931D01*
X2794366Y2541203D01*
X2795523Y2541976D01*
X2796297Y2543134D01*
X2796569Y2544500D01*
X2796297Y2545865D01*
X2795523Y2547023D01*
X2794366Y2547797D01*
X2793000Y2548068D01*
D02*
G37*
G36*
X2939000Y2578069D02*
X2937634Y2577797D01*
X2936477Y2577023D01*
X2935703Y2575865D01*
X2935432Y2574500D01*
X2935703Y2573134D01*
X2936477Y2571977D01*
X2937634Y2571203D01*
X2939000Y2570931D01*
X2940366Y2571203D01*
X2941523Y2571977D01*
X2942297Y2573134D01*
X2942569Y2574500D01*
X2942297Y2575865D01*
X2941523Y2577023D01*
X2940366Y2577797D01*
X2939000Y2578069D01*
D02*
G37*
G36*
X2935225Y2726884D02*
X2933859Y2726612D01*
X2932701Y2725838D01*
X2931928Y2724680D01*
X2931656Y2723315D01*
X2931928Y2721949D01*
X2932701Y2720792D01*
X2933859Y2720018D01*
X2935225Y2719746D01*
X2936590Y2720018D01*
X2937748Y2720792D01*
X2938522Y2721949D01*
X2938793Y2723315D01*
X2938522Y2724680D01*
X2937748Y2725838D01*
X2936590Y2726612D01*
X2935225Y2726884D01*
D02*
G37*
G36*
X2846961Y2820147D02*
X2845596Y2819875D01*
X2844438Y2819102D01*
X2843665Y2817944D01*
X2843393Y2816578D01*
X2843665Y2815213D01*
X2844438Y2814055D01*
X2845596Y2813281D01*
X2846961Y2813010D01*
X2848327Y2813281D01*
X2849485Y2814055D01*
X2850258Y2815213D01*
X2850530Y2816578D01*
X2850258Y2817944D01*
X2849485Y2819102D01*
X2848327Y2819875D01*
X2846961Y2820147D01*
D02*
G37*
G36*
X2837981Y2829127D02*
X2836615Y2828856D01*
X2835458Y2828082D01*
X2834684Y2826924D01*
X2834413Y2825558D01*
X2834684Y2824193D01*
X2835458Y2823035D01*
X2836615Y2822262D01*
X2837981Y2821990D01*
X2839347Y2822262D01*
X2840504Y2823035D01*
X2841278Y2824193D01*
X2841550Y2825558D01*
X2841278Y2826924D01*
X2840504Y2828082D01*
X2839347Y2828856D01*
X2837981Y2829127D01*
D02*
G37*
G36*
X2855941Y2811167D02*
X2854576Y2810895D01*
X2853418Y2810121D01*
X2852645Y2808964D01*
X2852373Y2807598D01*
X2852645Y2806233D01*
X2853418Y2805075D01*
X2854576Y2804301D01*
X2855941Y2804030D01*
X2857307Y2804301D01*
X2858465Y2805075D01*
X2859239Y2806233D01*
X2859510Y2807598D01*
X2859239Y2808964D01*
X2858465Y2810121D01*
X2857307Y2810895D01*
X2855941Y2811167D01*
D02*
G37*
G36*
X2864922Y2802186D02*
X2863556Y2801915D01*
X2862398Y2801141D01*
X2861625Y2799984D01*
X2861353Y2798618D01*
X2861625Y2797252D01*
X2862398Y2796094D01*
X2863556Y2795321D01*
X2864922Y2795049D01*
X2866288Y2795321D01*
X2867445Y2796094D01*
X2868219Y2797252D01*
X2868490Y2798618D01*
X2868219Y2799984D01*
X2867445Y2801141D01*
X2866288Y2801915D01*
X2864922Y2802186D01*
D02*
G37*
G36*
X2845672Y2807009D02*
X2844306Y2806738D01*
X2843148Y2805964D01*
X2842375Y2804807D01*
X2842103Y2803441D01*
X2842375Y2802075D01*
X2843148Y2800917D01*
X2844306Y2800144D01*
X2845672Y2799872D01*
X2847037Y2800144D01*
X2848195Y2800917D01*
X2848969Y2802075D01*
X2849240Y2803441D01*
X2848969Y2804807D01*
X2848195Y2805964D01*
X2847037Y2806738D01*
X2845672Y2807009D01*
D02*
G37*
G36*
X2829001Y2838107D02*
X2827635Y2837836D01*
X2826477Y2837062D01*
X2825704Y2835905D01*
X2825432Y2834539D01*
X2825704Y2833173D01*
X2826300Y2832281D01*
X2825868Y2831277D01*
X2825556Y2830900D01*
X2825317Y2830947D01*
X2823951Y2830676D01*
X2822794Y2829902D01*
X2822020Y2828745D01*
X2821748Y2827379D01*
X2822020Y2826013D01*
X2822794Y2824855D01*
X2823951Y2824082D01*
X2825317Y2823810D01*
X2826683Y2824082D01*
X2827840Y2824855D01*
X2828614Y2826013D01*
X2828886Y2827379D01*
X2828614Y2828745D01*
X2828018Y2829637D01*
X2828450Y2830640D01*
X2828762Y2831018D01*
X2829001Y2830970D01*
X2830367Y2831242D01*
X2831524Y2832015D01*
X2832298Y2833173D01*
X2832569Y2834539D01*
X2832298Y2835905D01*
X2831524Y2837062D01*
X2830367Y2837836D01*
X2829001Y2838107D01*
D02*
G37*
G36*
X2802060Y2865048D02*
X2800694Y2864777D01*
X2799537Y2864003D01*
X2798763Y2862845D01*
X2798492Y2861479D01*
X2798763Y2860114D01*
X2799537Y2858956D01*
X2800694Y2858183D01*
X2802060Y2857911D01*
X2803426Y2858183D01*
X2804583Y2858956D01*
X2805357Y2860114D01*
X2805629Y2861479D01*
X2805357Y2862845D01*
X2804583Y2864003D01*
X2803426Y2864777D01*
X2802060Y2865048D01*
D02*
G37*
G36*
X2793080Y2874029D02*
X2791714Y2873757D01*
X2790556Y2872983D01*
X2789783Y2871826D01*
X2789511Y2870460D01*
X2789783Y2869094D01*
X2790556Y2867936D01*
X2791714Y2867163D01*
X2793080Y2866891D01*
X2794445Y2867163D01*
X2795603Y2867936D01*
X2796377Y2869094D01*
X2796648Y2870460D01*
X2796377Y2871826D01*
X2795603Y2872983D01*
X2794445Y2873757D01*
X2793080Y2874029D01*
D02*
G37*
G36*
X2811040Y2856068D02*
X2809675Y2855796D01*
X2808517Y2855023D01*
X2807743Y2853865D01*
X2807472Y2852499D01*
X2807743Y2851134D01*
X2808517Y2849976D01*
X2809675Y2849202D01*
X2811040Y2848931D01*
X2812406Y2849202D01*
X2813564Y2849976D01*
X2814337Y2851134D01*
X2814609Y2852499D01*
X2814337Y2853865D01*
X2813564Y2855023D01*
X2812406Y2855796D01*
X2811040Y2856068D01*
D02*
G37*
G36*
X2806932Y2845796D02*
X2805567Y2845525D01*
X2804409Y2844751D01*
X2803635Y2843593D01*
X2803364Y2842227D01*
X2803635Y2840862D01*
X2804409Y2839704D01*
X2805567Y2838931D01*
X2806932Y2838659D01*
X2808298Y2838931D01*
X2809456Y2839704D01*
X2810229Y2840862D01*
X2810501Y2842227D01*
X2810229Y2843593D01*
X2809456Y2844751D01*
X2808298Y2845525D01*
X2806932Y2845796D01*
D02*
G37*
G36*
X2820020Y2847088D02*
X2818655Y2846816D01*
X2817497Y2846042D01*
X2816724Y2844885D01*
X2816452Y2843519D01*
X2816724Y2842154D01*
X2817497Y2840996D01*
X2818655Y2840222D01*
X2820020Y2839951D01*
X2821386Y2840222D01*
X2822544Y2840996D01*
X2823317Y2842154D01*
X2823589Y2843519D01*
X2823317Y2844885D01*
X2822544Y2846042D01*
X2821386Y2846816D01*
X2820020Y2847088D01*
D02*
G37*
G36*
X2903099Y2753166D02*
X2901733Y2752894D01*
X2900576Y2752120D01*
X2899802Y2750963D01*
X2899530Y2749597D01*
X2899802Y2748232D01*
X2900576Y2747074D01*
X2901733Y2746300D01*
X2903099Y2746028D01*
X2904464Y2746300D01*
X2905622Y2747074D01*
X2906396Y2748232D01*
X2906667Y2749597D01*
X2906396Y2750963D01*
X2905622Y2752120D01*
X2904464Y2752894D01*
X2903099Y2753166D01*
D02*
G37*
G36*
X2913284Y2753824D02*
X2911918Y2753553D01*
X2910760Y2752779D01*
X2909987Y2751621D01*
X2909715Y2750256D01*
X2909987Y2748890D01*
X2910760Y2747732D01*
X2911918Y2746959D01*
X2913284Y2746687D01*
X2914650Y2746959D01*
X2915807Y2747732D01*
X2916581Y2748890D01*
X2916853Y2750256D01*
X2916581Y2751621D01*
X2915807Y2752779D01*
X2914650Y2753553D01*
X2913284Y2753824D01*
D02*
G37*
G36*
X2810692Y2748669D02*
X2809326Y2748397D01*
X2808169Y2747623D01*
X2807395Y2746465D01*
X2807124Y2745100D01*
X2807395Y2743734D01*
X2808169Y2742577D01*
X2809326Y2741803D01*
X2810692Y2741531D01*
X2812058Y2741803D01*
X2813216Y2742577D01*
X2813989Y2743734D01*
X2814261Y2745100D01*
X2813989Y2746465D01*
X2813216Y2747623D01*
X2812058Y2748397D01*
X2810692Y2748669D01*
D02*
G37*
G36*
X2931245Y2735864D02*
X2929879Y2735592D01*
X2928721Y2734818D01*
X2927948Y2733661D01*
X2927676Y2732295D01*
X2927948Y2730930D01*
X2928721Y2729772D01*
X2929879Y2728998D01*
X2931245Y2728727D01*
X2932610Y2728998D01*
X2933768Y2729772D01*
X2934541Y2730930D01*
X2934813Y2732295D01*
X2934541Y2733661D01*
X2933768Y2734818D01*
X2932610Y2735592D01*
X2931245Y2735864D01*
D02*
G37*
G36*
X2922264Y2744844D02*
X2920899Y2744572D01*
X2919741Y2743799D01*
X2918967Y2742641D01*
X2918696Y2741275D01*
X2918967Y2739910D01*
X2919741Y2738752D01*
X2920899Y2737979D01*
X2922264Y2737707D01*
X2923630Y2737979D01*
X2924788Y2738752D01*
X2925561Y2739910D01*
X2925833Y2741275D01*
X2925561Y2742641D01*
X2924788Y2743799D01*
X2923630Y2744572D01*
X2922264Y2744844D01*
D02*
G37*
G36*
X2904304Y2762805D02*
X2902938Y2762533D01*
X2901780Y2761759D01*
X2901007Y2760602D01*
X2900735Y2759236D01*
X2901007Y2757870D01*
X2901780Y2756713D01*
X2902938Y2755939D01*
X2904304Y2755667D01*
X2905669Y2755939D01*
X2906827Y2756713D01*
X2907601Y2757870D01*
X2907872Y2759236D01*
X2907601Y2760602D01*
X2906827Y2761759D01*
X2905669Y2762533D01*
X2904304Y2762805D01*
D02*
G37*
G36*
X2873500Y2793069D02*
X2872134Y2792797D01*
X2870977Y2792023D01*
X2870203Y2790865D01*
X2869931Y2789500D01*
X2870203Y2788134D01*
X2870977Y2786977D01*
X2872134Y2786203D01*
X2873500Y2785931D01*
X2873931Y2785500D01*
X2874203Y2784134D01*
X2874977Y2782976D01*
X2876134Y2782203D01*
X2877500Y2781931D01*
X2878865Y2782203D01*
X2880023Y2782976D01*
X2880797Y2784134D01*
X2881068Y2785500D01*
X2880797Y2786866D01*
X2880023Y2788023D01*
X2878865Y2788797D01*
X2877500Y2789068D01*
X2877068Y2789500D01*
X2876797Y2790865D01*
X2876023Y2792023D01*
X2874865Y2792797D01*
X2873500Y2793069D01*
D02*
G37*
G36*
X2864056Y2792161D02*
X2862691Y2791889D01*
X2861533Y2791115D01*
X2860759Y2789958D01*
X2860488Y2788592D01*
X2860759Y2787226D01*
X2861533Y2786068D01*
X2862691Y2785295D01*
X2864056Y2785023D01*
X2865422Y2785295D01*
X2866580Y2786068D01*
X2867353Y2787226D01*
X2867625Y2788592D01*
X2867353Y2789958D01*
X2866580Y2791115D01*
X2865422Y2791889D01*
X2864056Y2792161D01*
D02*
G37*
G36*
X2886343Y2780765D02*
X2884978Y2780493D01*
X2883820Y2779720D01*
X2883046Y2778562D01*
X2882775Y2777196D01*
X2883046Y2775831D01*
X2883820Y2774673D01*
X2884978Y2773900D01*
X2886343Y2773628D01*
X2887709Y2773900D01*
X2888867Y2774673D01*
X2889640Y2775831D01*
X2889912Y2777196D01*
X2889640Y2778562D01*
X2888867Y2779720D01*
X2887709Y2780493D01*
X2886343Y2780765D01*
D02*
G37*
G36*
X2884714Y2768015D02*
X2883348Y2767743D01*
X2882191Y2766969D01*
X2881417Y2765811D01*
X2881146Y2764446D01*
X2881417Y2763080D01*
X2882191Y2761923D01*
X2883348Y2761149D01*
X2884714Y2760877D01*
X2886080Y2761149D01*
X2887238Y2761923D01*
X2888011Y2763080D01*
X2888283Y2764446D01*
X2888011Y2765811D01*
X2887238Y2766969D01*
X2886080Y2767743D01*
X2884714Y2768015D01*
D02*
G37*
G36*
X2895323Y2771785D02*
X2893958Y2771513D01*
X2892800Y2770739D01*
X2892027Y2769582D01*
X2891755Y2768216D01*
X2892027Y2766851D01*
X2892800Y2765693D01*
X2893958Y2764919D01*
X2895323Y2764648D01*
X2896689Y2764919D01*
X2897847Y2765693D01*
X2898620Y2766851D01*
X2898892Y2768216D01*
X2898620Y2769582D01*
X2897847Y2770739D01*
X2896689Y2771513D01*
X2895323Y2771785D01*
D02*
G37*
%LPD*%
D11*
X2841000Y2746242D02*
Y2788592D01*
X2916501Y2647500D02*
X2920500Y2643502D01*
Y2616000D02*
Y2643502D01*
X2802500Y2784500D02*
X2837500Y2749500D01*
Y2745500D02*
Y2749500D01*
Y2745500D02*
X2874000Y2709000D01*
X2802500Y2784500D02*
Y2826154D01*
X2819500Y2713000D02*
Y2732000D01*
X2795000Y2688500D02*
X2819500Y2713000D01*
X2795000Y2637000D02*
Y2688500D01*
X2822500Y2711500D02*
Y2728624D01*
X2798000Y2687000D02*
X2822500Y2711500D01*
X2798000Y2629000D02*
Y2687000D01*
X2896000Y2591500D02*
X2920500Y2616000D01*
X2856000Y2591500D02*
X2896000D01*
X2852500Y2611000D02*
X2854485D01*
X2800000Y2604000D02*
X2845500D01*
X2852500Y2611000D01*
X2854485D02*
X2900500Y2657014D01*
X2793000Y2611000D02*
X2800000Y2604000D01*
X2793000Y2611000D02*
Y2618000D01*
X2900500Y2657014D02*
Y2706941D01*
X2896028Y2711413D02*
X2900500Y2706941D01*
X2824822Y2737322D02*
X2831198D01*
X2819500Y2732000D02*
X2824822Y2737322D01*
X2822500Y2728624D02*
X2824834Y2730958D01*
X2783000Y2614000D02*
X2798000Y2629000D01*
X2791500Y2633500D02*
X2795000Y2637000D01*
X2788500Y2633500D02*
X2791500D01*
X2786000Y2631000D02*
X2788500Y2633500D01*
X2783000Y2600500D02*
Y2614000D01*
X2776000Y2593500D02*
X2783000Y2600500D01*
X2801275Y2827379D02*
X2802500Y2826154D01*
X2841000Y2746242D02*
X2877000Y2710243D01*
Y2698742D02*
Y2710243D01*
X2874000Y2697500D02*
Y2709000D01*
X2880000Y2699985D02*
Y2749000D01*
Y2699985D02*
X2887500Y2692485D01*
X2877000Y2698742D02*
X2884500Y2691242D01*
X2874000Y2697500D02*
X2881500Y2690000D01*
X2887500Y2673015D02*
Y2692485D01*
X2884500Y2674257D02*
Y2691242D01*
X2881500Y2675500D02*
Y2690000D01*
X2830985Y2616500D02*
X2887500Y2673015D01*
X2829742Y2619500D02*
X2884500Y2674257D01*
X2828500Y2622500D02*
X2881500Y2675500D01*
X2815500Y2622500D02*
X2828500D01*
X2813000Y2620000D02*
X2815500Y2622500D01*
X2813000Y2614500D02*
Y2620000D01*
X2823000Y2616500D02*
X2830985D01*
X2821000Y2614500D02*
X2823000Y2616500D01*
X2818500Y2619500D02*
X2829742D01*
X2817000Y2618000D02*
X2818500Y2619500D01*
X2878000Y2676257D02*
Y2681485D01*
X2868404Y2691081D02*
X2878000Y2681485D01*
X2873832Y2676332D02*
Y2678354D01*
X2829742Y2628000D02*
X2878000Y2676257D01*
X2828500Y2631000D02*
X2873832Y2676332D01*
X2892492Y2707878D02*
X2897500Y2702870D01*
Y2658257D02*
Y2702870D01*
X2888957Y2704342D02*
X2894500Y2698799D01*
Y2659500D02*
Y2698799D01*
X2853242Y2614000D02*
X2897500Y2658257D01*
X2852000Y2617000D02*
X2894500Y2659500D01*
X2843242Y2614000D02*
X2853242D01*
X2842000Y2617000D02*
X2852000D01*
X2836242Y2607000D02*
X2843242Y2614000D01*
X2835000Y2610000D02*
X2842000Y2617000D01*
X2801500Y2607000D02*
X2836242D01*
X2797000Y2611500D02*
X2801500Y2607000D01*
X2797000Y2611500D02*
Y2614500D01*
X2803000Y2610000D02*
X2835000D01*
X2801000Y2612000D02*
X2803000Y2610000D01*
X2801000Y2612000D02*
Y2618000D01*
X2809000Y2618000D02*
Y2623000D01*
X2805000Y2614500D02*
Y2623242D01*
X2812757Y2631000D01*
X2809000Y2623000D02*
X2814000Y2628000D01*
X2829742D01*
X2812757Y2631000D02*
X2828500D01*
X2861104Y2691081D02*
X2868404D01*
X2903000Y2567500D02*
X2909000Y2561500D01*
X2904243Y2570500D02*
X2910243Y2564500D01*
X2926242D01*
X2909000Y2561500D02*
X2925000D01*
X2926242Y2564500D02*
X2935000Y2555742D01*
X2925000Y2561500D02*
X2932000Y2554500D01*
X2922000Y2588000D02*
Y2591500D01*
X2907500Y2573500D02*
X2922000Y2588000D01*
X2851500Y2567500D02*
X2903000D01*
X2849500Y2569500D02*
X2851500Y2567500D01*
X2855000Y2570500D02*
X2904243D01*
X2852000Y2573500D02*
X2855000Y2570500D01*
X2846000Y2573500D02*
X2852000D01*
X2856500Y2573500D02*
X2907500D01*
X2852500Y2577500D02*
X2856500Y2573500D01*
X2849500Y2577500D02*
X2852500D01*
X2932000Y2516000D02*
Y2554500D01*
X2922000Y2506000D02*
X2932000Y2516000D01*
X2922000Y2503500D02*
Y2506000D01*
X2935000Y2535500D02*
X2943500Y2527000D01*
X2935000Y2535500D02*
Y2555742D01*
X2846000Y2581500D02*
X2856000Y2591500D01*
X2900742Y2621500D02*
X2910500D01*
X2877743Y2598500D02*
X2900742Y2621500D01*
X2905500Y2630500D02*
X2910500D01*
X2876500Y2601500D02*
X2905500Y2630500D01*
X2888000Y2617242D02*
Y2638500D01*
X2875257Y2604500D02*
X2888000Y2617242D01*
X2852515Y2604500D02*
X2875257D01*
X2855000Y2598500D02*
X2877743D01*
X2853757Y2601500D02*
X2876500D01*
X2837000Y2584742D02*
X2853757Y2601500D01*
X2834000Y2585985D02*
X2852515Y2604500D01*
X2840000Y2583500D02*
X2855000Y2598500D01*
X2844213Y2565500D02*
X2846000D01*
X2840000Y2569713D02*
X2844213Y2565500D01*
X2843970Y2561500D02*
X2849500D01*
X2837000Y2568470D02*
X2843970Y2561500D01*
X2843728Y2557500D02*
X2846000D01*
X2834000Y2567228D02*
X2843728Y2557500D01*
X2831000Y2565985D02*
X2843985Y2553000D01*
X2828000Y2564742D02*
X2842743Y2550000D01*
X2825000Y2563500D02*
X2833500Y2555000D01*
X2840000Y2569713D02*
Y2583500D01*
X2837000Y2568470D02*
Y2584742D01*
X2834000Y2567228D02*
Y2585985D01*
X2825000Y2563500D02*
Y2572757D01*
X2833500Y2546000D02*
Y2555000D01*
Y2546000D02*
X2835500Y2544000D01*
X2823742Y2582500D02*
X2831000Y2575243D01*
Y2565985D02*
Y2575243D01*
X2822500Y2579500D02*
X2828000Y2574000D01*
Y2564742D02*
Y2574000D01*
X2821257Y2576500D02*
X2825000Y2572757D01*
X2902000Y2552500D02*
Y2553500D01*
X2898500Y2557000D02*
X2902000Y2553500D01*
X2868757Y2557000D02*
X2898500D01*
X2907000Y2552500D02*
Y2553500D01*
X2900500Y2560000D02*
X2907000Y2553500D01*
X2867515Y2560000D02*
X2900500D01*
X2895500Y2554000D02*
X2897000Y2552500D01*
X2870000Y2554000D02*
X2895500D01*
X2861757Y2550000D02*
X2868757Y2557000D01*
X2860515Y2553000D02*
X2867515Y2560000D01*
X2863000Y2547000D02*
X2870000Y2554000D01*
X2856470Y2537500D02*
X2894970Y2499000D01*
X2831971Y2537500D02*
X2856470D01*
X2804970Y2564500D02*
X2831971Y2537500D01*
X2855228Y2534500D02*
X2893728Y2496000D01*
X2830728Y2534500D02*
X2855228D01*
X2803728Y2561500D02*
X2830728Y2534500D01*
X2853985Y2531500D02*
X2892485Y2493000D01*
X2829485Y2531500D02*
X2853985D01*
X2802485Y2558500D02*
X2829485Y2531500D01*
X2852743Y2528500D02*
X2891242Y2490000D01*
X2828242Y2528500D02*
X2852743D01*
X2801242Y2555500D02*
X2828242Y2528500D01*
X2851500Y2525500D02*
X2890000Y2487000D01*
X2827000Y2525500D02*
X2851500D01*
X2800000Y2552500D02*
X2827000Y2525500D01*
X2843000Y2547000D02*
X2863000D01*
X2840000Y2544000D02*
X2843000Y2547000D01*
X2842757Y2550000D02*
X2861757D01*
X2844000Y2553000D02*
X2860515D01*
X2835500Y2544000D02*
X2840000D01*
X2890000Y2487000D02*
X2903000D01*
X2891242Y2490000D02*
X2935728D01*
X2903000Y2487000D02*
X2912500Y2477500D01*
X2937500D01*
X2946547Y2486547D01*
Y2491197D01*
X2892485Y2493000D02*
X2934485D01*
X2893728Y2496000D02*
X2933242D01*
X2894970Y2499000D02*
X2932000D01*
X2934485Y2493000D02*
X2954000Y2512515D01*
X2933242Y2496000D02*
X2951000Y2513757D01*
X2932000Y2499000D02*
X2948000Y2515000D01*
Y2540544D01*
X2946547Y2541997D02*
X2948000Y2540544D01*
X2791985Y2564500D02*
X2804970D01*
X2794757Y2576500D02*
X2821257D01*
X2797242Y2582500D02*
X2823742D01*
X2796000Y2579500D02*
X2822500D01*
X2788757Y2582500D02*
X2794757Y2576500D01*
X2791243Y2588500D02*
X2797242Y2582500D01*
X2790000Y2585500D02*
X2796000Y2579500D01*
X2779000Y2588500D02*
X2791243D01*
X2778000Y2589500D02*
X2779000Y2588500D01*
X2772500Y2589500D02*
X2778000D01*
X2779500Y2582500D02*
X2788757D01*
X2778500Y2581500D02*
X2779500Y2582500D01*
X2772500Y2581500D02*
X2778500D01*
X2776000Y2585500D02*
X2790000D01*
X2776000Y2577500D02*
X2778985D01*
X2772500Y2573500D02*
X2778742D01*
X2776000Y2569500D02*
X2778500D01*
X2772500Y2565500D02*
X2778257D01*
X2776000Y2561500D02*
X2778015D01*
X2787014Y2552500D01*
X2778257Y2565500D02*
X2788257Y2555500D01*
X2778742Y2573500D02*
X2790742Y2561500D01*
X2778985Y2577500D02*
X2791985Y2564500D01*
X2778500Y2569500D02*
X2789500Y2558500D01*
X2787014Y2552500D02*
X2800000D01*
X2788257Y2555500D02*
X2801242D01*
X2789500Y2558500D02*
X2802485D01*
X2790742Y2561500D02*
X2803728D01*
X2951000Y2513757D02*
Y2601044D01*
X2954000Y2512515D02*
Y2661544D01*
X2946547Y2668997D02*
X2954000Y2661544D01*
X2946547Y2605497D02*
X2951000Y2601044D01*
X2946547Y2707097D02*
X2957000Y2696644D01*
X2935728Y2490000D02*
X2957000Y2511272D01*
Y2696644D01*
D48*
X2932001Y2678001D02*
Y2682001D01*
X2926501Y2666501D02*
X2930501D01*
X2820238Y2673329D02*
X2823067Y2670500D01*
X2836855Y2697723D02*
X2839684Y2694895D01*
X2883000Y2530000D02*
X2887000D01*
X2879000D02*
X2883000D01*
D53*
X2887503Y2807497D02*
D03*
D54*
X2967500Y2469700D02*
D03*
D55*
X2803000Y2660500D02*
D03*
X2789500Y2671000D02*
D03*
X2804000Y2679000D02*
D03*
X2804500Y2684500D02*
D03*
X2829077Y2694189D02*
D03*
X2816000Y2765000D02*
D03*
X2804000Y2753000D02*
D03*
X2956000Y2465000D02*
D03*
X2967500Y2460500D02*
D03*
X2872500Y2467500D02*
D03*
X2870000Y2704500D02*
D03*
X2862000Y2696500D02*
D03*
X2888500Y2698500D02*
D03*
X2908500Y2714000D02*
D03*
X2909500Y2683000D02*
D03*
X2908500Y2659000D02*
D03*
X2925000Y2639000D02*
D03*
X2937500Y2609500D02*
D03*
X2898500Y2602000D02*
D03*
X2865000Y2637000D02*
D03*
X2772500Y2597500D02*
D03*
Y2645000D02*
D03*
X2773500Y2664500D02*
D03*
X2773000Y2677000D02*
D03*
Y2705500D02*
D03*
Y2694000D02*
D03*
Y2719000D02*
D03*
X2772500Y2739000D02*
D03*
X2774000Y2754500D02*
D03*
X2783500Y2795500D02*
D03*
Y2847000D02*
D03*
X2783000Y2866500D02*
D03*
X2783500Y2830000D02*
D03*
X2779500Y2711500D02*
D03*
X2791000D02*
D03*
X2789500Y2724500D02*
D03*
X2781000Y2721500D02*
D03*
X2813500Y2714000D02*
D03*
X2806000Y2707000D02*
D03*
X2826000Y2708500D02*
D03*
X2818500Y2693500D02*
D03*
X2843500Y2678000D02*
D03*
X2880000Y2658500D02*
D03*
X2867500Y2646500D02*
D03*
X2850500Y2660000D02*
D03*
X2838000Y2660500D02*
D03*
X2823500Y2638000D02*
D03*
X2819000Y2666000D02*
D03*
X2829000Y2512000D02*
D03*
X2832500Y2518500D02*
D03*
X2805000Y2525500D02*
D03*
X2803500Y2534000D02*
D03*
Y2541000D02*
D03*
X2820000Y2525000D02*
D03*
X2911500Y2533000D02*
D03*
X2927500D02*
D03*
X2890000Y2537500D02*
D03*
X2896500Y2533000D02*
D03*
X2893000Y2548500D02*
D03*
X2918500Y2533000D02*
D03*
X2860500Y2481000D02*
D03*
X2854500Y2460000D02*
D03*
Y2467500D02*
D03*
X2841500Y2515500D02*
D03*
X2842000Y2506500D02*
D03*
X2857000D02*
D03*
Y2488500D02*
D03*
X2844500Y2466000D02*
D03*
Y2472000D02*
D03*
Y2478000D02*
D03*
Y2460000D02*
D03*
X2831000Y2503000D02*
D03*
X2837000Y2499500D02*
D03*
X2842000Y2496500D02*
D03*
X2825000Y2506500D02*
D03*
X2814000Y2513000D02*
D03*
X2809000Y2515500D02*
D03*
X2804000Y2518500D02*
D03*
X2798500Y2521500D02*
D03*
X2775000Y2531000D02*
D03*
X2773000Y2538000D02*
D03*
X2772500Y2544000D02*
D03*
X2777000Y2524000D02*
D03*
X2966500Y2724500D02*
D03*
X2896028Y2711413D02*
D03*
X2793000Y2618000D02*
D03*
X2797510Y2770490D02*
D03*
X2785490D02*
D03*
X2797510Y2782510D02*
D03*
X2785490D02*
D03*
X2786000Y2631000D02*
D03*
X2776000Y2593500D02*
D03*
X2879000Y2530000D02*
D03*
X2887000D02*
D03*
X2883000D02*
D03*
X2801000Y2618000D02*
D03*
X2850000Y2621500D02*
D03*
X2861104Y2691081D02*
D03*
X2838000Y2521000D02*
D03*
X2943500Y2527000D02*
D03*
X2790200Y2639000D02*
D03*
X2932001Y2678001D02*
D03*
Y2682001D02*
D03*
X2926501Y2666501D02*
D03*
X2930501D02*
D03*
X2916501Y2647500D02*
D03*
X2873832Y2678354D02*
D03*
X2853326Y2670576D02*
D03*
X2858500Y2578000D02*
D03*
X2792500Y2523500D02*
D03*
X2866500Y2610000D02*
D03*
X2859070Y2561071D02*
D03*
X2849500Y2561500D02*
D03*
X2846000Y2557500D02*
D03*
X2846000Y2565500D02*
D03*
X2849500Y2577500D02*
D03*
X2846000Y2573500D02*
D03*
X2846000Y2581500D02*
D03*
X2849500Y2569500D02*
D03*
X2791000Y2628500D02*
D03*
X2850000Y2629500D02*
D03*
X2823067Y2670500D02*
D03*
X2820238Y2673329D02*
D03*
X2946547Y2491197D02*
D03*
X2946547Y2541997D02*
D03*
Y2605497D02*
D03*
Y2668997D02*
D03*
X2946547Y2707097D02*
D03*
X2922000Y2503500D02*
D03*
X2902000D02*
D03*
X2902000Y2591500D02*
D03*
X2922000D02*
D03*
X2907000Y2552500D02*
D03*
X2902000D02*
D03*
X2897000Y2552500D02*
D03*
X2864915Y2735455D02*
D03*
X2879057Y2749597D02*
D03*
X2892492Y2707878D02*
D03*
X2888957Y2704342D02*
D03*
X2825872Y2774450D02*
D03*
X2840015Y2788592D02*
D03*
X2787133Y2813237D02*
D03*
X2801275Y2827379D02*
D03*
X2939500Y2549500D02*
D03*
X2939500Y2461500D02*
D03*
X2843348Y2810055D02*
D03*
X2882088Y2771268D02*
D03*
X2921130Y2732274D02*
D03*
X2772500Y2589500D02*
D03*
X2776000Y2585500D02*
D03*
X2776000Y2577500D02*
D03*
X2772500Y2581500D02*
D03*
X2776000Y2569500D02*
D03*
X2772500Y2573500D02*
D03*
X2776000Y2561500D02*
D03*
X2772500Y2565500D02*
D03*
X2809000Y2618000D02*
D03*
X2797000Y2614500D02*
D03*
X2805000Y2614500D02*
D03*
X2813000Y2614500D02*
D03*
X2821000Y2614500D02*
D03*
X2817000Y2618000D02*
D03*
X2773499Y2622000D02*
D03*
X2870999Y2545500D02*
D03*
X2910500Y2630500D02*
D03*
Y2621500D02*
D03*
X2888000Y2638500D02*
D03*
X2898000D02*
D03*
X2881000Y2616500D02*
D03*
X2824834Y2730958D02*
D03*
X2831198Y2737322D02*
D03*
X2839684Y2694895D02*
D03*
X2836855Y2697723D02*
D03*
X2843573Y2726362D02*
D03*
X2829431Y2712220D02*
D03*
X2892500Y2513500D02*
D03*
X2893000Y2529000D02*
D03*
X2875000Y2578500D02*
D03*
X2890000Y2585000D02*
D03*
X2876000Y2494000D02*
D03*
X2854500Y2477500D02*
D03*
X2892000Y2460000D02*
D03*
X2962500Y2723432D02*
D03*
D56*
X2819000Y2571000D02*
D03*
X2803000D02*
D03*
X2819000Y2588000D02*
D03*
X2803000D02*
D03*
M02*
