G04 Layer_Physical_Order=1*
G04 Layer_Color=255*
%FSLAX44Y44*%
%MOMM*%
G71*
G01*
G75*
%ADD10C,0.2500*%
%ADD11C,0.1500*%
%ADD12C,0.2000*%
G04:AMPARAMS|DCode=13|XSize=0.55mm|YSize=0.45mm|CornerRadius=0mm|HoleSize=0mm|Usage=FLASHONLY|Rotation=135.000|XOffset=0mm|YOffset=0mm|HoleType=Round|Shape=Rectangle|*
%AMROTATEDRECTD13*
4,1,4,0.3536,-0.0354,0.0354,-0.3536,-0.3536,0.0354,-0.0354,0.3536,0.3536,-0.0354,0.0*
%
%ADD13ROTATEDRECTD13*%

%ADD14R,0.7000X0.9000*%
%ADD15R,0.5500X0.4500*%
G04:AMPARAMS|DCode=16|XSize=2mm|YSize=1mm|CornerRadius=0.25mm|HoleSize=0mm|Usage=FLASHONLY|Rotation=135.000|XOffset=0mm|YOffset=0mm|HoleType=Round|Shape=RoundedRectangle|*
%AMROUNDEDRECTD16*
21,1,2.0000,0.5000,0,0,135.0*
21,1,1.5000,1.0000,0,0,135.0*
1,1,0.5000,-0.3535,0.7071*
1,1,0.5000,0.7071,-0.3535*
1,1,0.5000,0.3535,-0.7071*
1,1,0.5000,-0.7071,0.3535*
%
%ADD16ROUNDEDRECTD16*%
%ADD17R,0.9000X0.8000*%
G04:AMPARAMS|DCode=18|XSize=2mm|YSize=1mm|CornerRadius=0.25mm|HoleSize=0mm|Usage=FLASHONLY|Rotation=270.000|XOffset=0mm|YOffset=0mm|HoleType=Round|Shape=RoundedRectangle|*
%AMROUNDEDRECTD18*
21,1,2.0000,0.5000,0,0,270.0*
21,1,1.5000,1.0000,0,0,270.0*
1,1,0.5000,-0.2500,-0.7500*
1,1,0.5000,-0.2500,0.7500*
1,1,0.5000,0.2500,0.7500*
1,1,0.5000,0.2500,-0.7500*
%
%ADD18ROUNDEDRECTD18*%
%ADD19R,1.3500X0.8000*%
%ADD20R,0.8000X1.3500*%
G04:AMPARAMS|DCode=21|XSize=0.6mm|YSize=0.8mm|CornerRadius=0mm|HoleSize=0mm|Usage=FLASHONLY|Rotation=315.000|XOffset=0mm|YOffset=0mm|HoleType=Round|Shape=Rectangle|*
%AMROTATEDRECTD21*
4,1,4,-0.4950,-0.0707,0.0707,0.4950,0.4950,0.0707,-0.0707,-0.4950,-0.4950,-0.0707,0.0*
%
%ADD21ROTATEDRECTD21*%

G04:AMPARAMS|DCode=22|XSize=0.85mm|YSize=2.4mm|CornerRadius=0.1063mm|HoleSize=0mm|Usage=FLASHONLY|Rotation=135.000|XOffset=0mm|YOffset=0mm|HoleType=Round|Shape=RoundedRectangle|*
%AMROUNDEDRECTD22*
21,1,0.8500,2.1875,0,0,135.0*
21,1,0.6375,2.4000,0,0,135.0*
1,1,0.2125,0.5480,0.9988*
1,1,0.2125,0.9988,0.5480*
1,1,0.2125,-0.5480,-0.9988*
1,1,0.2125,-0.9988,-0.5480*
%
%ADD22ROUNDEDRECTD22*%
G04:AMPARAMS|DCode=23|XSize=0.55mm|YSize=0.25mm|CornerRadius=0.0625mm|HoleSize=0mm|Usage=FLASHONLY|Rotation=135.000|XOffset=0mm|YOffset=0mm|HoleType=Round|Shape=RoundedRectangle|*
%AMROUNDEDRECTD23*
21,1,0.5500,0.1250,0,0,135.0*
21,1,0.4250,0.2500,0,0,135.0*
1,1,0.1250,-0.1061,0.1945*
1,1,0.1250,0.1945,-0.1061*
1,1,0.1250,0.1061,-0.1945*
1,1,0.1250,-0.1945,0.1061*
%
%ADD23ROUNDEDRECTD23*%
G04:AMPARAMS|DCode=24|XSize=0.9mm|YSize=0.7mm|CornerRadius=0mm|HoleSize=0mm|Usage=FLASHONLY|Rotation=225.000|XOffset=0mm|YOffset=0mm|HoleType=Round|Shape=Rectangle|*
%AMROTATEDRECTD24*
4,1,4,0.0707,0.5657,0.5657,0.0707,-0.0707,-0.5657,-0.5657,-0.0707,0.0707,0.5657,0.0*
%
%ADD24ROTATEDRECTD24*%

G04:AMPARAMS|DCode=25|XSize=0.55mm|YSize=0.45mm|CornerRadius=0mm|HoleSize=0mm|Usage=FLASHONLY|Rotation=45.000|XOffset=0mm|YOffset=0mm|HoleType=Round|Shape=Rectangle|*
%AMROTATEDRECTD25*
4,1,4,-0.0354,-0.3536,-0.3536,-0.0354,0.0354,0.3536,0.3536,0.0354,-0.0354,-0.3536,0.0*
%
%ADD25ROTATEDRECTD25*%

G04:AMPARAMS|DCode=26|XSize=0.55mm|YSize=1.1mm|CornerRadius=0.1375mm|HoleSize=0mm|Usage=FLASHONLY|Rotation=45.000|XOffset=0mm|YOffset=0mm|HoleType=Round|Shape=RoundedRectangle|*
%AMROUNDEDRECTD26*
21,1,0.5500,0.8250,0,0,45.0*
21,1,0.2750,1.1000,0,0,45.0*
1,1,0.2750,0.3889,-0.1945*
1,1,0.2750,0.1945,-0.3889*
1,1,0.2750,-0.3889,0.1945*
1,1,0.2750,-0.1945,0.3889*
%
%ADD26ROUNDEDRECTD26*%
G04:AMPARAMS|DCode=27|XSize=0.9mm|YSize=0.7mm|CornerRadius=0mm|HoleSize=0mm|Usage=FLASHONLY|Rotation=135.000|XOffset=0mm|YOffset=0mm|HoleType=Round|Shape=Rectangle|*
%AMROTATEDRECTD27*
4,1,4,0.5657,-0.0707,0.0707,-0.5657,-0.5657,0.0707,-0.0707,0.5657,0.5657,-0.0707,0.0*
%
%ADD27ROTATEDRECTD27*%

G04:AMPARAMS|DCode=28|XSize=0.6mm|YSize=0.9mm|CornerRadius=0.075mm|HoleSize=0mm|Usage=FLASHONLY|Rotation=0.000|XOffset=0mm|YOffset=0mm|HoleType=Round|Shape=RoundedRectangle|*
%AMROUNDEDRECTD28*
21,1,0.6000,0.7500,0,0,0.0*
21,1,0.4500,0.9000,0,0,0.0*
1,1,0.1500,0.2250,-0.3750*
1,1,0.1500,-0.2250,-0.3750*
1,1,0.1500,-0.2250,0.3750*
1,1,0.1500,0.2250,0.3750*
%
%ADD28ROUNDEDRECTD28*%
G04:AMPARAMS|DCode=29|XSize=2mm|YSize=1mm|CornerRadius=0.125mm|HoleSize=0mm|Usage=FLASHONLY|Rotation=180.000|XOffset=0mm|YOffset=0mm|HoleType=Round|Shape=RoundedRectangle|*
%AMROUNDEDRECTD29*
21,1,2.0000,0.7500,0,0,180.0*
21,1,1.7500,1.0000,0,0,180.0*
1,1,0.2500,-0.8750,0.3750*
1,1,0.2500,0.8750,0.3750*
1,1,0.2500,0.8750,-0.3750*
1,1,0.2500,-0.8750,-0.3750*
%
%ADD29ROUNDEDRECTD29*%
%ADD30O,0.8000X0.2500*%
%ADD31O,0.2500X0.8000*%
G04:AMPARAMS|DCode=32|XSize=2mm|YSize=1mm|CornerRadius=0.125mm|HoleSize=0mm|Usage=FLASHONLY|Rotation=225.000|XOffset=0mm|YOffset=0mm|HoleType=Round|Shape=RoundedRectangle|*
%AMROUNDEDRECTD32*
21,1,2.0000,0.7500,0,0,225.0*
21,1,1.7500,1.0000,0,0,225.0*
1,1,0.2500,-0.8839,-0.3535*
1,1,0.2500,0.3535,0.8839*
1,1,0.2500,0.8839,0.3535*
1,1,0.2500,-0.3535,-0.8839*
%
%ADD32ROUNDEDRECTD32*%
G04:AMPARAMS|DCode=33|XSize=0.8mm|YSize=0.25mm|CornerRadius=0mm|HoleSize=0mm|Usage=FLASHONLY|Rotation=225.000|XOffset=0mm|YOffset=0mm|HoleType=Round|Shape=Round|*
%AMOVALD33*
21,1,0.5500,0.2500,0.0000,0.0000,225.0*
1,1,0.2500,0.1945,0.1945*
1,1,0.2500,-0.1945,-0.1945*
%
%ADD33OVALD33*%

G04:AMPARAMS|DCode=34|XSize=0.8mm|YSize=0.25mm|CornerRadius=0mm|HoleSize=0mm|Usage=FLASHONLY|Rotation=135.000|XOffset=0mm|YOffset=0mm|HoleType=Round|Shape=Round|*
%AMOVALD34*
21,1,0.5500,0.2500,0.0000,0.0000,135.0*
1,1,0.2500,0.1945,-0.1945*
1,1,0.2500,-0.1945,0.1945*
%
%ADD34OVALD34*%

%ADD35R,0.4500X0.5500*%
%ADD36R,0.9000X0.7000*%
G04:AMPARAMS|DCode=37|XSize=0.75mm|YSize=0.7mm|CornerRadius=0.0875mm|HoleSize=0mm|Usage=FLASHONLY|Rotation=270.000|XOffset=0mm|YOffset=0mm|HoleType=Round|Shape=RoundedRectangle|*
%AMROUNDEDRECTD37*
21,1,0.7500,0.5250,0,0,270.0*
21,1,0.5750,0.7000,0,0,270.0*
1,1,0.1750,-0.2625,-0.2875*
1,1,0.1750,-0.2625,0.2875*
1,1,0.1750,0.2625,0.2875*
1,1,0.1750,0.2625,-0.2875*
%
%ADD37ROUNDEDRECTD37*%
G04:AMPARAMS|DCode=38|XSize=0.6mm|YSize=1.1mm|CornerRadius=0.075mm|HoleSize=0mm|Usage=FLASHONLY|Rotation=180.000|XOffset=0mm|YOffset=0mm|HoleType=Round|Shape=RoundedRectangle|*
%AMROUNDEDRECTD38*
21,1,0.6000,0.9500,0,0,180.0*
21,1,0.4500,1.1000,0,0,180.0*
1,1,0.1500,-0.2250,0.4750*
1,1,0.1500,0.2250,0.4750*
1,1,0.1500,0.2250,-0.4750*
1,1,0.1500,-0.2250,-0.4750*
%
%ADD38ROUNDEDRECTD38*%
G04:AMPARAMS|DCode=39|XSize=0.6mm|YSize=0.2mm|CornerRadius=0.05mm|HoleSize=0mm|Usage=FLASHONLY|Rotation=270.000|XOffset=0mm|YOffset=0mm|HoleType=Round|Shape=RoundedRectangle|*
%AMROUNDEDRECTD39*
21,1,0.6000,0.1000,0,0,270.0*
21,1,0.5000,0.2000,0,0,270.0*
1,1,0.1000,-0.0500,-0.2500*
1,1,0.1000,-0.0500,0.2500*
1,1,0.1000,0.0500,0.2500*
1,1,0.1000,0.0500,-0.2500*
%
%ADD39ROUNDEDRECTD39*%
G04:AMPARAMS|DCode=40|XSize=0.6mm|YSize=0.2mm|CornerRadius=0.05mm|HoleSize=0mm|Usage=FLASHONLY|Rotation=0.000|XOffset=0mm|YOffset=0mm|HoleType=Round|Shape=RoundedRectangle|*
%AMROUNDEDRECTD40*
21,1,0.6000,0.1000,0,0,0.0*
21,1,0.5000,0.2000,0,0,0.0*
1,1,0.1000,0.2500,-0.0500*
1,1,0.1000,-0.2500,-0.0500*
1,1,0.1000,-0.2500,0.0500*
1,1,0.1000,0.2500,0.0500*
%
%ADD40ROUNDEDRECTD40*%
G04:AMPARAMS|DCode=41|XSize=4.6mm|YSize=4.6mm|CornerRadius=0.23mm|HoleSize=0mm|Usage=FLASHONLY|Rotation=180.000|XOffset=0mm|YOffset=0mm|HoleType=Round|Shape=RoundedRectangle|*
%AMROUNDEDRECTD41*
21,1,4.6000,4.1400,0,0,180.0*
21,1,4.1400,4.6000,0,0,180.0*
1,1,0.4600,-2.0700,2.0700*
1,1,0.4600,2.0700,2.0700*
1,1,0.4600,2.0700,-2.0700*
1,1,0.4600,-2.0700,-2.0700*
%
%ADD41ROUNDEDRECTD41*%
G04:AMPARAMS|DCode=42|XSize=1.66mm|YSize=0.8mm|CornerRadius=0.08mm|HoleSize=0mm|Usage=FLASHONLY|Rotation=330.000|XOffset=0mm|YOffset=0mm|HoleType=Round|Shape=RoundedRectangle|*
%AMROUNDEDRECTD42*
21,1,1.6600,0.6400,0,0,330.0*
21,1,1.5000,0.8000,0,0,330.0*
1,1,0.1600,0.4895,-0.6521*
1,1,0.1600,-0.8095,0.0979*
1,1,0.1600,-0.4895,0.6521*
1,1,0.1600,0.8095,-0.0979*
%
%ADD42ROUNDEDRECTD42*%
G04:AMPARAMS|DCode=43|XSize=0.55mm|YSize=0.45mm|CornerRadius=0mm|HoleSize=0mm|Usage=FLASHONLY|Rotation=22.500|XOffset=0mm|YOffset=0mm|HoleType=Round|Shape=Rectangle|*
%AMROTATEDRECTD43*
4,1,4,-0.1680,-0.3131,-0.3402,0.1026,0.1680,0.3131,0.3402,-0.1026,-0.1680,-0.3131,0.0*
%
%ADD43ROTATEDRECTD43*%

G04:AMPARAMS|DCode=44|XSize=0.55mm|YSize=0.45mm|CornerRadius=0mm|HoleSize=0mm|Usage=FLASHONLY|Rotation=330.000|XOffset=0mm|YOffset=0mm|HoleType=Round|Shape=Rectangle|*
%AMROTATEDRECTD44*
4,1,4,-0.3507,-0.0574,-0.1257,0.3324,0.3507,0.0574,0.1257,-0.3324,-0.3507,-0.0574,0.0*
%
%ADD44ROTATEDRECTD44*%

G04:AMPARAMS|DCode=45|XSize=0.5mm|YSize=0.25mm|CornerRadius=0.0625mm|HoleSize=0mm|Usage=FLASHONLY|Rotation=270.000|XOffset=0mm|YOffset=0mm|HoleType=Round|Shape=RoundedRectangle|*
%AMROUNDEDRECTD45*
21,1,0.5000,0.1250,0,0,270.0*
21,1,0.3750,0.2500,0,0,270.0*
1,1,0.1250,-0.0625,-0.1875*
1,1,0.1250,-0.0625,0.1875*
1,1,0.1250,0.0625,0.1875*
1,1,0.1250,0.0625,-0.1875*
%
%ADD45ROUNDEDRECTD45*%
G04:AMPARAMS|DCode=46|XSize=0.5mm|YSize=0.25mm|CornerRadius=0.0625mm|HoleSize=0mm|Usage=FLASHONLY|Rotation=0.000|XOffset=0mm|YOffset=0mm|HoleType=Round|Shape=RoundedRectangle|*
%AMROUNDEDRECTD46*
21,1,0.5000,0.1250,0,0,0.0*
21,1,0.3750,0.2500,0,0,0.0*
1,1,0.1250,0.1875,-0.0625*
1,1,0.1250,-0.1875,-0.0625*
1,1,0.1250,-0.1875,0.0625*
1,1,0.1250,0.1875,0.0625*
%
%ADD46ROUNDEDRECTD46*%
G04:AMPARAMS|DCode=47|XSize=0.6mm|YSize=0.9mm|CornerRadius=0.075mm|HoleSize=0mm|Usage=FLASHONLY|Rotation=45.000|XOffset=0mm|YOffset=0mm|HoleType=Round|Shape=RoundedRectangle|*
%AMROUNDEDRECTD47*
21,1,0.6000,0.7500,0,0,45.0*
21,1,0.4500,0.9000,0,0,45.0*
1,1,0.1500,0.4243,-0.1061*
1,1,0.1500,0.1061,-0.4243*
1,1,0.1500,-0.4243,0.1061*
1,1,0.1500,-0.1061,0.4243*
%
%ADD47ROUNDEDRECTD47*%
%ADD48C,0.4000*%
%ADD49C,0.5000*%
%ADD50C,0.6000*%
%ADD51C,0.7500*%
%ADD52C,0.1200*%
G04:AMPARAMS|DCode=53|XSize=1.5mm|YSize=1.05mm|CornerRadius=0mm|HoleSize=0mm|Usage=FLASHONLY|Rotation=45.000|XOffset=0mm|YOffset=0mm|HoleType=Round|Shape=Round|*
%AMOVALD53*
21,1,0.4500,1.0500,0.0000,0.0000,45.0*
1,1,1.0500,-0.1591,-0.1591*
1,1,1.0500,0.1591,0.1591*
%
%ADD53OVALD53*%

%ADD54O,1.5000X1.0500*%
%ADD55C,0.4000*%
%ADD56C,0.6000*%
G36*
X2772617Y2560569D02*
X2772632Y2560492D01*
X2772703Y2560134D01*
X2773477Y2558976D01*
X2774634Y2558203D01*
X2775761Y2557979D01*
X2776360Y2557312D01*
X2776797Y2556560D01*
X2776565Y2556000D01*
Y2547500D01*
X2777278Y2545778D01*
X2778452Y2544604D01*
X2778431Y2544500D01*
X2778703Y2543134D01*
X2778732Y2543091D01*
X2779250Y2541750D01*
Y2541750D01*
X2779250Y2541750D01*
X2779250Y2541750D01*
Y2534250D01*
X2786854D01*
X2786854Y2534207D01*
X2785354Y2532750D01*
X2779250D01*
Y2525250D01*
X2779250Y2525250D01*
X2779250D01*
X2779981Y2523750D01*
X2779931Y2523500D01*
X2779931Y2523500D01*
X2778700Y2522000D01*
X2775207D01*
X2770559Y2537937D01*
Y2559763D01*
X2772059Y2560787D01*
X2772617Y2560569D01*
D02*
G37*
G36*
X2928177Y2478909D02*
X2929250Y2478696D01*
X2933860D01*
X2935250Y2477305D01*
Y2472250D01*
X2943750D01*
Y2474352D01*
X2945168Y2475192D01*
X2945250Y2475186D01*
X2946547Y2474928D01*
X2947795Y2475177D01*
X2947883Y2475110D01*
X2948243Y2473504D01*
X2945250Y2470511D01*
X2943750Y2470750D01*
X2943750D01*
X2943574Y2470750D01*
X2940250D01*
Y2467000D01*
Y2463250D01*
X2943750D01*
X2943750Y2463250D01*
X2944992Y2462627D01*
X2945182Y2462500D01*
X2946547Y2462229D01*
X2947913Y2462500D01*
X2949070Y2463274D01*
X2949212Y2463486D01*
X2950790Y2464029D01*
X2950790Y2464029D01*
X2950790Y2464029D01*
X2956093Y2469333D01*
Y2469332D01*
X2957153Y2470393D01*
X2958403Y2469521D01*
X2958892Y2467066D01*
X2960383Y2464833D01*
X2962616Y2463342D01*
X2965250Y2462818D01*
X2966750D01*
Y2469700D01*
X2968250D01*
Y2462818D01*
X2969750D01*
X2972384Y2463342D01*
X2974141Y2464516D01*
X2975570Y2464104D01*
X2975780Y2463944D01*
X2975878Y2463438D01*
X2974149Y2460851D01*
X2971006Y2458751D01*
X2967413Y2458036D01*
X2967300Y2458059D01*
X2890680D01*
X2889490Y2459559D01*
X2889578Y2460000D01*
Y2466961D01*
X2891078Y2467260D01*
X2891278Y2466778D01*
X2893452Y2464604D01*
X2893431Y2464500D01*
X2893703Y2463134D01*
X2894477Y2461976D01*
X2895634Y2461203D01*
X2897000Y2460931D01*
X2898365Y2461203D01*
X2899500Y2461961D01*
X2900634Y2461203D01*
X2902000Y2460931D01*
X2903365Y2461203D01*
X2904500Y2461961D01*
X2905634Y2461203D01*
X2907000Y2460931D01*
X2908365Y2461203D01*
X2909500Y2461961D01*
X2910634Y2461203D01*
X2912000Y2460931D01*
X2913365Y2461203D01*
X2914500Y2461961D01*
X2915634Y2461203D01*
X2917000Y2460931D01*
X2918365Y2461203D01*
X2919500Y2461961D01*
X2920634Y2461203D01*
X2922000Y2460931D01*
X2923365Y2461203D01*
X2924500Y2461961D01*
X2925634Y2461203D01*
X2927000Y2460931D01*
X2928365Y2461203D01*
X2929523Y2461976D01*
X2930297Y2463134D01*
X2930569Y2464500D01*
X2930297Y2465865D01*
X2929523Y2467023D01*
X2929590Y2467677D01*
X2929804Y2468750D01*
Y2474250D01*
X2929590Y2475323D01*
X2928983Y2476232D01*
X2928073Y2476840D01*
X2927000Y2477054D01*
X2925927Y2476840D01*
X2925354Y2477345D01*
X2925296Y2477509D01*
X2925233Y2478267D01*
X2925765Y2479064D01*
X2927945D01*
X2928177Y2478909D01*
D02*
G37*
G36*
X2788830Y2877109D02*
Y2872210D01*
X2788830Y2872210D01*
X2788830D01*
X2789561Y2870710D01*
X2789511Y2870460D01*
X2789783Y2869094D01*
X2790556Y2867936D01*
X2791714Y2867163D01*
X2793080Y2866891D01*
X2794445Y2867163D01*
X2795603Y2867936D01*
X2796310Y2868994D01*
X2796419Y2869009D01*
X2797810Y2868129D01*
Y2863230D01*
X2797810Y2863229D01*
X2797810D01*
X2798541Y2861729D01*
X2798492Y2861479D01*
X2798763Y2860114D01*
X2799537Y2858956D01*
X2800694Y2858183D01*
X2802060Y2857911D01*
X2803426Y2858183D01*
X2804583Y2858956D01*
X2805290Y2860014D01*
X2805400Y2860029D01*
X2806790Y2859149D01*
Y2854249D01*
X2806790Y2854249D01*
X2806790D01*
X2807521Y2852749D01*
X2807472Y2852499D01*
X2807743Y2851134D01*
X2808517Y2849976D01*
X2809675Y2849202D01*
X2811040Y2848931D01*
X2812406Y2849202D01*
X2813564Y2849976D01*
X2814271Y2851034D01*
X2814380Y2851049D01*
X2815771Y2850168D01*
Y2845269D01*
X2815771Y2845269D01*
X2815771D01*
X2816501Y2843769D01*
X2816452Y2843519D01*
X2816724Y2842154D01*
X2817497Y2840996D01*
X2818655Y2840222D01*
X2820020Y2839951D01*
X2821386Y2840222D01*
X2822544Y2840996D01*
X2823251Y2842054D01*
X2823360Y2842068D01*
X2824751Y2841189D01*
Y2836289D01*
X2824751Y2836289D01*
X2824751D01*
X2825482Y2834789D01*
X2825432Y2834539D01*
X2825704Y2833173D01*
X2826300Y2832281D01*
X2825868Y2831277D01*
X2825556Y2830900D01*
X2825317Y2830947D01*
X2823951Y2830676D01*
X2822794Y2829902D01*
X2822020Y2828745D01*
X2821748Y2827379D01*
X2821237Y2826966D01*
X2820327Y2826358D01*
X2816438Y2822469D01*
X2815830Y2821559D01*
X2815652Y2820664D01*
X2814856Y2820078D01*
X2814235Y2819745D01*
X2813294Y2819932D01*
X2812477Y2821299D01*
X2812486Y2821355D01*
X2812498Y2821377D01*
X2812776Y2821432D01*
X2813686Y2822039D01*
X2814294Y2822949D01*
X2814507Y2824022D01*
X2814294Y2825095D01*
X2813686Y2826005D01*
X2809796Y2829894D01*
X2808887Y2830502D01*
X2808380Y2830914D01*
X2808108Y2832280D01*
X2807334Y2833438D01*
X2806698Y2833863D01*
X2806312Y2835597D01*
X2808699Y2837985D01*
X2808699Y2837985D01*
X2808699Y2837985D01*
X2809243Y2839562D01*
X2809456Y2839704D01*
X2810229Y2840862D01*
X2810501Y2842227D01*
X2810229Y2843593D01*
X2809456Y2844751D01*
X2808298Y2845525D01*
X2806932Y2845796D01*
X2805567Y2845525D01*
X2804409Y2844751D01*
X2804267Y2844539D01*
X2802689Y2843995D01*
X2802689Y2843995D01*
X2802689Y2843995D01*
X2797386Y2838692D01*
X2801302Y2834776D01*
X2801216Y2834534D01*
X2799752Y2834205D01*
X2796325Y2837632D01*
X2791022Y2832328D01*
X2785719Y2827025D01*
X2789785Y2822960D01*
X2789718Y2822731D01*
X2788265Y2822358D01*
X2788194Y2822429D01*
X2786072Y2820308D01*
X2788547Y2817833D01*
X2789424Y2818710D01*
X2789737Y2818759D01*
X2791256Y2818420D01*
X2791681Y2817784D01*
X2791905Y2817635D01*
X2791877Y2816624D01*
X2796147Y2812355D01*
X2795086Y2811294D01*
X2791264Y2815116D01*
X2791082Y2814842D01*
X2790868Y2813769D01*
X2789509Y2812913D01*
X2789063Y2812824D01*
X2788789Y2812641D01*
X2792611Y2808819D01*
X2796433Y2804998D01*
X2796616Y2805272D01*
X2796671Y2805549D01*
X2796693Y2805562D01*
X2796749Y2805570D01*
X2798116Y2804753D01*
X2798303Y2803813D01*
X2797969Y2803192D01*
X2797384Y2802396D01*
X2796488Y2802217D01*
X2795578Y2801609D01*
X2794164Y2800195D01*
X2796147Y2798213D01*
X2795616Y2797682D01*
X2796147Y2797152D01*
X2792325Y2793330D01*
X2792599Y2793148D01*
X2793672Y2792934D01*
X2794404Y2792202D01*
X2794617Y2791129D01*
X2794951Y2790630D01*
Y2790256D01*
X2795455Y2789038D01*
X2795664Y2788534D01*
X2803796Y2780402D01*
X2805518Y2779689D01*
X2808593D01*
X2808652Y2779601D01*
X2809809Y2778827D01*
X2811175Y2778555D01*
X2812541Y2778827D01*
X2813698Y2779601D01*
X2814472Y2780758D01*
X2814738Y2782096D01*
X2816076Y2782362D01*
X2817234Y2783136D01*
X2818007Y2784294D01*
X2818274Y2785632D01*
X2819612Y2785898D01*
X2820769Y2786671D01*
X2821543Y2787829D01*
X2821809Y2789167D01*
X2823147Y2789434D01*
X2824305Y2790207D01*
X2825078Y2791365D01*
X2825345Y2792703D01*
X2826683Y2792969D01*
X2827840Y2793743D01*
X2828614Y2794901D01*
X2828880Y2796238D01*
X2830218Y2796505D01*
X2831376Y2797278D01*
X2832149Y2798436D01*
X2832415Y2799774D01*
X2833754Y2800040D01*
X2834911Y2800814D01*
X2835685Y2801971D01*
X2835957Y2803337D01*
X2835685Y2804703D01*
X2834911Y2805861D01*
X2833754Y2806634D01*
X2832388Y2806906D01*
X2831971Y2807418D01*
X2831364Y2808327D01*
X2827474Y2812216D01*
X2826565Y2812824D01*
X2825492Y2813037D01*
X2824419Y2812824D01*
X2823509Y2812216D01*
X2822901Y2811306D01*
X2822846Y2811029D01*
X2822824Y2811016D01*
X2822768Y2811008D01*
X2821401Y2811825D01*
X2821215Y2812762D01*
X2822761Y2814307D01*
X2823029Y2814361D01*
X2823939Y2814969D01*
X2827196Y2818226D01*
X2829167D01*
X2832742Y2814651D01*
X2838752Y2820661D01*
X2838752D01*
X2839063Y2820351D01*
X2839063Y2818851D01*
X2837338Y2817126D01*
X2839990Y2814474D01*
X2842641Y2811823D01*
X2844699Y2813881D01*
X2845596Y2813281D01*
X2846961Y2813010D01*
X2848327Y2813281D01*
X2849485Y2814055D01*
X2850192Y2815113D01*
X2850301Y2815128D01*
X2851692Y2814247D01*
Y2809348D01*
X2851692Y2809348D01*
X2851692D01*
X2852423Y2807848D01*
X2852373Y2807598D01*
X2852645Y2806233D01*
X2853418Y2805075D01*
X2854576Y2804301D01*
X2855941Y2804030D01*
X2857307Y2804301D01*
X2858465Y2805075D01*
X2859172Y2806133D01*
X2859281Y2806147D01*
X2860672Y2805267D01*
Y2800368D01*
X2860672Y2800368D01*
X2860672D01*
X2861403Y2798868D01*
X2861353Y2798618D01*
X2861625Y2797252D01*
X2862398Y2796094D01*
X2863556Y2795321D01*
X2864922Y2795049D01*
X2866288Y2795321D01*
X2867445Y2796094D01*
X2868152Y2797152D01*
X2868261Y2797167D01*
X2869652Y2796288D01*
Y2791388D01*
X2869652Y2791388D01*
X2869652D01*
X2870009Y2789887D01*
X2869931Y2789500D01*
X2870203Y2788134D01*
X2870977Y2786977D01*
X2871067Y2786057D01*
X2869320Y2784310D01*
X2867240D01*
X2867020Y2784637D01*
X2866580Y2786068D01*
X2867353Y2787226D01*
X2867625Y2788592D01*
X2867353Y2789958D01*
X2866580Y2791115D01*
X2865422Y2791889D01*
X2864056Y2792161D01*
X2862691Y2791889D01*
X2861533Y2791115D01*
X2860759Y2789958D01*
X2860488Y2788592D01*
X2859976Y2788179D01*
X2859066Y2787571D01*
X2855177Y2783682D01*
X2854569Y2782773D01*
X2854391Y2781877D01*
X2853595Y2781291D01*
X2852974Y2780958D01*
X2852033Y2781145D01*
X2851216Y2782512D01*
X2851225Y2782568D01*
X2851238Y2782590D01*
X2851515Y2782645D01*
X2852425Y2783253D01*
X2853033Y2784162D01*
X2853246Y2785235D01*
X2853033Y2786308D01*
X2852425Y2787218D01*
X2848536Y2791107D01*
X2847626Y2791715D01*
X2847119Y2792127D01*
X2846847Y2793493D01*
X2846074Y2794651D01*
X2845437Y2795076D01*
X2845051Y2796811D01*
X2847438Y2799198D01*
X2847439Y2799198D01*
X2847439Y2799198D01*
X2847983Y2800775D01*
X2848195Y2800917D01*
X2848969Y2802075D01*
X2849240Y2803441D01*
X2848969Y2804807D01*
X2848195Y2805964D01*
X2847037Y2806738D01*
X2845672Y2807009D01*
X2844306Y2806738D01*
X2843148Y2805964D01*
X2843006Y2805752D01*
X2841428Y2805209D01*
X2841428Y2805209D01*
X2841428Y2805209D01*
X2836125Y2799905D01*
X2840041Y2795989D01*
X2839955Y2795747D01*
X2838491Y2795418D01*
X2835064Y2798845D01*
X2829761Y2793542D01*
X2824458Y2788239D01*
X2828524Y2784173D01*
X2828457Y2783944D01*
X2827004Y2783571D01*
X2826933Y2783642D01*
X2824812Y2781521D01*
X2827287Y2779046D01*
X2828163Y2779923D01*
X2828477Y2779972D01*
X2829995Y2779633D01*
X2830420Y2778997D01*
X2830645Y2778848D01*
X2830616Y2777838D01*
X2834886Y2773568D01*
X2833825Y2772507D01*
X2830004Y2776329D01*
X2829821Y2776055D01*
X2829686Y2775376D01*
X2828875Y2774250D01*
X2827803Y2774037D01*
X2827529Y2773854D01*
X2831350Y2770032D01*
X2835172Y2766211D01*
X2835355Y2766485D01*
X2835410Y2766762D01*
X2835432Y2766775D01*
X2835488Y2766783D01*
X2836855Y2765966D01*
X2837042Y2765026D01*
X2836709Y2764405D01*
X2836123Y2763609D01*
X2835227Y2763430D01*
X2834318Y2762823D01*
X2832903Y2761408D01*
X2834886Y2759426D01*
X2834356Y2758896D01*
X2834886Y2758365D01*
X2831064Y2754543D01*
X2831338Y2754360D01*
X2832411Y2754147D01*
X2833143Y2753416D01*
X2833356Y2752343D01*
X2833690Y2751843D01*
Y2751469D01*
X2834404Y2749747D01*
X2842535Y2741615D01*
X2844257Y2740902D01*
X2847332D01*
X2847391Y2740814D01*
X2848549Y2740040D01*
X2849914Y2739768D01*
X2851280Y2740040D01*
X2852438Y2740814D01*
X2853211Y2741971D01*
X2853477Y2743310D01*
X2854815Y2743576D01*
X2855973Y2744349D01*
X2856747Y2745507D01*
X2857013Y2746845D01*
X2858351Y2747111D01*
X2859509Y2747885D01*
X2860282Y2749042D01*
X2860548Y2750381D01*
X2861886Y2750647D01*
X2863044Y2751420D01*
X2863818Y2752578D01*
X2864084Y2753916D01*
X2865422Y2754182D01*
X2866580Y2754956D01*
X2867353Y2756114D01*
X2867619Y2757451D01*
X2868958Y2757718D01*
X2870115Y2758492D01*
X2870889Y2759649D01*
X2871155Y2760987D01*
X2872493Y2761253D01*
X2873651Y2762027D01*
X2874424Y2763185D01*
X2874696Y2764550D01*
X2874424Y2765916D01*
X2873651Y2767074D01*
X2872493Y2767847D01*
X2871127Y2768119D01*
X2870710Y2768631D01*
X2870103Y2769540D01*
X2866213Y2773429D01*
X2865304Y2774037D01*
X2864231Y2774250D01*
X2863158Y2774037D01*
X2862248Y2773429D01*
X2861641Y2772520D01*
X2861585Y2772242D01*
X2861563Y2772229D01*
X2861507Y2772221D01*
X2860140Y2773038D01*
X2859954Y2773975D01*
X2861500Y2775520D01*
X2861768Y2775574D01*
X2862678Y2776182D01*
X2865935Y2779439D01*
X2867906D01*
X2871481Y2775864D01*
X2876546Y2780929D01*
X2876757Y2780884D01*
X2877185Y2779447D01*
X2876077Y2778339D01*
X2878729Y2775688D01*
X2881381Y2773036D01*
X2883090Y2774745D01*
X2883820Y2774673D01*
X2884978Y2773900D01*
X2886343Y2773628D01*
X2886593Y2773677D01*
X2888093Y2772946D01*
Y2772946D01*
X2888093Y2772946D01*
X2892993D01*
X2893873Y2771556D01*
X2893858Y2771447D01*
X2892800Y2770739D01*
X2892027Y2769582D01*
X2891755Y2768216D01*
X2892027Y2766851D01*
X2892800Y2765693D01*
X2893958Y2764919D01*
X2895323Y2764648D01*
X2895573Y2764697D01*
X2897073Y2763966D01*
Y2763966D01*
X2897073Y2763966D01*
X2901973D01*
X2902853Y2762576D01*
X2902838Y2762466D01*
X2901780Y2761759D01*
X2901007Y2760602D01*
X2900735Y2759236D01*
X2901007Y2757870D01*
X2901780Y2756713D01*
X2902938Y2755939D01*
X2904304Y2755667D01*
X2904554Y2755717D01*
X2906053Y2754986D01*
Y2754986D01*
X2906053Y2754986D01*
X2910953D01*
X2911833Y2753595D01*
X2911819Y2753486D01*
X2910760Y2752779D01*
X2909987Y2751621D01*
X2909715Y2750256D01*
X2909987Y2748890D01*
X2910760Y2747732D01*
X2910762Y2747715D01*
X2908363Y2745315D01*
X2906282D01*
X2906063Y2745643D01*
X2905622Y2747074D01*
X2906396Y2748232D01*
X2906667Y2749597D01*
X2906396Y2750963D01*
X2905622Y2752120D01*
X2904464Y2752894D01*
X2903099Y2753166D01*
X2901733Y2752894D01*
X2900576Y2752120D01*
X2899802Y2750963D01*
X2899530Y2749597D01*
X2899018Y2749184D01*
X2898109Y2748577D01*
X2894220Y2744688D01*
X2893612Y2743778D01*
X2893434Y2742882D01*
X2892638Y2742296D01*
X2892017Y2741963D01*
X2891076Y2742150D01*
X2890583Y2742732D01*
X2890510Y2742888D01*
X2890558Y2743650D01*
X2891467Y2744258D01*
X2892075Y2745168D01*
X2892289Y2746241D01*
X2892075Y2747314D01*
X2891467Y2748223D01*
X2887578Y2752112D01*
X2886669Y2752720D01*
X2886161Y2753133D01*
X2885890Y2754498D01*
X2885116Y2755656D01*
X2884480Y2756081D01*
X2884093Y2757816D01*
X2886481Y2760203D01*
X2886481Y2760204D01*
X2886481Y2760204D01*
X2887025Y2761781D01*
X2887238Y2761923D01*
X2888011Y2763080D01*
X2888283Y2764446D01*
X2888011Y2765811D01*
X2887238Y2766969D01*
X2886080Y2767743D01*
X2884714Y2768015D01*
X2883348Y2767743D01*
X2882191Y2766969D01*
X2882049Y2766757D01*
X2880471Y2766214D01*
X2880471Y2766214D01*
X2880471Y2766214D01*
X2875168Y2760911D01*
X2879084Y2756994D01*
X2878997Y2756752D01*
X2877534Y2756423D01*
X2874107Y2759850D01*
X2868804Y2754547D01*
X2863500Y2749243D01*
X2867566Y2745178D01*
X2867500Y2744949D01*
X2866047Y2744576D01*
X2865976Y2744648D01*
X2863854Y2742526D01*
X2866329Y2740051D01*
X2867206Y2740928D01*
X2867519Y2740977D01*
X2869038Y2740639D01*
X2869463Y2740003D01*
X2869687Y2739853D01*
X2869659Y2738843D01*
X2873929Y2734573D01*
X2872868Y2733513D01*
X2869046Y2737334D01*
X2868863Y2737061D01*
X2868650Y2735988D01*
X2867918Y2735256D01*
X2866845Y2735042D01*
X2866571Y2734859D01*
X2870393Y2731038D01*
X2874214Y2727216D01*
X2874398Y2727490D01*
X2874453Y2727767D01*
X2874475Y2727780D01*
X2874531Y2727789D01*
X2875898Y2726972D01*
X2876085Y2726031D01*
X2875751Y2725410D01*
X2875165Y2724614D01*
X2874270Y2724436D01*
X2873360Y2723828D01*
X2871946Y2722414D01*
X2873929Y2720431D01*
X2873398Y2719901D01*
X2873929Y2719370D01*
X2870107Y2715549D01*
X2870381Y2715366D01*
X2870826Y2715277D01*
X2872185Y2714420D01*
X2872399Y2713348D01*
X2872733Y2712848D01*
Y2712474D01*
X2873446Y2710752D01*
X2881578Y2702620D01*
X2883300Y2701907D01*
X2886375D01*
X2886433Y2701819D01*
X2887591Y2701045D01*
X2888957Y2700774D01*
X2890322Y2701045D01*
X2891480Y2701819D01*
X2892254Y2702977D01*
X2892520Y2704315D01*
X2893858Y2704581D01*
X2895016Y2705354D01*
X2895789Y2706512D01*
X2896055Y2707850D01*
X2897393Y2708116D01*
X2898551Y2708890D01*
X2899325Y2710048D01*
X2899591Y2711386D01*
X2900929Y2711652D01*
X2902086Y2712426D01*
X2902860Y2713583D01*
X2903127Y2714921D01*
X2904464Y2715187D01*
X2905622Y2715961D01*
X2906396Y2717119D01*
X2906662Y2718457D01*
X2908000Y2718723D01*
X2909158Y2719496D01*
X2909931Y2720654D01*
X2910197Y2721992D01*
X2911536Y2722259D01*
X2912693Y2723032D01*
X2913467Y2724190D01*
X2913738Y2725555D01*
X2913467Y2726921D01*
X2912693Y2728079D01*
X2911536Y2728853D01*
X2910170Y2729124D01*
X2909753Y2729636D01*
X2909145Y2730545D01*
X2905256Y2734435D01*
X2904346Y2735042D01*
X2903273Y2735256D01*
X2902200Y2735042D01*
X2901291Y2734435D01*
X2900683Y2733525D01*
X2900628Y2733247D01*
X2900606Y2733234D01*
X2900550Y2733226D01*
X2899183Y2734043D01*
X2898997Y2734980D01*
X2900543Y2736526D01*
X2900811Y2736579D01*
X2901721Y2737187D01*
X2904978Y2740444D01*
X2906949D01*
X2910524Y2736870D01*
X2916534Y2742880D01*
X2914819Y2744594D01*
X2915529Y2746006D01*
X2919933D01*
X2920814Y2744615D01*
X2920799Y2744506D01*
X2919741Y2743799D01*
X2918967Y2742641D01*
X2918955Y2742580D01*
X2917595Y2741819D01*
X2917595Y2741819D01*
X2917595Y2741819D01*
X2915120Y2739344D01*
X2917771Y2736693D01*
X2920423Y2734041D01*
X2922776Y2736394D01*
X2923419Y2736722D01*
X2924187Y2737025D01*
X2928914D01*
X2929794Y2735635D01*
X2929779Y2735526D01*
X2928721Y2734818D01*
X2927948Y2733661D01*
X2927676Y2732295D01*
X2927948Y2730930D01*
X2928721Y2729772D01*
X2929879Y2728998D01*
X2931245Y2728727D01*
X2931494Y2728776D01*
X2932994Y2728045D01*
Y2728045D01*
X2932994Y2728045D01*
X2933774Y2726655D01*
X2933759Y2726545D01*
X2932701Y2725838D01*
X2931928Y2724680D01*
X2931656Y2723315D01*
X2931928Y2721949D01*
X2932701Y2720792D01*
X2933859Y2720018D01*
X2935225Y2719746D01*
X2935475Y2719796D01*
X2936974Y2719065D01*
Y2719065D01*
X2936974Y2719065D01*
X2944474D01*
Y2725807D01*
X2945195Y2726244D01*
X2945974Y2725807D01*
Y2719065D01*
X2950579D01*
X2951143Y2717704D01*
X2951143Y2717704D01*
X2951143Y2717704D01*
X2956425Y2712422D01*
X2954317Y2712408D01*
X2950082Y2716643D01*
X2944779Y2711340D01*
X2944779Y2711340D01*
X2944779Y2711340D01*
X2944236Y2709762D01*
X2944024Y2709620D01*
X2943250Y2708463D01*
X2942979Y2707097D01*
X2943250Y2705732D01*
X2944024Y2704574D01*
X2945182Y2703800D01*
X2946547Y2703528D01*
X2947795Y2703777D01*
X2947883Y2703710D01*
X2948244Y2702104D01*
X2944779Y2698640D01*
X2944779Y2698640D01*
X2944779Y2698640D01*
X2944236Y2697062D01*
X2944024Y2696920D01*
X2943250Y2695763D01*
X2942979Y2694397D01*
X2943250Y2693031D01*
X2944024Y2691874D01*
X2945182Y2691100D01*
X2946547Y2690829D01*
X2947795Y2691077D01*
X2947883Y2691010D01*
X2948244Y2689404D01*
X2944779Y2685940D01*
X2944779Y2685940D01*
X2944779Y2685940D01*
X2944236Y2684362D01*
X2944024Y2684221D01*
X2943250Y2683063D01*
X2942979Y2681697D01*
X2943250Y2680331D01*
X2944024Y2679174D01*
X2945182Y2678400D01*
X2946547Y2678128D01*
X2947795Y2678377D01*
X2947883Y2678310D01*
X2948244Y2676705D01*
X2944779Y2673240D01*
X2944779Y2673240D01*
X2944779Y2673240D01*
X2944236Y2671662D01*
X2944024Y2671520D01*
X2943250Y2670363D01*
X2942979Y2668997D01*
X2943250Y2667632D01*
X2944024Y2666474D01*
X2945182Y2665700D01*
X2946547Y2665428D01*
X2947795Y2665677D01*
X2947883Y2665610D01*
X2948244Y2664004D01*
X2944779Y2660540D01*
X2944779Y2660540D01*
X2944779Y2660540D01*
X2944236Y2658962D01*
X2944024Y2658820D01*
X2943250Y2657663D01*
X2942979Y2656297D01*
X2943250Y2654931D01*
X2944024Y2653774D01*
X2945182Y2653000D01*
X2946547Y2652729D01*
X2947795Y2652977D01*
X2947883Y2652910D01*
X2948244Y2651304D01*
X2944779Y2647840D01*
X2944779Y2647840D01*
X2944779Y2647840D01*
X2944236Y2646262D01*
X2944024Y2646120D01*
X2943250Y2644963D01*
X2942979Y2643597D01*
X2943250Y2642231D01*
X2944024Y2641074D01*
X2945182Y2640300D01*
X2946547Y2640028D01*
X2947795Y2640277D01*
X2947883Y2640210D01*
X2948244Y2638604D01*
X2944779Y2635140D01*
X2944779Y2635140D01*
X2944779Y2635139D01*
X2944236Y2633562D01*
X2944024Y2633420D01*
X2943250Y2632263D01*
X2942979Y2630897D01*
X2943250Y2629532D01*
X2944024Y2628374D01*
X2945182Y2627600D01*
X2946547Y2627328D01*
X2947795Y2627577D01*
X2947883Y2627510D01*
X2948244Y2625904D01*
X2944779Y2622440D01*
X2944779Y2622440D01*
X2944779Y2622440D01*
X2944236Y2620862D01*
X2944024Y2620721D01*
X2943250Y2619563D01*
X2942979Y2618197D01*
X2943250Y2616831D01*
X2944024Y2615674D01*
X2945182Y2614900D01*
X2946547Y2614629D01*
X2947795Y2614877D01*
X2947883Y2614810D01*
X2948244Y2613204D01*
X2944779Y2609740D01*
X2944779Y2609740D01*
X2944779Y2609740D01*
X2944236Y2608162D01*
X2944024Y2608020D01*
X2943250Y2606863D01*
X2942979Y2605497D01*
X2943250Y2604131D01*
X2944024Y2602974D01*
X2945182Y2602200D01*
X2946547Y2601928D01*
X2947795Y2602177D01*
X2947883Y2602110D01*
X2948244Y2600504D01*
X2944779Y2597039D01*
X2944779Y2597039D01*
X2944779Y2597039D01*
X2944236Y2595462D01*
X2944024Y2595320D01*
X2943250Y2594163D01*
X2942979Y2592797D01*
X2943250Y2591431D01*
X2944024Y2590274D01*
X2945182Y2589500D01*
X2946547Y2589229D01*
X2947795Y2589477D01*
X2947883Y2589410D01*
X2948243Y2587804D01*
X2944779Y2584340D01*
X2944779Y2584340D01*
X2944779Y2584340D01*
X2944236Y2582762D01*
X2944024Y2582621D01*
X2943250Y2581463D01*
X2942979Y2580097D01*
X2943250Y2578731D01*
X2944024Y2577574D01*
X2945182Y2576800D01*
X2946547Y2576529D01*
X2947795Y2576777D01*
X2947883Y2576710D01*
X2948244Y2575104D01*
X2944779Y2571640D01*
X2944779Y2571640D01*
X2944779Y2571640D01*
X2944236Y2570062D01*
X2944024Y2569920D01*
X2943250Y2568763D01*
X2943049Y2567750D01*
X2939694D01*
X2938221Y2569223D01*
X2938297Y2569608D01*
X2939000Y2570931D01*
X2940366Y2571203D01*
X2941523Y2571977D01*
X2942297Y2573134D01*
X2942569Y2574500D01*
X2942297Y2575865D01*
X2941523Y2577023D01*
X2940366Y2577797D01*
X2939000Y2578069D01*
X2937634Y2577797D01*
X2936477Y2577023D01*
X2935823Y2577090D01*
X2934750Y2577304D01*
X2929250D01*
X2928177Y2577090D01*
X2927418Y2576583D01*
X2926440Y2576732D01*
X2925765Y2576935D01*
X2925233Y2577733D01*
X2925622Y2579277D01*
X2925667Y2579310D01*
X2925692Y2579317D01*
X2925927Y2579160D01*
X2927000Y2578946D01*
X2928073Y2579160D01*
X2928983Y2579767D01*
X2929590Y2580677D01*
X2929804Y2581750D01*
Y2587250D01*
X2929590Y2588323D01*
X2929523Y2588976D01*
X2930297Y2590134D01*
X2930569Y2591500D01*
X2930420Y2592249D01*
X2931373Y2593749D01*
X2934750D01*
Y2593824D01*
X2936076Y2594666D01*
X2936250Y2594680D01*
X2937500Y2594431D01*
X2938865Y2594703D01*
X2940023Y2595476D01*
X2940797Y2596634D01*
X2941068Y2598000D01*
X2940797Y2599366D01*
X2940023Y2600523D01*
X2938865Y2601297D01*
X2937500Y2601568D01*
X2936250Y2601320D01*
X2936076Y2601334D01*
X2934750Y2602176D01*
Y2602249D01*
X2927250D01*
Y2596712D01*
X2927017Y2596602D01*
X2925750Y2597404D01*
Y2602249D01*
X2918250D01*
X2918250Y2602250D01*
Y2602250D01*
X2910750D01*
Y2596501D01*
X2910541Y2596386D01*
X2909250Y2597149D01*
Y2597250D01*
X2906250D01*
Y2593750D01*
X2907490D01*
X2907746Y2593564D01*
X2908581Y2592250D01*
X2908431Y2591500D01*
X2908485Y2591232D01*
X2907750Y2590537D01*
Y2584500D01*
X2906250D01*
Y2589904D01*
X2905927Y2589840D01*
X2905017Y2589232D01*
X2903983D01*
X2903073Y2589840D01*
X2902750Y2589904D01*
Y2584500D01*
Y2579095D01*
X2903073Y2579160D01*
X2903308Y2579317D01*
X2903333Y2579310D01*
X2903378Y2579277D01*
X2903767Y2577733D01*
X2903234Y2576935D01*
X2902559Y2576732D01*
X2901582Y2576583D01*
X2900823Y2577090D01*
X2899750Y2577304D01*
X2897750D01*
Y2574500D01*
X2897000D01*
Y2573750D01*
X2891595D01*
X2891660Y2573427D01*
X2891912Y2573049D01*
X2892150Y2572000D01*
X2891912Y2570951D01*
X2891660Y2570573D01*
X2891543Y2569987D01*
X2891278Y2569722D01*
X2890565Y2568000D01*
Y2556500D01*
X2891278Y2554778D01*
X2893452Y2552604D01*
X2893431Y2552500D01*
X2893703Y2551134D01*
X2894477Y2549977D01*
X2895634Y2549203D01*
X2897000Y2548931D01*
X2898366Y2549203D01*
X2899500Y2549961D01*
X2900634Y2549203D01*
X2902000Y2548931D01*
X2903365Y2549203D01*
X2904500Y2549961D01*
X2905634Y2549203D01*
X2907000Y2548931D01*
X2908365Y2549203D01*
X2909500Y2549961D01*
X2910634Y2549203D01*
X2912000Y2548931D01*
X2913365Y2549203D01*
X2914500Y2549961D01*
X2915634Y2549203D01*
X2917000Y2548931D01*
X2918365Y2549203D01*
X2919500Y2549961D01*
X2920634Y2549203D01*
X2922000Y2548931D01*
X2923366Y2549203D01*
X2924500Y2549961D01*
X2925634Y2549203D01*
X2927000Y2548931D01*
X2928365Y2549203D01*
X2929523Y2549977D01*
X2930297Y2551134D01*
X2930569Y2552500D01*
X2930297Y2553866D01*
X2929523Y2555023D01*
X2929590Y2555677D01*
X2929804Y2556750D01*
Y2562250D01*
X2929590Y2563323D01*
X2928983Y2564232D01*
X2928073Y2564840D01*
X2927000Y2565054D01*
X2925927Y2564840D01*
X2925354Y2565345D01*
X2925296Y2565508D01*
X2925233Y2566267D01*
X2925765Y2567065D01*
X2927945D01*
X2928177Y2566909D01*
X2929250Y2566696D01*
X2933860D01*
X2935251Y2565305D01*
Y2560250D01*
X2943257D01*
X2943284Y2559846D01*
X2942260Y2558750D01*
X2940250D01*
Y2555000D01*
Y2551250D01*
X2943750D01*
X2943750Y2551250D01*
Y2551250D01*
X2945131Y2551395D01*
X2945251Y2551386D01*
X2946547Y2551129D01*
X2947795Y2551377D01*
X2947883Y2551310D01*
X2948243Y2549704D01*
X2944779Y2546240D01*
X2944779Y2546240D01*
X2944779Y2546240D01*
X2944236Y2544662D01*
X2944024Y2544521D01*
X2943250Y2543363D01*
X2942979Y2541997D01*
X2943250Y2540632D01*
X2944024Y2539474D01*
X2945182Y2538700D01*
X2946547Y2538428D01*
X2947795Y2538677D01*
X2947883Y2538610D01*
X2948244Y2537004D01*
X2944779Y2533540D01*
X2946062Y2532256D01*
X2944229Y2530423D01*
X2943500Y2530568D01*
X2942134Y2530297D01*
X2940977Y2529523D01*
X2940203Y2528365D01*
X2939931Y2527000D01*
X2940203Y2525634D01*
X2940977Y2524476D01*
X2942134Y2523703D01*
X2943500Y2523431D01*
X2943956Y2523522D01*
X2945709Y2521769D01*
X2944779Y2520840D01*
X2948001Y2517618D01*
Y2511361D01*
X2944793Y2508153D01*
X2950804Y2502143D01*
X2951143Y2501803D01*
X2956425Y2496522D01*
X2954317Y2496508D01*
X2950082Y2500743D01*
X2944779Y2495440D01*
X2944779Y2495440D01*
X2944779Y2495440D01*
X2944236Y2493862D01*
X2944024Y2493721D01*
X2943250Y2492563D01*
X2942979Y2491197D01*
X2943250Y2489832D01*
X2944024Y2488674D01*
X2945182Y2487900D01*
X2946547Y2487628D01*
X2947795Y2487877D01*
X2947883Y2487810D01*
X2948245Y2486205D01*
X2944779Y2482740D01*
X2944779Y2482740D01*
X2944779Y2482740D01*
X2944236Y2481162D01*
X2944024Y2481020D01*
X2943250Y2479863D01*
X2943228Y2479750D01*
X2939694D01*
X2938221Y2481223D01*
X2938297Y2481608D01*
X2939000Y2482931D01*
X2940366Y2483203D01*
X2941523Y2483976D01*
X2942297Y2485134D01*
X2942568Y2486500D01*
X2942297Y2487865D01*
X2941523Y2489023D01*
X2940366Y2489797D01*
X2939000Y2490068D01*
X2937634Y2489797D01*
X2936477Y2489023D01*
X2935823Y2489090D01*
X2934750Y2489304D01*
X2929250D01*
X2928177Y2489090D01*
X2927418Y2488583D01*
X2926440Y2488732D01*
X2925765Y2488935D01*
X2925233Y2489733D01*
X2925296Y2490491D01*
X2925354Y2490654D01*
X2925927Y2491159D01*
X2927000Y2490946D01*
X2928073Y2491159D01*
X2928983Y2491767D01*
X2929590Y2492677D01*
X2929804Y2493750D01*
Y2499250D01*
X2929590Y2500323D01*
X2929523Y2500977D01*
X2930297Y2502134D01*
X2930569Y2503500D01*
X2930419Y2504250D01*
X2931373Y2505750D01*
X2934750D01*
X2934750Y2505750D01*
Y2505750D01*
X2936250Y2506481D01*
X2936500Y2506431D01*
X2937865Y2506703D01*
X2939023Y2507476D01*
X2939796Y2508634D01*
X2940068Y2510000D01*
X2939796Y2511365D01*
X2939023Y2512523D01*
X2937865Y2513296D01*
X2936500Y2513568D01*
X2936250Y2513518D01*
X2934750Y2514250D01*
Y2514250D01*
X2934750Y2514250D01*
X2927250D01*
Y2508712D01*
X2927018Y2508602D01*
X2925750Y2509404D01*
Y2514250D01*
X2918250D01*
X2918250Y2514250D01*
Y2514250D01*
X2910750D01*
Y2508500D01*
X2910541Y2508386D01*
X2909250Y2509149D01*
Y2509250D01*
X2906250D01*
Y2505750D01*
X2907490D01*
X2907746Y2505564D01*
X2908581Y2504250D01*
X2908431Y2503500D01*
X2908484Y2503232D01*
X2907750Y2502537D01*
Y2496500D01*
X2906250D01*
Y2501905D01*
X2905927Y2501840D01*
X2905549Y2501588D01*
X2904500Y2501350D01*
X2903451Y2501588D01*
X2903073Y2501840D01*
X2902750Y2501904D01*
Y2496500D01*
Y2491095D01*
X2903073Y2491159D01*
X2903646Y2490654D01*
X2903704Y2490491D01*
X2903767Y2489733D01*
X2903234Y2488935D01*
X2902559Y2488732D01*
X2901582Y2488583D01*
X2900823Y2489090D01*
X2899750Y2489304D01*
X2897750D01*
Y2486500D01*
X2897000D01*
Y2485750D01*
X2891595D01*
X2891660Y2485427D01*
X2891912Y2485049D01*
X2892150Y2484000D01*
X2891912Y2482951D01*
X2891660Y2482573D01*
X2891543Y2481987D01*
X2891278Y2481722D01*
X2890565Y2480000D01*
Y2477883D01*
X2889065Y2477331D01*
X2888353Y2478055D01*
Y2480500D01*
X2889000D01*
Y2491500D01*
X2877000D01*
Y2491353D01*
X2874000D01*
Y2496750D01*
X2873853D01*
Y2498250D01*
X2874000D01*
Y2514750D01*
X2863000D01*
Y2498250D01*
X2863147D01*
Y2496750D01*
X2863000D01*
Y2480250D01*
X2862207Y2479078D01*
X2860500D01*
X2858939Y2478768D01*
X2857616Y2477884D01*
X2856732Y2476561D01*
X2856422Y2475000D01*
Y2468250D01*
X2863000D01*
Y2466750D01*
X2856422D01*
Y2460000D01*
X2856509Y2459559D01*
X2855320Y2458059D01*
X2842111D01*
Y2494111D01*
X2822891Y2505208D01*
X2822590Y2505600D01*
X2820764Y2506655D01*
X2821595Y2508131D01*
X2823041Y2508527D01*
X2823555Y2508230D01*
X2827305Y2514726D01*
X2821169Y2518268D01*
X2821171Y2518273D01*
X2822618Y2519164D01*
X2823725Y2518524D01*
X2825225Y2521122D01*
X2822194Y2522872D01*
X2821389Y2521479D01*
X2821356Y2521421D01*
X2821356Y2521421D01*
X2821323Y2521364D01*
X2821093Y2520965D01*
X2821033Y2520861D01*
D01*
X2820898Y2520628D01*
X2820857Y2520556D01*
X2820779Y2520547D01*
X2820638Y2520530D01*
X2820539Y2520519D01*
X2819719Y2520422D01*
X2819711Y2520421D01*
X2819645Y2520413D01*
X2819521Y2520398D01*
X2819309Y2520373D01*
X2817213Y2525433D01*
X2809360Y2522180D01*
X2812230Y2515251D01*
X2814584Y2516227D01*
X2815519Y2515009D01*
X2816998Y2513874D01*
X2816194Y2512480D01*
X2817703Y2511609D01*
X2816872Y2510133D01*
X2815425Y2509737D01*
X2809599Y2513100D01*
X2809108Y2513165D01*
X2793806Y2522000D01*
X2788299D01*
X2787068Y2523500D01*
X2787068Y2523500D01*
X2787018Y2523750D01*
X2787750Y2525250D01*
X2789146Y2525250D01*
X2789250D01*
X2791750D01*
Y2529000D01*
Y2532750D01*
X2789250D01*
X2788251Y2532750D01*
X2788251Y2533189D01*
X2789311Y2534250D01*
X2796750D01*
Y2541750D01*
X2796750Y2541750D01*
X2796750Y2541750D01*
X2796750Y2541750D01*
X2796334Y2543077D01*
X2796320Y2543250D01*
X2796569Y2544500D01*
X2796778Y2544799D01*
X2797699Y2545918D01*
X2797700Y2545918D01*
X2798980Y2546448D01*
X2799000Y2546456D01*
X2800500Y2545835D01*
X2801500D01*
X2803000Y2546456D01*
X2804500Y2545835D01*
X2805500D01*
X2806451Y2545200D01*
Y2542250D01*
X2806250D01*
Y2533750D01*
X2806711D01*
X2806950Y2531931D01*
X2806447Y2530715D01*
X2805916Y2530495D01*
X2808786Y2523566D01*
X2816639Y2526819D01*
X2814296Y2532476D01*
X2814211Y2532680D01*
X2815392Y2533750D01*
X2818250D01*
Y2538000D01*
X2819750D01*
Y2533750D01*
X2822750D01*
X2822750Y2533750D01*
Y2533750D01*
X2823944Y2533047D01*
X2827966Y2529025D01*
X2833976Y2535036D01*
X2831947Y2537065D01*
X2832569Y2538564D01*
X2839991D01*
X2842806Y2535750D01*
X2842250Y2534250D01*
X2842250D01*
Y2526750D01*
X2846370D01*
X2845661Y2525250D01*
X2842250D01*
Y2522250D01*
X2846500D01*
Y2521500D01*
X2847250D01*
Y2517750D01*
X2849854D01*
X2850172Y2517750D01*
X2851228Y2517603D01*
X2852080Y2517340D01*
X2853375Y2516804D01*
X2858625D01*
X2860443Y2517557D01*
X2861557Y2517557D01*
X2863375Y2516804D01*
X2868625D01*
X2870443Y2517557D01*
X2871195Y2519375D01*
Y2525125D01*
X2870443Y2526943D01*
X2868625Y2527695D01*
X2864748D01*
X2863640Y2528804D01*
X2864261Y2530304D01*
X2868625D01*
X2870443Y2531057D01*
X2871195Y2532875D01*
Y2538625D01*
X2870443Y2540443D01*
X2870419Y2540452D01*
X2869250Y2541250D01*
Y2541845D01*
X2869250Y2542437D01*
Y2542560D01*
Y2544750D01*
X2865500D01*
X2861750D01*
Y2543332D01*
X2860340Y2541927D01*
X2860250Y2541934D01*
Y2549750D01*
X2855751D01*
X2854474Y2550465D01*
X2854474Y2550465D01*
X2854474Y2550465D01*
X2850143Y2554796D01*
X2851809Y2555251D01*
X2852000Y2555061D01*
X2854651Y2557712D01*
X2857303Y2560364D01*
X2854828Y2562839D01*
X2854414Y2562425D01*
X2852800Y2562864D01*
X2852771Y2562903D01*
X2852023Y2564023D01*
X2851008Y2564702D01*
X2850932Y2565500D01*
X2851008Y2566298D01*
X2852023Y2566977D01*
X2852797Y2568134D01*
X2853069Y2569500D01*
X2852797Y2570865D01*
X2852023Y2572023D01*
X2851008Y2572702D01*
X2850932Y2573500D01*
X2851008Y2574298D01*
X2852023Y2574977D01*
X2852797Y2576134D01*
X2853069Y2577500D01*
X2852797Y2578865D01*
X2852023Y2580023D01*
X2850865Y2580797D01*
X2850865Y2580797D01*
X2850865D01*
X2849568Y2581500D01*
X2849368Y2582508D01*
X2849297Y2582866D01*
X2848523Y2584023D01*
X2847366Y2584797D01*
X2846000Y2585068D01*
X2845700Y2585277D01*
X2844582Y2586199D01*
X2844052Y2587480D01*
X2844043Y2587500D01*
X2844561Y2588750D01*
X2840000D01*
Y2590250D01*
X2844832D01*
X2845300Y2590951D01*
X2854250D01*
Y2588750D01*
X2861148D01*
X2861565Y2588144D01*
X2861037Y2587250D01*
X2859250D01*
Y2583500D01*
Y2579750D01*
X2862750D01*
Y2580310D01*
X2863500Y2581499D01*
X2864250Y2581499D01*
X2875500D01*
Y2591499D01*
X2868105D01*
X2865605Y2593999D01*
X2866226Y2595499D01*
X2875500D01*
Y2605499D01*
X2866146D01*
X2864750Y2605750D01*
Y2605895D01*
X2864750Y2607000D01*
Y2609250D01*
X2861000D01*
X2857250D01*
Y2606750D01*
X2856811Y2606750D01*
X2855750Y2607811D01*
Y2614250D01*
X2848250D01*
Y2614176D01*
X2846924Y2613334D01*
X2846750Y2613320D01*
X2845500Y2613568D01*
X2844134Y2613297D01*
X2842976Y2612523D01*
X2842203Y2611365D01*
X2841931Y2610000D01*
X2841952Y2609896D01*
X2841278Y2609222D01*
X2840565Y2607500D01*
Y2604165D01*
X2837500D01*
X2836111Y2603589D01*
X2835089Y2604610D01*
X2835665Y2606000D01*
Y2611000D01*
X2835435Y2611554D01*
Y2616250D01*
X2839250D01*
Y2624750D01*
X2839664D01*
X2840750Y2623250D01*
Y2621250D01*
X2844500D01*
X2848250D01*
Y2623749D01*
X2848250Y2624008D01*
X2848250Y2625250D01*
X2848250Y2626250D01*
Y2628749D01*
X2844500D01*
X2840750D01*
Y2627492D01*
X2839356Y2625992D01*
X2839250Y2625993D01*
Y2633749D01*
X2831750D01*
X2831750Y2633749D01*
X2830614Y2634629D01*
X2830472Y2634972D01*
X2828750Y2635685D01*
X2824250D01*
X2822528Y2634972D01*
X2821814Y2633250D01*
Y2625751D01*
X2820315Y2625129D01*
X2819185Y2626259D01*
Y2633250D01*
X2818472Y2634972D01*
X2818333Y2635573D01*
X2818261Y2636683D01*
X2818897Y2637634D01*
X2819168Y2639000D01*
X2818897Y2640366D01*
X2818123Y2641523D01*
X2816966Y2642297D01*
X2815600Y2642568D01*
X2814234Y2642297D01*
X2813076Y2641523D01*
X2812303Y2640366D01*
X2812031Y2639000D01*
X2812303Y2637634D01*
X2812603Y2637185D01*
X2812478Y2636653D01*
X2811951Y2635562D01*
X2810528Y2634972D01*
X2810085Y2633904D01*
X2809250Y2632750D01*
X2801750D01*
Y2624250D01*
X2809250D01*
X2810085Y2623096D01*
X2810182Y2622863D01*
X2809103Y2621548D01*
X2809000Y2621569D01*
X2807634Y2621297D01*
X2806476Y2620523D01*
X2805798Y2619508D01*
X2805000Y2619432D01*
X2804202Y2619508D01*
X2803523Y2620523D01*
X2802365Y2621297D01*
X2801000Y2621568D01*
X2799634Y2621297D01*
X2798477Y2620523D01*
X2797798Y2619508D01*
X2797000Y2619432D01*
X2796202Y2619508D01*
X2795523Y2620523D01*
X2794366Y2621297D01*
X2793000Y2621568D01*
X2791634Y2621297D01*
X2790477Y2620523D01*
X2789750Y2619436D01*
X2789638Y2619416D01*
X2788250Y2619953D01*
Y2620250D01*
X2779750D01*
Y2612750D01*
X2784306D01*
X2786335Y2610721D01*
Y2606000D01*
X2786911Y2604610D01*
X2785889Y2603589D01*
X2784500Y2604165D01*
X2779500D01*
X2779010Y2603961D01*
X2777750Y2604698D01*
Y2611250D01*
X2770559D01*
Y2612750D01*
X2772750D01*
Y2616500D01*
Y2620250D01*
X2770559D01*
Y2631188D01*
X2772059Y2631644D01*
X2772814Y2630514D01*
X2774964Y2629077D01*
X2777500Y2628572D01*
X2778591Y2628789D01*
X2779750Y2627838D01*
Y2621750D01*
X2788250D01*
Y2628294D01*
X2788523Y2628477D01*
X2789297Y2629634D01*
X2789568Y2631000D01*
X2789297Y2632365D01*
X2788523Y2633523D01*
X2787365Y2634297D01*
X2786000Y2634568D01*
X2785512Y2634471D01*
X2785113Y2634681D01*
X2784060Y2635569D01*
X2784049Y2635593D01*
X2783623Y2637736D01*
X2782186Y2639886D01*
X2780036Y2641323D01*
X2777500Y2641827D01*
X2774964Y2641323D01*
X2772814Y2639886D01*
X2772059Y2638756D01*
X2770559Y2639211D01*
Y2651489D01*
X2772059Y2651943D01*
X2772814Y2650814D01*
X2774964Y2649377D01*
X2777500Y2648872D01*
X2780036Y2649377D01*
X2782186Y2650814D01*
X2783623Y2652964D01*
X2784127Y2655500D01*
X2783623Y2658036D01*
X2782186Y2660186D01*
X2780036Y2661623D01*
X2777500Y2662127D01*
X2774964Y2661623D01*
X2772814Y2660186D01*
X2772059Y2659056D01*
X2770559Y2659511D01*
Y2697906D01*
X2772059Y2698528D01*
X2776398Y2694189D01*
X2776454Y2694133D01*
X2777458Y2693128D01*
X2777458Y2693128D01*
X2777459Y2693128D01*
X2777459D01*
X2783469Y2687118D01*
X2783469D01*
X2784798Y2686325D01*
X2784780Y2686234D01*
X2785003Y2685112D01*
X2785638Y2684161D01*
X2791472Y2678327D01*
X2792423Y2677692D01*
X2793545Y2677469D01*
X2794667Y2677692D01*
X2795618Y2678327D01*
X2797562Y2680272D01*
X2798198Y2681223D01*
X2798421Y2682345D01*
X2798251Y2683200D01*
X2798741Y2683866D01*
X2799407Y2684356D01*
X2800262Y2684186D01*
X2801384Y2684409D01*
X2802335Y2685045D01*
X2802777Y2685487D01*
X2797787Y2690476D01*
X2798848Y2691537D01*
X2803838Y2686548D01*
X2804280Y2686989D01*
X2804915Y2687940D01*
X2805138Y2689062D01*
X2804968Y2689918D01*
X2805458Y2690584D01*
X2806124Y2691074D01*
X2806980Y2690904D01*
X2808102Y2691127D01*
X2809053Y2691762D01*
X2810997Y2693707D01*
X2811633Y2694658D01*
X2811856Y2695780D01*
X2811633Y2696902D01*
X2810997Y2697852D01*
X2805164Y2703686D01*
X2804213Y2704321D01*
X2804204Y2704323D01*
X2802616Y2705911D01*
X2803975Y2707270D01*
X2803683Y2707562D01*
X2805451Y2709330D01*
X2805742Y2709038D01*
X2813542Y2716838D01*
X2814276Y2716348D01*
X2815642Y2716076D01*
X2817007Y2716348D01*
X2817745Y2716841D01*
X2820673D01*
X2821794Y2715720D01*
X2823420Y2715046D01*
X2823931Y2713661D01*
X2824100Y2712811D01*
X2824666Y2711964D01*
X2826390Y2710240D01*
X2835971Y2719821D01*
X2845553Y2729402D01*
X2843829Y2731126D01*
X2842982Y2731693D01*
X2842132Y2731862D01*
X2840746Y2732372D01*
X2840073Y2733999D01*
X2837067Y2737004D01*
X2835885Y2737494D01*
X2834335Y2739044D01*
X2834227Y2739089D01*
X2833721Y2739846D01*
X2833510Y2739987D01*
X2832966Y2741565D01*
X2832966Y2741565D01*
X2832966Y2741565D01*
X2827663Y2746868D01*
X2822360Y2741565D01*
X2822049Y2741875D01*
X2822049Y2743375D01*
X2826602Y2747928D01*
X2826602Y2747928D01*
X2826602D01*
X2827499Y2749153D01*
X2827711Y2749294D01*
X2828485Y2750452D01*
X2828756Y2751818D01*
X2828485Y2753184D01*
X2827711Y2754341D01*
X2826554Y2755115D01*
X2825188Y2755386D01*
X2823822Y2755115D01*
X2822664Y2754341D01*
X2821204Y2754603D01*
X2820962Y2754839D01*
X2821135Y2755707D01*
X2820824Y2757268D01*
X2819940Y2758591D01*
X2815167Y2763364D01*
X2810515Y2758712D01*
X2805864Y2754061D01*
X2809887Y2750038D01*
X2809393Y2748410D01*
X2809326Y2748397D01*
X2808169Y2747623D01*
X2807395Y2746465D01*
X2807133Y2745150D01*
X2806786Y2744934D01*
X2806038Y2744566D01*
X2805705Y2744541D01*
X2795191Y2755055D01*
X2793868Y2755939D01*
X2792307Y2756250D01*
X2790747Y2755939D01*
X2789424Y2755055D01*
X2785888Y2751520D01*
X2785004Y2750197D01*
X2784694Y2748636D01*
X2785004Y2747075D01*
X2785888Y2745752D01*
X2787947Y2743693D01*
X2785527Y2741273D01*
X2784532Y2739784D01*
X2784183Y2738028D01*
Y2736271D01*
X2781700Y2733788D01*
X2788064Y2727424D01*
X2791640Y2730999D01*
X2792015Y2731251D01*
X2792267Y2731626D01*
X2795842Y2735202D01*
X2797140Y2734714D01*
X2797818Y2734261D01*
X2799378Y2733951D01*
X2800939Y2734261D01*
X2802262Y2735145D01*
X2805798Y2738681D01*
X2806682Y2740004D01*
X2806738Y2740288D01*
X2808220Y2741274D01*
X2808924Y2740857D01*
X2808924Y2740857D01*
X2808924Y2740858D01*
X2814228Y2735554D01*
X2818551Y2739877D01*
X2818643Y2739969D01*
X2820692Y2740040D01*
X2820692D01*
X2820763Y2739969D01*
X2815288Y2734494D01*
X2820591Y2729190D01*
X2820591Y2729190D01*
X2820591Y2729190D01*
X2822169Y2728647D01*
X2822310Y2728435D01*
X2823036Y2727950D01*
X2823138Y2727033D01*
X2823129Y2726466D01*
X2823071Y2726260D01*
X2822324Y2725514D01*
X2822049Y2724849D01*
X2821427Y2723759D01*
X2820338Y2723137D01*
X2819673Y2722862D01*
X2819259Y2722449D01*
X2817745D01*
X2817007Y2722942D01*
X2815642Y2723213D01*
X2814276Y2722942D01*
X2813538Y2722449D01*
X2809302D01*
X2807156Y2724594D01*
X2806158Y2723596D01*
X2805097Y2724658D01*
X2805742Y2725302D01*
X2799378Y2731666D01*
X2795802Y2728091D01*
X2795426Y2727840D01*
X2795175Y2727464D01*
X2791599Y2723888D01*
X2797963Y2717524D01*
X2798608Y2718169D01*
X2799669Y2717108D01*
X2798671Y2716109D01*
X2798962Y2715818D01*
X2797195Y2714050D01*
X2796904Y2714341D01*
X2791561Y2708998D01*
X2787864D01*
X2787290Y2710384D01*
X2789303Y2712397D01*
X2785767Y2715932D01*
X2782232Y2719467D01*
X2778519Y2715755D01*
X2781951Y2712323D01*
X2782762Y2711159D01*
X2777458Y2705856D01*
X2777458Y2705856D01*
X2777458D01*
X2776398Y2704795D01*
X2772059Y2700456D01*
X2770559Y2701077D01*
Y2750429D01*
X2770580D01*
X2771057Y2754050D01*
X2772455Y2757424D01*
X2774621Y2760248D01*
X2774744Y2760256D01*
X2774744D01*
X2777961Y2764449D01*
X2779983Y2769331D01*
X2780673Y2774571D01*
X2780559D01*
Y2817498D01*
X2781553Y2817910D01*
X2784482Y2820838D01*
X2787133Y2823490D01*
X2784658Y2825965D01*
X2781944Y2823251D01*
X2780559Y2823825D01*
Y2875930D01*
X2780587Y2875957D01*
X2782059Y2876595D01*
X2782734Y2876143D01*
X2784099Y2875872D01*
X2785465Y2876143D01*
X2786623Y2876917D01*
X2787330Y2877975D01*
X2787439Y2877990D01*
X2788830Y2877109D01*
D02*
G37*
G36*
X2969810Y2738142D02*
X2972282Y2735130D01*
X2974832Y2730359D01*
X2976403Y2725183D01*
X2976933Y2719800D01*
X2976941D01*
Y2715087D01*
X2975441Y2714632D01*
X2974616Y2715866D01*
X2972384Y2717358D01*
X2969750Y2717882D01*
X2965250D01*
X2962616Y2717358D01*
X2962304Y2717149D01*
X2956446Y2723007D01*
X2955438Y2721998D01*
X2953859Y2722541D01*
X2953755Y2723380D01*
X2957589Y2727214D01*
X2957754Y2727182D01*
X2960388Y2727706D01*
X2962620Y2729197D01*
X2965802Y2732379D01*
X2967294Y2734612D01*
X2967818Y2737246D01*
X2967638Y2738151D01*
X2967785Y2738286D01*
X2969810Y2738142D01*
D02*
G37*
%LPC*%
G36*
X2882250Y2550000D02*
X2877000D01*
Y2545250D01*
X2882250D01*
Y2550000D01*
D02*
G37*
G36*
X2889000D02*
X2883750D01*
Y2545250D01*
X2889000D01*
Y2550000D01*
D02*
G37*
G36*
X2938750Y2554250D02*
X2935251D01*
Y2551250D01*
X2938750D01*
Y2554250D01*
D02*
G37*
G36*
X2869250Y2549750D02*
X2866250D01*
Y2546250D01*
X2869250D01*
Y2549750D01*
D02*
G37*
G36*
X2864750D02*
X2861750D01*
Y2546250D01*
X2864750D01*
Y2549750D01*
D02*
G37*
G36*
X2908750Y2546000D02*
X2901250D01*
Y2541250D01*
X2908750D01*
Y2546000D01*
D02*
G37*
G36*
X2882250Y2543750D02*
X2877000D01*
Y2539000D01*
X2882250D01*
Y2543750D01*
D02*
G37*
G36*
X2926750Y2539750D02*
X2919250D01*
Y2535000D01*
X2926750D01*
Y2539750D01*
D02*
G37*
G36*
X2917750D02*
X2910250D01*
Y2535000D01*
X2917750D01*
Y2539750D01*
D02*
G37*
G36*
X2889000Y2543750D02*
X2883750D01*
Y2539000D01*
X2889000D01*
Y2543750D01*
D02*
G37*
G36*
X2899750Y2546000D02*
X2892250D01*
Y2541250D01*
X2899750D01*
Y2546000D01*
D02*
G37*
G36*
X2926750D02*
X2919250D01*
Y2541250D01*
X2926750D01*
Y2546000D01*
D02*
G37*
G36*
X2917750D02*
X2910250D01*
Y2541250D01*
X2917750D01*
Y2546000D01*
D02*
G37*
G36*
X2909250Y2602250D02*
X2906250D01*
Y2598750D01*
X2909250D01*
Y2602250D01*
D02*
G37*
G36*
X2904750D02*
X2901750D01*
Y2598750D01*
X2904750D01*
Y2602250D01*
D02*
G37*
G36*
Y2597250D02*
X2901750D01*
Y2593750D01*
X2904750D01*
Y2597250D01*
D02*
G37*
G36*
X2928750Y2611750D02*
X2925750D01*
Y2608250D01*
X2928750D01*
Y2611750D01*
D02*
G37*
G36*
X2777750Y2615750D02*
X2774250D01*
Y2612750D01*
X2777750D01*
Y2615750D01*
D02*
G37*
G36*
X2864750Y2614250D02*
X2861750D01*
Y2610750D01*
X2864750D01*
Y2614250D01*
D02*
G37*
G36*
X2860250D02*
X2857250D01*
Y2610750D01*
X2860250D01*
Y2614250D01*
D02*
G37*
G36*
X2901250Y2589904D02*
X2900927Y2589840D01*
X2900017Y2589232D01*
X2899409Y2588323D01*
X2899196Y2587250D01*
Y2585250D01*
X2901250D01*
Y2589904D01*
D02*
G37*
G36*
X2938750Y2558750D02*
X2935251D01*
Y2555750D01*
X2938750D01*
Y2558750D01*
D02*
G37*
G36*
X2858363Y2559303D02*
X2856242Y2557182D01*
X2858717Y2554707D01*
X2860838Y2556828D01*
X2858363Y2559303D01*
D02*
G37*
G36*
X2855182Y2556121D02*
X2853060Y2554000D01*
X2855535Y2551525D01*
X2857656Y2553646D01*
X2855182Y2556121D01*
D02*
G37*
G36*
X2896250Y2577304D02*
X2894250D01*
X2893177Y2577090D01*
X2892267Y2576483D01*
X2891660Y2575573D01*
X2891595Y2575250D01*
X2896250D01*
Y2577304D01*
D02*
G37*
G36*
X2857750Y2587250D02*
X2854250D01*
Y2584250D01*
X2857750D01*
Y2587250D01*
D02*
G37*
G36*
Y2582750D02*
X2854250D01*
Y2579750D01*
X2857750D01*
Y2582750D01*
D02*
G37*
G36*
X2901250Y2583750D02*
X2899196D01*
Y2581750D01*
X2899409Y2580677D01*
X2900017Y2579767D01*
X2900927Y2579160D01*
X2901250Y2579095D01*
Y2583750D01*
D02*
G37*
G36*
X2908750Y2539750D02*
X2901250D01*
Y2535000D01*
X2908750D01*
Y2539750D01*
D02*
G37*
G36*
X2848750Y2505750D02*
X2844000D01*
Y2498250D01*
X2848750D01*
Y2505750D01*
D02*
G37*
G36*
X2901250Y2501904D02*
X2900927Y2501840D01*
X2900017Y2501232D01*
X2899409Y2500323D01*
X2899196Y2499250D01*
Y2497250D01*
X2901250D01*
Y2501904D01*
D02*
G37*
G36*
Y2495750D02*
X2899196D01*
Y2493750D01*
X2899409Y2492677D01*
X2900017Y2491767D01*
X2900927Y2491159D01*
X2901250Y2491095D01*
Y2495750D01*
D02*
G37*
G36*
X2855000Y2505750D02*
X2850250D01*
Y2498250D01*
X2855000D01*
Y2505750D01*
D02*
G37*
G36*
Y2514750D02*
X2850250D01*
Y2507250D01*
X2855000D01*
Y2514750D01*
D02*
G37*
G36*
X2848750D02*
X2844000D01*
Y2507250D01*
X2848750D01*
Y2514750D01*
D02*
G37*
G36*
X2904750Y2509250D02*
X2901750D01*
Y2505750D01*
X2904750D01*
Y2509250D01*
D02*
G37*
G36*
X2848750Y2487750D02*
X2844000D01*
Y2480250D01*
X2848750D01*
Y2487750D01*
D02*
G37*
G36*
X2938750Y2470750D02*
X2935250D01*
Y2467750D01*
X2938750D01*
Y2470750D01*
D02*
G37*
G36*
Y2466250D02*
X2935250D01*
Y2463250D01*
X2938750D01*
Y2466250D01*
D02*
G37*
G36*
X2855000Y2487750D02*
X2850250D01*
Y2480250D01*
X2855000D01*
Y2487750D01*
D02*
G37*
G36*
Y2496750D02*
X2850250D01*
Y2489250D01*
X2855000D01*
Y2496750D01*
D02*
G37*
G36*
X2848750D02*
X2844000D01*
Y2489250D01*
X2848750D01*
Y2496750D01*
D02*
G37*
G36*
X2896250Y2489304D02*
X2894250D01*
X2893177Y2489090D01*
X2892267Y2488483D01*
X2891660Y2487573D01*
X2891595Y2487250D01*
X2896250D01*
Y2489304D01*
D02*
G37*
G36*
X2831501Y2530439D02*
X2829026Y2527965D01*
X2831148Y2525843D01*
X2833622Y2528318D01*
X2831501Y2530439D01*
D02*
G37*
G36*
X2796750Y2528250D02*
X2793250D01*
Y2525250D01*
X2796750D01*
Y2528250D01*
D02*
G37*
G36*
X2834683Y2527258D02*
X2832208Y2524783D01*
X2834330Y2522661D01*
X2836805Y2525136D01*
X2834683Y2527258D01*
D02*
G37*
G36*
X2838219Y2530793D02*
X2835744Y2528318D01*
X2837865Y2526197D01*
X2840340Y2528672D01*
X2838219Y2530793D01*
D02*
G37*
G36*
X2899750Y2539750D02*
X2892250D01*
Y2535000D01*
X2899750D01*
Y2539750D01*
D02*
G37*
G36*
X2793250Y2532750D02*
Y2529750D01*
X2796750D01*
Y2532750D01*
X2793250D01*
D02*
G37*
G36*
X2835037Y2533975D02*
X2832562Y2531500D01*
X2834683Y2529379D01*
X2837158Y2531854D01*
X2835037Y2533975D01*
D02*
G37*
G36*
X2887000Y2534078D02*
X2879000D01*
X2877439Y2533768D01*
X2876116Y2532884D01*
X2875232Y2531561D01*
X2874922Y2530000D01*
X2875232Y2528439D01*
X2876116Y2527116D01*
X2877000Y2526525D01*
Y2516000D01*
X2877647D01*
Y2514500D01*
X2877000D01*
Y2503500D01*
X2889000D01*
Y2514500D01*
X2888353D01*
Y2516000D01*
X2889000D01*
Y2516147D01*
X2892250D01*
Y2516000D01*
X2908750D01*
Y2516147D01*
X2910250D01*
Y2516000D01*
X2926750D01*
Y2527000D01*
X2910250D01*
Y2526853D01*
X2908750D01*
Y2527000D01*
X2892250D01*
X2891686Y2527338D01*
X2890768Y2528439D01*
X2891078Y2530000D01*
X2890768Y2531561D01*
X2889884Y2532884D01*
X2888560Y2533768D01*
X2887000Y2534078D01*
D02*
G37*
G36*
X2909250Y2514250D02*
X2906250D01*
Y2510750D01*
X2909250D01*
Y2514250D01*
D02*
G37*
G36*
X2904750D02*
X2901750D01*
Y2510750D01*
X2904750D01*
Y2514250D01*
D02*
G37*
G36*
X2826524Y2520372D02*
X2825024Y2517774D01*
X2828055Y2516024D01*
X2829555Y2518622D01*
X2826524Y2520372D01*
D02*
G37*
G36*
X2824444Y2526770D02*
X2822944Y2524171D01*
X2825975Y2522422D01*
X2827475Y2525020D01*
X2824444Y2526770D01*
D02*
G37*
G36*
X2828774Y2524270D02*
X2827274Y2521671D01*
X2830305Y2519922D01*
X2831805Y2522520D01*
X2828774Y2524270D01*
D02*
G37*
G36*
X2845750Y2520750D02*
X2842250D01*
Y2517750D01*
X2845750D01*
Y2520750D01*
D02*
G37*
G36*
X2843750Y2619750D02*
X2840750D01*
Y2616250D01*
X2843750D01*
Y2619750D01*
D02*
G37*
G36*
X2914059Y2738284D02*
X2911584Y2735809D01*
X2913706Y2733687D01*
X2916180Y2736162D01*
X2914059Y2738284D01*
D02*
G37*
G36*
X2917241Y2735102D02*
X2914766Y2732627D01*
X2916888Y2730506D01*
X2919362Y2732980D01*
X2917241Y2735102D01*
D02*
G37*
G36*
X2865511Y2733799D02*
X2865327Y2733525D01*
X2865114Y2732452D01*
X2865327Y2731379D01*
X2865935Y2730469D01*
X2867350Y2729055D01*
X2868802Y2730508D01*
X2865511Y2733799D01*
D02*
G37*
G36*
X2862794Y2741466D02*
X2860672Y2739344D01*
X2863147Y2736870D01*
X2865268Y2738991D01*
X2862794Y2741466D01*
D02*
G37*
G36*
X2801268Y2766899D02*
X2800030Y2765662D01*
X2799146Y2764339D01*
X2798836Y2762778D01*
X2799146Y2761217D01*
X2800030Y2759894D01*
X2804803Y2755121D01*
X2808925Y2759242D01*
X2801268Y2766899D01*
D02*
G37*
G36*
X2862440Y2748183D02*
X2860319Y2746062D01*
X2862794Y2743587D01*
X2864915Y2745708D01*
X2862440Y2748183D01*
D02*
G37*
G36*
X2859258Y2745001D02*
X2857137Y2742880D01*
X2859612Y2740405D01*
X2861733Y2742526D01*
X2859258Y2745001D01*
D02*
G37*
G36*
X2817056Y2714695D02*
X2813344Y2710983D01*
X2816349Y2707977D01*
X2820061Y2711690D01*
X2817056Y2714695D01*
D02*
G37*
G36*
X2869736Y2711867D02*
X2867261Y2709392D01*
X2869382Y2707271D01*
X2871857Y2709745D01*
X2869736Y2711867D01*
D02*
G37*
G36*
X2821122Y2710629D02*
X2816879Y2706386D01*
X2812636Y2702144D01*
X2814282Y2700499D01*
X2815289Y2699492D01*
X2815289D01*
X2815641Y2699139D01*
X2815676Y2699104D01*
X2815676Y2699104D01*
X2816052Y2698728D01*
X2816538Y2698242D01*
X2816653Y2698127D01*
X2816702Y2698078D01*
X2816702Y2698078D01*
X2816702Y2698078D01*
X2816702D01*
X2819355Y2695426D01*
X2823597Y2699669D01*
X2827840Y2703911D01*
X2826195Y2705556D01*
X2825188Y2706563D01*
X2825117Y2706634D01*
X2824835Y2706916D01*
X2824800Y2706951D01*
X2824800Y2706951D01*
X2824424Y2707327D01*
X2823938Y2707813D01*
X2823823Y2707928D01*
X2823774Y2707977D01*
X2823774Y2707977D01*
X2823774Y2707977D01*
X2823774D01*
X2821122Y2710629D01*
D02*
G37*
G36*
X2791071Y2720175D02*
X2787358Y2716462D01*
X2790363Y2713457D01*
X2794076Y2717169D01*
X2791071Y2720175D01*
D02*
G37*
G36*
X2869863Y2729447D02*
X2868410Y2727994D01*
X2869825Y2726580D01*
X2870734Y2725972D01*
X2871807Y2725759D01*
X2872880Y2725972D01*
X2873154Y2726155D01*
X2869863Y2729447D01*
D02*
G37*
G36*
X2787005Y2724240D02*
X2783292Y2720528D01*
X2786298Y2717523D01*
X2790010Y2721235D01*
X2787005Y2724240D01*
D02*
G37*
G36*
X2870885Y2721353D02*
X2869471Y2719939D01*
X2868863Y2719029D01*
X2868650Y2717956D01*
X2868863Y2716883D01*
X2869046Y2716609D01*
X2872338Y2719901D01*
X2870885Y2721353D01*
D02*
G37*
G36*
X2831843Y2760348D02*
X2830428Y2758934D01*
X2829821Y2758024D01*
X2829607Y2756951D01*
X2829821Y2755878D01*
X2830004Y2755604D01*
X2833295Y2758896D01*
X2831843Y2760348D01*
D02*
G37*
G36*
X2792081Y2807228D02*
X2790628Y2805776D01*
X2792043Y2804362D01*
X2792952Y2803754D01*
X2794025Y2803541D01*
X2795098Y2803754D01*
X2795372Y2803937D01*
X2792081Y2807228D01*
D02*
G37*
G36*
X2793104Y2799135D02*
X2791689Y2797721D01*
X2791082Y2796811D01*
X2790868Y2795738D01*
X2791082Y2794665D01*
X2791264Y2794391D01*
X2794556Y2797682D01*
X2793104Y2799135D01*
D02*
G37*
G36*
X2823398Y2787178D02*
X2821276Y2785057D01*
X2823751Y2782582D01*
X2825872Y2784703D01*
X2823398Y2787178D01*
D02*
G37*
G36*
X2787729Y2811581D02*
X2787546Y2811306D01*
X2787332Y2810233D01*
X2787546Y2809160D01*
X2788154Y2808251D01*
X2789568Y2806837D01*
X2791020Y2808289D01*
X2787729Y2811581D01*
D02*
G37*
G36*
X2785012Y2819247D02*
X2782891Y2817126D01*
X2785365Y2814651D01*
X2787487Y2816772D01*
X2785012Y2819247D01*
D02*
G37*
G36*
X2836277Y2816065D02*
X2833802Y2813591D01*
X2835924Y2811469D01*
X2838399Y2813944D01*
X2836277Y2816065D01*
D02*
G37*
G36*
X2839459Y2812883D02*
X2836984Y2810409D01*
X2839106Y2808287D01*
X2841581Y2810762D01*
X2839459Y2812883D01*
D02*
G37*
G36*
X2826468Y2772793D02*
X2826285Y2772520D01*
X2826072Y2771447D01*
X2826285Y2770374D01*
X2826893Y2769464D01*
X2828307Y2768050D01*
X2829760Y2769502D01*
X2826468Y2772793D01*
D02*
G37*
G36*
X2830820Y2768441D02*
X2829368Y2766989D01*
X2830782Y2765575D01*
X2831692Y2764967D01*
X2832765Y2764754D01*
X2833838Y2764967D01*
X2834111Y2765150D01*
X2830820Y2768441D01*
D02*
G37*
G36*
X2806450Y2770392D02*
X2804889Y2770081D01*
X2803566Y2769197D01*
X2802328Y2767960D01*
X2809985Y2760303D01*
X2814106Y2764424D01*
X2809333Y2769197D01*
X2808010Y2770081D01*
X2806450Y2770392D01*
D02*
G37*
G36*
X2878199Y2774097D02*
X2875724Y2771622D01*
X2877845Y2769500D01*
X2880320Y2771975D01*
X2878199Y2774097D01*
D02*
G37*
G36*
X2820215Y2783996D02*
X2818094Y2781875D01*
X2820569Y2779400D01*
X2822690Y2781521D01*
X2820215Y2783996D01*
D02*
G37*
G36*
X2823751Y2780461D02*
X2821630Y2778339D01*
X2824105Y2775864D01*
X2826226Y2777986D01*
X2823751Y2780461D01*
D02*
G37*
G36*
X2875016Y2777279D02*
X2872542Y2774804D01*
X2874663Y2772682D01*
X2877138Y2775157D01*
X2875016Y2777279D01*
D02*
G37*
G36*
X2846613Y2728342D02*
X2837032Y2718760D01*
X2827451Y2709179D01*
X2829174Y2707456D01*
X2830022Y2706889D01*
X2830871Y2706720D01*
X2832257Y2706209D01*
X2832931Y2704583D01*
X2834052Y2703463D01*
Y2699827D01*
X2833558Y2699089D01*
X2833287Y2697723D01*
X2833558Y2696358D01*
X2833765Y2696048D01*
X2826249Y2688531D01*
X2833320Y2681461D01*
X2841805Y2689946D01*
X2841480Y2690271D01*
X2841784Y2692089D01*
X2842207Y2692372D01*
X2842981Y2693529D01*
X2843252Y2694895D01*
X2842981Y2696261D01*
X2842207Y2697419D01*
X2840055Y2699571D01*
X2840172Y2700417D01*
X2841760Y2700950D01*
X2846047Y2696663D01*
X2852058Y2702674D01*
X2848140Y2706592D01*
X2848069Y2707888D01*
X2848631Y2708222D01*
X2853119Y2703734D01*
X2854890Y2705505D01*
X2856325Y2705070D01*
X2856366Y2704861D01*
X2854179Y2702674D01*
X2859482Y2697371D01*
X2865493Y2703381D01*
Y2703381D01*
X2865847Y2703735D01*
X2868322Y2706210D01*
X2865670Y2708861D01*
X2866200Y2709392D01*
X2865670Y2709922D01*
X2868675Y2712927D01*
X2866554Y2715049D01*
X2864782Y2713277D01*
X2863347Y2713712D01*
X2863305Y2713921D01*
X2865493Y2716109D01*
X2860190Y2721412D01*
X2856968Y2718191D01*
X2855188D01*
X2854704Y2718674D01*
X2854215Y2719857D01*
X2851209Y2722862D01*
X2849583Y2723535D01*
X2849072Y2724921D01*
X2848903Y2725771D01*
X2848337Y2726618D01*
X2846613Y2728342D01*
D02*
G37*
G36*
X2802900Y2642568D02*
X2801534Y2642297D01*
X2800377Y2641523D01*
X2799603Y2640366D01*
X2799331Y2639000D01*
X2799603Y2637634D01*
X2800377Y2636476D01*
X2801534Y2635703D01*
X2802900Y2635431D01*
X2804265Y2635703D01*
X2805423Y2636476D01*
X2806197Y2637634D01*
X2806469Y2639000D01*
X2806197Y2640366D01*
X2805423Y2641523D01*
X2804265Y2642297D01*
X2802900Y2642568D01*
D02*
G37*
G36*
X2848250Y2633749D02*
X2845250D01*
Y2630249D01*
X2848250D01*
Y2633749D01*
D02*
G37*
G36*
X2843750D02*
X2840750D01*
Y2630249D01*
X2843750D01*
Y2633749D01*
D02*
G37*
G36*
X2824481Y2657420D02*
X2821476Y2654414D01*
X2824121Y2651769D01*
X2823974Y2650277D01*
X2823614Y2650036D01*
X2822177Y2647886D01*
X2821673Y2645350D01*
X2822177Y2642814D01*
X2823614Y2640663D01*
X2825764Y2639227D01*
X2828300Y2638723D01*
X2830836Y2639227D01*
X2832986Y2640663D01*
X2834423Y2642814D01*
X2834927Y2645350D01*
X2834423Y2647886D01*
X2832986Y2650036D01*
X2830836Y2651473D01*
X2828538Y2651930D01*
X2827771Y2653285D01*
X2828194Y2653707D01*
X2824481Y2657420D01*
D02*
G37*
G36*
X2869944Y2657847D02*
X2867161Y2655065D01*
X2869282Y2652943D01*
X2871004Y2652230D01*
X2872726Y2652943D01*
X2873787Y2654004D01*
X2869944Y2657847D01*
D02*
G37*
G36*
X2815600Y2655268D02*
X2814234Y2654997D01*
X2813076Y2654223D01*
X2812303Y2653065D01*
X2812031Y2651700D01*
X2812303Y2650334D01*
X2813076Y2649177D01*
X2814234Y2648403D01*
X2815600Y2648131D01*
X2816966Y2648403D01*
X2818123Y2649177D01*
X2818897Y2650334D01*
X2819168Y2651700D01*
X2818897Y2653065D01*
X2818123Y2654223D01*
X2816966Y2654997D01*
X2815600Y2655268D01*
D02*
G37*
G36*
X2802900D02*
X2801534Y2654997D01*
X2800377Y2654223D01*
X2799603Y2653065D01*
X2799331Y2651700D01*
X2799603Y2650334D01*
X2800377Y2649177D01*
X2801534Y2648403D01*
X2802900Y2648131D01*
X2804265Y2648403D01*
X2805423Y2649177D01*
X2806197Y2650334D01*
X2806469Y2651700D01*
X2806197Y2653065D01*
X2805423Y2654223D01*
X2804265Y2654997D01*
X2802900Y2655268D01*
D02*
G37*
G36*
X2795750Y2627750D02*
X2792750D01*
Y2624250D01*
X2795750D01*
Y2627750D01*
D02*
G37*
G36*
X2777750Y2620250D02*
X2774250D01*
Y2617250D01*
X2777750D01*
Y2620250D01*
D02*
G37*
G36*
X2848250Y2619750D02*
X2845250D01*
Y2616250D01*
X2848250D01*
Y2619750D01*
D02*
G37*
G36*
X2800250Y2627750D02*
X2797250D01*
Y2624250D01*
X2800250D01*
Y2627750D01*
D02*
G37*
G36*
X2888000Y2642068D02*
X2886634Y2641797D01*
X2885476Y2641023D01*
X2884703Y2639865D01*
X2884431Y2638500D01*
X2884703Y2637134D01*
X2885476Y2635976D01*
X2885519Y2635948D01*
X2885075Y2634875D01*
Y2631125D01*
X2884315Y2629807D01*
X2882854Y2629471D01*
X2882366Y2629797D01*
X2881000Y2630068D01*
X2879634Y2629797D01*
X2878477Y2629023D01*
X2877703Y2627866D01*
X2877431Y2626500D01*
X2877703Y2625134D01*
X2878477Y2623976D01*
X2879634Y2623203D01*
X2881000Y2622931D01*
X2881038Y2622939D01*
X2881399Y2622711D01*
X2881807Y2622250D01*
X2886500D01*
Y2620750D01*
X2882376D01*
X2882600Y2620210D01*
X2882931Y2619000D01*
X2882600Y2617790D01*
X2882376Y2617250D01*
X2886500D01*
Y2615750D01*
X2882376D01*
X2882998Y2614248D01*
X2884362Y2613683D01*
X2884625Y2613575D01*
X2885157Y2612075D01*
X2885075Y2611875D01*
Y2608125D01*
X2885565Y2606943D01*
Y2604907D01*
X2885203Y2604366D01*
X2884931Y2603000D01*
X2885203Y2601634D01*
X2885977Y2600476D01*
X2887134Y2599703D01*
X2888500Y2599431D01*
X2889865Y2599703D01*
X2891023Y2600476D01*
X2891797Y2601634D01*
X2892068Y2603000D01*
X2891797Y2604366D01*
X2891727Y2604469D01*
X2892057Y2605159D01*
X2892626Y2605825D01*
X2893625D01*
X2894290Y2606100D01*
X2895500Y2606431D01*
X2896710Y2606100D01*
X2897375Y2605825D01*
X2898625D01*
X2900251Y2606498D01*
X2901710Y2606100D01*
X2902375Y2605825D01*
X2903625D01*
X2905251Y2606498D01*
X2905925Y2608125D01*
Y2610457D01*
X2907425Y2610803D01*
X2907977Y2609977D01*
X2909135Y2609203D01*
X2910500Y2608932D01*
X2910750Y2608981D01*
X2912250Y2608250D01*
Y2608250D01*
X2912250Y2608250D01*
X2919750D01*
Y2608250D01*
X2921250D01*
Y2608250D01*
X2924250D01*
Y2612500D01*
X2925000D01*
Y2613250D01*
X2928750D01*
Y2616750D01*
X2928750Y2616750D01*
X2928750D01*
X2928750Y2617187D01*
X2928750Y2617249D01*
X2928750Y2617654D01*
X2928750Y2618250D01*
X2928750Y2619750D01*
Y2625750D01*
X2928750D01*
Y2626250D01*
X2928750D01*
Y2634749D01*
X2921250D01*
Y2626250D01*
X2921250D01*
X2919750D01*
X2919750D01*
Y2634749D01*
X2912250D01*
X2912250Y2634749D01*
Y2634749D01*
X2910750Y2634018D01*
X2910500Y2634068D01*
X2909135Y2633796D01*
X2907977Y2633023D01*
X2907425Y2632197D01*
X2905925Y2632542D01*
Y2634875D01*
X2905251Y2636501D01*
X2903750Y2637123D01*
Y2633000D01*
X2902250D01*
Y2637123D01*
X2901710Y2636899D01*
X2900251Y2636501D01*
X2898750Y2637123D01*
Y2633000D01*
X2897250D01*
Y2637123D01*
X2896710Y2636899D01*
X2895500Y2636569D01*
X2894290Y2636899D01*
X2893750Y2637123D01*
Y2633000D01*
X2892250D01*
Y2637693D01*
X2891789Y2638101D01*
X2891561Y2638461D01*
X2891569Y2638500D01*
X2891297Y2639865D01*
X2890523Y2641023D01*
X2889366Y2641797D01*
X2888000Y2642068D01*
D02*
G37*
G36*
X2800250Y2632750D02*
X2797250D01*
Y2629250D01*
X2800250D01*
Y2632750D01*
D02*
G37*
G36*
X2795750D02*
X2792750D01*
Y2629250D01*
X2795750D01*
Y2632750D01*
D02*
G37*
G36*
X2828547Y2661485D02*
X2825542Y2658480D01*
X2829254Y2654768D01*
X2832259Y2657773D01*
X2828547Y2661485D01*
D02*
G37*
G36*
X2824128Y2698077D02*
X2820415Y2694365D01*
X2823421Y2691360D01*
X2827133Y2695072D01*
X2824128Y2698077D01*
D02*
G37*
G36*
X2936000Y2696001D02*
X2926000D01*
Y2684001D01*
X2926000Y2684001D01*
X2925552Y2682686D01*
X2922862D01*
X2922728Y2682820D01*
X2922000Y2684001D01*
X2922000D01*
X2922000Y2684001D01*
Y2696001D01*
X2912000D01*
Y2684001D01*
X2913432D01*
Y2683501D01*
X2913703Y2682136D01*
X2914477Y2680978D01*
X2919315Y2676140D01*
Y2672751D01*
X2920029Y2671029D01*
X2921751Y2670315D01*
X2923210D01*
X2923600Y2669658D01*
X2923838Y2668815D01*
X2923204Y2667866D01*
X2922932Y2666501D01*
X2923204Y2665135D01*
X2923977Y2663977D01*
X2925135Y2663204D01*
X2925326Y2663166D01*
X2925815Y2662251D01*
Y2654751D01*
X2926529Y2653029D01*
X2925708Y2651889D01*
X2925698Y2651879D01*
X2925569Y2651750D01*
X2924405Y2651750D01*
X2922155D01*
X2921565Y2653250D01*
X2922186Y2654751D01*
Y2662251D01*
X2921473Y2663973D01*
X2919751Y2664686D01*
X2915251D01*
X2913529Y2663973D01*
X2912815Y2662251D01*
Y2654751D01*
X2913529Y2653029D01*
X2914066Y2652806D01*
Y2650082D01*
X2913978Y2650024D01*
X2913204Y2648866D01*
X2912932Y2647500D01*
X2913204Y2646135D01*
X2913978Y2644977D01*
X2915135Y2644203D01*
X2916501Y2643932D01*
X2916751Y2643982D01*
X2918251Y2643250D01*
Y2643250D01*
X2918251Y2643250D01*
X2925751D01*
Y2650327D01*
X2925751Y2651391D01*
X2927251Y2650208D01*
Y2643250D01*
X2934751D01*
Y2651750D01*
X2934751Y2651750D01*
X2934565Y2653250D01*
X2935186Y2654751D01*
Y2662251D01*
X2934473Y2663973D01*
X2934069Y2664140D01*
Y2666501D01*
X2933798Y2667866D01*
X2933024Y2669024D01*
X2931866Y2669798D01*
X2930501Y2670069D01*
X2928973D01*
X2928197Y2671569D01*
X2928686Y2672751D01*
Y2674202D01*
X2930186Y2675004D01*
X2930635Y2674704D01*
X2932001Y2674432D01*
X2933366Y2674704D01*
X2934524Y2675477D01*
X2935298Y2676635D01*
X2935569Y2678001D01*
Y2682001D01*
Y2684001D01*
X2936000D01*
Y2696001D01*
D02*
G37*
G36*
X2850498Y2686485D02*
X2848376Y2684364D01*
X2850851Y2681889D01*
X2852973Y2684011D01*
X2850498Y2686485D01*
D02*
G37*
G36*
X2849583Y2698078D02*
X2847108Y2695603D01*
X2849229Y2693481D01*
X2851704Y2695956D01*
X2849583Y2698078D01*
D02*
G37*
G36*
X2812283Y2709922D02*
X2808571Y2706210D01*
X2811576Y2703204D01*
X2815288Y2706917D01*
X2812283Y2709922D01*
D02*
G37*
G36*
X2853118Y2701613D02*
X2850644Y2699138D01*
X2852765Y2697017D01*
X2855240Y2699492D01*
X2853118Y2701613D01*
D02*
G37*
G36*
X2828900Y2702851D02*
X2825188Y2699138D01*
X2828194Y2696133D01*
X2831906Y2699845D01*
X2828900Y2702851D01*
D02*
G37*
G36*
X2866761Y2670222D02*
X2864109Y2667570D01*
X2861458Y2664919D01*
X2862211Y2664166D01*
X2863272Y2663105D01*
X2863272D01*
X2863855Y2661955D01*
X2863708Y2661037D01*
X2863265Y2659969D01*
X2863979Y2658246D01*
X2866100Y2656125D01*
X2869413Y2659438D01*
X2872726Y2662751D01*
X2870605Y2664873D01*
X2869105Y2665494D01*
X2868461Y2666972D01*
Y2666972D01*
X2869236Y2667747D01*
X2866761Y2670222D01*
D02*
G37*
G36*
X2809455Y2671311D02*
X2808333Y2671087D01*
X2807382Y2670452D01*
X2805438Y2668507D01*
X2804802Y2667556D01*
X2804579Y2666435D01*
X2804802Y2665313D01*
X2805438Y2664362D01*
X2811271Y2658528D01*
X2812222Y2657893D01*
X2813344Y2657670D01*
X2814466Y2657893D01*
X2815417Y2658528D01*
X2815459Y2658570D01*
X2816703Y2659187D01*
X2817450Y2658440D01*
X2818511Y2657379D01*
X2820415Y2655475D01*
X2823421Y2658480D01*
X2819708Y2662193D01*
X2819672Y2662156D01*
X2818911Y2662360D01*
X2818174Y2662779D01*
X2817997Y2663667D01*
X2817361Y2664619D01*
X2811528Y2670452D01*
X2810576Y2671087D01*
X2809455Y2671311D01*
D02*
G37*
G36*
X2873787Y2661691D02*
X2871004Y2658908D01*
X2874848Y2655065D01*
X2875908Y2656125D01*
X2876622Y2657847D01*
X2875908Y2659569D01*
X2873787Y2661691D01*
D02*
G37*
G36*
X2822890Y2684745D02*
X2821768Y2684522D01*
X2820817Y2683887D01*
X2818873Y2681942D01*
X2818237Y2680992D01*
X2818014Y2679870D01*
X2818237Y2678748D01*
X2818873Y2677797D01*
Y2677010D01*
X2817715Y2675852D01*
X2817715Y2675852D01*
X2816941Y2674695D01*
X2816670Y2673329D01*
Y2673329D01*
X2816941Y2671964D01*
X2817715Y2670806D01*
X2820543Y2667977D01*
X2821701Y2667204D01*
X2822186Y2667107D01*
X2822879Y2665906D01*
X2822970Y2665454D01*
X2822961Y2665445D01*
X2822961D01*
X2820769Y2663253D01*
X2824481Y2659541D01*
X2827486Y2662546D01*
X2824525Y2665507D01*
Y2665507D01*
X2824417Y2665615D01*
X2824390Y2666148D01*
X2824828Y2667469D01*
X2825590Y2667977D01*
X2825590Y2667978D01*
X2827521Y2668168D01*
X2835088Y2660602D01*
X2842159Y2667673D01*
X2833674Y2676158D01*
Y2676158D01*
X2833674Y2676158D01*
X2833674Y2676158D01*
X2833673D01*
X2832225Y2676302D01*
X2831433Y2677094D01*
X2831432Y2677102D01*
X2830796Y2678053D01*
X2824962Y2683887D01*
X2824012Y2684522D01*
X2822890Y2684745D01*
D02*
G37*
G36*
X2856300Y2698431D02*
X2853295Y2695426D01*
X2850290Y2692421D01*
X2852301Y2690410D01*
X2852411Y2690299D01*
X2853095Y2689083D01*
X2851559Y2687546D01*
X2856542Y2682562D01*
X2856529Y2681730D01*
X2855934Y2681136D01*
X2855801Y2681182D01*
X2855800Y2681183D01*
X2855625Y2681359D01*
X2855624Y2681359D01*
X2854741Y2682243D01*
X2854034Y2682950D01*
X2851382Y2680298D01*
X2848730Y2677646D01*
X2849437Y2676939D01*
X2850498Y2675879D01*
X2850498D01*
X2851205Y2675172D01*
X2851247Y2675130D01*
X2851382Y2674995D01*
X2851517Y2674860D01*
X2851559Y2674818D01*
X2852108Y2674269D01*
X2852266Y2674111D01*
X2853326Y2673051D01*
X2854034Y2672343D01*
X2856685Y2674995D01*
X2857746Y2673934D01*
X2855094Y2671283D01*
X2855801Y2670576D01*
X2856862Y2669515D01*
X2856862D01*
X2857569Y2668808D01*
X2857611Y2668766D01*
X2857746Y2668631D01*
X2857881Y2668496D01*
X2857922Y2668454D01*
X2858472Y2667905D01*
X2858629Y2667747D01*
X2859690Y2666686D01*
X2860397Y2665979D01*
X2863049Y2668631D01*
X2865701Y2671283D01*
X2864994Y2671990D01*
X2864110Y2672874D01*
X2864109Y2672874D01*
X2863934Y2673049D01*
X2863933Y2673051D01*
X2864243Y2673361D01*
X2865743D01*
X2870297Y2668808D01*
X2871072Y2669583D01*
X2871072D01*
X2872550Y2668939D01*
X2873171Y2667439D01*
X2878474Y2662136D01*
X2880197Y2661422D01*
X2881919Y2662136D01*
X2885101Y2665318D01*
X2885814Y2667040D01*
X2885498Y2667803D01*
D01*
X2885420Y2667992D01*
X2885426Y2667996D01*
X2885466Y2668023D01*
X2885513Y2668055D01*
X2886631Y2668802D01*
X2886676Y2668831D01*
X2886689Y2668841D01*
X2886691Y2668842D01*
X2886871Y2668662D01*
D01*
X2891682Y2663851D01*
X2893056Y2663282D01*
X2893985Y2662090D01*
X2893985Y2662090D01*
X2893985Y2662090D01*
X2895268Y2660807D01*
X2889566Y2655104D01*
X2887929Y2656741D01*
X2886207Y2657454D01*
X2884485Y2656741D01*
X2881303Y2653559D01*
X2880590Y2651837D01*
X2881303Y2650115D01*
X2886606Y2644811D01*
X2888328Y2644098D01*
X2890050Y2644811D01*
X2893232Y2647993D01*
X2893946Y2649716D01*
X2893232Y2651438D01*
X2893010Y2651660D01*
X2898712Y2657363D01*
X2899995Y2656080D01*
X2905299Y2661383D01*
X2900123Y2666559D01*
X2900287Y2667145D01*
X2900516Y2667258D01*
X2901555Y2667248D01*
X2906359Y2662444D01*
X2911662Y2667747D01*
X2911663Y2667747D01*
X2911663Y2667747D01*
X2912206Y2669325D01*
X2912418Y2669466D01*
X2913192Y2670624D01*
X2913463Y2671989D01*
X2913192Y2673355D01*
X2912418Y2674513D01*
X2911260Y2675286D01*
X2909895Y2675558D01*
X2909791Y2675537D01*
X2907969Y2677359D01*
X2908214Y2677948D01*
X2907500Y2679670D01*
X2902197Y2684973D01*
X2900475Y2685687D01*
X2898753Y2684973D01*
X2895571Y2681791D01*
X2894857Y2680069D01*
X2895571Y2678347D01*
X2900874Y2673044D01*
X2902248Y2672475D01*
X2902839Y2670945D01*
X2901385Y2669490D01*
X2901329Y2669435D01*
X2901276Y2669381D01*
X2900858Y2668964D01*
X2900566Y2668671D01*
X2900424Y2668645D01*
X2900227Y2668608D01*
X2900082Y2668581D01*
X2900076Y2668582D01*
X2900070Y2668584D01*
X2900070Y2668584D01*
X2899720Y2668658D01*
X2899121Y2668786D01*
X2899121D01*
X2899105Y2668790D01*
X2899044Y2668803D01*
X2898997Y2668813D01*
X2898997Y2668813D01*
X2898628Y2669705D01*
X2898308Y2670478D01*
X2893004Y2675781D01*
X2891282Y2676494D01*
X2889560Y2675781D01*
X2886378Y2672599D01*
X2885665Y2670877D01*
X2885981Y2670114D01*
D01*
X2886059Y2669924D01*
X2886053Y2669920D01*
X2886013Y2669893D01*
X2885966Y2669862D01*
X2884848Y2669115D01*
X2884803Y2669085D01*
X2884790Y2669076D01*
X2884788Y2669075D01*
X2884608Y2669254D01*
D01*
X2880157Y2673705D01*
Y2674464D01*
X2879444Y2676186D01*
X2877380Y2678250D01*
X2877401Y2678354D01*
X2877129Y2679719D01*
X2876356Y2680877D01*
X2875198Y2681650D01*
X2873832Y2681922D01*
X2872466Y2681650D01*
X2871309Y2680877D01*
X2871167Y2680665D01*
X2870626Y2680479D01*
X2870078Y2680773D01*
X2869886Y2682540D01*
X2874186Y2686839D01*
X2868176Y2692849D01*
X2867246Y2691920D01*
X2866362Y2692803D01*
X2864641Y2693517D01*
X2863687D01*
X2863628Y2693605D01*
X2862470Y2694378D01*
X2861104Y2694650D01*
X2859739Y2694378D01*
X2858581Y2693605D01*
X2858439Y2693393D01*
X2857868Y2693196D01*
X2856522Y2693858D01*
X2856382Y2694271D01*
X2858422Y2696310D01*
X2856300Y2698431D01*
D02*
G37*
G36*
X2874539Y2699213D02*
X2869236Y2693910D01*
X2875247Y2687899D01*
X2876165Y2688819D01*
X2877533Y2688201D01*
X2878246Y2686479D01*
X2883550Y2681176D01*
X2885272Y2680462D01*
X2886994Y2681176D01*
X2890176Y2684358D01*
X2890889Y2686080D01*
X2890176Y2687802D01*
X2884873Y2693105D01*
X2883151Y2693818D01*
X2881614Y2693182D01*
X2879517Y2695278D01*
X2877795Y2695992D01*
X2877761D01*
X2874539Y2699213D01*
D02*
G37*
G36*
X2847316Y2683304D02*
X2845195Y2681182D01*
X2847669Y2678707D01*
X2849791Y2680829D01*
X2847316Y2683304D01*
D02*
G37*
%LPD*%
D10*
X2960074Y2612476D02*
G03*
X2967500Y2609400I7426J7426D01*
G01*
X2960074Y2625176D02*
G03*
X2967500Y2622100I7426J7426D01*
G01*
X2960074Y2650576D02*
G03*
X2967500Y2647500I7426J7426D01*
G01*
X2960074Y2675976D02*
G03*
X2967500Y2672900I7426J7426D01*
G01*
X2960074Y2688676D02*
G03*
X2967500Y2685600I7426J7426D01*
G01*
X2914443Y2780556D02*
G03*
X2909823Y2769402I11155J-11155D01*
G01*
X2905463Y2789536D02*
G03*
X2900843Y2778382I11155J-11155D01*
G01*
X2896483Y2798517D02*
G03*
X2891862Y2787362I11155J-11155D01*
G01*
X2878522Y2816477D02*
G03*
X2873902Y2805323I11155J-11155D01*
G01*
X2869542Y2825457D02*
G03*
X2864922Y2814303I11155J-11155D01*
G01*
X2860562Y2834438D02*
G03*
X2855941Y2823283I11155J-11155D01*
G01*
X2851582Y2843418D02*
G03*
X2846961Y2832263I11155J-11155D01*
G01*
X2842601Y2852398D02*
G03*
X2837981Y2841244I11155J-11155D01*
G01*
X2833621Y2861378D02*
G03*
X2829001Y2850224I11155J-11155D01*
G01*
X2824641Y2870359D02*
G03*
X2820020Y2859204I11155J-11155D01*
G01*
X2815661Y2879339D02*
G03*
X2811040Y2868185I11155J-11155D01*
G01*
X2806680Y2888319D02*
G03*
X2802060Y2877165I11155J-11155D01*
G01*
X2797700Y2897299D02*
G03*
X2793080Y2886145I11155J-11155D01*
G01*
X2960074Y2523576D02*
G03*
X2967500Y2520500I7426J7426D01*
G01*
D02*
G03*
X2960074Y2517424I0J-10502D01*
G01*
X2788720Y2906280D02*
G03*
X2784099Y2895125I11155J-11155D01*
G01*
X2923424Y2771576D02*
G03*
X2918803Y2760421I11155J-11155D01*
G01*
X2932404Y2762596D02*
G03*
X2927784Y2751441I11155J-11155D01*
G01*
X2941384Y2753615D02*
G03*
X2936764Y2742461I11155J-11155D01*
G01*
X2950364Y2744635D02*
G03*
X2945744Y2733481I11155J-11155D01*
G01*
X2960074Y2587076D02*
G03*
X2967500Y2584000I7426J7426D01*
G01*
X2960074Y2574376D02*
G03*
X2967500Y2571300I7426J7426D01*
G01*
X2960074Y2561676D02*
G03*
X2967500Y2558600I7426J7426D01*
G01*
X2960074Y2548976D02*
G03*
X2967500Y2545900I7426J7426D01*
G01*
Y2507800D02*
G03*
X2960074Y2504724I0J-10502D01*
G01*
X2967500Y2495100D02*
G03*
X2960074Y2492024I0J-10502D01*
G01*
X2967500Y2482400D02*
G03*
X2960074Y2479324I0J-10502D01*
G01*
Y2714076D02*
G03*
X2967500Y2711000I7426J7426D01*
G01*
X2960074Y2663276D02*
G03*
X2967500Y2660200I7426J7426D01*
G01*
X2960074Y2637876D02*
G03*
X2967500Y2634800I7426J7426D01*
G01*
X2960074Y2599776D02*
G03*
X2967500Y2596700I7426J7426D01*
G01*
X2960074Y2536276D02*
G03*
X2967500Y2533200I7426J7426D01*
G01*
X2960074Y2701376D02*
G03*
X2967500Y2698300I7426J7426D01*
G01*
X2957422Y2731012D02*
G03*
X2959345Y2735655I-4643J4643D01*
G01*
X2956800Y2615750D02*
X2960074Y2612476D01*
X2956800Y2628450D02*
X2960074Y2625176D01*
X2956800Y2653850D02*
X2960074Y2650576D01*
X2956800Y2679250D02*
X2960074Y2675976D01*
X2956800Y2691950D02*
X2960074Y2688676D01*
X2909823Y2768216D02*
Y2769402D01*
X2900843Y2777196D02*
Y2778382D01*
X2891862Y2786177D02*
Y2787362D01*
X2873902Y2804137D02*
Y2805323D01*
X2864922Y2813117D02*
Y2814303D01*
X2855941Y2822098D02*
Y2823283D01*
X2846961Y2831078D02*
Y2832263D01*
X2837981Y2840058D02*
Y2841244D01*
X2829001Y2849038D02*
Y2850224D01*
X2820020Y2858019D02*
Y2859204D01*
X2811040Y2866999D02*
Y2868185D01*
X2802060Y2875979D02*
Y2877165D01*
X2793080Y2884959D02*
Y2886145D01*
X2956800Y2526850D02*
X2960074Y2523576D01*
X2956814Y2514164D02*
X2960074Y2517424D01*
X2784099Y2893940D02*
Y2895125D01*
X2918803Y2759236D02*
Y2760421D01*
X2927784Y2750256D02*
Y2751441D01*
X2936764Y2741275D02*
Y2742461D01*
X2945744Y2732295D02*
Y2733481D01*
X2956800Y2590350D02*
X2960074Y2587076D01*
X2956800Y2577650D02*
X2960074Y2574376D01*
X2956800Y2564950D02*
X2960074Y2561676D01*
X2956800Y2552250D02*
X2960074Y2548976D01*
X2956800Y2501450D02*
X2960074Y2504724D01*
X2956800Y2488750D02*
X2960074Y2492024D01*
X2956800Y2476050D02*
X2960074Y2479324D01*
X2956800Y2717350D02*
X2960074Y2714076D01*
X2956800Y2666550D02*
X2960074Y2663276D01*
X2956800Y2641150D02*
X2960074Y2637876D01*
X2956800Y2603050D02*
X2960074Y2599776D01*
X2956800Y2539550D02*
X2960074Y2536276D01*
X2956800Y2704650D02*
X2960074Y2701376D01*
X2949724Y2723315D02*
X2957422Y2731012D01*
X2834027Y2689239D02*
X2839684Y2694895D01*
X2836855Y2697723D02*
Y2704795D01*
X2836501Y2705149D02*
X2836855Y2704795D01*
X2822006Y2719645D02*
X2822360Y2719291D01*
X2806449Y2716816D02*
X2809278Y2719645D01*
X2815642D01*
X2822006D01*
D11*
X2813000Y2549535D02*
G03*
X2815500Y2543500I8536J0D01*
G01*
X2819000Y2538000D02*
G03*
X2817585Y2541414I-4828J0D01*
G01*
X2873398Y2734043D02*
X2873400Y2734041D01*
X2870218Y2737223D02*
X2873398Y2734043D01*
X2873400Y2719898D02*
X2874814Y2721313D01*
X2869863Y2730507D02*
X2869865Y2730505D01*
X2864915Y2735455D02*
X2869863Y2730507D01*
X2902000Y2584500D02*
Y2591500D01*
Y2581000D02*
Y2584500D01*
X2834356Y2773038D02*
X2834358Y2773036D01*
X2831176Y2776218D02*
X2834356Y2773038D01*
X2830820Y2769502D02*
X2833297Y2767025D01*
X2825872Y2774450D02*
X2830820Y2769502D01*
X2834358Y2758893D02*
X2835772Y2760308D01*
X2795616Y2811825D02*
X2795619Y2811823D01*
X2792437Y2815004D02*
X2795616Y2811825D01*
X2795619Y2797680D02*
X2797033Y2799095D01*
X2795619Y2797680D02*
X2795619Y2797680D01*
X2780417Y2710582D02*
X2786298Y2716462D01*
X2780000Y2710164D02*
X2780417Y2710582D01*
X2815500Y2543500D02*
X2817585Y2541414D01*
X2813000Y2549535D02*
Y2550500D01*
X2932000Y2569500D02*
X2934500D01*
X2917000D02*
X2932000D01*
X2823903Y2818893D02*
X2825670Y2820661D01*
X2813296Y2808287D02*
X2823903Y2818893D01*
X2901685Y2741112D02*
X2903452Y2742880D01*
X2891078Y2730505D02*
X2901685Y2741112D01*
X2862642Y2780107D02*
X2864410Y2781874D01*
X2852036Y2769500D02*
X2862642Y2780107D01*
X2838000Y2547000D02*
X2844999D01*
X2834500D02*
X2838000D01*
X2784500Y2625500D02*
Y2629500D01*
Y2625000D02*
Y2625500D01*
X2806223Y2822431D02*
X2806225Y2822429D01*
X2801275Y2827379D02*
X2806223Y2822431D01*
X2844962Y2783644D02*
X2844964Y2783642D01*
X2840015Y2788592D02*
X2844962Y2783644D01*
X2884005Y2744649D02*
X2884007Y2744647D01*
X2879057Y2749597D02*
X2884005Y2744649D01*
X2820367Y2822429D02*
X2825317Y2827379D01*
X2799152Y2815360D02*
X2799154Y2815358D01*
X2794204Y2820308D02*
X2799152Y2815360D01*
X2809759Y2825967D02*
X2809761Y2825964D01*
X2804811Y2830914D02*
X2809759Y2825967D01*
X2848498Y2787180D02*
X2848500Y2787178D01*
X2843550Y2792127D02*
X2848498Y2787180D01*
X2841427Y2780109D02*
X2841429Y2780107D01*
X2836479Y2785056D02*
X2841427Y2780109D01*
X2837893Y2755358D02*
X2837893Y2755358D01*
X2836125Y2753590D02*
X2837893Y2755358D01*
X2783115Y2692774D02*
X2791600Y2684289D01*
X2776751Y2699138D02*
X2783115Y2692774D01*
X2790186Y2699138D02*
X2798318Y2691007D01*
X2789479Y2699138D02*
X2790186D01*
X2813296Y2794145D02*
X2818246Y2789195D01*
X2852036Y2755358D02*
X2856985Y2750408D01*
X2891078Y2716363D02*
X2896028Y2711413D01*
X2793000Y2608500D02*
Y2618000D01*
X2784500Y2629500D02*
X2786000Y2631000D01*
X2784000Y2616500D02*
X2789000Y2611500D01*
Y2608500D02*
Y2611500D01*
X2776000Y2593500D02*
X2782000D01*
X2840037Y2708684D02*
X2846401Y2702321D01*
X2801000Y2608500D02*
Y2618000D01*
X2850000Y2621000D02*
Y2621500D01*
X2849500Y2620500D02*
X2850000Y2621000D01*
X2844500Y2620500D02*
X2849500D01*
X2864641Y2691081D02*
X2868529Y2687192D01*
X2861104Y2691081D02*
X2864641D01*
X2857215Y2687192D02*
X2861104Y2691081D01*
X2888000Y2603500D02*
Y2610000D01*
Y2603500D02*
X2888500Y2603000D01*
X2838000Y2521000D02*
Y2525002D01*
X2834683Y2528318D02*
X2838000Y2525002D01*
X2944086Y2526836D02*
X2950436Y2533186D01*
X2944086Y2526836D02*
X2950436Y2520486D01*
X2931001Y2647500D02*
Y2658001D01*
X2916501Y2657501D02*
X2917501Y2658501D01*
X2916501Y2647500D02*
Y2657501D01*
Y2647500D02*
X2922001D01*
X2887268Y2650776D02*
X2888681D01*
X2899642Y2661737D01*
X2892343Y2669036D02*
X2899642Y2661737D01*
X2892343Y2669036D02*
Y2669816D01*
X2901535Y2679008D02*
X2902876D01*
X2909895Y2671989D01*
X2906006Y2668101D02*
X2909895Y2671989D01*
X2873832Y2678354D02*
X2877722Y2674464D01*
Y2669515D02*
Y2674464D01*
Y2669515D02*
X2879136Y2668100D01*
X2869943Y2674464D02*
X2873832Y2678354D01*
X2847670Y2676232D02*
X2853326Y2670576D01*
X2847670Y2676232D02*
Y2677647D01*
X2850851Y2680829D01*
X2853326Y2670576D02*
X2857215Y2674465D01*
X2865701Y2684364D02*
X2868529Y2687192D01*
X2865701Y2682950D02*
Y2684364D01*
X2863579Y2680829D02*
X2865701Y2682950D01*
X2877795Y2693557D02*
X2884211Y2687140D01*
X2874893Y2693557D02*
X2877795D01*
X2852000Y2583500D02*
X2858500D01*
X2846000Y2589500D02*
X2852000Y2583500D01*
X2840000Y2589500D02*
X2846000D01*
X2832000Y2544000D02*
X2855000D01*
X2843000Y2607500D02*
X2845500Y2610000D01*
X2843000Y2602500D02*
Y2607500D01*
X2842000Y2601500D02*
X2843000Y2602500D01*
X2858500Y2578000D02*
Y2583500D01*
X2792500Y2523500D02*
Y2529000D01*
X2783499Y2523500D02*
Y2529000D01*
X2813000Y2550500D02*
Y2577500D01*
X2821000Y2589500D02*
X2840000D01*
X2861000Y2610000D02*
X2866500D01*
X2845500Y2610000D02*
X2852000D01*
X2840000Y2601500D02*
X2842000D01*
X2855182Y2557182D02*
X2859070Y2561071D01*
X2844999Y2547000D02*
X2848818Y2550818D01*
X2833000Y2548500D02*
X2834500Y2547000D01*
X2840000Y2561500D02*
X2849500D01*
X2840000Y2557500D02*
X2846000D01*
X2840000Y2565500D02*
X2846000D01*
X2840000Y2577500D02*
X2849500D01*
X2840000Y2573500D02*
X2846000D01*
X2840000Y2581500D02*
X2846000D01*
X2840000Y2569500D02*
X2849500D01*
X2791000Y2628500D02*
X2796500D01*
X2844500Y2629500D02*
X2850000D01*
X2827499D02*
X2835500D01*
X2805500Y2628500D02*
X2814500D01*
X2829000Y2608500D02*
Y2618000D01*
X2826500Y2620500D02*
X2829000Y2618000D01*
X2826500Y2620500D02*
Y2628500D01*
X2825000Y2608500D02*
Y2617000D01*
X2814500Y2627500D02*
X2825000Y2617000D01*
X2814500Y2627500D02*
Y2628500D01*
X2893000Y2468500D02*
X2897000Y2464500D01*
X2893000Y2468500D02*
Y2480000D01*
X2894500Y2481500D01*
X2897000D01*
X2946547Y2465797D02*
X2950436Y2469686D01*
X2946547Y2478497D02*
X2950436Y2482386D01*
X2946547Y2491197D02*
X2950436Y2495086D01*
X2946547Y2541997D02*
X2950436Y2545886D01*
X2946547Y2554697D02*
X2950436Y2558586D01*
X2946547Y2567397D02*
X2950436Y2571286D01*
X2946547Y2580097D02*
X2950436Y2583986D01*
X2946547Y2592797D02*
X2950436Y2596686D01*
X2946547Y2605497D02*
X2950436Y2609386D01*
X2946547Y2618197D02*
X2950436Y2622086D01*
X2946547Y2630897D02*
X2950436Y2634786D01*
X2946547Y2643597D02*
X2950436Y2647486D01*
X2946547Y2656297D02*
X2950436Y2660186D01*
X2946547Y2668997D02*
X2950436Y2672886D01*
X2946547Y2681697D02*
X2950436Y2685586D01*
X2946547Y2694397D02*
X2950436Y2698286D01*
X2946547Y2707097D02*
X2950436Y2710986D01*
X2784099Y2879440D02*
Y2884940D01*
X2793080Y2870460D02*
Y2875960D01*
X2802060Y2861479D02*
Y2866979D01*
X2811040Y2852499D02*
Y2857999D01*
X2820020Y2843519D02*
Y2849019D01*
X2829001Y2834539D02*
Y2840039D01*
X2837981Y2825558D02*
Y2831058D01*
X2846961Y2816578D02*
Y2822078D01*
X2855941Y2807598D02*
Y2813098D01*
X2864922Y2798618D02*
Y2804118D01*
X2877500Y2785500D02*
X2878177Y2786176D01*
X2882863D01*
X2873500Y2789500D02*
X2873902Y2789902D01*
Y2795138D01*
X2886343Y2777196D02*
X2891843D01*
X2895323Y2768216D02*
X2900823D01*
X2904304Y2759236D02*
X2909803D01*
X2913284Y2750256D02*
X2918784D01*
X2922264Y2741275D02*
X2927764D01*
X2931245Y2732295D02*
X2936744D01*
X2935225Y2723315D02*
X2940724D01*
X2917000Y2481500D02*
X2932000D01*
X2902000Y2464500D02*
Y2471500D01*
X2907000Y2464500D02*
Y2471500D01*
X2912000Y2464500D02*
Y2471500D01*
X2917000Y2464500D02*
Y2471500D01*
X2922000Y2464500D02*
Y2471500D01*
X2927000Y2464500D02*
Y2471500D01*
X2932000Y2486500D02*
X2939000D01*
X2927000Y2496500D02*
Y2503500D01*
X2922000Y2496500D02*
Y2503500D01*
X2917000Y2496500D02*
Y2503500D01*
X2912000Y2496500D02*
Y2503500D01*
X2922000Y2503500D02*
Y2509999D01*
X2914500Y2510000D02*
X2922000D01*
X2902000Y2496500D02*
Y2503500D01*
Y2506500D02*
X2905500Y2510000D01*
X2902000Y2503500D02*
Y2506500D01*
Y2503500D02*
X2904500D01*
X2907000Y2501000D01*
Y2496500D02*
Y2501000D01*
X2897000Y2486500D02*
X2899000D01*
X2902000Y2493000D02*
Y2496500D01*
X2899000Y2486500D02*
X2900500Y2488000D01*
Y2491500D01*
X2902000Y2493000D01*
X2931000Y2510000D02*
X2936500D01*
X2932000Y2481500D02*
X2934500D01*
X2939500Y2476499D01*
Y2476000D02*
Y2476499D01*
X2939500Y2564000D02*
Y2564500D01*
X2934500Y2569500D02*
X2939500Y2564500D01*
X2900500Y2579500D02*
X2902000Y2581000D01*
X2900500Y2576000D02*
Y2579500D01*
X2899000Y2574500D02*
X2900500Y2576000D01*
X2897000Y2574500D02*
X2899000D01*
X2907000Y2584500D02*
Y2589000D01*
X2904500Y2591500D02*
X2907000Y2589000D01*
X2902000Y2591500D02*
X2904500D01*
X2902000D02*
Y2594500D01*
X2905500Y2598000D01*
X2914500D02*
X2922000D01*
X2922000Y2591500D02*
Y2597999D01*
X2912000Y2584500D02*
Y2591500D01*
X2917000Y2584500D02*
Y2591500D01*
X2922000Y2584500D02*
Y2591500D01*
X2927000Y2584500D02*
Y2591500D01*
X2932000Y2574500D02*
X2939000D01*
X2927000Y2552500D02*
Y2559500D01*
X2922000Y2552500D02*
Y2559500D01*
X2917000Y2552500D02*
Y2559500D01*
X2912000Y2552500D02*
Y2559500D01*
X2907000Y2552500D02*
Y2559500D01*
X2902000Y2552500D02*
Y2559500D01*
X2894500Y2569500D02*
X2897000D01*
X2893000Y2568000D02*
X2894500Y2569500D01*
X2893000Y2556500D02*
Y2568000D01*
Y2556500D02*
X2897000Y2552500D01*
X2910524Y2742880D02*
X2910877Y2742526D01*
X2903452Y2742880D02*
X2910524D01*
X2872340Y2725909D02*
Y2728030D01*
Y2725909D02*
X2874814Y2723434D01*
Y2721313D02*
Y2723434D01*
X2869865Y2730505D02*
X2872340Y2728030D01*
X2866683Y2737223D02*
X2870218D01*
X2864915Y2735455D02*
X2866683Y2737223D01*
X2862794Y2737576D02*
X2864915Y2735455D01*
X2862794Y2737576D02*
Y2742526D01*
X2869157Y2748890D02*
X2874460Y2754193D01*
X2874461Y2754193D02*
X2879057Y2749597D01*
X2898149Y2744647D02*
X2903099Y2749597D01*
X2905220Y2730505D02*
X2910170Y2725555D01*
X2901685Y2726970D02*
X2906634Y2722020D01*
X2898149Y2723434D02*
X2903099Y2718484D01*
X2894614Y2719898D02*
X2899563Y2714949D01*
X2887542Y2712827D02*
X2892492Y2707878D01*
X2875168Y2712474D02*
Y2714595D01*
Y2712474D02*
X2883300Y2704342D01*
X2888957D01*
X2887540Y2748185D02*
X2887542Y2748183D01*
X2882593Y2753133D02*
X2887540Y2748185D01*
X2871482Y2781874D02*
X2871835Y2781521D01*
X2864410Y2781874D02*
X2871482D01*
X2833297Y2764904D02*
Y2767025D01*
Y2764904D02*
X2835772Y2762429D01*
Y2760308D02*
Y2762429D01*
X2827640Y2776218D02*
X2831176D01*
X2825872Y2774450D02*
X2827640Y2776218D01*
X2823751Y2776571D02*
X2825872Y2774450D01*
X2823751Y2776571D02*
Y2781521D01*
X2830115Y2787885D02*
X2835418Y2793188D01*
X2835419Y2793188D02*
X2840015Y2788592D01*
X2859107Y2783642D02*
X2864056Y2788592D01*
X2866178Y2769500D02*
X2871127Y2764550D01*
X2862642Y2765964D02*
X2867592Y2761015D01*
X2859106Y2762429D02*
X2864056Y2757479D01*
X2855571Y2758893D02*
X2860521Y2753943D01*
X2848500Y2751822D02*
X2853450Y2746873D01*
X2836125Y2751469D02*
Y2753590D01*
Y2751469D02*
X2844257Y2743337D01*
X2849914D01*
X2837891Y2776573D02*
X2837893Y2776571D01*
X2832944Y2781521D02*
X2837891Y2776573D01*
X2832742Y2820661D02*
X2833095Y2820308D01*
X2825670Y2820661D02*
X2832742D01*
X2794558Y2803691D02*
Y2805812D01*
Y2803691D02*
X2797033Y2801216D01*
Y2799095D02*
Y2801216D01*
X2792083Y2808287D02*
X2794558Y2805812D01*
X2788901Y2815004D02*
X2792437D01*
X2787133Y2813237D02*
X2788901Y2815004D01*
X2785012Y2815358D02*
X2787133Y2813237D01*
X2785012Y2815358D02*
Y2820308D01*
X2791376Y2826672D02*
X2796679Y2831975D01*
X2796680Y2831974D02*
X2801275Y2827379D01*
X2827438Y2808287D02*
X2832388Y2803337D01*
X2823903Y2804751D02*
X2828853Y2799802D01*
X2820367Y2801216D02*
X2825317Y2796266D01*
X2816832Y2797680D02*
X2821782Y2792730D01*
X2809761Y2790609D02*
X2814710Y2785659D01*
X2797386Y2792377D02*
X2799154Y2794145D01*
X2797386Y2790256D02*
Y2792377D01*
Y2790256D02*
X2805518Y2782124D01*
X2811175D01*
X2875168Y2714595D02*
X2876936Y2716363D01*
X2797740Y2823843D02*
X2802687Y2818896D01*
X2802690Y2818893D01*
X2880469Y2741114D02*
X2880471Y2741112D01*
X2875522Y2746061D02*
X2880469Y2741114D01*
X2876934Y2737578D02*
X2876936Y2737576D01*
X2871986Y2742526D02*
X2876934Y2737578D01*
X2950436Y2507814D02*
Y2520486D01*
X2931000Y2598000D02*
X2937500D01*
X2939500Y2549500D02*
Y2555000D01*
X2939500Y2461500D02*
Y2467000D01*
X2839459Y2813944D02*
X2843348Y2810055D01*
X2803044Y2838339D02*
X2806932Y2842227D01*
X2878199Y2775157D02*
X2882088Y2771268D01*
X2841783Y2799552D02*
X2845672Y2803441D01*
X2917241Y2736162D02*
X2921130Y2732274D01*
X2880825Y2760557D02*
X2884714Y2764446D01*
X2787133Y2813237D02*
X2792081Y2808289D01*
X2792083Y2808287D01*
X2772500Y2589500D02*
X2782000D01*
X2776000Y2585500D02*
X2782000D01*
X2776000Y2601500D02*
X2782000D01*
X2776000Y2577500D02*
X2782000D01*
X2772500Y2581500D02*
X2782000D01*
X2776000Y2569500D02*
X2782000D01*
X2772500Y2573500D02*
X2782000D01*
X2776000Y2561500D02*
X2782000D01*
X2772500Y2565500D02*
X2782000D01*
X2793000Y2544500D02*
Y2550500D01*
X2783500Y2538000D02*
X2792500D01*
X2789000Y2545500D02*
Y2550500D01*
X2788000Y2544500D02*
X2789000Y2545500D01*
X2787500Y2544500D02*
X2788000D01*
X2779000Y2547500D02*
X2782000Y2544500D01*
X2779000Y2547500D02*
Y2556000D01*
X2780500Y2557500D01*
X2782000D01*
X2782000Y2539499D02*
Y2544500D01*
Y2539499D02*
X2783499Y2538000D01*
X2809000Y2608500D02*
Y2618000D01*
X2797000Y2608500D02*
Y2614500D01*
X2805000Y2608500D02*
Y2614500D01*
X2813000Y2608500D02*
Y2614500D01*
X2821000Y2608500D02*
Y2614500D01*
X2817000Y2608500D02*
Y2618000D01*
X2833000Y2608500D02*
Y2618000D01*
X2835500Y2620500D01*
X2773499Y2616500D02*
Y2622000D01*
X2773499Y2604000D02*
Y2607500D01*
Y2604000D02*
X2776000Y2601500D01*
X2865500Y2545500D02*
X2870999D01*
X2833000Y2548500D02*
Y2550500D01*
X2829000Y2547000D02*
Y2550500D01*
Y2547000D02*
X2832000Y2544000D01*
X2825000Y2546500D02*
Y2550500D01*
Y2546500D02*
X2830500Y2541000D01*
X2856000Y2535750D02*
Y2545000D01*
X2846500Y2530500D02*
Y2535500D01*
X2830500Y2541000D02*
X2841000D01*
X2846500Y2535500D01*
Y2530500D02*
X2848000Y2529000D01*
X2860000D01*
X2866000Y2523000D01*
Y2522250D02*
Y2523000D01*
X2821000Y2546000D02*
Y2550500D01*
Y2546000D02*
X2825500Y2541500D01*
Y2537502D02*
Y2541500D01*
Y2537502D02*
X2828319Y2534682D01*
X2910500Y2630500D02*
X2916000D01*
X2910500Y2621500D02*
X2916000Y2621500D01*
X2910500Y2612500D02*
X2916000D01*
X2925000Y2621500D02*
Y2630500D01*
X2916000Y2612500D02*
X2925000Y2621500D01*
X2904500Y2621500D02*
X2910500Y2621500D01*
X2904500Y2616500D02*
X2906501D01*
X2910500Y2612500D01*
X2904500Y2626500D02*
X2906501D01*
X2910500Y2630500D01*
X2888000Y2633000D02*
Y2638500D01*
X2881000Y2626500D02*
X2886500Y2626500D01*
X2898000Y2633000D02*
Y2638500D01*
X2881000Y2616500D02*
X2886500D01*
X2883000Y2621500D02*
X2886500Y2621500D01*
X2881000Y2619500D02*
X2883000Y2621500D01*
X2881000Y2616500D02*
X2881000Y2619500D01*
X2898000Y2638500D02*
X2901000D01*
X2903000Y2636500D01*
Y2633000D02*
Y2636500D01*
X2895000Y2638500D02*
X2898000D01*
X2893000Y2636500D02*
X2895000Y2638500D01*
X2893000Y2633000D02*
Y2636500D01*
X2843573Y2712220D02*
X2859129Y2696664D01*
X2836501Y2719291D02*
X2843573Y2712220D01*
X2847108Y2715755D02*
X2853472Y2709391D01*
X2850644Y2719291D02*
X2854179Y2715756D01*
X2859836D01*
X2859836Y2703027D02*
Y2715755D01*
X2820945Y2734847D02*
X2824834Y2730958D01*
X2827309Y2741211D02*
X2831198Y2737322D01*
X2832613D02*
X2836501Y2733433D01*
X2831198Y2737322D02*
X2832613D01*
X2831198Y2731666D02*
X2832966Y2729897D01*
X2831198Y2731666D02*
Y2737322D01*
X2824835Y2730958D02*
X2829431Y2726362D01*
X2810692Y2745100D02*
X2814581Y2741211D01*
X2820945Y2747575D02*
Y2747575D01*
X2825188Y2751818D01*
X2783115Y2705502D02*
X2784176Y2706563D01*
X2795489D01*
D12*
X2815009Y2519990D02*
G03*
X2820500Y2514500I12990J7500D01*
G01*
X2809000Y2536500D02*
G03*
X2811010Y2529000I15000J0D01*
G01*
X2858500Y2593500D02*
X2862499D01*
X2840000D02*
X2858500D01*
X2815781Y2502999D02*
X2821750Y2513603D01*
X2815500Y2502500D02*
X2815781Y2502998D01*
X2815781Y2502998D01*
Y2502998D01*
X2815781Y2502998D01*
Y2502999D01*
X2815781Y2502999D01*
Y2502999D01*
X2815781Y2502999D01*
Y2502999D01*
X2815781Y2502999D01*
X2847000Y2597500D02*
X2850500Y2601000D01*
X2840000Y2597500D02*
X2847000D01*
X2862499Y2593500D02*
X2869500Y2586499D01*
X2809000Y2540499D02*
Y2550500D01*
D13*
X2950450Y2507800D02*
D03*
X2956814Y2514164D02*
D03*
X2956800Y2526850D02*
D03*
X2950436Y2520486D02*
D03*
X2776751Y2699138D02*
D03*
X2783115Y2705502D02*
D03*
X2783116Y2692774D02*
D03*
X2789479Y2699138D02*
D03*
X2796679Y2831975D02*
D03*
X2803043Y2838339D02*
D03*
X2785012Y2820308D02*
D03*
X2791376Y2826672D02*
D03*
X2835418Y2793188D02*
D03*
X2841782Y2799552D02*
D03*
X2823751Y2781521D02*
D03*
X2830115Y2787885D02*
D03*
X2874460Y2754193D02*
D03*
X2880824Y2760557D02*
D03*
X2862794Y2742526D02*
D03*
X2869157Y2748890D02*
D03*
X2848818Y2550818D02*
D03*
X2855182Y2557182D02*
D03*
X2950436Y2710986D02*
D03*
X2956800Y2717350D02*
D03*
X2950436Y2698286D02*
D03*
X2956800Y2704650D02*
D03*
X2950436Y2685586D02*
D03*
X2956800Y2691950D02*
D03*
X2950436Y2672886D02*
D03*
X2956800Y2679250D02*
D03*
X2950436Y2660186D02*
D03*
X2956800Y2666550D02*
D03*
X2950436Y2647486D02*
D03*
X2956800Y2653850D02*
D03*
X2950436Y2634786D02*
D03*
X2956800Y2641150D02*
D03*
X2950436Y2622086D02*
D03*
X2956800Y2628450D02*
D03*
X2950436Y2609386D02*
D03*
X2956800Y2615750D02*
D03*
X2950436Y2596686D02*
D03*
X2956800Y2603050D02*
D03*
X2906006Y2668101D02*
D03*
X2899642Y2661737D02*
D03*
X2950436Y2583986D02*
D03*
X2956800Y2590350D02*
D03*
X2950436Y2571286D02*
D03*
X2956800Y2577650D02*
D03*
X2950436Y2558586D02*
D03*
X2956800Y2564950D02*
D03*
X2950436Y2545886D02*
D03*
X2956800Y2552250D02*
D03*
X2874893Y2693557D02*
D03*
X2868529Y2687192D02*
D03*
X2950436Y2533186D02*
D03*
X2956800Y2539550D02*
D03*
X2950436Y2495086D02*
D03*
X2956800Y2501450D02*
D03*
X2950436Y2482386D02*
D03*
X2956800Y2488750D02*
D03*
X2950436Y2469686D02*
D03*
X2956800Y2476050D02*
D03*
X2857215Y2687192D02*
D03*
X2850851Y2680829D02*
D03*
X2869943Y2674464D02*
D03*
X2863579Y2668101D02*
D03*
X2857215Y2674465D02*
D03*
X2863579Y2680829D02*
D03*
D14*
X2917000Y2690001D02*
D03*
X2931000D02*
D03*
D15*
X2784000Y2616500D02*
D03*
Y2625500D02*
D03*
X2939500Y2564000D02*
D03*
Y2555000D02*
D03*
X2939500Y2476000D02*
D03*
Y2467000D02*
D03*
X2858500Y2592500D02*
D03*
X2858500Y2583500D02*
D03*
X2846500Y2530500D02*
D03*
Y2521500D02*
D03*
X2773499Y2607500D02*
D03*
X2773499Y2616500D02*
D03*
X2783499Y2538000D02*
D03*
X2783499Y2529000D02*
D03*
X2792500Y2538000D02*
D03*
Y2529000D02*
D03*
X2784099Y2884940D02*
D03*
Y2893940D02*
D03*
X2793080Y2875960D02*
D03*
Y2884959D02*
D03*
X2802060Y2866979D02*
D03*
Y2875979D02*
D03*
X2811040Y2857999D02*
D03*
Y2866999D02*
D03*
X2820020Y2849019D02*
D03*
Y2858019D02*
D03*
X2829001Y2840039D02*
D03*
Y2849038D02*
D03*
X2837981Y2831058D02*
D03*
Y2840058D02*
D03*
X2846961Y2822078D02*
D03*
Y2831078D02*
D03*
X2855941Y2813098D02*
D03*
Y2822098D02*
D03*
X2864922Y2804118D02*
D03*
Y2813117D02*
D03*
X2873902Y2795138D02*
D03*
Y2804137D02*
D03*
D16*
X2795843Y2745100D02*
D03*
X2809985Y2759243D02*
D03*
D17*
X2883000Y2521500D02*
D03*
X2883000Y2544500D02*
D03*
X2883000Y2509000D02*
D03*
Y2486000D02*
D03*
D18*
X2863000Y2467500D02*
D03*
X2883000D02*
D03*
D19*
X2900500Y2521500D02*
D03*
Y2540500D02*
D03*
X2918500Y2521500D02*
D03*
X2918500Y2540500D02*
D03*
D20*
X2868500Y2506500D02*
D03*
X2849500Y2506500D02*
D03*
X2868500Y2488500D02*
D03*
X2849500D02*
D03*
D21*
X2788771Y2734495D02*
D03*
X2798670Y2724595D02*
D03*
D22*
X2836501Y2719291D02*
D03*
D23*
X2822360D02*
D03*
X2825895Y2722827D02*
D03*
X2829431Y2726362D02*
D03*
X2832966Y2729897D02*
D03*
X2836502Y2733433D02*
D03*
X2850644Y2719291D02*
D03*
X2847108Y2715755D02*
D03*
X2843573Y2712220D02*
D03*
X2840037Y2708684D02*
D03*
X2836501Y2705149D02*
D03*
D24*
X2806449Y2716816D02*
D03*
X2816349Y2706917D02*
D03*
X2834027Y2689239D02*
D03*
X2824128Y2699138D02*
D03*
X2796197Y2706563D02*
D03*
X2786298Y2716462D02*
D03*
D25*
X2853472Y2709391D02*
D03*
X2859836Y2703027D02*
D03*
X2846401Y2702320D02*
D03*
X2852765Y2695956D02*
D03*
X2866200Y2709392D02*
D03*
X2859836Y2715756D02*
D03*
X2814581Y2741211D02*
D03*
X2820945Y2734847D02*
D03*
X2820945Y2747575D02*
D03*
X2827309Y2741211D02*
D03*
X2833095Y2820308D02*
D03*
X2839459Y2813944D02*
D03*
X2871835Y2781521D02*
D03*
X2878199Y2775157D02*
D03*
X2910877Y2742526D02*
D03*
X2917241Y2736162D02*
D03*
X2828319Y2534682D02*
D03*
X2834683Y2528318D02*
D03*
D26*
X2824834Y2677925D02*
D03*
X2811400Y2664490D02*
D03*
X2791600Y2684289D02*
D03*
X2798318Y2691007D02*
D03*
X2805035Y2697724D02*
D03*
D27*
X2834380Y2668380D02*
D03*
X2824481Y2658480D02*
D03*
D28*
X2924001Y2676501D02*
D03*
X2930501Y2658501D02*
D03*
X2917501D02*
D03*
D29*
X2914500Y2572000D02*
D03*
Y2484000D02*
D03*
D30*
X2932000Y2569500D02*
D03*
X2897000D02*
D03*
Y2574500D02*
D03*
X2932000Y2574500D02*
D03*
Y2481500D02*
D03*
X2897000D02*
D03*
Y2486500D02*
D03*
X2932000D02*
D03*
D31*
X2927000Y2559500D02*
D03*
X2922000D02*
D03*
X2917000D02*
D03*
X2912000D02*
D03*
X2907000D02*
D03*
X2902000D02*
D03*
Y2584500D02*
D03*
X2907000D02*
D03*
X2912000Y2584500D02*
D03*
X2917000D02*
D03*
X2922000Y2584500D02*
D03*
X2927000D02*
D03*
Y2471500D02*
D03*
X2922000D02*
D03*
X2917000Y2471500D02*
D03*
X2912000D02*
D03*
X2907000Y2471500D02*
D03*
X2902000D02*
D03*
Y2496500D02*
D03*
X2907000D02*
D03*
X2912000Y2496500D02*
D03*
X2917000D02*
D03*
X2922000Y2496500D02*
D03*
X2927000D02*
D03*
D32*
X2809759Y2808289D02*
D03*
X2848498Y2769502D02*
D03*
X2887540Y2730507D02*
D03*
D33*
X2823901Y2818896D02*
D03*
X2799152Y2794147D02*
D03*
X2795616Y2797682D02*
D03*
X2820365Y2822431D02*
D03*
X2862640Y2780109D02*
D03*
X2837891Y2755360D02*
D03*
X2834356Y2758896D02*
D03*
X2859104Y2783644D02*
D03*
X2901682Y2741114D02*
D03*
X2876934Y2716365D02*
D03*
X2873398Y2719901D02*
D03*
X2898147Y2744649D02*
D03*
D34*
X2827436Y2808289D02*
D03*
X2823901Y2804753D02*
D03*
X2820365Y2801218D02*
D03*
X2816830Y2797682D02*
D03*
X2813294Y2794147D02*
D03*
X2809759Y2790611D02*
D03*
X2792081Y2808289D02*
D03*
X2795616Y2811825D02*
D03*
X2799152Y2815360D02*
D03*
X2802687Y2818896D02*
D03*
X2806223Y2822431D02*
D03*
X2809759Y2825967D02*
D03*
X2866176Y2769502D02*
D03*
X2862640Y2765966D02*
D03*
X2859104Y2762431D02*
D03*
X2855569Y2758896D02*
D03*
X2852033Y2755360D02*
D03*
X2848498Y2751824D02*
D03*
X2830820Y2769502D02*
D03*
X2834356Y2773038D02*
D03*
X2837891Y2776573D02*
D03*
X2841427Y2780109D02*
D03*
X2844962Y2783644D02*
D03*
X2848498Y2787180D02*
D03*
X2905218Y2730507D02*
D03*
X2901682Y2726972D02*
D03*
X2898147Y2723436D02*
D03*
X2894612Y2719901D02*
D03*
X2891076Y2716365D02*
D03*
X2887540Y2712830D02*
D03*
X2869863Y2730507D02*
D03*
X2873398Y2734043D02*
D03*
X2876934Y2737578D02*
D03*
X2880469Y2741114D02*
D03*
X2884005Y2744649D02*
D03*
X2887540Y2748185D02*
D03*
D35*
X2922001Y2647500D02*
D03*
X2931001D02*
D03*
X2922000Y2597999D02*
D03*
X2931000Y2597999D02*
D03*
X2905500Y2598000D02*
D03*
X2914500Y2598000D02*
D03*
X2922000Y2510000D02*
D03*
X2931000D02*
D03*
X2905500Y2510000D02*
D03*
X2914500D02*
D03*
X2859500Y2601000D02*
D03*
X2850500D02*
D03*
X2856500Y2545500D02*
D03*
X2865500Y2545500D02*
D03*
X2852000Y2610000D02*
D03*
X2861000D02*
D03*
X2835500Y2620500D02*
D03*
X2844500D02*
D03*
X2844500Y2629500D02*
D03*
X2835500D02*
D03*
X2796500Y2628500D02*
D03*
X2805500D02*
D03*
X2810000Y2538000D02*
D03*
X2819000D02*
D03*
X2916000Y2630500D02*
D03*
X2925000D02*
D03*
X2916000Y2621500D02*
D03*
X2925000Y2621500D02*
D03*
X2916000Y2612500D02*
D03*
X2925000D02*
D03*
X2882863Y2786176D02*
D03*
X2891862Y2786177D02*
D03*
X2891843Y2777196D02*
D03*
X2900843D02*
D03*
X2900823Y2768216D02*
D03*
X2909823Y2768216D02*
D03*
X2909803Y2759236D02*
D03*
X2918803D02*
D03*
X2918784Y2750256D02*
D03*
X2927784Y2750256D02*
D03*
X2927764Y2741275D02*
D03*
X2936764Y2741275D02*
D03*
X2936744Y2732295D02*
D03*
X2945744D02*
D03*
X2940724Y2723315D02*
D03*
X2949724D02*
D03*
D36*
X2869500Y2600499D02*
D03*
Y2586499D02*
D03*
D37*
X2866000Y2535750D02*
D03*
X2856000Y2522250D02*
D03*
Y2535750D02*
D03*
X2866000Y2522250D02*
D03*
D38*
X2814500Y2628500D02*
D03*
X2826500Y2628500D02*
D03*
D39*
X2833000Y2608500D02*
D03*
X2829000Y2608500D02*
D03*
X2825000Y2608500D02*
D03*
X2821000Y2608500D02*
D03*
X2817000D02*
D03*
X2813000Y2608500D02*
D03*
X2809000D02*
D03*
X2805000D02*
D03*
X2801000D02*
D03*
X2797000D02*
D03*
X2793000Y2608500D02*
D03*
X2789000Y2608500D02*
D03*
Y2550500D02*
D03*
X2793000Y2550500D02*
D03*
X2797000Y2550500D02*
D03*
X2801000D02*
D03*
X2805000D02*
D03*
X2809000D02*
D03*
X2813000D02*
D03*
X2817000Y2550500D02*
D03*
X2821000Y2550500D02*
D03*
X2825000D02*
D03*
X2829000D02*
D03*
X2833000D02*
D03*
D40*
X2782000Y2601500D02*
D03*
X2782000Y2597500D02*
D03*
X2782000Y2593500D02*
D03*
X2782000Y2589500D02*
D03*
X2782000Y2585500D02*
D03*
X2782000Y2581500D02*
D03*
Y2577500D02*
D03*
X2782000Y2573500D02*
D03*
Y2569500D02*
D03*
X2782000Y2565500D02*
D03*
X2782000Y2561500D02*
D03*
X2782000Y2557500D02*
D03*
X2840000Y2557500D02*
D03*
Y2561500D02*
D03*
X2840000Y2565500D02*
D03*
X2840000Y2569500D02*
D03*
Y2573500D02*
D03*
Y2577500D02*
D03*
Y2581500D02*
D03*
Y2585500D02*
D03*
Y2589500D02*
D03*
Y2593500D02*
D03*
Y2597500D02*
D03*
X2840000Y2601500D02*
D03*
D41*
X2811000Y2579500D02*
D03*
D42*
X2797750Y2477576D02*
D03*
X2813250Y2504423D02*
D03*
D43*
X2811277Y2528657D02*
D03*
X2814722Y2520342D02*
D03*
D44*
X2821750Y2513603D02*
D03*
X2826249Y2521397D02*
D03*
D45*
X2903000Y2633000D02*
D03*
X2898000Y2633000D02*
D03*
X2893000D02*
D03*
X2888000D02*
D03*
X2888000Y2610000D02*
D03*
X2893000Y2610000D02*
D03*
X2898000D02*
D03*
X2903000Y2610000D02*
D03*
D46*
X2886500Y2626500D02*
D03*
Y2621500D02*
D03*
Y2616500D02*
D03*
X2904500Y2616500D02*
D03*
X2904500Y2621500D02*
D03*
X2904500Y2626500D02*
D03*
D47*
X2884211Y2687140D02*
D03*
X2901535Y2679008D02*
D03*
X2892343Y2669816D02*
D03*
X2887268Y2650776D02*
D03*
X2869944Y2658908D02*
D03*
X2879136Y2668100D02*
D03*
D48*
X2930501Y2658501D02*
Y2666501D01*
X2820238Y2673329D02*
X2824834Y2677925D01*
X2820238Y2673329D02*
X2820238Y2673329D01*
X2863000Y2467500D02*
X2872500D01*
X2816349Y2706917D02*
X2824128Y2699138D01*
X2798738Y2770490D02*
X2809985Y2759243D01*
X2854500Y2467500D02*
X2863000D01*
X2860500Y2479500D02*
X2863000Y2477000D01*
Y2467500D02*
Y2477000D01*
X2917000Y2683501D02*
X2924001Y2676501D01*
X2917000Y2683501D02*
Y2690001D01*
X2932001Y2678001D02*
Y2682001D01*
Y2689000D01*
X2931000Y2690001D02*
X2932001Y2689000D01*
X2926501Y2666501D02*
X2930501D01*
Y2658501D02*
X2930501Y2658501D01*
X2859500Y2601000D02*
X2868999D01*
X2820238Y2673329D02*
X2823067Y2670500D01*
X2836855Y2697723D02*
X2839684Y2694895D01*
X2809985Y2759243D02*
X2815742Y2765000D01*
D49*
X2883000Y2521500D02*
Y2530000D01*
X2887000D01*
X2879000D02*
X2883000D01*
X2796197Y2706563D02*
X2805035Y2697724D01*
X2824834Y2677925D02*
X2834380Y2668380D01*
D50*
X2796197Y2706564D02*
X2806449Y2716816D01*
X2798670Y2724595D02*
X2806449Y2716817D01*
X2788771Y2738028D02*
X2795843Y2745100D01*
X2788771Y2734495D02*
Y2738028D01*
D51*
X2868500Y2488500D02*
Y2506500D01*
Y2488500D02*
X2871000Y2486000D01*
X2883000D01*
Y2467500D02*
Y2486000D01*
Y2509000D02*
Y2521500D01*
X2900500D01*
X2918500D01*
D52*
X2585999Y2193997D02*
Y2182000D01*
X2582000Y2193997D02*
X2589998D01*
X2594283Y2189998D02*
X2593141Y2189427D01*
X2591998Y2188284D01*
X2591426Y2186570D01*
Y2185428D01*
X2591998Y2183714D01*
X2593141Y2182571D01*
X2594283Y2182000D01*
X2595997D01*
X2597140Y2182571D01*
X2598282Y2183714D01*
X2598853Y2185428D01*
Y2186570D01*
X2598282Y2188284D01*
X2597140Y2189427D01*
X2595997Y2189998D01*
X2594283D01*
X2601482D02*
Y2178001D01*
Y2188284D02*
X2602624Y2189427D01*
X2603767Y2189998D01*
X2605481D01*
X2606623Y2189427D01*
X2607766Y2188284D01*
X2608337Y2186570D01*
Y2185428D01*
X2607766Y2183714D01*
X2606623Y2182571D01*
X2605481Y2182000D01*
X2603767D01*
X2602624Y2182571D01*
X2601482Y2183714D01*
X2620334Y2193997D02*
Y2182000D01*
X2627190D01*
X2635360Y2189998D02*
Y2182000D01*
Y2188284D02*
X2634218Y2189427D01*
X2633075Y2189998D01*
X2631361D01*
X2630218Y2189427D01*
X2629076Y2188284D01*
X2628504Y2186570D01*
Y2185428D01*
X2629076Y2183714D01*
X2630218Y2182571D01*
X2631361Y2182000D01*
X2633075D01*
X2634218Y2182571D01*
X2635360Y2183714D01*
X2639131Y2189998D02*
X2642559Y2182000D01*
X2645986Y2189998D02*
X2642559Y2182000D01*
X2641416Y2179715D01*
X2640273Y2178572D01*
X2639131Y2178001D01*
X2638559D01*
X2647986Y2186570D02*
X2654842D01*
Y2187713D01*
X2654270Y2188856D01*
X2653699Y2189427D01*
X2652556Y2189998D01*
X2650842D01*
X2649700Y2189427D01*
X2648557Y2188284D01*
X2647986Y2186570D01*
Y2185428D01*
X2648557Y2183714D01*
X2649700Y2182571D01*
X2650842Y2182000D01*
X2652556D01*
X2653699Y2182571D01*
X2654842Y2183714D01*
X2657412Y2189998D02*
Y2182000D01*
Y2186570D02*
X2657984Y2188284D01*
X2659126Y2189427D01*
X2660269Y2189998D01*
X2661983D01*
D53*
X2959345Y2735655D02*
D03*
X2950364Y2744635D02*
D03*
X2941384Y2753615D02*
D03*
X2932404Y2762596D02*
D03*
X2923424Y2771576D02*
D03*
X2914443Y2780556D02*
D03*
X2905463Y2789536D02*
D03*
X2896483Y2798517D02*
D03*
X2887503Y2807497D02*
D03*
X2878522Y2816477D02*
D03*
X2869542Y2825457D02*
D03*
X2860562Y2834438D02*
D03*
X2851582Y2843418D02*
D03*
X2842601Y2852398D02*
D03*
X2833621Y2861378D02*
D03*
X2824641Y2870359D02*
D03*
X2815661Y2879339D02*
D03*
X2806680Y2888319D02*
D03*
X2797700Y2897299D02*
D03*
X2788720Y2906280D02*
D03*
D54*
X2967500Y2469700D02*
D03*
Y2482400D02*
D03*
Y2495100D02*
D03*
Y2507800D02*
D03*
Y2520500D02*
D03*
Y2533200D02*
D03*
Y2545900D02*
D03*
Y2558600D02*
D03*
Y2571300D02*
D03*
Y2584000D02*
D03*
Y2596700D02*
D03*
Y2609400D02*
D03*
Y2622100D02*
D03*
Y2634800D02*
D03*
Y2647500D02*
D03*
Y2660200D02*
D03*
Y2672900D02*
D03*
Y2685600D02*
D03*
Y2698300D02*
D03*
Y2711000D02*
D03*
D55*
X2803000Y2660500D02*
D03*
X2789500Y2671000D02*
D03*
X2804000Y2679000D02*
D03*
X2804500Y2684500D02*
D03*
X2829077Y2694189D02*
D03*
X2816000Y2765000D02*
D03*
X2804000Y2753000D02*
D03*
X2937000Y2517500D02*
D03*
X2956000Y2465000D02*
D03*
X2967500Y2460500D02*
D03*
X2872500Y2467500D02*
D03*
X2870000Y2704500D02*
D03*
X2862000Y2696500D02*
D03*
X2888500Y2698500D02*
D03*
X2908500Y2714000D02*
D03*
X2909500Y2683000D02*
D03*
X2908500Y2659000D02*
D03*
X2925000Y2639000D02*
D03*
X2937500Y2609500D02*
D03*
X2898500Y2602000D02*
D03*
X2865000Y2637000D02*
D03*
X2772500Y2597500D02*
D03*
Y2645000D02*
D03*
X2773500Y2664500D02*
D03*
X2773000Y2677000D02*
D03*
Y2705500D02*
D03*
Y2694000D02*
D03*
Y2719000D02*
D03*
X2772500Y2739000D02*
D03*
X2774000Y2754500D02*
D03*
X2783500Y2795500D02*
D03*
Y2847000D02*
D03*
X2783000Y2866500D02*
D03*
X2783500Y2830000D02*
D03*
X2779500Y2711500D02*
D03*
X2791000D02*
D03*
X2789500Y2724500D02*
D03*
X2781000Y2721500D02*
D03*
X2813500Y2714000D02*
D03*
X2806000Y2707000D02*
D03*
X2826000Y2708500D02*
D03*
X2818500Y2693500D02*
D03*
X2843500Y2678000D02*
D03*
X2880000Y2658500D02*
D03*
X2867500Y2646500D02*
D03*
X2850500Y2660000D02*
D03*
X2838000Y2660500D02*
D03*
X2823500Y2638000D02*
D03*
X2819000Y2666000D02*
D03*
X2829000Y2512000D02*
D03*
X2832500Y2518500D02*
D03*
X2805000Y2525500D02*
D03*
X2803500Y2534000D02*
D03*
Y2541000D02*
D03*
X2820000Y2525000D02*
D03*
X2911500Y2533000D02*
D03*
X2927500D02*
D03*
X2890000Y2537500D02*
D03*
X2896500Y2533000D02*
D03*
X2893000Y2548500D02*
D03*
X2918500Y2533000D02*
D03*
X2860500Y2481000D02*
D03*
X2854500Y2460000D02*
D03*
Y2467500D02*
D03*
X2841500Y2515500D02*
D03*
X2842000Y2506500D02*
D03*
X2857000D02*
D03*
Y2488500D02*
D03*
X2844500Y2466000D02*
D03*
Y2472000D02*
D03*
Y2478000D02*
D03*
Y2460000D02*
D03*
X2831000Y2503000D02*
D03*
X2837000Y2499500D02*
D03*
X2842000Y2496500D02*
D03*
X2825000Y2506500D02*
D03*
X2814000Y2513000D02*
D03*
X2809000Y2515500D02*
D03*
X2804000Y2518500D02*
D03*
X2798500Y2521500D02*
D03*
X2775000Y2531000D02*
D03*
X2773000Y2538000D02*
D03*
X2772500Y2544000D02*
D03*
X2777000Y2524000D02*
D03*
X2966500Y2724500D02*
D03*
X2818246Y2789195D02*
D03*
X2856985Y2750408D02*
D03*
X2896028Y2711413D02*
D03*
X2793000Y2618000D02*
D03*
X2797510Y2770490D02*
D03*
X2785490D02*
D03*
X2797510Y2782510D02*
D03*
X2785490D02*
D03*
X2786000Y2631000D02*
D03*
X2776000Y2593500D02*
D03*
X2879000Y2530000D02*
D03*
X2887000D02*
D03*
X2883000D02*
D03*
X2801000Y2618000D02*
D03*
X2850000Y2621500D02*
D03*
X2861104Y2691081D02*
D03*
X2888500Y2603000D02*
D03*
X2838000Y2521000D02*
D03*
X2943500Y2527000D02*
D03*
X2790200Y2639000D02*
D03*
X2815600Y2651700D02*
D03*
X2815600Y2639000D02*
D03*
X2802900D02*
D03*
Y2651700D02*
D03*
X2932001Y2678001D02*
D03*
Y2682001D02*
D03*
X2926501Y2666501D02*
D03*
X2930501D02*
D03*
X2916501Y2647500D02*
D03*
X2909895Y2671989D02*
D03*
X2873832Y2678354D02*
D03*
X2853326Y2670576D02*
D03*
X2858500Y2578000D02*
D03*
X2792500Y2523500D02*
D03*
X2783499Y2523500D02*
D03*
X2866500Y2610000D02*
D03*
X2845500Y2610000D02*
D03*
X2859070Y2561071D02*
D03*
X2838000Y2548500D02*
D03*
X2849500Y2561500D02*
D03*
X2846000Y2557500D02*
D03*
X2846000Y2565500D02*
D03*
X2849500Y2577500D02*
D03*
X2846000Y2573500D02*
D03*
X2846000Y2581500D02*
D03*
X2849500Y2569500D02*
D03*
X2791000Y2628500D02*
D03*
X2850000Y2629500D02*
D03*
X2823067Y2670500D02*
D03*
X2820238Y2673329D02*
D03*
X2897000Y2464500D02*
D03*
X2946547Y2465797D02*
D03*
Y2478497D02*
D03*
X2946547Y2491197D02*
D03*
X2946547Y2541997D02*
D03*
Y2554697D02*
D03*
Y2567397D02*
D03*
X2946547Y2580097D02*
D03*
Y2592797D02*
D03*
X2946547Y2605497D02*
D03*
Y2618197D02*
D03*
Y2630897D02*
D03*
Y2643597D02*
D03*
Y2656297D02*
D03*
Y2668997D02*
D03*
Y2681697D02*
D03*
Y2694397D02*
D03*
X2946547Y2707097D02*
D03*
X2784099Y2879440D02*
D03*
X2793080Y2870460D02*
D03*
X2802060Y2861479D02*
D03*
X2811040Y2852499D02*
D03*
X2820020Y2843519D02*
D03*
X2829001Y2834539D02*
D03*
X2837981Y2825558D02*
D03*
X2846961Y2816578D02*
D03*
X2855941Y2807598D02*
D03*
X2864922Y2798618D02*
D03*
X2877500Y2785500D02*
D03*
X2873500Y2789500D02*
D03*
X2886343Y2777196D02*
D03*
X2895323Y2768216D02*
D03*
X2904304Y2759236D02*
D03*
X2913284Y2750256D02*
D03*
X2922264Y2741275D02*
D03*
X2931245Y2732295D02*
D03*
X2935225Y2723315D02*
D03*
X2902000Y2464500D02*
D03*
X2907000D02*
D03*
X2912000Y2464500D02*
D03*
X2917000D02*
D03*
X2922000Y2464500D02*
D03*
X2927000D02*
D03*
X2939000Y2486500D02*
D03*
X2927000Y2503500D02*
D03*
X2922000D02*
D03*
X2917000Y2503500D02*
D03*
X2912000D02*
D03*
X2902000Y2503500D02*
D03*
X2936500Y2510000D02*
D03*
X2902000Y2591500D02*
D03*
X2912000Y2591500D02*
D03*
X2917000D02*
D03*
X2922000Y2591500D02*
D03*
X2927000D02*
D03*
X2939000Y2574500D02*
D03*
X2927000Y2552500D02*
D03*
X2922000D02*
D03*
X2917000Y2552500D02*
D03*
X2912000D02*
D03*
X2907000Y2552500D02*
D03*
X2902000D02*
D03*
X2897000Y2552500D02*
D03*
X2864915Y2735455D02*
D03*
X2871986Y2742526D02*
D03*
X2875522Y2746061D02*
D03*
X2879057Y2749597D02*
D03*
X2882593Y2753133D02*
D03*
X2903099Y2749597D02*
D03*
X2910170Y2725555D02*
D03*
X2906634Y2722020D02*
D03*
X2903099Y2718484D02*
D03*
X2899563Y2714949D02*
D03*
X2892492Y2707878D02*
D03*
X2888957Y2704342D02*
D03*
X2825872Y2774450D02*
D03*
X2832944Y2781521D02*
D03*
X2836479Y2785056D02*
D03*
X2840015Y2788592D02*
D03*
X2843550Y2792127D02*
D03*
X2864056Y2788592D02*
D03*
X2871127Y2764550D02*
D03*
X2867592Y2761015D02*
D03*
X2864056Y2757479D02*
D03*
X2860521Y2753943D02*
D03*
X2853450Y2746873D02*
D03*
X2849914Y2743337D02*
D03*
X2787133Y2813237D02*
D03*
X2794204Y2820308D02*
D03*
X2797740Y2823843D02*
D03*
X2801275Y2827379D02*
D03*
X2804811Y2830914D02*
D03*
X2825317Y2827379D02*
D03*
X2832388Y2803337D02*
D03*
X2828853Y2799802D02*
D03*
X2825317Y2796266D02*
D03*
X2821782Y2792730D02*
D03*
X2814710Y2785659D02*
D03*
X2811175Y2782124D02*
D03*
X2937500Y2598000D02*
D03*
X2939500Y2549500D02*
D03*
X2939500Y2461500D02*
D03*
X2843348Y2810055D02*
D03*
X2806932Y2842227D02*
D03*
X2882088Y2771268D02*
D03*
X2845672Y2803441D02*
D03*
X2921130Y2732274D02*
D03*
X2884714Y2764446D02*
D03*
X2772500Y2589500D02*
D03*
X2776000Y2585500D02*
D03*
X2776000Y2601500D02*
D03*
X2776000Y2577500D02*
D03*
X2772500Y2581500D02*
D03*
X2776000Y2569500D02*
D03*
X2772500Y2573500D02*
D03*
X2776000Y2561500D02*
D03*
X2772500Y2565500D02*
D03*
X2793000Y2544500D02*
D03*
X2782000D02*
D03*
X2787500D02*
D03*
X2809000Y2618000D02*
D03*
X2797000Y2614500D02*
D03*
X2805000Y2614500D02*
D03*
X2813000Y2614500D02*
D03*
X2821000Y2614500D02*
D03*
X2817000Y2618000D02*
D03*
X2773499Y2622000D02*
D03*
X2870999Y2545500D02*
D03*
X2910500Y2630500D02*
D03*
Y2621500D02*
D03*
X2910500Y2612500D02*
D03*
X2888000Y2638500D02*
D03*
X2881000Y2626500D02*
D03*
X2898000Y2638500D02*
D03*
X2881000Y2616500D02*
D03*
X2824834Y2730958D02*
D03*
X2831198Y2737322D02*
D03*
X2810692Y2745100D02*
D03*
X2825188Y2751818D02*
D03*
X2839684Y2694895D02*
D03*
X2836855Y2697723D02*
D03*
X2815642Y2719645D02*
D03*
X2843573Y2726362D02*
D03*
X2829431Y2712220D02*
D03*
X2892500Y2513500D02*
D03*
X2893000Y2529000D02*
D03*
X2875000Y2578500D02*
D03*
X2890000Y2585000D02*
D03*
X2876000Y2494000D02*
D03*
X2854500Y2477500D02*
D03*
X2892000Y2460000D02*
D03*
X2962500Y2723432D02*
D03*
D56*
X2819000Y2571000D02*
D03*
X2803000D02*
D03*
X2819000Y2588000D02*
D03*
X2803000D02*
D03*
X2914500Y2484000D02*
D03*
X2914500Y2572000D02*
D03*
X2887542Y2730505D02*
D03*
X2848500Y2769500D02*
D03*
X2809761Y2808287D02*
D03*
M02*
