G04 Layer_Color=65535*
%FSLAX44Y44*%
%MOMM*%
G71*
G01*
G75*
%ADD12C,0.2000*%
%ADD52C,0.1200*%
%ADD59C,0.3000*%
D12*
X2816996Y2695956D02*
G03*
X2816996Y2695956I-1000J0D01*
G01*
X2905500Y2640000D02*
G03*
X2905500Y2640000I-1000J0D01*
G01*
X2951864Y2512750D02*
X2955399Y2509214D01*
X2951850Y2525436D02*
X2955385Y2521900D01*
X2923001Y2693501D02*
X2925001D01*
X2923001Y2686501D02*
X2925001D01*
X2781500Y2621000D02*
X2786500D01*
X2878000Y2530500D02*
X2888000D01*
X2888000Y2529000D02*
X2888000Y2537000D01*
X2878000Y2529000D02*
X2878000Y2537000D01*
X2878000Y2529000D02*
X2888000D01*
X2878000Y2500000D02*
X2888000D01*
X2878000Y2493500D02*
Y2501500D01*
X2888000Y2493500D02*
Y2501500D01*
X2878000D02*
X2888000D01*
X2795489Y2732727D02*
X2796903Y2731313D01*
X2790539Y2727777D02*
X2791953Y2726363D01*
X2843926Y2733787D02*
X2850997Y2726716D01*
X2822008Y2711866D02*
X2829079Y2704795D01*
X2813167Y2715048D02*
X2814581Y2713634D01*
X2808217Y2710099D02*
X2809632Y2708684D01*
X2825895Y2692421D02*
X2827309Y2691007D01*
X2830845Y2697371D02*
X2832259Y2695956D01*
X2854886Y2704442D02*
X2858422Y2707977D01*
X2847816Y2697371D02*
X2851351Y2700906D01*
X2861250Y2710806D02*
X2864786Y2714341D01*
X2815995Y2736262D02*
X2819531Y2739797D01*
X2822360Y2742625D02*
X2825895Y2746161D01*
X2802207Y2667319D02*
X2822006Y2687118D01*
X2794429Y2675097D02*
X2802207Y2667319D01*
X2818117Y2691007D02*
X2822006Y2687118D01*
X2810339Y2691006D02*
X2818117Y2691007D01*
X2794429Y2675097D02*
X2810339Y2691006D01*
X2778165Y2704088D02*
X2781701Y2700553D01*
X2831198Y2660247D02*
X2832613Y2661662D01*
X2826248Y2665197D02*
X2827663Y2666612D01*
X2788065Y2709745D02*
X2789479Y2708331D01*
X2793015Y2714695D02*
X2794429Y2713281D01*
X2784529Y2697724D02*
X2788065Y2694189D01*
X2915001Y2675501D02*
X2918001D01*
X2915001Y2672001D02*
Y2675501D01*
X2933001Y2672001D02*
X2933001Y2675501D01*
X2930001D02*
X2933001D01*
X2934000Y2557500D02*
Y2565000D01*
X2931500Y2557500D02*
X2934000D01*
X2895000D02*
Y2565000D01*
Y2557500D02*
X2897500D01*
X2895000Y2579000D02*
Y2586500D01*
X2897500D01*
X2931500D02*
X2934000D01*
X2934000Y2583000D02*
X2934000Y2586500D01*
X2828497Y2817128D02*
X2833800Y2811825D01*
X2832032Y2810057D02*
X2833800Y2811825D01*
X2800920Y2789551D02*
X2806223Y2784247D01*
X2807991Y2786015D01*
X2785717Y2804753D02*
X2791020Y2799450D01*
X2785717Y2804753D02*
X2787485Y2806521D01*
X2811526Y2830563D02*
X2813294Y2832331D01*
X2815769Y2829856D01*
X2937000Y2559500D02*
X2942000D01*
X2834510Y2815358D02*
X2838045Y2818893D01*
X2926501Y2645001D02*
Y2650001D01*
X2798093Y2836925D02*
X2801628Y2833389D01*
X2786426Y2825257D02*
X2789962Y2821722D01*
X2934000Y2469500D02*
Y2477000D01*
X2931500Y2469500D02*
X2934000D01*
X2895000D02*
Y2477000D01*
Y2469500D02*
X2897500D01*
X2895000Y2491000D02*
Y2498500D01*
X2897500D01*
X2931500D02*
X2934000D01*
X2934000Y2495000D02*
X2934000Y2498500D01*
X2867236Y2778341D02*
X2872539Y2773038D01*
X2870772Y2771270D02*
X2872539Y2773038D01*
X2839659Y2750764D02*
X2844962Y2745461D01*
X2846730Y2747228D01*
X2824456Y2765966D02*
X2829760Y2760663D01*
X2824456Y2765966D02*
X2826224Y2767734D01*
X2850266Y2791776D02*
X2852033Y2793544D01*
X2854508Y2791069D01*
X2937000Y2471500D02*
X2942000D01*
X2873249Y2776571D02*
X2876784Y2780107D01*
X2836832Y2798138D02*
X2840367Y2794602D01*
X2825165Y2786471D02*
X2828701Y2782935D01*
X2875874Y2759143D02*
X2879410Y2755608D01*
X2864208Y2747476D02*
X2867744Y2743940D01*
X2926500Y2595500D02*
Y2600500D01*
X2910000Y2595500D02*
Y2600500D01*
X2926500Y2507500D02*
Y2512500D01*
X2910000Y2507500D02*
Y2512500D01*
X2906279Y2739346D02*
X2911582Y2734043D01*
X2909814Y2732275D02*
X2911582Y2734043D01*
X2878701Y2711769D02*
X2884005Y2706466D01*
X2885772Y2708233D01*
X2863499Y2726972D02*
X2868802Y2721668D01*
X2863499Y2726972D02*
X2865266Y2728740D01*
X2889308Y2752781D02*
X2891076Y2754549D01*
X2893551Y2752074D01*
X2912291Y2737576D02*
X2915827Y2741112D01*
X2856000Y2588000D02*
X2861000D01*
X2873000Y2592500D02*
Y2594500D01*
X2866000Y2592500D02*
Y2594500D01*
X2855000Y2598500D02*
Y2603500D01*
X2861000Y2543000D02*
Y2548000D01*
X2856500Y2607500D02*
Y2612500D01*
X2840000Y2618000D02*
Y2623000D01*
X2850232Y2555768D02*
X2853768Y2552232D01*
X2820500Y2623500D02*
Y2633500D01*
X2843000Y2611500D02*
X2843000Y2605500D01*
X2837000Y2611500D02*
X2843000Y2611500D01*
X2837000Y2547500D02*
X2843000Y2547500D01*
X2843000Y2553500D02*
X2843000Y2547500D01*
X2779000D02*
Y2553500D01*
Y2547500D02*
X2785000D01*
X2779000Y2605500D02*
Y2611500D01*
X2785000D01*
X2846500Y2607000D02*
Y2615000D01*
X2838500D02*
X2846500D01*
X2844000Y2526000D02*
X2849000D01*
X2840000Y2627000D02*
Y2632000D01*
X2829733Y2529732D02*
X2833269Y2533268D01*
X2801000Y2625999D02*
Y2630999D01*
X2801041Y2506276D02*
X2804666Y2512555D01*
X2820959Y2494776D02*
X2824584Y2501055D01*
X2810690Y2523543D02*
X2815309Y2525457D01*
X2821835Y2518750D02*
X2826165Y2516250D01*
X2814500Y2535500D02*
Y2540500D01*
X2771000Y2612000D02*
X2776000D01*
X2781000Y2533500D02*
X2786000D01*
X2790000Y2533500D02*
X2795000D01*
X2909500Y2633502D02*
X2909500Y2638001D01*
X2881498Y2633502D02*
X2881498Y2638001D01*
X2883998Y2638001D01*
X2881498Y2605000D02*
Y2609500D01*
Y2605000D02*
X2883998D01*
X2907000D02*
X2909500D01*
Y2609500D01*
X2781599Y2889440D02*
X2786599D01*
X2920500Y2628000D02*
Y2633000D01*
X2790580Y2880460D02*
X2795580D01*
X2920500Y2619000D02*
Y2624000D01*
X2799560Y2871479D02*
X2804560D01*
X2808540Y2862499D02*
X2813540D01*
X2817520Y2853519D02*
X2822520D01*
X2826501Y2844539D02*
X2831501D01*
X2920500Y2610000D02*
Y2615000D01*
X2835481Y2835558D02*
X2840481D01*
X2844461Y2826578D02*
X2849461D01*
X2853441Y2817598D02*
X2858441D01*
X2862422Y2808618D02*
X2867422D01*
X2871402Y2799637D02*
X2876402D01*
X2887363Y2783677D02*
Y2788677D01*
X2896343Y2774697D02*
Y2779697D01*
X2905323Y2765717D02*
Y2770717D01*
X2914303Y2756736D02*
Y2761736D01*
X2923284Y2747756D02*
X2923284Y2752756D01*
X2932264Y2738776D02*
Y2743776D01*
X2941244Y2729796D02*
Y2734796D01*
X2945224Y2720815D02*
X2945224Y2725815D01*
X2951850Y2715936D02*
X2955385Y2712401D01*
X2951850Y2703236D02*
X2955385Y2699700D01*
X2951850Y2690536D02*
X2955385Y2687000D01*
X2951850Y2677836D02*
X2955385Y2674301D01*
X2951850Y2665136D02*
X2955385Y2661600D01*
X2951850Y2652436D02*
X2955385Y2648900D01*
X2951850Y2639736D02*
X2955385Y2636200D01*
X2951850Y2627036D02*
X2955385Y2623500D01*
X2951850Y2614336D02*
X2955385Y2610800D01*
X2951850Y2601636D02*
X2955385Y2598100D01*
X2878554Y2680069D02*
X2880676Y2682191D01*
X2878554Y2680069D02*
X2881029Y2677594D01*
X2891282Y2692797D02*
X2893757Y2690322D01*
X2889161Y2690676D02*
X2891282Y2692797D01*
X2901056Y2666686D02*
X2904592Y2663151D01*
X2951850Y2588936D02*
X2955385Y2585400D01*
X2951850Y2576236D02*
X2955385Y2572701D01*
X2951850Y2563536D02*
X2955385Y2560000D01*
X2951850Y2550836D02*
X2955385Y2547300D01*
X2869944Y2692142D02*
X2873479Y2688607D01*
X2951850Y2538136D02*
X2955385Y2534600D01*
X2951850Y2500036D02*
X2955385Y2496500D01*
X2890803Y2655726D02*
X2892924Y2657847D01*
X2890450Y2660322D02*
X2892924Y2657847D01*
X2877722Y2647594D02*
X2880197Y2645119D01*
X2882318Y2647241D01*
X2951850Y2487336D02*
X2955385Y2483800D01*
X2951850Y2474636D02*
X2955385Y2471100D01*
X2852266Y2685778D02*
X2855801Y2682242D01*
X2864994Y2673050D02*
X2868529Y2669514D01*
X2858630Y2679414D02*
X2862165Y2675879D01*
D52*
X2585999Y2253997D02*
Y2242000D01*
X2582000Y2253997D02*
X2589998D01*
X2594283Y2249998D02*
X2593141Y2249427D01*
X2591998Y2248284D01*
X2591426Y2246570D01*
Y2245428D01*
X2591998Y2243714D01*
X2593141Y2242571D01*
X2594283Y2242000D01*
X2595997D01*
X2597140Y2242571D01*
X2598282Y2243714D01*
X2598853Y2245428D01*
Y2246570D01*
X2598282Y2248284D01*
X2597140Y2249427D01*
X2595997Y2249998D01*
X2594283D01*
X2601482D02*
Y2238001D01*
Y2248284D02*
X2602624Y2249427D01*
X2603767Y2249998D01*
X2605481D01*
X2606623Y2249427D01*
X2607766Y2248284D01*
X2608337Y2246570D01*
Y2245428D01*
X2607766Y2243714D01*
X2606623Y2242571D01*
X2605481Y2242000D01*
X2603767D01*
X2602624Y2242571D01*
X2601482Y2243714D01*
X2628333Y2252283D02*
X2627190Y2253426D01*
X2625476Y2253997D01*
X2623191D01*
X2621477Y2253426D01*
X2620334Y2252283D01*
Y2251141D01*
X2620906Y2249998D01*
X2621477Y2249427D01*
X2622620Y2248856D01*
X2626048Y2247713D01*
X2627190Y2247142D01*
X2627762Y2246570D01*
X2628333Y2245428D01*
Y2243714D01*
X2627190Y2242571D01*
X2625476Y2242000D01*
X2623191D01*
X2621477Y2242571D01*
X2620334Y2243714D01*
X2632161Y2253997D02*
X2632732Y2253426D01*
X2633303Y2253997D01*
X2632732Y2254569D01*
X2632161Y2253997D01*
X2632732Y2249998D02*
Y2242000D01*
X2635417Y2253997D02*
Y2242000D01*
X2637931Y2253997D02*
Y2242000D01*
X2643644Y2249998D02*
X2637931Y2244285D01*
X2640216Y2246570D02*
X2644215Y2242000D01*
X2652385Y2248284D02*
X2651814Y2249427D01*
X2650100Y2249998D01*
X2648386D01*
X2646672Y2249427D01*
X2646100Y2248284D01*
X2646672Y2247142D01*
X2647814Y2246570D01*
X2650671Y2245999D01*
X2651814Y2245428D01*
X2652385Y2244285D01*
Y2243714D01*
X2651814Y2242571D01*
X2650100Y2242000D01*
X2648386D01*
X2646672Y2242571D01*
X2646100Y2243714D01*
X2661754Y2248284D02*
X2660612Y2249427D01*
X2659469Y2249998D01*
X2657755D01*
X2656613Y2249427D01*
X2655470Y2248284D01*
X2654899Y2246570D01*
Y2245428D01*
X2655470Y2243714D01*
X2656613Y2242571D01*
X2657755Y2242000D01*
X2659469D01*
X2660612Y2242571D01*
X2661754Y2243714D01*
X2664325Y2249998D02*
Y2242000D01*
Y2246570D02*
X2664897Y2248284D01*
X2666039Y2249427D01*
X2667182Y2249998D01*
X2668896D01*
X2669981Y2246570D02*
X2676837D01*
Y2247713D01*
X2676266Y2248856D01*
X2675694Y2249427D01*
X2674552Y2249998D01*
X2672838D01*
X2671695Y2249427D01*
X2670552Y2248284D01*
X2669981Y2246570D01*
Y2245428D01*
X2670552Y2243714D01*
X2671695Y2242571D01*
X2672838Y2242000D01*
X2674552D01*
X2675694Y2242571D01*
X2676837Y2243714D01*
X2679408Y2246570D02*
X2686263D01*
Y2247713D01*
X2685692Y2248856D01*
X2685121Y2249427D01*
X2683978Y2249998D01*
X2682264D01*
X2681122Y2249427D01*
X2679979Y2248284D01*
X2679408Y2246570D01*
Y2245428D01*
X2679979Y2243714D01*
X2681122Y2242571D01*
X2682264Y2242000D01*
X2683978D01*
X2685121Y2242571D01*
X2686263Y2243714D01*
X2688834Y2249998D02*
Y2242000D01*
Y2247713D02*
X2690548Y2249427D01*
X2691691Y2249998D01*
X2693405D01*
X2694547Y2249427D01*
X2695119Y2247713D01*
Y2242000D01*
D59*
X2838062Y2698431D02*
G03*
X2838062Y2698431I-500J0D01*
G01*
X2938500Y2579500D02*
G03*
X2938500Y2579500I-1000J0D01*
G01*
X2821719Y2829856D02*
G03*
X2821719Y2829856I-1000J0D01*
G01*
X2938500Y2491500D02*
G03*
X2938500Y2491500I-1000J0D01*
G01*
X2860458Y2791069D02*
G03*
X2860458Y2791069I-1000J0D01*
G01*
X2899500Y2752074D02*
G03*
X2899500Y2752074I-1000J0D01*
G01*
X2895500Y2529000D02*
Y2533000D01*
X2905500Y2529000D02*
Y2533000D01*
X2913500D02*
X2913500Y2529000D01*
X2923500Y2533000D02*
X2923500Y2529000D01*
X2857000Y2501500D02*
X2861000Y2501500D01*
X2857000Y2511500D02*
X2861000Y2511500D01*
X2857000Y2483500D02*
X2861000D01*
X2857000Y2493500D02*
X2861000D01*
M02*
