G04 Layer_Color=16711935*
%FSLAX44Y44*%
%MOMM*%
G71*
G01*
G75*
%ADD52C,0.1200*%
%ADD98C,0.1000*%
G04:AMPARAMS|DCode=99|XSize=1.6mm|YSize=1.15mm|CornerRadius=0mm|HoleSize=0mm|Usage=FLASHONLY|Rotation=45.000|XOffset=0mm|YOffset=0mm|HoleType=Round|Shape=Round|*
%AMOVALD99*
21,1,0.4500,1.1500,0.0000,0.0000,45.0*
1,1,1.1500,-0.1591,-0.1591*
1,1,1.1500,0.1591,0.1591*
%
%ADD99OVALD99*%

%ADD100O,1.6000X1.1500*%
%ADD101C,1.1000*%
%ADD102C,0.9000*%
D52*
X2762000Y2233997D02*
Y2222000D01*
Y2233997D02*
X2767142D01*
X2768856Y2233426D01*
X2769427Y2232855D01*
X2769998Y2231712D01*
Y2230570D01*
X2769427Y2229427D01*
X2768856Y2228856D01*
X2767142Y2228284D01*
X2762000D02*
X2767142D01*
X2768856Y2227713D01*
X2769427Y2227142D01*
X2769998Y2225999D01*
Y2224285D01*
X2769427Y2223143D01*
X2768856Y2222571D01*
X2767142Y2222000D01*
X2762000D01*
X2775540Y2229998D02*
X2774397Y2229427D01*
X2773255Y2228284D01*
X2772683Y2226570D01*
Y2225428D01*
X2773255Y2223714D01*
X2774397Y2222571D01*
X2775540Y2222000D01*
X2777254D01*
X2778397Y2222571D01*
X2779539Y2223714D01*
X2780110Y2225428D01*
Y2226570D01*
X2779539Y2228284D01*
X2778397Y2229427D01*
X2777254Y2229998D01*
X2775540D01*
X2784452Y2233997D02*
Y2224285D01*
X2785023Y2222571D01*
X2786166Y2222000D01*
X2787309D01*
X2782738Y2229998D02*
X2786738D01*
X2790737Y2233997D02*
Y2224285D01*
X2791308Y2222571D01*
X2792451Y2222000D01*
X2793593D01*
X2789023Y2229998D02*
X2793022D01*
X2798164D02*
X2797021Y2229427D01*
X2795878Y2228284D01*
X2795307Y2226570D01*
Y2225428D01*
X2795878Y2223714D01*
X2797021Y2222571D01*
X2798164Y2222000D01*
X2799878D01*
X2801020Y2222571D01*
X2802163Y2223714D01*
X2802734Y2225428D01*
Y2226570D01*
X2802163Y2228284D01*
X2801020Y2229427D01*
X2799878Y2229998D01*
X2798164D01*
X2805362D02*
Y2222000D01*
Y2227713D02*
X2807076Y2229427D01*
X2808219Y2229998D01*
X2809933D01*
X2811075Y2229427D01*
X2811646Y2227713D01*
Y2222000D01*
Y2227713D02*
X2813360Y2229427D01*
X2814503Y2229998D01*
X2816217D01*
X2817360Y2229427D01*
X2817931Y2227713D01*
Y2222000D01*
X2839126Y2232283D02*
X2837984Y2233426D01*
X2836270Y2233997D01*
X2833985D01*
X2832271Y2233426D01*
X2831128Y2232283D01*
Y2231141D01*
X2831699Y2229998D01*
X2832271Y2229427D01*
X2833413Y2228856D01*
X2836841Y2227713D01*
X2837984Y2227142D01*
X2838555Y2226570D01*
X2839126Y2225428D01*
Y2223714D01*
X2837984Y2222571D01*
X2836270Y2222000D01*
X2833985D01*
X2832271Y2222571D01*
X2831128Y2223714D01*
X2844668Y2229998D02*
X2843525Y2229427D01*
X2842383Y2228284D01*
X2841812Y2226570D01*
Y2225428D01*
X2842383Y2223714D01*
X2843525Y2222571D01*
X2844668Y2222000D01*
X2846382D01*
X2847524Y2222571D01*
X2848667Y2223714D01*
X2849238Y2225428D01*
Y2226570D01*
X2848667Y2228284D01*
X2847524Y2229427D01*
X2846382Y2229998D01*
X2844668D01*
X2851866Y2233997D02*
Y2222000D01*
X2861236Y2233997D02*
Y2222000D01*
Y2228284D02*
X2860093Y2229427D01*
X2858951Y2229998D01*
X2857237D01*
X2856094Y2229427D01*
X2854951Y2228284D01*
X2854380Y2226570D01*
Y2225428D01*
X2854951Y2223714D01*
X2856094Y2222571D01*
X2857237Y2222000D01*
X2858951D01*
X2860093Y2222571D01*
X2861236Y2223714D01*
X2864435Y2226570D02*
X2871291D01*
Y2227713D01*
X2870720Y2228856D01*
X2870148Y2229427D01*
X2869006Y2229998D01*
X2867292D01*
X2866149Y2229427D01*
X2865006Y2228284D01*
X2864435Y2226570D01*
Y2225428D01*
X2865006Y2223714D01*
X2866149Y2222571D01*
X2867292Y2222000D01*
X2869006D01*
X2870148Y2222571D01*
X2871291Y2223714D01*
X2873862Y2229998D02*
Y2222000D01*
Y2226570D02*
X2874433Y2228284D01*
X2875576Y2229427D01*
X2876718Y2229998D01*
X2878432D01*
X2879518D02*
Y2222000D01*
Y2227713D02*
X2881232Y2229427D01*
X2882374Y2229998D01*
X2884088D01*
X2885231Y2229427D01*
X2885802Y2227713D01*
Y2222000D01*
Y2227713D02*
X2887516Y2229427D01*
X2888659Y2229998D01*
X2890373D01*
X2891515Y2229427D01*
X2892086Y2227713D01*
Y2222000D01*
X2902713Y2229998D02*
Y2222000D01*
Y2228284D02*
X2901570Y2229427D01*
X2900428Y2229998D01*
X2898714D01*
X2897571Y2229427D01*
X2896428Y2228284D01*
X2895857Y2226570D01*
Y2225428D01*
X2896428Y2223714D01*
X2897571Y2222571D01*
X2898714Y2222000D01*
X2900428D01*
X2901570Y2222571D01*
X2902713Y2223714D01*
X2912196Y2228284D02*
X2911625Y2229427D01*
X2909911Y2229998D01*
X2908197D01*
X2906483Y2229427D01*
X2905912Y2228284D01*
X2906483Y2227142D01*
X2907626Y2226570D01*
X2910482Y2225999D01*
X2911625Y2225428D01*
X2912196Y2224285D01*
Y2223714D01*
X2911625Y2222571D01*
X2909911Y2222000D01*
X2908197D01*
X2906483Y2222571D01*
X2905912Y2223714D01*
X2914710Y2233997D02*
Y2222000D01*
X2920423Y2229998D02*
X2914710Y2224285D01*
X2916996Y2226570D02*
X2920995Y2222000D01*
D98*
X2828300Y2645350D02*
D03*
X2777500Y2655500D02*
D03*
Y2635200D02*
D03*
D99*
X2959345Y2735655D02*
D03*
X2950364Y2744635D02*
D03*
X2941384Y2753615D02*
D03*
X2932404Y2762596D02*
D03*
X2923424Y2771576D02*
D03*
X2914443Y2780556D02*
D03*
X2905463Y2789536D02*
D03*
X2896483Y2798517D02*
D03*
X2887503Y2807497D02*
D03*
X2878522Y2816477D02*
D03*
X2869542Y2825457D02*
D03*
X2860562Y2834438D02*
D03*
X2851582Y2843418D02*
D03*
X2842601Y2852398D02*
D03*
X2833621Y2861378D02*
D03*
X2824641Y2870359D02*
D03*
X2815661Y2879339D02*
D03*
X2806680Y2888319D02*
D03*
X2797700Y2897299D02*
D03*
X2788720Y2906280D02*
D03*
D100*
X2967500Y2469700D02*
D03*
Y2482400D02*
D03*
Y2495100D02*
D03*
Y2507800D02*
D03*
Y2520500D02*
D03*
Y2533200D02*
D03*
Y2545900D02*
D03*
Y2558600D02*
D03*
Y2571300D02*
D03*
Y2584000D02*
D03*
Y2596700D02*
D03*
Y2609400D02*
D03*
Y2622100D02*
D03*
Y2634800D02*
D03*
Y2647500D02*
D03*
Y2660200D02*
D03*
Y2672900D02*
D03*
Y2685600D02*
D03*
Y2698300D02*
D03*
Y2711000D02*
D03*
D101*
X2847500Y2690000D02*
D03*
X2796500Y2553000D02*
D03*
X2813000Y2680500D02*
D03*
X2777500Y2551500D02*
D03*
X2791500Y2776500D02*
D03*
X2815642Y2729000D02*
D03*
X2787500Y2536000D02*
D03*
D102*
X2815600Y2639000D02*
D03*
X2802900D02*
D03*
X2790200Y2639000D02*
D03*
Y2651700D02*
D03*
X2802900Y2651700D02*
D03*
X2815600D02*
D03*
M02*
